<svg xmlns="http://www.w3.org/2000/svg" xmlns:v="https://svgstorm.com"
viewBox = "0 0 512 512"
width="512"
height="512">
<g fill="None" fill-opacity="0.0" stroke="#000000" stroke-opacity="0.00" stroke-width="0.3"><path d="
M 0.00 512.00 
L 512.00 512.00
L 512.00 0.00
L 0.00 0.00
L 0.00 512.00
M 394.00 188.00 
C 397.92 199.56 403.15 202.94 404.98 216.02 C 406.80 229.11 422.60 224.41 432.68 227.32 C 442.75 230.23 449.08 241.31 448.00 252.00 C 446.92 262.69 450.47 278.42 445.23 288.23 C 439.99 298.04 429.64 302.70 418.00 301.00 C 406.36 299.30 402.83 313.76 401.07 323.07 C 399.32 332.39 389.05 340.61 389.01 350.01 C 388.97 359.41 403.82 364.10 404.98 374.03 C 406.13 383.95 403.05 394.15 394.25 400.25 C 385.45 406.35 382.81 414.91 373.92 419.92 C 365.02 424.93 352.76 424.87 345.75 415.25 C 338.74 405.63 331.34 405.52 321.31 411.31 C 311.27 417.09 305.01 419.86 292.78 422.78 C 280.55 425.69 284.53 440.40 281.69 450.69 C 278.86 460.99 266.76 466.76 256.00 465.00 C 245.24 463.24 229.92 468.88 219.92 462.08 C 209.92 455.27 208.18 446.80 209.00 434.00 C 209.82 421.20 193.82 423.58 185.31 417.69 C 176.79 411.81 167.88 414.91 161.75 423.75 C 155.62 432.60 148.11 435.56 141.75 443.75 C 135.40 451.95 125.22 453.76 116.31 457.31 C 107.39 460.86 97.06 465.15 87.98 467.98 C 78.90 470.80 68.29 477.78 59.31 479.31 C 50.32 480.84 38.66 492.57 29.78 487.22 C 20.89 481.87 31.88 466.88 33.93 458.93 C 35.98 450.98 41.12 438.63 43.98 429.98 C 46.83 421.32 51.41 410.50 54.77 401.77 C 58.13 393.04 59.93 380.67 66.75 373.75 C 73.57 366.83 79.15 360.63 86.25 354.25 C 93.34 347.87 102.94 339.62 94.69 331.31 C 86.45 322.99 92.34 310.24 83.75 303.25 C 75.15 296.27 61.88 304.34 52.75 295.25 C 43.63 286.15 43.94 276.70 44.00 264.00 C 44.06 251.30 43.59 242.21 51.25 232.25 C 58.91 222.28 75.79 230.32 83.23 224.23 C 90.67 218.13 89.16 203.90 94.31 196.31 C 99.45 188.71 106.13 176.96 99.75 169.25 C 93.38 161.54 86.58 159.22 86.20 150.75 C 85.82 142.28 86.93 136.23 92.75 130.75 C 98.57 125.26 107.34 116.50 112.75 110.75 C 118.16 105.01 124.12 103.13 132.67 103.67 C 141.22 104.21 143.54 107.37 150.75 115.25 C 157.97 123.13 164.11 118.42 170.30 114.30 C 176.48 110.17 181.02 111.81 187.25 107.81 C 193.49 103.81 201.75 105.57 207.10 100.09 C 212.45 94.62 205.38 78.57 210.80 72.75 C 216.22 66.94 219.38 62.48 227.25 61.80 C 235.11 61.12 256.97 60.99 264.74 61.60 C 272.52 62.20 275.84 67.28 281.13 72.92 C 286.42 78.55 280.44 90.70 284.19 98.25 C 287.94 105.80 297.07 102.88 302.75 106.39 C 308.44 109.91 316.00 110.30 320.00 115.00
C 336.83 103.65 350.94 85.33 366.25 70.25 C 381.56 55.16 398.46 39.12 412.00 23.00
C 425.04 23.97 436.22 28.59 444.30 33.71 C 452.39 38.84 467.38 49.27 472.71 59.30 C 478.05 69.33 483.42 76.61 485.71 88.30 C 488.00 100.00 468.74 111.00 459.75 121.75 C 450.76 132.50 436.41 143.71 426.75 154.75 C 417.10 165.79 405.01 177.93 394.00 188.00 Z"/>
</g>
<g fill="None" fill-opacity="0.0" stroke="#000000" stroke-opacity="1.00" stroke-width="0.3"><path d="
M 394.00 188.00 
C 405.01 177.93 417.10 165.79 426.75 154.75 C 436.41 143.71 450.76 132.50 459.75 121.75 C 468.74 111.00 488.00 100.00 485.71 88.30 C 483.42 76.61 478.05 69.33 472.71 59.30 C 467.38 49.27 452.39 38.84 444.30 33.71 C 436.22 28.59 425.04 23.97 412.00 23.00
C 398.46 39.12 381.56 55.16 366.25 70.25 C 350.94 85.33 336.83 103.65 320.00 115.00
C 316.00 110.30 308.44 109.91 302.75 106.39 C 297.07 102.88 287.94 105.80 284.19 98.25 C 280.44 90.70 286.42 78.55 281.13 72.92 C 275.84 67.28 272.52 62.20 264.74 61.60 C 256.97 60.99 235.11 61.12 227.25 61.80 C 219.38 62.48 216.22 66.94 210.80 72.75 C 205.38 78.57 212.45 94.62 207.10 100.09 C 201.75 105.57 193.49 103.81 187.25 107.81 C 181.02 111.81 176.48 110.17 170.30 114.30 C 164.11 118.42 157.97 123.13 150.75 115.25 C 143.54 107.37 141.22 104.21 132.67 103.67 C 124.12 103.13 118.16 105.01 112.75 110.75 C 107.34 116.50 98.57 125.26 92.75 130.75 C 86.93 136.23 85.82 142.28 86.20 150.75 C 86.58 159.22 93.38 161.54 99.75 169.25 C 106.13 176.96 99.45 188.71 94.31 196.31 C 89.16 203.90 90.67 218.13 83.23 224.23 C 75.79 230.32 58.91 222.28 51.25 232.25 C 43.59 242.21 44.06 251.30 44.00 264.00 C 43.94 276.70 43.63 286.15 52.75 295.25 C 61.88 304.34 75.15 296.27 83.75 303.25 C 92.34 310.24 86.45 322.99 94.69 331.31 C 102.94 339.62 93.34 347.87 86.25 354.25 C 79.15 360.63 73.57 366.83 66.75 373.75 C 59.93 380.67 58.13 393.04 54.77 401.77 C 51.41 410.50 46.83 421.32 43.98 429.98 C 41.12 438.63 35.98 450.98 33.93 458.93 C 31.88 466.88 20.89 481.87 29.78 487.22 C 38.66 492.57 50.32 480.84 59.31 479.31 C 68.29 477.78 78.90 470.80 87.98 467.98 C 97.06 465.15 107.39 460.86 116.31 457.31 C 125.22 453.76 135.40 451.95 141.75 443.75 C 148.11 435.56 155.62 432.60 161.75 423.75 C 167.88 414.91 176.79 411.81 185.31 417.69 C 193.82 423.58 209.82 421.20 209.00 434.00 C 208.18 446.80 209.92 455.27 219.92 462.08 C 229.92 468.88 245.24 463.24 256.00 465.00 C 266.76 466.76 278.86 460.99 281.69 450.69 C 284.53 440.40 280.55 425.69 292.78 422.78 C 305.01 419.86 311.27 417.09 321.31 411.31 C 331.34 405.52 338.74 405.63 345.75 415.25 C 352.76 424.87 365.02 424.93 373.92 419.92 C 382.81 414.91 385.45 406.35 394.25 400.25 C 403.05 394.15 406.13 383.95 404.98 374.03 C 403.82 364.10 388.97 359.41 389.01 350.01 C 389.05 340.61 399.32 332.39 401.07 323.07 C 402.83 313.76 406.36 299.30 418.00 301.00 C 429.64 302.70 439.99 298.04 445.23 288.23 C 450.47 278.42 446.92 262.69 448.00 252.00 C 449.08 241.31 442.75 230.23 432.68 227.32 C 422.60 224.41 406.80 229.11 404.98 216.02 C 403.15 202.94 397.92 199.56 394.00 188.00
M 405.00 155.00 
C 410.61 140.30 398.83 129.10 389.25 119.75 C 379.66 110.40 369.11 98.47 355.00 105.00
C 360.63 97.12 368.82 89.05 376.25 82.25 C 383.68 75.45 390.99 65.81 398.75 59.75 C 406.51 53.69 413.10 39.15 423.02 40.98 C 432.95 42.80 443.38 50.98 450.75 58.25 C 458.12 65.52 465.39 75.05 467.92 85.08 C 470.46 95.10 455.82 101.95 449.75 109.75 C 443.68 117.56 433.75 124.45 427.25 132.25 C 420.74 140.05 412.76 148.23 405.00 155.00
M 411.00 241.00 
C 416.15 241.35 421.54 240.65 426.00 242.00
C 430.22 243.28 430.72 243.77 432.00 248.00
C 434.34 255.72 434.41 271.36 432.00 279.00
C 428.42 290.33 412.14 282.07 403.32 287.32 C 394.50 292.57 391.51 301.98 389.02 311.02 C 386.54 320.07 381.65 329.25 377.23 337.23 C 372.81 345.21 371.60 360.41 379.75 366.25 C 387.90 372.08 393.95 382.82 384.75 388.75 C 375.55 394.69 374.89 404.17 364.92 406.92 C 354.96 409.68 351.17 394.28 341.92 392.08 C 332.67 389.88 320.16 392.39 312.31 398.31 C 304.45 404.22 292.94 404.59 284.93 408.93 C 276.91 413.26 265.43 417.08 268.00 430.00 C 270.57 442.93 262.76 451.60 250.00 450.00 C 237.24 448.40 223.50 452.19 224.00 438.00 C 224.50 423.81 222.76 418.01 212.92 411.08 C 203.08 404.15 194.69 407.11 185.00 401.00
C 191.01 393.51 199.04 387.45 205.00 380.00
C 279.70 406.85 360.51 355.05 369.33 276.33 C 378.15 197.61 305.75 128.72 227.93 140.93 C 150.10 153.14 100.81 235.41 131.00 309.00
C 123.42 314.48 118.04 323.71 110.00 328.00
C 106.46 320.50 103.43 309.86 100.68 302.32 C 97.93 294.79 91.43 284.47 81.93 285.07 C 72.43 285.67 56.54 285.03 60.00 272.00 C 63.46 258.97 53.68 248.09 66.00 242.00
C 70.20 240.72 75.17 241.26 80.00 241.00
C 89.30 240.50 97.89 234.55 100.32 225.32 C 102.76 216.09 105.85 207.52 109.92 198.92 C 114.00 190.33 120.36 182.45 118.67 172.33 C 116.98 162.21 109.96 159.18 103.75 151.25 C 97.55 143.32 110.53 136.36 115.25 130.25 C 119.96 124.14 129.69 114.92 136.25 122.75 C 142.80 130.59 149.28 136.04 159.00 136.00 C 168.73 135.96 176.78 129.70 185.23 125.23 C 193.68 120.76 203.82 121.50 212.07 116.07 C 220.33 110.65 226.74 105.17 224.00 92.00 C 221.26 78.83 233.37 76.50 245.00 77.00 C 256.63 77.50 269.96 76.57 268.00 90.00 C 266.04 103.43 270.35 109.37 278.75 115.25 C 287.14 121.14 296.42 120.67 305.08 124.92 C 313.73 129.18 321.62 134.71 331.01 135.99 C 340.40 137.28 348.85 131.92 354.75 123.75 C 360.65 115.58 371.38 122.25 375.75 129.25 C 380.12 136.25 393.66 141.34 389.22 150.22 C 384.78 159.10 376.42 161.00 374.03 171.03 C 371.63 181.05 377.18 188.90 381.77 197.23 C 386.36 205.56 388.54 214.87 391.32 223.68 C 394.10 232.49 400.20 240.27 410.01 240.99
M 347.00 225.00 
C 361.01 262.96 353.36 305.94 325.75 335.75 C 298.14 365.56 257.59 377.75 218.00 368.00
C 223.02 361.51 230.03 356.44 235.00 350.00
C 238.98 345.34 246.21 335.11 252.00 333.00
C 264.59 328.41 279.63 328.26 290.08 318.08 C 300.53 307.91 307.07 300.29 311.98 286.98 C 316.88 273.66 317.82 253.47 312.67 240.33 C 307.52 227.19 301.57 218.49 290.75 209.25 C 279.93 200.00 267.89 195.33 253.78 193.22 C 239.66 191.12 221.87 196.07 209.92 202.92 C 197.97 209.78 191.75 219.22 184.23 230.23 C 176.71 241.24 179.67 259.88 170.25 269.25 C 160.83 278.62 152.67 287.29 143.00 296.00
C 138.65 278.86 135.63 259.06 141.00 242.00
C 149.81 195.53 188.69 160.45 236.00 156.00 C 283.31 151.55 330.28 179.71 347.00 225.00
M 48.00 467.00 
C 54.21 444.90 65.21 420.55 71.93 398.93 C 78.65 377.31 99.06 365.27 113.75 348.75 C 128.44 332.23 144.10 318.12 159.25 302.25 C 174.40 286.37 190.44 272.24 205.25 256.25 C 220.06 240.25 235.91 224.82 251.00 209.00
C 267.74 210.52 279.40 218.65 290.30 231.70 C 301.21 244.74 302.02 262.48 288.75 272.75 C 275.48 283.03 268.92 293.08 257.75 303.75 C 246.58 314.42 238.37 324.90 227.25 335.25 C 216.13 345.60 206.93 355.68 196.25 366.25 C 185.56 376.82 176.59 387.03 165.75 397.75 C 154.91 408.47 145.53 417.30 134.75 428.75 C 123.97 440.20 107.73 443.60 93.32 449.32 C 78.91 455.04 62.75 461.58 48.00 467.00
M 224.00 214.00 
C 215.49 223.33 206.29 232.55 197.00 241.00
C 201.36 228.99 212.19 218.58 224.00 214.00
M 291.00 294.00 
C 288.08 299.35 282.35 305.13 277.00 308.00
C 281.18 303.01 286.04 298.11 291.00 294.00 Z"/>
</g>
<g fill="None" fill-opacity="0.0" stroke="#EA1F23" stroke-opacity="1.00" stroke-width="0.3"><path d="
M 405.00 155.00 
C 412.76 148.23 420.74 140.05 427.25 132.25 C 433.75 124.45 443.68 117.56 449.75 109.75 C 455.82 101.95 470.46 95.10 467.92 85.08 C 465.39 75.05 458.12 65.52 450.75 58.25 C 443.38 50.98 432.95 42.80 423.02 40.98 C 413.10 39.15 406.51 53.69 398.75 59.75 C 390.99 65.81 383.68 75.45 376.25 82.25 C 368.82 89.05 360.63 97.12 355.00 105.00
C 369.11 98.47 379.66 110.40 389.25 119.75 C 398.83 129.10 410.61 140.30 405.00 155.00 Z"/>
</g>
<g fill="None" fill-opacity="0.0" stroke="#DB6D41" stroke-opacity="1.00" stroke-width="0.3"><path d="
M 80.00 241.00 
C 76.00 241.65 70.46 241.25 66.00 242.00
C 53.68 248.09 63.46 258.97 60.00 272.00 C 56.54 285.03 72.43 285.67 81.93 285.07 C 91.43 284.47 97.93 294.79 100.68 302.32 C 103.43 309.86 106.46 320.50 110.00 328.00
C 118.04 323.71 123.42 314.48 131.00 309.00
C 100.81 235.41 150.10 153.14 227.93 140.93 C 305.75 128.72 378.15 197.61 369.33 276.33 C 360.51 355.05 279.70 406.85 205.00 380.00
C 199.04 387.45 191.01 393.51 185.00 401.00
C 194.69 407.11 203.08 404.15 212.92 411.08 C 222.76 418.01 224.50 423.81 224.00 438.00 C 223.50 452.19 237.24 448.40 250.00 450.00 C 262.76 451.60 270.57 442.93 268.00 430.00 C 265.43 417.08 276.91 413.26 284.93 408.93 C 292.94 404.59 304.45 404.22 312.31 398.31 C 320.16 392.39 332.67 389.88 341.92 392.08 C 351.17 394.28 354.96 409.68 364.92 406.92 C 374.89 404.17 375.55 394.69 384.75 388.75 C 393.95 382.82 387.90 372.08 379.75 366.25 C 371.60 360.41 372.81 345.21 377.23 337.23 C 381.65 329.25 386.54 320.07 389.02 311.02 C 391.51 301.98 394.50 292.57 403.32 287.32 C 412.14 282.07 428.42 290.33 432.00 279.00
C 433.53 270.48 433.44 256.53 432.00 248.00
C 430.72 243.77 430.22 243.28 426.00 242.00
C 421.17 241.18 415.30 241.77 411.00 241.00
C 400.20 240.27 394.10 232.49 391.32 223.68 C 388.54 214.87 386.36 205.56 381.77 197.23 C 377.18 188.90 371.63 181.05 374.03 171.03 C 376.42 161.00 384.78 159.10 389.22 150.22 C 393.66 141.34 380.12 136.25 375.75 129.25 C 371.38 122.25 360.65 115.58 354.75 123.75 C 348.85 131.92 340.40 137.28 331.01 135.99 C 321.62 134.71 313.73 129.18 305.08 124.92 C 296.42 120.67 287.14 121.14 278.75 115.25 C 270.35 109.37 266.04 103.43 268.00 90.00 C 269.96 76.57 256.63 77.50 245.00 77.00 C 233.37 76.50 221.26 78.83 224.00 92.00 C 226.74 105.17 220.33 110.65 212.07 116.07 C 203.82 121.50 193.68 120.76 185.23 125.23 C 176.78 129.70 168.73 135.96 159.00 136.00 C 149.28 136.04 142.80 130.59 136.25 122.75 C 129.69 114.92 119.96 124.14 115.25 130.25 C 110.53 136.36 97.55 143.32 103.75 151.25 C 109.96 159.18 116.98 162.21 118.67 172.33 C 120.36 182.45 114.00 190.33 109.92 198.92 C 105.85 207.52 102.76 216.09 100.32 225.32 C 97.89 234.55 89.30 240.50 80.00 241.00 Z"/>
</g>
<g fill="None" fill-opacity="0.0" stroke="#DE9D34" stroke-opacity="1.00" stroke-width="0.3"><path d="
M 141.00 242.00 
C 156.60 201.76 190.58 170.90 235.01 166.01 C 279.44 161.11 325.20 185.88 347.00 225.00
C 330.28 179.71 283.31 151.55 236.00 156.00 C 188.69 160.45 149.81 195.53 141.00 242.00 Z"/>
</g>
<g fill="None" fill-opacity="0.0" stroke="#FAAF3A" stroke-opacity="1.00" stroke-width="0.3"><path d="
M 141.00 242.00 
C 135.63 259.06 138.65 278.86 143.00 296.00
C 152.67 287.29 160.83 278.62 170.25 269.25 C 179.67 259.88 176.71 241.24 184.23 230.23 C 191.75 219.22 197.97 209.78 209.92 202.92 C 221.87 196.07 239.66 191.12 253.78 193.22 C 267.89 195.33 279.93 200.00 290.75 209.25 C 301.57 218.49 307.52 227.19 312.67 240.33 C 317.82 253.47 316.88 273.66 311.98 286.98 C 307.07 300.29 300.53 307.91 290.08 318.08 C 279.63 328.26 264.59 328.41 252.00 333.00
C 246.89 335.26 239.11 345.89 235.00 350.00
C 230.03 356.44 223.02 361.51 218.00 368.00
C 257.59 377.75 298.14 365.56 325.75 335.75 C 353.36 305.94 361.01 262.96 347.00 225.00
C 325.20 185.88 279.44 161.11 235.01 166.01 C 190.58 170.90 156.60 201.76 141.00 242.00 Z"/>
</g>
<g fill="None" fill-opacity="0.0" stroke="#EB1F23" stroke-opacity="1.00" stroke-width="0.3"><path d="
M 48.00 467.00 
C 62.75 461.58 78.91 455.04 93.32 449.32 C 107.73 443.60 123.97 440.20 134.75 428.75 C 145.53 417.30 154.91 408.47 165.75 397.75 C 176.59 387.03 185.56 376.82 196.25 366.25 C 206.93 355.68 216.13 345.60 227.25 335.25 C 238.37 324.90 246.58 314.42 257.75 303.75 C 268.92 293.08 275.48 283.03 288.75 272.75 C 302.02 262.48 301.21 244.74 290.30 231.70 C 279.40 218.65 267.74 210.52 251.00 209.00
C 235.91 224.82 220.06 240.25 205.25 256.25 C 190.44 272.24 174.40 286.37 159.25 302.25 C 144.10 318.12 128.44 332.23 113.75 348.75 C 99.06 365.27 78.65 377.31 71.93 398.93 C 65.21 420.55 54.21 444.90 48.00 467.00 Z"/>
</g>
<g fill="None" fill-opacity="0.0" stroke="#A1502F" stroke-opacity="1.00" stroke-width="0.3"><path d="
M 224.00 214.00 
C 212.19 218.58 201.36 228.99 197.00 241.00
C 206.29 232.55 215.49 223.33 224.00 214.00 Z"/>
</g>
<g fill="None" fill-opacity="0.0" stroke="#68331F" stroke-opacity="1.00" stroke-width="0.3"><path d="
M 66.00 242.00 
C 70.46 241.25 76.00 241.65 80.00 241.00
C 75.17 241.26 70.20 240.72 66.00 242.00 Z"/>
</g>
<g fill="None" fill-opacity="0.0" stroke="#5A2D1A" stroke-opacity="1.00" stroke-width="0.3"><path d="
M 426.00 242.00 
C 421.54 240.65 416.15 241.35 411.00 241.00
C 415.30 241.77 421.17 241.18 426.00 242.00 Z"/>
</g>
<g fill="None" fill-opacity="0.0" stroke="#6D3620" stroke-opacity="1.00" stroke-width="0.3"><path d="
M 432.00 279.00 
C 434.41 271.36 434.34 255.72 432.00 248.00
C 433.44 256.53 433.53 270.48 432.00 279.00 Z"/>
</g>
<g fill="None" fill-opacity="0.0" stroke="#67331E" stroke-opacity="1.00" stroke-width="0.3"><path d="
M 291.00 294.00 
C 286.04 298.11 281.18 303.01 277.00 308.00
C 282.35 305.13 288.08 299.35 291.00 294.00 Z"/>
</g>
<g fill="None" fill-opacity="0.0" stroke="#78541C" stroke-opacity="1.00" stroke-width="0.3"><path d="
M 235.00 350.00 
C 239.11 345.89 246.89 335.26 252.00 333.00
C 246.21 335.11 238.98 345.34 235.00 350.00 Z"/>
</g>
<g fill="#000000" fill-opacity="0.00" stroke="None">
<path d="
M 0.00 512.00 
L 512.00 512.00
L 512.00 0.00
L 0.00 0.00
L 0.00 512.00
M 394.00 188.00 
C 397.92 199.56 403.15 202.94 404.98 216.02 C 406.80 229.11 422.60 224.41 432.68 227.32 C 442.75 230.23 449.08 241.31 448.00 252.00 C 446.92 262.69 450.47 278.42 445.23 288.23 C 439.99 298.04 429.64 302.70 418.00 301.00 C 406.36 299.30 402.83 313.76 401.07 323.07 C 399.32 332.39 389.05 340.61 389.01 350.01 C 388.97 359.41 403.82 364.10 404.98 374.03 C 406.13 383.95 403.05 394.15 394.25 400.25 C 385.45 406.35 382.81 414.91 373.92 419.92 C 365.02 424.93 352.76 424.87 345.75 415.25 C 338.74 405.63 331.34 405.52 321.31 411.31 C 311.27 417.09 305.01 419.86 292.78 422.78 C 280.55 425.69 284.53 440.40 281.69 450.69 C 278.86 460.99 266.76 466.76 256.00 465.00 C 245.24 463.24 229.92 468.88 219.92 462.08 C 209.92 455.27 208.18 446.80 209.00 434.00 C 209.82 421.20 193.82 423.58 185.31 417.69 C 176.79 411.81 167.88 414.91 161.75 423.75 C 155.62 432.60 148.11 435.56 141.75 443.75 C 135.40 451.95 125.22 453.76 116.31 457.31 C 107.39 460.86 97.06 465.15 87.98 467.98 C 78.90 470.80 68.29 477.78 59.31 479.31 C 50.32 480.84 38.66 492.57 29.78 487.22 C 20.89 481.87 31.88 466.88 33.93 458.93 C 35.98 450.98 41.12 438.63 43.98 429.98 C 46.83 421.32 51.41 410.50 54.77 401.77 C 58.13 393.04 59.93 380.67 66.75 373.75 C 73.57 366.83 79.15 360.63 86.25 354.25 C 93.34 347.87 102.94 339.62 94.69 331.31 C 86.45 322.99 92.34 310.24 83.75 303.25 C 75.15 296.27 61.88 304.34 52.75 295.25 C 43.63 286.15 43.94 276.70 44.00 264.00 C 44.06 251.30 43.59 242.21 51.25 232.25 C 58.91 222.28 75.79 230.32 83.23 224.23 C 90.67 218.13 89.16 203.90 94.31 196.31 C 99.45 188.71 106.13 176.96 99.75 169.25 C 93.38 161.54 86.58 159.22 86.20 150.75 C 85.82 142.28 86.93 136.23 92.75 130.75 C 98.57 125.26 107.34 116.50 112.75 110.75 C 118.16 105.01 124.12 103.13 132.67 103.67 C 141.22 104.21 143.54 107.37 150.75 115.25 C 157.97 123.13 164.11 118.42 170.30 114.30 C 176.48 110.17 181.02 111.81 187.25 107.81 C 193.49 103.81 201.75 105.57 207.10 100.09 C 212.45 94.62 205.38 78.57 210.80 72.75 C 216.22 66.94 219.38 62.48 227.25 61.80 C 235.11 61.12 256.97 60.99 264.74 61.60 C 272.52 62.20 275.84 67.28 281.13 72.92 C 286.42 78.55 280.44 90.70 284.19 98.25 C 287.94 105.80 297.07 102.88 302.75 106.39 C 308.44 109.91 316.00 110.30 320.00 115.00
C 336.83 103.65 350.94 85.33 366.25 70.25 C 381.56 55.16 398.46 39.12 412.00 23.00
C 425.04 23.97 436.22 28.59 444.30 33.71 C 452.39 38.84 467.38 49.27 472.71 59.30 C 478.05 69.33 483.42 76.61 485.71 88.30 C 488.00 100.00 468.74 111.00 459.75 121.75 C 450.76 132.50 436.41 143.71 426.75 154.75 C 417.10 165.79 405.01 177.93 394.00 188.00 Z"/>
</g>
<g fill="#000000" fill-opacity="1.00" stroke="None">
<path d="
M 394.00 188.00 
C 405.01 177.93 417.10 165.79 426.75 154.75 C 436.41 143.71 450.76 132.50 459.75 121.75 C 468.74 111.00 488.00 100.00 485.71 88.30 C 483.42 76.61 478.05 69.33 472.71 59.30 C 467.38 49.27 452.39 38.84 444.30 33.71 C 436.22 28.59 425.04 23.97 412.00 23.00
C 398.46 39.12 381.56 55.16 366.25 70.25 C 350.94 85.33 336.83 103.65 320.00 115.00
C 316.00 110.30 308.44 109.91 302.75 106.39 C 297.07 102.88 287.94 105.80 284.19 98.25 C 280.44 90.70 286.42 78.55 281.13 72.92 C 275.84 67.28 272.52 62.20 264.74 61.60 C 256.97 60.99 235.11 61.12 227.25 61.80 C 219.38 62.48 216.22 66.94 210.80 72.75 C 205.38 78.57 212.45 94.62 207.10 100.09 C 201.75 105.57 193.49 103.81 187.25 107.81 C 181.02 111.81 176.48 110.17 170.30 114.30 C 164.11 118.42 157.97 123.13 150.75 115.25 C 143.54 107.37 141.22 104.21 132.67 103.67 C 124.12 103.13 118.16 105.01 112.75 110.75 C 107.34 116.50 98.57 125.26 92.75 130.75 C 86.93 136.23 85.82 142.28 86.20 150.75 C 86.58 159.22 93.38 161.54 99.75 169.25 C 106.13 176.96 99.45 188.71 94.31 196.31 C 89.16 203.90 90.67 218.13 83.23 224.23 C 75.79 230.32 58.91 222.28 51.25 232.25 C 43.59 242.21 44.06 251.30 44.00 264.00 C 43.94 276.70 43.63 286.15 52.75 295.25 C 61.88 304.34 75.15 296.27 83.75 303.25 C 92.34 310.24 86.45 322.99 94.69 331.31 C 102.94 339.62 93.34 347.87 86.25 354.25 C 79.15 360.63 73.57 366.83 66.75 373.75 C 59.93 380.67 58.13 393.04 54.77 401.77 C 51.41 410.50 46.83 421.32 43.98 429.98 C 41.12 438.63 35.98 450.98 33.93 458.93 C 31.88 466.88 20.89 481.87 29.78 487.22 C 38.66 492.57 50.32 480.84 59.31 479.31 C 68.29 477.78 78.90 470.80 87.98 467.98 C 97.06 465.15 107.39 460.86 116.31 457.31 C 125.22 453.76 135.40 451.95 141.75 443.75 C 148.11 435.56 155.62 432.60 161.75 423.75 C 167.88 414.91 176.79 411.81 185.31 417.69 C 193.82 423.58 209.82 421.20 209.00 434.00 C 208.18 446.80 209.92 455.27 219.92 462.08 C 229.92 468.88 245.24 463.24 256.00 465.00 C 266.76 466.76 278.86 460.99 281.69 450.69 C 284.53 440.40 280.55 425.69 292.78 422.78 C 305.01 419.86 311.27 417.09 321.31 411.31 C 331.34 405.52 338.74 405.63 345.75 415.25 C 352.76 424.87 365.02 424.93 373.92 419.92 C 382.81 414.91 385.45 406.35 394.25 400.25 C 403.05 394.15 406.13 383.95 404.98 374.03 C 403.82 364.10 388.97 359.41 389.01 350.01 C 389.05 340.61 399.32 332.39 401.07 323.07 C 402.83 313.76 406.36 299.30 418.00 301.00 C 429.64 302.70 439.99 298.04 445.23 288.23 C 450.47 278.42 446.92 262.69 448.00 252.00 C 449.08 241.31 442.75 230.23 432.68 227.32 C 422.60 224.41 406.80 229.11 404.98 216.02 C 403.15 202.94 397.92 199.56 394.00 188.00
M 405.00 155.00 
C 410.61 140.30 398.83 129.10 389.25 119.75 C 379.66 110.40 369.11 98.47 355.00 105.00
C 360.63 97.12 368.82 89.05 376.25 82.25 C 383.68 75.45 390.99 65.81 398.75 59.75 C 406.51 53.69 413.10 39.15 423.02 40.98 C 432.95 42.80 443.38 50.98 450.75 58.25 C 458.12 65.52 465.39 75.05 467.92 85.08 C 470.46 95.10 455.82 101.95 449.75 109.75 C 443.68 117.56 433.75 124.45 427.25 132.25 C 420.74 140.05 412.76 148.23 405.00 155.00
M 411.00 241.00 
C 416.15 241.35 421.54 240.65 426.00 242.00
C 430.22 243.28 430.72 243.77 432.00 248.00
C 434.34 255.72 434.41 271.36 432.00 279.00
C 428.42 290.33 412.14 282.07 403.32 287.32 C 394.50 292.57 391.51 301.98 389.02 311.02 C 386.54 320.07 381.65 329.25 377.23 337.23 C 372.81 345.21 371.60 360.41 379.75 366.25 C 387.90 372.08 393.95 382.82 384.75 388.75 C 375.55 394.69 374.89 404.17 364.92 406.92 C 354.96 409.68 351.17 394.28 341.92 392.08 C 332.67 389.88 320.16 392.39 312.31 398.31 C 304.45 404.22 292.94 404.59 284.93 408.93 C 276.91 413.26 265.43 417.08 268.00 430.00 C 270.57 442.93 262.76 451.60 250.00 450.00 C 237.24 448.40 223.50 452.19 224.00 438.00 C 224.50 423.81 222.76 418.01 212.92 411.08 C 203.08 404.15 194.69 407.11 185.00 401.00
C 191.01 393.51 199.04 387.45 205.00 380.00
C 279.70 406.85 360.51 355.05 369.33 276.33 C 378.15 197.61 305.75 128.72 227.93 140.93 C 150.10 153.14 100.81 235.41 131.00 309.00
C 123.42 314.48 118.04 323.71 110.00 328.00
C 106.46 320.50 103.43 309.86 100.68 302.32 C 97.93 294.79 91.43 284.47 81.93 285.07 C 72.43 285.67 56.54 285.03 60.00 272.00 C 63.46 258.97 53.68 248.09 66.00 242.00
C 70.20 240.72 75.17 241.26 80.00 241.00
C 89.30 240.50 97.89 234.55 100.32 225.32 C 102.76 216.09 105.85 207.52 109.92 198.92 C 114.00 190.33 120.36 182.45 118.67 172.33 C 116.98 162.21 109.96 159.18 103.75 151.25 C 97.55 143.32 110.53 136.36 115.25 130.25 C 119.96 124.14 129.69 114.92 136.25 122.75 C 142.80 130.59 149.28 136.04 159.00 136.00 C 168.73 135.96 176.78 129.70 185.23 125.23 C 193.68 120.76 203.82 121.50 212.07 116.07 C 220.33 110.65 226.74 105.17 224.00 92.00 C 221.26 78.83 233.37 76.50 245.00 77.00 C 256.63 77.50 269.96 76.57 268.00 90.00 C 266.04 103.43 270.35 109.37 278.75 115.25 C 287.14 121.14 296.42 120.67 305.08 124.92 C 313.73 129.18 321.62 134.71 331.01 135.99 C 340.40 137.28 348.85 131.92 354.75 123.75 C 360.65 115.58 371.38 122.25 375.75 129.25 C 380.12 136.25 393.66 141.34 389.22 150.22 C 384.78 159.10 376.42 161.00 374.03 171.03 C 371.63 181.05 377.18 188.90 381.77 197.23 C 386.36 205.56 388.54 214.87 391.32 223.68 C 394.10 232.49 400.20 240.27 410.01 240.99
M 347.00 225.00 
C 361.01 262.96 353.36 305.94 325.75 335.75 C 298.14 365.56 257.59 377.75 218.00 368.00
C 223.02 361.51 230.03 356.44 235.00 350.00
C 238.98 345.34 246.21 335.11 252.00 333.00
C 264.59 328.41 279.63 328.26 290.08 318.08 C 300.53 307.91 307.07 300.29 311.98 286.98 C 316.88 273.66 317.82 253.47 312.67 240.33 C 307.52 227.19 301.57 218.49 290.75 209.25 C 279.93 200.00 267.89 195.33 253.78 193.22 C 239.66 191.12 221.87 196.07 209.92 202.92 C 197.97 209.78 191.75 219.22 184.23 230.23 C 176.71 241.24 179.67 259.88 170.25 269.25 C 160.83 278.62 152.67 287.29 143.00 296.00
C 138.65 278.86 135.63 259.06 141.00 242.00
C 149.81 195.53 188.69 160.45 236.00 156.00 C 283.31 151.55 330.28 179.71 347.00 225.00
M 48.00 467.00 
C 54.21 444.90 65.21 420.55 71.93 398.93 C 78.65 377.31 99.06 365.27 113.75 348.75 C 128.44 332.23 144.10 318.12 159.25 302.25 C 174.40 286.37 190.44 272.24 205.25 256.25 C 220.06 240.25 235.91 224.82 251.00 209.00
C 267.74 210.52 279.40 218.65 290.30 231.70 C 301.21 244.74 302.02 262.48 288.75 272.75 C 275.48 283.03 268.92 293.08 257.75 303.75 C 246.58 314.42 238.37 324.90 227.25 335.25 C 216.13 345.60 206.93 355.68 196.25 366.25 C 185.56 376.82 176.59 387.03 165.75 397.75 C 154.91 408.47 145.53 417.30 134.75 428.75 C 123.97 440.20 107.73 443.60 93.32 449.32 C 78.91 455.04 62.75 461.58 48.00 467.00
M 224.00 214.00 
C 215.49 223.33 206.29 232.55 197.00 241.00
C 201.36 228.99 212.19 218.58 224.00 214.00
M 291.00 294.00 
C 288.08 299.35 282.35 305.13 277.00 308.00
C 281.18 303.01 286.04 298.11 291.00 294.00 Z"/>
</g>
<g fill="#EA1F23" fill-opacity="1.00" stroke="None">
<path d="
M 405.00 155.00 
C 412.76 148.23 420.74 140.05 427.25 132.25 C 433.75 124.45 443.68 117.56 449.75 109.75 C 455.82 101.95 470.46 95.10 467.92 85.08 C 465.39 75.05 458.12 65.52 450.75 58.25 C 443.38 50.98 432.95 42.80 423.02 40.98 C 413.10 39.15 406.51 53.69 398.75 59.75 C 390.99 65.81 383.68 75.45 376.25 82.25 C 368.82 89.05 360.63 97.12 355.00 105.00
C 369.11 98.47 379.66 110.40 389.25 119.75 C 398.83 129.10 410.61 140.30 405.00 155.00 Z"/>
</g>
<g fill="#DB6D41" fill-opacity="1.00" stroke="None">
<path d="
M 80.00 241.00 
C 76.00 241.65 70.46 241.25 66.00 242.00
C 53.68 248.09 63.46 258.97 60.00 272.00 C 56.54 285.03 72.43 285.67 81.93 285.07 C 91.43 284.47 97.93 294.79 100.68 302.32 C 103.43 309.86 106.46 320.50 110.00 328.00
C 118.04 323.71 123.42 314.48 131.00 309.00
C 100.81 235.41 150.10 153.14 227.93 140.93 C 305.75 128.72 378.15 197.61 369.33 276.33 C 360.51 355.05 279.70 406.85 205.00 380.00
C 199.04 387.45 191.01 393.51 185.00 401.00
C 194.69 407.11 203.08 404.15 212.92 411.08 C 222.76 418.01 224.50 423.81 224.00 438.00 C 223.50 452.19 237.24 448.40 250.00 450.00 C 262.76 451.60 270.57 442.93 268.00 430.00 C 265.43 417.08 276.91 413.26 284.93 408.93 C 292.94 404.59 304.45 404.22 312.31 398.31 C 320.16 392.39 332.67 389.88 341.92 392.08 C 351.17 394.28 354.96 409.68 364.92 406.92 C 374.89 404.17 375.55 394.69 384.75 388.75 C 393.95 382.82 387.90 372.08 379.75 366.25 C 371.60 360.41 372.81 345.21 377.23 337.23 C 381.65 329.25 386.54 320.07 389.02 311.02 C 391.51 301.98 394.50 292.57 403.32 287.32 C 412.14 282.07 428.42 290.33 432.00 279.00
C 433.53 270.48 433.44 256.53 432.00 248.00
C 430.72 243.77 430.22 243.28 426.00 242.00
C 421.17 241.18 415.30 241.77 411.00 241.00
C 400.20 240.27 394.10 232.49 391.32 223.68 C 388.54 214.87 386.36 205.56 381.77 197.23 C 377.18 188.90 371.63 181.05 374.03 171.03 C 376.42 161.00 384.78 159.10 389.22 150.22 C 393.66 141.34 380.12 136.25 375.75 129.25 C 371.38 122.25 360.65 115.58 354.75 123.75 C 348.85 131.92 340.40 137.28 331.01 135.99 C 321.62 134.71 313.73 129.18 305.08 124.92 C 296.42 120.67 287.14 121.14 278.75 115.25 C 270.35 109.37 266.04 103.43 268.00 90.00 C 269.96 76.57 256.63 77.50 245.00 77.00 C 233.37 76.50 221.26 78.83 224.00 92.00 C 226.74 105.17 220.33 110.65 212.07 116.07 C 203.82 121.50 193.68 120.76 185.23 125.23 C 176.78 129.70 168.73 135.96 159.00 136.00 C 149.28 136.04 142.80 130.59 136.25 122.75 C 129.69 114.92 119.96 124.14 115.25 130.25 C 110.53 136.36 97.55 143.32 103.75 151.25 C 109.96 159.18 116.98 162.21 118.67 172.33 C 120.36 182.45 114.00 190.33 109.92 198.92 C 105.85 207.52 102.76 216.09 100.32 225.32 C 97.89 234.55 89.30 240.50 80.00 241.00 Z"/>
</g>
<g fill="#DE9D34" fill-opacity="1.00" stroke="None">
<path d="
M 141.00 242.00 
C 156.60 201.76 190.58 170.90 235.01 166.01 C 279.44 161.11 325.20 185.88 347.00 225.00
C 330.28 179.71 283.31 151.55 236.00 156.00 C 188.69 160.45 149.81 195.53 141.00 242.00 Z"/>
</g>
<g fill="#FAAF3A" fill-opacity="1.00" stroke="None">
<path d="
M 141.00 242.00 
C 135.63 259.06 138.65 278.86 143.00 296.00
C 152.67 287.29 160.83 278.62 170.25 269.25 C 179.67 259.88 176.71 241.24 184.23 230.23 C 191.75 219.22 197.97 209.78 209.92 202.92 C 221.87 196.07 239.66 191.12 253.78 193.22 C 267.89 195.33 279.93 200.00 290.75 209.25 C 301.57 218.49 307.52 227.19 312.67 240.33 C 317.82 253.47 316.88 273.66 311.98 286.98 C 307.07 300.29 300.53 307.91 290.08 318.08 C 279.63 328.26 264.59 328.41 252.00 333.00
C 246.89 335.26 239.11 345.89 235.00 350.00
C 230.03 356.44 223.02 361.51 218.00 368.00
C 257.59 377.75 298.14 365.56 325.75 335.75 C 353.36 305.94 361.01 262.96 347.00 225.00
C 325.20 185.88 279.44 161.11 235.01 166.01 C 190.58 170.90 156.60 201.76 141.00 242.00 Z"/>
</g>
<g fill="#EB1F23" fill-opacity="1.00" stroke="None">
<path d="
M 48.00 467.00 
C 62.75 461.58 78.91 455.04 93.32 449.32 C 107.73 443.60 123.97 440.20 134.75 428.75 C 145.53 417.30 154.91 408.47 165.75 397.75 C 176.59 387.03 185.56 376.82 196.25 366.25 C 206.93 355.68 216.13 345.60 227.25 335.25 C 238.37 324.90 246.58 314.42 257.75 303.75 C 268.92 293.08 275.48 283.03 288.75 272.75 C 302.02 262.48 301.21 244.74 290.30 231.70 C 279.40 218.65 267.74 210.52 251.00 209.00
C 235.91 224.82 220.06 240.25 205.25 256.25 C 190.44 272.24 174.40 286.37 159.25 302.25 C 144.10 318.12 128.44 332.23 113.75 348.75 C 99.06 365.27 78.65 377.31 71.93 398.93 C 65.21 420.55 54.21 444.90 48.00 467.00 Z"/>
</g>
<g fill="#A1502F" fill-opacity="1.00" stroke="None">
<path d="
M 224.00 214.00 
C 212.19 218.58 201.36 228.99 197.00 241.00
C 206.29 232.55 215.49 223.33 224.00 214.00 Z"/>
</g>
<g fill="#68331F" fill-opacity="1.00" stroke="None">
<path d="
M 66.00 242.00 
C 70.46 241.25 76.00 241.65 80.00 241.00
C 75.17 241.26 70.20 240.72 66.00 242.00 Z"/>
</g>
<g fill="#5A2D1A" fill-opacity="1.00" stroke="None">
<path d="
M 426.00 242.00 
C 421.54 240.65 416.15 241.35 411.00 241.00
C 415.30 241.77 421.17 241.18 426.00 242.00 Z"/>
</g>
<g fill="#6D3620" fill-opacity="1.00" stroke="None">
<path d="
M 432.00 279.00 
C 434.41 271.36 434.34 255.72 432.00 248.00
C 433.44 256.53 433.53 270.48 432.00 279.00 Z"/>
</g>
<g fill="#67331E" fill-opacity="1.00" stroke="None">
<path d="
M 291.00 294.00 
C 286.04 298.11 281.18 303.01 277.00 308.00
C 282.35 305.13 288.08 299.35 291.00 294.00 Z"/>
</g>
<g fill="#78541C" fill-opacity="1.00" stroke="None">
<path d="
M 235.00 350.00 
C 239.11 345.89 246.89 335.26 252.00 333.00
C 246.21 335.11 238.98 345.34 235.00 350.00 Z"/>
</g>
</svg>