<svg xmlns="http://www.w3.org/2000/svg" xmlns:v="https://svgstorm.com"
viewBox = "0 0 512 512"
width="512"
height="512">
<g fill="None" fill-opacity="0.0" stroke="#000000" stroke-opacity="0.00" stroke-width="0.3"><path d="
M 0.00 512.00 
L 100.00 512.00
C 82.09 498.63 94.83 470.01 91.00 450.00
C 73.73 453.27 60.06 448.24 61.00 430.00 C 61.94 411.76 61.95 398.24 61.00 380.00 C 60.05 361.76 73.73 356.74 91.00 360.00
C 94.90 343.89 85.46 324.20 91.78 308.78 C 98.10 293.36 121.11 301.45 136.00 300.00 C 150.89 298.55 171.81 300.75 188.00 300.00 C 204.19 299.25 224.44 300.56 241.00 300.00
C 241.00 290.00 241.00 280.00 241.00 270.00
C 220.54 268.84 197.85 259.56 181.00 248.00
C 133.48 215.40 109.99 153.91 124.99 98.99 C 140.00 44.08 186.46 8.10 240.00 0.00
L 0.00 0.00
L 0.00 512.00 Z"/>
</g>
<g fill="None" fill-opacity="0.0" stroke="#0C799D" stroke-opacity="0.99" stroke-width="0.3"><path d="
M 181.00 248.00 
C 177.99 241.10 182.30 228.39 181.00 221.00 C 179.70 213.61 184.40 205.61 185.93 198.93 C 187.45 192.24 191.58 186.83 195.25 181.25 C 198.93 175.68 203.37 172.15 208.25 167.25 C 213.12 162.34 218.89 160.37 225.03 157.03 C 231.16 153.68 239.85 151.82 247.00 151.00
C 247.45 150.83 248.62 149.13 249.00 149.00
C 226.30 145.61 208.94 124.13 211.00 101.00 C 213.06 77.87 233.24 60.18 256.00 60.00
C 256.00 40.00 256.00 20.00 256.00 0.00
L 240.00 0.00
C 186.46 8.10 140.00 44.08 124.99 98.99 C 109.99 153.91 133.48 215.40 181.00 248.00 Z"/>
</g>
<g fill="None" fill-opacity="0.0" stroke="#07485E" stroke-opacity="0.99" stroke-width="0.3"><path d="
M 256.00 60.00 
C 278.64 59.20 298.48 77.80 300.99 100.01 C 303.50 122.22 287.00 146.74 264.00 149.00
C 284.41 154.29 302.41 161.43 316.25 179.75 C 330.09 198.07 333.18 224.36 331.00 248.00
C 379.48 216.73 401.47 153.19 387.01 98.99 C 372.54 44.80 325.13 7.55 272.00 0.00
L 256.00 0.00
C 256.00 20.00 256.00 40.00 256.00 60.00 Z"/>
</g>
<g fill="None" fill-opacity="0.0" stroke="#000000" stroke-opacity="0.00" stroke-width="0.3"><path d="
M 331.00 248.00 
C 313.57 259.25 291.92 268.82 271.00 270.00
C 273.31 273.45 269.79 280.81 271.00 285.00 C 272.21 289.19 270.09 295.61 271.00 300.00
C 287.42 300.63 306.88 299.16 323.00 300.00 C 339.12 300.84 361.07 298.41 376.00 300.00 C 390.93 301.59 413.06 293.18 419.92 308.08 C 426.77 322.98 417.03 344.15 421.00 360.00
C 438.27 356.73 451.94 361.76 451.00 380.00 C 450.06 398.24 450.05 411.76 451.00 430.00 C 451.95 448.24 438.27 453.26 421.00 450.00
C 417.18 470.01 429.89 498.68 412.00 512.00
L 512.00 512.00
L 512.00 0.00
L 272.00 0.00
C 325.13 7.55 372.54 44.80 387.01 98.99 C 401.47 153.19 379.48 216.73 331.00 248.00 Z"/>
</g>
<g fill="None" fill-opacity="0.0" stroke="#FEF4F4" stroke-opacity="1.00" stroke-width="0.3"><path d="
M 249.00 149.00 
C 250.63 149.24 252.36 148.82 254.00 149.00
C 252.53 151.16 249.49 151.12 247.00 151.00
C 239.85 151.82 231.16 153.68 225.03 157.03 C 218.89 160.37 213.12 162.34 208.25 167.25 C 203.37 172.15 198.93 175.68 195.25 181.25 C 191.58 186.83 187.45 192.24 185.93 198.93 C 184.40 205.61 179.70 213.61 181.00 221.00 C 182.30 228.39 177.99 241.10 181.00 248.00
C 197.85 259.56 220.54 268.84 241.00 270.00
C 244.93 270.22 251.04 269.55 256.00 270.00
C 256.00 200.00 256.00 130.00 256.00 60.00
C 233.24 60.18 213.06 77.87 211.00 101.00 C 208.94 124.13 226.30 145.61 249.00 149.00 Z"/>
</g>
<g fill="None" fill-opacity="0.0" stroke="#E0EAEF" stroke-opacity="1.00" stroke-width="0.3"><path d="
M 256.00 270.00 
C 260.97 269.55 267.10 270.22 271.00 270.00
C 291.92 268.82 313.57 259.25 331.00 248.00
C 333.18 224.36 330.09 198.07 316.25 179.75 C 302.41 161.43 284.41 154.29 264.00 149.00
C 287.00 146.74 303.50 122.22 300.99 100.01 C 298.48 77.80 278.64 59.20 256.00 60.00
C 256.00 130.00 256.00 200.00 256.00 270.00 Z"/>
</g>
<g fill="None" fill-opacity="0.0" stroke="#B6D0DA" stroke-opacity="1.00" stroke-width="0.3"><path d="
M 247.00 151.00 
C 249.49 151.12 252.53 151.16 254.00 149.00
C 252.36 148.82 250.63 149.24 249.00 149.00
C 248.62 149.13 247.45 150.83 247.00 151.00 Z"/>
</g>
<g fill="None" fill-opacity="0.0" stroke="#BEEBFA" stroke-opacity="0.99" stroke-width="0.3"><path d="
M 241.00 270.00 
C 241.00 280.00 241.00 290.00 241.00 300.00
C 224.44 300.56 204.19 299.25 188.00 300.00 C 171.81 300.75 150.89 298.55 136.00 300.00 C 121.11 301.45 98.10 293.36 91.78 308.78 C 85.46 324.20 94.90 343.89 91.00 360.00
C 73.73 356.74 60.05 361.76 61.00 380.00 C 61.95 398.24 61.94 411.76 61.00 430.00 C 60.06 448.24 73.73 453.27 91.00 450.00
C 94.83 470.01 82.09 498.63 100.00 512.00
L 112.00 512.00
C 129.91 498.63 117.17 470.01 121.00 450.00
C 138.27 453.27 151.94 448.24 151.00 430.00 C 150.06 411.76 150.05 398.24 151.00 380.00 C 151.95 361.76 138.27 356.74 121.00 360.00
C 121.00 350.00 121.00 340.00 121.00 330.00
C 161.00 330.00 201.00 330.00 241.00 330.00
C 241.00 340.00 241.00 350.00 241.00 360.00
C 223.73 356.73 210.06 361.76 211.00 380.00 C 211.94 398.24 211.95 411.76 211.00 430.00 C 210.05 448.24 223.73 453.26 241.00 450.00
C 244.82 470.01 232.11 498.68 250.00 512.00
L 256.00 512.00
C 256.00 431.33 256.00 350.67 256.00 270.00
C 251.04 269.55 244.93 270.22 241.00 270.00 Z"/>
</g>
<g fill="None" fill-opacity="0.0" stroke="#7ED8F6" stroke-opacity="1.00" stroke-width="0.3"><path d="
M 256.00 270.00 
C 256.00 350.67 256.00 431.33 256.00 512.00
L 262.00 512.00
C 279.91 498.63 267.17 470.01 271.00 450.00
C 288.27 453.27 301.94 448.24 301.00 430.00 C 300.06 411.76 300.05 398.24 301.00 380.00 C 301.95 361.76 288.27 356.74 271.00 360.00
C 271.00 350.00 271.00 340.00 271.00 330.00
C 311.00 330.00 351.00 330.00 391.00 330.00
C 391.00 340.00 391.00 350.00 391.00 360.00
C 373.73 356.73 360.06 361.76 361.00 380.00 C 361.94 398.24 361.95 411.76 361.00 430.00 C 360.05 448.24 373.73 453.26 391.00 450.00
C 394.82 470.01 382.11 498.68 400.00 512.00
L 412.00 512.00
C 429.89 498.68 417.18 470.01 421.00 450.00
C 438.27 453.26 451.95 448.24 451.00 430.00 C 450.05 411.76 450.06 398.24 451.00 380.00 C 451.94 361.76 438.27 356.73 421.00 360.00
C 417.03 344.15 426.77 322.98 419.92 308.08 C 413.06 293.18 390.93 301.59 376.00 300.00 C 361.07 298.41 339.12 300.84 323.00 300.00 C 306.88 299.16 287.42 300.63 271.00 300.00
C 270.09 295.61 272.21 289.19 271.00 285.00 C 269.79 280.81 273.31 273.45 271.00 270.00
C 267.10 270.22 260.97 269.55 256.00 270.00 Z"/>
</g>
<g fill="None" fill-opacity="0.0" stroke="#000000" stroke-opacity="0.00" stroke-width="0.3"><path d="
M 112.00 512.00 
L 250.00 512.00
C 232.11 498.68 244.82 470.01 241.00 450.00
C 223.73 453.26 210.05 448.24 211.00 430.00 C 211.95 411.76 211.94 398.24 211.00 380.00 C 210.06 361.76 223.73 356.73 241.00 360.00
C 241.00 350.00 241.00 340.00 241.00 330.00
C 201.00 330.00 161.00 330.00 121.00 330.00
C 121.00 340.00 121.00 350.00 121.00 360.00
C 138.27 356.74 151.95 361.76 151.00 380.00 C 150.05 398.24 150.06 411.76 151.00 430.00 C 151.94 448.24 138.27 453.27 121.00 450.00
C 117.17 470.01 129.91 498.63 112.00 512.00 Z"/>
</g>
<g fill="None" fill-opacity="0.0" stroke="#000000" stroke-opacity="0.00" stroke-width="0.3"><path d="
M 262.00 512.00 
L 400.00 512.00
C 382.11 498.68 394.82 470.01 391.00 450.00
C 373.73 453.26 360.05 448.24 361.00 430.00 C 361.95 411.76 361.94 398.24 361.00 380.00 C 360.06 361.76 373.73 356.73 391.00 360.00
C 391.00 350.00 391.00 340.00 391.00 330.00
C 351.00 330.00 311.00 330.00 271.00 330.00
C 271.00 340.00 271.00 350.00 271.00 360.00
C 288.27 356.74 301.95 361.76 301.00 380.00 C 300.05 398.24 300.06 411.76 301.00 430.00 C 301.94 448.24 288.27 453.27 271.00 450.00
C 267.17 470.01 279.91 498.63 262.00 512.00 Z"/>
</g>
<g fill="#000000" fill-opacity="0.00" stroke="None">
<path d="
M 0.00 512.00 
L 100.00 512.00
C 82.09 498.63 94.83 470.01 91.00 450.00
C 73.73 453.27 60.06 448.24 61.00 430.00 C 61.94 411.76 61.95 398.24 61.00 380.00 C 60.05 361.76 73.73 356.74 91.00 360.00
C 94.90 343.89 85.46 324.20 91.78 308.78 C 98.10 293.36 121.11 301.45 136.00 300.00 C 150.89 298.55 171.81 300.75 188.00 300.00 C 204.19 299.25 224.44 300.56 241.00 300.00
C 241.00 290.00 241.00 280.00 241.00 270.00
C 220.54 268.84 197.85 259.56 181.00 248.00
C 133.48 215.40 109.99 153.91 124.99 98.99 C 140.00 44.08 186.46 8.10 240.00 0.00
L 0.00 0.00
L 0.00 512.00 Z"/>
</g>
<g fill="#0C799D" fill-opacity="0.99" stroke="None">
<path d="
M 181.00 248.00 
C 177.99 241.10 182.30 228.39 181.00 221.00 C 179.70 213.61 184.40 205.61 185.93 198.93 C 187.45 192.24 191.58 186.83 195.25 181.25 C 198.93 175.68 203.37 172.15 208.25 167.25 C 213.12 162.34 218.89 160.37 225.03 157.03 C 231.16 153.68 239.85 151.82 247.00 151.00
C 247.45 150.83 248.62 149.13 249.00 149.00
C 226.30 145.61 208.94 124.13 211.00 101.00 C 213.06 77.87 233.24 60.18 256.00 60.00
C 256.00 40.00 256.00 20.00 256.00 0.00
L 240.00 0.00
C 186.46 8.10 140.00 44.08 124.99 98.99 C 109.99 153.91 133.48 215.40 181.00 248.00 Z"/>
</g>
<g fill="#07485E" fill-opacity="0.99" stroke="None">
<path d="
M 256.00 60.00 
C 278.64 59.20 298.48 77.80 300.99 100.01 C 303.50 122.22 287.00 146.74 264.00 149.00
C 284.41 154.29 302.41 161.43 316.25 179.75 C 330.09 198.07 333.18 224.36 331.00 248.00
C 379.48 216.73 401.47 153.19 387.01 98.99 C 372.54 44.80 325.13 7.55 272.00 0.00
L 256.00 0.00
C 256.00 20.00 256.00 40.00 256.00 60.00 Z"/>
</g>
<g fill="#000000" fill-opacity="0.00" stroke="None">
<path d="
M 331.00 248.00 
C 313.57 259.25 291.92 268.82 271.00 270.00
C 273.31 273.45 269.79 280.81 271.00 285.00 C 272.21 289.19 270.09 295.61 271.00 300.00
C 287.42 300.63 306.88 299.16 323.00 300.00 C 339.12 300.84 361.07 298.41 376.00 300.00 C 390.93 301.59 413.06 293.18 419.92 308.08 C 426.77 322.98 417.03 344.15 421.00 360.00
C 438.27 356.73 451.94 361.76 451.00 380.00 C 450.06 398.24 450.05 411.76 451.00 430.00 C 451.95 448.24 438.27 453.26 421.00 450.00
C 417.18 470.01 429.89 498.68 412.00 512.00
L 512.00 512.00
L 512.00 0.00
L 272.00 0.00
C 325.13 7.55 372.54 44.80 387.01 98.99 C 401.47 153.19 379.48 216.73 331.00 248.00 Z"/>
</g>
<g fill="#FEF4F4" fill-opacity="1.00" stroke="None">
<path d="
M 249.00 149.00 
C 250.63 149.24 252.36 148.82 254.00 149.00
C 252.53 151.16 249.49 151.12 247.00 151.00
C 239.85 151.82 231.16 153.68 225.03 157.03 C 218.89 160.37 213.12 162.34 208.25 167.25 C 203.37 172.15 198.93 175.68 195.25 181.25 C 191.58 186.83 187.45 192.24 185.93 198.93 C 184.40 205.61 179.70 213.61 181.00 221.00 C 182.30 228.39 177.99 241.10 181.00 248.00
C 197.85 259.56 220.54 268.84 241.00 270.00
C 244.93 270.22 251.04 269.55 256.00 270.00
C 256.00 200.00 256.00 130.00 256.00 60.00
C 233.24 60.18 213.06 77.87 211.00 101.00 C 208.94 124.13 226.30 145.61 249.00 149.00 Z"/>
</g>
<g fill="#E0EAEF" fill-opacity="1.00" stroke="None">
<path d="
M 256.00 270.00 
C 260.97 269.55 267.10 270.22 271.00 270.00
C 291.92 268.82 313.57 259.25 331.00 248.00
C 333.18 224.36 330.09 198.07 316.25 179.75 C 302.41 161.43 284.41 154.29 264.00 149.00
C 287.00 146.74 303.50 122.22 300.99 100.01 C 298.48 77.80 278.64 59.20 256.00 60.00
C 256.00 130.00 256.00 200.00 256.00 270.00 Z"/>
</g>
<g fill="#B6D0DA" fill-opacity="1.00" stroke="None">
<path d="
M 247.00 151.00 
C 249.49 151.12 252.53 151.16 254.00 149.00
C 252.36 148.82 250.63 149.24 249.00 149.00
C 248.62 149.13 247.45 150.83 247.00 151.00 Z"/>
</g>
<g fill="#BEEBFA" fill-opacity="0.99" stroke="None">
<path d="
M 241.00 270.00 
C 241.00 280.00 241.00 290.00 241.00 300.00
C 224.44 300.56 204.19 299.25 188.00 300.00 C 171.81 300.75 150.89 298.55 136.00 300.00 C 121.11 301.45 98.10 293.36 91.78 308.78 C 85.46 324.20 94.90 343.89 91.00 360.00
C 73.73 356.74 60.05 361.76 61.00 380.00 C 61.95 398.24 61.94 411.76 61.00 430.00 C 60.06 448.24 73.73 453.27 91.00 450.00
C 94.83 470.01 82.09 498.63 100.00 512.00
L 112.00 512.00
C 129.91 498.63 117.17 470.01 121.00 450.00
C 138.27 453.27 151.94 448.24 151.00 430.00 C 150.06 411.76 150.05 398.24 151.00 380.00 C 151.95 361.76 138.27 356.74 121.00 360.00
C 121.00 350.00 121.00 340.00 121.00 330.00
C 161.00 330.00 201.00 330.00 241.00 330.00
C 241.00 340.00 241.00 350.00 241.00 360.00
C 223.73 356.73 210.06 361.76 211.00 380.00 C 211.94 398.24 211.95 411.76 211.00 430.00 C 210.05 448.24 223.73 453.26 241.00 450.00
C 244.82 470.01 232.11 498.68 250.00 512.00
L 256.00 512.00
C 256.00 431.33 256.00 350.67 256.00 270.00
C 251.04 269.55 244.93 270.22 241.00 270.00 Z"/>
</g>
<g fill="#7ED8F6" fill-opacity="1.00" stroke="None">
<path d="
M 256.00 270.00 
C 256.00 350.67 256.00 431.33 256.00 512.00
L 262.00 512.00
C 279.91 498.63 267.17 470.01 271.00 450.00
C 288.27 453.27 301.94 448.24 301.00 430.00 C 300.06 411.76 300.05 398.24 301.00 380.00 C 301.95 361.76 288.27 356.74 271.00 360.00
C 271.00 350.00 271.00 340.00 271.00 330.00
C 311.00 330.00 351.00 330.00 391.00 330.00
C 391.00 340.00 391.00 350.00 391.00 360.00
C 373.73 356.73 360.06 361.76 361.00 380.00 C 361.94 398.24 361.95 411.76 361.00 430.00 C 360.05 448.24 373.73 453.26 391.00 450.00
C 394.82 470.01 382.11 498.68 400.00 512.00
L 412.00 512.00
C 429.89 498.68 417.18 470.01 421.00 450.00
C 438.27 453.26 451.95 448.24 451.00 430.00 C 450.05 411.76 450.06 398.24 451.00 380.00 C 451.94 361.76 438.27 356.73 421.00 360.00
C 417.03 344.15 426.77 322.98 419.92 308.08 C 413.06 293.18 390.93 301.59 376.00 300.00 C 361.07 298.41 339.12 300.84 323.00 300.00 C 306.88 299.16 287.42 300.63 271.00 300.00
C 270.09 295.61 272.21 289.19 271.00 285.00 C 269.79 280.81 273.31 273.45 271.00 270.00
C 267.10 270.22 260.97 269.55 256.00 270.00 Z"/>
</g>
<g fill="#000000" fill-opacity="0.00" stroke="None">
<path d="
M 112.00 512.00 
L 250.00 512.00
C 232.11 498.68 244.82 470.01 241.00 450.00
C 223.73 453.26 210.05 448.24 211.00 430.00 C 211.95 411.76 211.94 398.24 211.00 380.00 C 210.06 361.76 223.73 356.73 241.00 360.00
C 241.00 350.00 241.00 340.00 241.00 330.00
C 201.00 330.00 161.00 330.00 121.00 330.00
C 121.00 340.00 121.00 350.00 121.00 360.00
C 138.27 356.74 151.95 361.76 151.00 380.00 C 150.05 398.24 150.06 411.76 151.00 430.00 C 151.94 448.24 138.27 453.27 121.00 450.00
C 117.17 470.01 129.91 498.63 112.00 512.00 Z"/>
</g>
<g fill="#000000" fill-opacity="0.00" stroke="None">
<path d="
M 262.00 512.00 
L 400.00 512.00
C 382.11 498.68 394.82 470.01 391.00 450.00
C 373.73 453.26 360.05 448.24 361.00 430.00 C 361.95 411.76 361.94 398.24 361.00 380.00 C 360.06 361.76 373.73 356.73 391.00 360.00
C 391.00 350.00 391.00 340.00 391.00 330.00
C 351.00 330.00 311.00 330.00 271.00 330.00
C 271.00 340.00 271.00 350.00 271.00 360.00
C 288.27 356.74 301.95 361.76 301.00 380.00 C 300.05 398.24 300.06 411.76 301.00 430.00 C 301.94 448.24 288.27 453.27 271.00 450.00
C 267.17 470.01 279.91 498.63 262.00 512.00 Z"/>
</g>
</svg>