<?xml version="1.0" standalone="no"?>
<!DOCTYPE svg PUBLIC "-//W3C//DTD SVG 20010904//EN"
 "http://www.w3.org/TR/2001/REC-SVG-20010904/DTD/svg10.dtd">
<svg version="1.0" xmlns="http://www.w3.org/2000/svg"
 width="200.000000pt" height="200.000000pt" viewBox="0 0 200.000000 200.000000"
 preserveAspectRatio="xMidYMid meet">

<g transform="translate(0.000000,200.000000) scale(0.100000,-0.100000)"
fill="#000000" stroke="none">
<path d="M0 1000 l0 -1000 1000 0 1000 0 0 1000 0 1000 -1000 0 -1000 0 0
-1000z m1109 567 c28 -14 21 4 255 -625 87 -232 155 -429 152 -437 -4 -12 -26
-15 -102 -15 l-97 0 -159 90 -159 91 -158 -91 -158 -90 -97 0 c-76 0 -98 3
-102 15 -5 12 347 979 378 1038 5 10 19 22 31 27 33 13 188 11 216 -3z"/>
<path d="M887 1048 c-59 -160 -106 -293 -104 -294 1 -1 50 25 110 58 l107 60
107 -61 c59 -33 109 -59 110 -57 4 4 -212 586 -217 586 -3 0 -54 -131 -113
-292z"/>
</g>
</svg>
