<svg xmlns="http://www.w3.org/2000/svg" xmlns:v="https://svgstorm.com"
viewBox = "0 0 512 512"
width="512"
height="512">
<g fill="None" fill-opacity="0.0" stroke="#000000" stroke-opacity="0.00" stroke-width="0.3"><path d="
M 0.00 512.00 
L 512.00 512.00
L 512.00 0.00
L 0.00 0.00
L 0.00 512.00
M 400.00 189.00 
C 355.15 186.86 315.51 222.56 310.00 266.00 C 304.50 309.45 334.90 354.76 379.00 362.00
C 377.71 371.32 382.13 382.33 375.75 389.75 C 369.37 397.17 372.63 407.44 372.00 417.00 C 371.37 426.56 372.47 438.24 372.00 448.00
C 347.16 448.27 321.79 447.64 297.00 448.00 C 272.21 448.36 245.49 447.31 221.00 448.00 C 196.51 448.69 169.71 446.51 146.00 448.00 C 122.29 449.49 93.24 451.31 95.00 423.00 C 96.76 394.69 94.10 374.58 95.00 348.00 C 95.90 321.42 94.33 297.83 95.00 272.00 C 95.67 246.17 93.66 221.76 96.00 197.00
C 102.87 206.75 111.58 215.85 123.69 218.31 C 135.81 220.76 145.23 232.42 158.02 232.98 C 170.82 233.53 160.26 209.39 158.67 199.33 C 157.08 189.27 152.35 172.13 144.23 163.77 C 136.11 155.41 128.91 146.50 121.75 137.25 C 114.60 128.00 105.69 120.88 99.25 110.75 C 92.81 100.62 91.25 80.80 96.78 67.78 C 102.30 54.75 123.21 57.98 137.00 58.00 C 150.79 58.02 170.78 57.96 186.00 58.00 C 201.22 58.04 219.09 57.92 235.00 58.00 C 250.91 58.08 267.69 57.83 284.00 58.00 C 300.31 58.17 317.44 57.64 334.00 58.00 C 350.56 58.36 366.15 57.20 383.00 58.00 C 399.85 58.80 401.00 75.25 400.00 90.00 C 399.00 104.75 400.51 123.37 400.00 139.00 C 399.49 154.63 400.38 173.11 400.00 189.00
M 80.00 102.00 
C 70.38 110.87 60.20 120.97 49.00 127.00
C 48.61 120.32 28.00 109.25 34.31 102.31 C 40.61 95.36 49.67 87.73 57.75 82.75 C 65.82 77.76 74.18 99.22 80.00 102.00
M 86.00 111.00 
C 103.19 133.29 124.26 153.70 139.00 177.00
C 129.06 183.00 120.84 192.53 111.00 199.00
C 94.18 176.49 73.10 156.08 58.00 133.00
C 67.99 127.09 76.10 117.34 86.00 111.00
M 145.00 185.00 
C 147.15 196.79 151.19 208.09 153.00 220.00
C 141.78 216.01 131.10 210.45 120.00 206.00
C 126.50 198.23 136.02 190.23 145.00 185.00
M 404.00 356.00 
C 402.67 360.03 405.20 367.11 404.00 371.00 C 402.80 374.89 406.34 382.66 403.00 385.00
C 400.09 387.04 393.26 383.47 390.00 385.00
C 390.89 372.34 393.01 352.26 378.93 351.07 C 364.85 349.89 359.05 342.94 348.75 336.25 C 338.45 329.55 334.37 321.46 328.70 311.31 C 323.02 301.15 319.68 287.04 320.00 275.00 C 320.32 262.96 324.12 249.13 329.92 238.92 C 335.73 228.72 342.10 222.65 351.23 215.23 C 360.36 207.81 370.98 204.21 382.67 201.67 C 394.36 199.14 410.46 200.17 421.68 204.32 C 432.89 208.47 440.85 212.97 449.75 221.25 C 458.65 229.52 463.15 238.08 467.98 249.03 C 472.80 259.97 474.02 276.08 472.22 288.22 C 470.43 300.36 466.57 310.86 459.70 320.70 C 452.83 330.53 445.77 335.44 436.30 342.30 C 426.84 349.16 413.07 349.72 404.00 356.00
M 410.00 395.00 
C 415.13 397.56 410.73 408.56 412.00 414.00 C 413.27 419.44 410.84 429.12 412.00 435.00 C 413.16 440.88 412.44 451.34 405.00 449.00 C 397.56 446.66 390.06 451.88 384.00 449.00 C 377.94 446.12 383.65 435.40 382.00 430.00 C 380.35 424.60 383.24 414.59 382.00 409.00 C 380.76 403.41 381.63 392.82 389.00 395.00 C 396.37 397.18 403.53 391.76 410.00 395.00 Z"/>
</g>
<g fill="None" fill-opacity="0.0" stroke="#003B6E" stroke-opacity="0.97" stroke-width="0.3"><path d="
M 400.00 189.00 
C 400.38 173.11 399.49 154.63 400.00 139.00 C 400.51 123.37 399.00 104.75 400.00 90.00 C 401.00 75.25 399.85 58.80 383.00 58.00 C 366.15 57.20 350.56 58.36 334.00 58.00 C 317.44 57.64 300.31 58.17 284.00 58.00 C 267.69 57.83 250.91 58.08 235.00 58.00 C 219.09 57.92 201.22 58.04 186.00 58.00 C 170.78 57.96 150.79 58.02 137.00 58.00 C 123.21 57.98 102.30 54.75 96.78 67.78 C 91.25 80.80 92.81 100.62 99.25 110.75 C 105.69 120.88 114.60 128.00 121.75 137.25 C 128.91 146.50 136.11 155.41 144.23 163.77 C 152.35 172.13 157.08 189.27 158.67 199.33 C 160.26 209.39 170.82 233.53 158.02 232.98 C 145.23 232.42 135.81 220.76 123.69 218.31 C 111.58 215.85 102.87 206.75 96.00 197.00
C 93.66 221.76 95.67 246.17 95.00 272.00 C 94.33 297.83 95.90 321.42 95.00 348.00 C 94.10 374.58 96.76 394.69 95.00 423.00 C 93.24 451.31 122.29 449.49 146.00 448.00 C 169.71 446.51 196.51 448.69 221.00 448.00 C 245.49 447.31 272.21 448.36 297.00 448.00 C 321.79 447.64 347.16 448.27 372.00 448.00
C 372.47 438.24 371.37 426.56 372.00 417.00 C 372.63 407.44 369.37 397.17 375.75 389.75 C 382.13 382.33 377.71 371.32 379.00 362.00
C 334.90 354.76 304.50 309.45 310.00 266.00 C 315.51 222.56 355.15 186.86 400.00 189.00
M 243.00 90.00 
C 248.24 92.48 246.67 108.68 246.00 114.00 C 245.33 119.32 249.75 134.76 243.74 138.74 C 237.73 142.73 224.92 138.90 217.00 140.00 C 209.08 141.10 198.71 139.30 190.00 140.00 C 181.29 140.70 171.14 139.21 162.00 140.00 C 152.86 140.79 144.50 140.80 145.00 130.00 C 145.51 119.20 145.96 112.73 145.00 102.00 C 144.04 91.27 150.17 88.64 160.00 90.00 C 169.83 91.36 178.76 88.80 188.00 90.00 C 197.24 91.20 206.37 88.13 215.00 90.00 C 223.63 91.87 235.26 86.34 243.00 90.00
M 361.00 95.00 
C 371.18 98.39 359.83 108.55 352.00 106.00 C 344.17 103.45 331.01 106.63 323.00 106.00 C 314.99 105.37 302.15 104.95 295.00 106.00 C 287.85 107.05 271.85 105.10 277.31 97.31 C 282.76 89.51 295.01 96.36 303.00 95.00 C 310.99 93.64 323.61 94.52 332.00 95.00 C 340.39 95.48 353.05 92.35 361.00 95.00
M 333.00 127.00 
C 343.70 130.57 331.21 140.04 324.00 138.00 C 316.79 135.96 301.95 137.52 295.00 138.00 C 288.05 138.48 271.85 136.95 277.31 129.31 C 282.76 121.67 296.52 127.68 304.00 127.00 C 311.48 126.32 325.93 124.64 333.00 127.00
M 228.00 175.00 
C 236.62 178.76 226.34 187.92 220.00 186.00 C 213.66 184.08 201.20 185.77 195.00 186.00 C 188.80 186.23 176.41 185.12 179.98 177.97 C 183.55 170.83 195.80 174.98 202.00 175.00 C 208.20 175.02 222.27 172.50 228.00 175.00
M 268.00 205.00 
C 276.19 208.33 267.51 218.81 260.00 216.00 C 252.49 213.19 242.03 217.61 234.00 216.00 C 225.97 214.39 216.13 217.48 208.00 216.00 C 199.87 214.52 190.38 218.70 182.78 215.22 C 175.18 211.75 182.15 202.88 190.00 205.00 C 197.85 207.12 207.89 203.58 216.00 205.00 C 224.11 206.42 234.00 203.33 242.00 205.00 C 250.00 206.67 260.56 201.97 268.00 205.00
M 249.00 235.00 
C 258.69 238.23 248.27 249.45 240.00 246.00 C 231.73 242.55 220.86 248.54 212.00 246.00 C 203.14 243.46 192.23 249.48 183.33 245.67 C 174.43 241.86 183.36 232.10 192.00 235.00 C 200.64 237.90 211.14 232.83 220.00 235.00 C 228.86 237.17 240.36 232.12 249.00 235.00
M 268.00 283.00 
C 251.77 290.44 235.32 301.75 219.77 310.77 C 204.22 319.79 210.24 296.13 206.00 290.00
C 198.59 293.09 193.21 297.53 185.92 300.92 C 178.63 304.30 173.94 309.16 165.92 311.92 C 157.91 314.69 155.90 321.97 145.92 322.92 C 135.95 323.88 140.75 310.77 149.23 309.23 C 157.71 307.68 161.49 300.49 169.08 298.08 C 176.66 295.66 181.63 289.20 189.08 287.08 C 196.52 284.95 201.05 276.55 209.08 276.08 C 217.10 275.60 216.65 292.81 218.00 298.00
C 232.92 291.55 247.36 281.76 261.00 273.00
C 252.47 269.02 256.27 258.74 266.07 262.93 C 275.88 267.11 279.10 268.59 279.00 280.00 C 278.90 291.41 268.96 294.92 268.00 283.00
M 304.00 410.00 
C 308.42 409.22 325.97 408.76 323.00 417.00 C 320.03 425.25 307.42 419.82 300.00 421.00 C 292.58 422.18 282.22 420.51 274.00 421.00 C 265.78 421.49 255.55 420.81 247.00 421.00 C 238.45 421.19 228.59 420.98 220.00 421.00 C 211.41 421.02 202.44 421.16 194.00 421.00 C 185.56 420.84 175.06 421.43 167.00 421.00 C 158.94 420.57 148.08 422.03 141.00 421.00 C 133.92 419.97 120.49 425.04 118.23 416.77 C 115.97 408.50 133.85 409.54 138.00 410.00
C 139.62 395.59 135.84 380.32 138.00 366.00 C 140.16 351.68 165.84 362.28 176.00 359.00
C 179.48 350.88 169.99 335.05 179.25 329.25 C 188.51 323.45 199.63 331.45 211.00 328.00 C 222.37 324.55 230.40 335.03 226.00 347.00
C 235.33 347.00 244.67 347.00 254.00 347.00
C 254.90 337.27 252.80 326.64 254.00 317.00 C 255.20 307.36 271.90 310.89 279.00 311.00 C 286.10 311.11 303.14 307.08 303.99 317.01 C 304.84 326.94 303.61 337.86 304.00 348.00 C 304.39 358.14 303.80 368.77 304.00 379.00 C 304.20 389.23 303.85 399.74 304.00 410.00 Z"/>
</g>
<g fill="None" fill-opacity="0.0" stroke="#07A6D0" stroke-opacity="0.92" stroke-width="0.3"><path d="
M 80.00 102.00 
C 74.18 99.22 65.82 77.76 57.75 82.75 C 49.67 87.73 40.61 95.36 34.31 102.31 C 28.00 109.25 48.61 120.32 49.00 127.00
C 60.20 120.97 70.38 110.87 80.00 102.00 Z"/>
</g>
<g fill="None" fill-opacity="0.0" stroke="#000000" stroke-opacity="0.00" stroke-width="0.3"><path d="
M 243.00 90.00 
C 235.26 86.34 223.63 91.87 215.00 90.00 C 206.37 88.13 197.24 91.20 188.00 90.00 C 178.76 88.80 169.83 91.36 160.00 90.00 C 150.17 88.64 144.04 91.27 145.00 102.00 C 145.96 112.73 145.51 119.20 145.00 130.00 C 144.50 140.80 152.86 140.79 162.00 140.00 C 171.14 139.21 181.29 140.70 190.00 140.00 C 198.71 139.30 209.08 141.10 217.00 140.00 C 224.92 138.90 237.73 142.73 243.74 138.74 C 249.75 134.76 245.33 119.32 246.00 114.00 C 246.67 108.68 248.24 92.48 243.00 90.00
M 236.00 101.00 
C 237.54 103.20 236.00 112.18 236.00 115.00 C 236.00 117.82 237.54 126.80 236.00 129.00
C 233.17 133.04 222.38 128.89 217.00 130.00 C 211.62 131.11 202.14 129.46 196.00 130.00 C 189.86 130.54 182.52 129.73 176.00 130.00 C 169.48 130.27 161.64 129.80 155.00 130.00
C 155.00 120.00 155.00 110.00 155.00 100.00
C 181.83 100.67 209.99 98.67 236.00 101.00 Z"/>
</g>
<g fill="None" fill-opacity="0.0" stroke="#000000" stroke-opacity="0.00" stroke-width="0.3"><path d="
M 361.00 95.00 
C 353.05 92.35 340.39 95.48 332.00 95.00 C 323.61 94.52 310.99 93.64 303.00 95.00 C 295.01 96.36 282.76 89.51 277.31 97.31 C 271.85 105.10 287.85 107.05 295.00 106.00 C 302.15 104.95 314.99 105.37 323.00 106.00 C 331.01 106.63 344.17 103.45 352.00 106.00 C 359.83 108.55 371.18 98.39 361.00 95.00 Z"/>
</g>
<g fill="None" fill-opacity="0.0" stroke="#08A6D0" stroke-opacity="0.97" stroke-width="0.3"><path d="
M 236.00 129.00 
C 234.35 120.74 234.32 109.19 236.00 101.00
C 209.99 98.67 181.83 100.67 155.00 100.00
C 155.00 110.00 155.00 120.00 155.00 130.00
C 161.64 129.80 169.48 130.27 176.00 130.00 C 182.52 129.73 189.86 130.54 196.00 130.00 C 202.14 129.46 211.62 131.11 217.00 130.00 C 222.38 128.89 233.17 133.04 236.00 129.00 Z"/>
</g>
<g fill="None" fill-opacity="0.0" stroke="#00CCCC" stroke-opacity="0.04" stroke-width="0.3"><path d="
M 236.00 129.00 
C 237.54 126.80 236.00 117.82 236.00 115.00 C 236.00 112.18 237.54 103.20 236.00 101.00
C 234.32 109.19 234.35 120.74 236.00 129.00 Z"/>
</g>
<g fill="None" fill-opacity="0.0" stroke="#003B6E" stroke-opacity="0.95" stroke-width="0.3"><path d="
M 86.00 111.00 
C 76.10 117.34 67.99 127.09 58.00 133.00
C 73.10 156.08 94.18 176.49 111.00 199.00
C 120.84 192.53 129.06 183.00 139.00 177.00
C 124.26 153.70 103.19 133.29 86.00 111.00 Z"/>
</g>
<g fill="None" fill-opacity="0.0" stroke="#000000" stroke-opacity="0.00" stroke-width="0.3"><path d="
M 333.00 127.00 
C 325.93 124.64 311.48 126.32 304.00 127.00 C 296.52 127.68 282.76 121.67 277.31 129.31 C 271.85 136.95 288.05 138.48 295.00 138.00 C 301.95 137.52 316.79 135.96 324.00 138.00 C 331.21 140.04 343.70 130.57 333.00 127.00 Z"/>
</g>
<g fill="None" fill-opacity="0.0" stroke="#000000" stroke-opacity="0.00" stroke-width="0.3"><path d="
M 228.00 175.00 
C 222.27 172.50 208.20 175.02 202.00 175.00 C 195.80 174.98 183.55 170.83 179.98 177.97 C 176.41 185.12 188.80 186.23 195.00 186.00 C 201.20 185.77 213.66 184.08 220.00 186.00 C 226.34 187.92 236.62 178.76 228.00 175.00 Z"/>
</g>
<g fill="None" fill-opacity="0.0" stroke="#07A7D1" stroke-opacity="0.89" stroke-width="0.3"><path d="
M 145.00 185.00 
C 136.02 190.23 126.50 198.23 120.00 206.00
C 131.10 210.45 141.78 216.01 153.00 220.00
C 151.19 208.09 147.15 196.79 145.00 185.00 Z"/>
</g>
<g fill="None" fill-opacity="0.0" stroke="#003B6E" stroke-opacity="0.94" stroke-width="0.3"><path d="
M 403.00 385.00 
C 404.89 376.12 400.03 363.85 404.00 356.00
C 413.07 349.72 426.84 349.16 436.30 342.30 C 445.77 335.44 452.83 330.53 459.70 320.70 C 466.57 310.86 470.43 300.36 472.22 288.22 C 474.02 276.08 472.80 259.97 467.98 249.03 C 463.15 238.08 458.65 229.52 449.75 221.25 C 440.85 212.97 432.89 208.47 421.68 204.32 C 410.46 200.17 394.36 199.14 382.67 201.67 C 370.98 204.21 360.36 207.81 351.23 215.23 C 342.10 222.65 335.73 228.72 329.92 238.92 C 324.12 249.13 320.32 262.96 320.00 275.00 C 319.68 287.04 323.02 301.15 328.70 311.31 C 334.37 321.46 338.45 329.55 348.75 336.25 C 359.05 342.94 364.85 349.89 378.93 351.07 C 393.01 352.26 390.89 372.34 390.00 385.00
C 393.26 383.47 400.09 387.04 403.00 385.00
M 401.00 217.00 
C 444.98 221.26 471.27 273.00 446.08 310.08 C 420.89 347.16 365.61 343.08 344.25 304.75 C 322.88 266.43 355.32 212.58 401.00 217.00 Z"/>
</g>
<g fill="None" fill-opacity="0.0" stroke="#000000" stroke-opacity="0.00" stroke-width="0.3"><path d="
M 268.00 205.00 
C 260.56 201.97 250.00 206.67 242.00 205.00 C 234.00 203.33 224.11 206.42 216.00 205.00 C 207.89 203.58 197.85 207.12 190.00 205.00 C 182.15 202.88 175.18 211.75 182.78 215.22 C 190.38 218.70 199.87 214.52 208.00 216.00 C 216.13 217.48 225.97 214.39 234.00 216.00 C 242.03 217.61 252.49 213.19 260.00 216.00 C 267.51 218.81 276.19 208.33 268.00 205.00 Z"/>
</g>
<g fill="None" fill-opacity="0.0" stroke="#000000" stroke-opacity="0.00" stroke-width="0.3"><path d="
M 401.00 217.00 
C 355.32 212.58 322.88 266.43 344.25 304.75 C 365.61 343.08 420.89 347.16 446.08 310.08 C 471.27 273.00 444.98 221.26 401.00 217.00
M 400.00 228.00 
C 436.26 230.13 457.41 274.50 437.08 304.08 C 416.76 333.66 371.39 331.82 354.08 299.92 C 336.78 268.02 362.18 225.78 400.00 228.00 Z"/>
</g>
<g fill="None" fill-opacity="0.0" stroke="#003B6E" stroke-opacity="0.98" stroke-width="0.3"><path d="
M 400.00 228.00 
C 362.18 225.78 336.78 268.02 354.08 299.92 C 371.39 331.82 416.76 333.66 437.08 304.08 C 457.41 274.50 436.26 230.13 400.00 228.00 Z"/>
</g>
<g fill="None" fill-opacity="0.0" stroke="#000000" stroke-opacity="0.00" stroke-width="0.3"><path d="
M 249.00 235.00 
C 240.36 232.12 228.86 237.17 220.00 235.00 C 211.14 232.83 200.64 237.90 192.00 235.00 C 183.36 232.10 174.43 241.86 183.33 245.67 C 192.23 249.48 203.14 243.46 212.00 246.00 C 220.86 248.54 231.73 242.55 240.00 246.00 C 248.27 249.45 258.69 238.23 249.00 235.00 Z"/>
</g>
<g fill="None" fill-opacity="0.0" stroke="#000000" stroke-opacity="0.00" stroke-width="0.3"><path d="
M 268.00 283.00 
C 268.96 294.92 278.90 291.41 279.00 280.00 C 279.10 268.59 275.88 267.11 266.07 262.93 C 256.27 258.74 252.47 269.02 261.00 273.00
C 247.36 281.76 232.92 291.55 218.00 298.00
C 216.65 292.81 217.10 275.60 209.08 276.08 C 201.05 276.55 196.52 284.95 189.08 287.08 C 181.63 289.20 176.66 295.66 169.08 298.08 C 161.49 300.49 157.71 307.68 149.23 309.23 C 140.75 310.77 135.95 323.88 145.92 322.92 C 155.90 321.97 157.91 314.69 165.92 311.92 C 173.94 309.16 178.63 304.30 185.92 300.92 C 193.21 297.53 198.59 293.09 206.00 290.00
C 210.24 296.13 204.22 319.79 219.77 310.77 C 235.32 301.75 251.77 290.44 268.00 283.00 Z"/>
</g>
<g fill="None" fill-opacity="0.0" stroke="#000000" stroke-opacity="0.00" stroke-width="0.3"><path d="
M 304.00 410.00 
C 303.85 399.74 304.20 389.23 304.00 379.00 C 303.80 368.77 304.39 358.14 304.00 348.00 C 303.61 337.86 304.84 326.94 303.99 317.01 C 303.14 307.08 286.10 311.11 279.00 311.00 C 271.90 310.89 255.20 307.36 254.00 317.00 C 252.80 326.64 254.90 337.27 254.00 347.00
C 244.67 347.00 235.33 347.00 226.00 347.00
C 230.40 335.03 222.37 324.55 211.00 328.00 C 199.63 331.45 188.51 323.45 179.25 329.25 C 169.99 335.05 179.48 350.88 176.00 359.00
C 165.84 362.28 140.16 351.68 138.00 366.00 C 135.84 380.32 139.62 395.59 138.00 410.00
C 133.85 409.54 115.97 408.50 118.23 416.77 C 120.49 425.04 133.92 419.97 141.00 421.00 C 148.08 422.03 158.94 420.57 167.00 421.00 C 175.06 421.43 185.56 420.84 194.00 421.00 C 202.44 421.16 211.41 421.02 220.00 421.00 C 228.59 420.98 238.45 421.19 247.00 421.00 C 255.55 420.81 265.78 421.49 274.00 421.00 C 282.22 420.51 292.58 422.18 300.00 421.00 C 307.42 419.82 320.03 425.25 323.00 417.00 C 325.97 408.76 308.42 409.22 304.00 410.00
M 293.00 322.00 
C 293.00 351.33 293.00 380.67 293.00 410.00
C 283.67 410.00 274.33 410.00 265.00 410.00
C 265.00 380.67 265.00 351.33 265.00 322.00
C 274.33 322.00 283.67 322.00 293.00 322.00
M 215.00 339.00 
C 215.00 362.67 215.00 386.33 215.00 410.00
C 205.67 410.00 196.33 410.00 187.00 410.00
C 187.00 386.33 187.00 362.67 187.00 339.00
C 196.33 339.00 205.67 339.00 215.00 339.00
M 255.00 357.00 
C 255.00 375.00 255.00 393.00 255.00 411.00
C 245.00 411.00 235.00 411.00 225.00 411.00
C 225.00 393.00 225.00 375.00 225.00 357.00
C 235.00 357.00 245.00 357.00 255.00 357.00
M 177.00 369.00 
C 177.00 383.00 177.00 397.00 177.00 411.00
C 167.33 411.00 157.67 411.00 148.00 411.00
C 148.00 397.00 148.00 383.00 148.00 369.00
C 157.67 369.00 167.33 369.00 177.00 369.00 Z"/>
</g>
<g fill="None" fill-opacity="0.0" stroke="#003A6E" stroke-opacity="0.95" stroke-width="0.3"><path d="
M 293.00 322.00 
C 283.67 322.00 274.33 322.00 265.00 322.00
C 265.00 351.33 265.00 380.67 265.00 410.00
C 274.33 410.00 283.67 410.00 293.00 410.00
C 293.00 380.67 293.00 351.33 293.00 322.00 Z"/>
</g>
<g fill="None" fill-opacity="0.0" stroke="#003A6D" stroke-opacity="0.95" stroke-width="0.3"><path d="
M 215.00 339.00 
C 205.67 339.00 196.33 339.00 187.00 339.00
C 187.00 362.67 187.00 386.33 187.00 410.00
C 196.33 410.00 205.67 410.00 215.00 410.00
C 215.00 386.33 215.00 362.67 215.00 339.00 Z"/>
</g>
<g fill="None" fill-opacity="0.0" stroke="#004A7D" stroke-opacity="0.09" stroke-width="0.3"><path d="
M 403.00 385.00 
C 406.34 382.66 402.80 374.89 404.00 371.00 C 405.20 367.11 402.67 360.03 404.00 356.00
C 400.03 363.85 404.89 376.12 403.00 385.00 Z"/>
</g>
<g fill="None" fill-opacity="0.0" stroke="#08A6D0" stroke-opacity="0.95" stroke-width="0.3"><path d="
M 255.00 357.00 
C 245.00 357.00 235.00 357.00 225.00 357.00
C 225.00 375.00 225.00 393.00 225.00 411.00
C 235.00 411.00 245.00 411.00 255.00 411.00
C 255.00 393.00 255.00 375.00 255.00 357.00 Z"/>
</g>
<g fill="None" fill-opacity="0.0" stroke="#08A5D0" stroke-opacity="0.97" stroke-width="0.3"><path d="
M 177.00 369.00 
C 167.33 369.00 157.67 369.00 148.00 369.00
C 148.00 383.00 148.00 397.00 148.00 411.00
C 157.67 411.00 167.33 411.00 177.00 411.00
C 177.00 397.00 177.00 383.00 177.00 369.00 Z"/>
</g>
<g fill="None" fill-opacity="0.0" stroke="#08A6D0" stroke-opacity="0.93" stroke-width="0.3"><path d="
M 410.00 395.00 
C 403.53 391.76 396.37 397.18 389.00 395.00 C 381.63 392.82 380.76 403.41 382.00 409.00 C 383.24 414.59 380.35 424.60 382.00 430.00 C 383.65 435.40 377.94 446.12 384.00 449.00 C 390.06 451.88 397.56 446.66 405.00 449.00 C 412.44 451.34 413.16 440.88 412.00 435.00 C 410.84 429.12 413.27 419.44 412.00 414.00 C 410.73 408.56 415.13 397.56 410.00 395.00 Z"/>
</g>
<g fill="#000000" fill-opacity="0.00" stroke="None">
<path d="
M 0.00 512.00 
L 512.00 512.00
L 512.00 0.00
L 0.00 0.00
L 0.00 512.00
M 400.00 189.00 
C 355.15 186.86 315.51 222.56 310.00 266.00 C 304.50 309.45 334.90 354.76 379.00 362.00
C 377.71 371.32 382.13 382.33 375.75 389.75 C 369.37 397.17 372.63 407.44 372.00 417.00 C 371.37 426.56 372.47 438.24 372.00 448.00
C 347.16 448.27 321.79 447.64 297.00 448.00 C 272.21 448.36 245.49 447.31 221.00 448.00 C 196.51 448.69 169.71 446.51 146.00 448.00 C 122.29 449.49 93.24 451.31 95.00 423.00 C 96.76 394.69 94.10 374.58 95.00 348.00 C 95.90 321.42 94.33 297.83 95.00 272.00 C 95.67 246.17 93.66 221.76 96.00 197.00
C 102.87 206.75 111.58 215.85 123.69 218.31 C 135.81 220.76 145.23 232.42 158.02 232.98 C 170.82 233.53 160.26 209.39 158.67 199.33 C 157.08 189.27 152.35 172.13 144.23 163.77 C 136.11 155.41 128.91 146.50 121.75 137.25 C 114.60 128.00 105.69 120.88 99.25 110.75 C 92.81 100.62 91.25 80.80 96.78 67.78 C 102.30 54.75 123.21 57.98 137.00 58.00 C 150.79 58.02 170.78 57.96 186.00 58.00 C 201.22 58.04 219.09 57.92 235.00 58.00 C 250.91 58.08 267.69 57.83 284.00 58.00 C 300.31 58.17 317.44 57.64 334.00 58.00 C 350.56 58.36 366.15 57.20 383.00 58.00 C 399.85 58.80 401.00 75.25 400.00 90.00 C 399.00 104.75 400.51 123.37 400.00 139.00 C 399.49 154.63 400.38 173.11 400.00 189.00
M 80.00 102.00 
C 70.38 110.87 60.20 120.97 49.00 127.00
C 48.61 120.32 28.00 109.25 34.31 102.31 C 40.61 95.36 49.67 87.73 57.75 82.75 C 65.82 77.76 74.18 99.22 80.00 102.00
M 86.00 111.00 
C 103.19 133.29 124.26 153.70 139.00 177.00
C 129.06 183.00 120.84 192.53 111.00 199.00
C 94.18 176.49 73.10 156.08 58.00 133.00
C 67.99 127.09 76.10 117.34 86.00 111.00
M 145.00 185.00 
C 147.15 196.79 151.19 208.09 153.00 220.00
C 141.78 216.01 131.10 210.45 120.00 206.00
C 126.50 198.23 136.02 190.23 145.00 185.00
M 404.00 356.00 
C 402.67 360.03 405.20 367.11 404.00 371.00 C 402.80 374.89 406.34 382.66 403.00 385.00
C 400.09 387.04 393.26 383.47 390.00 385.00
C 390.89 372.34 393.01 352.26 378.93 351.07 C 364.85 349.89 359.05 342.94 348.75 336.25 C 338.45 329.55 334.37 321.46 328.70 311.31 C 323.02 301.15 319.68 287.04 320.00 275.00 C 320.32 262.96 324.12 249.13 329.92 238.92 C 335.73 228.72 342.10 222.65 351.23 215.23 C 360.36 207.81 370.98 204.21 382.67 201.67 C 394.36 199.14 410.46 200.17 421.68 204.32 C 432.89 208.47 440.85 212.97 449.75 221.25 C 458.65 229.52 463.15 238.08 467.98 249.03 C 472.80 259.97 474.02 276.08 472.22 288.22 C 470.43 300.36 466.57 310.86 459.70 320.70 C 452.83 330.53 445.77 335.44 436.30 342.30 C 426.84 349.16 413.07 349.72 404.00 356.00
M 410.00 395.00 
C 415.13 397.56 410.73 408.56 412.00 414.00 C 413.27 419.44 410.84 429.12 412.00 435.00 C 413.16 440.88 412.44 451.34 405.00 449.00 C 397.56 446.66 390.06 451.88 384.00 449.00 C 377.94 446.12 383.65 435.40 382.00 430.00 C 380.35 424.60 383.24 414.59 382.00 409.00 C 380.76 403.41 381.63 392.82 389.00 395.00 C 396.37 397.18 403.53 391.76 410.00 395.00 Z"/>
</g>
<g fill="#003B6E" fill-opacity="0.97" stroke="None">
<path d="
M 400.00 189.00 
C 400.38 173.11 399.49 154.63 400.00 139.00 C 400.51 123.37 399.00 104.75 400.00 90.00 C 401.00 75.25 399.85 58.80 383.00 58.00 C 366.15 57.20 350.56 58.36 334.00 58.00 C 317.44 57.64 300.31 58.17 284.00 58.00 C 267.69 57.83 250.91 58.08 235.00 58.00 C 219.09 57.92 201.22 58.04 186.00 58.00 C 170.78 57.96 150.79 58.02 137.00 58.00 C 123.21 57.98 102.30 54.75 96.78 67.78 C 91.25 80.80 92.81 100.62 99.25 110.75 C 105.69 120.88 114.60 128.00 121.75 137.25 C 128.91 146.50 136.11 155.41 144.23 163.77 C 152.35 172.13 157.08 189.27 158.67 199.33 C 160.26 209.39 170.82 233.53 158.02 232.98 C 145.23 232.42 135.81 220.76 123.69 218.31 C 111.58 215.85 102.87 206.75 96.00 197.00
C 93.66 221.76 95.67 246.17 95.00 272.00 C 94.33 297.83 95.90 321.42 95.00 348.00 C 94.10 374.58 96.76 394.69 95.00 423.00 C 93.24 451.31 122.29 449.49 146.00 448.00 C 169.71 446.51 196.51 448.69 221.00 448.00 C 245.49 447.31 272.21 448.36 297.00 448.00 C 321.79 447.64 347.16 448.27 372.00 448.00
C 372.47 438.24 371.37 426.56 372.00 417.00 C 372.63 407.44 369.37 397.17 375.75 389.75 C 382.13 382.33 377.71 371.32 379.00 362.00
C 334.90 354.76 304.50 309.45 310.00 266.00 C 315.51 222.56 355.15 186.86 400.00 189.00
M 243.00 90.00 
C 248.24 92.48 246.67 108.68 246.00 114.00 C 245.33 119.32 249.75 134.76 243.74 138.74 C 237.73 142.73 224.92 138.90 217.00 140.00 C 209.08 141.10 198.71 139.30 190.00 140.00 C 181.29 140.70 171.14 139.21 162.00 140.00 C 152.86 140.79 144.50 140.80 145.00 130.00 C 145.51 119.20 145.96 112.73 145.00 102.00 C 144.04 91.27 150.17 88.64 160.00 90.00 C 169.83 91.36 178.76 88.80 188.00 90.00 C 197.24 91.20 206.37 88.13 215.00 90.00 C 223.63 91.87 235.26 86.34 243.00 90.00
M 361.00 95.00 
C 371.18 98.39 359.83 108.55 352.00 106.00 C 344.17 103.45 331.01 106.63 323.00 106.00 C 314.99 105.37 302.15 104.95 295.00 106.00 C 287.85 107.05 271.85 105.10 277.31 97.31 C 282.76 89.51 295.01 96.36 303.00 95.00 C 310.99 93.64 323.61 94.52 332.00 95.00 C 340.39 95.48 353.05 92.35 361.00 95.00
M 333.00 127.00 
C 343.70 130.57 331.21 140.04 324.00 138.00 C 316.79 135.96 301.95 137.52 295.00 138.00 C 288.05 138.48 271.85 136.95 277.31 129.31 C 282.76 121.67 296.52 127.68 304.00 127.00 C 311.48 126.32 325.93 124.64 333.00 127.00
M 228.00 175.00 
C 236.62 178.76 226.34 187.92 220.00 186.00 C 213.66 184.08 201.20 185.77 195.00 186.00 C 188.80 186.23 176.41 185.12 179.98 177.97 C 183.55 170.83 195.80 174.98 202.00 175.00 C 208.20 175.02 222.27 172.50 228.00 175.00
M 268.00 205.00 
C 276.19 208.33 267.51 218.81 260.00 216.00 C 252.49 213.19 242.03 217.61 234.00 216.00 C 225.97 214.39 216.13 217.48 208.00 216.00 C 199.87 214.52 190.38 218.70 182.78 215.22 C 175.18 211.75 182.15 202.88 190.00 205.00 C 197.85 207.12 207.89 203.58 216.00 205.00 C 224.11 206.42 234.00 203.33 242.00 205.00 C 250.00 206.67 260.56 201.97 268.00 205.00
M 249.00 235.00 
C 258.69 238.23 248.27 249.45 240.00 246.00 C 231.73 242.55 220.86 248.54 212.00 246.00 C 203.14 243.46 192.23 249.48 183.33 245.67 C 174.43 241.86 183.36 232.10 192.00 235.00 C 200.64 237.90 211.14 232.83 220.00 235.00 C 228.86 237.17 240.36 232.12 249.00 235.00
M 268.00 283.00 
C 251.77 290.44 235.32 301.75 219.77 310.77 C 204.22 319.79 210.24 296.13 206.00 290.00
C 198.59 293.09 193.21 297.53 185.92 300.92 C 178.63 304.30 173.94 309.16 165.92 311.92 C 157.91 314.69 155.90 321.97 145.92 322.92 C 135.95 323.88 140.75 310.77 149.23 309.23 C 157.71 307.68 161.49 300.49 169.08 298.08 C 176.66 295.66 181.63 289.20 189.08 287.08 C 196.52 284.95 201.05 276.55 209.08 276.08 C 217.10 275.60 216.65 292.81 218.00 298.00
C 232.92 291.55 247.36 281.76 261.00 273.00
C 252.47 269.02 256.27 258.74 266.07 262.93 C 275.88 267.11 279.10 268.59 279.00 280.00 C 278.90 291.41 268.96 294.92 268.00 283.00
M 304.00 410.00 
C 308.42 409.22 325.97 408.76 323.00 417.00 C 320.03 425.25 307.42 419.82 300.00 421.00 C 292.58 422.18 282.22 420.51 274.00 421.00 C 265.78 421.49 255.55 420.81 247.00 421.00 C 238.45 421.19 228.59 420.98 220.00 421.00 C 211.41 421.02 202.44 421.16 194.00 421.00 C 185.56 420.84 175.06 421.43 167.00 421.00 C 158.94 420.57 148.08 422.03 141.00 421.00 C 133.92 419.97 120.49 425.04 118.23 416.77 C 115.97 408.50 133.85 409.54 138.00 410.00
C 139.62 395.59 135.84 380.32 138.00 366.00 C 140.16 351.68 165.84 362.28 176.00 359.00
C 179.48 350.88 169.99 335.05 179.25 329.25 C 188.51 323.45 199.63 331.45 211.00 328.00 C 222.37 324.55 230.40 335.03 226.00 347.00
C 235.33 347.00 244.67 347.00 254.00 347.00
C 254.90 337.27 252.80 326.64 254.00 317.00 C 255.20 307.36 271.90 310.89 279.00 311.00 C 286.10 311.11 303.14 307.08 303.99 317.01 C 304.84 326.94 303.61 337.86 304.00 348.00 C 304.39 358.14 303.80 368.77 304.00 379.00 C 304.20 389.23 303.85 399.74 304.00 410.00 Z"/>
</g>
<g fill="#07A6D0" fill-opacity="0.92" stroke="None">
<path d="
M 80.00 102.00 
C 74.18 99.22 65.82 77.76 57.75 82.75 C 49.67 87.73 40.61 95.36 34.31 102.31 C 28.00 109.25 48.61 120.32 49.00 127.00
C 60.20 120.97 70.38 110.87 80.00 102.00 Z"/>
</g>
<g fill="#000000" fill-opacity="0.00" stroke="None">
<path d="
M 243.00 90.00 
C 235.26 86.34 223.63 91.87 215.00 90.00 C 206.37 88.13 197.24 91.20 188.00 90.00 C 178.76 88.80 169.83 91.36 160.00 90.00 C 150.17 88.64 144.04 91.27 145.00 102.00 C 145.96 112.73 145.51 119.20 145.00 130.00 C 144.50 140.80 152.86 140.79 162.00 140.00 C 171.14 139.21 181.29 140.70 190.00 140.00 C 198.71 139.30 209.08 141.10 217.00 140.00 C 224.92 138.90 237.73 142.73 243.74 138.74 C 249.75 134.76 245.33 119.32 246.00 114.00 C 246.67 108.68 248.24 92.48 243.00 90.00
M 236.00 101.00 
C 237.54 103.20 236.00 112.18 236.00 115.00 C 236.00 117.82 237.54 126.80 236.00 129.00
C 233.17 133.04 222.38 128.89 217.00 130.00 C 211.62 131.11 202.14 129.46 196.00 130.00 C 189.86 130.54 182.52 129.73 176.00 130.00 C 169.48 130.27 161.64 129.80 155.00 130.00
C 155.00 120.00 155.00 110.00 155.00 100.00
C 181.83 100.67 209.99 98.67 236.00 101.00 Z"/>
</g>
<g fill="#000000" fill-opacity="0.00" stroke="None">
<path d="
M 361.00 95.00 
C 353.05 92.35 340.39 95.48 332.00 95.00 C 323.61 94.52 310.99 93.64 303.00 95.00 C 295.01 96.36 282.76 89.51 277.31 97.31 C 271.85 105.10 287.85 107.05 295.00 106.00 C 302.15 104.95 314.99 105.37 323.00 106.00 C 331.01 106.63 344.17 103.45 352.00 106.00 C 359.83 108.55 371.18 98.39 361.00 95.00 Z"/>
</g>
<g fill="#08A6D0" fill-opacity="0.97" stroke="None">
<path d="
M 236.00 129.00 
C 234.35 120.74 234.32 109.19 236.00 101.00
C 209.99 98.67 181.83 100.67 155.00 100.00
C 155.00 110.00 155.00 120.00 155.00 130.00
C 161.64 129.80 169.48 130.27 176.00 130.00 C 182.52 129.73 189.86 130.54 196.00 130.00 C 202.14 129.46 211.62 131.11 217.00 130.00 C 222.38 128.89 233.17 133.04 236.00 129.00 Z"/>
</g>
<g fill="#00CCCC" fill-opacity="0.04" stroke="None">
<path d="
M 236.00 129.00 
C 237.54 126.80 236.00 117.82 236.00 115.00 C 236.00 112.18 237.54 103.20 236.00 101.00
C 234.32 109.19 234.35 120.74 236.00 129.00 Z"/>
</g>
<g fill="#003B6E" fill-opacity="0.95" stroke="None">
<path d="
M 86.00 111.00 
C 76.10 117.34 67.99 127.09 58.00 133.00
C 73.10 156.08 94.18 176.49 111.00 199.00
C 120.84 192.53 129.06 183.00 139.00 177.00
C 124.26 153.70 103.19 133.29 86.00 111.00 Z"/>
</g>
<g fill="#000000" fill-opacity="0.00" stroke="None">
<path d="
M 333.00 127.00 
C 325.93 124.64 311.48 126.32 304.00 127.00 C 296.52 127.68 282.76 121.67 277.31 129.31 C 271.85 136.95 288.05 138.48 295.00 138.00 C 301.95 137.52 316.79 135.96 324.00 138.00 C 331.21 140.04 343.70 130.57 333.00 127.00 Z"/>
</g>
<g fill="#000000" fill-opacity="0.00" stroke="None">
<path d="
M 228.00 175.00 
C 222.27 172.50 208.20 175.02 202.00 175.00 C 195.80 174.98 183.55 170.83 179.98 177.97 C 176.41 185.12 188.80 186.23 195.00 186.00 C 201.20 185.77 213.66 184.08 220.00 186.00 C 226.34 187.92 236.62 178.76 228.00 175.00 Z"/>
</g>
<g fill="#07A7D1" fill-opacity="0.89" stroke="None">
<path d="
M 145.00 185.00 
C 136.02 190.23 126.50 198.23 120.00 206.00
C 131.10 210.45 141.78 216.01 153.00 220.00
C 151.19 208.09 147.15 196.79 145.00 185.00 Z"/>
</g>
<g fill="#003B6E" fill-opacity="0.94" stroke="None">
<path d="
M 403.00 385.00 
C 404.89 376.12 400.03 363.85 404.00 356.00
C 413.07 349.72 426.84 349.16 436.30 342.30 C 445.77 335.44 452.83 330.53 459.70 320.70 C 466.57 310.86 470.43 300.36 472.22 288.22 C 474.02 276.08 472.80 259.97 467.98 249.03 C 463.15 238.08 458.65 229.52 449.75 221.25 C 440.85 212.97 432.89 208.47 421.68 204.32 C 410.46 200.17 394.36 199.14 382.67 201.67 C 370.98 204.21 360.36 207.81 351.23 215.23 C 342.10 222.65 335.73 228.72 329.92 238.92 C 324.12 249.13 320.32 262.96 320.00 275.00 C 319.68 287.04 323.02 301.15 328.70 311.31 C 334.37 321.46 338.45 329.55 348.75 336.25 C 359.05 342.94 364.85 349.89 378.93 351.07 C 393.01 352.26 390.89 372.34 390.00 385.00
C 393.26 383.47 400.09 387.04 403.00 385.00
M 401.00 217.00 
C 444.98 221.26 471.27 273.00 446.08 310.08 C 420.89 347.16 365.61 343.08 344.25 304.75 C 322.88 266.43 355.32 212.58 401.00 217.00 Z"/>
</g>
<g fill="#000000" fill-opacity="0.00" stroke="None">
<path d="
M 268.00 205.00 
C 260.56 201.97 250.00 206.67 242.00 205.00 C 234.00 203.33 224.11 206.42 216.00 205.00 C 207.89 203.58 197.85 207.12 190.00 205.00 C 182.15 202.88 175.18 211.75 182.78 215.22 C 190.38 218.70 199.87 214.52 208.00 216.00 C 216.13 217.48 225.97 214.39 234.00 216.00 C 242.03 217.61 252.49 213.19 260.00 216.00 C 267.51 218.81 276.19 208.33 268.00 205.00 Z"/>
</g>
<g fill="#000000" fill-opacity="0.00" stroke="None">
<path d="
M 401.00 217.00 
C 355.32 212.58 322.88 266.43 344.25 304.75 C 365.61 343.08 420.89 347.16 446.08 310.08 C 471.27 273.00 444.98 221.26 401.00 217.00
M 400.00 228.00 
C 436.26 230.13 457.41 274.50 437.08 304.08 C 416.76 333.66 371.39 331.82 354.08 299.92 C 336.78 268.02 362.18 225.78 400.00 228.00 Z"/>
</g>
<g fill="#003B6E" fill-opacity="0.98" stroke="None">
<path d="
M 400.00 228.00 
C 362.18 225.78 336.78 268.02 354.08 299.92 C 371.39 331.82 416.76 333.66 437.08 304.08 C 457.41 274.50 436.26 230.13 400.00 228.00 Z"/>
</g>
<g fill="#000000" fill-opacity="0.00" stroke="None">
<path d="
M 249.00 235.00 
C 240.36 232.12 228.86 237.17 220.00 235.00 C 211.14 232.83 200.64 237.90 192.00 235.00 C 183.36 232.10 174.43 241.86 183.33 245.67 C 192.23 249.48 203.14 243.46 212.00 246.00 C 220.86 248.54 231.73 242.55 240.00 246.00 C 248.27 249.45 258.69 238.23 249.00 235.00 Z"/>
</g>
<g fill="#000000" fill-opacity="0.00" stroke="None">
<path d="
M 268.00 283.00 
C 268.96 294.92 278.90 291.41 279.00 280.00 C 279.10 268.59 275.88 267.11 266.07 262.93 C 256.27 258.74 252.47 269.02 261.00 273.00
C 247.36 281.76 232.92 291.55 218.00 298.00
C 216.65 292.81 217.10 275.60 209.08 276.08 C 201.05 276.55 196.52 284.95 189.08 287.08 C 181.63 289.20 176.66 295.66 169.08 298.08 C 161.49 300.49 157.71 307.68 149.23 309.23 C 140.75 310.77 135.95 323.88 145.92 322.92 C 155.90 321.97 157.91 314.69 165.92 311.92 C 173.94 309.16 178.63 304.30 185.92 300.92 C 193.21 297.53 198.59 293.09 206.00 290.00
C 210.24 296.13 204.22 319.79 219.77 310.77 C 235.32 301.75 251.77 290.44 268.00 283.00 Z"/>
</g>
<g fill="#000000" fill-opacity="0.00" stroke="None">
<path d="
M 304.00 410.00 
C 303.85 399.74 304.20 389.23 304.00 379.00 C 303.80 368.77 304.39 358.14 304.00 348.00 C 303.61 337.86 304.84 326.94 303.99 317.01 C 303.14 307.08 286.10 311.11 279.00 311.00 C 271.90 310.89 255.20 307.36 254.00 317.00 C 252.80 326.64 254.90 337.27 254.00 347.00
C 244.67 347.00 235.33 347.00 226.00 347.00
C 230.40 335.03 222.37 324.55 211.00 328.00 C 199.63 331.45 188.51 323.45 179.25 329.25 C 169.99 335.05 179.48 350.88 176.00 359.00
C 165.84 362.28 140.16 351.68 138.00 366.00 C 135.84 380.32 139.62 395.59 138.00 410.00
C 133.85 409.54 115.97 408.50 118.23 416.77 C 120.49 425.04 133.92 419.97 141.00 421.00 C 148.08 422.03 158.94 420.57 167.00 421.00 C 175.06 421.43 185.56 420.84 194.00 421.00 C 202.44 421.16 211.41 421.02 220.00 421.00 C 228.59 420.98 238.45 421.19 247.00 421.00 C 255.55 420.81 265.78 421.49 274.00 421.00 C 282.22 420.51 292.58 422.18 300.00 421.00 C 307.42 419.82 320.03 425.25 323.00 417.00 C 325.97 408.76 308.42 409.22 304.00 410.00
M 293.00 322.00 
C 293.00 351.33 293.00 380.67 293.00 410.00
C 283.67 410.00 274.33 410.00 265.00 410.00
C 265.00 380.67 265.00 351.33 265.00 322.00
C 274.33 322.00 283.67 322.00 293.00 322.00
M 215.00 339.00 
C 215.00 362.67 215.00 386.33 215.00 410.00
C 205.67 410.00 196.33 410.00 187.00 410.00
C 187.00 386.33 187.00 362.67 187.00 339.00
C 196.33 339.00 205.67 339.00 215.00 339.00
M 255.00 357.00 
C 255.00 375.00 255.00 393.00 255.00 411.00
C 245.00 411.00 235.00 411.00 225.00 411.00
C 225.00 393.00 225.00 375.00 225.00 357.00
C 235.00 357.00 245.00 357.00 255.00 357.00
M 177.00 369.00 
C 177.00 383.00 177.00 397.00 177.00 411.00
C 167.33 411.00 157.67 411.00 148.00 411.00
C 148.00 397.00 148.00 383.00 148.00 369.00
C 157.67 369.00 167.33 369.00 177.00 369.00 Z"/>
</g>
<g fill="#003A6E" fill-opacity="0.95" stroke="None">
<path d="
M 293.00 322.00 
C 283.67 322.00 274.33 322.00 265.00 322.00
C 265.00 351.33 265.00 380.67 265.00 410.00
C 274.33 410.00 283.67 410.00 293.00 410.00
C 293.00 380.67 293.00 351.33 293.00 322.00 Z"/>
</g>
<g fill="#003A6D" fill-opacity="0.95" stroke="None">
<path d="
M 215.00 339.00 
C 205.67 339.00 196.33 339.00 187.00 339.00
C 187.00 362.67 187.00 386.33 187.00 410.00
C 196.33 410.00 205.67 410.00 215.00 410.00
C 215.00 386.33 215.00 362.67 215.00 339.00 Z"/>
</g>
<g fill="#004A7D" fill-opacity="0.09" stroke="None">
<path d="
M 403.00 385.00 
C 406.34 382.66 402.80 374.89 404.00 371.00 C 405.20 367.11 402.67 360.03 404.00 356.00
C 400.03 363.85 404.89 376.12 403.00 385.00 Z"/>
</g>
<g fill="#08A6D0" fill-opacity="0.95" stroke="None">
<path d="
M 255.00 357.00 
C 245.00 357.00 235.00 357.00 225.00 357.00
C 225.00 375.00 225.00 393.00 225.00 411.00
C 235.00 411.00 245.00 411.00 255.00 411.00
C 255.00 393.00 255.00 375.00 255.00 357.00 Z"/>
</g>
<g fill="#08A5D0" fill-opacity="0.97" stroke="None">
<path d="
M 177.00 369.00 
C 167.33 369.00 157.67 369.00 148.00 369.00
C 148.00 383.00 148.00 397.00 148.00 411.00
C 157.67 411.00 167.33 411.00 177.00 411.00
C 177.00 397.00 177.00 383.00 177.00 369.00 Z"/>
</g>
<g fill="#08A6D0" fill-opacity="0.93" stroke="None">
<path d="
M 410.00 395.00 
C 403.53 391.76 396.37 397.18 389.00 395.00 C 381.63 392.82 380.76 403.41 382.00 409.00 C 383.24 414.59 380.35 424.60 382.00 430.00 C 383.65 435.40 377.94 446.12 384.00 449.00 C 390.06 451.88 397.56 446.66 405.00 449.00 C 412.44 451.34 413.16 440.88 412.00 435.00 C 410.84 429.12 413.27 419.44 412.00 414.00 C 410.73 408.56 415.13 397.56 410.00 395.00 Z"/>
</g>
</svg>