<?xml version="1.0" encoding="UTF-8"?>
<svg version="1.1" xmlns="http://www.w3.org/2000/svg" width="512" height="512">
<path d="M0 0 C0.65671755 -0.00282738 1.3134351 -0.00565475 1.99005318 -0.00856781 C5.4805959 -0.02343878 8.97109876 -0.03273858 12.46166992 -0.03710938 C15.27202676 -0.04144697 18.08206842 -0.05517058 20.89233398 -0.078125 C65.14629102 -0.43193294 126.78305445 0.28887414 162.3203125 30.453125 C168.79049675 38.18283845 168.26599483 45.48569233 168.03515625 55.140625 C168.01506602 56.60218915 167.99681969 58.06377986 167.98046875 59.52539062 C167.93665961 63.08519274 167.86777171 66.64398754 167.78515625 70.203125 C169.0408139 70.19646317 170.29647156 70.18980133 171.59017944 70.18293762 C183.44824992 70.12200979 195.30628846 70.07709632 207.16448021 70.04768848 C213.26027345 70.03206117 219.35593988 70.01087638 225.45166016 69.97680664 C231.33905909 69.94410876 237.22633636 69.92624993 243.11381912 69.91849327 C245.3551894 69.91296848 247.59655334 69.90218005 249.83787155 69.88593483 C252.98759886 69.86402216 256.13682931 69.86116388 259.28662109 69.86254883 C260.20444366 69.851763 261.12226624 69.84097717 262.06790161 69.8298645 C273.58118427 69.88431544 282.94559815 73.6464218 291.47265625 81.328125 C298.10929679 88.25331513 300.91186572 97.43308883 300.90820408 106.84715748 C300.91019513 107.9787661 300.91218618 109.11037471 300.91423756 110.2762745 C300.91132472 111.51459565 300.90841188 112.75291679 300.90541077 114.02876282 C300.9066924 116.00752679 300.9066924 116.00752679 300.90799993 118.0262658 C300.91023637 121.68628679 300.90623523 125.34627853 300.90122187 129.0062958 C300.89690536 132.95375672 300.89836465 136.90121597 300.89912415 140.84867859 C300.89964862 147.68741052 300.89650981 154.52613291 300.89088631 161.36486244 C300.88276094 171.25252994 300.88015502 181.14019282 300.87889832 191.02786329 C300.87670943 207.06976629 300.87005376 223.11166421 300.8605957 239.15356445 C300.85141737 254.73722305 300.84433859 270.32088026 300.84008789 285.90454102 C300.83969381 287.34528945 300.83969381 287.34528945 300.83929176 288.81514392 C300.83798673 293.63366168 300.83672302 298.45217946 300.83547986 303.27069724 C300.82511233 343.24817672 300.80749844 383.22565052 300.78515625 423.203125 C301.9128691 423.16968412 301.9128691 423.16968412 303.06336403 423.13556767 C304.05143736 423.11822795 305.03951069 423.10088823 306.05752563 423.08302307 C307.0362092 423.06072915 308.01489277 423.03843523 309.02323341 423.01546574 C311.81734237 423.20531189 313.17081245 423.51947016 315.42724609 425.12475586 C318.64070269 429.32008348 318.62273554 432.30233779 318.51171875 437.45703125 C318.51271576 438.35373032 318.51371277 439.25042938 318.51473999 440.17430115 C318.51006632 442.0714504 318.49065396 443.96861288 318.45751953 445.86547852 C318.4106981 448.73244674 318.41635261 451.59564174 318.4296875 454.46289062 C318.37682467 471.75092141 314.67157081 485.02616213 302.59765625 497.953125 C289.29197333 510.55850882 274.9073201 512.65884233 257.37722778 512.59080505 C255.61983077 512.59498289 253.86243646 512.60046287 252.10504711 512.60712487 C247.29787328 512.62153912 242.49087149 512.61734733 237.6836884 512.60995805 C232.49065763 512.60521872 227.29766367 512.617743 222.10464478 512.62797546 C211.93963689 512.64515378 201.77469084 512.64600547 191.6096722 512.64076256 C183.34583258 512.63671784 175.08201121 512.63816801 166.81817245 512.64351082 C165.0525823 512.64463345 165.0525823 512.64463345 163.25132366 512.64577876 C160.85997304 512.64731027 158.46862242 512.64884862 156.0772718 512.65039373 C133.66189241 512.66411527 111.24654794 512.6586835 88.83116935 512.64720852 C68.3352609 512.63727646 47.83944272 512.65021699 27.34354819 512.67414271 C6.2853467 512.69853915 -14.77281276 512.70814024 -35.8310281 512.70148998 C-47.6484147 512.69799899 -59.46573186 512.70022198 -71.28310776 512.71774101 C-81.3428794 512.73246976 -91.40253273 512.73308954 -101.46230207 512.7156701 C-106.59203812 512.70716338 -111.72156287 512.7050027 -116.85128784 512.72032166 C-121.55297519 512.73418823 -126.25427059 512.72938021 -130.95593537 512.71008242 C-132.6509803 512.70632816 -134.34605677 512.70922772 -136.04107355 512.71969407 C-153.30400098 512.8186554 -167.08007351 509.02980266 -179.96484375 497.015625 C-189.82498698 486.62536654 -194.66307814 474.41267868 -194.71875 460.21484375 C-194.7287352 459.30861771 -194.7387204 458.40239166 -194.74900818 457.46870422 C-194.76407027 455.57219969 -194.77123771 453.67561702 -194.77075195 451.77905273 C-194.77736939 448.87938854 -194.83212498 445.98305315 -194.88867188 443.08398438 C-194.89746573 441.23178244 -194.90342544 439.37956441 -194.90625 437.52734375 C-194.92780655 436.66582199 -194.9493631 435.80430023 -194.97157288 434.91667175 C-194.92155179 430.53656581 -194.59000718 428.69407625 -191.85913086 425.12036133 C-188.7905595 422.94221895 -186.18301366 422.99929647 -182.48707581 423.08329773 C-181.4990223 423.10059779 -180.5109688 423.11789785 -179.49297428 423.13572216 C-178.74119121 423.1579651 -177.98940813 423.18020803 -177.21484375 423.203125 C-177.21655249 422.18680746 -177.21655249 422.18680746 -177.21829575 421.14995825 C-177.28544545 380.98368043 -177.33691126 340.81740986 -177.36803974 300.65108726 C-177.37179181 295.82712449 -177.37567478 291.00316182 -177.37963867 286.17919922 C-177.3804256 285.21884437 -177.38121253 284.25848951 -177.38202331 283.269033 C-177.39507345 267.72377484 -177.41872514 252.17854999 -177.44630214 236.63331158 C-177.47436723 220.67975031 -177.49102235 204.72620646 -177.49710923 188.77262151 C-177.50122338 178.93022585 -177.51421269 169.08792438 -177.53859315 159.24555771 C-177.55446396 152.49418337 -177.55924106 145.74285764 -177.55534788 138.991466 C-177.55342843 135.09760021 -177.55634893 131.20389888 -177.57246017 127.31006241 C-177.58712098 123.74060305 -177.58775638 120.17141787 -177.57754043 116.60194556 C-177.57568423 114.70850729 -177.58856747 112.81507196 -177.60208768 110.92168105 C-177.53698113 98.47877587 -174.46428354 88.81165386 -166.08984375 79.515625 C-158.74083556 72.47282548 -149.30940099 70.04055371 -139.40234375 70.140625 C-138.24089844 70.14964844 -137.07945312 70.15867187 -135.8828125 70.16796875 C-135.00238281 70.17957031 -134.12195313 70.19117187 -133.21484375 70.203125 C-133.23579102 69.36652344 -133.25673828 68.52992187 -133.27832031 67.66796875 C-133.34696341 64.52950191 -133.39686938 61.39142084 -133.43457031 58.25244141 C-133.4643042 56.23964873 -133.51516104 54.22720366 -133.56640625 52.21484375 C-133.65361184 43.53788772 -133.09213522 38.08494477 -127.6015625 31.171875 C-95.89376492 3.76467526 -39.9652635 0.13711604 0 0 Z " fill="#8FB9E0" transform="translate(194.21484375,-0.203125)"/>
<path d="M0 0 C0.65671755 -0.00282738 1.3134351 -0.00565475 1.99005318 -0.00856781 C5.4805959 -0.02343878 8.97109876 -0.03273858 12.46166992 -0.03710938 C15.27202676 -0.04144697 18.08206842 -0.05517058 20.89233398 -0.078125 C65.14629102 -0.43193294 126.78305445 0.28887414 162.3203125 30.453125 C167.27039815 36.36682733 168.36866486 40.92853499 168.23925781 48.44311523 C168.23984192 49.34146591 168.24042603 50.23981659 168.24102783 51.16539001 C168.23825628 54.11456871 168.20720839 57.06271811 168.17578125 60.01171875 C168.16831555 62.06437122 168.16262417 64.11703084 168.15863037 66.16969299 C168.14339999 71.55715817 168.10414035 76.94418805 168.05981445 82.33148193 C168.01880582 87.83486036 168.00060741 93.33830951 167.98046875 98.84179688 C167.93764374 109.62909689 167.86942374 120.41607467 167.78515625 131.203125 C166.70053604 130.92869568 165.61591583 130.65426636 164.49842834 130.371521 C163.0537392 130.00769997 161.60903095 129.64395481 160.16430664 129.28027344 C159.45201149 129.0998349 158.73971634 128.91939636 158.00583649 128.73348999 C146.85716084 125.93188341 136.35668005 124.88312587 124.84765625 124.953125 C123.57986328 124.94539063 122.31207031 124.93765625 121.00585938 124.9296875 C112.75251369 124.94660876 104.89296742 125.6691585 96.78515625 127.203125 C95.66838501 127.41412842 95.66838501 127.41412842 94.52905273 127.62939453 C83.99100687 129.77893961 74.39574618 133.43771773 64.78515625 138.203125 C64.12515625 138.52909668 63.46515625 138.85506836 62.78515625 139.19091797 C31.53610389 154.94513992 9.38020123 182.50109749 -2.21484375 215.203125 C-13.46159322 249.96366471 -8.76033543 286.51157446 7.52929688 318.76586914 C20.98419656 344.67961404 42.78075608 363.54765025 68.78515625 376.203125 C68.78515625 376.533125 68.78515625 376.863125 68.78515625 377.203125 C52.67838701 379.17361 36.65884876 379.54828612 20.45019531 379.51879883 C17.68765894 379.5141884 14.92556513 379.52102999 12.16308594 379.53930664 C-30.47080094 379.81847385 -94.0393166 379.4606878 -126.96484375 348.015625 C-131.01885901 343.82941359 -132.4590496 339.75487626 -132.48773003 333.95625591 C-132.50262846 332.39164561 -132.50262846 332.39164561 -132.51782787 330.79542702 C-132.51862161 329.6559456 -132.51941536 328.51646417 -132.52023315 327.342453 C-132.52884782 326.1269268 -132.53746248 324.9114006 -132.5463382 323.65904027 C-132.56815166 320.28806784 -132.58106465 316.91727501 -132.59015417 313.54625833 C-132.60207777 309.90944655 -132.62535055 306.27270452 -132.64707947 302.63594055 C-132.68769076 295.51184803 -132.71727356 288.38775076 -132.74249463 281.26358863 C-132.76303574 275.47238125 -132.78668746 269.681195 -132.81253433 263.89000893 C-132.8854493 247.46951684 -132.94997911 231.04902229 -133.00388597 214.62845667 C-133.00679305 213.7432608 -133.00970014 212.85806492 -133.01269531 211.94604492 C-133.01560417 211.05976771 -133.01851302 210.1734905 -133.02151002 209.2603564 C-133.069165 194.89735662 -133.13681634 180.53452952 -133.21353136 166.17165824 C-133.29207773 151.42258314 -133.35560219 136.6735092 -133.40350544 121.92430192 C-133.43070777 113.64429815 -133.46412019 105.36442698 -133.51369858 97.08452415 C-133.55579546 90.0346757 -133.58394051 82.98494208 -133.59404545 75.93497225 C-133.59959907 72.33895057 -133.61160766 68.74326133 -133.64120674 65.14735031 C-133.67312178 61.24641282 -133.6737389 57.3458232 -133.6713562 53.44474792 C-133.68553428 52.31195866 -133.69971235 51.1791694 -133.71432006 50.01205319 C-133.67283789 42.38307452 -132.4439298 37.26880235 -127.6015625 31.171875 C-95.89376492 3.76467526 -39.9652635 0.13711604 0 0 Z " fill="#547580" transform="translate(194.21484375,-0.203125)"/>
<path d="M0 0 C1.29295019 0.35553626 2.58591984 0.71100173 3.87890625 1.06640625 C23.58703759 6.68879606 40.32767311 15.77999764 56 29 C56.63421875 29.51175781 57.2684375 30.02351563 57.921875 30.55078125 C62.47367094 34.28687924 66.2709221 38.45142716 70 43 C70.763125 43.91394531 71.52625 44.82789063 72.3125 45.76953125 C83.02926391 59.08176142 90.69921051 73.78064079 96 90 C96.31582031 90.95003906 96.63164062 91.90007812 96.95703125 92.87890625 C103.59628176 114.82440917 103.68565327 141.14188247 97 163 C96.78569336 163.73863281 96.57138672 164.47726562 96.35058594 165.23828125 C86.12424734 200.1894356 63.04166846 228.23865039 31.3203125 246.09765625 C11.61936503 256.76560725 -8.84969061 261.0893313 -31.0625 261.25 C-32.23441895 261.2595874 -33.40633789 261.2691748 -34.61376953 261.27905273 C-42.57857383 261.24835447 -50.17197647 260.45329276 -58 259 C-58.73532959 258.86464844 -59.47065918 258.72929687 -60.22827148 258.58984375 C-80.49449854 254.56615379 -100.46291581 244.53063954 -116 231 C-116.81984375 230.30132812 -117.6396875 229.60265625 -118.484375 228.8828125 C-143.88873862 206.71316599 -157.74072286 177.94155341 -163 145 C-163.2784375 143.30617188 -163.2784375 143.30617188 -163.5625 141.578125 C-167.51038738 109.29004607 -157.32066532 74.73590616 -137.50830078 49.06738281 C-134.15291635 44.90862653 -130.61425232 40.93386195 -127 37 C-126.34773438 36.26523438 -125.69546875 35.53046875 -125.0234375 34.7734375 C-108.82946369 17.43803822 -85.75177014 5.49866092 -62.9375 -0.1875 C-61.66777344 -0.51105469 -60.39804687 -0.83460937 -59.08984375 -1.16796875 C-40.84463557 -5.18285031 -17.91882016 -5.30533439 0 0 Z " fill="#46B29D" transform="translate(349,127)"/>
<path d="M0 0 C0.84931233 -0.0072672 1.69862466 -0.01453441 2.57367373 -0.02202183 C5.42718939 -0.04030806 8.27936708 -0.02289975 11.13287354 -0.00571251 C13.1961829 -0.01147226 15.25948713 -0.01941238 17.32278061 -0.02934873 C22.99856684 -0.05026523 28.67393396 -0.03988486 34.34972191 -0.02441764 C40.468427 -0.01312779 46.58705886 -0.0305551 52.70574951 -0.04431725 C64.00138454 -0.06529217 75.29684831 -0.06343719 86.59247911 -0.0497599 C97.02714155 -0.03718699 107.46175488 -0.03389633 117.89642334 -0.03987312 C118.93425865 -0.04044601 118.93425865 -0.04044601 119.99306032 -0.04103047 C122.80159867 -0.04258714 125.61013699 -0.04417914 128.41867529 -0.04582929 C154.77024092 -0.0611277 181.12172123 -0.04725162 207.47327369 -0.02034481 C230.89012612 0.00338363 254.30684261 0.00126051 277.72369385 -0.02264977 C304.02675081 -0.04941722 330.32973237 -0.06004279 356.63280106 -0.04458845 C359.43625131 -0.04298484 362.23970157 -0.04142064 365.04315186 -0.03987312 C366.07858941 -0.03928004 366.07858941 -0.03928004 367.13494489 -0.03867498 C377.56359639 -0.03298525 387.99219344 -0.03964339 398.4208374 -0.05227089 C410.27753191 -0.06655588 422.13406585 -0.06253521 433.99075413 -0.03586717 C440.04312823 -0.02270397 446.09522605 -0.01761947 452.14759827 -0.03411293 C457.68433211 -0.04897329 463.22053266 -0.04088858 468.75721788 -0.01422517 C470.76385611 -0.00862362 472.77053907 -0.0115179 474.77714872 -0.02360411 C477.49860401 -0.03874304 480.21821713 -0.0232855 482.9395752 0 C483.72427075 -0.01170583 484.5089663 -0.02341166 485.31744051 -0.03547221 C491.14952785 0.06471744 493.55524061 1.59128291 497.4697876 5.6292057 C498.2182312 7.7442112 498.2182312 7.7442112 498.2144165 9.86187172 C498.22687408 10.66363335 498.23933167 11.46539497 498.25216675 12.29145241 C498.22453751 13.57432388 498.22453751 13.57432388 498.1963501 14.88311195 C498.19734711 15.77981102 498.19834412 16.67651009 498.19937134 17.60038185 C498.19469767 19.4975311 498.17528531 21.39469359 498.14215088 23.29155922 C498.09532944 26.15852745 498.10098395 29.02172244 498.11431885 31.88897133 C498.06145602 49.17700211 494.35620216 62.45224283 482.2822876 75.3792057 C468.97660468 87.98458952 454.59195144 90.08492303 437.06185913 90.01688576 C435.30446212 90.0210636 433.54706781 90.02654357 431.78967845 90.03320557 C426.98250463 90.04761982 422.17550283 90.04342804 417.36831975 90.03603876 C412.17528898 90.03129943 406.98229501 90.0438237 401.78927612 90.05405617 C391.62426823 90.07123448 381.45932219 90.07208618 371.29430355 90.06684326 C363.03046393 90.06279854 354.76664256 90.06424872 346.5028038 90.06959152 C344.73721365 90.07071416 344.73721365 90.07071416 342.93595501 90.07185947 C340.54460439 90.07339098 338.15325377 90.07492932 335.76190315 90.07647444 C313.34652376 90.09019597 290.93117929 90.08476421 268.5158007 90.07328922 C248.01989225 90.06335716 227.52407407 90.0762977 207.02817954 90.10022341 C185.96997805 90.12461986 164.91181859 90.13422094 143.85360324 90.12757069 C132.03621665 90.1240797 120.21889948 90.12630268 108.40152359 90.14382172 C98.34175194 90.15855047 88.28209862 90.15917025 78.22232927 90.14175081 C73.09259323 90.13324408 67.96306848 90.1310834 62.83334351 90.14640236 C58.13165616 90.16026893 53.43036076 90.15546092 48.72869597 90.13616312 C47.03365105 90.13240886 45.33857457 90.13530842 43.6435578 90.14577477 C26.38063036 90.24473611 12.60455784 86.45588336 -0.2802124 74.4417057 C-10.14035564 64.05144724 -14.9784468 51.83875938 -15.03411865 37.64092445 C-15.04410385 36.73469841 -15.05408905 35.82847237 -15.06437683 34.89478493 C-15.07943892 32.99828039 -15.08660636 31.10169772 -15.08612061 29.20513344 C-15.09273805 26.30546924 -15.14749363 23.40913385 -15.20404053 20.51006508 C-15.21283438 18.65786314 -15.21879409 16.80564511 -15.22161865 14.95342445 C-15.2431752 14.09190269 -15.26473175 13.23038094 -15.28694153 12.34275246 C-15.27771164 11.53453545 -15.26848175 10.72631844 -15.25897217 9.89361 C-15.26324722 9.18874962 -15.26752228 8.48388924 -15.27192688 7.75766945 C-12.84759714 0.80068249 -6.4778479 -0.09663441 0 0 Z " fill="#537580" transform="translate(14.53021240234375,422.37079429626465)"/>
<path d="M0 0 C0.65671755 -0.00282738 1.3134351 -0.00565475 1.99005318 -0.00856781 C5.4805959 -0.02343878 8.97109876 -0.03273858 12.46166992 -0.03710938 C15.27202676 -0.04144697 18.08206842 -0.05517058 20.89233398 -0.078125 C63.67215836 -0.42014733 129.17027629 -0.5830681 162.41796875 30.6796875 C165.87241619 34.52892893 167.61859066 37.891421 168.28515625 43.140625 C167.89172867 49.50923402 165.01488661 54.33902132 160.47265625 58.703125 C133.4340229 80.42268294 92.12412336 84.30996455 58.78515625 87.203125 C57.70782227 87.29811279 56.63048828 87.39310059 55.52050781 87.4909668 C43.90795273 88.39293617 32.30170823 88.40285471 20.66015625 88.390625 C19.06678436 88.38971863 19.06678436 88.38971863 17.44122314 88.38879395 C-15.43284009 88.33812816 -49.34836666 86.98386397 -81.21484375 78.203125 C-82.07480957 77.96754883 -82.93477539 77.73197266 -83.82080078 77.48925781 C-100.63531851 72.76970485 -121.13303979 66.57838731 -131.21484375 51.140625 C-132.94086853 46.0704272 -133.97318777 42.23607721 -131.77734375 37.203125 C-122.90739706 21.72536568 -101.2723648 15.67413605 -85.21484375 11.203125 C-57.52821933 3.82265947 -28.63920885 0.0982577 0 0 Z " fill="#94A4A4" transform="translate(194.21484375,-0.203125)"/>
<path d="M0 0 C0.99 1.485 0.99 1.485 2 3 C16.11782295 22.59119431 46.26551334 29.23118173 68.734375 33.0390625 C72.71350316 33.65634449 76.70115001 34.17597443 80.69702148 34.67114258 C83.18476674 35.02638406 85.62936427 35.50885979 88.09375 36 C94.53753857 37.19904048 101.00159397 37.65345986 107.53735352 38.06030273 C109.59136312 38.18931286 111.64420311 38.33138377 113.69726562 38.47460938 C120.01901716 39.30189441 120.01901716 39.30189441 126 38 C126.15557373 38.57331055 126.31114746 39.14662109 126.47143555 39.73730469 C130.77174629 55.71004626 130.77174629 55.71004626 137 71 C137.42104004 71.86866699 137.42104004 71.86866699 137.85058594 72.75488281 C151.45393643 100.43662143 173.45261363 120.5936053 201 134 C201 134.33 201 134.66 201 135 C184.89323076 136.970485 168.87369251 137.34516112 152.66503906 137.31567383 C149.90250269 137.3110634 147.14040888 137.31790499 144.37792969 137.33618164 C101.74404281 137.61534885 38.17552715 137.2575628 5.25 105.8125 C-0.1179486 100.2695096 -0.28651832 94.88068787 -0.22705078 87.52807617 C-0.22734283 86.58124969 -0.22763489 85.63442322 -0.22793579 84.65890503 C-0.22654513 81.53683227 -0.21099621 78.4149997 -0.1953125 75.29296875 C-0.19158144 73.12535228 -0.1887349 70.95773412 -0.18673706 68.79011536 C-0.17910798 63.09041675 -0.15946563 57.39082038 -0.1373291 51.69116211 C-0.1168551 45.87289818 -0.10773201 40.05461771 -0.09765625 34.23632812 C-0.07621913 22.82417388 -0.04209186 11.41209545 0 0 Z " fill="#547580" transform="translate(62,242)"/>
<path d="M0 0 C0.99 1.485 0.99 1.485 2 3 C17.78309531 24.90207996 51.5744843 29.97385204 76.33032227 34.09643555 C78.21974994 34.4005265 80.10985626 34.70039211 82 35 C83.00546875 35.18175781 84.0109375 35.36351562 85.046875 35.55078125 C104.0935812 38.85120256 123.71664262 39.32454707 143 40 C141.56428408 44.77835709 139.50493489 49.04238353 137.1875 53.4375 C131.91192843 63.71708878 127.91820693 74.56525188 126 86 C125.81566406 87.05960937 125.63132812 88.11921875 125.44140625 89.2109375 C124.31223232 96.51552475 123.81967764 103.61707713 123.8125 111 C123.81169434 111.78874512 123.81088867 112.57749023 123.81005859 113.39013672 C123.84281689 116.81519834 124.00628782 120.0422388 124.51171875 123.4375 C125.13404489 127.97799155 125.08283936 132.42542658 125 137 C31.82621888 132.87333217 31.82621888 132.87333217 3.26953125 103.73828125 C-0.45801482 98.63441048 -0.27608075 93.59017895 -0.22705078 87.52807617 C-0.22734283 86.58124969 -0.22763489 85.63442322 -0.22793579 84.65890503 C-0.22654513 81.53683227 -0.21099621 78.4149997 -0.1953125 75.29296875 C-0.19158144 73.12535228 -0.1887349 70.95773412 -0.18673706 68.79011536 C-0.17910798 63.09041675 -0.15946563 57.39082038 -0.1373291 51.69116211 C-0.1168551 45.87289818 -0.10773201 40.05461771 -0.09765625 34.23632812 C-0.07621913 22.82417388 -0.04209186 11.41209545 0 0 Z " fill="#3F5C6C" transform="translate(62,145)"/>
<path d="M0 0 C1.16144531 0.00902344 2.32289062 0.01804687 3.51953125 0.02734375 C4.39996094 0.03894531 5.28039063 0.05054687 6.1875 0.0625 C6.39820537 24.81966574 6.55667604 49.57669611 6.65380955 74.33457947 C6.70011925 85.83143172 6.76320004 97.32772524 6.86645508 108.82421875 C6.95646131 118.85040207 7.01429501 128.87618055 7.03429645 138.90275669 C7.04597948 144.20674862 7.07322629 149.50958288 7.13907051 154.8132019 C7.20068398 159.81712734 7.21890051 164.81943118 7.20546913 169.82369995 C7.20792204 171.64893443 7.22551392 173.47422963 7.26034927 175.2991333 C7.48681365 187.78749414 5.2228083 196.01276406 -1.74806225 206.42285347 C-14.54745754 226.13888113 -22.63665251 251.28877103 -27.8125 274.0625 C-28.18568359 275.57457031 -28.18568359 275.57457031 -28.56640625 277.1171875 C-34.02002661 300.47353018 -35.70978525 324.18603621 -36.8125 348.0625 C-37.1425 348.0625 -37.4725 348.0625 -37.8125 348.0625 C-37.88118406 307.8488043 -37.9340379 267.63511626 -37.96569599 227.42137361 C-37.96944806 222.67251721 -37.97333103 217.92366092 -37.97729492 213.17480469 C-37.97808185 212.22940291 -37.97886878 211.28400113 -37.97967956 210.30995081 C-37.99272933 195.00718711 -38.01638082 179.70445726 -38.04395839 164.40171362 C-38.07202451 148.69675511 -38.08867882 132.9918143 -38.09476548 117.28683174 C-38.09887942 107.59798275 -38.11186757 97.90922945 -38.1362494 88.22040991 C-38.15212148 81.57415932 -38.15689702 74.92795812 -38.15300413 68.28168996 C-38.15108488 64.44858113 -38.15400292 60.61563938 -38.17011642 56.78256035 C-38.18748059 52.62146192 -38.18144917 48.4607176 -38.17326355 44.29959106 C-38.18637134 42.49313777 -38.18637134 42.49313777 -38.19974393 40.65019047 C-38.13394894 28.26756378 -35.01767771 18.62189583 -26.6875 9.375 C-19.33849181 2.33220048 -9.90705724 -0.10007129 0 0 Z " fill="#AFD2EF" transform="translate(54.8125,69.9375)"/>
<path d="M0 0 C3.4072224 2.83242675 5.36473315 4.58337956 5.859375 9.03515625 C5.47523142 12.95342075 4.25431183 14.43558892 1.546875 17.22265625 C-1.33758532 18.66488641 -3.24024492 18.54280088 -6.453125 18.22265625 C-8.84159561 16.88396853 -10.93566979 15.55880145 -13.140625 13.97265625 C-18.98527002 9.99386729 -24.60010651 7.13951505 -31.453125 5.22265625 C-32.71125 4.86816406 -33.969375 4.51367188 -35.265625 4.1484375 C-50.82352493 0.34381384 -66.62345873 4.30559713 -80.28125 12.1171875 C-94.77019783 21.73485115 -103.94527348 35.11344061 -108.04077148 52.04321289 C-110.96582181 67.50320357 -107.71734062 83.91661147 -99.453125 97.22265625 C-89.74420822 111.06569243 -76.09938205 121.02275928 -59.40234375 124.81640625 C-40.33843542 127.44242806 -24.17969918 122.75648307 -8.4453125 111.828125 C2.93726812 102.97217102 10.37399962 88.27736603 12.546875 74.22265625 C12.76081033 69.87418823 12.73625057 65.57128052 12.546875 61.22265625 C11.87140625 61.92132813 11.1959375 62.62 10.5 63.33984375 C9.16195312 64.70496094 9.16195312 64.70496094 7.796875 66.09765625 C6.47429687 67.45503906 6.47429687 67.45503906 5.125 68.83984375 C2.16725949 71.57351301 0.04540106 72.95369003 -3.890625 73.66015625 C-7.75352994 73.00063589 -9.10453907 71.28886566 -11.453125 68.22265625 C-12.703125 64.91015625 -12.703125 64.91015625 -12.453125 61.22265625 C-7.83794397 54.38139882 -1.05122051 48.66647552 4.79174805 42.84741211 C6.37733296 41.26725981 7.95740942 39.68173649 9.53710938 38.09570312 C10.54655392 37.08691819 11.55630799 36.07844287 12.56640625 35.0703125 C13.47495361 34.16289307 14.38350098 33.25547363 15.31958008 32.32055664 C18.00260155 29.7934051 19.02094829 29.30680452 22.671875 28.72265625 C31.44289099 29.85440025 38.38043858 39.86990886 44.43994141 45.93041992 C45.93505636 47.42331807 47.43804456 48.90799017 48.94140625 50.39257812 C49.90152927 51.34977157 50.86118222 52.30743681 51.8203125 53.265625 C52.68060059 54.1218042 53.54088867 54.9779834 54.42724609 55.86010742 C57.30177408 59.06407049 58.60245781 60.88866876 58.421875 65.22265625 C57.38875772 68.76477264 56.5509036 70.08821487 53.546875 72.22265625 C50.296875 73.41015625 50.296875 73.41015625 46.546875 73.22265625 C43.49496514 71.26282245 41.0650923 68.81718316 38.546875 66.22265625 C37.93972656 65.62710938 37.33257812 65.0315625 36.70703125 64.41796875 C35.30292558 63.03698953 33.92216817 61.63233175 32.546875 60.22265625 C32.53269531 61.18042969 32.51851562 62.13820313 32.50390625 63.125 C31.79811591 86.97041454 22.34195796 108.02997895 5.1484375 124.5234375 C-14.08808959 140.97993493 -36.81682757 144.89872014 -61.453125 143.22265625 C-67.14252967 142.38654442 -72.19027957 140.54277226 -77.453125 138.22265625 C-78.05898438 137.96564941 -78.66484375 137.70864258 -79.2890625 137.44384766 C-88.14013868 133.64152616 -95.34626781 128.67814846 -102.453125 122.22265625 C-103.08605469 121.68253906 -103.71898437 121.14242187 -104.37109375 120.5859375 C-114.35014742 111.52029835 -120.15734555 98.74379701 -124.453125 86.22265625 C-124.82953125 85.20300781 -125.2059375 84.18335938 -125.59375 83.1328125 C-127.1585693 77.44954726 -126.78108367 71.44103414 -126.765625 65.59765625 C-126.78173828 64.40269531 -126.79785156 63.20773438 -126.81445312 61.9765625 C-126.820568 50.68850976 -125.1093456 40.1290367 -119.765625 30.09765625 C-119.41822266 29.42734375 -119.07082031 28.75703125 -118.71289062 28.06640625 C-107.84606664 7.62502924 -90.96645099 -5.52066824 -69.265625 -13.21484375 C-45.37972083 -19.4154735 -19.84802595 -14.38033728 0 0 Z " fill="#FCFDFD" transform="translate(365.453125,191.77734375)"/>
<path d="M0 0 C58.08 0 116.16 0 176 0 C176 28.75 176 28.75 167.25 37.9375 C159.86373844 44.47273577 150.34099629 44.43591996 141.00390625 44.38818359 C139.72957733 44.39344055 138.45524841 44.39869751 137.14230347 44.40411377 C133.67117996 44.41770254 130.20032622 44.41252403 126.72919846 44.40297651 C123.08190988 44.39533581 119.43464308 44.40243769 115.78735352 44.40713501 C109.66450897 44.4125798 103.54177329 44.40543462 97.41894531 44.39111328 C90.35871308 44.37478916 83.29874084 44.38007858 76.2385149 44.3965925 C70.15669194 44.41024391 64.07494686 44.41210924 57.99311352 44.40427649 C54.36948071 44.39961998 50.74596976 44.39891899 47.12234497 44.40888596 C43.08010678 44.41922943 39.03831078 44.40485885 34.99609375 44.38818359 C33.21439285 44.39729263 33.21439285 44.39729263 31.396698 44.40658569 C21.54331119 44.33149388 14.03044457 42.82550178 6.7265625 35.97265625 C-2.52089917 25.40711746 0 14.25424849 0 0 Z " fill="#3F5C6C" transform="translate(168,424)"/>
<path d="M0 0 C33.66 0 67.32 0 102 0 C102.495 0.99 102.495 0.99 103 2 C98.50066259 2.84579224 94.13405281 3.18470742 89.5625 3.375 C79.73521953 3.87882479 70.05304175 5.19980428 60.31201172 6.54980469 C56.74292215 7.03494409 53.17095478 7.4922487 49.59765625 7.9453125 C37.14309395 9.53799785 24.7627764 11.20235886 12.46826172 13.78100586 C11.69498535 13.94093018 10.92170898 14.10085449 10.125 14.265625 C9.46757812 14.40774414 8.81015625 14.54986328 8.1328125 14.69628906 C5.44707876 15.07873558 2.71282713 15 0 15 C0 10.05 0 5.1 0 0 Z " fill="#ADD0EE" transform="translate(362,70)"/>
<path d="M0 0 C2.24566003 -0.0171905 4.48983863 -0.06107399 6.73510742 -0.10522461 C8.16803932 -0.11535399 9.60098372 -0.12386933 11.03393555 -0.13061523 C12.98650269 -0.15248901 12.98650269 -0.15248901 14.97851562 -0.17480469 C19.00120375 0.36948959 20.61230166 1.45622398 23.4519043 4.29516602 C24.87852648 7.14841039 24.76224297 9.12971151 24.4519043 12.29516602 C22.65196655 14.99507263 21.3681313 16.83705252 18.4519043 18.29516602 C13.93930124 18.55405952 9.42289873 18.56621315 4.90380859 18.59033203 C2.65814856 18.60752253 0.41396996 18.65140602 -1.83129883 18.69555664 C-3.26423073 18.70568602 -4.69717513 18.71420136 -6.13012695 18.72094727 C-7.43183838 18.73552979 -8.7335498 18.7501123 -10.07470703 18.76513672 C-14.09506703 18.22115745 -15.71445989 17.13807289 -18.5480957 14.29516602 C-19.69705974 11.63189914 -19.85640615 9.17273016 -19.5480957 6.29516602 C-14.7782963 -1.43519853 -8.17443052 0.04362783 0 0 Z " fill="#3F5C6C" transform="translate(116.548095703125,449.704833984375)"/>
<path d="M0 0 C4.25331827 0.86802414 6.18199992 2.40158324 9.0625 5.625 C9.83402986 9.94556721 9.58997866 11.81619939 7.1875 15.5 C4.68795713 17.99954287 3.74074042 18.53456794 0.25 19 C-2.9375 18.625 -2.9375 18.625 -5.8125 16.625 C-8.18016331 13.2824165 -8.69476358 11.56486585 -8.421875 7.5625 C-7.28464708 3.01358834 -4.4078842 0.9378477 0 0 Z " fill="#64D9B6" transform="translate(34.9375,449.375)"/>
<path d="M0 0 C3.73152858 1.17474048 5.26415485 1.76958156 7.375 5.0625 C8.17516627 9.07982963 8.04040643 12.02446597 5.8125 15.5 C2.53934238 17.59817796 0.26082276 18.0625 -3.625 18.0625 C-6.42689446 16.29608828 -8.14024911 15.03200178 -9.625 12.0625 C-10.0625 8.75 -10.0625 8.75 -9.625 5.0625 C-6.48302168 1.38408636 -4.88568266 0.08423591 0 0 Z " fill="#64D9B7" transform="translate(71.625,449.9375)"/>
</svg>
