<svg xmlns="http://www.w3.org/2000/svg" xmlns:v="https://svgstorm.com"
viewBox = "0 0 512 512"
width="512"
height="512">
<g fill="None" fill-opacity="0.0" stroke="#000000" stroke-opacity="0.01" stroke-width="0.3"><path d="
M 0.00 141.00 
C 2.71 124.52 9.35 110.72 24.25 100.25 C 39.15 89.77 60.37 89.42 79.00 90.00 C 97.63 90.58 119.18 85.92 136.67 82.67 C 154.16 79.42 172.80 74.82 189.07 70.07 C 205.34 65.33 223.08 60.66 237.23 53.23 C 251.38 45.80 269.92 42.95 277.97 28.97 C 286.02 15.00 295.58 0.01 314.00 0.00
L 0.00 0.00
L 0.00 141.00 Z"/>
</g>
<g fill="None" fill-opacity="0.0" stroke="#000000" stroke-opacity="1.00" stroke-width="0.3"><path d="
M 0.00 141.00 
L 0.00 211.00
C 1.53 218.98 3.68 228.32 8.75 235.25 C 13.83 242.17 17.13 247.60 25.08 251.92 C 33.04 256.24 38.58 260.84 49.00 261.00 C 59.42 261.15 55.81 277.23 56.00 287.00 C 56.19 296.77 56.00 309.79 56.00 320.00 C 56.00 330.21 56.18 344.01 56.00 354.00 C 55.82 363.99 55.38 373.41 63.25 379.75 C 71.11 386.09 82.75 383.67 92.00 384.00 C 101.25 384.33 111.31 384.31 116.75 375.75 C 122.19 367.19 119.42 356.34 120.00 346.00 C 120.58 335.66 119.56 322.59 120.00 312.00
C 133.79 311.24 149.65 314.08 162.22 309.22 C 174.80 304.37 178.38 289.88 175.00 278.00
C 180.57 279.93 186.53 280.63 192.00 283.00
C 162.02 327.00 162.21 391.08 187.75 436.25 C 213.30 481.41 258.07 507.95 308.00 512.00
L 329.00 512.00
C 392.74 505.37 448.93 456.01 460.98 391.98 C 473.02 327.95 439.31 255.51 377.00 230.00
C 420.99 200.70 408.29 123.70 356.00 113.00
C 356.45 89.81 355.74 61.08 355.22 38.78 C 354.70 16.47 337.68 3.13 318.00 0.00
L 314.00 0.00
C 295.58 0.01 286.02 15.00 277.97 28.97 C 269.92 42.95 251.38 45.80 237.23 53.23 C 223.08 60.66 205.34 65.33 189.07 70.07 C 172.80 74.82 154.16 79.42 136.67 82.67 C 119.18 85.92 97.63 90.58 79.00 90.00 C 60.37 89.42 39.15 89.77 24.25 100.25 C 9.35 110.72 2.71 124.52 0.00 141.00
M 344.00 219.00 
C 325.86 215.16 306.15 215.16 288.00 219.00
C 288.81 189.10 286.92 154.42 288.00 125.00 C 289.08 95.58 285.50 59.35 288.98 31.98 C 292.45 4.60 339.59 4.72 342.93 32.07 C 346.26 59.43 343.07 95.58 344.00 125.00 C 344.93 154.42 343.30 189.10 344.00 219.00
M 216.00 255.00 
C 212.75 258.25 209.21 261.79 206.00 265.00
C 203.83 267.54 201.25 269.93 200.00 273.00
C 165.40 263.09 130.17 255.14 94.00 251.00
C 94.00 201.00 94.00 151.00 94.00 101.00
C 157.24 92.51 220.32 78.79 276.00 47.00
C 276.00 105.33 276.00 163.67 276.00 222.00
C 253.60 227.19 233.41 239.60 216.00 255.00
M 82.00 102.00 
C 82.00 151.33 82.00 200.67 82.00 250.00
C 60.84 250.64 39.28 252.09 23.75 236.25 C 8.22 220.40 12.01 197.09 12.00 176.00 C 11.99 154.91 8.24 131.63 23.75 115.75 C 39.27 99.88 60.81 101.39 82.00 102.00
M 356.00 222.00 
C 356.00 189.67 356.00 157.33 356.00 125.00
C 370.66 128.52 379.67 139.36 386.92 152.08 C 394.18 164.79 394.63 186.02 387.70 198.69 C 380.76 211.37 371.28 226.56 356.00 222.00
M 329.00 228.00 
C 402.38 235.10 457.25 302.05 451.01 376.01 C 444.76 449.97 377.86 505.05 303.98 499.02 C 230.09 493.00 173.33 424.54 180.00 351.00 C 186.67 277.46 255.62 220.90 329.00 228.00
M 108.00 265.00 
C 108.19 276.06 107.75 285.81 108.00 297.00 C 108.25 308.19 107.52 317.32 108.00 329.00 C 108.48 340.68 106.98 348.16 108.00 361.00 C 109.02 373.84 97.78 371.41 87.00 372.00 C 76.22 372.59 66.13 371.71 68.00 359.00 C 69.87 346.29 67.13 338.66 68.00 327.00 C 68.87 315.34 67.56 306.28 68.00 295.00 C 68.44 283.72 67.67 273.21 68.00 262.00
C 81.68 261.65 95.15 261.99 108.00 265.00
M 163.00 275.00 
C 165.12 282.65 167.77 298.42 155.92 299.92 C 144.08 301.43 131.88 298.95 120.00 300.00
C 120.00 288.67 120.00 277.33 120.00 266.00
C 134.20 269.48 148.79 271.45 163.00 275.00 Z"/>
</g>
<g fill="None" fill-opacity="0.0" stroke="#000000" stroke-opacity="0.01" stroke-width="0.3"><path d="
M 329.00 512.00 
L 512.00 512.00
L 512.00 0.00
L 318.00 0.00
C 337.68 3.13 354.70 16.47 355.22 38.78 C 355.74 61.08 356.45 89.81 356.00 113.00
C 408.29 123.70 420.99 200.70 377.00 230.00
C 439.31 255.51 473.02 327.95 460.98 391.98 C 448.93 456.01 392.74 505.37 329.00 512.00
M 471.00 63.00 
C 482.61 60.85 492.77 65.83 495.80 77.25 C 498.83 88.66 485.97 100.72 476.75 109.75 C 467.53 118.78 456.19 130.41 442.75 121.25 C 429.32 112.08 433.73 94.48 444.75 86.75 C 455.78 79.02 460.20 65.00 471.00 63.00
M 453.00 156.00 
C 461.50 154.27 483.24 156.95 492.22 156.78 C 501.20 156.61 507.24 162.85 509.57 170.77 C 511.91 178.68 507.35 191.33 496.32 194.32 C 485.29 197.31 466.47 196.10 454.93 195.07 C 443.38 194.05 437.72 182.24 438.33 174.33 C 438.95 166.41 445.03 157.63 453.00 156.00
M 451.00 226.00 
C 463.19 224.92 470.36 235.84 480.75 246.25 C 491.15 256.66 500.55 262.16 495.20 276.25 C 489.85 290.34 467.75 292.26 459.25 279.75 C 450.75 267.24 436.85 262.56 434.36 251.30 C 431.87 240.03 439.70 227.00 451.00 226.00 Z"/>
</g>
<g fill="None" fill-opacity="0.0" stroke="#D22E2E" stroke-opacity="1.00" stroke-width="0.3"><path d="
M 344.00 219.00 
C 343.30 189.10 344.93 154.42 344.00 125.00 C 343.07 95.58 346.26 59.43 342.93 32.07 C 339.59 4.72 292.45 4.60 288.98 31.98 C 285.50 59.35 289.08 95.58 288.00 125.00 C 286.92 154.42 288.81 189.10 288.00 219.00
C 306.15 215.16 325.86 215.16 344.00 219.00 Z"/>
</g>
<g fill="None" fill-opacity="0.0" stroke="#EBEEF0" stroke-opacity="1.00" stroke-width="0.3"><path d="
M 206.00 265.00 
C 209.07 261.40 212.45 258.03 216.00 255.00
C 233.41 239.60 253.60 227.19 276.00 222.00
C 276.00 163.67 276.00 105.33 276.00 47.00
C 220.32 78.79 157.24 92.51 94.00 101.00
C 94.00 151.00 94.00 201.00 94.00 251.00
C 130.17 255.14 165.40 263.09 200.00 273.00
C 201.25 269.93 203.83 267.54 206.00 265.00 Z"/>
</g>
<g fill="None" fill-opacity="0.0" stroke="#000000" stroke-opacity="1.00" stroke-width="0.3"><path d="
M 471.00 63.00 
C 460.20 65.00 455.78 79.02 444.75 86.75 C 433.73 94.48 429.32 112.08 442.75 121.25 C 456.19 130.41 467.53 118.78 476.75 109.75 C 485.97 100.72 498.83 88.66 495.80 77.25 C 492.77 65.83 482.61 60.85 471.00 63.00
M 447.00 101.00 
C 449.17 96.32 455.61 91.90 459.25 88.25 C 462.89 84.60 467.38 78.14 472.00 76.00
C 483.53 70.67 487.37 83.77 480.25 90.25 C 473.13 96.72 468.65 100.15 462.75 107.75 C 456.85 115.35 441.33 113.26 447.00 101.00 Z"/>
</g>
<g fill="None" fill-opacity="0.0" stroke="#FBBE06" stroke-opacity="1.00" stroke-width="0.3"><path d="
M 472.00 76.00 
C 467.88 78.27 463.23 85.28 459.75 88.75 C 456.27 92.22 449.24 96.94 447.00 101.00
C 441.33 113.26 456.85 115.35 462.75 107.75 C 468.65 100.15 473.13 96.72 480.25 90.25 C 487.37 83.77 483.53 70.67 472.00 76.00 Z"/>
</g>
<g fill="None" fill-opacity="0.0" stroke="#846403" stroke-opacity="1.00" stroke-width="0.3"><path d="
M 447.00 101.00 
C 449.24 96.94 456.27 92.22 459.75 88.75 C 463.23 85.28 467.88 78.27 472.00 76.00
C 467.38 78.14 462.89 84.60 459.25 88.25 C 455.61 91.90 449.17 96.32 447.00 101.00 Z"/>
</g>
<g fill="None" fill-opacity="0.0" stroke="#D22E2E" stroke-opacity="1.00" stroke-width="0.3"><path d="
M 82.00 102.00 
C 60.81 101.39 39.27 99.88 23.75 115.75 C 8.24 131.63 11.99 154.91 12.00 176.00 C 12.01 197.09 8.22 220.40 23.75 236.25 C 39.28 252.09 60.84 250.64 82.00 250.00
C 82.00 200.67 82.00 151.33 82.00 102.00 Z"/>
</g>
<g fill="None" fill-opacity="0.0" stroke="#EAEDEE" stroke-opacity="1.00" stroke-width="0.3"><path d="
M 356.00 222.00 
C 371.28 226.56 380.76 211.37 387.70 198.69 C 394.63 186.02 394.18 164.79 386.92 152.08 C 379.67 139.36 370.66 128.52 356.00 125.00
C 356.00 157.33 356.00 189.67 356.00 222.00 Z"/>
</g>
<g fill="None" fill-opacity="0.0" stroke="#000000" stroke-opacity="0.99" stroke-width="0.3"><path d="
M 453.00 156.00 
C 445.03 157.63 438.95 166.41 438.33 174.33 C 437.72 182.24 443.38 194.05 454.93 195.07 C 466.47 196.10 485.29 197.31 496.32 194.32 C 507.35 191.33 511.91 178.68 509.57 170.77 C 507.24 162.85 501.20 156.61 492.22 156.78 C 483.24 156.95 461.50 154.27 453.00 156.00
M 493.00 168.00 
C 502.47 171.28 497.20 186.86 487.00 184.00 C 476.80 181.14 465.43 186.79 455.33 183.67 C 445.23 180.55 450.98 165.01 461.00 168.00 C 471.02 170.99 483.22 164.61 493.00 168.00 Z"/>
</g>
<g fill="None" fill-opacity="0.0" stroke="#FBBE06" stroke-opacity="1.00" stroke-width="0.3"><path d="
M 493.00 168.00 
C 483.22 164.61 471.02 170.99 461.00 168.00 C 450.98 165.01 445.23 180.55 455.33 183.67 C 465.43 186.79 476.80 181.14 487.00 184.00 C 497.20 186.86 502.47 171.28 493.00 168.00 Z"/>
</g>
<g fill="None" fill-opacity="0.0" stroke="#000000" stroke-opacity="0.01" stroke-width="0.3"><path d="
M 0.00 512.00 
L 308.00 512.00
C 258.07 507.95 213.30 481.41 187.75 436.25 C 162.21 391.08 162.02 327.00 192.00 283.00
C 186.53 280.63 180.57 279.93 175.00 278.00
C 178.38 289.88 174.80 304.37 162.22 309.22 C 149.65 314.08 133.79 311.24 120.00 312.00
C 119.56 322.59 120.58 335.66 120.00 346.00 C 119.42 356.34 122.19 367.19 116.75 375.75 C 111.31 384.31 101.25 384.33 92.00 384.00 C 82.75 383.67 71.11 386.09 63.25 379.75 C 55.38 373.41 55.82 363.99 56.00 354.00 C 56.18 344.01 56.00 330.21 56.00 320.00 C 56.00 309.79 56.19 296.77 56.00 287.00 C 55.81 277.23 59.42 261.15 49.00 261.00 C 38.58 260.84 33.04 256.24 25.08 251.92 C 17.13 247.60 13.83 242.17 8.75 235.25 C 3.68 228.32 1.53 218.98 0.00 211.00
L 0.00 512.00 Z"/>
</g>
<g fill="None" fill-opacity="0.0" stroke="#000000" stroke-opacity="0.99" stroke-width="0.3"><path d="
M 451.00 226.00 
C 439.70 227.00 431.87 240.03 434.36 251.30 C 436.85 262.56 450.75 267.24 459.25 279.75 C 467.75 292.26 489.85 290.34 495.20 276.25 C 500.55 262.16 491.15 256.66 480.75 246.25 C 470.36 235.84 463.19 224.92 451.00 226.00
M 472.00 276.00 
C 467.32 273.83 462.90 267.39 459.25 263.75 C 455.59 260.11 449.14 255.62 447.00 251.00
C 441.61 239.35 456.22 236.53 462.25 243.75 C 468.27 250.98 472.07 254.61 479.25 260.75 C 486.43 266.90 484.44 281.75 472.00 276.00 Z"/>
</g>
<g fill="None" fill-opacity="0.0" stroke="#36464E" stroke-opacity="1.00" stroke-width="0.3"><path d="
M 329.00 228.00 
C 255.62 220.90 186.67 277.46 180.00 351.00 C 173.33 424.54 230.09 493.00 303.98 499.02 C 377.86 505.05 444.76 449.97 451.01 376.01 C 457.25 302.05 402.38 235.10 329.00 228.00
M 321.00 251.00 
C 340.35 255.01 346.62 276.22 361.75 289.25 C 376.88 302.27 396.98 303.83 414.25 316.75 C 431.51 329.67 423.13 353.32 410.08 370.08 C 397.02 386.83 393.94 409.22 393.22 433.22 C 392.50 457.23 366.81 465.47 345.33 456.67 C 323.85 447.87 301.79 450.22 279.32 458.32 C 256.86 466.43 235.75 448.87 237.67 425.33 C 239.59 401.79 232.09 380.92 218.70 364.30 C 205.31 347.69 203.39 322.30 223.23 313.23 C 243.07 304.16 260.41 298.74 274.75 284.75 C 289.09 270.77 298.53 246.35 321.00 251.00 Z"/>
</g>
<g fill="None" fill-opacity="0.0" stroke="#FCBF06" stroke-opacity="1.00" stroke-width="0.3"><path d="
M 447.00 251.00 
C 449.27 255.12 456.28 259.77 459.75 263.25 C 463.22 266.73 467.94 273.76 472.00 276.00
C 484.44 281.75 486.43 266.90 479.25 260.75 C 472.07 254.61 468.27 250.98 462.25 243.75 C 456.22 236.53 441.61 239.35 447.00 251.00 Z"/>
</g>
<g fill="None" fill-opacity="0.0" stroke="#000000" stroke-opacity="1.00" stroke-width="0.3"><path d="
M 321.00 251.00 
C 298.53 246.35 289.09 270.77 274.75 284.75 C 260.41 298.74 243.07 304.16 223.23 313.23 C 203.39 322.30 205.31 347.69 218.70 364.30 C 232.09 380.92 239.59 401.79 237.67 425.33 C 235.75 448.87 256.86 466.43 279.32 458.32 C 301.79 450.22 323.85 447.87 345.33 456.67 C 366.81 465.47 392.50 457.23 393.22 433.22 C 393.94 409.22 397.02 386.83 410.08 370.08 C 423.13 353.32 431.51 329.67 414.25 316.75 C 396.98 303.83 376.88 302.27 361.75 289.25 C 346.62 276.22 340.35 255.01 321.00 251.00
M 310.00 265.00 
C 309.33 291.50 311.33 319.32 309.00 345.00
C 304.93 337.61 298.34 331.04 294.08 323.92 C 289.82 316.80 282.60 310.31 278.75 303.25 C 274.91 296.19 287.37 289.81 291.75 283.75 C 296.13 277.70 303.49 269.08 310.00 265.00
M 355.00 299.00 
C 345.96 315.11 332.94 329.27 323.00 345.00
C 320.67 319.24 322.67 291.52 322.00 265.00
C 334.80 273.81 342.81 289.00 355.00 299.00
M 267.00 307.00 
C 277.45 322.20 289.20 336.46 299.00 352.00
C 273.76 344.93 249.01 335.99 224.00 328.00
C 236.51 318.29 253.00 314.62 267.00 307.00
M 409.00 328.00 
C 383.55 335.54 358.63 344.99 333.00 352.00
C 342.68 336.61 354.43 322.04 365.00 307.00
C 379.40 314.52 395.74 318.97 409.00 328.00
M 296.00 364.00 
C 288.26 366.27 280.02 371.37 271.78 372.78 C 263.53 374.18 253.92 379.96 245.93 380.93 C 237.93 381.89 236.08 367.69 231.69 362.31 C 227.31 356.92 222.07 346.79 220.00 340.00
C 245.64 346.87 270.57 356.27 296.00 364.00
M 412.00 340.00 
C 409.64 346.54 405.20 356.38 400.75 361.75 C 396.30 367.11 394.02 381.66 386.00 381.00 C 377.97 380.33 369.55 374.22 361.32 372.68 C 353.09 371.13 343.64 366.82 336.00 364.00
C 361.44 356.42 386.36 346.96 412.00 340.00
M 300.00 376.00 
C 284.38 397.76 268.57 419.25 253.00 441.00
C 248.64 426.14 248.21 409.12 247.00 393.00
C 264.68 387.43 282.20 381.29 300.00 376.00
M 385.00 393.00 
C 383.57 409.03 383.54 426.24 379.00 441.00
C 363.47 419.18 347.41 397.85 332.00 376.00
C 349.85 380.99 367.24 387.58 385.00 393.00
M 310.00 383.00 
C 310.00 402.00 310.00 421.00 310.00 440.00
C 293.99 441.59 278.92 446.92 263.00 449.00
C 277.01 426.28 294.46 404.75 310.00 383.00
M 369.00 449.00 
C 353.22 446.17 337.50 442.94 322.00 439.00
C 322.00 420.33 322.00 401.67 322.00 383.00
C 337.52 404.85 354.90 426.32 369.00 449.00 Z"/>
</g>
<g fill="None" fill-opacity="0.0" stroke="#896803" stroke-opacity="1.00" stroke-width="0.3"><path d="
M 472.00 276.00 
C 467.94 273.76 463.22 266.73 459.75 263.25 C 456.28 259.77 449.27 255.12 447.00 251.00
C 449.14 255.62 455.59 260.11 459.25 263.75 C 462.90 267.39 467.32 273.83 472.00 276.00 Z"/>
</g>
<g fill="None" fill-opacity="0.0" stroke="#666869" stroke-opacity="1.00" stroke-width="0.3"><path d="
M 206.00 265.00 
C 209.21 261.79 212.75 258.25 216.00 255.00
C 212.45 258.03 209.07 261.40 206.00 265.00 Z"/>
</g>
<g fill="None" fill-opacity="0.0" stroke="#36464E" stroke-opacity="1.00" stroke-width="0.3"><path d="
M 108.00 265.00 
C 95.15 261.99 81.68 261.65 68.00 262.00
C 67.67 273.21 68.44 283.72 68.00 295.00 C 67.56 306.28 68.87 315.34 68.00 327.00 C 67.13 338.66 69.87 346.29 68.00 359.00 C 66.13 371.71 76.22 372.59 87.00 372.00 C 97.78 371.41 109.02 373.84 108.00 361.00 C 106.98 348.16 108.48 340.68 108.00 329.00 C 107.52 317.32 108.25 308.19 108.00 297.00 C 107.75 285.81 108.19 276.06 108.00 265.00 Z"/>
</g>
<g fill="None" fill-opacity="0.0" stroke="#FCBF06" stroke-opacity="1.00" stroke-width="0.3"><path d="
M 310.00 265.00 
C 303.49 269.08 296.13 277.70 291.75 283.75 C 287.37 289.81 274.91 296.19 278.75 303.25 C 282.60 310.31 289.82 316.80 294.08 323.92 C 298.34 331.04 304.93 337.61 309.00 345.00
C 311.33 319.32 309.33 291.50 310.00 265.00 Z"/>
</g>
<g fill="None" fill-opacity="0.0" stroke="#FC9E00" stroke-opacity="1.00" stroke-width="0.3"><path d="
M 355.00 299.00 
C 342.81 289.00 334.80 273.81 322.00 265.00
C 322.67 291.52 320.67 319.24 323.00 345.00
C 332.94 329.27 345.96 315.11 355.00 299.00 Z"/>
</g>
<g fill="None" fill-opacity="0.0" stroke="#000000" stroke-opacity="0.02" stroke-width="0.3"><path d="
M 163.00 275.00 
C 148.79 271.45 134.20 269.48 120.00 266.00
C 120.00 277.33 120.00 288.67 120.00 300.00
C 131.88 298.95 144.08 301.43 155.92 299.92 C 167.77 298.42 165.12 282.65 163.00 275.00 Z"/>
</g>
<g fill="None" fill-opacity="0.0" stroke="#FA9D00" stroke-opacity="1.00" stroke-width="0.3"><path d="
M 267.00 307.00 
C 253.00 314.62 236.51 318.29 224.00 328.00
C 249.01 335.99 273.76 344.93 299.00 352.00
C 289.20 336.46 277.45 322.20 267.00 307.00 Z"/>
</g>
<g fill="None" fill-opacity="0.0" stroke="#FABD06" stroke-opacity="1.00" stroke-width="0.3"><path d="
M 409.00 328.00 
C 395.74 318.97 379.40 314.52 365.00 307.00
C 354.43 322.04 342.68 336.61 333.00 352.00
C 358.63 344.99 383.55 335.54 409.00 328.00 Z"/>
</g>
<g fill="None" fill-opacity="0.0" stroke="#FABD06" stroke-opacity="1.00" stroke-width="0.3"><path d="
M 296.00 364.00 
C 270.57 356.27 245.64 346.87 220.00 340.00
C 222.07 346.79 227.31 356.92 231.69 362.31 C 236.08 367.69 237.93 381.89 245.93 380.93 C 253.92 379.96 263.53 374.18 271.78 372.78 C 280.02 371.37 288.26 366.27 296.00 364.00 Z"/>
</g>
<g fill="None" fill-opacity="0.0" stroke="#FA9D00" stroke-opacity="1.00" stroke-width="0.3"><path d="
M 412.00 340.00 
C 386.36 346.96 361.44 356.42 336.00 364.00
C 343.64 366.82 353.09 371.13 361.32 372.68 C 369.55 374.22 377.97 380.33 386.00 381.00 C 394.02 381.66 396.30 367.11 400.75 361.75 C 405.20 356.38 409.64 346.54 412.00 340.00 Z"/>
</g>
<g fill="None" fill-opacity="0.0" stroke="#FA9D00" stroke-opacity="1.00" stroke-width="0.3"><path d="
M 300.00 376.00 
C 282.20 381.29 264.68 387.43 247.00 393.00
C 248.21 409.12 248.64 426.14 253.00 441.00
C 268.57 419.25 284.38 397.76 300.00 376.00 Z"/>
</g>
<g fill="None" fill-opacity="0.0" stroke="#FABD06" stroke-opacity="1.00" stroke-width="0.3"><path d="
M 385.00 393.00 
C 367.24 387.58 349.85 380.99 332.00 376.00
C 347.41 397.85 363.47 419.18 379.00 441.00
C 383.54 426.24 383.57 409.03 385.00 393.00 Z"/>
</g>
<g fill="None" fill-opacity="0.0" stroke="#FBBE06" stroke-opacity="1.00" stroke-width="0.3"><path d="
M 310.00 383.00 
C 294.46 404.75 277.01 426.28 263.00 449.00
C 278.92 446.92 293.99 441.59 310.00 440.00
C 310.00 421.00 310.00 402.00 310.00 383.00 Z"/>
</g>
<g fill="None" fill-opacity="0.0" stroke="#FC9E00" stroke-opacity="1.00" stroke-width="0.3"><path d="
M 369.00 449.00 
C 354.90 426.32 337.52 404.85 322.00 383.00
C 322.00 401.67 322.00 420.33 322.00 439.00
C 337.50 442.94 353.22 446.17 369.00 449.00 Z"/>
</g>
<g fill="#000000" fill-opacity="0.01" stroke="None">
<path d="
M 0.00 141.00 
C 2.71 124.52 9.35 110.72 24.25 100.25 C 39.15 89.77 60.37 89.42 79.00 90.00 C 97.63 90.58 119.18 85.92 136.67 82.67 C 154.16 79.42 172.80 74.82 189.07 70.07 C 205.34 65.33 223.08 60.66 237.23 53.23 C 251.38 45.80 269.92 42.95 277.97 28.97 C 286.02 15.00 295.58 0.01 314.00 0.00
L 0.00 0.00
L 0.00 141.00 Z"/>
</g>
<g fill="#000000" fill-opacity="1.00" stroke="None">
<path d="
M 0.00 141.00 
L 0.00 211.00
C 1.53 218.98 3.68 228.32 8.75 235.25 C 13.83 242.17 17.13 247.60 25.08 251.92 C 33.04 256.24 38.58 260.84 49.00 261.00 C 59.42 261.15 55.81 277.23 56.00 287.00 C 56.19 296.77 56.00 309.79 56.00 320.00 C 56.00 330.21 56.18 344.01 56.00 354.00 C 55.82 363.99 55.38 373.41 63.25 379.75 C 71.11 386.09 82.75 383.67 92.00 384.00 C 101.25 384.33 111.31 384.31 116.75 375.75 C 122.19 367.19 119.42 356.34 120.00 346.00 C 120.58 335.66 119.56 322.59 120.00 312.00
C 133.79 311.24 149.65 314.08 162.22 309.22 C 174.80 304.37 178.38 289.88 175.00 278.00
C 180.57 279.93 186.53 280.63 192.00 283.00
C 162.02 327.00 162.21 391.08 187.75 436.25 C 213.30 481.41 258.07 507.95 308.00 512.00
L 329.00 512.00
C 392.74 505.37 448.93 456.01 460.98 391.98 C 473.02 327.95 439.31 255.51 377.00 230.00
C 420.99 200.70 408.29 123.70 356.00 113.00
C 356.45 89.81 355.74 61.08 355.22 38.78 C 354.70 16.47 337.68 3.13 318.00 0.00
L 314.00 0.00
C 295.58 0.01 286.02 15.00 277.97 28.97 C 269.92 42.95 251.38 45.80 237.23 53.23 C 223.08 60.66 205.34 65.33 189.07 70.07 C 172.80 74.82 154.16 79.42 136.67 82.67 C 119.18 85.92 97.63 90.58 79.00 90.00 C 60.37 89.42 39.15 89.77 24.25 100.25 C 9.35 110.72 2.71 124.52 0.00 141.00
M 344.00 219.00 
C 325.86 215.16 306.15 215.16 288.00 219.00
C 288.81 189.10 286.92 154.42 288.00 125.00 C 289.08 95.58 285.50 59.35 288.98 31.98 C 292.45 4.60 339.59 4.72 342.93 32.07 C 346.26 59.43 343.07 95.58 344.00 125.00 C 344.93 154.42 343.30 189.10 344.00 219.00
M 216.00 255.00 
C 212.75 258.25 209.21 261.79 206.00 265.00
C 203.83 267.54 201.25 269.93 200.00 273.00
C 165.40 263.09 130.17 255.14 94.00 251.00
C 94.00 201.00 94.00 151.00 94.00 101.00
C 157.24 92.51 220.32 78.79 276.00 47.00
C 276.00 105.33 276.00 163.67 276.00 222.00
C 253.60 227.19 233.41 239.60 216.00 255.00
M 82.00 102.00 
C 82.00 151.33 82.00 200.67 82.00 250.00
C 60.84 250.64 39.28 252.09 23.75 236.25 C 8.22 220.40 12.01 197.09 12.00 176.00 C 11.99 154.91 8.24 131.63 23.75 115.75 C 39.27 99.88 60.81 101.39 82.00 102.00
M 356.00 222.00 
C 356.00 189.67 356.00 157.33 356.00 125.00
C 370.66 128.52 379.67 139.36 386.92 152.08 C 394.18 164.79 394.63 186.02 387.70 198.69 C 380.76 211.37 371.28 226.56 356.00 222.00
M 329.00 228.00 
C 402.38 235.10 457.25 302.05 451.01 376.01 C 444.76 449.97 377.86 505.05 303.98 499.02 C 230.09 493.00 173.33 424.54 180.00 351.00 C 186.67 277.46 255.62 220.90 329.00 228.00
M 108.00 265.00 
C 108.19 276.06 107.75 285.81 108.00 297.00 C 108.25 308.19 107.52 317.32 108.00 329.00 C 108.48 340.68 106.98 348.16 108.00 361.00 C 109.02 373.84 97.78 371.41 87.00 372.00 C 76.22 372.59 66.13 371.71 68.00 359.00 C 69.87 346.29 67.13 338.66 68.00 327.00 C 68.87 315.34 67.56 306.28 68.00 295.00 C 68.44 283.72 67.67 273.21 68.00 262.00
C 81.68 261.65 95.15 261.99 108.00 265.00
M 163.00 275.00 
C 165.12 282.65 167.77 298.42 155.92 299.92 C 144.08 301.43 131.88 298.95 120.00 300.00
C 120.00 288.67 120.00 277.33 120.00 266.00
C 134.20 269.48 148.79 271.45 163.00 275.00 Z"/>
</g>
<g fill="#000000" fill-opacity="0.01" stroke="None">
<path d="
M 329.00 512.00 
L 512.00 512.00
L 512.00 0.00
L 318.00 0.00
C 337.68 3.13 354.70 16.47 355.22 38.78 C 355.74 61.08 356.45 89.81 356.00 113.00
C 408.29 123.70 420.99 200.70 377.00 230.00
C 439.31 255.51 473.02 327.95 460.98 391.98 C 448.93 456.01 392.74 505.37 329.00 512.00
M 471.00 63.00 
C 482.61 60.85 492.77 65.83 495.80 77.25 C 498.83 88.66 485.97 100.72 476.75 109.75 C 467.53 118.78 456.19 130.41 442.75 121.25 C 429.32 112.08 433.73 94.48 444.75 86.75 C 455.78 79.02 460.20 65.00 471.00 63.00
M 453.00 156.00 
C 461.50 154.27 483.24 156.95 492.22 156.78 C 501.20 156.61 507.24 162.85 509.57 170.77 C 511.91 178.68 507.35 191.33 496.32 194.32 C 485.29 197.31 466.47 196.10 454.93 195.07 C 443.38 194.05 437.72 182.24 438.33 174.33 C 438.95 166.41 445.03 157.63 453.00 156.00
M 451.00 226.00 
C 463.19 224.92 470.36 235.84 480.75 246.25 C 491.15 256.66 500.55 262.16 495.20 276.25 C 489.85 290.34 467.75 292.26 459.25 279.75 C 450.75 267.24 436.85 262.56 434.36 251.30 C 431.87 240.03 439.70 227.00 451.00 226.00 Z"/>
</g>
<g fill="#D22E2E" fill-opacity="1.00" stroke="None">
<path d="
M 344.00 219.00 
C 343.30 189.10 344.93 154.42 344.00 125.00 C 343.07 95.58 346.26 59.43 342.93 32.07 C 339.59 4.72 292.45 4.60 288.98 31.98 C 285.50 59.35 289.08 95.58 288.00 125.00 C 286.92 154.42 288.81 189.10 288.00 219.00
C 306.15 215.16 325.86 215.16 344.00 219.00 Z"/>
</g>
<g fill="#EBEEF0" fill-opacity="1.00" stroke="None">
<path d="
M 206.00 265.00 
C 209.07 261.40 212.45 258.03 216.00 255.00
C 233.41 239.60 253.60 227.19 276.00 222.00
C 276.00 163.67 276.00 105.33 276.00 47.00
C 220.32 78.79 157.24 92.51 94.00 101.00
C 94.00 151.00 94.00 201.00 94.00 251.00
C 130.17 255.14 165.40 263.09 200.00 273.00
C 201.25 269.93 203.83 267.54 206.00 265.00 Z"/>
</g>
<g fill="#000000" fill-opacity="1.00" stroke="None">
<path d="
M 471.00 63.00 
C 460.20 65.00 455.78 79.02 444.75 86.75 C 433.73 94.48 429.32 112.08 442.75 121.25 C 456.19 130.41 467.53 118.78 476.75 109.75 C 485.97 100.72 498.83 88.66 495.80 77.25 C 492.77 65.83 482.61 60.85 471.00 63.00
M 447.00 101.00 
C 449.17 96.32 455.61 91.90 459.25 88.25 C 462.89 84.60 467.38 78.14 472.00 76.00
C 483.53 70.67 487.37 83.77 480.25 90.25 C 473.13 96.72 468.65 100.15 462.75 107.75 C 456.85 115.35 441.33 113.26 447.00 101.00 Z"/>
</g>
<g fill="#FBBE06" fill-opacity="1.00" stroke="None">
<path d="
M 472.00 76.00 
C 467.88 78.27 463.23 85.28 459.75 88.75 C 456.27 92.22 449.24 96.94 447.00 101.00
C 441.33 113.26 456.85 115.35 462.75 107.75 C 468.65 100.15 473.13 96.72 480.25 90.25 C 487.37 83.77 483.53 70.67 472.00 76.00 Z"/>
</g>
<g fill="#846403" fill-opacity="1.00" stroke="None">
<path d="
M 447.00 101.00 
C 449.24 96.94 456.27 92.22 459.75 88.75 C 463.23 85.28 467.88 78.27 472.00 76.00
C 467.38 78.14 462.89 84.60 459.25 88.25 C 455.61 91.90 449.17 96.32 447.00 101.00 Z"/>
</g>
<g fill="#D22E2E" fill-opacity="1.00" stroke="None">
<path d="
M 82.00 102.00 
C 60.81 101.39 39.27 99.88 23.75 115.75 C 8.24 131.63 11.99 154.91 12.00 176.00 C 12.01 197.09 8.22 220.40 23.75 236.25 C 39.28 252.09 60.84 250.64 82.00 250.00
C 82.00 200.67 82.00 151.33 82.00 102.00 Z"/>
</g>
<g fill="#EAEDEE" fill-opacity="1.00" stroke="None">
<path d="
M 356.00 222.00 
C 371.28 226.56 380.76 211.37 387.70 198.69 C 394.63 186.02 394.18 164.79 386.92 152.08 C 379.67 139.36 370.66 128.52 356.00 125.00
C 356.00 157.33 356.00 189.67 356.00 222.00 Z"/>
</g>
<g fill="#000000" fill-opacity="0.99" stroke="None">
<path d="
M 453.00 156.00 
C 445.03 157.63 438.95 166.41 438.33 174.33 C 437.72 182.24 443.38 194.05 454.93 195.07 C 466.47 196.10 485.29 197.31 496.32 194.32 C 507.35 191.33 511.91 178.68 509.57 170.77 C 507.24 162.85 501.20 156.61 492.22 156.78 C 483.24 156.95 461.50 154.27 453.00 156.00
M 493.00 168.00 
C 502.47 171.28 497.20 186.86 487.00 184.00 C 476.80 181.14 465.43 186.79 455.33 183.67 C 445.23 180.55 450.98 165.01 461.00 168.00 C 471.02 170.99 483.22 164.61 493.00 168.00 Z"/>
</g>
<g fill="#FBBE06" fill-opacity="1.00" stroke="None">
<path d="
M 493.00 168.00 
C 483.22 164.61 471.02 170.99 461.00 168.00 C 450.98 165.01 445.23 180.55 455.33 183.67 C 465.43 186.79 476.80 181.14 487.00 184.00 C 497.20 186.86 502.47 171.28 493.00 168.00 Z"/>
</g>
<g fill="#000000" fill-opacity="0.01" stroke="None">
<path d="
M 0.00 512.00 
L 308.00 512.00
C 258.07 507.95 213.30 481.41 187.75 436.25 C 162.21 391.08 162.02 327.00 192.00 283.00
C 186.53 280.63 180.57 279.93 175.00 278.00
C 178.38 289.88 174.80 304.37 162.22 309.22 C 149.65 314.08 133.79 311.24 120.00 312.00
C 119.56 322.59 120.58 335.66 120.00 346.00 C 119.42 356.34 122.19 367.19 116.75 375.75 C 111.31 384.31 101.25 384.33 92.00 384.00 C 82.75 383.67 71.11 386.09 63.25 379.75 C 55.38 373.41 55.82 363.99 56.00 354.00 C 56.18 344.01 56.00 330.21 56.00 320.00 C 56.00 309.79 56.19 296.77 56.00 287.00 C 55.81 277.23 59.42 261.15 49.00 261.00 C 38.58 260.84 33.04 256.24 25.08 251.92 C 17.13 247.60 13.83 242.17 8.75 235.25 C 3.68 228.32 1.53 218.98 0.00 211.00
L 0.00 512.00 Z"/>
</g>
<g fill="#000000" fill-opacity="0.99" stroke="None">
<path d="
M 451.00 226.00 
C 439.70 227.00 431.87 240.03 434.36 251.30 C 436.85 262.56 450.75 267.24 459.25 279.75 C 467.75 292.26 489.85 290.34 495.20 276.25 C 500.55 262.16 491.15 256.66 480.75 246.25 C 470.36 235.84 463.19 224.92 451.00 226.00
M 472.00 276.00 
C 467.32 273.83 462.90 267.39 459.25 263.75 C 455.59 260.11 449.14 255.62 447.00 251.00
C 441.61 239.35 456.22 236.53 462.25 243.75 C 468.27 250.98 472.07 254.61 479.25 260.75 C 486.43 266.90 484.44 281.75 472.00 276.00 Z"/>
</g>
<g fill="#36464E" fill-opacity="1.00" stroke="None">
<path d="
M 329.00 228.00 
C 255.62 220.90 186.67 277.46 180.00 351.00 C 173.33 424.54 230.09 493.00 303.98 499.02 C 377.86 505.05 444.76 449.97 451.01 376.01 C 457.25 302.05 402.38 235.10 329.00 228.00
M 321.00 251.00 
C 340.35 255.01 346.62 276.22 361.75 289.25 C 376.88 302.27 396.98 303.83 414.25 316.75 C 431.51 329.67 423.13 353.32 410.08 370.08 C 397.02 386.83 393.94 409.22 393.22 433.22 C 392.50 457.23 366.81 465.47 345.33 456.67 C 323.85 447.87 301.79 450.22 279.32 458.32 C 256.86 466.43 235.75 448.87 237.67 425.33 C 239.59 401.79 232.09 380.92 218.70 364.30 C 205.31 347.69 203.39 322.30 223.23 313.23 C 243.07 304.16 260.41 298.74 274.75 284.75 C 289.09 270.77 298.53 246.35 321.00 251.00 Z"/>
</g>
<g fill="#FCBF06" fill-opacity="1.00" stroke="None">
<path d="
M 447.00 251.00 
C 449.27 255.12 456.28 259.77 459.75 263.25 C 463.22 266.73 467.94 273.76 472.00 276.00
C 484.44 281.75 486.43 266.90 479.25 260.75 C 472.07 254.61 468.27 250.98 462.25 243.75 C 456.22 236.53 441.61 239.35 447.00 251.00 Z"/>
</g>
<g fill="#000000" fill-opacity="1.00" stroke="None">
<path d="
M 321.00 251.00 
C 298.53 246.35 289.09 270.77 274.75 284.75 C 260.41 298.74 243.07 304.16 223.23 313.23 C 203.39 322.30 205.31 347.69 218.70 364.30 C 232.09 380.92 239.59 401.79 237.67 425.33 C 235.75 448.87 256.86 466.43 279.32 458.32 C 301.79 450.22 323.85 447.87 345.33 456.67 C 366.81 465.47 392.50 457.23 393.22 433.22 C 393.94 409.22 397.02 386.83 410.08 370.08 C 423.13 353.32 431.51 329.67 414.25 316.75 C 396.98 303.83 376.88 302.27 361.75 289.25 C 346.62 276.22 340.35 255.01 321.00 251.00
M 310.00 265.00 
C 309.33 291.50 311.33 319.32 309.00 345.00
C 304.93 337.61 298.34 331.04 294.08 323.92 C 289.82 316.80 282.60 310.31 278.75 303.25 C 274.91 296.19 287.37 289.81 291.75 283.75 C 296.13 277.70 303.49 269.08 310.00 265.00
M 355.00 299.00 
C 345.96 315.11 332.94 329.27 323.00 345.00
C 320.67 319.24 322.67 291.52 322.00 265.00
C 334.80 273.81 342.81 289.00 355.00 299.00
M 267.00 307.00 
C 277.45 322.20 289.20 336.46 299.00 352.00
C 273.76 344.93 249.01 335.99 224.00 328.00
C 236.51 318.29 253.00 314.62 267.00 307.00
M 409.00 328.00 
C 383.55 335.54 358.63 344.99 333.00 352.00
C 342.68 336.61 354.43 322.04 365.00 307.00
C 379.40 314.52 395.74 318.97 409.00 328.00
M 296.00 364.00 
C 288.26 366.27 280.02 371.37 271.78 372.78 C 263.53 374.18 253.92 379.96 245.93 380.93 C 237.93 381.89 236.08 367.69 231.69 362.31 C 227.31 356.92 222.07 346.79 220.00 340.00
C 245.64 346.87 270.57 356.27 296.00 364.00
M 412.00 340.00 
C 409.64 346.54 405.20 356.38 400.75 361.75 C 396.30 367.11 394.02 381.66 386.00 381.00 C 377.97 380.33 369.55 374.22 361.32 372.68 C 353.09 371.13 343.64 366.82 336.00 364.00
C 361.44 356.42 386.36 346.96 412.00 340.00
M 300.00 376.00 
C 284.38 397.76 268.57 419.25 253.00 441.00
C 248.64 426.14 248.21 409.12 247.00 393.00
C 264.68 387.43 282.20 381.29 300.00 376.00
M 385.00 393.00 
C 383.57 409.03 383.54 426.24 379.00 441.00
C 363.47 419.18 347.41 397.85 332.00 376.00
C 349.85 380.99 367.24 387.58 385.00 393.00
M 310.00 383.00 
C 310.00 402.00 310.00 421.00 310.00 440.00
C 293.99 441.59 278.92 446.92 263.00 449.00
C 277.01 426.28 294.46 404.75 310.00 383.00
M 369.00 449.00 
C 353.22 446.17 337.50 442.94 322.00 439.00
C 322.00 420.33 322.00 401.67 322.00 383.00
C 337.52 404.85 354.90 426.32 369.00 449.00 Z"/>
</g>
<g fill="#896803" fill-opacity="1.00" stroke="None">
<path d="
M 472.00 276.00 
C 467.94 273.76 463.22 266.73 459.75 263.25 C 456.28 259.77 449.27 255.12 447.00 251.00
C 449.14 255.62 455.59 260.11 459.25 263.75 C 462.90 267.39 467.32 273.83 472.00 276.00 Z"/>
</g>
<g fill="#666869" fill-opacity="1.00" stroke="None">
<path d="
M 206.00 265.00 
C 209.21 261.79 212.75 258.25 216.00 255.00
C 212.45 258.03 209.07 261.40 206.00 265.00 Z"/>
</g>
<g fill="#36464E" fill-opacity="1.00" stroke="None">
<path d="
M 108.00 265.00 
C 95.15 261.99 81.68 261.65 68.00 262.00
C 67.67 273.21 68.44 283.72 68.00 295.00 C 67.56 306.28 68.87 315.34 68.00 327.00 C 67.13 338.66 69.87 346.29 68.00 359.00 C 66.13 371.71 76.22 372.59 87.00 372.00 C 97.78 371.41 109.02 373.84 108.00 361.00 C 106.98 348.16 108.48 340.68 108.00 329.00 C 107.52 317.32 108.25 308.19 108.00 297.00 C 107.75 285.81 108.19 276.06 108.00 265.00 Z"/>
</g>
<g fill="#FCBF06" fill-opacity="1.00" stroke="None">
<path d="
M 310.00 265.00 
C 303.49 269.08 296.13 277.70 291.75 283.75 C 287.37 289.81 274.91 296.19 278.75 303.25 C 282.60 310.31 289.82 316.80 294.08 323.92 C 298.34 331.04 304.93 337.61 309.00 345.00
C 311.33 319.32 309.33 291.50 310.00 265.00 Z"/>
</g>
<g fill="#FC9E00" fill-opacity="1.00" stroke="None">
<path d="
M 355.00 299.00 
C 342.81 289.00 334.80 273.81 322.00 265.00
C 322.67 291.52 320.67 319.24 323.00 345.00
C 332.94 329.27 345.96 315.11 355.00 299.00 Z"/>
</g>
<g fill="#000000" fill-opacity="0.02" stroke="None">
<path d="
M 163.00 275.00 
C 148.79 271.45 134.20 269.48 120.00 266.00
C 120.00 277.33 120.00 288.67 120.00 300.00
C 131.88 298.95 144.08 301.43 155.92 299.92 C 167.77 298.42 165.12 282.65 163.00 275.00 Z"/>
</g>
<g fill="#FA9D00" fill-opacity="1.00" stroke="None">
<path d="
M 267.00 307.00 
C 253.00 314.62 236.51 318.29 224.00 328.00
C 249.01 335.99 273.76 344.93 299.00 352.00
C 289.20 336.46 277.45 322.20 267.00 307.00 Z"/>
</g>
<g fill="#FABD06" fill-opacity="1.00" stroke="None">
<path d="
M 409.00 328.00 
C 395.74 318.97 379.40 314.52 365.00 307.00
C 354.43 322.04 342.68 336.61 333.00 352.00
C 358.63 344.99 383.55 335.54 409.00 328.00 Z"/>
</g>
<g fill="#FABD06" fill-opacity="1.00" stroke="None">
<path d="
M 296.00 364.00 
C 270.57 356.27 245.64 346.87 220.00 340.00
C 222.07 346.79 227.31 356.92 231.69 362.31 C 236.08 367.69 237.93 381.89 245.93 380.93 C 253.92 379.96 263.53 374.18 271.78 372.78 C 280.02 371.37 288.26 366.27 296.00 364.00 Z"/>
</g>
<g fill="#FA9D00" fill-opacity="1.00" stroke="None">
<path d="
M 412.00 340.00 
C 386.36 346.96 361.44 356.42 336.00 364.00
C 343.64 366.82 353.09 371.13 361.32 372.68 C 369.55 374.22 377.97 380.33 386.00 381.00 C 394.02 381.66 396.30 367.11 400.75 361.75 C 405.20 356.38 409.64 346.54 412.00 340.00 Z"/>
</g>
<g fill="#FA9D00" fill-opacity="1.00" stroke="None">
<path d="
M 300.00 376.00 
C 282.20 381.29 264.68 387.43 247.00 393.00
C 248.21 409.12 248.64 426.14 253.00 441.00
C 268.57 419.25 284.38 397.76 300.00 376.00 Z"/>
</g>
<g fill="#FABD06" fill-opacity="1.00" stroke="None">
<path d="
M 385.00 393.00 
C 367.24 387.58 349.85 380.99 332.00 376.00
C 347.41 397.85 363.47 419.18 379.00 441.00
C 383.54 426.24 383.57 409.03 385.00 393.00 Z"/>
</g>
<g fill="#FBBE06" fill-opacity="1.00" stroke="None">
<path d="
M 310.00 383.00 
C 294.46 404.75 277.01 426.28 263.00 449.00
C 278.92 446.92 293.99 441.59 310.00 440.00
C 310.00 421.00 310.00 402.00 310.00 383.00 Z"/>
</g>
<g fill="#FC9E00" fill-opacity="1.00" stroke="None">
<path d="
M 369.00 449.00 
C 354.90 426.32 337.52 404.85 322.00 383.00
C 322.00 401.67 322.00 420.33 322.00 439.00
C 337.50 442.94 353.22 446.17 369.00 449.00 Z"/>
</g>
</svg>