<svg xmlns="http://www.w3.org/2000/svg" xmlns:v="https://svgstorm.com"
viewBox = "0 0 512 512"
width="512"
height="512">
<g fill="None" fill-opacity="0.0" stroke="#000000" stroke-opacity="0.00" stroke-width="0.3"><path d="
M 0.00 512.00 
L 512.00 512.00
L 512.00 0.00
L 0.00 0.00
L 0.00 512.00
M 373.00 98.00 
C 389.67 110.15 401.19 122.54 413.92 139.08 C 426.65 155.62 434.71 172.74 441.98 193.02 C 449.24 213.31 453.18 242.16 452.00 265.00 C 450.82 287.84 446.04 312.46 437.22 332.22 C 428.41 351.99 419.93 367.19 406.23 383.23 C 392.53 399.27 379.54 409.86 362.30 421.30 C 345.07 432.75 325.75 440.98 305.32 446.32 C 284.89 451.66 251.20 454.53 230.00 451.00 C 208.80 447.47 184.57 442.27 167.31 431.69 C 150.04 421.12 130.72 414.61 120.00 397.00
C 117.29 394.77 115.47 392.84 113.00 390.00
C 75.64 358.08 62.22 307.77 60.00 260.00 C 57.78 212.23 76.07 160.75 109.25 125.25 C 142.43 89.75 179.28 68.67 228.22 61.22 C 277.16 53.77 333.40 69.14 373.00 98.00 Z"/>
</g>
<g fill="None" fill-opacity="0.0" stroke="#FEB000" stroke-opacity="0.98" stroke-width="0.3"><path d="
M 113.00 390.00 
C 114.87 391.60 117.38 393.26 119.00 395.00
C 120.16 390.44 130.01 386.10 132.30 381.30 C 134.60 376.50 144.10 372.81 147.00 368.00
C 144.62 364.20 140.32 361.76 138.00 358.00
C 88.05 299.55 88.53 209.98 139.75 152.75 C 190.97 95.53 281.47 82.34 344.00 127.00
C 343.86 122.80 354.45 118.35 356.00 115.00
C 356.34 111.89 351.62 111.12 352.00 108.00
C 360.77 115.68 366.24 102.20 373.00 98.00
C 333.40 69.14 277.16 53.77 228.22 61.22 C 179.28 68.67 142.43 89.75 109.25 125.25 C 76.07 160.75 57.78 212.23 60.00 260.00 C 62.22 307.77 75.64 358.08 113.00 390.00
M 256.00 80.00 
C 253.72 81.54 248.21 81.72 246.00 80.00
C 248.28 78.46 253.79 78.28 256.00 80.00
M 272.00 80.00 
C 269.72 81.54 264.21 81.72 262.00 80.00
C 264.45 78.23 269.20 78.62 272.00 80.00
M 240.00 81.00 
C 237.48 81.91 232.48 84.30 230.00 82.00
C 232.29 80.17 237.54 78.74 240.00 81.00
M 288.00 83.00 
C 285.22 83.70 280.98 83.24 278.00 82.00
C 280.53 79.89 285.75 81.05 288.00 83.00
M 224.00 83.00 
C 222.21 85.33 217.08 86.01 215.00 84.00
C 217.82 83.75 221.89 81.42 224.00 83.00
M 303.00 86.00 
C 300.74 88.08 295.50 86.62 294.00 84.00
C 296.19 82.36 301.06 84.05 303.00 86.00
M 209.00 87.00 
C 205.88 87.67 201.68 91.18 199.00 89.00
C 201.56 87.79 206.35 84.59 209.00 87.00
M 319.00 91.00 
C 316.09 93.65 312.22 89.54 309.00 89.00
C 311.68 86.75 316.49 89.66 319.00 91.00
M 193.00 91.00 
C 192.22 94.50 187.05 94.97 184.00 96.00
C 184.78 92.50 189.95 92.03 193.00 91.00
M 334.00 98.00 
C 330.93 98.93 325.17 95.99 324.00 93.00
C 327.28 94.45 331.92 94.72 334.00 98.00
M 179.00 97.00 
C 178.41 100.88 173.12 101.77 170.00 103.00
C 171.01 99.71 175.70 97.91 179.00 97.00
M 347.00 106.00 
C 344.02 105.11 339.52 103.46 339.00 100.00
C 341.69 101.41 346.56 102.38 347.00 106.00
M 165.00 105.00 
C 164.24 108.56 159.29 110.40 156.00 111.00
C 158.07 107.99 161.51 105.80 165.00 105.00
M 151.00 114.00 
C 150.67 117.67 146.49 119.05 144.00 121.00
C 144.52 117.63 148.14 115.30 151.00 114.00
M 139.00 124.00 
C 138.30 127.01 135.04 130.37 132.00 131.00
C 133.89 128.38 136.35 125.76 139.00 124.00
M 128.00 136.00 
C 125.97 138.47 124.73 142.74 121.00 143.00
C 121.70 139.99 124.96 136.63 128.00 136.00
M 117.00 148.00 
C 116.40 151.17 113.87 155.03 111.00 156.00
C 111.31 152.62 114.25 149.77 117.00 148.00
M 108.00 161.00 
C 107.26 163.93 105.97 167.53 103.00 169.00
C 103.33 166.05 105.15 161.80 108.00 161.00
M 100.00 175.00 
C 99.56 178.19 98.25 183.12 95.00 184.00
C 95.68 180.69 97.07 176.94 100.00 175.00
M 89.00 198.00 
C 89.31 194.79 91.45 192.15 92.00 189.00
C 95.36 190.59 91.78 197.45 89.00 198.00
M 86.00 214.00 
C 83.65 211.31 86.19 207.03 87.00 204.00
C 89.78 206.82 86.17 210.76 86.00 214.00
M 82.00 229.00 
C 81.53 227.05 81.69 222.49 83.00 220.00
C 84.50 222.02 85.13 227.72 82.00 229.00
M 82.00 236.00 
C 82.70 239.27 80.57 241.77 81.00 245.00
C 79.73 243.13 78.51 236.28 82.00 236.00
M 80.00 261.00 
C 78.48 259.04 78.28 253.89 80.00 252.00
C 81.52 253.96 81.72 259.11 80.00 261.00
M 81.00 268.00 
C 81.55 270.64 83.33 274.86 81.00 277.00
C 79.48 275.04 79.28 269.89 81.00 268.00
M 84.00 293.00 
C 82.62 290.29 79.94 286.19 82.00 283.00
C 84.71 284.81 85.12 290.71 84.00 293.00
M 86.00 299.00 
C 86.87 302.40 88.69 305.45 89.00 309.00
C 85.13 308.71 84.15 301.41 86.00 299.00
M 94.00 324.00 
C 91.11 322.70 89.59 317.45 89.00 314.00
C 93.20 314.63 93.08 320.63 94.00 324.00
M 101.00 338.00 
C 97.12 337.41 96.23 332.12 95.00 329.00
C 98.88 329.59 99.77 334.88 101.00 338.00
M 109.00 352.00 
C 105.47 351.21 103.20 346.52 103.00 343.00
C 106.01 345.07 108.20 348.51 109.00 352.00
M 118.00 365.00 
C 114.81 364.10 110.21 359.28 112.00 356.00
C 115.19 357.96 116.68 361.81 118.00 365.00
M 128.00 377.00 
C 125.43 374.77 121.62 372.47 121.00 369.00
C 124.67 369.61 127.00 373.84 128.00 377.00 Z"/>
</g>
<g fill="None" fill-opacity="0.0" stroke="#CB7700" stroke-opacity="1.00" stroke-width="0.3"><path d="
M 256.00 80.00 
C 253.79 78.28 248.28 78.46 246.00 80.00
C 248.21 81.72 253.72 81.54 256.00 80.00 Z"/>
</g>
<g fill="None" fill-opacity="0.0" stroke="#D17D00" stroke-opacity="1.00" stroke-width="0.3"><path d="
M 272.00 80.00 
C 269.20 78.62 264.45 78.23 262.00 80.00
C 264.21 81.72 269.72 81.54 272.00 80.00 Z"/>
</g>
<g fill="None" fill-opacity="0.0" stroke="#D17E00" stroke-opacity="1.00" stroke-width="0.3"><path d="
M 240.00 81.00 
C 237.54 78.74 232.29 80.17 230.00 82.00
C 232.48 84.30 237.48 81.91 240.00 81.00 Z"/>
</g>
<g fill="None" fill-opacity="0.0" stroke="#CC7700" stroke-opacity="1.00" stroke-width="0.3"><path d="
M 288.00 83.00 
C 285.75 81.05 280.53 79.89 278.00 82.00
C 280.98 83.24 285.22 83.70 288.00 83.00 Z"/>
</g>
<g fill="None" fill-opacity="0.0" stroke="#CC7800" stroke-opacity="1.00" stroke-width="0.3"><path d="
M 224.00 83.00 
C 221.89 81.42 217.82 83.75 215.00 84.00
C 217.08 86.01 222.21 85.33 224.00 83.00 Z"/>
</g>
<g fill="None" fill-opacity="0.0" stroke="#D37E00" stroke-opacity="1.00" stroke-width="0.3"><path d="
M 303.00 86.00 
C 301.06 84.05 296.19 82.36 294.00 84.00
C 295.50 86.62 300.74 88.08 303.00 86.00 Z"/>
</g>
<g fill="None" fill-opacity="0.0" stroke="#CD7900" stroke-opacity="1.00" stroke-width="0.3"><path d="
M 209.00 87.00 
C 206.35 84.59 201.56 87.79 199.00 89.00
C 201.68 91.18 205.88 87.67 209.00 87.00 Z"/>
</g>
<g fill="None" fill-opacity="0.0" stroke="#CF7A00" stroke-opacity="1.00" stroke-width="0.3"><path d="
M 319.00 91.00 
C 316.49 89.66 311.68 86.75 309.00 89.00
C 312.22 89.54 316.09 93.65 319.00 91.00 Z"/>
</g>
<g fill="None" fill-opacity="0.0" stroke="#CD7A00" stroke-opacity="1.00" stroke-width="0.3"><path d="
M 193.00 91.00 
C 189.95 92.03 184.78 92.50 184.00 96.00
C 187.05 94.97 192.22 94.50 193.00 91.00 Z"/>
</g>
<g fill="None" fill-opacity="0.0" stroke="#D07B00" stroke-opacity="1.00" stroke-width="0.3"><path d="
M 334.00 98.00 
C 331.92 94.72 327.28 94.45 324.00 93.00
C 325.17 95.99 330.93 98.93 334.00 98.00 Z"/>
</g>
<g fill="None" fill-opacity="0.0" stroke="#CF7D00" stroke-opacity="1.00" stroke-width="0.3"><path d="
M 179.00 97.00 
C 175.70 97.91 171.01 99.71 170.00 103.00
C 173.12 101.77 178.41 100.88 179.00 97.00 Z"/>
</g>
<g fill="None" fill-opacity="0.0" stroke="#FE9300" stroke-opacity="0.98" stroke-width="0.3"><path d="
M 344.00 127.00 
C 379.91 152.65 402.51 187.82 409.78 231.22 C 417.05 274.62 403.57 326.41 372.70 359.70 C 341.82 392.98 300.63 411.81 255.00 412.00 C 209.37 412.19 170.08 390.08 138.00 358.00
C 140.32 361.76 144.62 364.20 147.00 368.00
C 144.10 372.81 134.60 376.50 132.30 381.30 C 130.01 386.10 120.16 390.44 119.00 395.00
C 119.51 395.55 119.64 396.41 120.00 397.00
C 130.72 414.61 150.04 421.12 167.31 431.69 C 184.57 442.27 208.80 447.47 230.00 451.00 C 251.20 454.53 284.89 451.66 305.32 446.32 C 325.75 440.98 345.07 432.75 362.30 421.30 C 379.54 409.86 392.53 399.27 406.23 383.23 C 419.93 367.19 428.41 351.99 437.22 332.22 C 446.04 312.46 450.82 287.84 452.00 265.00 C 453.18 242.16 449.24 213.31 441.98 193.02 C 434.71 172.74 426.65 155.62 413.92 139.08 C 401.19 122.54 389.67 110.15 373.00 98.00
C 366.24 102.20 360.77 115.68 352.00 108.00
C 351.62 111.12 356.34 111.89 356.00 115.00
C 354.45 118.35 343.86 122.80 344.00 127.00
M 373.00 125.00 
C 369.60 124.32 367.10 120.56 365.00 118.00
C 367.94 119.32 372.39 121.39 373.00 125.00
M 385.00 136.00 
C 381.60 135.32 379.10 131.56 377.00 129.00
C 380.11 127.65 384.11 133.19 385.00 136.00
M 395.00 148.00 
C 391.44 147.35 389.27 142.98 388.00 140.00
C 391.67 140.61 394.00 144.84 395.00 148.00
M 404.00 161.00 
C 401.35 159.05 398.97 156.05 398.00 153.00
C 401.47 153.52 403.84 157.75 404.00 161.00
M 412.00 175.00 
C 409.54 172.80 407.28 169.40 407.00 166.00
C 410.14 166.89 411.63 171.78 412.00 175.00
M 419.00 189.00 
C 416.21 186.99 414.97 183.19 414.00 180.00
C 417.79 180.48 418.26 185.88 419.00 189.00
M 422.00 195.00 
C 423.28 197.92 424.25 200.90 425.00 204.00
C 422.00 203.53 419.90 197.19 422.00 195.00
M 432.00 242.00 
C 431.30 245.27 433.43 247.77 433.00 251.00
C 429.70 250.80 430.55 243.73 432.00 242.00
M 432.00 267.00 
C 430.48 265.04 430.28 259.89 432.00 258.00
C 433.52 259.96 433.72 265.11 432.00 267.00
M 430.00 283.00 
C 427.23 280.63 430.84 277.05 430.00 274.00
C 433.88 274.44 431.68 281.23 430.00 283.00
M 140.00 388.00 
C 136.99 387.30 133.63 384.04 133.00 381.00
C 135.62 382.89 138.24 385.35 140.00 388.00
M 152.00 398.00 
C 148.62 397.69 145.77 394.75 144.00 392.00
C 147.40 391.90 150.83 395.47 152.00 398.00
M 166.00 407.00 
C 162.54 406.76 157.75 404.58 157.00 401.00
C 160.11 402.36 164.14 403.79 166.00 407.00
M 180.00 415.00 
C 176.61 414.82 172.72 413.11 171.00 410.00
C 174.19 410.44 179.12 411.75 180.00 415.00
M 194.00 421.00 
C 190.74 420.96 187.87 419.41 185.00 418.00
C 187.49 415.64 192.35 418.58 194.00 421.00
M 210.00 425.00 
C 208.25 428.10 200.76 424.96 200.00 422.00
C 203.53 422.22 206.72 423.78 210.00 425.00
M 307.00 425.00 
C 303.64 426.00 300.76 428.41 297.00 428.00
C 297.29 424.13 304.59 423.15 307.00 425.00
M 225.00 429.00 
C 222.48 430.89 216.80 429.66 215.00 427.00
C 217.86 426.06 222.56 427.13 225.00 429.00
M 291.00 429.00 
C 288.31 430.05 281.92 433.32 281.00 429.00
C 284.26 429.70 288.39 426.09 291.00 429.00
M 241.00 431.00 
C 238.55 432.77 233.80 432.38 231.00 431.00
C 233.28 429.46 238.79 429.28 241.00 431.00
M 259.00 432.00 
C 256.06 433.57 249.87 433.71 247.00 432.00
C 249.94 430.43 256.13 430.29 259.00 432.00 Z"/>
</g>
<g fill="None" fill-opacity="0.0" stroke="#FE8500" stroke-opacity="1.00" stroke-width="0.3"><path d="
M 138.00 358.00 
C 170.08 390.08 209.37 412.19 255.00 412.00 C 300.63 411.81 341.82 392.98 372.70 359.70 C 403.57 326.41 417.05 274.62 409.78 231.22 C 402.51 187.82 379.91 152.65 344.00 127.00
C 281.47 82.34 190.97 95.53 139.75 152.75 C 88.53 209.98 88.05 299.55 138.00 358.00
M 300.00 126.00 
C 338.82 137.62 371.80 170.90 385.00 209.00
C 402.33 259.02 391.13 315.31 353.25 353.25 C 315.36 391.19 258.91 402.30 209.00 385.00
C 170.94 371.81 137.60 338.77 126.00 300.00
C 110.98 249.83 121.11 196.30 158.75 158.75 C 196.39 121.20 249.80 110.97 300.00 126.00 Z"/>
</g>
<g fill="None" fill-opacity="0.0" stroke="#CD7800" stroke-opacity="1.00" stroke-width="0.3"><path d="
M 347.00 106.00 
C 346.56 102.38 341.69 101.41 339.00 100.00
C 339.52 103.46 344.02 105.11 347.00 106.00 Z"/>
</g>
<g fill="None" fill-opacity="0.0" stroke="#CE7B00" stroke-opacity="1.00" stroke-width="0.3"><path d="
M 165.00 105.00 
C 161.51 105.80 158.07 107.99 156.00 111.00
C 159.29 110.40 164.24 108.56 165.00 105.00 Z"/>
</g>
<g fill="None" fill-opacity="0.0" stroke="#CB7700" stroke-opacity="1.00" stroke-width="0.3"><path d="
M 151.00 114.00 
C 148.14 115.30 144.52 117.63 144.00 121.00
C 146.49 119.05 150.67 117.67 151.00 114.00 Z"/>
</g>
<g fill="None" fill-opacity="0.0" stroke="#CB7500" stroke-opacity="1.00" stroke-width="0.3"><path d="
M 373.00 125.00 
C 372.39 121.39 367.94 119.32 365.00 118.00
C 367.10 120.56 369.60 124.32 373.00 125.00 Z"/>
</g>
<g fill="None" fill-opacity="0.0" stroke="#FE9C00" stroke-opacity="1.00" stroke-width="0.3"><path d="
M 126.00 300.00 
C 127.48 294.67 137.57 290.99 140.75 285.75 C 143.93 280.51 151.16 276.27 155.25 271.25 C 159.33 266.23 165.26 261.67 169.75 256.75 C 174.25 251.84 179.57 247.11 184.25 242.25 C 188.93 237.38 193.98 232.59 198.75 227.75 C 203.52 222.92 208.44 218.06 213.25 213.25 C 218.06 208.44 222.92 203.52 227.75 198.75 C 232.59 193.98 237.38 188.93 242.25 184.25 C 247.11 179.56 251.84 174.25 256.75 169.75 C 261.66 165.25 266.24 159.34 271.25 155.25 C 276.26 151.16 280.52 143.94 285.75 140.75 C 290.98 137.56 294.74 127.46 300.00 126.00
C 249.80 110.97 196.39 121.20 158.75 158.75 C 121.11 196.30 110.98 249.83 126.00 300.00 Z"/>
</g>
<g fill="None" fill-opacity="0.0" stroke="#C77300" stroke-opacity="1.00" stroke-width="0.3"><path d="
M 139.00 124.00 
C 136.35 125.76 133.89 128.38 132.00 131.00
C 135.04 130.37 138.30 127.01 139.00 124.00 Z"/>
</g>
<g fill="None" fill-opacity="0.0" stroke="#FFB000" stroke-opacity="1.00" stroke-width="0.3"><path d="
M 126.00 300.00 
C 137.60 338.77 170.94 371.81 209.00 385.00
C 218.11 384.67 224.62 369.53 232.25 364.25 C 239.87 358.96 246.81 348.66 254.25 342.25 C 261.68 335.84 268.94 327.18 276.25 320.25 C 283.56 313.32 291.07 305.42 298.25 298.25 C 305.42 291.07 313.32 283.56 320.25 276.25 C 327.18 268.94 335.83 261.68 342.25 254.25 C 348.67 246.81 358.96 239.88 364.25 232.25 C 369.54 224.62 384.67 218.10 385.00 209.00
C 371.80 170.90 338.82 137.62 300.00 126.00
C 294.74 127.46 290.98 137.56 285.75 140.75 C 280.52 143.94 276.26 151.16 271.25 155.25 C 266.24 159.34 261.66 165.25 256.75 169.75 C 251.84 174.25 247.11 179.56 242.25 184.25 C 237.38 188.93 232.59 193.98 227.75 198.75 C 222.92 203.52 218.06 208.44 213.25 213.25 C 208.44 218.06 203.52 222.92 198.75 227.75 C 193.98 232.59 188.93 237.38 184.25 242.25 C 179.57 247.11 174.25 251.84 169.75 256.75 C 165.26 261.67 159.33 266.23 155.25 271.25 C 151.16 276.27 143.93 280.51 140.75 285.75 C 137.57 290.99 127.48 294.67 126.00 300.00 Z"/>
</g>
<g fill="None" fill-opacity="0.0" stroke="#D07900" stroke-opacity="1.00" stroke-width="0.3"><path d="
M 385.00 136.00 
C 384.11 133.19 380.11 127.65 377.00 129.00
C 379.10 131.56 381.60 135.32 385.00 136.00 Z"/>
</g>
<g fill="None" fill-opacity="0.0" stroke="#CB7700" stroke-opacity="1.00" stroke-width="0.3"><path d="
M 128.00 136.00 
C 124.96 136.63 121.70 139.99 121.00 143.00
C 124.73 142.74 125.97 138.47 128.00 136.00 Z"/>
</g>
<g fill="None" fill-opacity="0.0" stroke="#CF7800" stroke-opacity="1.00" stroke-width="0.3"><path d="
M 395.00 148.00 
C 394.00 144.84 391.67 140.61 388.00 140.00
C 389.27 142.98 391.44 147.35 395.00 148.00 Z"/>
</g>
<g fill="None" fill-opacity="0.0" stroke="#CC7800" stroke-opacity="1.00" stroke-width="0.3"><path d="
M 117.00 148.00 
C 114.25 149.77 111.31 152.62 111.00 156.00
C 113.87 155.03 116.40 151.17 117.00 148.00 Z"/>
</g>
<g fill="None" fill-opacity="0.0" stroke="#CC7600" stroke-opacity="1.00" stroke-width="0.3"><path d="
M 404.00 161.00 
C 403.84 157.75 401.47 153.52 398.00 153.00
C 398.97 156.05 401.35 159.05 404.00 161.00 Z"/>
</g>
<g fill="None" fill-opacity="0.0" stroke="#CB7700" stroke-opacity="1.00" stroke-width="0.3"><path d="
M 108.00 161.00 
C 105.15 161.80 103.33 166.05 103.00 169.00
C 105.97 167.53 107.26 163.93 108.00 161.00 Z"/>
</g>
<g fill="None" fill-opacity="0.0" stroke="#CC7500" stroke-opacity="1.00" stroke-width="0.3"><path d="
M 412.00 175.00 
C 411.63 171.78 410.14 166.89 407.00 166.00
C 407.28 169.40 409.54 172.80 412.00 175.00 Z"/>
</g>
<g fill="None" fill-opacity="0.0" stroke="#CD7A00" stroke-opacity="1.00" stroke-width="0.3"><path d="
M 100.00 175.00 
C 97.07 176.94 95.68 180.69 95.00 184.00
C 98.25 183.12 99.56 178.19 100.00 175.00 Z"/>
</g>
<g fill="None" fill-opacity="0.0" stroke="#CD7600" stroke-opacity="1.00" stroke-width="0.3"><path d="
M 419.00 189.00 
C 418.26 185.88 417.79 180.48 414.00 180.00
C 414.97 183.19 416.21 186.99 419.00 189.00 Z"/>
</g>
<g fill="None" fill-opacity="0.0" stroke="#CD7900" stroke-opacity="1.00" stroke-width="0.3"><path d="
M 89.00 198.00 
C 91.78 197.45 95.36 190.59 92.00 189.00
C 91.45 192.15 89.31 194.79 89.00 198.00 Z"/>
</g>
<g fill="None" fill-opacity="0.0" stroke="#CB7400" stroke-opacity="1.00" stroke-width="0.3"><path d="
M 422.00 195.00 
C 419.90 197.19 422.00 203.53 425.00 204.00
C 424.25 200.90 423.28 197.92 422.00 195.00 Z"/>
</g>
<g fill="None" fill-opacity="0.0" stroke="#CC7800" stroke-opacity="1.00" stroke-width="0.3"><path d="
M 86.00 214.00 
C 86.17 210.76 89.78 206.82 87.00 204.00
C 86.19 207.03 83.65 211.31 86.00 214.00 Z"/>
</g>
<g fill="None" fill-opacity="0.0" stroke="#FE9D00" stroke-opacity="1.00" stroke-width="0.3"><path d="
M 209.00 385.00 
C 258.91 402.30 315.36 391.19 353.25 353.25 C 391.13 315.31 402.33 259.02 385.00 209.00
C 384.67 218.10 369.54 224.62 364.25 232.25 C 358.96 239.88 348.67 246.81 342.25 254.25 C 335.83 261.68 327.18 268.94 320.25 276.25 C 313.32 283.56 305.42 291.07 298.25 298.25 C 291.07 305.42 283.56 313.32 276.25 320.25 C 268.94 327.18 261.68 335.84 254.25 342.25 C 246.81 348.66 239.87 358.96 232.25 364.25 C 224.62 369.53 218.11 384.67 209.00 385.00 Z"/>
</g>
<g fill="None" fill-opacity="0.0" stroke="#CD7A00" stroke-opacity="1.00" stroke-width="0.3"><path d="
M 82.00 229.00 
C 85.13 227.72 84.50 222.02 83.00 220.00
C 81.69 222.49 81.53 227.05 82.00 229.00 Z"/>
</g>
<g fill="None" fill-opacity="0.0" stroke="#C87400" stroke-opacity="1.00" stroke-width="0.3"><path d="
M 82.00 236.00 
C 78.51 236.28 79.73 243.13 81.00 245.00
C 80.57 241.77 82.70 239.27 82.00 236.00 Z"/>
</g>
<g fill="None" fill-opacity="0.0" stroke="#C97200" stroke-opacity="1.00" stroke-width="0.3"><path d="
M 432.00 242.00 
C 430.55 243.73 429.70 250.80 433.00 251.00
C 433.43 247.77 431.30 245.27 432.00 242.00 Z"/>
</g>
<g fill="None" fill-opacity="0.0" stroke="#C67200" stroke-opacity="1.00" stroke-width="0.3"><path d="
M 80.00 261.00 
C 81.72 259.11 81.52 253.96 80.00 252.00
C 78.28 253.89 78.48 259.04 80.00 261.00 Z"/>
</g>
<g fill="None" fill-opacity="0.0" stroke="#CA7300" stroke-opacity="1.00" stroke-width="0.3"><path d="
M 432.00 267.00 
C 433.72 265.11 433.52 259.96 432.00 258.00
C 430.28 259.89 430.48 265.04 432.00 267.00 Z"/>
</g>
<g fill="None" fill-opacity="0.0" stroke="#CA7500" stroke-opacity="1.00" stroke-width="0.3"><path d="
M 81.00 268.00 
C 79.28 269.89 79.48 275.04 81.00 277.00
C 83.33 274.86 81.55 270.64 81.00 268.00 Z"/>
</g>
<g fill="None" fill-opacity="0.0" stroke="#CE7500" stroke-opacity="1.00" stroke-width="0.3"><path d="
M 430.00 283.00 
C 431.68 281.23 433.88 274.44 430.00 274.00
C 430.84 277.05 427.23 280.63 430.00 283.00 Z"/>
</g>
<g fill="None" fill-opacity="0.0" stroke="#D37F00" stroke-opacity="1.00" stroke-width="0.3"><path d="
M 84.00 293.00 
C 85.12 290.71 84.71 284.81 82.00 283.00
C 79.94 286.19 82.62 290.29 84.00 293.00 Z"/>
</g>
<g fill="None" fill-opacity="0.0" stroke="#D17D00" stroke-opacity="1.00" stroke-width="0.3"><path d="
M 86.00 299.00 
C 84.15 301.41 85.13 308.71 89.00 309.00
C 88.69 305.45 86.87 302.40 86.00 299.00 Z"/>
</g>
<g fill="None" fill-opacity="0.0" stroke="#D37E00" stroke-opacity="1.00" stroke-width="0.3"><path d="
M 94.00 324.00 
C 93.08 320.63 93.20 314.63 89.00 314.00
C 89.59 317.45 91.11 322.70 94.00 324.00 Z"/>
</g>
<g fill="None" fill-opacity="0.0" stroke="#D07B00" stroke-opacity="1.00" stroke-width="0.3"><path d="
M 101.00 338.00 
C 99.77 334.88 98.88 329.59 95.00 329.00
C 96.23 332.12 97.12 337.41 101.00 338.00 Z"/>
</g>
<g fill="None" fill-opacity="0.0" stroke="#CF7A00" stroke-opacity="1.00" stroke-width="0.3"><path d="
M 109.00 352.00 
C 108.20 348.51 106.01 345.07 103.00 343.00
C 103.20 346.52 105.47 351.21 109.00 352.00 Z"/>
</g>
<g fill="None" fill-opacity="0.0" stroke="#D47E00" stroke-opacity="1.00" stroke-width="0.3"><path d="
M 118.00 365.00 
C 116.68 361.81 115.19 357.96 112.00 356.00
C 110.21 359.28 114.81 364.10 118.00 365.00 Z"/>
</g>
<g fill="None" fill-opacity="0.0" stroke="#CD7700" stroke-opacity="1.00" stroke-width="0.3"><path d="
M 128.00 377.00 
C 127.00 373.84 124.67 369.61 121.00 369.00
C 121.62 372.47 125.43 374.77 128.00 377.00 Z"/>
</g>
<g fill="None" fill-opacity="0.0" stroke="#C67200" stroke-opacity="1.00" stroke-width="0.3"><path d="
M 140.00 388.00 
C 138.24 385.35 135.62 382.89 133.00 381.00
C 133.63 384.04 136.99 387.30 140.00 388.00 Z"/>
</g>
<g fill="None" fill-opacity="0.0" stroke="#FFB400" stroke-opacity="0.37" stroke-width="0.3"><path d="
M 120.00 397.00 
C 119.64 396.41 119.51 395.55 119.00 395.00
C 117.38 393.26 114.87 391.60 113.00 390.00
C 115.47 392.84 117.29 394.77 120.00 397.00 Z"/>
</g>
<g fill="None" fill-opacity="0.0" stroke="#CC7600" stroke-opacity="1.00" stroke-width="0.3"><path d="
M 152.00 398.00 
C 150.83 395.47 147.40 391.90 144.00 392.00
C 145.77 394.75 148.62 397.69 152.00 398.00 Z"/>
</g>
<g fill="None" fill-opacity="0.0" stroke="#CE7700" stroke-opacity="1.00" stroke-width="0.3"><path d="
M 166.00 407.00 
C 164.14 403.79 160.11 402.36 157.00 401.00
C 157.75 404.58 162.54 406.76 166.00 407.00 Z"/>
</g>
<g fill="None" fill-opacity="0.0" stroke="#CF7700" stroke-opacity="1.00" stroke-width="0.3"><path d="
M 180.00 415.00 
C 179.12 411.75 174.19 410.44 171.00 410.00
C 172.72 413.11 176.61 414.82 180.00 415.00 Z"/>
</g>
<g fill="None" fill-opacity="0.0" stroke="#CB7500" stroke-opacity="1.00" stroke-width="0.3"><path d="
M 194.00 421.00 
C 192.35 418.58 187.49 415.64 185.00 418.00
C 187.87 419.41 190.74 420.96 194.00 421.00 Z"/>
</g>
<g fill="None" fill-opacity="0.0" stroke="#D17800" stroke-opacity="1.00" stroke-width="0.3"><path d="
M 210.00 425.00 
C 206.72 423.78 203.53 422.22 200.00 422.00
C 200.76 424.96 208.25 428.10 210.00 425.00 Z"/>
</g>
<g fill="None" fill-opacity="0.0" stroke="#D37700" stroke-opacity="1.00" stroke-width="0.3"><path d="
M 307.00 425.00 
C 304.59 423.15 297.29 424.13 297.00 428.00
C 300.76 428.41 303.64 426.00 307.00 425.00 Z"/>
</g>
<g fill="None" fill-opacity="0.0" stroke="#D17800" stroke-opacity="1.00" stroke-width="0.3"><path d="
M 225.00 429.00 
C 222.56 427.13 217.86 426.06 215.00 427.00
C 216.80 429.66 222.48 430.89 225.00 429.00 Z"/>
</g>
<g fill="None" fill-opacity="0.0" stroke="#CF7500" stroke-opacity="1.00" stroke-width="0.3"><path d="
M 291.00 429.00 
C 288.39 426.09 284.26 429.70 281.00 429.00
C 281.92 433.32 288.31 430.05 291.00 429.00 Z"/>
</g>
<g fill="None" fill-opacity="0.0" stroke="#CE7600" stroke-opacity="1.00" stroke-width="0.3"><path d="
M 241.00 431.00 
C 238.79 429.28 233.28 429.46 231.00 431.00
C 233.80 432.38 238.55 432.77 241.00 431.00 Z"/>
</g>
<g fill="None" fill-opacity="0.0" stroke="#CA7300" stroke-opacity="1.00" stroke-width="0.3"><path d="
M 259.00 432.00 
C 256.13 430.29 249.94 430.43 247.00 432.00
C 249.87 433.71 256.06 433.57 259.00 432.00 Z"/>
</g>
<g fill="#000000" fill-opacity="0.00" stroke="None">
<path d="
M 0.00 512.00 
L 512.00 512.00
L 512.00 0.00
L 0.00 0.00
L 0.00 512.00
M 373.00 98.00 
C 389.67 110.15 401.19 122.54 413.92 139.08 C 426.65 155.62 434.71 172.74 441.98 193.02 C 449.24 213.31 453.18 242.16 452.00 265.00 C 450.82 287.84 446.04 312.46 437.22 332.22 C 428.41 351.99 419.93 367.19 406.23 383.23 C 392.53 399.27 379.54 409.86 362.30 421.30 C 345.07 432.75 325.75 440.98 305.32 446.32 C 284.89 451.66 251.20 454.53 230.00 451.00 C 208.80 447.47 184.57 442.27 167.31 431.69 C 150.04 421.12 130.72 414.61 120.00 397.00
C 117.29 394.77 115.47 392.84 113.00 390.00
C 75.64 358.08 62.22 307.77 60.00 260.00 C 57.78 212.23 76.07 160.75 109.25 125.25 C 142.43 89.75 179.28 68.67 228.22 61.22 C 277.16 53.77 333.40 69.14 373.00 98.00 Z"/>
</g>
<g fill="#FEB000" fill-opacity="0.98" stroke="None">
<path d="
M 113.00 390.00 
C 114.87 391.60 117.38 393.26 119.00 395.00
C 120.16 390.44 130.01 386.10 132.30 381.30 C 134.60 376.50 144.10 372.81 147.00 368.00
C 144.62 364.20 140.32 361.76 138.00 358.00
C 88.05 299.55 88.53 209.98 139.75 152.75 C 190.97 95.53 281.47 82.34 344.00 127.00
C 343.86 122.80 354.45 118.35 356.00 115.00
C 356.34 111.89 351.62 111.12 352.00 108.00
C 360.77 115.68 366.24 102.20 373.00 98.00
C 333.40 69.14 277.16 53.77 228.22 61.22 C 179.28 68.67 142.43 89.75 109.25 125.25 C 76.07 160.75 57.78 212.23 60.00 260.00 C 62.22 307.77 75.64 358.08 113.00 390.00
M 256.00 80.00 
C 253.72 81.54 248.21 81.72 246.00 80.00
C 248.28 78.46 253.79 78.28 256.00 80.00
M 272.00 80.00 
C 269.72 81.54 264.21 81.72 262.00 80.00
C 264.45 78.23 269.20 78.62 272.00 80.00
M 240.00 81.00 
C 237.48 81.91 232.48 84.30 230.00 82.00
C 232.29 80.17 237.54 78.74 240.00 81.00
M 288.00 83.00 
C 285.22 83.70 280.98 83.24 278.00 82.00
C 280.53 79.89 285.75 81.05 288.00 83.00
M 224.00 83.00 
C 222.21 85.33 217.08 86.01 215.00 84.00
C 217.82 83.75 221.89 81.42 224.00 83.00
M 303.00 86.00 
C 300.74 88.08 295.50 86.62 294.00 84.00
C 296.19 82.36 301.06 84.05 303.00 86.00
M 209.00 87.00 
C 205.88 87.67 201.68 91.18 199.00 89.00
C 201.56 87.79 206.35 84.59 209.00 87.00
M 319.00 91.00 
C 316.09 93.65 312.22 89.54 309.00 89.00
C 311.68 86.75 316.49 89.66 319.00 91.00
M 193.00 91.00 
C 192.22 94.50 187.05 94.97 184.00 96.00
C 184.78 92.50 189.95 92.03 193.00 91.00
M 334.00 98.00 
C 330.93 98.93 325.17 95.99 324.00 93.00
C 327.28 94.45 331.92 94.72 334.00 98.00
M 179.00 97.00 
C 178.41 100.88 173.12 101.77 170.00 103.00
C 171.01 99.71 175.70 97.91 179.00 97.00
M 347.00 106.00 
C 344.02 105.11 339.52 103.46 339.00 100.00
C 341.69 101.41 346.56 102.38 347.00 106.00
M 165.00 105.00 
C 164.24 108.56 159.29 110.40 156.00 111.00
C 158.07 107.99 161.51 105.80 165.00 105.00
M 151.00 114.00 
C 150.67 117.67 146.49 119.05 144.00 121.00
C 144.52 117.63 148.14 115.30 151.00 114.00
M 139.00 124.00 
C 138.30 127.01 135.04 130.37 132.00 131.00
C 133.89 128.38 136.35 125.76 139.00 124.00
M 128.00 136.00 
C 125.97 138.47 124.73 142.74 121.00 143.00
C 121.70 139.99 124.96 136.63 128.00 136.00
M 117.00 148.00 
C 116.40 151.17 113.87 155.03 111.00 156.00
C 111.31 152.62 114.25 149.77 117.00 148.00
M 108.00 161.00 
C 107.26 163.93 105.97 167.53 103.00 169.00
C 103.33 166.05 105.15 161.80 108.00 161.00
M 100.00 175.00 
C 99.56 178.19 98.25 183.12 95.00 184.00
C 95.68 180.69 97.07 176.94 100.00 175.00
M 89.00 198.00 
C 89.31 194.79 91.45 192.15 92.00 189.00
C 95.36 190.59 91.78 197.45 89.00 198.00
M 86.00 214.00 
C 83.65 211.31 86.19 207.03 87.00 204.00
C 89.78 206.82 86.17 210.76 86.00 214.00
M 82.00 229.00 
C 81.53 227.05 81.69 222.49 83.00 220.00
C 84.50 222.02 85.13 227.72 82.00 229.00
M 82.00 236.00 
C 82.70 239.27 80.57 241.77 81.00 245.00
C 79.73 243.13 78.51 236.28 82.00 236.00
M 80.00 261.00 
C 78.48 259.04 78.28 253.89 80.00 252.00
C 81.52 253.96 81.72 259.11 80.00 261.00
M 81.00 268.00 
C 81.55 270.64 83.33 274.86 81.00 277.00
C 79.48 275.04 79.28 269.89 81.00 268.00
M 84.00 293.00 
C 82.62 290.29 79.94 286.19 82.00 283.00
C 84.71 284.81 85.12 290.71 84.00 293.00
M 86.00 299.00 
C 86.87 302.40 88.69 305.45 89.00 309.00
C 85.13 308.71 84.15 301.41 86.00 299.00
M 94.00 324.00 
C 91.11 322.70 89.59 317.45 89.00 314.00
C 93.20 314.63 93.08 320.63 94.00 324.00
M 101.00 338.00 
C 97.12 337.41 96.23 332.12 95.00 329.00
C 98.88 329.59 99.77 334.88 101.00 338.00
M 109.00 352.00 
C 105.47 351.21 103.20 346.52 103.00 343.00
C 106.01 345.07 108.20 348.51 109.00 352.00
M 118.00 365.00 
C 114.81 364.10 110.21 359.28 112.00 356.00
C 115.19 357.96 116.68 361.81 118.00 365.00
M 128.00 377.00 
C 125.43 374.77 121.62 372.47 121.00 369.00
C 124.67 369.61 127.00 373.84 128.00 377.00 Z"/>
</g>
<g fill="#CB7700" fill-opacity="1.00" stroke="None">
<path d="
M 256.00 80.00 
C 253.79 78.28 248.28 78.46 246.00 80.00
C 248.21 81.72 253.72 81.54 256.00 80.00 Z"/>
</g>
<g fill="#D17D00" fill-opacity="1.00" stroke="None">
<path d="
M 272.00 80.00 
C 269.20 78.62 264.45 78.23 262.00 80.00
C 264.21 81.72 269.72 81.54 272.00 80.00 Z"/>
</g>
<g fill="#D17E00" fill-opacity="1.00" stroke="None">
<path d="
M 240.00 81.00 
C 237.54 78.74 232.29 80.17 230.00 82.00
C 232.48 84.30 237.48 81.91 240.00 81.00 Z"/>
</g>
<g fill="#CC7700" fill-opacity="1.00" stroke="None">
<path d="
M 288.00 83.00 
C 285.75 81.05 280.53 79.89 278.00 82.00
C 280.98 83.24 285.22 83.70 288.00 83.00 Z"/>
</g>
<g fill="#CC7800" fill-opacity="1.00" stroke="None">
<path d="
M 224.00 83.00 
C 221.89 81.42 217.82 83.75 215.00 84.00
C 217.08 86.01 222.21 85.33 224.00 83.00 Z"/>
</g>
<g fill="#D37E00" fill-opacity="1.00" stroke="None">
<path d="
M 303.00 86.00 
C 301.06 84.05 296.19 82.36 294.00 84.00
C 295.50 86.62 300.74 88.08 303.00 86.00 Z"/>
</g>
<g fill="#CD7900" fill-opacity="1.00" stroke="None">
<path d="
M 209.00 87.00 
C 206.35 84.59 201.56 87.79 199.00 89.00
C 201.68 91.18 205.88 87.67 209.00 87.00 Z"/>
</g>
<g fill="#CF7A00" fill-opacity="1.00" stroke="None">
<path d="
M 319.00 91.00 
C 316.49 89.66 311.68 86.75 309.00 89.00
C 312.22 89.54 316.09 93.65 319.00 91.00 Z"/>
</g>
<g fill="#CD7A00" fill-opacity="1.00" stroke="None">
<path d="
M 193.00 91.00 
C 189.95 92.03 184.78 92.50 184.00 96.00
C 187.05 94.97 192.22 94.50 193.00 91.00 Z"/>
</g>
<g fill="#D07B00" fill-opacity="1.00" stroke="None">
<path d="
M 334.00 98.00 
C 331.92 94.72 327.28 94.45 324.00 93.00
C 325.17 95.99 330.93 98.93 334.00 98.00 Z"/>
</g>
<g fill="#CF7D00" fill-opacity="1.00" stroke="None">
<path d="
M 179.00 97.00 
C 175.70 97.91 171.01 99.71 170.00 103.00
C 173.12 101.77 178.41 100.88 179.00 97.00 Z"/>
</g>
<g fill="#FE9300" fill-opacity="0.98" stroke="None">
<path d="
M 344.00 127.00 
C 379.91 152.65 402.51 187.82 409.78 231.22 C 417.05 274.62 403.57 326.41 372.70 359.70 C 341.82 392.98 300.63 411.81 255.00 412.00 C 209.37 412.19 170.08 390.08 138.00 358.00
C 140.32 361.76 144.62 364.20 147.00 368.00
C 144.10 372.81 134.60 376.50 132.30 381.30 C 130.01 386.10 120.16 390.44 119.00 395.00
C 119.51 395.55 119.64 396.41 120.00 397.00
C 130.72 414.61 150.04 421.12 167.31 431.69 C 184.57 442.27 208.80 447.47 230.00 451.00 C 251.20 454.53 284.89 451.66 305.32 446.32 C 325.75 440.98 345.07 432.75 362.30 421.30 C 379.54 409.86 392.53 399.27 406.23 383.23 C 419.93 367.19 428.41 351.99 437.22 332.22 C 446.04 312.46 450.82 287.84 452.00 265.00 C 453.18 242.16 449.24 213.31 441.98 193.02 C 434.71 172.74 426.65 155.62 413.92 139.08 C 401.19 122.54 389.67 110.15 373.00 98.00
C 366.24 102.20 360.77 115.68 352.00 108.00
C 351.62 111.12 356.34 111.89 356.00 115.00
C 354.45 118.35 343.86 122.80 344.00 127.00
M 373.00 125.00 
C 369.60 124.32 367.10 120.56 365.00 118.00
C 367.94 119.32 372.39 121.39 373.00 125.00
M 385.00 136.00 
C 381.60 135.32 379.10 131.56 377.00 129.00
C 380.11 127.65 384.11 133.19 385.00 136.00
M 395.00 148.00 
C 391.44 147.35 389.27 142.98 388.00 140.00
C 391.67 140.61 394.00 144.84 395.00 148.00
M 404.00 161.00 
C 401.35 159.05 398.97 156.05 398.00 153.00
C 401.47 153.52 403.84 157.75 404.00 161.00
M 412.00 175.00 
C 409.54 172.80 407.28 169.40 407.00 166.00
C 410.14 166.89 411.63 171.78 412.00 175.00
M 419.00 189.00 
C 416.21 186.99 414.97 183.19 414.00 180.00
C 417.79 180.48 418.26 185.88 419.00 189.00
M 422.00 195.00 
C 423.28 197.92 424.25 200.90 425.00 204.00
C 422.00 203.53 419.90 197.19 422.00 195.00
M 432.00 242.00 
C 431.30 245.27 433.43 247.77 433.00 251.00
C 429.70 250.80 430.55 243.73 432.00 242.00
M 432.00 267.00 
C 430.48 265.04 430.28 259.89 432.00 258.00
C 433.52 259.96 433.72 265.11 432.00 267.00
M 430.00 283.00 
C 427.23 280.63 430.84 277.05 430.00 274.00
C 433.88 274.44 431.68 281.23 430.00 283.00
M 140.00 388.00 
C 136.99 387.30 133.63 384.04 133.00 381.00
C 135.62 382.89 138.24 385.35 140.00 388.00
M 152.00 398.00 
C 148.62 397.69 145.77 394.75 144.00 392.00
C 147.40 391.90 150.83 395.47 152.00 398.00
M 166.00 407.00 
C 162.54 406.76 157.75 404.58 157.00 401.00
C 160.11 402.36 164.14 403.79 166.00 407.00
M 180.00 415.00 
C 176.61 414.82 172.72 413.11 171.00 410.00
C 174.19 410.44 179.12 411.75 180.00 415.00
M 194.00 421.00 
C 190.74 420.96 187.87 419.41 185.00 418.00
C 187.49 415.64 192.35 418.58 194.00 421.00
M 210.00 425.00 
C 208.25 428.10 200.76 424.96 200.00 422.00
C 203.53 422.22 206.72 423.78 210.00 425.00
M 307.00 425.00 
C 303.64 426.00 300.76 428.41 297.00 428.00
C 297.29 424.13 304.59 423.15 307.00 425.00
M 225.00 429.00 
C 222.48 430.89 216.80 429.66 215.00 427.00
C 217.86 426.06 222.56 427.13 225.00 429.00
M 291.00 429.00 
C 288.31 430.05 281.92 433.32 281.00 429.00
C 284.26 429.70 288.39 426.09 291.00 429.00
M 241.00 431.00 
C 238.55 432.77 233.80 432.38 231.00 431.00
C 233.28 429.46 238.79 429.28 241.00 431.00
M 259.00 432.00 
C 256.06 433.57 249.87 433.71 247.00 432.00
C 249.94 430.43 256.13 430.29 259.00 432.00 Z"/>
</g>
<g fill="#FE8500" fill-opacity="1.00" stroke="None">
<path d="
M 138.00 358.00 
C 170.08 390.08 209.37 412.19 255.00 412.00 C 300.63 411.81 341.82 392.98 372.70 359.70 C 403.57 326.41 417.05 274.62 409.78 231.22 C 402.51 187.82 379.91 152.65 344.00 127.00
C 281.47 82.34 190.97 95.53 139.75 152.75 C 88.53 209.98 88.05 299.55 138.00 358.00
M 300.00 126.00 
C 338.82 137.62 371.80 170.90 385.00 209.00
C 402.33 259.02 391.13 315.31 353.25 353.25 C 315.36 391.19 258.91 402.30 209.00 385.00
C 170.94 371.81 137.60 338.77 126.00 300.00
C 110.98 249.83 121.11 196.30 158.75 158.75 C 196.39 121.20 249.80 110.97 300.00 126.00 Z"/>
</g>
<g fill="#CD7800" fill-opacity="1.00" stroke="None">
<path d="
M 347.00 106.00 
C 346.56 102.38 341.69 101.41 339.00 100.00
C 339.52 103.46 344.02 105.11 347.00 106.00 Z"/>
</g>
<g fill="#CE7B00" fill-opacity="1.00" stroke="None">
<path d="
M 165.00 105.00 
C 161.51 105.80 158.07 107.99 156.00 111.00
C 159.29 110.40 164.24 108.56 165.00 105.00 Z"/>
</g>
<g fill="#CB7700" fill-opacity="1.00" stroke="None">
<path d="
M 151.00 114.00 
C 148.14 115.30 144.52 117.63 144.00 121.00
C 146.49 119.05 150.67 117.67 151.00 114.00 Z"/>
</g>
<g fill="#CB7500" fill-opacity="1.00" stroke="None">
<path d="
M 373.00 125.00 
C 372.39 121.39 367.94 119.32 365.00 118.00
C 367.10 120.56 369.60 124.32 373.00 125.00 Z"/>
</g>
<g fill="#FE9C00" fill-opacity="1.00" stroke="None">
<path d="
M 126.00 300.00 
C 127.48 294.67 137.57 290.99 140.75 285.75 C 143.93 280.51 151.16 276.27 155.25 271.25 C 159.33 266.23 165.26 261.67 169.75 256.75 C 174.25 251.84 179.57 247.11 184.25 242.25 C 188.93 237.38 193.98 232.59 198.75 227.75 C 203.52 222.92 208.44 218.06 213.25 213.25 C 218.06 208.44 222.92 203.52 227.75 198.75 C 232.59 193.98 237.38 188.93 242.25 184.25 C 247.11 179.56 251.84 174.25 256.75 169.75 C 261.66 165.25 266.24 159.34 271.25 155.25 C 276.26 151.16 280.52 143.94 285.75 140.75 C 290.98 137.56 294.74 127.46 300.00 126.00
C 249.80 110.97 196.39 121.20 158.75 158.75 C 121.11 196.30 110.98 249.83 126.00 300.00 Z"/>
</g>
<g fill="#C77300" fill-opacity="1.00" stroke="None">
<path d="
M 139.00 124.00 
C 136.35 125.76 133.89 128.38 132.00 131.00
C 135.04 130.37 138.30 127.01 139.00 124.00 Z"/>
</g>
<g fill="#FFB000" fill-opacity="1.00" stroke="None">
<path d="
M 126.00 300.00 
C 137.60 338.77 170.94 371.81 209.00 385.00
C 218.11 384.67 224.62 369.53 232.25 364.25 C 239.87 358.96 246.81 348.66 254.25 342.25 C 261.68 335.84 268.94 327.18 276.25 320.25 C 283.56 313.32 291.07 305.42 298.25 298.25 C 305.42 291.07 313.32 283.56 320.25 276.25 C 327.18 268.94 335.83 261.68 342.25 254.25 C 348.67 246.81 358.96 239.88 364.25 232.25 C 369.54 224.62 384.67 218.10 385.00 209.00
C 371.80 170.90 338.82 137.62 300.00 126.00
C 294.74 127.46 290.98 137.56 285.75 140.75 C 280.52 143.94 276.26 151.16 271.25 155.25 C 266.24 159.34 261.66 165.25 256.75 169.75 C 251.84 174.25 247.11 179.56 242.25 184.25 C 237.38 188.93 232.59 193.98 227.75 198.75 C 222.92 203.52 218.06 208.44 213.25 213.25 C 208.44 218.06 203.52 222.92 198.75 227.75 C 193.98 232.59 188.93 237.38 184.25 242.25 C 179.57 247.11 174.25 251.84 169.75 256.75 C 165.26 261.67 159.33 266.23 155.25 271.25 C 151.16 276.27 143.93 280.51 140.75 285.75 C 137.57 290.99 127.48 294.67 126.00 300.00 Z"/>
</g>
<g fill="#D07900" fill-opacity="1.00" stroke="None">
<path d="
M 385.00 136.00 
C 384.11 133.19 380.11 127.65 377.00 129.00
C 379.10 131.56 381.60 135.32 385.00 136.00 Z"/>
</g>
<g fill="#CB7700" fill-opacity="1.00" stroke="None">
<path d="
M 128.00 136.00 
C 124.96 136.63 121.70 139.99 121.00 143.00
C 124.73 142.74 125.97 138.47 128.00 136.00 Z"/>
</g>
<g fill="#CF7800" fill-opacity="1.00" stroke="None">
<path d="
M 395.00 148.00 
C 394.00 144.84 391.67 140.61 388.00 140.00
C 389.27 142.98 391.44 147.35 395.00 148.00 Z"/>
</g>
<g fill="#CC7800" fill-opacity="1.00" stroke="None">
<path d="
M 117.00 148.00 
C 114.25 149.77 111.31 152.62 111.00 156.00
C 113.87 155.03 116.40 151.17 117.00 148.00 Z"/>
</g>
<g fill="#CC7600" fill-opacity="1.00" stroke="None">
<path d="
M 404.00 161.00 
C 403.84 157.75 401.47 153.52 398.00 153.00
C 398.97 156.05 401.35 159.05 404.00 161.00 Z"/>
</g>
<g fill="#CB7700" fill-opacity="1.00" stroke="None">
<path d="
M 108.00 161.00 
C 105.15 161.80 103.33 166.05 103.00 169.00
C 105.97 167.53 107.26 163.93 108.00 161.00 Z"/>
</g>
<g fill="#CC7500" fill-opacity="1.00" stroke="None">
<path d="
M 412.00 175.00 
C 411.63 171.78 410.14 166.89 407.00 166.00
C 407.28 169.40 409.54 172.80 412.00 175.00 Z"/>
</g>
<g fill="#CD7A00" fill-opacity="1.00" stroke="None">
<path d="
M 100.00 175.00 
C 97.07 176.94 95.68 180.69 95.00 184.00
C 98.25 183.12 99.56 178.19 100.00 175.00 Z"/>
</g>
<g fill="#CD7600" fill-opacity="1.00" stroke="None">
<path d="
M 419.00 189.00 
C 418.26 185.88 417.79 180.48 414.00 180.00
C 414.97 183.19 416.21 186.99 419.00 189.00 Z"/>
</g>
<g fill="#CD7900" fill-opacity="1.00" stroke="None">
<path d="
M 89.00 198.00 
C 91.78 197.45 95.36 190.59 92.00 189.00
C 91.45 192.15 89.31 194.79 89.00 198.00 Z"/>
</g>
<g fill="#CB7400" fill-opacity="1.00" stroke="None">
<path d="
M 422.00 195.00 
C 419.90 197.19 422.00 203.53 425.00 204.00
C 424.25 200.90 423.28 197.92 422.00 195.00 Z"/>
</g>
<g fill="#CC7800" fill-opacity="1.00" stroke="None">
<path d="
M 86.00 214.00 
C 86.17 210.76 89.78 206.82 87.00 204.00
C 86.19 207.03 83.65 211.31 86.00 214.00 Z"/>
</g>
<g fill="#FE9D00" fill-opacity="1.00" stroke="None">
<path d="
M 209.00 385.00 
C 258.91 402.30 315.36 391.19 353.25 353.25 C 391.13 315.31 402.33 259.02 385.00 209.00
C 384.67 218.10 369.54 224.62 364.25 232.25 C 358.96 239.88 348.67 246.81 342.25 254.25 C 335.83 261.68 327.18 268.94 320.25 276.25 C 313.32 283.56 305.42 291.07 298.25 298.25 C 291.07 305.42 283.56 313.32 276.25 320.25 C 268.94 327.18 261.68 335.84 254.25 342.25 C 246.81 348.66 239.87 358.96 232.25 364.25 C 224.62 369.53 218.11 384.67 209.00 385.00 Z"/>
</g>
<g fill="#CD7A00" fill-opacity="1.00" stroke="None">
<path d="
M 82.00 229.00 
C 85.13 227.72 84.50 222.02 83.00 220.00
C 81.69 222.49 81.53 227.05 82.00 229.00 Z"/>
</g>
<g fill="#C87400" fill-opacity="1.00" stroke="None">
<path d="
M 82.00 236.00 
C 78.51 236.28 79.73 243.13 81.00 245.00
C 80.57 241.77 82.70 239.27 82.00 236.00 Z"/>
</g>
<g fill="#C97200" fill-opacity="1.00" stroke="None">
<path d="
M 432.00 242.00 
C 430.55 243.73 429.70 250.80 433.00 251.00
C 433.43 247.77 431.30 245.27 432.00 242.00 Z"/>
</g>
<g fill="#C67200" fill-opacity="1.00" stroke="None">
<path d="
M 80.00 261.00 
C 81.72 259.11 81.52 253.96 80.00 252.00
C 78.28 253.89 78.48 259.04 80.00 261.00 Z"/>
</g>
<g fill="#CA7300" fill-opacity="1.00" stroke="None">
<path d="
M 432.00 267.00 
C 433.72 265.11 433.52 259.96 432.00 258.00
C 430.28 259.89 430.48 265.04 432.00 267.00 Z"/>
</g>
<g fill="#CA7500" fill-opacity="1.00" stroke="None">
<path d="
M 81.00 268.00 
C 79.28 269.89 79.48 275.04 81.00 277.00
C 83.33 274.86 81.55 270.64 81.00 268.00 Z"/>
</g>
<g fill="#CE7500" fill-opacity="1.00" stroke="None">
<path d="
M 430.00 283.00 
C 431.68 281.23 433.88 274.44 430.00 274.00
C 430.84 277.05 427.23 280.63 430.00 283.00 Z"/>
</g>
<g fill="#D37F00" fill-opacity="1.00" stroke="None">
<path d="
M 84.00 293.00 
C 85.12 290.71 84.71 284.81 82.00 283.00
C 79.94 286.19 82.62 290.29 84.00 293.00 Z"/>
</g>
<g fill="#D17D00" fill-opacity="1.00" stroke="None">
<path d="
M 86.00 299.00 
C 84.15 301.41 85.13 308.71 89.00 309.00
C 88.69 305.45 86.87 302.40 86.00 299.00 Z"/>
</g>
<g fill="#D37E00" fill-opacity="1.00" stroke="None">
<path d="
M 94.00 324.00 
C 93.08 320.63 93.20 314.63 89.00 314.00
C 89.59 317.45 91.11 322.70 94.00 324.00 Z"/>
</g>
<g fill="#D07B00" fill-opacity="1.00" stroke="None">
<path d="
M 101.00 338.00 
C 99.77 334.88 98.88 329.59 95.00 329.00
C 96.23 332.12 97.12 337.41 101.00 338.00 Z"/>
</g>
<g fill="#CF7A00" fill-opacity="1.00" stroke="None">
<path d="
M 109.00 352.00 
C 108.20 348.51 106.01 345.07 103.00 343.00
C 103.20 346.52 105.47 351.21 109.00 352.00 Z"/>
</g>
<g fill="#D47E00" fill-opacity="1.00" stroke="None">
<path d="
M 118.00 365.00 
C 116.68 361.81 115.19 357.96 112.00 356.00
C 110.21 359.28 114.81 364.10 118.00 365.00 Z"/>
</g>
<g fill="#CD7700" fill-opacity="1.00" stroke="None">
<path d="
M 128.00 377.00 
C 127.00 373.84 124.67 369.61 121.00 369.00
C 121.62 372.47 125.43 374.77 128.00 377.00 Z"/>
</g>
<g fill="#C67200" fill-opacity="1.00" stroke="None">
<path d="
M 140.00 388.00 
C 138.24 385.35 135.62 382.89 133.00 381.00
C 133.63 384.04 136.99 387.30 140.00 388.00 Z"/>
</g>
<g fill="#FFB400" fill-opacity="0.37" stroke="None">
<path d="
M 120.00 397.00 
C 119.64 396.41 119.51 395.55 119.00 395.00
C 117.38 393.26 114.87 391.60 113.00 390.00
C 115.47 392.84 117.29 394.77 120.00 397.00 Z"/>
</g>
<g fill="#CC7600" fill-opacity="1.00" stroke="None">
<path d="
M 152.00 398.00 
C 150.83 395.47 147.40 391.90 144.00 392.00
C 145.77 394.75 148.62 397.69 152.00 398.00 Z"/>
</g>
<g fill="#CE7700" fill-opacity="1.00" stroke="None">
<path d="
M 166.00 407.00 
C 164.14 403.79 160.11 402.36 157.00 401.00
C 157.75 404.58 162.54 406.76 166.00 407.00 Z"/>
</g>
<g fill="#CF7700" fill-opacity="1.00" stroke="None">
<path d="
M 180.00 415.00 
C 179.12 411.75 174.19 410.44 171.00 410.00
C 172.72 413.11 176.61 414.82 180.00 415.00 Z"/>
</g>
<g fill="#CB7500" fill-opacity="1.00" stroke="None">
<path d="
M 194.00 421.00 
C 192.35 418.58 187.49 415.64 185.00 418.00
C 187.87 419.41 190.74 420.96 194.00 421.00 Z"/>
</g>
<g fill="#D17800" fill-opacity="1.00" stroke="None">
<path d="
M 210.00 425.00 
C 206.72 423.78 203.53 422.22 200.00 422.00
C 200.76 424.96 208.25 428.10 210.00 425.00 Z"/>
</g>
<g fill="#D37700" fill-opacity="1.00" stroke="None">
<path d="
M 307.00 425.00 
C 304.59 423.15 297.29 424.13 297.00 428.00
C 300.76 428.41 303.64 426.00 307.00 425.00 Z"/>
</g>
<g fill="#D17800" fill-opacity="1.00" stroke="None">
<path d="
M 225.00 429.00 
C 222.56 427.13 217.86 426.06 215.00 427.00
C 216.80 429.66 222.48 430.89 225.00 429.00 Z"/>
</g>
<g fill="#CF7500" fill-opacity="1.00" stroke="None">
<path d="
M 291.00 429.00 
C 288.39 426.09 284.26 429.70 281.00 429.00
C 281.92 433.32 288.31 430.05 291.00 429.00 Z"/>
</g>
<g fill="#CE7600" fill-opacity="1.00" stroke="None">
<path d="
M 241.00 431.00 
C 238.79 429.28 233.28 429.46 231.00 431.00
C 233.80 432.38 238.55 432.77 241.00 431.00 Z"/>
</g>
<g fill="#CA7300" fill-opacity="1.00" stroke="None">
<path d="
M 259.00 432.00 
C 256.13 430.29 249.94 430.43 247.00 432.00
C 249.87 433.71 256.06 433.57 259.00 432.00 Z"/>
</g>
</svg>