<?xml version="1.0" encoding="UTF-8"?>
<svg version="1.1" xmlns="http://www.w3.org/2000/svg" width="512" height="512">
<path d="M0 0 C1.0999568 -0.00525911 1.0999568 -0.00525911 2.22213495 -0.01062447 C4.68068859 -0.01993241 7.13900505 -0.01501674 9.59756851 -0.01015663 C11.37753564 -0.0138932 13.15750112 -0.01849475 14.937464 -0.02388728 C19.83010045 -0.03613193 24.72266859 -0.03585508 29.61531687 -0.03349853 C34.89153633 -0.03309073 40.16773379 -0.04412598 45.44394302 -0.05361366 C55.78173933 -0.07023279 66.11951283 -0.07572363 76.45732138 -0.07683842 C84.8600333 -0.07778848 93.26273769 -0.08189669 101.66544724 -0.08823967 C125.48515781 -0.10585475 149.30485035 -0.11507815 173.12456748 -0.11357872 C175.05111113 -0.11345885 175.05111113 -0.11345885 177.01657486 -0.11333656 C178.30250433 -0.1132548 179.5884338 -0.11317304 180.91333082 -0.1130888 C201.75430607 -0.11227588 222.59520905 -0.13141449 243.4361634 -0.1596133 C264.83206158 -0.18833468 286.22792452 -0.20215399 307.62384248 -0.20042574 C319.63739081 -0.19976157 331.6508634 -0.20526569 343.66439438 -0.22678185 C353.89308231 -0.24498382 364.12166015 -0.24934904 374.35035726 -0.235763 C379.56880156 -0.22922837 384.78703457 -0.22913416 390.00545883 -0.2464695 C394.78489775 -0.26218319 399.56395758 -0.25935386 404.34338716 -0.24190123 C406.0701593 -0.2388276 407.79695962 -0.24247742 409.52369854 -0.25362138 C421.04850804 -0.32305927 431.16995202 0.29629237 440.01169205 8.55414391 C445.63172651 14.80499856 448.78842816 21.7430163 448.80021095 30.21505928 C448.80665985 31.3912595 448.81310874 32.56745971 448.81975305 33.77930236 C448.81510724 35.70389293 448.81510724 35.70389293 448.81036758 37.66736412 C448.81410571 39.05135097 448.81870788 40.4353357 448.82409823 41.8193171 C448.83632369 45.61740795 448.8360683 49.41541068 448.83370948 53.21351671 C448.83330119 57.31181411 448.8443416 61.4100833 448.85382462 65.50836754 C448.87043336 73.53607194 448.87593411 81.56374697 448.87704937 89.59146711 C448.87799995 96.11774947 448.88211076 102.64402214 448.88845062 109.17030144 C448.90606309 127.67761038 448.91528954 146.18489613 448.91378967 164.69221351 C448.91370976 165.68982437 448.91362985 166.68743523 448.91354752 167.71527672 C448.91346575 168.71410717 448.91338399 169.71293762 448.91329975 170.74203566 C448.91248697 186.9271208 448.93162278 203.11211286 448.95982425 219.29717109 C448.98855952 235.91989838 449.00236417 252.54258028 449.0006367 269.16533303 C448.99997299 278.49610528 449.00545664 287.82677996 449.0269928 297.15752983 C449.0452131 305.10252459 449.049545 313.04737755 449.03597395 320.99238417 C449.02944842 325.04429716 449.02931188 329.09593819 449.04668045 333.14782524 C449.06243501 336.86145736 449.05952368 340.57460241 449.04211219 344.28822282 C449.03760219 346.2589171 449.05268097 348.22962662 449.06859148 350.20026183 C448.99217724 360.05887722 447.12437702 368.36136378 440.24606705 375.72601891 C433.41036715 381.87187753 426.27899299 384.5046102 417.08588409 384.51453781 C416.35257956 384.51804389 415.61927503 384.52154996 414.86374915 384.52516228 C412.4051955 384.53447022 409.94687904 384.52955455 407.48831558 384.52469444 C405.70834846 384.52843101 403.92838297 384.53303256 402.1484201 384.53842509 C397.25578365 384.55066974 392.3632155 384.55039289 387.47056723 384.54803634 C382.19434776 384.54762854 376.91815031 384.55866379 371.64194107 384.56815147 C361.30414476 384.5847706 350.96637126 384.59026144 340.62856272 384.59137623 C332.22585079 384.59232629 323.8231464 384.5964345 315.42043686 384.60277748 C291.60072629 384.62039256 267.78103375 384.62961596 243.96131662 384.62811653 C242.03477296 384.62799666 242.03477296 384.62799666 240.06930923 384.62787437 C238.78337977 384.62779261 237.4974503 384.62771085 236.17255327 384.62762661 C215.33157802 384.62681369 194.49067504 384.6459523 173.6497207 384.67415111 C152.25382251 384.70287249 130.85795958 384.7166918 109.46204162 384.71496356 C97.44849328 384.71429939 85.4350207 384.7198035 73.42148972 384.74131966 C63.19280178 384.75952164 52.96422394 384.76388685 42.73552683 384.75030081 C37.51708254 384.74376618 32.29884952 384.74367197 27.08042526 384.76100731 C22.30098634 384.776721 17.52192652 384.77389167 12.74249694 384.75643905 C11.01572479 384.75336541 9.28892448 384.75701523 7.56218556 384.7681592 C-3.96262395 384.83759708 -14.08406792 384.21824544 -22.92580795 375.96039391 C-28.54584241 369.70953925 -31.70254407 362.77152152 -31.71432686 354.29947853 C-31.72077575 353.12327832 -31.72722464 351.9470781 -31.73386896 350.73523545 C-31.73077175 349.45217507 -31.72767455 348.16911469 -31.72448349 346.84717369 C-31.72822162 345.46318684 -31.73282379 344.07920211 -31.73821414 342.69522071 C-31.7504396 338.89712986 -31.75018421 335.09912713 -31.74782538 331.3010211 C-31.7474171 327.2027237 -31.75845751 323.10445451 -31.76794052 319.00617027 C-31.78454926 310.97846587 -31.79005002 302.95079084 -31.79116528 294.9230707 C-31.79211586 288.39678834 -31.79622667 281.87051567 -31.80256653 275.34423637 C-31.82017899 256.83692743 -31.82940545 238.32964169 -31.82790558 219.82232431 C-31.82782567 218.82471345 -31.82774576 217.82710259 -31.82766342 216.79926109 C-31.82758166 215.80043064 -31.8274999 214.80160019 -31.82741566 213.77250215 C-31.82660287 197.58741701 -31.84573869 181.40242495 -31.87394015 165.21736673 C-31.90267542 148.59463944 -31.91648008 131.97195753 -31.9147526 115.34920478 C-31.9140889 106.01843253 -31.91957254 96.68775785 -31.9411087 87.35700798 C-31.959329 79.41201322 -31.96366091 71.46716026 -31.95008986 63.52215365 C-31.94356433 59.47024065 -31.94342778 55.41859962 -31.96079636 51.36671257 C-31.97655092 47.65308045 -31.97363958 43.9399354 -31.95622809 40.22631499 C-31.95171809 38.25562072 -31.96679687 36.28491119 -31.98270738 34.31427598 C-31.90629314 24.45566059 -30.03849293 16.15317403 -23.16018295 8.78851891 C-16.32448306 2.64266028 -9.1931089 0.00992762 0 0 Z " fill="#555A6E" transform="translate(47.45705795288086,63.74273109436035)"/>
<path d="M0 0 C1.0999568 -0.00525911 1.0999568 -0.00525911 2.22213495 -0.01062447 C4.68068859 -0.01993241 7.13900505 -0.01501674 9.59756851 -0.01015663 C11.37753564 -0.0138932 13.15750112 -0.01849475 14.937464 -0.02388728 C19.83010045 -0.03613193 24.72266859 -0.03585508 29.61531687 -0.03349853 C34.89153633 -0.03309073 40.16773379 -0.04412598 45.44394302 -0.05361366 C55.78173933 -0.07023279 66.11951283 -0.07572363 76.45732138 -0.07683842 C84.8600333 -0.07778848 93.26273769 -0.08189669 101.66544724 -0.08823967 C125.48515781 -0.10585475 149.30485035 -0.11507815 173.12456748 -0.11357872 C175.05111113 -0.11345885 175.05111113 -0.11345885 177.01657486 -0.11333656 C178.30250433 -0.1132548 179.5884338 -0.11317304 180.91333082 -0.1130888 C201.75430607 -0.11227588 222.59520905 -0.13141449 243.4361634 -0.1596133 C264.83206158 -0.18833468 286.22792452 -0.20215399 307.62384248 -0.20042574 C319.63739081 -0.19976157 331.6508634 -0.20526569 343.66439438 -0.22678185 C353.89308231 -0.24498382 364.12166015 -0.24934904 374.35035726 -0.235763 C379.56880156 -0.22922837 384.78703457 -0.22913416 390.00545883 -0.2464695 C394.78489775 -0.26218319 399.56395758 -0.25935386 404.34338716 -0.24190123 C406.0701593 -0.2388276 407.79695962 -0.24247742 409.52369854 -0.25362138 C421.04850804 -0.32305927 431.16995202 0.29629237 440.01169205 8.55414391 C450.70300001 20.44549664 448.54294205 31.44854867 448.54294205 48.25726891 C290.14294205 48.25726891 131.74294205 48.25726891 -31.45705795 48.25726891 C-31.45705795 17.67204163 -31.45705795 17.67204163 -23.16018295 8.78851891 C-16.32448306 2.64266028 -9.1931089 0.00992762 0 0 Z " fill="#90C73C" transform="translate(47.45705795288086,63.74273109436035)"/>
<path d="M0 0 C10.56 0 21.12 0 32 0 C32.09044982 39.57671989 32.16205159 79.15341256 32.20426132 118.73021504 C32.20926407 123.40396514 32.21444136 128.07771505 32.21972656 132.75146484 C32.2207758 133.68191355 32.22182505 134.61236225 32.22290608 135.57100637 C32.24030528 150.63128983 32.2718403 165.69151214 32.30861118 180.75175934 C32.3460341 196.20811342 32.36823871 211.66443551 32.37635398 227.12083304 C32.38183895 236.65616835 32.39915483 246.19133079 32.43166587 255.72661288 C32.45283042 262.2677481 32.45919565 268.80879412 32.45400551 275.34996109 C32.45144674 279.12236484 32.45533394 282.89446679 32.4768219 286.66681671 C32.49997947 290.76231676 32.49193123 294.85717741 32.48101807 298.95272827 C32.49266943 300.13757573 32.5043208 301.32242318 32.51632524 302.5431751 C32.44724548 312.14271933 30.38534119 320.31405387 23.703125 327.46875 C16.61658185 333.84013742 9.25374977 336.3287464 -0.2421875 336.1953125 C-1.01055939 336.1924826 -1.77893127 336.18965271 -2.57058716 336.18673706 C-5.00555521 336.17561311 -7.44014462 336.1505236 -9.875 336.125 C-11.53384882 336.11496011 -13.19270346 336.10583603 -14.8515625 336.09765625 C-18.90118579 336.07569937 -22.95052887 336.04122406 -27 336 C-24.24490953 334.60587086 -21.47939527 333.36431208 -18.625 332.1875 C-10.77548437 328.66165199 -6.39801023 323.80557422 -3 316 C-0.62075888 309.49887991 -0.71027794 303.29939964 -0.7215271 296.42738342 C-0.7157347 295.15958477 -0.7099423 293.89178612 -0.70397437 292.58556932 C-0.68821416 289.07828213 -0.68474589 285.57107514 -0.68332577 282.06375682 C-0.67962475 278.27718199 -0.66446577 274.4906508 -0.65071106 270.70410156 C-0.62845643 264.14752219 -0.61343235 257.59095839 -0.60334396 251.03434944 C-0.58874744 241.55464397 -0.56320787 232.07499271 -0.53501268 222.59531908 C-0.48956239 207.21452071 -0.45294029 191.83371452 -0.421875 176.45288086 C-0.39168224 161.51341378 -0.35732863 146.57396581 -0.31738281 131.63452148 C-0.31492126 130.71337892 -0.31245972 129.79223635 -0.30992357 128.84318037 C-0.29754883 124.2219966 -0.28509233 119.60081307 -0.27259517 114.97962964 C-0.16905376 76.6531122 -0.08038667 38.32657248 0 0 Z " fill="#453B4A" transform="translate(464,112)"/>
<path d="M0 0 C0.74765625 -0.02578125 1.4953125 -0.0515625 2.265625 -0.078125 C8.16823424 0.7014649 12.0953787 4.22022655 16.17285156 8.30053711 C16.93012543 9.05233498 16.93012543 9.05233498 17.70269775 9.81932068 C19.35613745 11.46470709 20.99854503 13.12062641 22.640625 14.77734375 C23.79259984 15.9298377 24.94509429 17.08181248 26.0980835 18.23329163 C28.50666992 20.64196753 30.9100256 23.05570597 33.30957031 25.47338867 C36.38337944 28.56992222 39.46817981 31.65521985 42.55673599 34.73703671 C44.93516531 37.11212341 47.30857667 39.4921724 49.68041229 41.87384224 C50.81616805 43.01344235 51.95326957 44.1517029 53.09174347 45.28858757 C54.68106642 46.87753922 56.26372823 48.47283916 57.84472656 50.07006836 C58.74596252 50.97591171 59.64719849 51.88175507 60.57574463 52.81504822 C63.70949692 56.32454201 65.0377747 58.927193 65.0625 63.625 C65.07925781 64.35460937 65.09601563 65.08421875 65.11328125 65.8359375 C64.2328577 71.68649402 60.77179511 75.60565506 56.71533203 79.67285156 C56.21573975 80.17770081 55.71614746 80.68255005 55.20141602 81.20269775 C53.5609728 82.85625999 51.90990141 84.49870422 50.2578125 86.140625 C49.10778682 87.29267342 47.95820664 88.44516671 46.80905151 89.5980835 C44.40472717 92.00681996 41.99508789 94.41007396 39.58154297 96.80957031 C36.49231785 99.88168513 33.41678297 102.96709862 30.34509468 106.05673599 C27.97588274 108.43679928 25.5995585 110.80965774 23.221035 113.18041229 C22.08416552 114.31528452 20.94950934 115.45237851 19.81714249 116.59174347 C18.23307079 118.18345384 16.63966418 119.7651985 15.04345703 121.34472656 C14.13983429 122.24596252 13.23621155 123.14719849 12.3052063 124.07574463 C7.80829586 127.9022191 3.71220956 128.70971037 -2.0390625 128.56640625 C-6.74733613 127.89260737 -9.49151357 125.09048497 -12.5625 121.6875 C-14.80688807 118.44560612 -15.43564203 115.80332963 -15.5625 111.9375 C-15.59988281 111.19886719 -15.63726562 110.46023437 -15.67578125 109.69921875 C-14.46177166 102.71587916 -7.78734254 97.52737398 -2.984375 92.7890625 C-2.19097717 91.99849457 -1.39757935 91.20792664 -0.58013916 90.3934021 C1.94189761 87.88251324 4.47081739 85.37868876 7 82.875 C8.71660562 81.16843112 10.43275659 79.46140478 12.1484375 77.75390625 C16.3437074 73.58062523 20.54464244 69.41311432 24.75 65.25 C23.3527054 62.08422712 21.71704543 59.98469788 19.25 57.57055664 C18.53585938 56.86625015 17.82171875 56.16194366 17.0859375 55.43629456 C16.31507812 54.68516891 15.54421875 53.93404327 14.75 53.16015625 C13.12488218 51.55545786 11.4998859 49.95063636 9.875 48.34570312 C7.30978788 45.82401502 4.74217168 43.30483552 2.171875 40.78833008 C-0.30851478 38.35620708 -2.77964133 35.91496123 -5.25 33.47265625 C-6.02085938 32.72355484 -6.79171875 31.97445343 -7.5859375 31.20265198 C-8.30007812 30.49519333 -9.01421875 29.78773468 -9.75 29.05883789 C-10.69359375 28.13428551 -10.69359375 28.13428551 -11.65625 27.1910553 C-15.09737039 23.00005611 -15.69732373 18.71509236 -15.56640625 13.4609375 C-14.88903941 8.72773218 -12.08229084 5.9832086 -8.625 2.9375 C-5.50148967 0.71816371 -3.78313951 0.07720693 0 0 Z " fill="#D6E5EF" transform="translate(79.25,143.75)"/>
<path d="M0 0 C0.70266495 -0.0049649 1.4053299 -0.00992981 2.12928772 -0.01504517 C4.45957411 -0.0296782 6.78979235 -0.03647172 9.12011719 -0.04199219 C10.73956301 -0.04774404 12.35900881 -0.05350177 13.97845459 -0.05926514 C17.37805499 -0.06977928 20.77763172 -0.0756188 24.17724609 -0.07910156 C28.52622633 -0.08457797 32.87489215 -0.10858578 37.22377396 -0.13707352 C40.57129823 -0.15573287 43.9187474 -0.16090731 47.26631927 -0.16243744 C48.86904361 -0.16545859 50.47176679 -0.17346898 52.07444 -0.18662262 C54.32200212 -0.20374762 56.56880471 -0.20178721 58.81640625 -0.1953125 C60.09388733 -0.19895813 61.37136841 -0.20260376 62.68756104 -0.20635986 C67.13552458 0.26342786 70.52368608 1.62712022 73.81152344 4.69628906 C78.00063771 10.17436157 78.78851621 13.347388 78.16699219 20.16113281 C76.34164627 25.43435434 73.55980016 27.95804367 69.16699219 31.16113281 C65.67547407 32.32497219 62.90560784 32.30961657 59.22045898 32.33813477 C58.51764801 32.34470596 57.81483704 32.35127716 57.09072876 32.35804749 C54.76588836 32.37775073 52.44111246 32.38943626 50.11621094 32.39941406 C48.92350554 32.40552735 48.92350554 32.40552735 47.70670509 32.41176414 C43.49823899 32.432612 39.28980538 32.44691937 35.08129883 32.45629883 C30.74010065 32.46736192 26.39941522 32.50176391 22.05839825 32.54147053 C18.71516482 32.56764506 15.37205345 32.57599137 12.02872658 32.57958031 C10.42877552 32.58444396 8.82882983 32.59605176 7.22897911 32.6146183 C4.98614491 32.63902938 2.74463602 32.63804198 0.50170898 32.63110352 C-1.40998833 32.63990288 -1.40998833 32.63990288 -3.36030579 32.64888 C-8.61003609 31.91154602 -11.65460073 29.46693526 -15.14550781 25.59863281 C-18.28986717 21.05678041 -18.49338865 16.51755516 -17.83300781 11.16113281 C-13.76027023 3.16649979 -8.66892759 0.04645023 0 0 Z " fill="#D6E5EF" transform="translate(161.8330078125,239.8388671875)"/>
<path d="M0 0 C4.94378949 -0.09975053 9.88697822 -0.17187902 14.83154297 -0.21972656 C16.50938131 -0.23969699 18.18715136 -0.26688332 19.86474609 -0.30175781 C31.85893023 -0.54464183 42.19845513 -0.36123058 51.46875 8.296875 C59.15170324 16.84220054 60.2945242 25.21790723 60.125 36.375 C60.08375 40.21125 60.0425 44.0475 60 48 C49.44 48 38.88 48 28 48 C27.75 37.0625 27.75 37.0625 27.70214844 33.67211914 C27.36769642 23.71513056 24.07037654 15.1801163 17 8 C11.74686913 4.16004905 6.32933802 2.2658676 0 1 C0 0.67 0 0.34 0 0 Z " fill="#5FAA46" transform="translate(436,64)"/>
<path d="M0 0 C4.0743356 0.84881992 5.54405875 2.30225596 8 5.625 C8.625 8.625 8.625 8.625 8 11.625 C5.54405875 14.94774404 4.0743356 16.40118008 0 17.25 C-4.0743356 16.40118008 -5.54405875 14.94774404 -8 11.625 C-8.625 8.625 -8.625 8.625 -8 5.625 C-5.54405875 2.30225596 -4.0743356 0.84881992 0 0 Z " fill="#9A63A4" transform="translate(120,79.375)"/>
<path d="M0 0 C4.0743356 0.84881992 5.54405875 2.30225596 8 5.625 C8.625 8.625 8.625 8.625 8 11.625 C5.54405875 14.94774404 4.0743356 16.40118008 0 17.25 C-4.0743356 16.40118008 -5.54405875 14.94774404 -8 11.625 C-8.625 8.625 -8.625 8.625 -8 5.625 C-5.54405875 2.30225596 -4.0743356 0.84881992 0 0 Z " fill="#9A63A4" transform="translate(88,79.375)"/>
<path d="M0 0 C4.0743356 0.84881992 5.54405875 2.30225596 8 5.625 C8.625 8.625 8.625 8.625 8 11.625 C5.54405875 14.94774404 4.0743356 16.40118008 0 17.25 C-4.0743356 16.40118008 -5.54405875 14.94774404 -8 11.625 C-8.625 8.625 -8.625 8.625 -8 5.625 C-5.54405875 2.30225596 -4.0743356 0.84881992 0 0 Z " fill="#9A63A4" transform="translate(56,79.375)"/>
<path d="M0 0 C0 3 0 3 -1.75 5.04296875 C-2.4925 5.75066406 -3.235 6.45835938 -4 7.1875 C-4.7425 7.90292969 -5.485 8.61835937 -6.25 9.35546875 C-7.11625 10.16951172 -7.11625 10.16951172 -8 11 C-8.66 10.67 -9.32 10.34 -10 10 C-3.84965831 2.51708428 -3.84965831 2.51708428 0 0 Z " fill="#83C936" transform="translate(30,68)"/>
</svg>
