<svg xmlns="http://www.w3.org/2000/svg" xmlns:v="https://svgstorm.com"
viewBox = "0 0 512 512"
width="512"
height="512">
<g fill="None" fill-opacity="0.0" stroke="#000000" stroke-opacity="0.00" stroke-width="0.3"><path d="
M 0.00 98.00 
C 9.54 81.92 22.11 70.32 36.75 56.75 C 51.40 43.19 59.06 31.07 76.08 18.08 C 93.11 5.10 122.75 10.79 146.00 10.00 C 169.25 9.21 199.38 10.42 224.00 10.00 C 248.62 9.58 276.93 10.33 302.00 10.00 C 327.07 9.67 355.10 10.46 380.00 10.00 C 404.90 9.54 434.00 10.89 458.00 10.00 C 482.00 9.11 503.89 9.60 512.00 34.00
L 512.00 0.00
L 0.00 0.00
L 0.00 98.00 Z"/>
</g>
<g fill="None" fill-opacity="0.0" stroke="#8AD53A" stroke-opacity="0.99" stroke-width="0.3"><path d="
M 0.00 98.00 
L 0.00 478.00
C 10.96 507.91 40.40 501.96 69.00 502.00 C 97.60 502.04 132.17 501.99 162.00 502.00 C 191.83 502.01 225.85 502.01 256.00 502.00 C 286.15 501.99 319.22 502.04 349.00 502.00 C 378.78 501.96 413.39 502.10 442.00 502.00 C 470.61 501.90 501.08 508.18 512.00 478.00
L 512.00 34.00
C 503.89 9.60 482.00 9.11 458.00 10.00 C 434.00 10.89 404.90 9.54 380.00 10.00 C 355.10 10.46 327.07 9.67 302.00 10.00 C 276.93 10.33 248.62 9.58 224.00 10.00 C 199.38 10.42 169.25 9.21 146.00 10.00 C 122.75 10.79 93.11 5.10 76.08 18.08 C 59.06 31.07 51.40 43.19 36.75 56.75 C 22.11 70.32 9.54 81.92 0.00 98.00
M 60.00 465.00 
C 47.05 465.00 34.01 467.18 36.00 452.00 C 37.99 436.82 35.08 427.75 36.00 414.00 C 36.92 400.25 35.59 390.07 36.00 377.00 C 36.41 363.93 35.80 351.80 36.00 339.00 C 36.20 326.20 35.88 313.62 36.00 301.00 C 36.12 288.38 35.88 276.50 36.00 264.00 C 36.12 251.50 35.80 238.40 36.00 226.00 C 36.20 213.60 35.58 200.11 36.00 188.00 C 36.42 175.89 35.06 162.51 36.00 151.00 C 36.94 139.49 33.97 123.33 36.00 113.00 C 38.03 102.67 48.47 100.84 53.75 92.75 C 59.04 84.66 66.40 82.37 72.25 74.25 C 78.10 66.12 85.14 64.61 91.25 55.25 C 97.35 45.88 110.37 47.00 121.00 47.00
C 134.67 47.00 148.33 47.00 162.00 47.00 C 175.67 47.00 189.33 47.01 203.00 47.00 C 216.67 46.99 230.33 47.02 244.00 47.00 C 257.67 46.98 271.33 47.04 285.00 47.00 C 298.67 46.96 312.33 47.09 326.00 47.00 C 339.67 46.91 353.34 47.19 367.00 47.00 C 380.66 46.81 394.34 47.43 408.00 47.00 C 421.66 46.57 435.35 47.95 449.00 47.00 C 462.65 46.05 478.10 44.91 476.00 61.00 C 473.90 77.09 476.95 87.24 476.00 102.00 C 475.05 116.76 476.44 128.85 476.00 143.00 C 475.56 157.15 476.21 170.13 476.00 184.00 C 475.79 197.87 476.12 211.28 476.00 225.00 C 475.88 238.72 476.11 252.39 476.00 266.00 C 475.89 279.61 476.17 293.54 476.00 307.00 C 475.83 320.46 476.35 334.82 476.00 348.00 C 475.65 361.18 476.76 376.43 476.00 389.00 C 475.24 401.57 477.67 418.76 476.00 430.00 C 474.33 441.24 482.35 462.00 469.99 464.99 C 457.63 467.98 442.08 463.65 429.00 465.00 C 415.92 466.35 401.40 464.39 388.00 465.00 C 374.60 465.61 360.55 464.73 347.00 465.00 C 333.45 465.27 319.61 464.88 306.00 465.00 C 292.39 465.12 278.64 464.94 265.00 465.00 C 251.36 465.06 237.66 464.97 224.00 465.00 C 210.34 465.03 196.66 464.99 183.00 465.00 C 169.34 465.01 155.66 465.00 142.00 465.00 C 128.34 465.00 114.67 465.00 101.00 465.00 C 87.33 465.00 73.67 465.00 60.00 465.00 Z"/>
</g>
<g fill="None" fill-opacity="0.0" stroke="#31AA45" stroke-opacity="1.00" stroke-width="0.3"><path d="
M 60.00 465.00 
C 53.03 462.26 58.15 447.34 57.00 440.00 C 55.85 432.66 57.54 419.50 57.00 411.00 C 56.46 402.50 57.23 392.07 57.00 383.00 C 56.77 373.93 57.11 363.30 57.00 354.00 C 56.89 344.70 57.05 335.42 57.00 326.00 C 56.95 316.58 57.03 306.46 57.00 297.00 C 56.97 287.54 57.02 278.48 57.00 269.00 C 56.98 259.52 57.03 249.47 57.00 240.00 C 56.97 230.53 57.07 221.44 57.00 212.00 C 56.93 202.56 57.15 192.37 57.00 183.00 C 56.85 173.63 57.33 164.19 57.00 155.00 C 56.67 145.81 57.71 134.82 57.00 126.00 C 56.29 117.18 56.73 109.23 63.25 104.25 C 69.76 99.26 72.11 94.43 77.75 89.75 C 83.40 85.07 86.44 80.04 91.75 75.75 C 97.06 71.46 100.89 64.89 106.25 61.25 C 111.60 57.60 115.45 49.05 121.00 47.00
C 110.37 47.00 97.35 45.88 91.25 55.25 C 85.14 64.61 78.10 66.12 72.25 74.25 C 66.40 82.37 59.04 84.66 53.75 92.75 C 48.47 100.84 38.03 102.67 36.00 113.00 C 33.97 123.33 36.94 139.49 36.00 151.00 C 35.06 162.51 36.42 175.89 36.00 188.00 C 35.58 200.11 36.20 213.60 36.00 226.00 C 35.80 238.40 36.12 251.50 36.00 264.00 C 35.88 276.50 36.12 288.38 36.00 301.00 C 35.88 313.62 36.20 326.20 36.00 339.00 C 35.80 351.80 36.41 363.93 36.00 377.00 C 35.59 390.07 36.92 400.25 36.00 414.00 C 35.08 427.75 37.99 436.82 36.00 452.00 C 34.01 467.18 47.05 465.00 60.00 465.00 Z"/>
</g>
<g fill="None" fill-opacity="0.0" stroke="#3DBC56" stroke-opacity="1.00" stroke-width="0.3"><path d="
M 60.00 465.00 
C 73.67 465.00 87.33 465.00 101.00 465.00 C 114.67 465.00 128.34 465.00 142.00 465.00 C 155.66 465.00 169.34 465.01 183.00 465.00 C 196.66 464.99 210.34 465.03 224.00 465.00 C 237.66 464.97 251.36 465.06 265.00 465.00 C 278.64 464.94 292.39 465.12 306.00 465.00 C 319.61 464.88 333.45 465.27 347.00 465.00 C 360.55 464.73 374.60 465.61 388.00 465.00 C 401.40 464.39 415.92 466.35 429.00 465.00 C 442.08 463.65 457.63 467.98 469.99 464.99 C 482.35 462.00 474.33 441.24 476.00 430.00 C 477.67 418.76 475.24 401.57 476.00 389.00 C 476.76 376.43 475.65 361.18 476.00 348.00 C 476.35 334.82 475.83 320.46 476.00 307.00 C 476.17 293.54 475.89 279.61 476.00 266.00 C 476.11 252.39 475.88 238.72 476.00 225.00 C 476.12 211.28 475.79 197.87 476.00 184.00 C 476.21 170.13 475.56 157.15 476.00 143.00 C 476.44 128.85 475.05 116.76 476.00 102.00 C 476.95 87.24 473.90 77.09 476.00 61.00 C 478.10 44.91 462.65 46.05 449.00 47.00 C 435.35 47.95 421.66 46.57 408.00 47.00 C 394.34 47.43 380.66 46.81 367.00 47.00 C 353.34 47.19 339.67 46.91 326.00 47.00 C 312.33 47.09 298.67 46.96 285.00 47.00 C 271.33 47.04 257.67 46.98 244.00 47.00 C 230.33 47.02 216.67 46.99 203.00 47.00 C 189.33 47.01 175.67 47.00 162.00 47.00 C 148.33 47.00 134.67 47.00 121.00 47.00
C 115.45 49.05 111.60 57.60 106.25 61.25 C 100.89 64.89 97.06 71.46 91.75 75.75 C 86.44 80.04 83.40 85.07 77.75 89.75 C 72.11 94.43 69.76 99.26 63.25 104.25 C 56.73 109.23 56.29 117.18 57.00 126.00 C 57.71 134.82 56.67 145.81 57.00 155.00 C 57.33 164.19 56.85 173.63 57.00 183.00 C 57.15 192.37 56.93 202.56 57.00 212.00 C 57.07 221.44 56.97 230.53 57.00 240.00 C 57.03 249.47 56.98 259.52 57.00 269.00 C 57.02 278.48 56.97 287.54 57.00 297.00 C 57.03 306.46 56.95 316.58 57.00 326.00 C 57.05 335.42 56.89 344.70 57.00 354.00 C 57.11 363.30 56.77 373.93 57.00 383.00 C 57.23 392.07 56.46 402.50 57.00 411.00 C 57.54 419.50 55.85 432.66 57.00 440.00 C 58.15 447.34 53.03 462.26 60.00 465.00
M 160.00 129.00 
C 161.88 149.81 161.88 174.19 160.00 195.00
C 163.62 195.00 167.40 194.67 171.00 195.00
C 173.02 182.62 182.14 175.08 194.00 173.00
C 195.30 165.27 191.69 156.43 195.31 149.31 C 198.92 142.18 206.98 145.60 209.00 152.00
C 210.71 157.41 210.56 165.82 210.00 172.00
C 214.00 172.00 218.00 172.00 222.00 172.00
C 223.02 165.21 217.88 144.88 229.07 145.07 C 240.27 145.27 237.63 165.04 237.00 172.00
C 241.00 172.00 245.00 172.00 249.00 172.00
C 250.78 165.08 244.00 145.25 256.07 145.07 C 268.15 144.90 262.92 164.72 264.00 172.00
C 268.00 172.00 272.00 172.00 276.00 172.00
C 277.93 164.93 270.97 145.88 283.08 145.08 C 295.18 144.27 290.03 164.87 291.00 172.00
C 294.94 172.42 299.08 171.44 303.00 172.00
C 301.49 165.18 301.37 156.07 304.32 149.32 C 307.27 142.57 316.12 145.81 318.00 152.00
C 319.74 157.72 319.59 166.51 319.00 173.00
C 330.93 173.45 339.11 184.40 341.00 195.00
C 352.79 191.22 367.91 197.84 380.00 195.00
C 381.74 192.52 379.98 184.36 380.00 181.00 C 380.02 177.64 381.37 169.17 380.00 166.00
C 357.21 158.40 362.09 120.85 387.02 121.02 C 411.96 121.20 417.92 155.56 395.00 165.00
C 389.20 176.72 404.42 205.02 388.00 210.00
C 375.91 213.67 355.17 212.19 342.00 211.00
C 342.00 214.67 342.00 218.33 342.00 222.00
C 348.19 221.44 356.65 221.31 362.00 223.00
C 367.79 224.83 371.47 232.89 364.75 236.75 C 358.03 240.61 349.26 236.43 342.00 238.00
C 342.00 242.00 342.00 246.00 342.00 250.00
C 349.72 252.10 367.38 244.60 367.99 257.01 C 368.60 269.42 349.89 263.86 342.00 265.00
C 342.00 269.00 342.00 273.00 342.00 277.00
C 349.37 278.57 357.03 274.49 364.02 277.98 C 371.02 281.46 368.47 289.96 362.00 292.00
C 356.59 293.71 348.18 293.56 342.00 293.00
C 342.00 296.67 342.00 300.33 342.00 304.00
C 348.23 303.44 356.60 303.36 362.00 305.00
C 370.11 307.46 370.11 316.54 362.00 319.00
C 357.38 320.40 346.21 321.67 341.00 320.00
C 339.84 332.36 331.03 340.75 319.00 343.00
C 319.56 349.23 319.64 357.59 318.00 363.00
C 315.44 371.44 306.57 371.46 304.00 363.00
C 302.34 357.54 302.44 349.22 303.00 343.00
C 299.00 343.00 295.00 343.00 291.00 343.00
C 289.22 349.92 296.00 369.75 283.93 369.93 C 271.85 370.10 277.08 350.28 276.00 343.00
C 272.00 343.00 268.00 343.00 264.00 343.00
C 262.21 350.26 268.90 369.10 256.78 369.78 C 244.65 370.46 250.13 350.22 249.00 343.00
C 245.00 343.00 241.00 343.00 237.00 343.00
C 237.56 349.23 237.64 357.60 236.00 363.00
C 234.15 369.09 228.35 372.11 223.25 366.75 C 218.15 361.39 225.85 349.45 222.00 344.00
C 218.79 344.01 214.61 343.00 211.00 343.00
C 210.50 343.00 210.00 343.00 210.00 343.00
C 209.74 343.12 209.35 343.95 209.00 344.00
C 207.51 350.70 213.36 369.86 201.93 369.93 C 190.50 369.99 194.00 351.20 194.00 344.00
C 194.00 343.50 194.00 343.00 194.00 343.00
C 182.70 342.10 171.45 331.80 171.00 320.00
C 167.40 320.32 163.62 320.00 160.00 320.00
C 161.79 339.87 161.80 363.14 160.00 383.00
C 164.88 386.92 170.79 390.54 173.00 397.00
C 179.53 400.23 189.63 395.38 197.00 397.00 C 204.37 398.62 214.39 395.78 222.00 397.00
C 222.05 391.09 219.76 377.83 229.07 378.07 C 238.39 378.32 237.07 390.80 237.00 397.00
C 241.00 397.00 245.00 397.00 249.00 397.00
C 249.23 391.03 246.72 378.09 256.07 378.07 C 265.43 378.06 264.23 390.56 264.00 397.00
C 268.00 397.00 272.00 397.00 276.00 397.00
C 268.81 386.60 285.35 372.01 289.92 382.08 C 294.48 392.16 293.06 408.33 284.00 412.00
C 267.79 416.92 246.60 412.31 229.00 413.00 C 211.41 413.69 190.67 414.60 173.00 413.00
C 167.00 420.46 159.10 429.40 148.00 427.00 C 136.90 424.60 130.86 417.05 129.02 406.98 C 127.18 396.90 135.44 386.32 144.00 383.00
C 147.37 375.19 142.38 363.55 144.00 355.00 C 145.62 346.45 143.05 335.76 144.00 327.00 C 144.95 318.24 140.81 308.09 151.00 305.00
C 156.46 303.34 164.78 303.44 171.00 304.00
C 171.00 300.33 171.00 296.67 171.00 293.00
C 164.77 293.56 156.41 293.64 151.00 292.00
C 144.91 290.15 140.97 282.87 147.70 278.70 C 154.44 274.54 163.44 278.30 171.00 277.00
C 171.00 273.00 171.00 269.00 171.00 265.00
C 163.83 262.99 144.56 270.30 144.07 257.93 C 143.58 245.55 163.63 251.18 171.00 250.00
C 171.00 246.00 171.00 242.00 171.00 238.00
C 157.69 239.20 143.38 238.51 130.00 238.00 C 116.62 237.49 101.15 240.45 88.00 238.00
C 83.79 237.22 82.19 234.75 81.00 231.00
C 79.25 225.47 79.30 217.41 80.00 211.00 C 80.70 204.59 78.02 195.17 80.00 189.00
C 58.42 178.24 63.80 144.75 89.00 145.00 C 114.20 145.25 117.57 180.12 96.00 189.00
C 94.43 192.18 95.72 201.36 96.00 205.00 C 96.28 208.64 93.98 219.11 96.00 222.00
C 120.85 223.68 146.20 219.76 171.00 222.00
C 171.00 218.33 171.00 214.67 171.00 211.00
C 164.77 211.56 156.41 211.64 151.00 210.00
C 140.71 206.88 145.06 196.94 144.00 188.00 C 142.94 179.06 145.77 167.87 144.00 159.00 C 142.23 150.13 147.54 137.20 144.00 129.00
C 131.14 124.01 123.73 105.71 133.25 94.25 C 142.78 82.80 159.24 80.65 169.30 93.70 C 179.36 106.75 171.19 120.03 160.00 129.00
M 432.00 129.00 
C 433.46 145.17 432.70 163.87 432.00 180.00 C 431.30 196.13 435.66 216.25 431.00 231.00
C 428.25 239.69 419.23 238.42 411.00 238.00 C 402.77 237.58 392.81 239.26 384.93 237.07 C 377.04 234.88 378.97 221.81 388.00 223.00 C 397.04 224.20 406.89 222.10 416.00 223.00
C 416.00 191.67 416.00 160.33 416.00 129.00
C 410.35 126.81 404.16 120.58 402.00 115.00
C 394.13 111.60 382.65 116.58 374.00 115.00 C 365.35 113.42 354.98 115.83 346.00 115.00 C 337.02 114.17 327.07 115.62 318.00 115.00
C 325.15 125.56 309.74 139.96 304.25 129.75 C 298.76 119.55 302.03 104.49 310.00 100.00
C 318.73 97.24 330.26 99.05 340.00 99.00 C 349.74 98.95 361.24 97.85 371.00 99.00 C 380.76 100.15 393.69 96.01 403.00 99.00
C 408.23 85.04 427.58 78.63 439.75 91.25 C 451.91 103.87 443.91 119.45 432.00 129.00
M 205.00 100.00 
C 212.24 102.43 207.74 114.36 209.00 120.00 C 210.26 125.64 207.59 137.10 198.98 133.02 C 190.36 128.95 190.06 94.98 205.00 100.00
M 232.00 100.00 
C 241.30 102.78 239.94 136.03 227.77 133.21 C 215.60 130.40 224.74 122.25 222.00 115.00 C 219.26 107.75 223.43 97.44 232.00 100.00
M 287.00 100.00 
C 294.26 102.44 289.68 114.40 291.00 120.00 C 292.32 125.60 289.46 137.27 280.93 133.07 C 272.39 128.88 272.05 94.98 287.00 100.00
M 96.00 356.00 
C 117.69 364.93 114.07 399.73 88.93 399.93 C 63.79 400.12 58.48 366.73 80.00 356.00
C 76.87 346.23 80.98 333.38 80.00 323.00 C 79.02 312.62 79.64 299.43 80.00 289.00 C 80.36 278.57 77.59 265.23 81.00 256.00
C 83.81 248.39 92.68 249.47 100.00 250.00 C 107.32 250.53 118.38 248.54 125.22 250.78 C 132.06 253.02 129.84 265.66 121.99 264.99 C 114.14 264.32 104.06 265.51 96.00 265.00
C 96.00 269.00 96.00 273.00 96.00 277.00
C 104.19 280.03 127.86 270.23 128.99 284.01 C 130.12 297.79 104.23 290.09 96.00 292.00
C 96.00 313.33 96.00 334.67 96.00 356.00
M 431.00 257.00 
C 433.94 266.31 431.90 278.64 432.00 289.00 C 432.10 299.36 433.20 311.62 432.00 322.00 C 430.80 332.38 435.17 346.11 432.00 356.00
C 453.54 366.74 448.17 400.27 423.00 400.00 C 397.82 399.72 394.44 364.88 416.00 356.00
C 418.38 351.18 414.76 343.38 416.00 338.00 C 417.24 332.62 415.07 325.54 416.00 320.00
C 407.61 316.75 381.43 327.06 380.03 312.97 C 378.62 298.89 407.71 307.10 416.00 305.00
C 416.00 300.67 416.00 296.33 416.00 292.00
C 407.95 288.82 380.35 299.16 380.01 284.99 C 379.67 270.82 407.67 279.24 416.00 277.00
C 416.00 273.00 416.00 269.00 416.00 265.00
C 407.07 266.42 397.90 263.11 389.00 265.00 C 380.10 266.89 376.53 254.23 384.23 251.23 C 391.93 248.23 402.09 250.45 410.00 250.00 C 417.91 249.55 428.90 248.12 431.00 257.00
M 339.00 397.00 
C 347.27 374.86 383.47 378.93 383.98 404.02 C 384.48 429.12 347.71 435.30 339.00 412.00
C 331.65 408.83 321.51 412.53 313.00 412.00 C 304.49 411.47 302.13 403.74 303.00 396.00 C 303.87 388.26 301.48 378.87 311.07 378.07 C 320.67 377.27 317.59 391.72 318.00 397.00
C 325.00 397.00 332.00 397.00 339.00 397.00 Z"/>
</g>
<g fill="None" fill-opacity="0.0" stroke="#F0D323" stroke-opacity="1.00" stroke-width="0.3"><path d="
M 144.00 129.00 
C 148.34 130.68 154.64 130.55 159.00 129.00
C 159.44 128.84 160.00 129.00 160.00 129.00
C 171.19 120.03 179.36 106.75 169.30 93.70 C 159.24 80.65 142.78 82.80 133.25 94.25 C 123.73 105.71 131.14 124.01 144.00 129.00
M 154.00 100.00 
C 162.63 102.19 158.71 117.37 149.78 114.22 C 140.84 111.07 144.57 97.61 154.00 100.00 Z"/>
</g>
<g fill="None" fill-opacity="0.0" stroke="#F0D324" stroke-opacity="1.00" stroke-width="0.3"><path d="
M 403.00 99.00 
C 402.87 99.35 402.35 99.95 402.00 100.00
C 399.88 103.62 400.55 111.26 402.00 115.00
C 404.16 120.58 410.35 126.81 416.00 129.00
C 420.34 130.68 426.63 130.55 431.00 129.00
C 431.44 128.84 432.00 129.00 432.00 129.00
C 443.91 119.45 451.91 103.87 439.75 91.25 C 427.58 78.63 408.23 85.04 403.00 99.00
M 426.00 100.00 
C 434.45 102.14 431.13 116.84 422.00 114.00 C 412.87 111.16 417.03 97.73 426.00 100.00 Z"/>
</g>
<g fill="None" fill-opacity="0.0" stroke="#73C784" stroke-opacity="1.00" stroke-width="0.3"><path d="
M 310.00 100.00 
C 324.87 97.33 340.97 101.81 356.00 100.00 C 371.03 98.19 387.01 102.16 402.00 100.00
C 402.35 99.95 402.87 99.35 403.00 99.00
C 393.69 96.01 380.76 100.15 371.00 99.00 C 361.24 97.85 349.74 98.95 340.00 99.00 C 330.26 99.05 318.73 97.24 310.00 100.00 Z"/>
</g>
<g fill="None" fill-opacity="0.0" stroke="#4ABD53" stroke-opacity="1.00" stroke-width="0.3"><path d="
M 154.00 100.00 
C 144.57 97.61 140.84 111.07 149.78 114.22 C 158.71 117.37 162.63 102.19 154.00 100.00 Z"/>
</g>
<g fill="None" fill-opacity="0.0" stroke="#DBDCDC" stroke-opacity="1.00" stroke-width="0.3"><path d="
M 205.00 100.00 
C 190.06 94.98 190.36 128.95 198.98 133.02 C 207.59 137.10 210.26 125.64 209.00 120.00 C 207.74 114.36 212.24 102.43 205.00 100.00 Z"/>
</g>
<g fill="None" fill-opacity="0.0" stroke="#DADCDB" stroke-opacity="1.00" stroke-width="0.3"><path d="
M 232.00 100.00 
C 223.43 97.44 219.26 107.75 222.00 115.00 C 224.74 122.25 215.60 130.40 227.77 133.21 C 239.94 136.03 241.30 102.78 232.00 100.00 Z"/>
</g>
<g fill="None" fill-opacity="0.0" stroke="#DCDCDC" stroke-opacity="1.00" stroke-width="0.3"><path d="
M 287.00 100.00 
C 272.05 94.98 272.39 128.88 280.93 133.07 C 289.46 137.27 292.32 125.60 291.00 120.00 C 289.68 114.40 294.26 102.44 287.00 100.00 Z"/>
</g>
<g fill="None" fill-opacity="0.0" stroke="#DCDCDC" stroke-opacity="1.00" stroke-width="0.3"><path d="
M 402.00 115.00 
C 400.55 111.26 399.88 103.62 402.00 100.00
C 387.01 102.16 371.03 98.19 356.00 100.00 C 340.97 101.81 324.87 97.33 310.00 100.00
C 302.03 104.49 298.76 119.55 304.25 129.75 C 309.74 139.96 325.15 125.56 318.00 115.00
C 327.07 115.62 337.02 114.17 346.00 115.00 C 354.98 115.83 365.35 113.42 374.00 115.00 C 382.65 116.58 394.13 111.60 402.00 115.00 Z"/>
</g>
<g fill="None" fill-opacity="0.0" stroke="#45BD54" stroke-opacity="1.00" stroke-width="0.3"><path d="
M 426.00 100.00 
C 417.03 97.73 412.87 111.16 422.00 114.00 C 431.13 116.84 434.45 102.14 426.00 100.00 Z"/>
</g>
<g fill="None" fill-opacity="0.0" stroke="#F0D324" stroke-opacity="1.00" stroke-width="0.3"><path d="
M 380.00 166.00 
C 384.81 167.60 390.47 166.87 395.00 165.00
C 417.92 155.56 411.96 121.20 387.02 121.02 C 362.09 120.85 357.21 158.40 380.00 166.00
M 391.00 137.00 
C 398.90 140.08 392.69 155.19 384.33 150.67 C 375.97 146.15 381.51 133.30 391.00 137.00 Z"/>
</g>
<g fill="None" fill-opacity="0.0" stroke="#DCDCDC" stroke-opacity="1.00" stroke-width="0.3"><path d="
M 151.00 210.00 
C 157.45 211.09 164.47 209.41 171.00 210.00
C 171.00 205.33 171.00 200.67 171.00 196.00
C 168.03 196.27 160.95 197.02 159.00 195.00
C 157.11 174.19 157.12 149.81 159.00 129.00
C 154.64 130.55 148.34 130.68 144.00 129.00
C 147.54 137.20 142.23 150.13 144.00 159.00 C 145.77 167.87 142.94 179.06 144.00 188.00 C 145.06 196.94 140.71 206.88 151.00 210.00 Z"/>
</g>
<g fill="None" fill-opacity="0.0" stroke="#78C889" stroke-opacity="1.00" stroke-width="0.3"><path d="
M 159.00 195.00 
C 159.00 195.05 160.00 195.00 160.00 195.00
C 161.88 174.19 161.88 149.81 160.00 129.00
C 160.00 129.00 159.44 128.84 159.00 129.00
C 157.12 149.81 157.11 174.19 159.00 195.00 Z"/>
</g>
<g fill="None" fill-opacity="0.0" stroke="#DCDCDC" stroke-opacity="1.00" stroke-width="0.3"><path d="
M 431.00 231.00 
C 433.95 214.51 429.32 196.72 431.00 180.00 C 432.68 163.28 429.48 145.77 431.00 129.00
C 426.63 130.55 420.34 130.68 416.00 129.00
C 416.00 160.33 416.00 191.67 416.00 223.00
C 406.89 222.10 397.04 224.20 388.00 223.00 C 378.97 221.81 377.04 234.88 384.93 237.07 C 392.81 239.26 402.77 237.58 411.00 238.00 C 419.23 238.42 428.25 239.69 431.00 231.00 Z"/>
</g>
<g fill="None" fill-opacity="0.0" stroke="#86CB95" stroke-opacity="1.00" stroke-width="0.3"><path d="
M 431.00 231.00 
C 435.66 216.25 431.30 196.13 432.00 180.00 C 432.70 163.87 433.46 145.17 432.00 129.00
C 432.00 129.00 431.44 128.84 431.00 129.00
C 429.48 145.77 432.68 163.28 431.00 180.00 C 429.32 196.72 433.95 214.51 431.00 231.00 Z"/>
</g>
<g fill="None" fill-opacity="0.0" stroke="#47BD53" stroke-opacity="1.00" stroke-width="0.3"><path d="
M 391.00 137.00 
C 381.51 133.30 375.97 146.15 384.33 150.67 C 392.69 155.19 398.90 140.08 391.00 137.00 Z"/>
</g>
<g fill="None" fill-opacity="0.0" stroke="#EFD324" stroke-opacity="1.00" stroke-width="0.3"><path d="
M 80.00 189.00 
C 80.33 189.17 80.95 189.65 81.00 190.00
C 86.42 190.90 90.90 191.10 96.00 189.00
C 117.57 180.12 114.20 145.25 89.00 145.00 C 63.80 144.75 58.42 178.24 80.00 189.00
M 92.00 161.00 
C 99.65 163.98 93.18 179.49 84.93 174.07 C 76.67 168.65 83.27 157.59 92.00 161.00 Z"/>
</g>
<g fill="None" fill-opacity="0.0" stroke="#DCDCDC" stroke-opacity="1.00" stroke-width="0.3"><path d="
M 194.00 173.00 
C 198.40 172.23 204.28 170.95 209.00 172.00
C 208.41 165.49 210.15 158.42 209.00 152.00
C 206.98 145.60 198.92 142.18 195.31 149.31 C 191.69 156.43 195.30 165.27 194.00 173.00 Z"/>
</g>
<g fill="None" fill-opacity="0.0" stroke="#DADCDB" stroke-opacity="1.00" stroke-width="0.3"><path d="
M 222.00 172.00 
C 226.57 171.56 231.41 172.00 236.00 172.00
C 236.50 172.00 237.00 172.00 237.00 172.00
C 237.63 165.04 240.27 145.27 229.07 145.07 C 217.88 144.88 223.02 165.21 222.00 172.00 Z"/>
</g>
<g fill="None" fill-opacity="0.0" stroke="#DCDCDC" stroke-opacity="1.00" stroke-width="0.3"><path d="
M 249.00 172.00 
C 253.69 171.55 259.31 171.55 264.00 172.00
C 262.92 164.72 268.15 144.90 256.07 145.07 C 244.00 145.25 250.78 165.08 249.00 172.00 Z"/>
</g>
<g fill="None" fill-opacity="0.0" stroke="#DCDCDC" stroke-opacity="1.00" stroke-width="0.3"><path d="
M 276.00 172.00 
C 280.69 171.55 286.31 171.55 291.00 172.00
C 290.03 164.87 295.18 144.27 283.08 145.08 C 270.97 145.88 277.93 164.93 276.00 172.00 Z"/>
</g>
<g fill="None" fill-opacity="0.0" stroke="#D9DBDA" stroke-opacity="1.00" stroke-width="0.3"><path d="
M 303.00 172.00 
C 303.35 172.05 303.77 172.95 304.00 173.00
C 308.67 173.00 313.33 173.00 318.00 173.00
C 317.38 166.15 319.15 158.77 318.00 152.00
C 316.12 145.81 307.27 142.57 304.32 149.32 C 301.37 156.07 301.49 165.18 303.00 172.00 Z"/>
</g>
<g fill="None" fill-opacity="0.0" stroke="#8BCC99" stroke-opacity="1.00" stroke-width="0.3"><path d="
M 209.00 172.00 
C 209.00 172.04 210.00 172.00 210.00 172.00
C 210.56 165.82 210.71 157.41 209.00 152.00
C 210.15 158.42 208.41 165.49 209.00 172.00 Z"/>
</g>
<g fill="None" fill-opacity="0.0" stroke="#A9D1B2" stroke-opacity="1.00" stroke-width="0.3"><path d="
M 318.00 173.00 
C 318.50 173.00 319.00 173.00 319.00 173.00
C 319.59 166.51 319.74 157.72 318.00 152.00
C 319.15 158.77 317.38 166.15 318.00 173.00 Z"/>
</g>
<g fill="None" fill-opacity="0.0" stroke="#44BD54" stroke-opacity="1.00" stroke-width="0.3"><path d="
M 92.00 161.00 
C 83.27 157.59 76.67 168.65 84.93 174.07 C 93.18 179.49 99.65 163.98 92.00 161.00 Z"/>
</g>
<g fill="None" fill-opacity="0.0" stroke="#DCDCDC" stroke-opacity="1.00" stroke-width="0.3"><path d="
M 380.00 166.00 
C 381.37 169.17 380.02 177.64 380.00 181.00 C 379.98 184.36 381.74 192.52 380.00 195.00
C 377.63 198.39 366.70 195.63 362.00 196.00 C 357.30 196.37 347.05 196.73 342.00 196.00
C 342.93 200.19 342.00 205.69 342.00 210.00
C 357.01 208.64 373.16 212.51 388.00 210.00
C 404.42 205.02 389.20 176.72 395.00 165.00
C 390.47 166.87 384.81 167.60 380.00 166.00 Z"/>
</g>
<g fill="None" fill-opacity="0.0" stroke="#838384" stroke-opacity="1.00" stroke-width="0.3"><path d="
M 194.00 173.00 
C 182.14 175.08 173.02 182.62 171.00 195.00
C 170.92 195.49 171.00 196.00 171.00 196.00
C 171.00 200.67 171.00 205.33 171.00 210.00
C 171.00 210.50 171.00 211.00 171.00 211.00
C 171.00 214.67 171.00 218.33 171.00 222.00
C 171.00 222.50 171.00 223.00 171.00 223.00
C 171.00 227.67 171.00 232.33 171.00 237.00
C 171.00 237.50 171.00 238.00 171.00 238.00
C 171.00 242.00 171.00 246.00 171.00 250.00
C 171.00 255.00 171.00 260.00 171.00 265.00
C 171.00 269.00 171.00 273.00 171.00 277.00
C 171.00 282.00 171.00 287.00 171.00 292.00
C 171.00 292.50 171.00 293.00 171.00 293.00
C 171.00 296.67 171.00 300.33 171.00 304.00
C 171.00 304.50 171.00 305.00 171.00 305.00
C 171.00 309.67 171.00 314.33 171.00 319.00
C 171.00 319.50 171.00 320.00 171.00 320.00
C 171.45 331.80 182.70 342.10 194.00 343.00
C 199.26 343.42 204.72 343.00 210.00 343.00
C 210.00 343.00 210.50 343.00 211.00 343.00
C 204.77 338.64 198.80 337.97 195.08 329.92 C 191.35 321.88 190.51 313.60 191.00 304.00 C 191.49 294.40 190.92 283.79 191.00 274.00 C 191.08 264.21 191.27 253.84 191.00 244.00 C 190.73 234.16 191.80 223.78 191.00 214.00 C 190.20 204.22 191.85 195.83 194.26 187.26 C 196.67 178.69 206.33 178.54 210.00 173.00
C 209.65 172.95 209.23 172.05 209.00 172.00
C 204.28 170.95 198.40 172.23 194.00 173.00 Z"/>
</g>
<g fill="None" fill-opacity="0.0" stroke="#78A183" stroke-opacity="1.00" stroke-width="0.3"><path d="
M 210.00 173.00 
C 214.09 173.59 218.70 172.32 222.00 172.00
C 218.00 172.00 214.00 172.00 210.00 172.00
C 210.00 172.00 209.00 172.04 209.00 172.00
C 209.23 172.05 209.65 172.95 210.00 173.00 Z"/>
</g>
<g fill="None" fill-opacity="0.0" stroke="#979C9F" stroke-opacity="1.00" stroke-width="0.3"><path d="
M 210.00 173.00 
C 206.33 178.54 196.67 178.69 194.26 187.26 C 191.85 195.83 190.20 204.22 191.00 214.00 C 191.80 223.78 190.73 234.16 191.00 244.00 C 191.27 253.84 191.08 264.21 191.00 274.00 C 190.92 283.79 191.49 294.40 191.00 304.00 C 190.51 313.60 191.35 321.88 195.08 329.92 C 198.80 337.97 204.77 338.64 211.00 343.00
C 214.61 343.00 218.79 344.01 222.00 344.00
C 225.77 343.99 231.48 343.00 236.00 343.00
C 236.50 343.00 237.00 343.00 237.00 343.00
C 241.00 343.00 245.00 343.00 249.00 343.00
C 254.00 343.00 259.00 343.00 264.00 343.00
C 268.00 343.00 272.00 343.00 276.00 343.00
C 281.00 343.00 286.00 343.00 291.00 343.00
C 295.00 343.00 299.00 343.00 303.00 343.00
C 303.50 343.00 304.00 343.00 304.00 343.00
C 308.67 343.00 313.33 343.00 318.00 343.00
C 318.50 343.00 319.00 343.00 319.00 343.00
C 331.03 340.75 339.84 332.36 341.00 320.00
C 341.03 319.65 341.65 319.05 342.00 319.00
C 342.93 314.81 342.00 309.31 342.00 305.00
C 342.00 304.50 342.00 304.00 342.00 304.00
C 342.00 300.33 342.00 296.67 342.00 293.00
C 342.00 292.50 342.00 292.00 342.00 292.00
C 342.00 287.00 342.00 282.00 342.00 277.00
C 342.00 273.00 342.00 269.00 342.00 265.00
C 342.00 260.00 342.00 255.00 342.00 250.00
C 342.00 246.00 342.00 242.00 342.00 238.00
C 342.00 233.00 342.00 228.00 342.00 223.00
C 342.00 222.50 342.00 222.00 342.00 222.00
C 342.00 218.33 342.00 214.67 342.00 211.00
C 342.00 210.50 342.00 210.00 342.00 210.00
C 342.00 205.69 342.93 200.19 342.00 196.00
C 341.65 195.95 341.06 195.35 341.00 195.00
C 339.11 184.40 330.93 173.45 319.00 173.00
C 319.00 173.00 318.50 173.00 318.00 173.00
C 313.33 173.00 308.67 173.00 304.00 173.00
C 299.59 173.00 294.66 172.35 291.00 172.00
C 286.31 171.55 280.69 171.55 276.00 172.00
C 272.23 172.37 267.71 172.36 264.00 172.00
C 259.31 171.55 253.69 171.55 249.00 172.00
C 244.91 172.40 240.02 172.39 236.00 172.00
C 231.41 172.00 226.57 171.56 222.00 172.00
C 218.70 172.32 214.09 173.59 210.00 173.00
M 212.00 312.00 
C 194.61 307.69 204.50 288.72 202.00 273.00 C 199.50 257.28 205.02 242.81 202.00 224.00 C 198.98 205.19 214.37 203.00 231.00 203.00
C 252.63 203.00 266.60 204.70 289.00 203.00 C 311.40 201.30 312.83 219.16 311.00 239.00 C 309.17 258.84 312.06 276.76 311.00 297.00 C 309.94 317.24 285.73 314.26 269.00 313.00 C 252.27 311.74 228.13 316.00 212.00 312.00 Z"/>
</g>
<g fill="None" fill-opacity="0.0" stroke="#74AA83" stroke-opacity="1.00" stroke-width="0.3"><path d="
M 249.00 172.00 
C 245.00 172.00 241.00 172.00 237.00 172.00
C 237.00 172.00 236.50 172.00 236.00 172.00
C 240.02 172.39 244.91 172.40 249.00 172.00 Z"/>
</g>
<g fill="None" fill-opacity="0.0" stroke="#70AA80" stroke-opacity="1.00" stroke-width="0.3"><path d="
M 276.00 172.00 
C 272.00 172.00 268.00 172.00 264.00 172.00
C 267.71 172.36 272.23 172.37 276.00 172.00 Z"/>
</g>
<g fill="None" fill-opacity="0.0" stroke="#74AB83" stroke-opacity="1.00" stroke-width="0.3"><path d="
M 304.00 173.00 
C 303.77 172.95 303.35 172.05 303.00 172.00
C 299.08 171.44 294.94 172.42 291.00 172.00
C 294.66 172.35 299.59 173.00 304.00 173.00 Z"/>
</g>
<g fill="None" fill-opacity="0.0" stroke="#86CB95" stroke-opacity="1.00" stroke-width="0.3"><path d="
M 81.00 231.00 
C 78.63 217.75 82.92 203.33 81.00 190.00
C 80.95 189.65 80.33 189.17 80.00 189.00
C 78.02 195.17 80.70 204.59 80.00 211.00 C 79.30 217.41 79.25 225.47 81.00 231.00 Z"/>
</g>
<g fill="None" fill-opacity="0.0" stroke="#DCDCDC" stroke-opacity="1.00" stroke-width="0.3"><path d="
M 81.00 190.00 
C 82.92 203.33 78.63 217.75 81.00 231.00
C 82.19 234.75 83.79 237.22 88.00 238.00
C 100.65 239.15 115.40 235.57 129.00 237.00 C 142.60 238.43 157.32 235.76 171.00 237.00
C 171.00 232.33 171.00 227.67 171.00 223.00
C 164.98 223.54 157.97 222.93 152.00 223.00 C 146.03 223.07 138.68 223.34 133.00 223.00 C 127.32 222.66 118.96 223.99 114.00 223.00 C 109.04 222.01 98.64 225.77 96.00 222.00
C 93.98 219.11 96.28 208.64 96.00 205.00 C 95.72 201.36 94.43 192.18 96.00 189.00
C 90.90 191.10 86.42 190.90 81.00 190.00 Z"/>
</g>
<g fill="None" fill-opacity="0.0" stroke="#C4D8C8" stroke-opacity="1.00" stroke-width="0.3"><path d="
M 171.00 196.00 
C 171.00 196.00 170.92 195.49 171.00 195.00
C 167.40 194.67 163.62 195.00 160.00 195.00
C 160.00 195.00 159.00 195.05 159.00 195.00
C 160.95 197.02 168.03 196.27 171.00 196.00 Z"/>
</g>
<g fill="None" fill-opacity="0.0" stroke="#C3D7C7" stroke-opacity="1.00" stroke-width="0.3"><path d="
M 342.00 196.00 
C 347.05 196.73 357.30 196.37 362.00 196.00 C 366.70 195.63 377.63 198.39 380.00 195.00
C 367.91 197.84 352.79 191.22 341.00 195.00
C 341.06 195.35 341.65 195.95 342.00 196.00 Z"/>
</g>
<g fill="None" fill-opacity="0.0" stroke="#414356" stroke-opacity="1.00" stroke-width="0.3"><path d="
M 212.00 312.00 
C 217.66 312.70 225.12 312.30 230.00 311.00
C 216.37 299.66 222.17 274.49 222.00 257.00 C 221.83 239.51 216.61 214.68 231.00 203.00
C 214.37 203.00 198.98 205.19 202.00 224.00 C 205.02 242.81 199.50 257.28 202.00 273.00 C 204.50 288.72 194.61 307.69 212.00 312.00 Z"/>
</g>
<g fill="None" fill-opacity="0.0" stroke="#585A60" stroke-opacity="1.00" stroke-width="0.3"><path d="
M 212.00 312.00 
C 228.13 316.00 252.27 311.74 269.00 313.00 C 285.73 314.26 309.94 317.24 311.00 297.00 C 312.06 276.76 309.17 258.84 311.00 239.00 C 312.83 219.16 311.40 201.30 289.00 203.00 C 266.60 204.70 252.63 203.00 231.00 203.00
C 216.61 214.68 221.83 239.51 222.00 257.00 C 222.17 274.49 216.37 299.66 230.00 311.00
C 225.12 312.30 217.66 312.70 212.00 312.00 Z"/>
</g>
<g fill="None" fill-opacity="0.0" stroke="#9BCFA5" stroke-opacity="1.00" stroke-width="0.3"><path d="
M 171.00 211.00 
C 171.00 211.00 171.00 210.50 171.00 210.00
C 164.47 209.41 157.45 211.09 151.00 210.00
C 156.41 211.64 164.77 211.56 171.00 211.00 Z"/>
</g>
<g fill="None" fill-opacity="0.0" stroke="#9BCFA5" stroke-opacity="1.00" stroke-width="0.3"><path d="
M 342.00 211.00 
C 355.17 212.19 375.91 213.67 388.00 210.00
C 373.16 212.51 357.01 208.64 342.00 210.00
C 342.00 210.00 342.00 210.50 342.00 211.00 Z"/>
</g>
<g fill="None" fill-opacity="0.0" stroke="#95CEA1" stroke-opacity="1.00" stroke-width="0.3"><path d="
M 171.00 223.00 
C 171.00 223.00 171.00 222.50 171.00 222.00
C 146.20 219.76 120.85 223.68 96.00 222.00
C 98.64 225.77 109.04 222.01 114.00 223.00 C 118.96 223.99 127.32 222.66 133.00 223.00 C 138.68 223.34 146.03 223.07 152.00 223.00 C 157.97 222.93 164.98 223.54 171.00 223.00 Z"/>
</g>
<g fill="None" fill-opacity="0.0" stroke="#96CEA1" stroke-opacity="1.00" stroke-width="0.3"><path d="
M 342.00 223.00 
C 348.51 223.59 355.58 221.85 362.00 223.00
C 356.65 221.31 348.19 221.44 342.00 222.00
C 342.00 222.00 342.00 222.50 342.00 223.00 Z"/>
</g>
<g fill="None" fill-opacity="0.0" stroke="#DBDCDC" stroke-opacity="1.00" stroke-width="0.3"><path d="
M 342.00 238.00 
C 349.26 236.43 358.03 240.61 364.75 236.75 C 371.47 232.89 367.79 224.83 362.00 223.00
C 355.58 221.85 348.51 223.59 342.00 223.00
C 342.00 228.00 342.00 233.00 342.00 238.00 Z"/>
</g>
<g fill="None" fill-opacity="0.0" stroke="#CDD9D0" stroke-opacity="1.00" stroke-width="0.3"><path d="
M 88.00 238.00 
C 101.15 240.45 116.62 237.49 130.00 238.00 C 143.38 238.51 157.69 239.20 171.00 238.00
C 171.00 238.00 171.00 237.50 171.00 237.00
C 157.32 235.76 142.60 238.43 129.00 237.00 C 115.40 235.57 100.65 239.15 88.00 238.00 Z"/>
</g>
<g fill="None" fill-opacity="0.0" stroke="#DCDCDC" stroke-opacity="1.00" stroke-width="0.3"><path d="
M 81.00 256.00 
C 77.52 271.73 83.16 288.93 81.00 305.00 C 78.84 321.07 83.32 338.88 81.00 355.00
C 86.42 354.10 90.90 353.90 96.00 356.00
C 96.00 334.67 96.00 313.33 96.00 292.00
C 104.23 290.09 130.12 297.79 128.99 284.01 C 127.86 270.23 104.19 280.03 96.00 277.00
C 96.00 273.00 96.00 269.00 96.00 265.00
C 104.06 265.51 114.14 264.32 121.99 264.99 C 129.84 265.66 132.06 253.02 125.22 250.78 C 118.38 248.54 107.32 250.53 100.00 250.00 C 92.68 249.47 83.81 248.39 81.00 256.00 Z"/>
</g>
<g fill="None" fill-opacity="0.0" stroke="#DBDCDB" stroke-opacity="1.00" stroke-width="0.3"><path d="
M 171.00 265.00 
C 171.00 260.00 171.00 255.00 171.00 250.00
C 163.63 251.18 143.58 245.55 144.07 257.93 C 144.56 270.30 163.83 262.99 171.00 265.00 Z"/>
</g>
<g fill="None" fill-opacity="0.0" stroke="#DCDCDC" stroke-opacity="1.00" stroke-width="0.3"><path d="
M 342.00 265.00 
C 349.89 263.86 368.60 269.42 367.99 257.01 C 367.38 244.60 349.72 252.10 342.00 250.00
C 342.00 255.00 342.00 260.00 342.00 265.00 Z"/>
</g>
<g fill="None" fill-opacity="0.0" stroke="#DCDCDC" stroke-opacity="1.00" stroke-width="0.3"><path d="
M 416.00 356.00 
C 421.09 353.90 425.55 354.10 431.00 355.00
C 428.69 339.03 432.93 322.01 431.00 306.00 C 429.07 289.99 433.84 272.84 431.00 257.00
C 428.90 248.12 417.91 249.55 410.00 250.00 C 402.09 250.45 391.93 248.23 384.23 251.23 C 376.53 254.23 380.10 266.89 389.00 265.00 C 397.90 263.11 407.07 266.42 416.00 265.00
C 416.00 269.00 416.00 273.00 416.00 277.00
C 407.67 279.24 379.67 270.82 380.01 284.99 C 380.35 299.16 407.95 288.82 416.00 292.00
C 416.00 296.33 416.00 300.67 416.00 305.00
C 407.71 307.10 378.62 298.89 380.03 312.97 C 381.43 327.06 407.61 316.75 416.00 320.00
C 415.07 325.54 417.24 332.62 416.00 338.00 C 414.76 343.38 418.38 351.18 416.00 356.00 Z"/>
</g>
<g fill="None" fill-opacity="0.0" stroke="#86CB95" stroke-opacity="1.00" stroke-width="0.3"><path d="
M 80.00 356.00 
C 80.33 355.83 80.95 355.35 81.00 355.00
C 83.32 338.88 78.84 321.07 81.00 305.00 C 83.16 288.93 77.52 271.73 81.00 256.00
C 77.59 265.23 80.36 278.57 80.00 289.00 C 79.64 299.43 79.02 312.62 80.00 323.00 C 80.98 333.38 76.87 346.23 80.00 356.00 Z"/>
</g>
<g fill="None" fill-opacity="0.0" stroke="#86CB95" stroke-opacity="1.00" stroke-width="0.3"><path d="
M 431.00 355.00 
C 431.05 355.35 431.67 355.83 432.00 356.00
C 435.17 346.11 430.80 332.38 432.00 322.00 C 433.20 311.62 432.10 299.36 432.00 289.00 C 431.90 278.64 433.94 266.31 431.00 257.00
C 433.84 272.84 429.07 289.99 431.00 306.00 C 432.93 322.01 428.69 339.03 431.00 355.00 Z"/>
</g>
<g fill="None" fill-opacity="0.0" stroke="#DBDCDB" stroke-opacity="1.00" stroke-width="0.3"><path d="
M 151.00 292.00 
C 157.45 293.09 164.47 291.41 171.00 292.00
C 171.00 287.00 171.00 282.00 171.00 277.00
C 163.44 278.30 154.44 274.54 147.70 278.70 C 140.97 282.87 144.91 290.15 151.00 292.00 Z"/>
</g>
<g fill="None" fill-opacity="0.0" stroke="#DCDCDC" stroke-opacity="1.00" stroke-width="0.3"><path d="
M 342.00 292.00 
C 348.51 291.41 355.58 293.15 362.00 292.00
C 368.47 289.96 371.02 281.46 364.02 277.98 C 357.03 274.49 349.37 278.57 342.00 277.00
C 342.00 282.00 342.00 287.00 342.00 292.00 Z"/>
</g>
<g fill="None" fill-opacity="0.0" stroke="#8BCC99" stroke-opacity="1.00" stroke-width="0.3"><path d="
M 171.00 293.00 
C 171.00 293.00 171.00 292.50 171.00 292.00
C 164.47 291.41 157.45 293.09 151.00 292.00
C 156.41 293.64 164.77 293.56 171.00 293.00 Z"/>
</g>
<g fill="None" fill-opacity="0.0" stroke="#8BCC99" stroke-opacity="1.00" stroke-width="0.3"><path d="
M 342.00 293.00 
C 348.18 293.56 356.59 293.71 362.00 292.00
C 355.58 293.15 348.51 291.41 342.00 292.00
C 342.00 292.00 342.00 292.50 342.00 293.00 Z"/>
</g>
<g fill="None" fill-opacity="0.0" stroke="#A5D1AE" stroke-opacity="1.00" stroke-width="0.3"><path d="
M 151.00 305.00 
C 157.45 303.91 164.47 305.59 171.00 305.00
C 171.00 305.00 171.00 304.50 171.00 304.00
C 164.78 303.44 156.46 303.34 151.00 305.00 Z"/>
</g>
<g fill="None" fill-opacity="0.0" stroke="#A5D1AE" stroke-opacity="1.00" stroke-width="0.3"><path d="
M 342.00 305.00 
C 348.53 305.59 355.55 303.91 362.00 305.00
C 356.60 303.36 348.23 303.44 342.00 304.00
C 342.00 304.00 342.00 304.50 342.00 305.00 Z"/>
</g>
<g fill="None" fill-opacity="0.0" stroke="#DCDCDC" stroke-opacity="1.00" stroke-width="0.3"><path d="
M 144.00 383.00 
C 148.34 381.32 154.64 381.45 159.00 383.00
C 157.20 363.14 157.20 339.86 159.00 320.00
C 160.94 317.98 168.09 318.74 171.00 319.00
C 171.00 314.33 171.00 309.67 171.00 305.00
C 164.47 305.59 157.45 303.91 151.00 305.00
C 140.81 308.09 144.95 318.24 144.00 327.00 C 143.05 335.76 145.62 346.45 144.00 355.00 C 142.38 363.55 147.37 375.19 144.00 383.00 Z"/>
</g>
<g fill="None" fill-opacity="0.0" stroke="#DCDCDC" stroke-opacity="1.00" stroke-width="0.3"><path d="
M 342.00 319.00 
C 348.52 318.06 355.51 320.10 362.00 319.00
C 370.11 316.54 370.11 307.46 362.00 305.00
C 355.55 303.91 348.53 305.59 342.00 305.00
C 342.00 309.31 342.93 314.81 342.00 319.00 Z"/>
</g>
<g fill="None" fill-opacity="0.0" stroke="#BAD6C0" stroke-opacity="1.00" stroke-width="0.3"><path d="
M 159.00 320.00 
C 159.00 319.96 160.00 320.00 160.00 320.00
C 163.62 320.00 167.40 320.32 171.00 320.00
C 171.00 320.00 171.00 319.50 171.00 319.00
C 168.09 318.74 160.94 317.98 159.00 320.00 Z"/>
</g>
<g fill="None" fill-opacity="0.0" stroke="#B7D3BD" stroke-opacity="1.00" stroke-width="0.3"><path d="
M 341.00 320.00 
C 346.21 321.67 357.38 320.40 362.00 319.00
C 355.51 320.10 348.52 318.06 342.00 319.00
C 341.65 319.05 341.03 319.65 341.00 320.00 Z"/>
</g>
<g fill="None" fill-opacity="0.0" stroke="#78C889" stroke-opacity="1.00" stroke-width="0.3"><path d="
M 159.00 383.00 
C 159.44 383.16 160.00 383.00 160.00 383.00
C 161.80 363.14 161.79 339.87 160.00 320.00
C 160.00 320.00 159.00 319.96 159.00 320.00
C 157.20 339.86 157.20 363.14 159.00 383.00 Z"/>
</g>
<g fill="None" fill-opacity="0.0" stroke="#ABAEAE" stroke-opacity="1.00" stroke-width="0.3"><path d="
M 194.00 344.00 
C 198.57 344.41 204.46 344.66 209.00 344.00
C 209.35 343.95 209.74 343.12 210.00 343.00
C 204.72 343.00 199.26 343.42 194.00 343.00
C 194.00 343.00 194.00 343.50 194.00 344.00 Z"/>
</g>
<g fill="None" fill-opacity="0.0" stroke="#DBDBDB" stroke-opacity="1.00" stroke-width="0.3"><path d="
M 222.00 344.00 
C 225.85 349.45 218.15 361.39 223.25 366.75 C 228.35 372.11 234.15 369.09 236.00 363.00
C 237.09 356.55 235.41 349.53 236.00 343.00
C 231.48 343.00 225.77 343.99 222.00 344.00 Z"/>
</g>
<g fill="None" fill-opacity="0.0" stroke="#B8D4BE" stroke-opacity="1.00" stroke-width="0.3"><path d="
M 236.00 363.00 
C 237.64 357.60 237.56 349.23 237.00 343.00
C 237.00 343.00 236.50 343.00 236.00 343.00
C 235.41 349.53 237.09 356.55 236.00 363.00 Z"/>
</g>
<g fill="None" fill-opacity="0.0" stroke="#DBDBDB" stroke-opacity="1.00" stroke-width="0.3"><path d="
M 264.00 343.00 
C 259.00 343.00 254.00 343.00 249.00 343.00
C 250.13 350.22 244.65 370.46 256.78 369.78 C 268.90 369.10 262.21 350.26 264.00 343.00 Z"/>
</g>
<g fill="None" fill-opacity="0.0" stroke="#DBDBDB" stroke-opacity="1.00" stroke-width="0.3"><path d="
M 291.00 343.00 
C 286.00 343.00 281.00 343.00 276.00 343.00
C 277.08 350.28 271.85 370.10 283.93 369.93 C 296.00 369.75 289.22 349.92 291.00 343.00 Z"/>
</g>
<g fill="None" fill-opacity="0.0" stroke="#B8D4BE" stroke-opacity="1.00" stroke-width="0.3"><path d="
M 304.00 363.00 
C 302.91 356.55 304.59 349.53 304.00 343.00
C 304.00 343.00 303.50 343.00 303.00 343.00
C 302.44 349.22 302.34 357.54 304.00 363.00 Z"/>
</g>
<g fill="None" fill-opacity="0.0" stroke="#DBDCDB" stroke-opacity="1.00" stroke-width="0.3"><path d="
M 304.00 363.00 
C 306.57 371.46 315.44 371.44 318.00 363.00
C 319.09 356.55 317.41 349.53 318.00 343.00
C 313.33 343.00 308.67 343.00 304.00 343.00
C 304.59 349.53 302.91 356.55 304.00 363.00 Z"/>
</g>
<g fill="None" fill-opacity="0.0" stroke="#AAD2B3" stroke-opacity="1.00" stroke-width="0.3"><path d="
M 318.00 363.00 
C 319.64 357.59 319.56 349.23 319.00 343.00
C 319.00 343.00 318.50 343.00 318.00 343.00
C 317.41 349.53 319.09 356.55 318.00 363.00 Z"/>
</g>
<g fill="None" fill-opacity="0.0" stroke="#DCDCDC" stroke-opacity="1.00" stroke-width="0.3"><path d="
M 209.00 344.00 
C 204.46 344.66 198.57 344.41 194.00 344.00
C 194.00 351.20 190.50 369.99 201.93 369.93 C 213.36 369.86 207.51 350.70 209.00 344.00 Z"/>
</g>
<g fill="None" fill-opacity="0.0" stroke="#F0D323" stroke-opacity="1.00" stroke-width="0.3"><path d="
M 81.00 355.00 
C 80.95 355.35 80.33 355.83 80.00 356.00
C 58.48 366.73 63.79 400.12 88.93 399.93 C 114.07 399.73 117.69 364.93 96.00 356.00
C 90.90 353.90 86.42 354.10 81.00 355.00
M 91.00 370.00 
C 99.42 372.52 94.16 387.83 85.33 383.67 C 76.50 379.51 82.62 367.50 91.00 370.00 Z"/>
</g>
<g fill="None" fill-opacity="0.0" stroke="#F0D323" stroke-opacity="1.00" stroke-width="0.3"><path d="
M 416.00 356.00 
C 394.44 364.88 397.82 399.72 423.00 400.00 C 448.17 400.27 453.54 366.74 432.00 356.00
C 431.67 355.83 431.05 355.35 431.00 355.00
C 425.55 354.10 421.09 353.90 416.00 356.00
M 427.00 370.00 
C 435.44 372.83 429.54 388.14 421.00 384.00 C 412.46 379.86 418.21 367.05 427.00 370.00 Z"/>
</g>
<g fill="None" fill-opacity="0.0" stroke="#45BD54" stroke-opacity="1.00" stroke-width="0.3"><path d="
M 91.00 370.00 
C 82.62 367.50 76.50 379.51 85.33 383.67 C 94.16 387.83 99.42 372.52 91.00 370.00 Z"/>
</g>
<g fill="None" fill-opacity="0.0" stroke="#45BD54" stroke-opacity="1.00" stroke-width="0.3"><path d="
M 427.00 370.00 
C 418.21 367.05 412.46 379.86 421.00 384.00 C 429.54 388.14 435.44 372.83 427.00 370.00 Z"/>
</g>
<g fill="None" fill-opacity="0.0" stroke="#DCDCDC" stroke-opacity="1.00" stroke-width="0.3"><path d="
M 173.00 397.00 
C 174.36 400.97 175.20 408.14 173.00 412.00
C 191.22 410.32 209.78 413.79 228.00 412.00 C 246.22 410.21 265.95 415.05 284.00 412.00
C 293.06 408.33 294.48 392.16 289.92 382.08 C 285.35 372.01 268.81 386.60 276.00 397.00
C 272.00 397.00 268.00 397.00 264.00 397.00
C 264.23 390.56 265.43 378.06 256.07 378.07 C 246.72 378.09 249.23 391.03 249.00 397.00
C 245.00 397.00 241.00 397.00 237.00 397.00
C 237.07 390.80 238.39 378.32 229.07 378.07 C 219.76 377.83 222.05 391.09 222.00 397.00
C 214.39 395.78 204.37 398.62 197.00 397.00 C 189.63 395.38 179.53 400.23 173.00 397.00 Z"/>
</g>
<g fill="None" fill-opacity="0.0" stroke="#DBDCDB" stroke-opacity="1.00" stroke-width="0.3"><path d="
M 339.00 412.00 
C 337.43 407.81 337.43 401.21 339.00 397.00
C 332.00 397.00 325.00 397.00 318.00 397.00
C 317.59 391.72 320.67 377.27 311.07 378.07 C 301.48 378.87 303.87 388.26 303.00 396.00 C 302.13 403.74 304.49 411.47 313.00 412.00 C 321.51 412.53 331.65 408.83 339.00 412.00 Z"/>
</g>
<g fill="None" fill-opacity="0.0" stroke="#F0D323" stroke-opacity="1.00" stroke-width="0.3"><path d="
M 144.00 383.00 
C 135.44 386.32 127.18 396.90 129.02 406.98 C 130.86 417.05 136.90 424.60 148.00 427.00 C 159.10 429.40 167.00 420.46 173.00 413.00
C 173.24 412.70 173.00 412.00 173.00 412.00
C 175.20 408.14 174.36 400.97 173.00 397.00
C 170.79 390.54 164.88 386.92 160.00 383.00
C 160.00 383.00 159.44 383.16 159.00 383.00
C 154.64 381.45 148.34 381.32 144.00 383.00
M 153.00 397.00 
C 162.40 398.20 159.34 414.16 150.00 412.00 C 140.65 409.83 144.40 395.90 153.00 397.00 Z"/>
</g>
<g fill="None" fill-opacity="0.0" stroke="#EFD324" stroke-opacity="1.00" stroke-width="0.3"><path d="
M 339.00 397.00 
C 337.43 401.21 337.43 407.81 339.00 412.00
C 347.71 435.30 384.48 429.12 383.98 404.02 C 383.47 378.93 347.27 374.86 339.00 397.00
M 362.00 397.00 
C 370.94 397.92 369.24 413.44 359.99 411.99 C 350.74 410.55 352.97 396.07 362.00 397.00 Z"/>
</g>
<g fill="None" fill-opacity="0.0" stroke="#4ABD53" stroke-opacity="1.00" stroke-width="0.3"><path d="
M 153.00 397.00 
C 144.40 395.90 140.65 409.83 150.00 412.00 C 159.34 414.16 162.40 398.20 153.00 397.00 Z"/>
</g>
<g fill="None" fill-opacity="0.0" stroke="#45BD54" stroke-opacity="1.00" stroke-width="0.3"><path d="
M 362.00 397.00 
C 352.97 396.07 350.74 410.55 359.99 411.99 C 369.24 413.44 370.94 397.92 362.00 397.00 Z"/>
</g>
<g fill="None" fill-opacity="0.0" stroke="#72C784" stroke-opacity="1.00" stroke-width="0.3"><path d="
M 173.00 413.00 
C 190.67 414.60 211.41 413.69 229.00 413.00 C 246.60 412.31 267.79 416.92 284.00 412.00
C 265.95 415.05 246.22 410.21 228.00 412.00 C 209.78 413.79 191.22 410.32 173.00 412.00
C 173.00 412.00 173.24 412.70 173.00 413.00 Z"/>
</g>
<g fill="None" fill-opacity="0.0" stroke="#000000" stroke-opacity="0.00" stroke-width="0.3"><path d="
M 0.00 512.00 
L 512.00 512.00
L 512.00 478.00
C 501.08 508.18 470.61 501.90 442.00 502.00 C 413.39 502.10 378.78 501.96 349.00 502.00 C 319.22 502.04 286.15 501.99 256.00 502.00 C 225.85 502.01 191.83 502.01 162.00 502.00 C 132.17 501.99 97.60 502.04 69.00 502.00 C 40.40 501.96 10.96 507.91 0.00 478.00
L 0.00 512.00 Z"/>
</g>
<g fill="#000000" fill-opacity="0.00" stroke="None">
<path d="
M 0.00 98.00 
C 9.54 81.92 22.11 70.32 36.75 56.75 C 51.40 43.19 59.06 31.07 76.08 18.08 C 93.11 5.10 122.75 10.79 146.00 10.00 C 169.25 9.21 199.38 10.42 224.00 10.00 C 248.62 9.58 276.93 10.33 302.00 10.00 C 327.07 9.67 355.10 10.46 380.00 10.00 C 404.90 9.54 434.00 10.89 458.00 10.00 C 482.00 9.11 503.89 9.60 512.00 34.00
L 512.00 0.00
L 0.00 0.00
L 0.00 98.00 Z"/>
</g>
<g fill="#8AD53A" fill-opacity="0.99" stroke="None">
<path d="
M 0.00 98.00 
L 0.00 478.00
C 10.96 507.91 40.40 501.96 69.00 502.00 C 97.60 502.04 132.17 501.99 162.00 502.00 C 191.83 502.01 225.85 502.01 256.00 502.00 C 286.15 501.99 319.22 502.04 349.00 502.00 C 378.78 501.96 413.39 502.10 442.00 502.00 C 470.61 501.90 501.08 508.18 512.00 478.00
L 512.00 34.00
C 503.89 9.60 482.00 9.11 458.00 10.00 C 434.00 10.89 404.90 9.54 380.00 10.00 C 355.10 10.46 327.07 9.67 302.00 10.00 C 276.93 10.33 248.62 9.58 224.00 10.00 C 199.38 10.42 169.25 9.21 146.00 10.00 C 122.75 10.79 93.11 5.10 76.08 18.08 C 59.06 31.07 51.40 43.19 36.75 56.75 C 22.11 70.32 9.54 81.92 0.00 98.00
M 60.00 465.00 
C 47.05 465.00 34.01 467.18 36.00 452.00 C 37.99 436.82 35.08 427.75 36.00 414.00 C 36.92 400.25 35.59 390.07 36.00 377.00 C 36.41 363.93 35.80 351.80 36.00 339.00 C 36.20 326.20 35.88 313.62 36.00 301.00 C 36.12 288.38 35.88 276.50 36.00 264.00 C 36.12 251.50 35.80 238.40 36.00 226.00 C 36.20 213.60 35.58 200.11 36.00 188.00 C 36.42 175.89 35.06 162.51 36.00 151.00 C 36.94 139.49 33.97 123.33 36.00 113.00 C 38.03 102.67 48.47 100.84 53.75 92.75 C 59.04 84.66 66.40 82.37 72.25 74.25 C 78.10 66.12 85.14 64.61 91.25 55.25 C 97.35 45.88 110.37 47.00 121.00 47.00
C 134.67 47.00 148.33 47.00 162.00 47.00 C 175.67 47.00 189.33 47.01 203.00 47.00 C 216.67 46.99 230.33 47.02 244.00 47.00 C 257.67 46.98 271.33 47.04 285.00 47.00 C 298.67 46.96 312.33 47.09 326.00 47.00 C 339.67 46.91 353.34 47.19 367.00 47.00 C 380.66 46.81 394.34 47.43 408.00 47.00 C 421.66 46.57 435.35 47.95 449.00 47.00 C 462.65 46.05 478.10 44.91 476.00 61.00 C 473.90 77.09 476.95 87.24 476.00 102.00 C 475.05 116.76 476.44 128.85 476.00 143.00 C 475.56 157.15 476.21 170.13 476.00 184.00 C 475.79 197.87 476.12 211.28 476.00 225.00 C 475.88 238.72 476.11 252.39 476.00 266.00 C 475.89 279.61 476.17 293.54 476.00 307.00 C 475.83 320.46 476.35 334.82 476.00 348.00 C 475.65 361.18 476.76 376.43 476.00 389.00 C 475.24 401.57 477.67 418.76 476.00 430.00 C 474.33 441.24 482.35 462.00 469.99 464.99 C 457.63 467.98 442.08 463.65 429.00 465.00 C 415.92 466.35 401.40 464.39 388.00 465.00 C 374.60 465.61 360.55 464.73 347.00 465.00 C 333.45 465.27 319.61 464.88 306.00 465.00 C 292.39 465.12 278.64 464.94 265.00 465.00 C 251.36 465.06 237.66 464.97 224.00 465.00 C 210.34 465.03 196.66 464.99 183.00 465.00 C 169.34 465.01 155.66 465.00 142.00 465.00 C 128.34 465.00 114.67 465.00 101.00 465.00 C 87.33 465.00 73.67 465.00 60.00 465.00 Z"/>
</g>
<g fill="#31AA45" fill-opacity="1.00" stroke="None">
<path d="
M 60.00 465.00 
C 53.03 462.26 58.15 447.34 57.00 440.00 C 55.85 432.66 57.54 419.50 57.00 411.00 C 56.46 402.50 57.23 392.07 57.00 383.00 C 56.77 373.93 57.11 363.30 57.00 354.00 C 56.89 344.70 57.05 335.42 57.00 326.00 C 56.95 316.58 57.03 306.46 57.00 297.00 C 56.97 287.54 57.02 278.48 57.00 269.00 C 56.98 259.52 57.03 249.47 57.00 240.00 C 56.97 230.53 57.07 221.44 57.00 212.00 C 56.93 202.56 57.15 192.37 57.00 183.00 C 56.85 173.63 57.33 164.19 57.00 155.00 C 56.67 145.81 57.71 134.82 57.00 126.00 C 56.29 117.18 56.73 109.23 63.25 104.25 C 69.76 99.26 72.11 94.43 77.75 89.75 C 83.40 85.07 86.44 80.04 91.75 75.75 C 97.06 71.46 100.89 64.89 106.25 61.25 C 111.60 57.60 115.45 49.05 121.00 47.00
C 110.37 47.00 97.35 45.88 91.25 55.25 C 85.14 64.61 78.10 66.12 72.25 74.25 C 66.40 82.37 59.04 84.66 53.75 92.75 C 48.47 100.84 38.03 102.67 36.00 113.00 C 33.97 123.33 36.94 139.49 36.00 151.00 C 35.06 162.51 36.42 175.89 36.00 188.00 C 35.58 200.11 36.20 213.60 36.00 226.00 C 35.80 238.40 36.12 251.50 36.00 264.00 C 35.88 276.50 36.12 288.38 36.00 301.00 C 35.88 313.62 36.20 326.20 36.00 339.00 C 35.80 351.80 36.41 363.93 36.00 377.00 C 35.59 390.07 36.92 400.25 36.00 414.00 C 35.08 427.75 37.99 436.82 36.00 452.00 C 34.01 467.18 47.05 465.00 60.00 465.00 Z"/>
</g>
<g fill="#3DBC56" fill-opacity="1.00" stroke="None">
<path d="
M 60.00 465.00 
C 73.67 465.00 87.33 465.00 101.00 465.00 C 114.67 465.00 128.34 465.00 142.00 465.00 C 155.66 465.00 169.34 465.01 183.00 465.00 C 196.66 464.99 210.34 465.03 224.00 465.00 C 237.66 464.97 251.36 465.06 265.00 465.00 C 278.64 464.94 292.39 465.12 306.00 465.00 C 319.61 464.88 333.45 465.27 347.00 465.00 C 360.55 464.73 374.60 465.61 388.00 465.00 C 401.40 464.39 415.92 466.35 429.00 465.00 C 442.08 463.65 457.63 467.98 469.99 464.99 C 482.35 462.00 474.33 441.24 476.00 430.00 C 477.67 418.76 475.24 401.57 476.00 389.00 C 476.76 376.43 475.65 361.18 476.00 348.00 C 476.35 334.82 475.83 320.46 476.00 307.00 C 476.17 293.54 475.89 279.61 476.00 266.00 C 476.11 252.39 475.88 238.72 476.00 225.00 C 476.12 211.28 475.79 197.87 476.00 184.00 C 476.21 170.13 475.56 157.15 476.00 143.00 C 476.44 128.85 475.05 116.76 476.00 102.00 C 476.95 87.24 473.90 77.09 476.00 61.00 C 478.10 44.91 462.65 46.05 449.00 47.00 C 435.35 47.95 421.66 46.57 408.00 47.00 C 394.34 47.43 380.66 46.81 367.00 47.00 C 353.34 47.19 339.67 46.91 326.00 47.00 C 312.33 47.09 298.67 46.96 285.00 47.00 C 271.33 47.04 257.67 46.98 244.00 47.00 C 230.33 47.02 216.67 46.99 203.00 47.00 C 189.33 47.01 175.67 47.00 162.00 47.00 C 148.33 47.00 134.67 47.00 121.00 47.00
C 115.45 49.05 111.60 57.60 106.25 61.25 C 100.89 64.89 97.06 71.46 91.75 75.75 C 86.44 80.04 83.40 85.07 77.75 89.75 C 72.11 94.43 69.76 99.26 63.25 104.25 C 56.73 109.23 56.29 117.18 57.00 126.00 C 57.71 134.82 56.67 145.81 57.00 155.00 C 57.33 164.19 56.85 173.63 57.00 183.00 C 57.15 192.37 56.93 202.56 57.00 212.00 C 57.07 221.44 56.97 230.53 57.00 240.00 C 57.03 249.47 56.98 259.52 57.00 269.00 C 57.02 278.48 56.97 287.54 57.00 297.00 C 57.03 306.46 56.95 316.58 57.00 326.00 C 57.05 335.42 56.89 344.70 57.00 354.00 C 57.11 363.30 56.77 373.93 57.00 383.00 C 57.23 392.07 56.46 402.50 57.00 411.00 C 57.54 419.50 55.85 432.66 57.00 440.00 C 58.15 447.34 53.03 462.26 60.00 465.00
M 160.00 129.00 
C 161.88 149.81 161.88 174.19 160.00 195.00
C 163.62 195.00 167.40 194.67 171.00 195.00
C 173.02 182.62 182.14 175.08 194.00 173.00
C 195.30 165.27 191.69 156.43 195.31 149.31 C 198.92 142.18 206.98 145.60 209.00 152.00
C 210.71 157.41 210.56 165.82 210.00 172.00
C 214.00 172.00 218.00 172.00 222.00 172.00
C 223.02 165.21 217.88 144.88 229.07 145.07 C 240.27 145.27 237.63 165.04 237.00 172.00
C 241.00 172.00 245.00 172.00 249.00 172.00
C 250.78 165.08 244.00 145.25 256.07 145.07 C 268.15 144.90 262.92 164.72 264.00 172.00
C 268.00 172.00 272.00 172.00 276.00 172.00
C 277.93 164.93 270.97 145.88 283.08 145.08 C 295.18 144.27 290.03 164.87 291.00 172.00
C 294.94 172.42 299.08 171.44 303.00 172.00
C 301.49 165.18 301.37 156.07 304.32 149.32 C 307.27 142.57 316.12 145.81 318.00 152.00
C 319.74 157.72 319.59 166.51 319.00 173.00
C 330.93 173.45 339.11 184.40 341.00 195.00
C 352.79 191.22 367.91 197.84 380.00 195.00
C 381.74 192.52 379.98 184.36 380.00 181.00 C 380.02 177.64 381.37 169.17 380.00 166.00
C 357.21 158.40 362.09 120.85 387.02 121.02 C 411.96 121.20 417.92 155.56 395.00 165.00
C 389.20 176.72 404.42 205.02 388.00 210.00
C 375.91 213.67 355.17 212.19 342.00 211.00
C 342.00 214.67 342.00 218.33 342.00 222.00
C 348.19 221.44 356.65 221.31 362.00 223.00
C 367.79 224.83 371.47 232.89 364.75 236.75 C 358.03 240.61 349.26 236.43 342.00 238.00
C 342.00 242.00 342.00 246.00 342.00 250.00
C 349.72 252.10 367.38 244.60 367.99 257.01 C 368.60 269.42 349.89 263.86 342.00 265.00
C 342.00 269.00 342.00 273.00 342.00 277.00
C 349.37 278.57 357.03 274.49 364.02 277.98 C 371.02 281.46 368.47 289.96 362.00 292.00
C 356.59 293.71 348.18 293.56 342.00 293.00
C 342.00 296.67 342.00 300.33 342.00 304.00
C 348.23 303.44 356.60 303.36 362.00 305.00
C 370.11 307.46 370.11 316.54 362.00 319.00
C 357.38 320.40 346.21 321.67 341.00 320.00
C 339.84 332.36 331.03 340.75 319.00 343.00
C 319.56 349.23 319.64 357.59 318.00 363.00
C 315.44 371.44 306.57 371.46 304.00 363.00
C 302.34 357.54 302.44 349.22 303.00 343.00
C 299.00 343.00 295.00 343.00 291.00 343.00
C 289.22 349.92 296.00 369.75 283.93 369.93 C 271.85 370.10 277.08 350.28 276.00 343.00
C 272.00 343.00 268.00 343.00 264.00 343.00
C 262.21 350.26 268.90 369.10 256.78 369.78 C 244.65 370.46 250.13 350.22 249.00 343.00
C 245.00 343.00 241.00 343.00 237.00 343.00
C 237.56 349.23 237.64 357.60 236.00 363.00
C 234.15 369.09 228.35 372.11 223.25 366.75 C 218.15 361.39 225.85 349.45 222.00 344.00
C 218.79 344.01 214.61 343.00 211.00 343.00
C 210.50 343.00 210.00 343.00 210.00 343.00
C 209.74 343.12 209.35 343.95 209.00 344.00
C 207.51 350.70 213.36 369.86 201.93 369.93 C 190.50 369.99 194.00 351.20 194.00 344.00
C 194.00 343.50 194.00 343.00 194.00 343.00
C 182.70 342.10 171.45 331.80 171.00 320.00
C 167.40 320.32 163.62 320.00 160.00 320.00
C 161.79 339.87 161.80 363.14 160.00 383.00
C 164.88 386.92 170.79 390.54 173.00 397.00
C 179.53 400.23 189.63 395.38 197.00 397.00 C 204.37 398.62 214.39 395.78 222.00 397.00
C 222.05 391.09 219.76 377.83 229.07 378.07 C 238.39 378.32 237.07 390.80 237.00 397.00
C 241.00 397.00 245.00 397.00 249.00 397.00
C 249.23 391.03 246.72 378.09 256.07 378.07 C 265.43 378.06 264.23 390.56 264.00 397.00
C 268.00 397.00 272.00 397.00 276.00 397.00
C 268.81 386.60 285.35 372.01 289.92 382.08 C 294.48 392.16 293.06 408.33 284.00 412.00
C 267.79 416.92 246.60 412.31 229.00 413.00 C 211.41 413.69 190.67 414.60 173.00 413.00
C 167.00 420.46 159.10 429.40 148.00 427.00 C 136.90 424.60 130.86 417.05 129.02 406.98 C 127.18 396.90 135.44 386.32 144.00 383.00
C 147.37 375.19 142.38 363.55 144.00 355.00 C 145.62 346.45 143.05 335.76 144.00 327.00 C 144.95 318.24 140.81 308.09 151.00 305.00
C 156.46 303.34 164.78 303.44 171.00 304.00
C 171.00 300.33 171.00 296.67 171.00 293.00
C 164.77 293.56 156.41 293.64 151.00 292.00
C 144.91 290.15 140.97 282.87 147.70 278.70 C 154.44 274.54 163.44 278.30 171.00 277.00
C 171.00 273.00 171.00 269.00 171.00 265.00
C 163.83 262.99 144.56 270.30 144.07 257.93 C 143.58 245.55 163.63 251.18 171.00 250.00
C 171.00 246.00 171.00 242.00 171.00 238.00
C 157.69 239.20 143.38 238.51 130.00 238.00 C 116.62 237.49 101.15 240.45 88.00 238.00
C 83.79 237.22 82.19 234.75 81.00 231.00
C 79.25 225.47 79.30 217.41 80.00 211.00 C 80.70 204.59 78.02 195.17 80.00 189.00
C 58.42 178.24 63.80 144.75 89.00 145.00 C 114.20 145.25 117.57 180.12 96.00 189.00
C 94.43 192.18 95.72 201.36 96.00 205.00 C 96.28 208.64 93.98 219.11 96.00 222.00
C 120.85 223.68 146.20 219.76 171.00 222.00
C 171.00 218.33 171.00 214.67 171.00 211.00
C 164.77 211.56 156.41 211.64 151.00 210.00
C 140.71 206.88 145.06 196.94 144.00 188.00 C 142.94 179.06 145.77 167.87 144.00 159.00 C 142.23 150.13 147.54 137.20 144.00 129.00
C 131.14 124.01 123.73 105.71 133.25 94.25 C 142.78 82.80 159.24 80.65 169.30 93.70 C 179.36 106.75 171.19 120.03 160.00 129.00
M 432.00 129.00 
C 433.46 145.17 432.70 163.87 432.00 180.00 C 431.30 196.13 435.66 216.25 431.00 231.00
C 428.25 239.69 419.23 238.42 411.00 238.00 C 402.77 237.58 392.81 239.26 384.93 237.07 C 377.04 234.88 378.97 221.81 388.00 223.00 C 397.04 224.20 406.89 222.10 416.00 223.00
C 416.00 191.67 416.00 160.33 416.00 129.00
C 410.35 126.81 404.16 120.58 402.00 115.00
C 394.13 111.60 382.65 116.58 374.00 115.00 C 365.35 113.42 354.98 115.83 346.00 115.00 C 337.02 114.17 327.07 115.62 318.00 115.00
C 325.15 125.56 309.74 139.96 304.25 129.75 C 298.76 119.55 302.03 104.49 310.00 100.00
C 318.73 97.24 330.26 99.05 340.00 99.00 C 349.74 98.95 361.24 97.85 371.00 99.00 C 380.76 100.15 393.69 96.01 403.00 99.00
C 408.23 85.04 427.58 78.63 439.75 91.25 C 451.91 103.87 443.91 119.45 432.00 129.00
M 205.00 100.00 
C 212.24 102.43 207.74 114.36 209.00 120.00 C 210.26 125.64 207.59 137.10 198.98 133.02 C 190.36 128.95 190.06 94.98 205.00 100.00
M 232.00 100.00 
C 241.30 102.78 239.94 136.03 227.77 133.21 C 215.60 130.40 224.74 122.25 222.00 115.00 C 219.26 107.75 223.43 97.44 232.00 100.00
M 287.00 100.00 
C 294.26 102.44 289.68 114.40 291.00 120.00 C 292.32 125.60 289.46 137.27 280.93 133.07 C 272.39 128.88 272.05 94.98 287.00 100.00
M 96.00 356.00 
C 117.69 364.93 114.07 399.73 88.93 399.93 C 63.79 400.12 58.48 366.73 80.00 356.00
C 76.87 346.23 80.98 333.38 80.00 323.00 C 79.02 312.62 79.64 299.43 80.00 289.00 C 80.36 278.57 77.59 265.23 81.00 256.00
C 83.81 248.39 92.68 249.47 100.00 250.00 C 107.32 250.53 118.38 248.54 125.22 250.78 C 132.06 253.02 129.84 265.66 121.99 264.99 C 114.14 264.32 104.06 265.51 96.00 265.00
C 96.00 269.00 96.00 273.00 96.00 277.00
C 104.19 280.03 127.86 270.23 128.99 284.01 C 130.12 297.79 104.23 290.09 96.00 292.00
C 96.00 313.33 96.00 334.67 96.00 356.00
M 431.00 257.00 
C 433.94 266.31 431.90 278.64 432.00 289.00 C 432.10 299.36 433.20 311.62 432.00 322.00 C 430.80 332.38 435.17 346.11 432.00 356.00
C 453.54 366.74 448.17 400.27 423.00 400.00 C 397.82 399.72 394.44 364.88 416.00 356.00
C 418.38 351.18 414.76 343.38 416.00 338.00 C 417.24 332.62 415.07 325.54 416.00 320.00
C 407.61 316.75 381.43 327.06 380.03 312.97 C 378.62 298.89 407.71 307.10 416.00 305.00
C 416.00 300.67 416.00 296.33 416.00 292.00
C 407.95 288.82 380.35 299.16 380.01 284.99 C 379.67 270.82 407.67 279.24 416.00 277.00
C 416.00 273.00 416.00 269.00 416.00 265.00
C 407.07 266.42 397.90 263.11 389.00 265.00 C 380.10 266.89 376.53 254.23 384.23 251.23 C 391.93 248.23 402.09 250.45 410.00 250.00 C 417.91 249.55 428.90 248.12 431.00 257.00
M 339.00 397.00 
C 347.27 374.86 383.47 378.93 383.98 404.02 C 384.48 429.12 347.71 435.30 339.00 412.00
C 331.65 408.83 321.51 412.53 313.00 412.00 C 304.49 411.47 302.13 403.74 303.00 396.00 C 303.87 388.26 301.48 378.87 311.07 378.07 C 320.67 377.27 317.59 391.72 318.00 397.00
C 325.00 397.00 332.00 397.00 339.00 397.00 Z"/>
</g>
<g fill="#F0D323" fill-opacity="1.00" stroke="None">
<path d="
M 144.00 129.00 
C 148.34 130.68 154.64 130.55 159.00 129.00
C 159.44 128.84 160.00 129.00 160.00 129.00
C 171.19 120.03 179.36 106.75 169.30 93.70 C 159.24 80.65 142.78 82.80 133.25 94.25 C 123.73 105.71 131.14 124.01 144.00 129.00
M 154.00 100.00 
C 162.63 102.19 158.71 117.37 149.78 114.22 C 140.84 111.07 144.57 97.61 154.00 100.00 Z"/>
</g>
<g fill="#F0D324" fill-opacity="1.00" stroke="None">
<path d="
M 403.00 99.00 
C 402.87 99.35 402.35 99.95 402.00 100.00
C 399.88 103.62 400.55 111.26 402.00 115.00
C 404.16 120.58 410.35 126.81 416.00 129.00
C 420.34 130.68 426.63 130.55 431.00 129.00
C 431.44 128.84 432.00 129.00 432.00 129.00
C 443.91 119.45 451.91 103.87 439.75 91.25 C 427.58 78.63 408.23 85.04 403.00 99.00
M 426.00 100.00 
C 434.45 102.14 431.13 116.84 422.00 114.00 C 412.87 111.16 417.03 97.73 426.00 100.00 Z"/>
</g>
<g fill="#73C784" fill-opacity="1.00" stroke="None">
<path d="
M 310.00 100.00 
C 324.87 97.33 340.97 101.81 356.00 100.00 C 371.03 98.19 387.01 102.16 402.00 100.00
C 402.35 99.95 402.87 99.35 403.00 99.00
C 393.69 96.01 380.76 100.15 371.00 99.00 C 361.24 97.85 349.74 98.95 340.00 99.00 C 330.26 99.05 318.73 97.24 310.00 100.00 Z"/>
</g>
<g fill="#4ABD53" fill-opacity="1.00" stroke="None">
<path d="
M 154.00 100.00 
C 144.57 97.61 140.84 111.07 149.78 114.22 C 158.71 117.37 162.63 102.19 154.00 100.00 Z"/>
</g>
<g fill="#DBDCDC" fill-opacity="1.00" stroke="None">
<path d="
M 205.00 100.00 
C 190.06 94.98 190.36 128.95 198.98 133.02 C 207.59 137.10 210.26 125.64 209.00 120.00 C 207.74 114.36 212.24 102.43 205.00 100.00 Z"/>
</g>
<g fill="#DADCDB" fill-opacity="1.00" stroke="None">
<path d="
M 232.00 100.00 
C 223.43 97.44 219.26 107.75 222.00 115.00 C 224.74 122.25 215.60 130.40 227.77 133.21 C 239.94 136.03 241.30 102.78 232.00 100.00 Z"/>
</g>
<g fill="#DCDCDC" fill-opacity="1.00" stroke="None">
<path d="
M 287.00 100.00 
C 272.05 94.98 272.39 128.88 280.93 133.07 C 289.46 137.27 292.32 125.60 291.00 120.00 C 289.68 114.40 294.26 102.44 287.00 100.00 Z"/>
</g>
<g fill="#DCDCDC" fill-opacity="1.00" stroke="None">
<path d="
M 402.00 115.00 
C 400.55 111.26 399.88 103.62 402.00 100.00
C 387.01 102.16 371.03 98.19 356.00 100.00 C 340.97 101.81 324.87 97.33 310.00 100.00
C 302.03 104.49 298.76 119.55 304.25 129.75 C 309.74 139.96 325.15 125.56 318.00 115.00
C 327.07 115.62 337.02 114.17 346.00 115.00 C 354.98 115.83 365.35 113.42 374.00 115.00 C 382.65 116.58 394.13 111.60 402.00 115.00 Z"/>
</g>
<g fill="#45BD54" fill-opacity="1.00" stroke="None">
<path d="
M 426.00 100.00 
C 417.03 97.73 412.87 111.16 422.00 114.00 C 431.13 116.84 434.45 102.14 426.00 100.00 Z"/>
</g>
<g fill="#F0D324" fill-opacity="1.00" stroke="None">
<path d="
M 380.00 166.00 
C 384.81 167.60 390.47 166.87 395.00 165.00
C 417.92 155.56 411.96 121.20 387.02 121.02 C 362.09 120.85 357.21 158.40 380.00 166.00
M 391.00 137.00 
C 398.90 140.08 392.69 155.19 384.33 150.67 C 375.97 146.15 381.51 133.30 391.00 137.00 Z"/>
</g>
<g fill="#DCDCDC" fill-opacity="1.00" stroke="None">
<path d="
M 151.00 210.00 
C 157.45 211.09 164.47 209.41 171.00 210.00
C 171.00 205.33 171.00 200.67 171.00 196.00
C 168.03 196.27 160.95 197.02 159.00 195.00
C 157.11 174.19 157.12 149.81 159.00 129.00
C 154.64 130.55 148.34 130.68 144.00 129.00
C 147.54 137.20 142.23 150.13 144.00 159.00 C 145.77 167.87 142.94 179.06 144.00 188.00 C 145.06 196.94 140.71 206.88 151.00 210.00 Z"/>
</g>
<g fill="#78C889" fill-opacity="1.00" stroke="None">
<path d="
M 159.00 195.00 
C 159.00 195.05 160.00 195.00 160.00 195.00
C 161.88 174.19 161.88 149.81 160.00 129.00
C 160.00 129.00 159.44 128.84 159.00 129.00
C 157.12 149.81 157.11 174.19 159.00 195.00 Z"/>
</g>
<g fill="#DCDCDC" fill-opacity="1.00" stroke="None">
<path d="
M 431.00 231.00 
C 433.95 214.51 429.32 196.72 431.00 180.00 C 432.68 163.28 429.48 145.77 431.00 129.00
C 426.63 130.55 420.34 130.68 416.00 129.00
C 416.00 160.33 416.00 191.67 416.00 223.00
C 406.89 222.10 397.04 224.20 388.00 223.00 C 378.97 221.81 377.04 234.88 384.93 237.07 C 392.81 239.26 402.77 237.58 411.00 238.00 C 419.23 238.42 428.25 239.69 431.00 231.00 Z"/>
</g>
<g fill="#86CB95" fill-opacity="1.00" stroke="None">
<path d="
M 431.00 231.00 
C 435.66 216.25 431.30 196.13 432.00 180.00 C 432.70 163.87 433.46 145.17 432.00 129.00
C 432.00 129.00 431.44 128.84 431.00 129.00
C 429.48 145.77 432.68 163.28 431.00 180.00 C 429.32 196.72 433.95 214.51 431.00 231.00 Z"/>
</g>
<g fill="#47BD53" fill-opacity="1.00" stroke="None">
<path d="
M 391.00 137.00 
C 381.51 133.30 375.97 146.15 384.33 150.67 C 392.69 155.19 398.90 140.08 391.00 137.00 Z"/>
</g>
<g fill="#EFD324" fill-opacity="1.00" stroke="None">
<path d="
M 80.00 189.00 
C 80.33 189.17 80.95 189.65 81.00 190.00
C 86.42 190.90 90.90 191.10 96.00 189.00
C 117.57 180.12 114.20 145.25 89.00 145.00 C 63.80 144.75 58.42 178.24 80.00 189.00
M 92.00 161.00 
C 99.65 163.98 93.18 179.49 84.93 174.07 C 76.67 168.65 83.27 157.59 92.00 161.00 Z"/>
</g>
<g fill="#DCDCDC" fill-opacity="1.00" stroke="None">
<path d="
M 194.00 173.00 
C 198.40 172.23 204.28 170.95 209.00 172.00
C 208.41 165.49 210.15 158.42 209.00 152.00
C 206.98 145.60 198.92 142.18 195.31 149.31 C 191.69 156.43 195.30 165.27 194.00 173.00 Z"/>
</g>
<g fill="#DADCDB" fill-opacity="1.00" stroke="None">
<path d="
M 222.00 172.00 
C 226.57 171.56 231.41 172.00 236.00 172.00
C 236.50 172.00 237.00 172.00 237.00 172.00
C 237.63 165.04 240.27 145.27 229.07 145.07 C 217.88 144.88 223.02 165.21 222.00 172.00 Z"/>
</g>
<g fill="#DCDCDC" fill-opacity="1.00" stroke="None">
<path d="
M 249.00 172.00 
C 253.69 171.55 259.31 171.55 264.00 172.00
C 262.92 164.72 268.15 144.90 256.07 145.07 C 244.00 145.25 250.78 165.08 249.00 172.00 Z"/>
</g>
<g fill="#DCDCDC" fill-opacity="1.00" stroke="None">
<path d="
M 276.00 172.00 
C 280.69 171.55 286.31 171.55 291.00 172.00
C 290.03 164.87 295.18 144.27 283.08 145.08 C 270.97 145.88 277.93 164.93 276.00 172.00 Z"/>
</g>
<g fill="#D9DBDA" fill-opacity="1.00" stroke="None">
<path d="
M 303.00 172.00 
C 303.35 172.05 303.77 172.95 304.00 173.00
C 308.67 173.00 313.33 173.00 318.00 173.00
C 317.38 166.15 319.15 158.77 318.00 152.00
C 316.12 145.81 307.27 142.57 304.32 149.32 C 301.37 156.07 301.49 165.18 303.00 172.00 Z"/>
</g>
<g fill="#8BCC99" fill-opacity="1.00" stroke="None">
<path d="
M 209.00 172.00 
C 209.00 172.04 210.00 172.00 210.00 172.00
C 210.56 165.82 210.71 157.41 209.00 152.00
C 210.15 158.42 208.41 165.49 209.00 172.00 Z"/>
</g>
<g fill="#A9D1B2" fill-opacity="1.00" stroke="None">
<path d="
M 318.00 173.00 
C 318.50 173.00 319.00 173.00 319.00 173.00
C 319.59 166.51 319.74 157.72 318.00 152.00
C 319.15 158.77 317.38 166.15 318.00 173.00 Z"/>
</g>
<g fill="#44BD54" fill-opacity="1.00" stroke="None">
<path d="
M 92.00 161.00 
C 83.27 157.59 76.67 168.65 84.93 174.07 C 93.18 179.49 99.65 163.98 92.00 161.00 Z"/>
</g>
<g fill="#DCDCDC" fill-opacity="1.00" stroke="None">
<path d="
M 380.00 166.00 
C 381.37 169.17 380.02 177.64 380.00 181.00 C 379.98 184.36 381.74 192.52 380.00 195.00
C 377.63 198.39 366.70 195.63 362.00 196.00 C 357.30 196.37 347.05 196.73 342.00 196.00
C 342.93 200.19 342.00 205.69 342.00 210.00
C 357.01 208.64 373.16 212.51 388.00 210.00
C 404.42 205.02 389.20 176.72 395.00 165.00
C 390.47 166.87 384.81 167.60 380.00 166.00 Z"/>
</g>
<g fill="#838384" fill-opacity="1.00" stroke="None">
<path d="
M 194.00 173.00 
C 182.14 175.08 173.02 182.62 171.00 195.00
C 170.92 195.49 171.00 196.00 171.00 196.00
C 171.00 200.67 171.00 205.33 171.00 210.00
C 171.00 210.50 171.00 211.00 171.00 211.00
C 171.00 214.67 171.00 218.33 171.00 222.00
C 171.00 222.50 171.00 223.00 171.00 223.00
C 171.00 227.67 171.00 232.33 171.00 237.00
C 171.00 237.50 171.00 238.00 171.00 238.00
C 171.00 242.00 171.00 246.00 171.00 250.00
C 171.00 255.00 171.00 260.00 171.00 265.00
C 171.00 269.00 171.00 273.00 171.00 277.00
C 171.00 282.00 171.00 287.00 171.00 292.00
C 171.00 292.50 171.00 293.00 171.00 293.00
C 171.00 296.67 171.00 300.33 171.00 304.00
C 171.00 304.50 171.00 305.00 171.00 305.00
C 171.00 309.67 171.00 314.33 171.00 319.00
C 171.00 319.50 171.00 320.00 171.00 320.00
C 171.45 331.80 182.70 342.10 194.00 343.00
C 199.26 343.42 204.72 343.00 210.00 343.00
C 210.00 343.00 210.50 343.00 211.00 343.00
C 204.77 338.64 198.80 337.97 195.08 329.92 C 191.35 321.88 190.51 313.60 191.00 304.00 C 191.49 294.40 190.92 283.79 191.00 274.00 C 191.08 264.21 191.27 253.84 191.00 244.00 C 190.73 234.16 191.80 223.78 191.00 214.00 C 190.20 204.22 191.85 195.83 194.26 187.26 C 196.67 178.69 206.33 178.54 210.00 173.00
C 209.65 172.95 209.23 172.05 209.00 172.00
C 204.28 170.95 198.40 172.23 194.00 173.00 Z"/>
</g>
<g fill="#78A183" fill-opacity="1.00" stroke="None">
<path d="
M 210.00 173.00 
C 214.09 173.59 218.70 172.32 222.00 172.00
C 218.00 172.00 214.00 172.00 210.00 172.00
C 210.00 172.00 209.00 172.04 209.00 172.00
C 209.23 172.05 209.65 172.95 210.00 173.00 Z"/>
</g>
<g fill="#979C9F" fill-opacity="1.00" stroke="None">
<path d="
M 210.00 173.00 
C 206.33 178.54 196.67 178.69 194.26 187.26 C 191.85 195.83 190.20 204.22 191.00 214.00 C 191.80 223.78 190.73 234.16 191.00 244.00 C 191.27 253.84 191.08 264.21 191.00 274.00 C 190.92 283.79 191.49 294.40 191.00 304.00 C 190.51 313.60 191.35 321.88 195.08 329.92 C 198.80 337.97 204.77 338.64 211.00 343.00
C 214.61 343.00 218.79 344.01 222.00 344.00
C 225.77 343.99 231.48 343.00 236.00 343.00
C 236.50 343.00 237.00 343.00 237.00 343.00
C 241.00 343.00 245.00 343.00 249.00 343.00
C 254.00 343.00 259.00 343.00 264.00 343.00
C 268.00 343.00 272.00 343.00 276.00 343.00
C 281.00 343.00 286.00 343.00 291.00 343.00
C 295.00 343.00 299.00 343.00 303.00 343.00
C 303.50 343.00 304.00 343.00 304.00 343.00
C 308.67 343.00 313.33 343.00 318.00 343.00
C 318.50 343.00 319.00 343.00 319.00 343.00
C 331.03 340.75 339.84 332.36 341.00 320.00
C 341.03 319.65 341.65 319.05 342.00 319.00
C 342.93 314.81 342.00 309.31 342.00 305.00
C 342.00 304.50 342.00 304.00 342.00 304.00
C 342.00 300.33 342.00 296.67 342.00 293.00
C 342.00 292.50 342.00 292.00 342.00 292.00
C 342.00 287.00 342.00 282.00 342.00 277.00
C 342.00 273.00 342.00 269.00 342.00 265.00
C 342.00 260.00 342.00 255.00 342.00 250.00
C 342.00 246.00 342.00 242.00 342.00 238.00
C 342.00 233.00 342.00 228.00 342.00 223.00
C 342.00 222.50 342.00 222.00 342.00 222.00
C 342.00 218.33 342.00 214.67 342.00 211.00
C 342.00 210.50 342.00 210.00 342.00 210.00
C 342.00 205.69 342.93 200.19 342.00 196.00
C 341.65 195.95 341.06 195.35 341.00 195.00
C 339.11 184.40 330.93 173.45 319.00 173.00
C 319.00 173.00 318.50 173.00 318.00 173.00
C 313.33 173.00 308.67 173.00 304.00 173.00
C 299.59 173.00 294.66 172.35 291.00 172.00
C 286.31 171.55 280.69 171.55 276.00 172.00
C 272.23 172.37 267.71 172.36 264.00 172.00
C 259.31 171.55 253.69 171.55 249.00 172.00
C 244.91 172.40 240.02 172.39 236.00 172.00
C 231.41 172.00 226.57 171.56 222.00 172.00
C 218.70 172.32 214.09 173.59 210.00 173.00
M 212.00 312.00 
C 194.61 307.69 204.50 288.72 202.00 273.00 C 199.50 257.28 205.02 242.81 202.00 224.00 C 198.98 205.19 214.37 203.00 231.00 203.00
C 252.63 203.00 266.60 204.70 289.00 203.00 C 311.40 201.30 312.83 219.16 311.00 239.00 C 309.17 258.84 312.06 276.76 311.00 297.00 C 309.94 317.24 285.73 314.26 269.00 313.00 C 252.27 311.74 228.13 316.00 212.00 312.00 Z"/>
</g>
<g fill="#74AA83" fill-opacity="1.00" stroke="None">
<path d="
M 249.00 172.00 
C 245.00 172.00 241.00 172.00 237.00 172.00
C 237.00 172.00 236.50 172.00 236.00 172.00
C 240.02 172.39 244.91 172.40 249.00 172.00 Z"/>
</g>
<g fill="#70AA80" fill-opacity="1.00" stroke="None">
<path d="
M 276.00 172.00 
C 272.00 172.00 268.00 172.00 264.00 172.00
C 267.71 172.36 272.23 172.37 276.00 172.00 Z"/>
</g>
<g fill="#74AB83" fill-opacity="1.00" stroke="None">
<path d="
M 304.00 173.00 
C 303.77 172.95 303.35 172.05 303.00 172.00
C 299.08 171.44 294.94 172.42 291.00 172.00
C 294.66 172.35 299.59 173.00 304.00 173.00 Z"/>
</g>
<g fill="#86CB95" fill-opacity="1.00" stroke="None">
<path d="
M 81.00 231.00 
C 78.63 217.75 82.92 203.33 81.00 190.00
C 80.95 189.65 80.33 189.17 80.00 189.00
C 78.02 195.17 80.70 204.59 80.00 211.00 C 79.30 217.41 79.25 225.47 81.00 231.00 Z"/>
</g>
<g fill="#DCDCDC" fill-opacity="1.00" stroke="None">
<path d="
M 81.00 190.00 
C 82.92 203.33 78.63 217.75 81.00 231.00
C 82.19 234.75 83.79 237.22 88.00 238.00
C 100.65 239.15 115.40 235.57 129.00 237.00 C 142.60 238.43 157.32 235.76 171.00 237.00
C 171.00 232.33 171.00 227.67 171.00 223.00
C 164.98 223.54 157.97 222.93 152.00 223.00 C 146.03 223.07 138.68 223.34 133.00 223.00 C 127.32 222.66 118.96 223.99 114.00 223.00 C 109.04 222.01 98.64 225.77 96.00 222.00
C 93.98 219.11 96.28 208.64 96.00 205.00 C 95.72 201.36 94.43 192.18 96.00 189.00
C 90.90 191.10 86.42 190.90 81.00 190.00 Z"/>
</g>
<g fill="#C4D8C8" fill-opacity="1.00" stroke="None">
<path d="
M 171.00 196.00 
C 171.00 196.00 170.92 195.49 171.00 195.00
C 167.40 194.67 163.62 195.00 160.00 195.00
C 160.00 195.00 159.00 195.05 159.00 195.00
C 160.95 197.02 168.03 196.27 171.00 196.00 Z"/>
</g>
<g fill="#C3D7C7" fill-opacity="1.00" stroke="None">
<path d="
M 342.00 196.00 
C 347.05 196.73 357.30 196.37 362.00 196.00 C 366.70 195.63 377.63 198.39 380.00 195.00
C 367.91 197.84 352.79 191.22 341.00 195.00
C 341.06 195.35 341.65 195.95 342.00 196.00 Z"/>
</g>
<g fill="#414356" fill-opacity="1.00" stroke="None">
<path d="
M 212.00 312.00 
C 217.66 312.70 225.12 312.30 230.00 311.00
C 216.37 299.66 222.17 274.49 222.00 257.00 C 221.83 239.51 216.61 214.68 231.00 203.00
C 214.37 203.00 198.98 205.19 202.00 224.00 C 205.02 242.81 199.50 257.28 202.00 273.00 C 204.50 288.72 194.61 307.69 212.00 312.00 Z"/>
</g>
<g fill="#585A60" fill-opacity="1.00" stroke="None">
<path d="
M 212.00 312.00 
C 228.13 316.00 252.27 311.74 269.00 313.00 C 285.73 314.26 309.94 317.24 311.00 297.00 C 312.06 276.76 309.17 258.84 311.00 239.00 C 312.83 219.16 311.40 201.30 289.00 203.00 C 266.60 204.70 252.63 203.00 231.00 203.00
C 216.61 214.68 221.83 239.51 222.00 257.00 C 222.17 274.49 216.37 299.66 230.00 311.00
C 225.12 312.30 217.66 312.70 212.00 312.00 Z"/>
</g>
<g fill="#9BCFA5" fill-opacity="1.00" stroke="None">
<path d="
M 171.00 211.00 
C 171.00 211.00 171.00 210.50 171.00 210.00
C 164.47 209.41 157.45 211.09 151.00 210.00
C 156.41 211.64 164.77 211.56 171.00 211.00 Z"/>
</g>
<g fill="#9BCFA5" fill-opacity="1.00" stroke="None">
<path d="
M 342.00 211.00 
C 355.17 212.19 375.91 213.67 388.00 210.00
C 373.16 212.51 357.01 208.64 342.00 210.00
C 342.00 210.00 342.00 210.50 342.00 211.00 Z"/>
</g>
<g fill="#95CEA1" fill-opacity="1.00" stroke="None">
<path d="
M 171.00 223.00 
C 171.00 223.00 171.00 222.50 171.00 222.00
C 146.20 219.76 120.85 223.68 96.00 222.00
C 98.64 225.77 109.04 222.01 114.00 223.00 C 118.96 223.99 127.32 222.66 133.00 223.00 C 138.68 223.34 146.03 223.07 152.00 223.00 C 157.97 222.93 164.98 223.54 171.00 223.00 Z"/>
</g>
<g fill="#96CEA1" fill-opacity="1.00" stroke="None">
<path d="
M 342.00 223.00 
C 348.51 223.59 355.58 221.85 362.00 223.00
C 356.65 221.31 348.19 221.44 342.00 222.00
C 342.00 222.00 342.00 222.50 342.00 223.00 Z"/>
</g>
<g fill="#DBDCDC" fill-opacity="1.00" stroke="None">
<path d="
M 342.00 238.00 
C 349.26 236.43 358.03 240.61 364.75 236.75 C 371.47 232.89 367.79 224.83 362.00 223.00
C 355.58 221.85 348.51 223.59 342.00 223.00
C 342.00 228.00 342.00 233.00 342.00 238.00 Z"/>
</g>
<g fill="#CDD9D0" fill-opacity="1.00" stroke="None">
<path d="
M 88.00 238.00 
C 101.15 240.45 116.62 237.49 130.00 238.00 C 143.38 238.51 157.69 239.20 171.00 238.00
C 171.00 238.00 171.00 237.50 171.00 237.00
C 157.32 235.76 142.60 238.43 129.00 237.00 C 115.40 235.57 100.65 239.15 88.00 238.00 Z"/>
</g>
<g fill="#DCDCDC" fill-opacity="1.00" stroke="None">
<path d="
M 81.00 256.00 
C 77.52 271.73 83.16 288.93 81.00 305.00 C 78.84 321.07 83.32 338.88 81.00 355.00
C 86.42 354.10 90.90 353.90 96.00 356.00
C 96.00 334.67 96.00 313.33 96.00 292.00
C 104.23 290.09 130.12 297.79 128.99 284.01 C 127.86 270.23 104.19 280.03 96.00 277.00
C 96.00 273.00 96.00 269.00 96.00 265.00
C 104.06 265.51 114.14 264.32 121.99 264.99 C 129.84 265.66 132.06 253.02 125.22 250.78 C 118.38 248.54 107.32 250.53 100.00 250.00 C 92.68 249.47 83.81 248.39 81.00 256.00 Z"/>
</g>
<g fill="#DBDCDB" fill-opacity="1.00" stroke="None">
<path d="
M 171.00 265.00 
C 171.00 260.00 171.00 255.00 171.00 250.00
C 163.63 251.18 143.58 245.55 144.07 257.93 C 144.56 270.30 163.83 262.99 171.00 265.00 Z"/>
</g>
<g fill="#DCDCDC" fill-opacity="1.00" stroke="None">
<path d="
M 342.00 265.00 
C 349.89 263.86 368.60 269.42 367.99 257.01 C 367.38 244.60 349.72 252.10 342.00 250.00
C 342.00 255.00 342.00 260.00 342.00 265.00 Z"/>
</g>
<g fill="#DCDCDC" fill-opacity="1.00" stroke="None">
<path d="
M 416.00 356.00 
C 421.09 353.90 425.55 354.10 431.00 355.00
C 428.69 339.03 432.93 322.01 431.00 306.00 C 429.07 289.99 433.84 272.84 431.00 257.00
C 428.90 248.12 417.91 249.55 410.00 250.00 C 402.09 250.45 391.93 248.23 384.23 251.23 C 376.53 254.23 380.10 266.89 389.00 265.00 C 397.90 263.11 407.07 266.42 416.00 265.00
C 416.00 269.00 416.00 273.00 416.00 277.00
C 407.67 279.24 379.67 270.82 380.01 284.99 C 380.35 299.16 407.95 288.82 416.00 292.00
C 416.00 296.33 416.00 300.67 416.00 305.00
C 407.71 307.10 378.62 298.89 380.03 312.97 C 381.43 327.06 407.61 316.75 416.00 320.00
C 415.07 325.54 417.24 332.62 416.00 338.00 C 414.76 343.38 418.38 351.18 416.00 356.00 Z"/>
</g>
<g fill="#86CB95" fill-opacity="1.00" stroke="None">
<path d="
M 80.00 356.00 
C 80.33 355.83 80.95 355.35 81.00 355.00
C 83.32 338.88 78.84 321.07 81.00 305.00 C 83.16 288.93 77.52 271.73 81.00 256.00
C 77.59 265.23 80.36 278.57 80.00 289.00 C 79.64 299.43 79.02 312.62 80.00 323.00 C 80.98 333.38 76.87 346.23 80.00 356.00 Z"/>
</g>
<g fill="#86CB95" fill-opacity="1.00" stroke="None">
<path d="
M 431.00 355.00 
C 431.05 355.35 431.67 355.83 432.00 356.00
C 435.17 346.11 430.80 332.38 432.00 322.00 C 433.20 311.62 432.10 299.36 432.00 289.00 C 431.90 278.64 433.94 266.31 431.00 257.00
C 433.84 272.84 429.07 289.99 431.00 306.00 C 432.93 322.01 428.69 339.03 431.00 355.00 Z"/>
</g>
<g fill="#DBDCDB" fill-opacity="1.00" stroke="None">
<path d="
M 151.00 292.00 
C 157.45 293.09 164.47 291.41 171.00 292.00
C 171.00 287.00 171.00 282.00 171.00 277.00
C 163.44 278.30 154.44 274.54 147.70 278.70 C 140.97 282.87 144.91 290.15 151.00 292.00 Z"/>
</g>
<g fill="#DCDCDC" fill-opacity="1.00" stroke="None">
<path d="
M 342.00 292.00 
C 348.51 291.41 355.58 293.15 362.00 292.00
C 368.47 289.96 371.02 281.46 364.02 277.98 C 357.03 274.49 349.37 278.57 342.00 277.00
C 342.00 282.00 342.00 287.00 342.00 292.00 Z"/>
</g>
<g fill="#8BCC99" fill-opacity="1.00" stroke="None">
<path d="
M 171.00 293.00 
C 171.00 293.00 171.00 292.50 171.00 292.00
C 164.47 291.41 157.45 293.09 151.00 292.00
C 156.41 293.64 164.77 293.56 171.00 293.00 Z"/>
</g>
<g fill="#8BCC99" fill-opacity="1.00" stroke="None">
<path d="
M 342.00 293.00 
C 348.18 293.56 356.59 293.71 362.00 292.00
C 355.58 293.15 348.51 291.41 342.00 292.00
C 342.00 292.00 342.00 292.50 342.00 293.00 Z"/>
</g>
<g fill="#A5D1AE" fill-opacity="1.00" stroke="None">
<path d="
M 151.00 305.00 
C 157.45 303.91 164.47 305.59 171.00 305.00
C 171.00 305.00 171.00 304.50 171.00 304.00
C 164.78 303.44 156.46 303.34 151.00 305.00 Z"/>
</g>
<g fill="#A5D1AE" fill-opacity="1.00" stroke="None">
<path d="
M 342.00 305.00 
C 348.53 305.59 355.55 303.91 362.00 305.00
C 356.60 303.36 348.23 303.44 342.00 304.00
C 342.00 304.00 342.00 304.50 342.00 305.00 Z"/>
</g>
<g fill="#DCDCDC" fill-opacity="1.00" stroke="None">
<path d="
M 144.00 383.00 
C 148.34 381.32 154.64 381.45 159.00 383.00
C 157.20 363.14 157.20 339.86 159.00 320.00
C 160.94 317.98 168.09 318.74 171.00 319.00
C 171.00 314.33 171.00 309.67 171.00 305.00
C 164.47 305.59 157.45 303.91 151.00 305.00
C 140.81 308.09 144.95 318.24 144.00 327.00 C 143.05 335.76 145.62 346.45 144.00 355.00 C 142.38 363.55 147.37 375.19 144.00 383.00 Z"/>
</g>
<g fill="#DCDCDC" fill-opacity="1.00" stroke="None">
<path d="
M 342.00 319.00 
C 348.52 318.06 355.51 320.10 362.00 319.00
C 370.11 316.54 370.11 307.46 362.00 305.00
C 355.55 303.91 348.53 305.59 342.00 305.00
C 342.00 309.31 342.93 314.81 342.00 319.00 Z"/>
</g>
<g fill="#BAD6C0" fill-opacity="1.00" stroke="None">
<path d="
M 159.00 320.00 
C 159.00 319.96 160.00 320.00 160.00 320.00
C 163.62 320.00 167.40 320.32 171.00 320.00
C 171.00 320.00 171.00 319.50 171.00 319.00
C 168.09 318.74 160.94 317.98 159.00 320.00 Z"/>
</g>
<g fill="#B7D3BD" fill-opacity="1.00" stroke="None">
<path d="
M 341.00 320.00 
C 346.21 321.67 357.38 320.40 362.00 319.00
C 355.51 320.10 348.52 318.06 342.00 319.00
C 341.65 319.05 341.03 319.65 341.00 320.00 Z"/>
</g>
<g fill="#78C889" fill-opacity="1.00" stroke="None">
<path d="
M 159.00 383.00 
C 159.44 383.16 160.00 383.00 160.00 383.00
C 161.80 363.14 161.79 339.87 160.00 320.00
C 160.00 320.00 159.00 319.96 159.00 320.00
C 157.20 339.86 157.20 363.14 159.00 383.00 Z"/>
</g>
<g fill="#ABAEAE" fill-opacity="1.00" stroke="None">
<path d="
M 194.00 344.00 
C 198.57 344.41 204.46 344.66 209.00 344.00
C 209.35 343.95 209.74 343.12 210.00 343.00
C 204.72 343.00 199.26 343.42 194.00 343.00
C 194.00 343.00 194.00 343.50 194.00 344.00 Z"/>
</g>
<g fill="#DBDBDB" fill-opacity="1.00" stroke="None">
<path d="
M 222.00 344.00 
C 225.85 349.45 218.15 361.39 223.25 366.75 C 228.35 372.11 234.15 369.09 236.00 363.00
C 237.09 356.55 235.41 349.53 236.00 343.00
C 231.48 343.00 225.77 343.99 222.00 344.00 Z"/>
</g>
<g fill="#B8D4BE" fill-opacity="1.00" stroke="None">
<path d="
M 236.00 363.00 
C 237.64 357.60 237.56 349.23 237.00 343.00
C 237.00 343.00 236.50 343.00 236.00 343.00
C 235.41 349.53 237.09 356.55 236.00 363.00 Z"/>
</g>
<g fill="#DBDBDB" fill-opacity="1.00" stroke="None">
<path d="
M 264.00 343.00 
C 259.00 343.00 254.00 343.00 249.00 343.00
C 250.13 350.22 244.65 370.46 256.78 369.78 C 268.90 369.10 262.21 350.26 264.00 343.00 Z"/>
</g>
<g fill="#DBDBDB" fill-opacity="1.00" stroke="None">
<path d="
M 291.00 343.00 
C 286.00 343.00 281.00 343.00 276.00 343.00
C 277.08 350.28 271.85 370.10 283.93 369.93 C 296.00 369.75 289.22 349.92 291.00 343.00 Z"/>
</g>
<g fill="#B8D4BE" fill-opacity="1.00" stroke="None">
<path d="
M 304.00 363.00 
C 302.91 356.55 304.59 349.53 304.00 343.00
C 304.00 343.00 303.50 343.00 303.00 343.00
C 302.44 349.22 302.34 357.54 304.00 363.00 Z"/>
</g>
<g fill="#DBDCDB" fill-opacity="1.00" stroke="None">
<path d="
M 304.00 363.00 
C 306.57 371.46 315.44 371.44 318.00 363.00
C 319.09 356.55 317.41 349.53 318.00 343.00
C 313.33 343.00 308.67 343.00 304.00 343.00
C 304.59 349.53 302.91 356.55 304.00 363.00 Z"/>
</g>
<g fill="#AAD2B3" fill-opacity="1.00" stroke="None">
<path d="
M 318.00 363.00 
C 319.64 357.59 319.56 349.23 319.00 343.00
C 319.00 343.00 318.50 343.00 318.00 343.00
C 317.41 349.53 319.09 356.55 318.00 363.00 Z"/>
</g>
<g fill="#DCDCDC" fill-opacity="1.00" stroke="None">
<path d="
M 209.00 344.00 
C 204.46 344.66 198.57 344.41 194.00 344.00
C 194.00 351.20 190.50 369.99 201.93 369.93 C 213.36 369.86 207.51 350.70 209.00 344.00 Z"/>
</g>
<g fill="#F0D323" fill-opacity="1.00" stroke="None">
<path d="
M 81.00 355.00 
C 80.95 355.35 80.33 355.83 80.00 356.00
C 58.48 366.73 63.79 400.12 88.93 399.93 C 114.07 399.73 117.69 364.93 96.00 356.00
C 90.90 353.90 86.42 354.10 81.00 355.00
M 91.00 370.00 
C 99.42 372.52 94.16 387.83 85.33 383.67 C 76.50 379.51 82.62 367.50 91.00 370.00 Z"/>
</g>
<g fill="#F0D323" fill-opacity="1.00" stroke="None">
<path d="
M 416.00 356.00 
C 394.44 364.88 397.82 399.72 423.00 400.00 C 448.17 400.27 453.54 366.74 432.00 356.00
C 431.67 355.83 431.05 355.35 431.00 355.00
C 425.55 354.10 421.09 353.90 416.00 356.00
M 427.00 370.00 
C 435.44 372.83 429.54 388.14 421.00 384.00 C 412.46 379.86 418.21 367.05 427.00 370.00 Z"/>
</g>
<g fill="#45BD54" fill-opacity="1.00" stroke="None">
<path d="
M 91.00 370.00 
C 82.62 367.50 76.50 379.51 85.33 383.67 C 94.16 387.83 99.42 372.52 91.00 370.00 Z"/>
</g>
<g fill="#45BD54" fill-opacity="1.00" stroke="None">
<path d="
M 427.00 370.00 
C 418.21 367.05 412.46 379.86 421.00 384.00 C 429.54 388.14 435.44 372.83 427.00 370.00 Z"/>
</g>
<g fill="#DCDCDC" fill-opacity="1.00" stroke="None">
<path d="
M 173.00 397.00 
C 174.36 400.97 175.20 408.14 173.00 412.00
C 191.22 410.32 209.78 413.79 228.00 412.00 C 246.22 410.21 265.95 415.05 284.00 412.00
C 293.06 408.33 294.48 392.16 289.92 382.08 C 285.35 372.01 268.81 386.60 276.00 397.00
C 272.00 397.00 268.00 397.00 264.00 397.00
C 264.23 390.56 265.43 378.06 256.07 378.07 C 246.72 378.09 249.23 391.03 249.00 397.00
C 245.00 397.00 241.00 397.00 237.00 397.00
C 237.07 390.80 238.39 378.32 229.07 378.07 C 219.76 377.83 222.05 391.09 222.00 397.00
C 214.39 395.78 204.37 398.62 197.00 397.00 C 189.63 395.38 179.53 400.23 173.00 397.00 Z"/>
</g>
<g fill="#DBDCDB" fill-opacity="1.00" stroke="None">
<path d="
M 339.00 412.00 
C 337.43 407.81 337.43 401.21 339.00 397.00
C 332.00 397.00 325.00 397.00 318.00 397.00
C 317.59 391.72 320.67 377.27 311.07 378.07 C 301.48 378.87 303.87 388.26 303.00 396.00 C 302.13 403.74 304.49 411.47 313.00 412.00 C 321.51 412.53 331.65 408.83 339.00 412.00 Z"/>
</g>
<g fill="#F0D323" fill-opacity="1.00" stroke="None">
<path d="
M 144.00 383.00 
C 135.44 386.32 127.18 396.90 129.02 406.98 C 130.86 417.05 136.90 424.60 148.00 427.00 C 159.10 429.40 167.00 420.46 173.00 413.00
C 173.24 412.70 173.00 412.00 173.00 412.00
C 175.20 408.14 174.36 400.97 173.00 397.00
C 170.79 390.54 164.88 386.92 160.00 383.00
C 160.00 383.00 159.44 383.16 159.00 383.00
C 154.64 381.45 148.34 381.32 144.00 383.00
M 153.00 397.00 
C 162.40 398.20 159.34 414.16 150.00 412.00 C 140.65 409.83 144.40 395.90 153.00 397.00 Z"/>
</g>
<g fill="#EFD324" fill-opacity="1.00" stroke="None">
<path d="
M 339.00 397.00 
C 337.43 401.21 337.43 407.81 339.00 412.00
C 347.71 435.30 384.48 429.12 383.98 404.02 C 383.47 378.93 347.27 374.86 339.00 397.00
M 362.00 397.00 
C 370.94 397.92 369.24 413.44 359.99 411.99 C 350.74 410.55 352.97 396.07 362.00 397.00 Z"/>
</g>
<g fill="#4ABD53" fill-opacity="1.00" stroke="None">
<path d="
M 153.00 397.00 
C 144.40 395.90 140.65 409.83 150.00 412.00 C 159.34 414.16 162.40 398.20 153.00 397.00 Z"/>
</g>
<g fill="#45BD54" fill-opacity="1.00" stroke="None">
<path d="
M 362.00 397.00 
C 352.97 396.07 350.74 410.55 359.99 411.99 C 369.24 413.44 370.94 397.92 362.00 397.00 Z"/>
</g>
<g fill="#72C784" fill-opacity="1.00" stroke="None">
<path d="
M 173.00 413.00 
C 190.67 414.60 211.41 413.69 229.00 413.00 C 246.60 412.31 267.79 416.92 284.00 412.00
C 265.95 415.05 246.22 410.21 228.00 412.00 C 209.78 413.79 191.22 410.32 173.00 412.00
C 173.00 412.00 173.24 412.70 173.00 413.00 Z"/>
</g>
<g fill="#000000" fill-opacity="0.00" stroke="None">
<path d="
M 0.00 512.00 
L 512.00 512.00
L 512.00 478.00
C 501.08 508.18 470.61 501.90 442.00 502.00 C 413.39 502.10 378.78 501.96 349.00 502.00 C 319.22 502.04 286.15 501.99 256.00 502.00 C 225.85 502.01 191.83 502.01 162.00 502.00 C 132.17 501.99 97.60 502.04 69.00 502.00 C 40.40 501.96 10.96 507.91 0.00 478.00
L 0.00 512.00 Z"/>
</g>
</svg>