<svg xmlns="http://www.w3.org/2000/svg" xmlns:v="https://svgstorm.com"
viewBox = "0 0 512 512"
width="512"
height="512">
<g fill="None" fill-opacity="0.0" stroke="#000000" stroke-opacity="0.00" stroke-width="0.3"><path d="
M 0.00 24.00 
C 3.39 12.84 12.85 3.28 24.00 0.00
L 0.00 0.00
L 0.00 24.00 Z"/>
</g>
<g fill="None" fill-opacity="0.0" stroke="#424242" stroke-opacity="0.97" stroke-width="0.3"><path d="
M 0.00 24.00 
L 0.00 104.00
C 4.23 117.20 16.77 129.44 32.00 128.00
C 32.00 135.00 32.00 142.00 32.00 149.00
C 17.18 147.95 4.20 159.97 0.00 173.00
L 0.00 253.00
C 3.57 266.90 17.23 278.02 32.00 278.00
C 32.00 284.67 32.00 291.33 32.00 298.00
C 17.17 297.80 3.59 309.18 0.00 323.00
L 0.00 403.00
C 6.86 422.72 23.02 428.60 44.00 427.00 C 64.98 425.40 91.51 428.20 113.00 427.00
C 112.51 419.47 108.94 412.71 109.00 405.00
C 96.35 403.54 75.87 406.95 64.00 405.00 C 52.13 403.05 30.53 410.82 23.75 400.25 C 16.97 389.67 23.45 367.77 22.00 356.00 C 20.55 344.23 17.62 322.97 31.67 320.67 C 45.72 318.37 61.28 320.68 76.00 320.00 C 90.72 319.32 107.12 320.51 122.00 320.00
C 124.47 312.02 130.84 305.60 134.00 298.00
C 107.33 298.00 80.67 298.00 54.00 298.00
C 54.00 291.33 54.00 284.67 54.00 278.00
C 65.70 277.95 78.39 278.06 90.00 278.00 C 101.61 277.94 115.85 278.11 127.00 278.00 C 138.15 277.89 150.23 280.33 157.75 272.75 C 165.27 265.17 170.57 262.39 179.00 257.00
C 163.62 254.70 146.11 256.63 130.00 256.00 C 113.89 255.37 95.89 256.83 80.00 256.00 C 64.11 255.17 45.79 257.99 30.93 255.07 C 16.07 252.16 21.60 225.26 22.00 214.00 C 22.40 202.74 15.42 174.73 30.22 171.22 C 45.03 167.72 64.17 172.43 80.00 171.00 C 95.83 169.57 113.70 171.64 130.00 171.00 C 146.30 170.36 163.47 171.27 180.00 171.00 C 196.53 170.73 213.34 171.08 230.00 171.00 C 246.66 170.92 264.33 170.95 281.00 171.00 C 297.67 171.05 314.44 170.78 331.00 171.00 C 347.56 171.22 364.62 170.45 381.00 171.00 C 397.38 171.55 414.98 169.77 431.00 171.00 C 447.02 172.23 465.78 168.26 481.00 171.00 C 496.22 173.74 490.10 201.86 490.00 213.00 C 489.90 224.14 496.34 251.26 481.98 254.97 C 467.61 258.69 448.71 254.87 433.00 256.00 C 417.29 257.13 399.12 255.21 383.00 256.00 C 366.88 256.79 348.39 254.57 333.00 257.00
C 341.23 262.73 346.35 264.31 353.75 272.25 C 361.15 280.19 373.82 278.02 385.00 278.00 C 396.18 277.98 409.31 278.01 421.00 278.00 C 432.69 277.99 446.15 278.01 458.00 278.00
C 458.00 284.67 458.00 291.33 458.00 298.00
C 431.33 298.00 404.67 298.00 378.00 298.00
C 381.17 305.60 387.52 312.00 390.00 320.00
C 402.70 319.32 415.28 320.91 428.00 320.00 C 440.72 319.09 454.35 321.71 467.00 320.00 C 479.65 318.29 491.64 322.69 490.00 336.00 C 488.36 349.31 491.08 363.37 490.00 375.00 C 488.92 386.63 494.29 402.33 480.93 404.93 C 467.57 407.52 455.18 403.70 442.00 405.00 C 428.82 406.30 416.14 404.03 403.00 405.00
C 403.07 412.69 399.49 419.43 399.00 427.00
C 420.33 428.27 446.12 425.31 467.00 427.00 C 487.88 428.70 505.23 423.13 512.00 403.00
L 512.00 323.00
C 508.35 309.11 494.86 297.83 480.00 298.00
C 480.00 291.33 480.00 284.67 480.00 278.00
C 494.75 278.05 508.48 266.83 512.00 253.00
L 512.00 173.00
C 507.74 159.90 494.84 147.98 480.00 149.00
C 480.00 142.00 480.00 135.00 480.00 128.00
C 495.18 129.44 507.95 117.23 512.00 104.00
L 512.00 24.00
C 508.67 12.86 499.27 3.07 488.00 0.00
L 24.00 0.00
C 12.85 3.28 3.39 12.84 0.00 24.00
M 483.00 22.00 
C 494.12 24.75 490.70 46.41 490.00 57.00 C 489.30 67.59 493.23 86.99 489.67 98.67 C 486.11 110.35 465.56 105.36 454.00 106.00 C 442.44 106.64 425.02 105.72 412.00 106.00 C 398.98 106.28 382.64 105.87 369.00 106.00 C 355.36 106.13 340.93 105.95 327.00 106.00 C 313.07 106.05 298.05 106.00 284.00 106.00 C 269.95 106.00 256.09 106.05 242.00 106.00 C 227.91 105.95 213.08 106.12 199.00 106.00 C 184.92 105.88 171.00 106.28 157.00 106.00 C 143.00 105.72 127.82 106.61 114.00 106.00 C 100.18 105.39 85.38 107.39 72.00 106.00 C 58.62 104.61 41.71 109.17 29.33 105.67 C 16.95 102.17 21.65 82.16 22.00 71.00 C 22.35 59.84 18.92 41.25 22.33 29.33 C 25.74 17.41 46.51 22.75 58.00 22.00 C 69.49 21.25 87.01 22.33 100.00 22.00 C 112.99 21.67 129.37 22.15 143.00 22.00 C 156.63 21.85 171.07 22.05 185.00 22.00 C 198.93 21.95 213.95 22.00 228.00 22.00 C 242.05 22.00 255.89 21.95 270.00 22.00 C 284.11 22.05 298.88 21.87 313.00 22.00 C 327.12 22.13 340.91 21.69 355.00 22.00 C 369.09 22.31 383.99 21.32 398.00 22.00 C 412.01 22.68 426.18 20.47 440.00 22.00 C 453.82 23.53 469.59 18.68 483.00 22.00
M 458.00 128.00 
C 458.00 135.00 458.00 142.00 458.00 149.00
C 323.33 149.00 188.67 149.00 54.00 149.00
C 54.00 142.00 54.00 135.00 54.00 128.00
C 188.67 128.00 323.33 128.00 458.00 128.00 Z"/>
</g>
<g fill="None" fill-opacity="0.0" stroke="#000000" stroke-opacity="0.00" stroke-width="0.3"><path d="
M 512.00 24.00 
L 512.00 0.00
L 488.00 0.00
C 499.27 3.07 508.67 12.86 512.00 24.00 Z"/>
</g>
<g fill="None" fill-opacity="0.0" stroke="#000000" stroke-opacity="0.00" stroke-width="0.3"><path d="
M 483.00 22.00 
C 469.59 18.68 453.82 23.53 440.00 22.00 C 426.18 20.47 412.01 22.68 398.00 22.00 C 383.99 21.32 369.09 22.31 355.00 22.00 C 340.91 21.69 327.12 22.13 313.00 22.00 C 298.88 21.87 284.11 22.05 270.00 22.00 C 255.89 21.95 242.05 22.00 228.00 22.00 C 213.95 22.00 198.93 21.95 185.00 22.00 C 171.07 22.05 156.63 21.85 143.00 22.00 C 129.37 22.15 112.99 21.67 100.00 22.00 C 87.01 22.33 69.49 21.25 58.00 22.00 C 46.51 22.75 25.74 17.41 22.33 29.33 C 18.92 41.25 22.35 59.84 22.00 71.00 C 21.65 82.16 16.95 102.17 29.33 105.67 C 41.71 109.17 58.62 104.61 72.00 106.00 C 85.38 107.39 100.18 105.39 114.00 106.00 C 127.82 106.61 143.00 105.72 157.00 106.00 C 171.00 106.28 184.92 105.88 199.00 106.00 C 213.08 106.12 227.91 105.95 242.00 106.00 C 256.09 106.05 269.95 106.00 284.00 106.00 C 298.05 106.00 313.07 106.05 327.00 106.00 C 340.93 105.95 355.36 106.13 369.00 106.00 C 382.64 105.87 398.98 106.28 412.00 106.00 C 425.02 105.72 442.44 106.64 454.00 106.00 C 465.56 105.36 486.11 110.35 489.67 98.67 C 493.23 86.99 489.30 67.59 490.00 57.00 C 490.70 46.41 494.12 24.75 483.00 22.00
M 78.00 42.00 
C 89.02 44.73 88.34 67.79 85.67 77.67 C 83.00 87.55 60.63 89.02 50.33 85.67 C 40.03 82.32 39.65 60.87 42.33 50.33 C 45.01 39.79 68.79 39.72 78.00 42.00
M 142.00 42.00 
C 153.02 44.73 152.34 67.79 149.67 77.67 C 147.00 87.55 124.63 89.02 114.33 85.67 C 104.03 82.32 103.65 60.87 106.33 50.33 C 109.01 39.79 132.79 39.72 142.00 42.00
M 376.00 42.00 
C 387.80 44.31 382.45 58.45 384.00 67.00 C 385.55 75.55 381.96 88.89 370.33 85.67 C 358.70 82.45 363.27 70.01 362.00 61.00 C 360.73 51.99 364.36 39.72 376.00 42.00
M 419.00 42.00 
C 430.48 44.43 425.70 58.56 427.00 67.00 C 428.30 75.44 425.11 88.70 413.33 85.67 C 401.54 82.64 406.31 70.01 405.00 61.00 C 403.69 51.99 407.12 39.49 419.00 42.00
M 462.00 42.00 
C 472.98 44.32 468.99 58.73 470.00 67.00 C 471.01 75.27 468.14 88.62 456.33 85.67 C 444.52 82.72 449.27 70.20 448.00 61.00 C 446.73 51.80 449.84 39.43 462.00 42.00 Z"/>
</g>
<g fill="None" fill-opacity="0.0" stroke="#42A5F5" stroke-opacity="0.94" stroke-width="0.3"><path d="
M 78.00 42.00 
C 68.79 39.72 45.01 39.79 42.33 50.33 C 39.65 60.87 40.03 82.32 50.33 85.67 C 60.63 89.02 83.00 87.55 85.67 77.67 C 88.34 67.79 89.02 44.73 78.00 42.00 Z"/>
</g>
<g fill="None" fill-opacity="0.0" stroke="#42A5F5" stroke-opacity="0.94" stroke-width="0.3"><path d="
M 142.00 42.00 
C 132.79 39.72 109.01 39.79 106.33 50.33 C 103.65 60.87 104.03 82.32 114.33 85.67 C 124.63 89.02 147.00 87.55 149.67 77.67 C 152.34 67.79 153.02 44.73 142.00 42.00 Z"/>
</g>
<g fill="None" fill-opacity="0.0" stroke="#42A5F5" stroke-opacity="0.93" stroke-width="0.3"><path d="
M 376.00 42.00 
C 364.36 39.72 360.73 51.99 362.00 61.00 C 363.27 70.01 358.70 82.45 370.33 85.67 C 381.96 88.89 385.55 75.55 384.00 67.00 C 382.45 58.45 387.80 44.31 376.00 42.00 Z"/>
</g>
<g fill="None" fill-opacity="0.0" stroke="#42A5F5" stroke-opacity="0.93" stroke-width="0.3"><path d="
M 419.00 42.00 
C 407.12 39.49 403.69 51.99 405.00 61.00 C 406.31 70.01 401.54 82.64 413.33 85.67 C 425.11 88.70 428.30 75.44 427.00 67.00 C 425.70 58.56 430.48 44.43 419.00 42.00 Z"/>
</g>
<g fill="None" fill-opacity="0.0" stroke="#42A5F5" stroke-opacity="0.93" stroke-width="0.3"><path d="
M 462.00 42.00 
C 449.84 39.43 446.73 51.80 448.00 61.00 C 449.27 70.20 444.52 82.72 456.33 85.67 C 468.14 88.62 471.01 75.27 470.00 67.00 C 468.99 58.73 472.98 44.32 462.00 42.00 Z"/>
</g>
<g fill="None" fill-opacity="0.0" stroke="#000000" stroke-opacity="0.00" stroke-width="0.3"><path d="
M 0.00 173.00 
C 4.20 159.97 17.18 147.95 32.00 149.00
C 32.00 142.00 32.00 135.00 32.00 128.00
C 16.77 129.44 4.23 117.20 0.00 104.00
L 0.00 173.00 Z"/>
</g>
<g fill="None" fill-opacity="0.0" stroke="#000000" stroke-opacity="0.00" stroke-width="0.3"><path d="
M 512.00 173.00 
L 512.00 104.00
C 507.95 117.23 495.18 129.44 480.00 128.00
C 480.00 135.00 480.00 142.00 480.00 149.00
C 494.84 147.98 507.74 159.90 512.00 173.00 Z"/>
</g>
<g fill="None" fill-opacity="0.0" stroke="#000000" stroke-opacity="0.00" stroke-width="0.3"><path d="
M 458.00 128.00 
C 323.33 128.00 188.67 128.00 54.00 128.00
C 54.00 135.00 54.00 142.00 54.00 149.00
C 188.67 149.00 323.33 149.00 458.00 149.00
C 458.00 142.00 458.00 135.00 458.00 128.00 Z"/>
</g>
<g fill="None" fill-opacity="0.0" stroke="#000000" stroke-opacity="0.00" stroke-width="0.3"><path d="
M 0.00 403.00 
L 0.00 512.00
L 240.00 512.00
C 173.99 504.21 123.80 443.13 128.00 376.00 C 132.20 308.87 188.35 256.02 256.00 256.00 C 323.65 255.98 379.86 308.87 384.00 376.00 C 388.14 443.13 337.98 504.23 272.00 512.00
L 512.00 512.00
L 512.00 403.00
C 505.23 423.13 487.88 428.70 467.00 427.00 C 446.12 425.31 420.33 428.27 399.00 427.00
C 399.49 419.43 403.07 412.69 403.00 405.00
C 416.14 404.03 428.82 406.30 442.00 405.00 C 455.18 403.70 467.57 407.52 480.93 404.93 C 494.29 402.33 488.92 386.63 490.00 375.00 C 491.08 363.37 488.36 349.31 490.00 336.00 C 491.64 322.69 479.65 318.29 467.00 320.00 C 454.35 321.71 440.72 319.09 428.00 320.00 C 415.28 320.91 402.70 319.32 390.00 320.00
C 387.52 312.00 381.17 305.60 378.00 298.00
C 404.67 298.00 431.33 298.00 458.00 298.00
C 458.00 291.33 458.00 284.67 458.00 278.00
C 446.15 278.01 432.69 277.99 421.00 278.00 C 409.31 278.01 396.18 277.98 385.00 278.00 C 373.82 278.02 361.15 280.19 353.75 272.25 C 346.35 264.31 341.23 262.73 333.00 257.00
C 348.39 254.57 366.88 256.79 383.00 256.00 C 399.12 255.21 417.29 257.13 433.00 256.00 C 448.71 254.87 467.61 258.69 481.98 254.97 C 496.34 251.26 489.90 224.14 490.00 213.00 C 490.10 201.86 496.22 173.74 481.00 171.00 C 465.78 168.26 447.02 172.23 431.00 171.00 C 414.98 169.77 397.38 171.55 381.00 171.00 C 364.62 170.45 347.56 171.22 331.00 171.00 C 314.44 170.78 297.67 171.05 281.00 171.00 C 264.33 170.95 246.66 170.92 230.00 171.00 C 213.34 171.08 196.53 170.73 180.00 171.00 C 163.47 171.27 146.30 170.36 130.00 171.00 C 113.70 171.64 95.83 169.57 80.00 171.00 C 64.17 172.43 45.03 167.72 30.22 171.22 C 15.42 174.73 22.40 202.74 22.00 214.00 C 21.60 225.26 16.07 252.16 30.93 255.07 C 45.79 257.99 64.11 255.17 80.00 256.00 C 95.89 256.83 113.89 255.37 130.00 256.00 C 146.11 256.63 163.62 254.70 179.00 257.00
C 170.57 262.39 165.27 265.17 157.75 272.75 C 150.23 280.33 138.15 277.89 127.00 278.00 C 115.85 278.11 101.61 277.94 90.00 278.00 C 78.39 278.06 65.70 277.95 54.00 278.00
C 54.00 284.67 54.00 291.33 54.00 298.00
C 80.67 298.00 107.33 298.00 134.00 298.00
C 130.84 305.60 124.47 312.02 122.00 320.00
C 107.12 320.51 90.72 319.32 76.00 320.00 C 61.28 320.68 45.72 318.37 31.67 320.67 C 17.62 322.97 20.55 344.23 22.00 356.00 C 23.45 367.77 16.97 389.67 23.75 400.25 C 30.53 410.82 52.13 403.05 64.00 405.00 C 75.87 406.95 96.35 403.54 109.00 405.00
C 108.94 412.71 112.51 419.47 113.00 427.00
C 91.51 428.20 64.98 425.40 44.00 427.00 C 23.02 428.60 6.86 422.72 0.00 403.00
M 80.00 192.00 
C 88.15 194.82 85.41 208.52 86.00 215.00 C 86.59 221.48 86.28 234.87 76.97 234.97 C 67.67 235.08 57.75 236.23 48.78 234.22 C 39.81 232.21 42.60 218.24 42.00 212.00 C 41.40 205.76 41.85 190.89 51.01 192.01 C 60.17 193.13 71.45 189.04 80.00 192.00
M 144.00 192.00 
C 152.15 194.82 149.41 208.52 150.00 215.00 C 150.59 221.48 150.28 234.87 140.97 234.97 C 131.67 235.08 121.75 236.23 112.78 234.22 C 103.81 232.21 106.60 218.24 106.00 212.00 C 105.40 205.76 105.85 190.89 115.01 192.01 C 124.17 193.13 135.45 189.04 144.00 192.00
M 378.00 192.00 
C 388.34 195.14 382.15 210.36 384.00 218.00 C 385.85 225.64 380.55 241.19 368.78 234.22 C 357.01 227.26 356.63 185.51 378.00 192.00
M 421.00 192.00 
C 431.31 195.13 424.92 209.98 427.00 218.00 C 429.08 226.02 422.37 239.45 411.78 234.22 C 401.19 228.99 406.64 218.88 405.00 209.00 C 403.36 199.12 409.03 188.37 421.00 192.00
M 464.00 192.00 
C 473.83 195.63 468.42 209.82 470.00 218.00 C 471.58 226.18 465.74 238.87 454.78 234.22 C 443.81 229.57 449.98 218.72 448.00 209.00 C 446.02 199.29 452.18 187.64 464.00 192.00
M 79.00 341.00 
C 87.64 343.62 85.86 356.47 86.00 363.00 C 86.14 369.53 87.19 383.71 77.97 383.97 C 68.76 384.23 58.08 385.20 49.00 384.00 C 39.92 382.80 42.48 367.43 42.00 362.00 C 41.52 356.57 41.34 340.85 50.08 341.08 C 58.81 341.30 70.72 338.49 79.00 341.00
M 420.00 341.00 
C 431.04 344.35 424.96 357.44 427.00 366.00 C 429.04 374.56 423.46 388.28 412.00 384.00 C 400.54 379.72 407.09 368.05 405.00 359.00 C 402.91 349.95 408.71 337.57 420.00 341.00
M 463.00 341.00 
C 473.62 344.22 468.32 357.73 470.00 366.00 C 471.68 374.27 466.46 388.10 455.00 384.00 C 443.54 379.90 450.02 368.27 448.00 359.00 C 445.98 349.73 451.02 337.36 463.00 341.00 Z"/>
</g>
<g fill="None" fill-opacity="0.0" stroke="#42A5F5" stroke-opacity="0.96" stroke-width="0.3"><path d="
M 80.00 192.00 
C 71.45 189.04 60.17 193.13 51.01 192.01 C 41.85 190.89 41.40 205.76 42.00 212.00 C 42.60 218.24 39.81 232.21 48.78 234.22 C 57.75 236.23 67.67 235.08 76.97 234.97 C 86.28 234.87 86.59 221.48 86.00 215.00 C 85.41 208.52 88.15 194.82 80.00 192.00 Z"/>
</g>
<g fill="None" fill-opacity="0.0" stroke="#42A5F5" stroke-opacity="0.96" stroke-width="0.3"><path d="
M 144.00 192.00 
C 135.45 189.04 124.17 193.13 115.01 192.01 C 105.85 190.89 105.40 205.76 106.00 212.00 C 106.60 218.24 103.81 232.21 112.78 234.22 C 121.75 236.23 131.67 235.08 140.97 234.97 C 150.28 234.87 150.59 221.48 150.00 215.00 C 149.41 208.52 152.15 194.82 144.00 192.00 Z"/>
</g>
<g fill="None" fill-opacity="0.0" stroke="#42A5F5" stroke-opacity="0.94" stroke-width="0.3"><path d="
M 378.00 192.00 
C 356.63 185.51 357.01 227.26 368.78 234.22 C 380.55 241.19 385.85 225.64 384.00 218.00 C 382.15 210.36 388.34 195.14 378.00 192.00 Z"/>
</g>
<g fill="None" fill-opacity="0.0" stroke="#42A5F5" stroke-opacity="0.94" stroke-width="0.3"><path d="
M 421.00 192.00 
C 409.03 188.37 403.36 199.12 405.00 209.00 C 406.64 218.88 401.19 228.99 411.78 234.22 C 422.37 239.45 429.08 226.02 427.00 218.00 C 424.92 209.98 431.31 195.13 421.00 192.00 Z"/>
</g>
<g fill="None" fill-opacity="0.0" stroke="#42A5F5" stroke-opacity="0.94" stroke-width="0.3"><path d="
M 464.00 192.00 
C 452.18 187.64 446.02 199.29 448.00 209.00 C 449.98 218.72 443.81 229.57 454.78 234.22 C 465.74 238.87 471.58 226.18 470.00 218.00 C 468.42 209.82 473.83 195.63 464.00 192.00 Z"/>
</g>
<g fill="None" fill-opacity="0.0" stroke="#000000" stroke-opacity="0.00" stroke-width="0.3"><path d="
M 0.00 323.00 
C 3.59 309.18 17.17 297.80 32.00 298.00
C 32.00 291.33 32.00 284.67 32.00 278.00
C 17.23 278.02 3.57 266.90 0.00 253.00
L 0.00 323.00 Z"/>
</g>
<g fill="None" fill-opacity="0.0" stroke="#000000" stroke-opacity="0.00" stroke-width="0.3"><path d="
M 512.00 323.00 
L 512.00 253.00
C 508.48 266.83 494.75 278.05 480.00 278.00
C 480.00 284.67 480.00 291.33 480.00 298.00
C 494.86 297.83 508.35 309.11 512.00 323.00 Z"/>
</g>
<g fill="None" fill-opacity="0.0" stroke="#41A4F4" stroke-opacity="0.98" stroke-width="0.3"><path d="
M 240.00 512.00 
L 272.00 512.00
C 337.98 504.23 388.14 443.13 384.00 376.00 C 379.86 308.87 323.65 255.98 256.00 256.00 C 188.35 256.02 132.20 308.87 128.00 376.00 C 123.80 443.13 173.99 504.21 240.00 512.00
M 266.00 374.00 
C 277.48 374.51 297.36 373.33 308.00 374.00 C 318.64 374.67 340.98 369.19 340.98 384.02 C 340.97 398.85 319.80 393.28 309.00 394.00 C 298.20 394.72 277.69 393.46 266.00 394.00
C 265.49 405.48 266.67 425.36 266.00 436.00 C 265.33 446.64 270.81 468.98 255.98 468.98 C 241.14 468.97 246.72 447.80 246.00 437.00 C 245.28 426.20 246.54 405.69 246.00 394.00
C 234.52 393.49 214.64 394.67 204.00 394.00 C 193.36 393.33 171.02 398.81 171.02 383.98 C 171.03 369.14 192.20 374.72 203.00 374.00 C 213.80 373.28 234.31 374.54 246.00 374.00
C 246.51 362.52 245.33 342.64 246.00 332.00 C 246.67 321.36 241.19 299.02 256.02 299.02 C 270.85 299.03 265.28 320.20 266.00 331.00 C 266.72 341.80 265.46 362.31 266.00 374.00 Z"/>
</g>
<g fill="None" fill-opacity="0.0" stroke="#000000" stroke-opacity="0.00" stroke-width="0.3"><path d="
M 266.00 374.00 
C 265.46 362.31 266.72 341.80 266.00 331.00 C 265.28 320.20 270.85 299.03 256.02 299.02 C 241.19 299.02 246.67 321.36 246.00 332.00 C 245.33 342.64 246.51 362.52 246.00 374.00
C 234.31 374.54 213.80 373.28 203.00 374.00 C 192.20 374.72 171.03 369.14 171.02 383.98 C 171.02 398.81 193.36 393.33 204.00 394.00 C 214.64 394.67 234.52 393.49 246.00 394.00
C 246.54 405.69 245.28 426.20 246.00 437.00 C 246.72 447.80 241.14 468.97 255.98 468.98 C 270.81 468.98 265.33 446.64 266.00 436.00 C 266.67 425.36 265.49 405.48 266.00 394.00
C 277.69 393.46 298.20 394.72 309.00 394.00 C 319.80 393.28 340.97 398.85 340.98 384.02 C 340.98 369.19 318.64 374.67 308.00 374.00 C 297.36 373.33 277.48 374.51 266.00 374.00 Z"/>
</g>
<g fill="None" fill-opacity="0.0" stroke="#42A5F5" stroke-opacity="0.96" stroke-width="0.3"><path d="
M 79.00 341.00 
C 70.72 338.49 58.81 341.30 50.08 341.08 C 41.34 340.85 41.52 356.57 42.00 362.00 C 42.48 367.43 39.92 382.80 49.00 384.00 C 58.08 385.20 68.76 384.23 77.97 383.97 C 87.19 383.71 86.14 369.53 86.00 363.00 C 85.86 356.47 87.64 343.62 79.00 341.00 Z"/>
</g>
<g fill="None" fill-opacity="0.0" stroke="#42A5F5" stroke-opacity="0.94" stroke-width="0.3"><path d="
M 420.00 341.00 
C 408.71 337.57 402.91 349.95 405.00 359.00 C 407.09 368.05 400.54 379.72 412.00 384.00 C 423.46 388.28 429.04 374.56 427.00 366.00 C 424.96 357.44 431.04 344.35 420.00 341.00 Z"/>
</g>
<g fill="None" fill-opacity="0.0" stroke="#42A5F5" stroke-opacity="0.94" stroke-width="0.3"><path d="
M 463.00 341.00 
C 451.02 337.36 445.98 349.73 448.00 359.00 C 450.02 368.27 443.54 379.90 455.00 384.00 C 466.46 388.10 471.68 374.27 470.00 366.00 C 468.32 357.73 473.62 344.22 463.00 341.00 Z"/>
</g>
<g fill="#000000" fill-opacity="0.00" stroke="None">
<path d="
M 0.00 24.00 
C 3.39 12.84 12.85 3.28 24.00 0.00
L 0.00 0.00
L 0.00 24.00 Z"/>
</g>
<g fill="#424242" fill-opacity="0.97" stroke="None">
<path d="
M 0.00 24.00 
L 0.00 104.00
C 4.23 117.20 16.77 129.44 32.00 128.00
C 32.00 135.00 32.00 142.00 32.00 149.00
C 17.18 147.95 4.20 159.97 0.00 173.00
L 0.00 253.00
C 3.57 266.90 17.23 278.02 32.00 278.00
C 32.00 284.67 32.00 291.33 32.00 298.00
C 17.17 297.80 3.59 309.18 0.00 323.00
L 0.00 403.00
C 6.86 422.72 23.02 428.60 44.00 427.00 C 64.98 425.40 91.51 428.20 113.00 427.00
C 112.51 419.47 108.94 412.71 109.00 405.00
C 96.35 403.54 75.87 406.95 64.00 405.00 C 52.13 403.05 30.53 410.82 23.75 400.25 C 16.97 389.67 23.45 367.77 22.00 356.00 C 20.55 344.23 17.62 322.97 31.67 320.67 C 45.72 318.37 61.28 320.68 76.00 320.00 C 90.72 319.32 107.12 320.51 122.00 320.00
C 124.47 312.02 130.84 305.60 134.00 298.00
C 107.33 298.00 80.67 298.00 54.00 298.00
C 54.00 291.33 54.00 284.67 54.00 278.00
C 65.70 277.95 78.39 278.06 90.00 278.00 C 101.61 277.94 115.85 278.11 127.00 278.00 C 138.15 277.89 150.23 280.33 157.75 272.75 C 165.27 265.17 170.57 262.39 179.00 257.00
C 163.62 254.70 146.11 256.63 130.00 256.00 C 113.89 255.37 95.89 256.83 80.00 256.00 C 64.11 255.17 45.79 257.99 30.93 255.07 C 16.07 252.16 21.60 225.26 22.00 214.00 C 22.40 202.74 15.42 174.73 30.22 171.22 C 45.03 167.72 64.17 172.43 80.00 171.00 C 95.83 169.57 113.70 171.64 130.00 171.00 C 146.30 170.36 163.47 171.27 180.00 171.00 C 196.53 170.73 213.34 171.08 230.00 171.00 C 246.66 170.92 264.33 170.95 281.00 171.00 C 297.67 171.05 314.44 170.78 331.00 171.00 C 347.56 171.22 364.62 170.45 381.00 171.00 C 397.38 171.55 414.98 169.77 431.00 171.00 C 447.02 172.23 465.78 168.26 481.00 171.00 C 496.22 173.74 490.10 201.86 490.00 213.00 C 489.90 224.14 496.34 251.26 481.98 254.97 C 467.61 258.69 448.71 254.87 433.00 256.00 C 417.29 257.13 399.12 255.21 383.00 256.00 C 366.88 256.79 348.39 254.57 333.00 257.00
C 341.23 262.73 346.35 264.31 353.75 272.25 C 361.15 280.19 373.82 278.02 385.00 278.00 C 396.18 277.98 409.31 278.01 421.00 278.00 C 432.69 277.99 446.15 278.01 458.00 278.00
C 458.00 284.67 458.00 291.33 458.00 298.00
C 431.33 298.00 404.67 298.00 378.00 298.00
C 381.17 305.60 387.52 312.00 390.00 320.00
C 402.70 319.32 415.28 320.91 428.00 320.00 C 440.72 319.09 454.35 321.71 467.00 320.00 C 479.65 318.29 491.64 322.69 490.00 336.00 C 488.36 349.31 491.08 363.37 490.00 375.00 C 488.92 386.63 494.29 402.33 480.93 404.93 C 467.57 407.52 455.18 403.70 442.00 405.00 C 428.82 406.30 416.14 404.03 403.00 405.00
C 403.07 412.69 399.49 419.43 399.00 427.00
C 420.33 428.27 446.12 425.31 467.00 427.00 C 487.88 428.70 505.23 423.13 512.00 403.00
L 512.00 323.00
C 508.35 309.11 494.86 297.83 480.00 298.00
C 480.00 291.33 480.00 284.67 480.00 278.00
C 494.75 278.05 508.48 266.83 512.00 253.00
L 512.00 173.00
C 507.74 159.90 494.84 147.98 480.00 149.00
C 480.00 142.00 480.00 135.00 480.00 128.00
C 495.18 129.44 507.95 117.23 512.00 104.00
L 512.00 24.00
C 508.67 12.86 499.27 3.07 488.00 0.00
L 24.00 0.00
C 12.85 3.28 3.39 12.84 0.00 24.00
M 483.00 22.00 
C 494.12 24.75 490.70 46.41 490.00 57.00 C 489.30 67.59 493.23 86.99 489.67 98.67 C 486.11 110.35 465.56 105.36 454.00 106.00 C 442.44 106.64 425.02 105.72 412.00 106.00 C 398.98 106.28 382.64 105.87 369.00 106.00 C 355.36 106.13 340.93 105.95 327.00 106.00 C 313.07 106.05 298.05 106.00 284.00 106.00 C 269.95 106.00 256.09 106.05 242.00 106.00 C 227.91 105.95 213.08 106.12 199.00 106.00 C 184.92 105.88 171.00 106.28 157.00 106.00 C 143.00 105.72 127.82 106.61 114.00 106.00 C 100.18 105.39 85.38 107.39 72.00 106.00 C 58.62 104.61 41.71 109.17 29.33 105.67 C 16.95 102.17 21.65 82.16 22.00 71.00 C 22.35 59.84 18.92 41.25 22.33 29.33 C 25.74 17.41 46.51 22.75 58.00 22.00 C 69.49 21.25 87.01 22.33 100.00 22.00 C 112.99 21.67 129.37 22.15 143.00 22.00 C 156.63 21.85 171.07 22.05 185.00 22.00 C 198.93 21.95 213.95 22.00 228.00 22.00 C 242.05 22.00 255.89 21.95 270.00 22.00 C 284.11 22.05 298.88 21.87 313.00 22.00 C 327.12 22.13 340.91 21.69 355.00 22.00 C 369.09 22.31 383.99 21.32 398.00 22.00 C 412.01 22.68 426.18 20.47 440.00 22.00 C 453.82 23.53 469.59 18.68 483.00 22.00
M 458.00 128.00 
C 458.00 135.00 458.00 142.00 458.00 149.00
C 323.33 149.00 188.67 149.00 54.00 149.00
C 54.00 142.00 54.00 135.00 54.00 128.00
C 188.67 128.00 323.33 128.00 458.00 128.00 Z"/>
</g>
<g fill="#000000" fill-opacity="0.00" stroke="None">
<path d="
M 512.00 24.00 
L 512.00 0.00
L 488.00 0.00
C 499.27 3.07 508.67 12.86 512.00 24.00 Z"/>
</g>
<g fill="#000000" fill-opacity="0.00" stroke="None">
<path d="
M 483.00 22.00 
C 469.59 18.68 453.82 23.53 440.00 22.00 C 426.18 20.47 412.01 22.68 398.00 22.00 C 383.99 21.32 369.09 22.31 355.00 22.00 C 340.91 21.69 327.12 22.13 313.00 22.00 C 298.88 21.87 284.11 22.05 270.00 22.00 C 255.89 21.95 242.05 22.00 228.00 22.00 C 213.95 22.00 198.93 21.95 185.00 22.00 C 171.07 22.05 156.63 21.85 143.00 22.00 C 129.37 22.15 112.99 21.67 100.00 22.00 C 87.01 22.33 69.49 21.25 58.00 22.00 C 46.51 22.75 25.74 17.41 22.33 29.33 C 18.92 41.25 22.35 59.84 22.00 71.00 C 21.65 82.16 16.95 102.17 29.33 105.67 C 41.71 109.17 58.62 104.61 72.00 106.00 C 85.38 107.39 100.18 105.39 114.00 106.00 C 127.82 106.61 143.00 105.72 157.00 106.00 C 171.00 106.28 184.92 105.88 199.00 106.00 C 213.08 106.12 227.91 105.95 242.00 106.00 C 256.09 106.05 269.95 106.00 284.00 106.00 C 298.05 106.00 313.07 106.05 327.00 106.00 C 340.93 105.95 355.36 106.13 369.00 106.00 C 382.64 105.87 398.98 106.28 412.00 106.00 C 425.02 105.72 442.44 106.64 454.00 106.00 C 465.56 105.36 486.11 110.35 489.67 98.67 C 493.23 86.99 489.30 67.59 490.00 57.00 C 490.70 46.41 494.12 24.75 483.00 22.00
M 78.00 42.00 
C 89.02 44.73 88.34 67.79 85.67 77.67 C 83.00 87.55 60.63 89.02 50.33 85.67 C 40.03 82.32 39.65 60.87 42.33 50.33 C 45.01 39.79 68.79 39.72 78.00 42.00
M 142.00 42.00 
C 153.02 44.73 152.34 67.79 149.67 77.67 C 147.00 87.55 124.63 89.02 114.33 85.67 C 104.03 82.32 103.65 60.87 106.33 50.33 C 109.01 39.79 132.79 39.72 142.00 42.00
M 376.00 42.00 
C 387.80 44.31 382.45 58.45 384.00 67.00 C 385.55 75.55 381.96 88.89 370.33 85.67 C 358.70 82.45 363.27 70.01 362.00 61.00 C 360.73 51.99 364.36 39.72 376.00 42.00
M 419.00 42.00 
C 430.48 44.43 425.70 58.56 427.00 67.00 C 428.30 75.44 425.11 88.70 413.33 85.67 C 401.54 82.64 406.31 70.01 405.00 61.00 C 403.69 51.99 407.12 39.49 419.00 42.00
M 462.00 42.00 
C 472.98 44.32 468.99 58.73 470.00 67.00 C 471.01 75.27 468.14 88.62 456.33 85.67 C 444.52 82.72 449.27 70.20 448.00 61.00 C 446.73 51.80 449.84 39.43 462.00 42.00 Z"/>
</g>
<g fill="#42A5F5" fill-opacity="0.94" stroke="None">
<path d="
M 78.00 42.00 
C 68.79 39.72 45.01 39.79 42.33 50.33 C 39.65 60.87 40.03 82.32 50.33 85.67 C 60.63 89.02 83.00 87.55 85.67 77.67 C 88.34 67.79 89.02 44.73 78.00 42.00 Z"/>
</g>
<g fill="#42A5F5" fill-opacity="0.94" stroke="None">
<path d="
M 142.00 42.00 
C 132.79 39.72 109.01 39.79 106.33 50.33 C 103.65 60.87 104.03 82.32 114.33 85.67 C 124.63 89.02 147.00 87.55 149.67 77.67 C 152.34 67.79 153.02 44.73 142.00 42.00 Z"/>
</g>
<g fill="#42A5F5" fill-opacity="0.93" stroke="None">
<path d="
M 376.00 42.00 
C 364.36 39.72 360.73 51.99 362.00 61.00 C 363.27 70.01 358.70 82.45 370.33 85.67 C 381.96 88.89 385.55 75.55 384.00 67.00 C 382.45 58.45 387.80 44.31 376.00 42.00 Z"/>
</g>
<g fill="#42A5F5" fill-opacity="0.93" stroke="None">
<path d="
M 419.00 42.00 
C 407.12 39.49 403.69 51.99 405.00 61.00 C 406.31 70.01 401.54 82.64 413.33 85.67 C 425.11 88.70 428.30 75.44 427.00 67.00 C 425.70 58.56 430.48 44.43 419.00 42.00 Z"/>
</g>
<g fill="#42A5F5" fill-opacity="0.93" stroke="None">
<path d="
M 462.00 42.00 
C 449.84 39.43 446.73 51.80 448.00 61.00 C 449.27 70.20 444.52 82.72 456.33 85.67 C 468.14 88.62 471.01 75.27 470.00 67.00 C 468.99 58.73 472.98 44.32 462.00 42.00 Z"/>
</g>
<g fill="#000000" fill-opacity="0.00" stroke="None">
<path d="
M 0.00 173.00 
C 4.20 159.97 17.18 147.95 32.00 149.00
C 32.00 142.00 32.00 135.00 32.00 128.00
C 16.77 129.44 4.23 117.20 0.00 104.00
L 0.00 173.00 Z"/>
</g>
<g fill="#000000" fill-opacity="0.00" stroke="None">
<path d="
M 512.00 173.00 
L 512.00 104.00
C 507.95 117.23 495.18 129.44 480.00 128.00
C 480.00 135.00 480.00 142.00 480.00 149.00
C 494.84 147.98 507.74 159.90 512.00 173.00 Z"/>
</g>
<g fill="#000000" fill-opacity="0.00" stroke="None">
<path d="
M 458.00 128.00 
C 323.33 128.00 188.67 128.00 54.00 128.00
C 54.00 135.00 54.00 142.00 54.00 149.00
C 188.67 149.00 323.33 149.00 458.00 149.00
C 458.00 142.00 458.00 135.00 458.00 128.00 Z"/>
</g>
<g fill="#000000" fill-opacity="0.00" stroke="None">
<path d="
M 0.00 403.00 
L 0.00 512.00
L 240.00 512.00
C 173.99 504.21 123.80 443.13 128.00 376.00 C 132.20 308.87 188.35 256.02 256.00 256.00 C 323.65 255.98 379.86 308.87 384.00 376.00 C 388.14 443.13 337.98 504.23 272.00 512.00
L 512.00 512.00
L 512.00 403.00
C 505.23 423.13 487.88 428.70 467.00 427.00 C 446.12 425.31 420.33 428.27 399.00 427.00
C 399.49 419.43 403.07 412.69 403.00 405.00
C 416.14 404.03 428.82 406.30 442.00 405.00 C 455.18 403.70 467.57 407.52 480.93 404.93 C 494.29 402.33 488.92 386.63 490.00 375.00 C 491.08 363.37 488.36 349.31 490.00 336.00 C 491.64 322.69 479.65 318.29 467.00 320.00 C 454.35 321.71 440.72 319.09 428.00 320.00 C 415.28 320.91 402.70 319.32 390.00 320.00
C 387.52 312.00 381.17 305.60 378.00 298.00
C 404.67 298.00 431.33 298.00 458.00 298.00
C 458.00 291.33 458.00 284.67 458.00 278.00
C 446.15 278.01 432.69 277.99 421.00 278.00 C 409.31 278.01 396.18 277.98 385.00 278.00 C 373.82 278.02 361.15 280.19 353.75 272.25 C 346.35 264.31 341.23 262.73 333.00 257.00
C 348.39 254.57 366.88 256.79 383.00 256.00 C 399.12 255.21 417.29 257.13 433.00 256.00 C 448.71 254.87 467.61 258.69 481.98 254.97 C 496.34 251.26 489.90 224.14 490.00 213.00 C 490.10 201.86 496.22 173.74 481.00 171.00 C 465.78 168.26 447.02 172.23 431.00 171.00 C 414.98 169.77 397.38 171.55 381.00 171.00 C 364.62 170.45 347.56 171.22 331.00 171.00 C 314.44 170.78 297.67 171.05 281.00 171.00 C 264.33 170.95 246.66 170.92 230.00 171.00 C 213.34 171.08 196.53 170.73 180.00 171.00 C 163.47 171.27 146.30 170.36 130.00 171.00 C 113.70 171.64 95.83 169.57 80.00 171.00 C 64.17 172.43 45.03 167.72 30.22 171.22 C 15.42 174.73 22.40 202.74 22.00 214.00 C 21.60 225.26 16.07 252.16 30.93 255.07 C 45.79 257.99 64.11 255.17 80.00 256.00 C 95.89 256.83 113.89 255.37 130.00 256.00 C 146.11 256.63 163.62 254.70 179.00 257.00
C 170.57 262.39 165.27 265.17 157.75 272.75 C 150.23 280.33 138.15 277.89 127.00 278.00 C 115.85 278.11 101.61 277.94 90.00 278.00 C 78.39 278.06 65.70 277.95 54.00 278.00
C 54.00 284.67 54.00 291.33 54.00 298.00
C 80.67 298.00 107.33 298.00 134.00 298.00
C 130.84 305.60 124.47 312.02 122.00 320.00
C 107.12 320.51 90.72 319.32 76.00 320.00 C 61.28 320.68 45.72 318.37 31.67 320.67 C 17.62 322.97 20.55 344.23 22.00 356.00 C 23.45 367.77 16.97 389.67 23.75 400.25 C 30.53 410.82 52.13 403.05 64.00 405.00 C 75.87 406.95 96.35 403.54 109.00 405.00
C 108.94 412.71 112.51 419.47 113.00 427.00
C 91.51 428.20 64.98 425.40 44.00 427.00 C 23.02 428.60 6.86 422.72 0.00 403.00
M 80.00 192.00 
C 88.15 194.82 85.41 208.52 86.00 215.00 C 86.59 221.48 86.28 234.87 76.97 234.97 C 67.67 235.08 57.75 236.23 48.78 234.22 C 39.81 232.21 42.60 218.24 42.00 212.00 C 41.40 205.76 41.85 190.89 51.01 192.01 C 60.17 193.13 71.45 189.04 80.00 192.00
M 144.00 192.00 
C 152.15 194.82 149.41 208.52 150.00 215.00 C 150.59 221.48 150.28 234.87 140.97 234.97 C 131.67 235.08 121.75 236.23 112.78 234.22 C 103.81 232.21 106.60 218.24 106.00 212.00 C 105.40 205.76 105.85 190.89 115.01 192.01 C 124.17 193.13 135.45 189.04 144.00 192.00
M 378.00 192.00 
C 388.34 195.14 382.15 210.36 384.00 218.00 C 385.85 225.64 380.55 241.19 368.78 234.22 C 357.01 227.26 356.63 185.51 378.00 192.00
M 421.00 192.00 
C 431.31 195.13 424.92 209.98 427.00 218.00 C 429.08 226.02 422.37 239.45 411.78 234.22 C 401.19 228.99 406.64 218.88 405.00 209.00 C 403.36 199.12 409.03 188.37 421.00 192.00
M 464.00 192.00 
C 473.83 195.63 468.42 209.82 470.00 218.00 C 471.58 226.18 465.74 238.87 454.78 234.22 C 443.81 229.57 449.98 218.72 448.00 209.00 C 446.02 199.29 452.18 187.64 464.00 192.00
M 79.00 341.00 
C 87.64 343.62 85.86 356.47 86.00 363.00 C 86.14 369.53 87.19 383.71 77.97 383.97 C 68.76 384.23 58.08 385.20 49.00 384.00 C 39.92 382.80 42.48 367.43 42.00 362.00 C 41.52 356.57 41.34 340.85 50.08 341.08 C 58.81 341.30 70.72 338.49 79.00 341.00
M 420.00 341.00 
C 431.04 344.35 424.96 357.44 427.00 366.00 C 429.04 374.56 423.46 388.28 412.00 384.00 C 400.54 379.72 407.09 368.05 405.00 359.00 C 402.91 349.95 408.71 337.57 420.00 341.00
M 463.00 341.00 
C 473.62 344.22 468.32 357.73 470.00 366.00 C 471.68 374.27 466.46 388.10 455.00 384.00 C 443.54 379.90 450.02 368.27 448.00 359.00 C 445.98 349.73 451.02 337.36 463.00 341.00 Z"/>
</g>
<g fill="#42A5F5" fill-opacity="0.96" stroke="None">
<path d="
M 80.00 192.00 
C 71.45 189.04 60.17 193.13 51.01 192.01 C 41.85 190.89 41.40 205.76 42.00 212.00 C 42.60 218.24 39.81 232.21 48.78 234.22 C 57.75 236.23 67.67 235.08 76.97 234.97 C 86.28 234.87 86.59 221.48 86.00 215.00 C 85.41 208.52 88.15 194.82 80.00 192.00 Z"/>
</g>
<g fill="#42A5F5" fill-opacity="0.96" stroke="None">
<path d="
M 144.00 192.00 
C 135.45 189.04 124.17 193.13 115.01 192.01 C 105.85 190.89 105.40 205.76 106.00 212.00 C 106.60 218.24 103.81 232.21 112.78 234.22 C 121.75 236.23 131.67 235.08 140.97 234.97 C 150.28 234.87 150.59 221.48 150.00 215.00 C 149.41 208.52 152.15 194.82 144.00 192.00 Z"/>
</g>
<g fill="#42A5F5" fill-opacity="0.94" stroke="None">
<path d="
M 378.00 192.00 
C 356.63 185.51 357.01 227.26 368.78 234.22 C 380.55 241.19 385.85 225.64 384.00 218.00 C 382.15 210.36 388.34 195.14 378.00 192.00 Z"/>
</g>
<g fill="#42A5F5" fill-opacity="0.94" stroke="None">
<path d="
M 421.00 192.00 
C 409.03 188.37 403.36 199.12 405.00 209.00 C 406.64 218.88 401.19 228.99 411.78 234.22 C 422.37 239.45 429.08 226.02 427.00 218.00 C 424.92 209.98 431.31 195.13 421.00 192.00 Z"/>
</g>
<g fill="#42A5F5" fill-opacity="0.94" stroke="None">
<path d="
M 464.00 192.00 
C 452.18 187.64 446.02 199.29 448.00 209.00 C 449.98 218.72 443.81 229.57 454.78 234.22 C 465.74 238.87 471.58 226.18 470.00 218.00 C 468.42 209.82 473.83 195.63 464.00 192.00 Z"/>
</g>
<g fill="#000000" fill-opacity="0.00" stroke="None">
<path d="
M 0.00 323.00 
C 3.59 309.18 17.17 297.80 32.00 298.00
C 32.00 291.33 32.00 284.67 32.00 278.00
C 17.23 278.02 3.57 266.90 0.00 253.00
L 0.00 323.00 Z"/>
</g>
<g fill="#000000" fill-opacity="0.00" stroke="None">
<path d="
M 512.00 323.00 
L 512.00 253.00
C 508.48 266.83 494.75 278.05 480.00 278.00
C 480.00 284.67 480.00 291.33 480.00 298.00
C 494.86 297.83 508.35 309.11 512.00 323.00 Z"/>
</g>
<g fill="#41A4F4" fill-opacity="0.98" stroke="None">
<path d="
M 240.00 512.00 
L 272.00 512.00
C 337.98 504.23 388.14 443.13 384.00 376.00 C 379.86 308.87 323.65 255.98 256.00 256.00 C 188.35 256.02 132.20 308.87 128.00 376.00 C 123.80 443.13 173.99 504.21 240.00 512.00
M 266.00 374.00 
C 277.48 374.51 297.36 373.33 308.00 374.00 C 318.64 374.67 340.98 369.19 340.98 384.02 C 340.97 398.85 319.80 393.28 309.00 394.00 C 298.20 394.72 277.69 393.46 266.00 394.00
C 265.49 405.48 266.67 425.36 266.00 436.00 C 265.33 446.64 270.81 468.98 255.98 468.98 C 241.14 468.97 246.72 447.80 246.00 437.00 C 245.28 426.20 246.54 405.69 246.00 394.00
C 234.52 393.49 214.64 394.67 204.00 394.00 C 193.36 393.33 171.02 398.81 171.02 383.98 C 171.03 369.14 192.20 374.72 203.00 374.00 C 213.80 373.28 234.31 374.54 246.00 374.00
C 246.51 362.52 245.33 342.64 246.00 332.00 C 246.67 321.36 241.19 299.02 256.02 299.02 C 270.85 299.03 265.28 320.20 266.00 331.00 C 266.72 341.80 265.46 362.31 266.00 374.00 Z"/>
</g>
<g fill="#000000" fill-opacity="0.00" stroke="None">
<path d="
M 266.00 374.00 
C 265.46 362.31 266.72 341.80 266.00 331.00 C 265.28 320.20 270.85 299.03 256.02 299.02 C 241.19 299.02 246.67 321.36 246.00 332.00 C 245.33 342.64 246.51 362.52 246.00 374.00
C 234.31 374.54 213.80 373.28 203.00 374.00 C 192.20 374.72 171.03 369.14 171.02 383.98 C 171.02 398.81 193.36 393.33 204.00 394.00 C 214.64 394.67 234.52 393.49 246.00 394.00
C 246.54 405.69 245.28 426.20 246.00 437.00 C 246.72 447.80 241.14 468.97 255.98 468.98 C 270.81 468.98 265.33 446.64 266.00 436.00 C 266.67 425.36 265.49 405.48 266.00 394.00
C 277.69 393.46 298.20 394.72 309.00 394.00 C 319.80 393.28 340.97 398.85 340.98 384.02 C 340.98 369.19 318.64 374.67 308.00 374.00 C 297.36 373.33 277.48 374.51 266.00 374.00 Z"/>
</g>
<g fill="#42A5F5" fill-opacity="0.96" stroke="None">
<path d="
M 79.00 341.00 
C 70.72 338.49 58.81 341.30 50.08 341.08 C 41.34 340.85 41.52 356.57 42.00 362.00 C 42.48 367.43 39.92 382.80 49.00 384.00 C 58.08 385.20 68.76 384.23 77.97 383.97 C 87.19 383.71 86.14 369.53 86.00 363.00 C 85.86 356.47 87.64 343.62 79.00 341.00 Z"/>
</g>
<g fill="#42A5F5" fill-opacity="0.94" stroke="None">
<path d="
M 420.00 341.00 
C 408.71 337.57 402.91 349.95 405.00 359.00 C 407.09 368.05 400.54 379.72 412.00 384.00 C 423.46 388.28 429.04 374.56 427.00 366.00 C 424.96 357.44 431.04 344.35 420.00 341.00 Z"/>
</g>
<g fill="#42A5F5" fill-opacity="0.94" stroke="None">
<path d="
M 463.00 341.00 
C 451.02 337.36 445.98 349.73 448.00 359.00 C 450.02 368.27 443.54 379.90 455.00 384.00 C 466.46 388.10 471.68 374.27 470.00 366.00 C 468.32 357.73 473.62 344.22 463.00 341.00 Z"/>
</g>
</svg>