<svg xmlns="http://www.w3.org/2000/svg" xmlns:v="https://svgstorm.com"
viewBox = "0 0 512 512"
width="512"
height="512">
<g fill="None" fill-opacity="0.0" stroke="#000000" stroke-opacity="0.00" stroke-width="0.3"><path d="
M 0.00 512.00 
L 512.00 512.00
L 512.00 0.00
L 0.00 0.00
L 0.00 512.00
M 502.00 200.00 
C 506.80 208.26 501.85 222.97 503.00 233.00 C 504.15 243.03 500.73 255.23 502.00 266.00 C 503.27 276.77 501.05 289.09 502.00 300.00
C 430.85 339.42 361.07 382.39 290.00 422.00
C 290.57 427.89 292.64 443.83 286.30 446.30 C 279.96 448.78 272.87 440.20 266.92 438.08 C 260.98 435.96 254.63 429.49 249.00 427.00
C 246.24 425.78 243.70 425.87 241.00 424.00
C 239.46 422.93 238.32 420.96 237.00 420.00
C 228.15 413.55 216.50 410.07 207.31 403.70 C 198.11 397.32 187.79 392.69 178.30 386.70 C 168.82 380.71 158.55 375.86 148.92 370.08 C 139.30 364.29 129.64 358.67 119.92 353.08 C 110.20 347.49 100.49 341.86 90.77 336.23 C 81.05 330.60 71.32 325.29 61.77 319.23 C 52.22 313.17 41.65 309.32 32.31 302.69 C 22.96 296.07 7.67 294.14 9.00 280.00 C 10.33 265.86 7.56 249.33 10.00 235.00 C 12.44 220.67 6.12 202.10 10.00 188.00
C 12.81 177.79 34.39 193.11 40.00 197.00
C 46.48 196.72 53.03 187.84 59.69 185.70 C 66.36 183.55 72.95 176.72 79.70 173.70 C 86.44 170.67 93.43 165.64 100.08 162.08 C 106.72 158.51 112.98 154.31 119.70 150.70 C 126.41 147.08 133.02 142.54 139.75 138.75 C 146.47 134.95 153.43 131.01 160.08 127.08 C 166.73 123.15 173.11 119.80 179.70 115.70 C 186.28 111.60 193.38 108.10 200.08 104.08 C 206.77 100.05 213.50 96.32 220.23 92.23 C 226.96 88.14 233.02 85.34 239.75 80.75 C 246.47 76.15 253.34 74.58 260.08 69.08 C 266.81 63.57 274.70 66.74 281.23 71.77 C 287.76 76.80 295.03 79.01 301.70 83.31 C 308.36 87.60 314.33 91.12 321.23 94.77 C 328.13 98.42 334.40 103.06 341.25 106.75 C 348.10 110.45 355.03 114.36 361.70 118.30 C 368.36 122.24 374.65 125.70 381.23 129.77 C 387.81 133.84 395.21 137.02 401.70 141.30 C 408.18 145.58 415.56 148.83 422.08 152.92 C 428.59 157.02 435.23 160.29 441.70 164.30 C 448.16 168.32 455.82 171.82 462.08 175.92 C 468.33 180.03 476.53 183.39 482.23 187.77 C 487.93 192.15 498.45 193.90 502.00 200.00 Z"/>
</g>
<g fill="None" fill-opacity="0.0" stroke="#919292" stroke-opacity="0.98" stroke-width="0.3"><path d="
M 40.00 197.00 
C 76.89 222.56 118.04 242.03 156.70 265.30 C 195.35 288.58 235.45 311.43 275.00 333.00
C 279.98 332.38 282.88 325.99 288.25 324.25 C 293.61 322.50 297.61 318.95 303.08 316.08 C 308.54 313.20 310.76 311.85 317.08 308.08 C 323.39 304.30 323.55 304.81 331.70 299.70 C 339.84 294.58 351.65 287.75 360.08 283.08 C 368.50 278.40 367.08 278.73 374.08 275.08 C 381.08 271.42 381.25 269.92 388.25 266.25 C 395.24 262.57 393.86 263.02 402.25 258.25 C 410.63 253.47 422.55 246.80 430.75 241.75 C 438.94 236.69 439.15 237.36 445.25 233.25 C 451.34 229.13 454.44 229.00 459.23 225.23 C 464.02 221.46 470.04 220.49 474.08 217.08 C 478.11 213.67 484.92 211.85 487.75 208.75 C 490.57 205.64 501.94 203.64 502.00 200.00
C 498.45 193.90 487.93 192.15 482.23 187.77 C 476.53 183.39 468.33 180.03 462.08 175.92 C 455.82 171.82 448.16 168.32 441.70 164.30 C 435.23 160.29 428.59 157.02 422.08 152.92 C 415.56 148.83 408.18 145.58 401.70 141.30 C 395.21 137.02 387.81 133.84 381.23 129.77 C 374.65 125.70 368.36 122.24 361.70 118.30 C 355.03 114.36 348.10 110.45 341.25 106.75 C 334.40 103.06 328.13 98.42 321.23 94.77 C 314.33 91.12 308.36 87.60 301.70 83.31 C 295.03 79.01 287.76 76.80 281.23 71.77 C 274.70 66.74 266.81 63.57 260.08 69.08 C 253.34 74.58 246.47 76.15 239.75 80.75 C 233.02 85.34 226.96 88.14 220.23 92.23 C 213.50 96.32 206.77 100.05 200.08 104.08 C 193.38 108.10 186.28 111.60 179.70 115.70 C 173.11 119.80 166.73 123.15 160.08 127.08 C 153.43 131.01 146.47 134.95 139.75 138.75 C 133.02 142.54 126.41 147.08 119.70 150.70 C 112.98 154.31 106.72 158.51 100.08 162.08 C 93.43 165.64 86.44 170.67 79.70 173.70 C 72.95 176.72 66.36 183.55 59.69 185.70 C 53.03 187.84 46.48 196.72 40.00 197.00
M 287.00 97.00 
C 300.01 99.11 313.83 114.63 326.23 118.77 C 338.63 122.91 359.89 137.61 345.30 147.30 C 330.72 156.99 319.73 161.40 305.92 169.92 C 292.12 178.45 280.82 184.29 267.31 192.30 C 253.79 200.32 242.27 206.53 228.77 214.77 C 215.27 223.01 203.11 228.35 189.30 237.30 C 175.50 246.26 157.69 243.10 144.31 232.69 C 130.92 222.29 119.76 220.79 105.30 209.70 C 90.85 198.60 112.62 186.97 125.08 181.08 C 137.54 175.19 150.86 165.51 163.70 158.70 C 176.54 151.88 189.99 143.33 203.08 136.08 C 216.17 128.83 228.22 121.13 241.70 113.70 C 255.17 106.27 269.79 94.20 287.00 97.00
M 381.00 152.00 
C 393.91 154.10 408.42 169.44 420.23 173.77 C 432.04 178.10 455.30 191.85 441.25 202.25 C 427.19 212.65 415.50 216.08 401.92 224.92 C 388.34 233.76 376.73 239.12 363.30 247.30 C 349.88 255.49 338.22 261.37 324.75 269.75 C 311.29 278.14 299.14 283.22 285.30 292.30 C 271.47 301.39 253.32 298.52 239.92 288.08 C 226.52 277.65 215.37 276.08 200.77 265.23 C 186.17 254.38 207.03 242.38 219.70 236.70 C 232.36 231.02 245.37 220.94 258.25 214.25 C 271.12 207.55 284.65 198.75 297.70 191.70 C 310.75 184.65 322.89 176.23 336.23 169.23 C 349.57 162.23 364.40 149.30 381.00 152.00 Z"/>
</g>
<g fill="None" fill-opacity="0.0" stroke="#777576" stroke-opacity="1.00" stroke-width="0.3"><path d="
M 287.00 97.00 
C 269.79 94.20 255.17 106.27 241.70 113.70 C 228.22 121.13 216.17 128.83 203.08 136.08 C 189.99 143.33 176.54 151.88 163.70 158.70 C 150.86 165.51 137.54 175.19 125.08 181.08 C 112.62 186.97 90.85 198.60 105.30 209.70 C 119.76 220.79 130.92 222.29 144.31 232.69 C 157.69 243.10 175.50 246.26 189.30 237.30 C 203.11 228.35 215.27 223.01 228.77 214.77 C 242.27 206.53 253.79 200.32 267.31 192.30 C 280.82 184.29 292.12 178.45 305.92 169.92 C 319.73 161.40 330.72 156.99 345.30 147.30 C 359.89 137.61 338.63 122.91 326.23 118.77 C 313.83 114.63 300.01 99.11 287.00 97.00 Z"/>
</g>
<g fill="None" fill-opacity="0.0" stroke="#777576" stroke-opacity="1.00" stroke-width="0.3"><path d="
M 381.00 152.00 
C 364.40 149.30 349.57 162.23 336.23 169.23 C 322.89 176.23 310.75 184.65 297.70 191.70 C 284.65 198.75 271.12 207.55 258.25 214.25 C 245.37 220.94 232.36 231.02 219.70 236.70 C 207.03 242.38 186.17 254.38 200.77 265.23 C 215.37 276.08 226.52 277.65 239.92 288.08 C 253.32 298.52 271.47 301.39 285.30 292.30 C 299.14 283.22 311.29 278.14 324.75 269.75 C 338.22 261.37 349.88 255.49 363.30 247.30 C 376.73 239.12 388.34 233.76 401.92 224.92 C 415.50 216.08 427.19 212.65 441.25 202.25 C 455.30 191.85 432.04 178.10 420.23 173.77 C 408.42 169.44 393.91 154.10 381.00 152.00 Z"/>
</g>
<g fill="None" fill-opacity="0.0" stroke="#686868" stroke-opacity="0.99" stroke-width="0.3"><path d="
M 10.00 188.00 
C 21.44 190.81 30.87 199.04 41.23 204.77 C 51.59 210.50 61.78 217.10 72.23 222.77 C 82.68 228.44 92.78 235.08 103.23 240.77 C 113.68 246.46 123.88 252.97 134.23 258.77 C 144.58 264.57 154.42 270.41 164.70 276.30 C 174.97 282.20 185.52 288.30 195.75 294.25 C 205.97 300.21 216.80 306.32 227.08 311.92 C 237.35 317.53 247.69 325.22 258.08 329.92 C 268.47 334.63 278.58 347.13 289.00 342.00
C 289.67 368.50 287.67 396.32 290.00 422.00
C 290.61 410.53 289.19 399.51 290.00 388.00 C 290.81 376.49 288.48 364.56 290.00 353.00 C 291.52 341.44 283.86 337.83 275.00 333.00
C 235.45 311.43 195.35 288.58 156.70 265.30 C 118.04 242.03 76.89 222.56 40.00 197.00
C 34.39 193.11 12.81 177.79 10.00 188.00 Z"/>
</g>
<g fill="None" fill-opacity="0.0" stroke="#4A4848" stroke-opacity="0.99" stroke-width="0.3"><path d="
M 237.00 420.00 
C 234.37 411.20 238.57 395.64 237.00 387.00 C 235.43 378.36 237.04 363.62 240.92 357.92 C 244.80 352.23 254.99 342.66 260.00 346.00
C 262.55 347.70 262.08 350.07 262.00 353.00
C 235.21 361.53 246.92 396.79 246.00 418.00
C 250.63 418.20 259.07 407.82 261.92 415.08 C 264.76 422.35 252.24 423.91 249.00 427.00
C 254.63 429.49 260.98 435.96 266.92 438.08 C 272.87 440.20 279.96 448.78 286.30 446.30 C 292.64 443.83 290.57 427.89 290.00 422.00
C 287.67 396.32 289.67 368.50 289.00 342.00
C 278.58 347.13 268.47 334.63 258.08 329.92 C 247.69 325.22 237.35 317.53 227.08 311.92 C 216.80 306.32 205.97 300.21 195.75 294.25 C 185.52 288.30 174.97 282.20 164.70 276.30 C 154.42 270.41 144.58 264.57 134.23 258.77 C 123.88 252.97 113.68 246.46 103.23 240.77 C 92.78 235.08 82.68 228.44 72.23 222.77 C 61.78 217.10 51.59 210.50 41.23 204.77 C 30.87 199.04 21.44 190.81 10.00 188.00
C 6.12 202.10 12.44 220.67 10.00 235.00 C 7.56 249.33 10.33 265.86 9.00 280.00 C 7.67 294.14 22.96 296.07 32.31 302.69 C 41.65 309.32 52.22 313.17 61.77 319.23 C 71.32 325.29 81.05 330.60 90.77 336.23 C 100.49 341.86 110.20 347.49 119.92 353.08 C 129.64 358.67 139.30 364.29 148.92 370.08 C 158.55 375.86 168.82 380.71 178.30 386.70 C 187.79 392.69 198.11 397.32 207.31 403.70 C 216.50 410.07 228.15 413.55 237.00 420.00
M 28.00 211.00 
C 23.07 209.39 17.55 206.39 19.00 200.00
C 23.52 200.50 31.40 205.64 28.00 211.00
M 29.00 221.00 
C 32.25 218.25 37.60 217.68 40.00 214.00
C 41.89 213.94 43.29 215.42 45.00 216.00
C 50.86 223.66 35.77 223.76 32.25 230.25 C 28.72 236.74 28.50 248.30 29.00 257.00 C 29.50 265.70 28.63 277.97 29.00 287.00
C 33.48 286.62 37.77 283.76 41.00 281.00
C 55.39 286.42 32.65 300.48 26.00 293.00
C 14.84 287.17 21.34 269.21 20.00 258.00 C 18.66 246.79 19.37 231.75 27.00 223.00
C 23.38 223.68 16.04 215.56 18.78 212.78 C 21.52 209.99 29.42 218.68 29.00 221.00
M 82.00 243.00 
C 83.22 241.98 84.34 247.50 84.00 249.00 C 83.65 250.51 83.99 254.46 83.00 256.00
C 78.38 263.16 72.25 254.29 66.31 252.70 C 60.36 251.10 54.50 242.70 59.00 236.00
C 59.87 234.70 62.91 235.18 63.00 233.00
C 69.83 235.12 75.43 240.09 82.00 243.00
M 137.00 283.00 
C 128.99 278.98 119.28 274.17 111.92 269.08 C 104.56 264.00 89.10 260.83 93.00 250.00
C 92.98 260.76 105.53 262.63 113.08 267.92 C 120.62 273.22 130.20 276.91 137.00 283.00
M 83.00 264.00 
C 85.20 266.11 84.18 272.80 83.00 275.00
C 77.59 285.13 64.85 268.81 58.00 268.00
C 58.63 264.17 56.72 259.01 59.00 256.00
C 59.87 254.70 62.91 255.18 63.00 253.00
C 70.16 255.47 76.30 260.41 83.00 264.00
M 137.00 297.00 
C 128.74 293.42 119.46 287.85 111.92 283.08 C 104.38 278.31 89.14 274.77 93.00 264.00
C 92.97 274.78 105.45 276.77 113.08 281.92 C 120.70 287.08 130.06 291.15 137.00 297.00
M 65.00 276.00 
C 70.52 280.44 77.45 284.12 84.00 287.00
C 86.64 293.85 82.15 304.46 74.93 301.07 C 67.70 297.69 65.30 294.17 58.00 292.00
C 58.00 287.67 58.00 283.33 58.00 279.00
C 60.58 278.76 62.62 276.92 65.00 276.00
M 146.00 277.00 
C 150.50 277.58 152.95 289.15 146.99 287.99 C 141.03 286.83 140.79 276.33 146.00 277.00
M 137.00 311.00 
C 128.73 307.25 119.32 302.23 111.77 297.23 C 104.22 292.23 89.00 288.84 93.00 278.00
C 93.08 288.54 105.17 291.00 112.75 296.25 C 120.32 301.51 130.27 304.70 137.00 311.00
M 137.00 325.00 
C 128.86 321.57 119.25 316.16 111.77 311.23 C 104.29 306.30 88.83 302.99 93.00 292.00
C 93.06 302.57 105.09 305.13 112.75 310.25 C 120.40 315.38 130.02 319.13 137.00 325.00
M 146.00 295.00 
C 150.77 295.43 152.84 307.10 146.99 305.99 C 141.15 304.88 140.65 294.52 146.00 295.00
M 83.00 308.00 
C 86.70 314.37 82.14 324.31 74.93 321.07 C 67.72 317.84 65.29 314.06 58.00 312.00
C 58.64 307.83 56.71 302.34 59.00 299.00
C 63.23 293.58 80.48 303.66 83.00 308.00
M 137.00 339.00 
C 128.57 335.74 119.18 330.32 111.75 325.25 C 104.33 320.17 88.32 317.27 93.00 306.00
C 93.00 316.68 105.04 319.17 112.70 324.30 C 120.35 329.44 129.90 333.33 137.00 339.00
M 146.00 313.00 
C 150.50 313.58 152.95 325.15 146.99 323.99 C 141.03 322.83 140.79 312.33 146.00 313.00
M 137.00 353.00 
C 128.46 350.17 119.27 344.25 111.75 339.25 C 104.23 334.24 88.30 331.37 93.00 320.00
C 92.36 330.96 105.01 333.00 112.70 338.30 C 120.38 343.61 129.56 347.62 137.00 353.00
M 146.00 331.00 
C 150.50 331.58 152.95 343.15 146.99 341.99 C 141.03 340.83 140.79 330.33 146.00 331.00
M 277.00 354.00 
C 271.24 354.63 265.43 348.95 267.00 343.00
C 272.06 343.91 278.91 347.43 277.00 354.00
M 146.00 349.00 
C 150.77 349.43 152.84 361.10 146.99 359.99 C 141.15 358.88 140.65 348.52 146.00 349.00
M 277.00 367.00 
C 271.60 366.64 265.65 362.17 267.00 356.00
C 272.45 356.22 278.78 360.67 277.00 367.00
M 277.00 422.00 
C 273.27 423.64 263.20 415.25 266.78 411.78 C 270.36 408.31 280.13 417.34 277.00 422.00
M 277.00 434.00 
C 272.24 436.09 263.08 427.29 267.11 424.11 C 271.14 420.92 278.73 429.96 277.00 434.00 Z"/>
</g>
<g fill="None" fill-opacity="0.0" stroke="#676767" stroke-opacity="0.94" stroke-width="0.3"><path d="
M 28.00 211.00 
C 31.40 205.64 23.52 200.50 19.00 200.00
C 17.55 206.39 23.07 209.39 28.00 211.00 Z"/>
</g>
<g fill="None" fill-opacity="0.0" stroke="#787677" stroke-opacity="0.99" stroke-width="0.3"><path d="
M 275.00 333.00 
C 283.86 337.83 291.52 341.44 290.00 353.00 C 288.48 364.56 290.81 376.49 290.00 388.00 C 289.19 399.51 290.61 410.53 290.00 422.00
C 361.07 382.39 430.85 339.42 502.00 300.00
C 501.05 289.09 503.27 276.77 502.00 266.00 C 500.73 255.23 504.15 243.03 503.00 233.00 C 501.85 222.97 506.80 208.26 502.00 200.00
C 501.94 203.64 490.57 205.64 487.75 208.75 C 484.92 211.85 478.11 213.67 474.08 217.08 C 470.04 220.49 464.02 221.46 459.23 225.23 C 454.44 229.00 451.34 229.13 445.25 233.25 C 439.15 237.36 438.94 236.69 430.75 241.75 C 422.55 246.80 410.63 253.47 402.25 258.25 C 393.86 263.02 395.24 262.57 388.25 266.25 C 381.25 269.92 381.08 271.42 374.08 275.08 C 367.08 278.73 368.50 278.40 360.08 283.08 C 351.65 287.75 339.84 294.58 331.70 299.70 C 323.55 304.81 323.39 304.30 317.08 308.08 C 310.76 311.85 308.54 313.20 303.08 316.08 C 297.61 318.95 293.61 322.50 288.25 324.25 C 282.88 325.99 279.98 332.38 275.00 333.00 Z"/>
</g>
<g fill="None" fill-opacity="0.0" stroke="#666666" stroke-opacity="0.95" stroke-width="0.3"><path d="
M 27.00 223.00 
C 27.38 222.57 28.62 221.32 29.00 221.00
C 29.42 218.68 21.52 209.99 18.78 212.78 C 16.04 215.56 23.38 223.68 27.00 223.00 Z"/>
</g>
<g fill="None" fill-opacity="0.0" stroke="#DFDEDE" stroke-opacity="1.00" stroke-width="0.3"><path d="
M 29.00 221.00 
C 28.62 221.32 27.38 222.57 27.00 223.00
C 19.37 231.75 18.66 246.79 20.00 258.00 C 21.34 269.21 14.84 287.17 26.00 293.00
C 19.83 286.20 25.46 270.76 24.00 262.00 C 22.54 253.24 23.48 239.82 26.93 231.93 C 30.38 224.03 39.01 220.65 45.00 216.00
C 43.29 215.42 41.89 213.94 40.00 214.00
C 37.60 217.68 32.25 218.25 29.00 221.00 Z"/>
</g>
<g fill="None" fill-opacity="0.0" stroke="#ACABAC" stroke-opacity="1.00" stroke-width="0.3"><path d="
M 26.00 293.00 
C 32.65 300.48 55.39 286.42 41.00 281.00
C 37.77 283.76 33.48 286.62 29.00 287.00
C 28.63 277.97 29.50 265.70 29.00 257.00 C 28.50 248.30 28.72 236.74 32.25 230.25 C 35.77 223.76 50.86 223.66 45.00 216.00
C 39.01 220.65 30.38 224.03 26.93 231.93 C 23.48 239.82 22.54 253.24 24.00 262.00 C 25.46 270.76 19.83 286.20 26.00 293.00 Z"/>
</g>
<g fill="None" fill-opacity="0.0" stroke="#E64541" stroke-opacity="1.00" stroke-width="0.3"><path d="
M 59.00 236.00 
C 61.43 238.62 67.60 240.68 70.23 242.77 C 72.86 244.86 80.71 249.53 83.00 245.00
C 82.95 244.77 82.12 243.11 82.00 243.00
C 75.43 240.09 69.83 235.12 63.00 233.00
C 62.91 235.18 59.87 234.70 59.00 236.00 Z"/>
</g>
<g fill="None" fill-opacity="0.0" stroke="#D4282A" stroke-opacity="1.00" stroke-width="0.3"><path d="
M 83.00 256.00 
C 83.88 253.98 83.47 247.19 83.00 245.00
C 80.71 249.53 72.86 244.86 70.23 242.77 C 67.60 240.68 61.43 238.62 59.00 236.00
C 54.50 242.70 60.36 251.10 66.31 252.70 C 72.25 254.29 78.38 263.16 83.00 256.00 Z"/>
</g>
<g fill="None" fill-opacity="0.0" stroke="#983538" stroke-opacity="1.00" stroke-width="0.3"><path d="
M 83.00 245.00 
C 83.47 247.19 83.88 253.98 83.00 256.00
C 83.99 254.46 83.65 250.51 84.00 249.00 C 84.34 247.50 83.22 241.98 82.00 243.00
C 82.12 243.11 82.95 244.77 83.00 245.00 Z"/>
</g>
<g fill="None" fill-opacity="0.0" stroke="#626262" stroke-opacity="1.00" stroke-width="0.3"><path d="
M 137.00 283.00 
C 130.20 276.91 120.62 273.22 113.08 267.92 C 105.53 262.63 92.98 260.76 93.00 250.00
C 89.10 260.83 104.56 264.00 111.92 269.08 C 119.28 274.17 128.99 278.98 137.00 283.00 Z"/>
</g>
<g fill="None" fill-opacity="0.0" stroke="#A4C139" stroke-opacity="1.00" stroke-width="0.3"><path d="
M 59.00 256.00 
C 66.67 260.61 74.00 268.38 83.00 265.00
C 83.00 264.50 83.00 264.00 83.00 264.00
C 76.30 260.41 70.16 255.47 63.00 253.00
C 62.91 255.18 59.87 254.70 59.00 256.00 Z"/>
</g>
<g fill="None" fill-opacity="0.0" stroke="#7BB342" stroke-opacity="1.00" stroke-width="0.3"><path d="
M 83.00 275.00 
C 83.91 272.40 83.00 267.78 83.00 265.00
C 74.00 268.38 66.67 260.61 59.00 256.00
C 56.72 259.01 58.63 264.17 58.00 268.00
C 64.85 268.81 77.59 285.13 83.00 275.00 Z"/>
</g>
<g fill="None" fill-opacity="0.0" stroke="#638147" stroke-opacity="1.00" stroke-width="0.3"><path d="
M 83.00 265.00 
C 83.00 267.78 83.91 272.40 83.00 275.00
C 84.18 272.80 85.20 266.11 83.00 264.00
C 83.00 264.00 83.00 264.50 83.00 265.00 Z"/>
</g>
<g fill="None" fill-opacity="0.0" stroke="#626161" stroke-opacity="1.00" stroke-width="0.3"><path d="
M 137.00 297.00 
C 130.06 291.15 120.70 287.08 113.08 281.92 C 105.45 276.77 92.97 274.78 93.00 264.00
C 89.14 274.77 104.38 278.31 111.92 283.08 C 119.46 287.85 128.74 293.42 137.00 297.00 Z"/>
</g>
<g fill="None" fill-opacity="0.0" stroke="#DC3030" stroke-opacity="1.00" stroke-width="0.3"><path d="
M 65.00 276.00 
C 62.62 276.92 60.58 278.76 58.00 279.00
C 58.00 283.33 58.00 287.67 58.00 292.00
C 65.30 294.17 67.70 297.69 74.93 301.07 C 82.15 304.46 86.64 293.85 84.00 287.00
C 77.45 284.12 70.52 280.44 65.00 276.00 Z"/>
</g>
<g fill="None" fill-opacity="0.0" stroke="#ECCD11" stroke-opacity="1.00" stroke-width="0.3"><path d="
M 146.00 277.00 
C 140.79 276.33 141.03 286.83 146.99 287.99 C 152.95 289.15 150.50 277.58 146.00 277.00 Z"/>
</g>
<g fill="None" fill-opacity="0.0" stroke="#616161" stroke-opacity="1.00" stroke-width="0.3"><path d="
M 137.00 311.00 
C 130.27 304.70 120.32 301.51 112.75 296.25 C 105.17 291.00 93.08 288.54 93.00 278.00
C 89.00 288.84 104.22 292.23 111.77 297.23 C 119.32 302.23 128.73 307.25 137.00 311.00 Z"/>
</g>
<g fill="None" fill-opacity="0.0" stroke="#616161" stroke-opacity="1.00" stroke-width="0.3"><path d="
M 137.00 325.00 
C 130.02 319.13 120.40 315.38 112.75 310.25 C 105.09 305.13 93.06 302.57 93.00 292.00
C 88.83 302.99 104.29 306.30 111.77 311.23 C 119.25 316.16 128.86 321.57 137.00 325.00 Z"/>
</g>
<g fill="None" fill-opacity="0.0" stroke="#E9CB13" stroke-opacity="1.00" stroke-width="0.3"><path d="
M 146.00 295.00 
C 140.65 294.52 141.15 304.88 146.99 305.99 C 152.84 307.10 150.77 295.43 146.00 295.00 Z"/>
</g>
<g fill="None" fill-opacity="0.0" stroke="#A5C439" stroke-opacity="1.00" stroke-width="0.3"><path d="
M 59.00 299.00 
C 65.72 303.14 75.14 314.37 83.00 308.00
C 80.48 303.66 63.23 293.58 59.00 299.00 Z"/>
</g>
<g fill="None" fill-opacity="0.0" stroke="#7CB542" stroke-opacity="1.00" stroke-width="0.3"><path d="
M 83.00 308.00 
C 75.14 314.37 65.72 303.14 59.00 299.00
C 56.71 302.34 58.64 307.83 58.00 312.00
C 65.29 314.06 67.72 317.84 74.93 321.07 C 82.14 324.31 86.70 314.37 83.00 308.00 Z"/>
</g>
<g fill="None" fill-opacity="0.0" stroke="#616161" stroke-opacity="1.00" stroke-width="0.3"><path d="
M 137.00 339.00 
C 129.90 333.33 120.35 329.44 112.70 324.30 C 105.04 319.17 93.00 316.68 93.00 306.00
C 88.32 317.27 104.33 320.17 111.75 325.25 C 119.18 330.32 128.57 335.74 137.00 339.00 Z"/>
</g>
<g fill="None" fill-opacity="0.0" stroke="#ECCD0F" stroke-opacity="1.00" stroke-width="0.3"><path d="
M 146.00 313.00 
C 140.79 312.33 141.03 322.83 146.99 323.99 C 152.95 325.15 150.50 313.58 146.00 313.00 Z"/>
</g>
<g fill="None" fill-opacity="0.0" stroke="#616161" stroke-opacity="1.00" stroke-width="0.3"><path d="
M 137.00 353.00 
C 129.56 347.62 120.38 343.61 112.70 338.30 C 105.01 333.00 92.36 330.96 93.00 320.00
C 88.30 331.37 104.23 334.24 111.75 339.25 C 119.27 344.25 128.46 350.17 137.00 353.00 Z"/>
</g>
<g fill="None" fill-opacity="0.0" stroke="#ECCD0F" stroke-opacity="1.00" stroke-width="0.3"><path d="
M 146.00 331.00 
C 140.79 330.33 141.03 340.83 146.99 341.99 C 152.95 343.15 150.50 331.58 146.00 331.00 Z"/>
</g>
<g fill="None" fill-opacity="0.0" stroke="#676767" stroke-opacity="1.00" stroke-width="0.3"><path d="
M 277.00 354.00 
C 278.91 347.43 272.06 343.91 267.00 343.00
C 265.43 348.95 271.24 354.63 277.00 354.00 Z"/>
</g>
<g fill="None" fill-opacity="0.0" stroke="#E3E3E3" stroke-opacity="0.99" stroke-width="0.3"><path d="
M 237.00 420.00 
C 238.32 420.96 239.46 422.93 241.00 424.00
C 240.69 417.25 241.66 408.39 241.00 401.00 C 240.34 393.61 242.41 382.98 241.00 376.00 C 239.59 369.02 244.77 361.54 247.25 357.25 C 249.74 352.97 262.38 348.38 260.00 346.00
C 254.99 342.66 244.80 352.23 240.92 357.92 C 237.04 363.62 235.43 378.36 237.00 387.00 C 238.57 395.64 234.37 411.20 237.00 420.00 Z"/>
</g>
<g fill="None" fill-opacity="0.0" stroke="#AEADAE" stroke-opacity="0.99" stroke-width="0.3"><path d="
M 241.00 424.00 
C 243.70 425.87 246.24 425.78 249.00 427.00
C 252.24 423.91 264.76 422.35 261.92 415.08 C 259.07 407.82 250.63 418.20 246.00 418.00
C 246.92 396.79 235.21 361.53 262.00 353.00
C 262.08 350.07 262.55 347.70 260.00 346.00
C 262.38 348.38 249.74 352.97 247.25 357.25 C 244.77 361.54 239.59 369.02 241.00 376.00 C 242.41 382.98 240.34 393.61 241.00 401.00 C 241.66 408.39 240.69 417.25 241.00 424.00 Z"/>
</g>
<g fill="None" fill-opacity="0.0" stroke="#EACB12" stroke-opacity="1.00" stroke-width="0.3"><path d="
M 146.00 349.00 
C 140.65 348.52 141.15 358.88 146.99 359.99 C 152.84 361.10 150.77 349.43 146.00 349.00 Z"/>
</g>
<g fill="None" fill-opacity="0.0" stroke="#686767" stroke-opacity="1.00" stroke-width="0.3"><path d="
M 277.00 367.00 
C 278.78 360.67 272.45 356.22 267.00 356.00
C 265.65 362.17 271.60 366.64 277.00 367.00 Z"/>
</g>
<g fill="None" fill-opacity="0.0" stroke="#676767" stroke-opacity="1.00" stroke-width="0.3"><path d="
M 277.00 422.00 
C 280.13 417.34 270.36 408.31 266.78 411.78 C 263.20 415.25 273.27 423.64 277.00 422.00 Z"/>
</g>
<g fill="None" fill-opacity="0.0" stroke="#676667" stroke-opacity="1.00" stroke-width="0.3"><path d="
M 277.00 434.00 
C 278.73 429.96 271.14 420.92 267.11 424.11 C 263.08 427.29 272.24 436.09 277.00 434.00 Z"/>
</g>
<g fill="#000000" fill-opacity="0.00" stroke="None">
<path d="
M 0.00 512.00 
L 512.00 512.00
L 512.00 0.00
L 0.00 0.00
L 0.00 512.00
M 502.00 200.00 
C 506.80 208.26 501.85 222.97 503.00 233.00 C 504.15 243.03 500.73 255.23 502.00 266.00 C 503.27 276.77 501.05 289.09 502.00 300.00
C 430.85 339.42 361.07 382.39 290.00 422.00
C 290.57 427.89 292.64 443.83 286.30 446.30 C 279.96 448.78 272.87 440.20 266.92 438.08 C 260.98 435.96 254.63 429.49 249.00 427.00
C 246.24 425.78 243.70 425.87 241.00 424.00
C 239.46 422.93 238.32 420.96 237.00 420.00
C 228.15 413.55 216.50 410.07 207.31 403.70 C 198.11 397.32 187.79 392.69 178.30 386.70 C 168.82 380.71 158.55 375.86 148.92 370.08 C 139.30 364.29 129.64 358.67 119.92 353.08 C 110.20 347.49 100.49 341.86 90.77 336.23 C 81.05 330.60 71.32 325.29 61.77 319.23 C 52.22 313.17 41.65 309.32 32.31 302.69 C 22.96 296.07 7.67 294.14 9.00 280.00 C 10.33 265.86 7.56 249.33 10.00 235.00 C 12.44 220.67 6.12 202.10 10.00 188.00
C 12.81 177.79 34.39 193.11 40.00 197.00
C 46.48 196.72 53.03 187.84 59.69 185.70 C 66.36 183.55 72.95 176.72 79.70 173.70 C 86.44 170.67 93.43 165.64 100.08 162.08 C 106.72 158.51 112.98 154.31 119.70 150.70 C 126.41 147.08 133.02 142.54 139.75 138.75 C 146.47 134.95 153.43 131.01 160.08 127.08 C 166.73 123.15 173.11 119.80 179.70 115.70 C 186.28 111.60 193.38 108.10 200.08 104.08 C 206.77 100.05 213.50 96.32 220.23 92.23 C 226.96 88.14 233.02 85.34 239.75 80.75 C 246.47 76.15 253.34 74.58 260.08 69.08 C 266.81 63.57 274.70 66.74 281.23 71.77 C 287.76 76.80 295.03 79.01 301.70 83.31 C 308.36 87.60 314.33 91.12 321.23 94.77 C 328.13 98.42 334.40 103.06 341.25 106.75 C 348.10 110.45 355.03 114.36 361.70 118.30 C 368.36 122.24 374.65 125.70 381.23 129.77 C 387.81 133.84 395.21 137.02 401.70 141.30 C 408.18 145.58 415.56 148.83 422.08 152.92 C 428.59 157.02 435.23 160.29 441.70 164.30 C 448.16 168.32 455.82 171.82 462.08 175.92 C 468.33 180.03 476.53 183.39 482.23 187.77 C 487.93 192.15 498.45 193.90 502.00 200.00 Z"/>
</g>
<g fill="#919292" fill-opacity="0.98" stroke="None">
<path d="
M 40.00 197.00 
C 76.89 222.56 118.04 242.03 156.70 265.30 C 195.35 288.58 235.45 311.43 275.00 333.00
C 279.98 332.38 282.88 325.99 288.25 324.25 C 293.61 322.50 297.61 318.95 303.08 316.08 C 308.54 313.20 310.76 311.85 317.08 308.08 C 323.39 304.30 323.55 304.81 331.70 299.70 C 339.84 294.58 351.65 287.75 360.08 283.08 C 368.50 278.40 367.08 278.73 374.08 275.08 C 381.08 271.42 381.25 269.92 388.25 266.25 C 395.24 262.57 393.86 263.02 402.25 258.25 C 410.63 253.47 422.55 246.80 430.75 241.75 C 438.94 236.69 439.15 237.36 445.25 233.25 C 451.34 229.13 454.44 229.00 459.23 225.23 C 464.02 221.46 470.04 220.49 474.08 217.08 C 478.11 213.67 484.92 211.85 487.75 208.75 C 490.57 205.64 501.94 203.64 502.00 200.00
C 498.45 193.90 487.93 192.15 482.23 187.77 C 476.53 183.39 468.33 180.03 462.08 175.92 C 455.82 171.82 448.16 168.32 441.70 164.30 C 435.23 160.29 428.59 157.02 422.08 152.92 C 415.56 148.83 408.18 145.58 401.70 141.30 C 395.21 137.02 387.81 133.84 381.23 129.77 C 374.65 125.70 368.36 122.24 361.70 118.30 C 355.03 114.36 348.10 110.45 341.25 106.75 C 334.40 103.06 328.13 98.42 321.23 94.77 C 314.33 91.12 308.36 87.60 301.70 83.31 C 295.03 79.01 287.76 76.80 281.23 71.77 C 274.70 66.74 266.81 63.57 260.08 69.08 C 253.34 74.58 246.47 76.15 239.75 80.75 C 233.02 85.34 226.96 88.14 220.23 92.23 C 213.50 96.32 206.77 100.05 200.08 104.08 C 193.38 108.10 186.28 111.60 179.70 115.70 C 173.11 119.80 166.73 123.15 160.08 127.08 C 153.43 131.01 146.47 134.95 139.75 138.75 C 133.02 142.54 126.41 147.08 119.70 150.70 C 112.98 154.31 106.72 158.51 100.08 162.08 C 93.43 165.64 86.44 170.67 79.70 173.70 C 72.95 176.72 66.36 183.55 59.69 185.70 C 53.03 187.84 46.48 196.72 40.00 197.00
M 287.00 97.00 
C 300.01 99.11 313.83 114.63 326.23 118.77 C 338.63 122.91 359.89 137.61 345.30 147.30 C 330.72 156.99 319.73 161.40 305.92 169.92 C 292.12 178.45 280.82 184.29 267.31 192.30 C 253.79 200.32 242.27 206.53 228.77 214.77 C 215.27 223.01 203.11 228.35 189.30 237.30 C 175.50 246.26 157.69 243.10 144.31 232.69 C 130.92 222.29 119.76 220.79 105.30 209.70 C 90.85 198.60 112.62 186.97 125.08 181.08 C 137.54 175.19 150.86 165.51 163.70 158.70 C 176.54 151.88 189.99 143.33 203.08 136.08 C 216.17 128.83 228.22 121.13 241.70 113.70 C 255.17 106.27 269.79 94.20 287.00 97.00
M 381.00 152.00 
C 393.91 154.10 408.42 169.44 420.23 173.77 C 432.04 178.10 455.30 191.85 441.25 202.25 C 427.19 212.65 415.50 216.08 401.92 224.92 C 388.34 233.76 376.73 239.12 363.30 247.30 C 349.88 255.49 338.22 261.37 324.75 269.75 C 311.29 278.14 299.14 283.22 285.30 292.30 C 271.47 301.39 253.32 298.52 239.92 288.08 C 226.52 277.65 215.37 276.08 200.77 265.23 C 186.17 254.38 207.03 242.38 219.70 236.70 C 232.36 231.02 245.37 220.94 258.25 214.25 C 271.12 207.55 284.65 198.75 297.70 191.70 C 310.75 184.65 322.89 176.23 336.23 169.23 C 349.57 162.23 364.40 149.30 381.00 152.00 Z"/>
</g>
<g fill="#777576" fill-opacity="1.00" stroke="None">
<path d="
M 287.00 97.00 
C 269.79 94.20 255.17 106.27 241.70 113.70 C 228.22 121.13 216.17 128.83 203.08 136.08 C 189.99 143.33 176.54 151.88 163.70 158.70 C 150.86 165.51 137.54 175.19 125.08 181.08 C 112.62 186.97 90.85 198.60 105.30 209.70 C 119.76 220.79 130.92 222.29 144.31 232.69 C 157.69 243.10 175.50 246.26 189.30 237.30 C 203.11 228.35 215.27 223.01 228.77 214.77 C 242.27 206.53 253.79 200.32 267.31 192.30 C 280.82 184.29 292.12 178.45 305.92 169.92 C 319.73 161.40 330.72 156.99 345.30 147.30 C 359.89 137.61 338.63 122.91 326.23 118.77 C 313.83 114.63 300.01 99.11 287.00 97.00 Z"/>
</g>
<g fill="#777576" fill-opacity="1.00" stroke="None">
<path d="
M 381.00 152.00 
C 364.40 149.30 349.57 162.23 336.23 169.23 C 322.89 176.23 310.75 184.65 297.70 191.70 C 284.65 198.75 271.12 207.55 258.25 214.25 C 245.37 220.94 232.36 231.02 219.70 236.70 C 207.03 242.38 186.17 254.38 200.77 265.23 C 215.37 276.08 226.52 277.65 239.92 288.08 C 253.32 298.52 271.47 301.39 285.30 292.30 C 299.14 283.22 311.29 278.14 324.75 269.75 C 338.22 261.37 349.88 255.49 363.30 247.30 C 376.73 239.12 388.34 233.76 401.92 224.92 C 415.50 216.08 427.19 212.65 441.25 202.25 C 455.30 191.85 432.04 178.10 420.23 173.77 C 408.42 169.44 393.91 154.10 381.00 152.00 Z"/>
</g>
<g fill="#686868" fill-opacity="0.99" stroke="None">
<path d="
M 10.00 188.00 
C 21.44 190.81 30.87 199.04 41.23 204.77 C 51.59 210.50 61.78 217.10 72.23 222.77 C 82.68 228.44 92.78 235.08 103.23 240.77 C 113.68 246.46 123.88 252.97 134.23 258.77 C 144.58 264.57 154.42 270.41 164.70 276.30 C 174.97 282.20 185.52 288.30 195.75 294.25 C 205.97 300.21 216.80 306.32 227.08 311.92 C 237.35 317.53 247.69 325.22 258.08 329.92 C 268.47 334.63 278.58 347.13 289.00 342.00
C 289.67 368.50 287.67 396.32 290.00 422.00
C 290.61 410.53 289.19 399.51 290.00 388.00 C 290.81 376.49 288.48 364.56 290.00 353.00 C 291.52 341.44 283.86 337.83 275.00 333.00
C 235.45 311.43 195.35 288.58 156.70 265.30 C 118.04 242.03 76.89 222.56 40.00 197.00
C 34.39 193.11 12.81 177.79 10.00 188.00 Z"/>
</g>
<g fill="#4A4848" fill-opacity="0.99" stroke="None">
<path d="
M 237.00 420.00 
C 234.37 411.20 238.57 395.64 237.00 387.00 C 235.43 378.36 237.04 363.62 240.92 357.92 C 244.80 352.23 254.99 342.66 260.00 346.00
C 262.55 347.70 262.08 350.07 262.00 353.00
C 235.21 361.53 246.92 396.79 246.00 418.00
C 250.63 418.20 259.07 407.82 261.92 415.08 C 264.76 422.35 252.24 423.91 249.00 427.00
C 254.63 429.49 260.98 435.96 266.92 438.08 C 272.87 440.20 279.96 448.78 286.30 446.30 C 292.64 443.83 290.57 427.89 290.00 422.00
C 287.67 396.32 289.67 368.50 289.00 342.00
C 278.58 347.13 268.47 334.63 258.08 329.92 C 247.69 325.22 237.35 317.53 227.08 311.92 C 216.80 306.32 205.97 300.21 195.75 294.25 C 185.52 288.30 174.97 282.20 164.70 276.30 C 154.42 270.41 144.58 264.57 134.23 258.77 C 123.88 252.97 113.68 246.46 103.23 240.77 C 92.78 235.08 82.68 228.44 72.23 222.77 C 61.78 217.10 51.59 210.50 41.23 204.77 C 30.87 199.04 21.44 190.81 10.00 188.00
C 6.12 202.10 12.44 220.67 10.00 235.00 C 7.56 249.33 10.33 265.86 9.00 280.00 C 7.67 294.14 22.96 296.07 32.31 302.69 C 41.65 309.32 52.22 313.17 61.77 319.23 C 71.32 325.29 81.05 330.60 90.77 336.23 C 100.49 341.86 110.20 347.49 119.92 353.08 C 129.64 358.67 139.30 364.29 148.92 370.08 C 158.55 375.86 168.82 380.71 178.30 386.70 C 187.79 392.69 198.11 397.32 207.31 403.70 C 216.50 410.07 228.15 413.55 237.00 420.00
M 28.00 211.00 
C 23.07 209.39 17.55 206.39 19.00 200.00
C 23.52 200.50 31.40 205.64 28.00 211.00
M 29.00 221.00 
C 32.25 218.25 37.60 217.68 40.00 214.00
C 41.89 213.94 43.29 215.42 45.00 216.00
C 50.86 223.66 35.77 223.76 32.25 230.25 C 28.72 236.74 28.50 248.30 29.00 257.00 C 29.50 265.70 28.63 277.97 29.00 287.00
C 33.48 286.62 37.77 283.76 41.00 281.00
C 55.39 286.42 32.65 300.48 26.00 293.00
C 14.84 287.17 21.34 269.21 20.00 258.00 C 18.66 246.79 19.37 231.75 27.00 223.00
C 23.38 223.68 16.04 215.56 18.78 212.78 C 21.52 209.99 29.42 218.68 29.00 221.00
M 82.00 243.00 
C 83.22 241.98 84.34 247.50 84.00 249.00 C 83.65 250.51 83.99 254.46 83.00 256.00
C 78.38 263.16 72.25 254.29 66.31 252.70 C 60.36 251.10 54.50 242.70 59.00 236.00
C 59.87 234.70 62.91 235.18 63.00 233.00
C 69.83 235.12 75.43 240.09 82.00 243.00
M 137.00 283.00 
C 128.99 278.98 119.28 274.17 111.92 269.08 C 104.56 264.00 89.10 260.83 93.00 250.00
C 92.98 260.76 105.53 262.63 113.08 267.92 C 120.62 273.22 130.20 276.91 137.00 283.00
M 83.00 264.00 
C 85.20 266.11 84.18 272.80 83.00 275.00
C 77.59 285.13 64.85 268.81 58.00 268.00
C 58.63 264.17 56.72 259.01 59.00 256.00
C 59.87 254.70 62.91 255.18 63.00 253.00
C 70.16 255.47 76.30 260.41 83.00 264.00
M 137.00 297.00 
C 128.74 293.42 119.46 287.85 111.92 283.08 C 104.38 278.31 89.14 274.77 93.00 264.00
C 92.97 274.78 105.45 276.77 113.08 281.92 C 120.70 287.08 130.06 291.15 137.00 297.00
M 65.00 276.00 
C 70.52 280.44 77.45 284.12 84.00 287.00
C 86.64 293.85 82.15 304.46 74.93 301.07 C 67.70 297.69 65.30 294.17 58.00 292.00
C 58.00 287.67 58.00 283.33 58.00 279.00
C 60.58 278.76 62.62 276.92 65.00 276.00
M 146.00 277.00 
C 150.50 277.58 152.95 289.15 146.99 287.99 C 141.03 286.83 140.79 276.33 146.00 277.00
M 137.00 311.00 
C 128.73 307.25 119.32 302.23 111.77 297.23 C 104.22 292.23 89.00 288.84 93.00 278.00
C 93.08 288.54 105.17 291.00 112.75 296.25 C 120.32 301.51 130.27 304.70 137.00 311.00
M 137.00 325.00 
C 128.86 321.57 119.25 316.16 111.77 311.23 C 104.29 306.30 88.83 302.99 93.00 292.00
C 93.06 302.57 105.09 305.13 112.75 310.25 C 120.40 315.38 130.02 319.13 137.00 325.00
M 146.00 295.00 
C 150.77 295.43 152.84 307.10 146.99 305.99 C 141.15 304.88 140.65 294.52 146.00 295.00
M 83.00 308.00 
C 86.70 314.37 82.14 324.31 74.93 321.07 C 67.72 317.84 65.29 314.06 58.00 312.00
C 58.64 307.83 56.71 302.34 59.00 299.00
C 63.23 293.58 80.48 303.66 83.00 308.00
M 137.00 339.00 
C 128.57 335.74 119.18 330.32 111.75 325.25 C 104.33 320.17 88.32 317.27 93.00 306.00
C 93.00 316.68 105.04 319.17 112.70 324.30 C 120.35 329.44 129.90 333.33 137.00 339.00
M 146.00 313.00 
C 150.50 313.58 152.95 325.15 146.99 323.99 C 141.03 322.83 140.79 312.33 146.00 313.00
M 137.00 353.00 
C 128.46 350.17 119.27 344.25 111.75 339.25 C 104.23 334.24 88.30 331.37 93.00 320.00
C 92.36 330.96 105.01 333.00 112.70 338.30 C 120.38 343.61 129.56 347.62 137.00 353.00
M 146.00 331.00 
C 150.50 331.58 152.95 343.15 146.99 341.99 C 141.03 340.83 140.79 330.33 146.00 331.00
M 277.00 354.00 
C 271.24 354.63 265.43 348.95 267.00 343.00
C 272.06 343.91 278.91 347.43 277.00 354.00
M 146.00 349.00 
C 150.77 349.43 152.84 361.10 146.99 359.99 C 141.15 358.88 140.65 348.52 146.00 349.00
M 277.00 367.00 
C 271.60 366.64 265.65 362.17 267.00 356.00
C 272.45 356.22 278.78 360.67 277.00 367.00
M 277.00 422.00 
C 273.27 423.64 263.20 415.25 266.78 411.78 C 270.36 408.31 280.13 417.34 277.00 422.00
M 277.00 434.00 
C 272.24 436.09 263.08 427.29 267.11 424.11 C 271.14 420.92 278.73 429.96 277.00 434.00 Z"/>
</g>
<g fill="#676767" fill-opacity="0.94" stroke="None">
<path d="
M 28.00 211.00 
C 31.40 205.64 23.52 200.50 19.00 200.00
C 17.55 206.39 23.07 209.39 28.00 211.00 Z"/>
</g>
<g fill="#787677" fill-opacity="0.99" stroke="None">
<path d="
M 275.00 333.00 
C 283.86 337.83 291.52 341.44 290.00 353.00 C 288.48 364.56 290.81 376.49 290.00 388.00 C 289.19 399.51 290.61 410.53 290.00 422.00
C 361.07 382.39 430.85 339.42 502.00 300.00
C 501.05 289.09 503.27 276.77 502.00 266.00 C 500.73 255.23 504.15 243.03 503.00 233.00 C 501.85 222.97 506.80 208.26 502.00 200.00
C 501.94 203.64 490.57 205.64 487.75 208.75 C 484.92 211.85 478.11 213.67 474.08 217.08 C 470.04 220.49 464.02 221.46 459.23 225.23 C 454.44 229.00 451.34 229.13 445.25 233.25 C 439.15 237.36 438.94 236.69 430.75 241.75 C 422.55 246.80 410.63 253.47 402.25 258.25 C 393.86 263.02 395.24 262.57 388.25 266.25 C 381.25 269.92 381.08 271.42 374.08 275.08 C 367.08 278.73 368.50 278.40 360.08 283.08 C 351.65 287.75 339.84 294.58 331.70 299.70 C 323.55 304.81 323.39 304.30 317.08 308.08 C 310.76 311.85 308.54 313.20 303.08 316.08 C 297.61 318.95 293.61 322.50 288.25 324.25 C 282.88 325.99 279.98 332.38 275.00 333.00 Z"/>
</g>
<g fill="#666666" fill-opacity="0.95" stroke="None">
<path d="
M 27.00 223.00 
C 27.38 222.57 28.62 221.32 29.00 221.00
C 29.42 218.68 21.52 209.99 18.78 212.78 C 16.04 215.56 23.38 223.68 27.00 223.00 Z"/>
</g>
<g fill="#DFDEDE" fill-opacity="1.00" stroke="None">
<path d="
M 29.00 221.00 
C 28.62 221.32 27.38 222.57 27.00 223.00
C 19.37 231.75 18.66 246.79 20.00 258.00 C 21.34 269.21 14.84 287.17 26.00 293.00
C 19.83 286.20 25.46 270.76 24.00 262.00 C 22.54 253.24 23.48 239.82 26.93 231.93 C 30.38 224.03 39.01 220.65 45.00 216.00
C 43.29 215.42 41.89 213.94 40.00 214.00
C 37.60 217.68 32.25 218.25 29.00 221.00 Z"/>
</g>
<g fill="#ACABAC" fill-opacity="1.00" stroke="None">
<path d="
M 26.00 293.00 
C 32.65 300.48 55.39 286.42 41.00 281.00
C 37.77 283.76 33.48 286.62 29.00 287.00
C 28.63 277.97 29.50 265.70 29.00 257.00 C 28.50 248.30 28.72 236.74 32.25 230.25 C 35.77 223.76 50.86 223.66 45.00 216.00
C 39.01 220.65 30.38 224.03 26.93 231.93 C 23.48 239.82 22.54 253.24 24.00 262.00 C 25.46 270.76 19.83 286.20 26.00 293.00 Z"/>
</g>
<g fill="#E64541" fill-opacity="1.00" stroke="None">
<path d="
M 59.00 236.00 
C 61.43 238.62 67.60 240.68 70.23 242.77 C 72.86 244.86 80.71 249.53 83.00 245.00
C 82.95 244.77 82.12 243.11 82.00 243.00
C 75.43 240.09 69.83 235.12 63.00 233.00
C 62.91 235.18 59.87 234.70 59.00 236.00 Z"/>
</g>
<g fill="#D4282A" fill-opacity="1.00" stroke="None">
<path d="
M 83.00 256.00 
C 83.88 253.98 83.47 247.19 83.00 245.00
C 80.71 249.53 72.86 244.86 70.23 242.77 C 67.60 240.68 61.43 238.62 59.00 236.00
C 54.50 242.70 60.36 251.10 66.31 252.70 C 72.25 254.29 78.38 263.16 83.00 256.00 Z"/>
</g>
<g fill="#983538" fill-opacity="1.00" stroke="None">
<path d="
M 83.00 245.00 
C 83.47 247.19 83.88 253.98 83.00 256.00
C 83.99 254.46 83.65 250.51 84.00 249.00 C 84.34 247.50 83.22 241.98 82.00 243.00
C 82.12 243.11 82.95 244.77 83.00 245.00 Z"/>
</g>
<g fill="#626262" fill-opacity="1.00" stroke="None">
<path d="
M 137.00 283.00 
C 130.20 276.91 120.62 273.22 113.08 267.92 C 105.53 262.63 92.98 260.76 93.00 250.00
C 89.10 260.83 104.56 264.00 111.92 269.08 C 119.28 274.17 128.99 278.98 137.00 283.00 Z"/>
</g>
<g fill="#A4C139" fill-opacity="1.00" stroke="None">
<path d="
M 59.00 256.00 
C 66.67 260.61 74.00 268.38 83.00 265.00
C 83.00 264.50 83.00 264.00 83.00 264.00
C 76.30 260.41 70.16 255.47 63.00 253.00
C 62.91 255.18 59.87 254.70 59.00 256.00 Z"/>
</g>
<g fill="#7BB342" fill-opacity="1.00" stroke="None">
<path d="
M 83.00 275.00 
C 83.91 272.40 83.00 267.78 83.00 265.00
C 74.00 268.38 66.67 260.61 59.00 256.00
C 56.72 259.01 58.63 264.17 58.00 268.00
C 64.85 268.81 77.59 285.13 83.00 275.00 Z"/>
</g>
<g fill="#638147" fill-opacity="1.00" stroke="None">
<path d="
M 83.00 265.00 
C 83.00 267.78 83.91 272.40 83.00 275.00
C 84.18 272.80 85.20 266.11 83.00 264.00
C 83.00 264.00 83.00 264.50 83.00 265.00 Z"/>
</g>
<g fill="#626161" fill-opacity="1.00" stroke="None">
<path d="
M 137.00 297.00 
C 130.06 291.15 120.70 287.08 113.08 281.92 C 105.45 276.77 92.97 274.78 93.00 264.00
C 89.14 274.77 104.38 278.31 111.92 283.08 C 119.46 287.85 128.74 293.42 137.00 297.00 Z"/>
</g>
<g fill="#DC3030" fill-opacity="1.00" stroke="None">
<path d="
M 65.00 276.00 
C 62.62 276.92 60.58 278.76 58.00 279.00
C 58.00 283.33 58.00 287.67 58.00 292.00
C 65.30 294.17 67.70 297.69 74.93 301.07 C 82.15 304.46 86.64 293.85 84.00 287.00
C 77.45 284.12 70.52 280.44 65.00 276.00 Z"/>
</g>
<g fill="#ECCD11" fill-opacity="1.00" stroke="None">
<path d="
M 146.00 277.00 
C 140.79 276.33 141.03 286.83 146.99 287.99 C 152.95 289.15 150.50 277.58 146.00 277.00 Z"/>
</g>
<g fill="#616161" fill-opacity="1.00" stroke="None">
<path d="
M 137.00 311.00 
C 130.27 304.70 120.32 301.51 112.75 296.25 C 105.17 291.00 93.08 288.54 93.00 278.00
C 89.00 288.84 104.22 292.23 111.77 297.23 C 119.32 302.23 128.73 307.25 137.00 311.00 Z"/>
</g>
<g fill="#616161" fill-opacity="1.00" stroke="None">
<path d="
M 137.00 325.00 
C 130.02 319.13 120.40 315.38 112.75 310.25 C 105.09 305.13 93.06 302.57 93.00 292.00
C 88.83 302.99 104.29 306.30 111.77 311.23 C 119.25 316.16 128.86 321.57 137.00 325.00 Z"/>
</g>
<g fill="#E9CB13" fill-opacity="1.00" stroke="None">
<path d="
M 146.00 295.00 
C 140.65 294.52 141.15 304.88 146.99 305.99 C 152.84 307.10 150.77 295.43 146.00 295.00 Z"/>
</g>
<g fill="#A5C439" fill-opacity="1.00" stroke="None">
<path d="
M 59.00 299.00 
C 65.72 303.14 75.14 314.37 83.00 308.00
C 80.48 303.66 63.23 293.58 59.00 299.00 Z"/>
</g>
<g fill="#7CB542" fill-opacity="1.00" stroke="None">
<path d="
M 83.00 308.00 
C 75.14 314.37 65.72 303.14 59.00 299.00
C 56.71 302.34 58.64 307.83 58.00 312.00
C 65.29 314.06 67.72 317.84 74.93 321.07 C 82.14 324.31 86.70 314.37 83.00 308.00 Z"/>
</g>
<g fill="#616161" fill-opacity="1.00" stroke="None">
<path d="
M 137.00 339.00 
C 129.90 333.33 120.35 329.44 112.70 324.30 C 105.04 319.17 93.00 316.68 93.00 306.00
C 88.32 317.27 104.33 320.17 111.75 325.25 C 119.18 330.32 128.57 335.74 137.00 339.00 Z"/>
</g>
<g fill="#ECCD0F" fill-opacity="1.00" stroke="None">
<path d="
M 146.00 313.00 
C 140.79 312.33 141.03 322.83 146.99 323.99 C 152.95 325.15 150.50 313.58 146.00 313.00 Z"/>
</g>
<g fill="#616161" fill-opacity="1.00" stroke="None">
<path d="
M 137.00 353.00 
C 129.56 347.62 120.38 343.61 112.70 338.30 C 105.01 333.00 92.36 330.96 93.00 320.00
C 88.30 331.37 104.23 334.24 111.75 339.25 C 119.27 344.25 128.46 350.17 137.00 353.00 Z"/>
</g>
<g fill="#ECCD0F" fill-opacity="1.00" stroke="None">
<path d="
M 146.00 331.00 
C 140.79 330.33 141.03 340.83 146.99 341.99 C 152.95 343.15 150.50 331.58 146.00 331.00 Z"/>
</g>
<g fill="#676767" fill-opacity="1.00" stroke="None">
<path d="
M 277.00 354.00 
C 278.91 347.43 272.06 343.91 267.00 343.00
C 265.43 348.95 271.24 354.63 277.00 354.00 Z"/>
</g>
<g fill="#E3E3E3" fill-opacity="0.99" stroke="None">
<path d="
M 237.00 420.00 
C 238.32 420.96 239.46 422.93 241.00 424.00
C 240.69 417.25 241.66 408.39 241.00 401.00 C 240.34 393.61 242.41 382.98 241.00 376.00 C 239.59 369.02 244.77 361.54 247.25 357.25 C 249.74 352.97 262.38 348.38 260.00 346.00
C 254.99 342.66 244.80 352.23 240.92 357.92 C 237.04 363.62 235.43 378.36 237.00 387.00 C 238.57 395.64 234.37 411.20 237.00 420.00 Z"/>
</g>
<g fill="#AEADAE" fill-opacity="0.99" stroke="None">
<path d="
M 241.00 424.00 
C 243.70 425.87 246.24 425.78 249.00 427.00
C 252.24 423.91 264.76 422.35 261.92 415.08 C 259.07 407.82 250.63 418.20 246.00 418.00
C 246.92 396.79 235.21 361.53 262.00 353.00
C 262.08 350.07 262.55 347.70 260.00 346.00
C 262.38 348.38 249.74 352.97 247.25 357.25 C 244.77 361.54 239.59 369.02 241.00 376.00 C 242.41 382.98 240.34 393.61 241.00 401.00 C 241.66 408.39 240.69 417.25 241.00 424.00 Z"/>
</g>
<g fill="#EACB12" fill-opacity="1.00" stroke="None">
<path d="
M 146.00 349.00 
C 140.65 348.52 141.15 358.88 146.99 359.99 C 152.84 361.10 150.77 349.43 146.00 349.00 Z"/>
</g>
<g fill="#686767" fill-opacity="1.00" stroke="None">
<path d="
M 277.00 367.00 
C 278.78 360.67 272.45 356.22 267.00 356.00
C 265.65 362.17 271.60 366.64 277.00 367.00 Z"/>
</g>
<g fill="#676767" fill-opacity="1.00" stroke="None">
<path d="
M 277.00 422.00 
C 280.13 417.34 270.36 408.31 266.78 411.78 C 263.20 415.25 273.27 423.64 277.00 422.00 Z"/>
</g>
<g fill="#676667" fill-opacity="1.00" stroke="None">
<path d="
M 277.00 434.00 
C 278.73 429.96 271.14 420.92 267.11 424.11 C 263.08 427.29 272.24 436.09 277.00 434.00 Z"/>
</g>
</svg>