<?xml version="1.0" encoding="UTF-8"?>
<svg version="1.1" xmlns="http://www.w3.org/2000/svg" width="512" height="512">
<path d="M0 0 C147.84 0 295.68 0 448 0 C448 10.56 448 21.12 448 32 C458.56 32 469.12 32 480 32 C480 169.28 480 306.56 480 448 C311.04 448 142.08 448 -32 448 C-32 331.84 -32 215.68 -32 96 C-21.44 96 -10.88 96 0 96 C0 64.32 0 32.64 0 0 Z " fill="#FFF950" transform="translate(32,32)"/>
<path d="M0 0 C147.84 0 295.68 0 448 0 C448 42.24 448 84.48 448 128 C300.16 128 152.32 128 0 128 C0 85.76 0 43.52 0 0 Z " fill="#FFCD33" transform="translate(32,32)"/>
<path d="M0 0 C10.56 0 21.12 0 32 0 C32 11.22 32 22.44 32 34 C35.3 34.66 38.6 35.32 42 36 C45.42578125 37.18359375 45.42578125 37.18359375 48.3125 38.4375 C49.76076172 39.05431641 49.76076172 39.05431641 51.23828125 39.68359375 C54 41 54 41 56.60546875 42.78515625 C57.39566406 43.18605469 58.18585938 43.58695313 59 44 C62.71188041 42.72029436 65.04843696 40.18171128 67.765625 37.4296875 C68.65507812 36.53378906 69.54453125 35.63789063 70.4609375 34.71484375 C71.38132812 33.77769531 72.30171875 32.84054688 73.25 31.875 C74.19484856 30.92011363 75.14015633 29.96568141 76.0859375 29.01171875 C78.39518338 26.67890913 80.69963203 24.34155914 83 22 C86.56764285 23.51376081 88.83706287 25.60513129 91.546875 28.3515625 C92.39121094 29.20234375 93.23554688 30.053125 94.10546875 30.9296875 C94.97816406 31.81914062 95.85085938 32.70859375 96.75 33.625 C97.63816406 34.5221875 98.52632812 35.419375 99.44140625 36.34375 C101.63216969 38.55807004 103.81812763 40.77692435 106 43 C104.4608199 46.66752005 102.24514548 48.98580573 99.4296875 51.765625 C98.53378906 52.65507812 97.63789063 53.54453125 96.71484375 54.4609375 C95.77769531 55.38132813 94.84054687 56.30171875 93.875 57.25 C92.92011363 58.19484856 91.96568141 59.14015633 91.01171875 60.0859375 C88.67890913 62.39518338 86.34155914 64.69963203 84 67 C85.68135691 72.21590468 87.91366694 76.723953 90.5625 81.51171875 C92 85 92 85 94 96 C105.22 96 116.44 96 128 96 C128 106.56 128 117.12 128 128 C116.78 128 105.56 128 94 128 C93.34 131.3 92.68 134.6 92 138 C90.81640625 141.42578125 90.81640625 141.42578125 89.5625 144.3125 C89.15128906 145.27800781 88.74007812 146.24351562 88.31640625 147.23828125 C87 150 87 150 85.21484375 152.60546875 C84.81394531 153.39566406 84.41304687 154.18585938 84 155 C85.27970564 158.71188041 87.81828872 161.04843696 90.5703125 163.765625 C91.46621094 164.65507812 92.36210937 165.54453125 93.28515625 166.4609375 C94.69087891 167.84152344 94.69087891 167.84152344 96.125 169.25 C97.07988637 170.19484856 98.03431859 171.14015633 98.98828125 172.0859375 C101.32109087 174.39518338 103.65844086 176.69963203 106 179 C104.48623919 182.56764285 102.39486871 184.83706287 99.6484375 187.546875 C98.79765625 188.39121094 97.946875 189.23554688 97.0703125 190.10546875 C96.18085938 190.97816406 95.29140625 191.85085938 94.375 192.75 C93.4778125 193.63816406 92.580625 194.52632812 91.65625 195.44140625 C89.44192996 197.63216969 87.22307565 199.81812763 85 202 C81.33247995 200.4608199 79.01419427 198.24514548 76.234375 195.4296875 C75.34492188 194.53378906 74.45546875 193.63789063 73.5390625 192.71484375 C72.15847656 191.30912109 72.15847656 191.30912109 70.75 189.875 C69.80515144 188.92011363 68.85984367 187.96568141 67.9140625 187.01171875 C65.60481662 184.67890913 63.30036797 182.34155914 61 180 C57.20932219 181.23226268 53.75951688 182.54730718 50.25 184.4375 C44.55958243 187.34727479 38.47218609 190 32 190 C32 201.22 32 212.44 32 224 C21.44 224 10.88 224 0 224 C0 212.78 0 201.56 0 190 C-5.445 189.01 -5.445 189.01 -11 188 C-13.9483774 186.6595923 -16.65017844 185.34589981 -19.4375 183.75 C-21.94886065 182.31221627 -24.31865284 181.13591073 -27 180 C-30.72158528 181.20411185 -33.0633992 183.83344277 -35.765625 186.5703125 C-36.65507812 187.46621094 -37.54453125 188.36210937 -38.4609375 189.28515625 C-39.38132813 190.22230469 -40.30171875 191.15945313 -41.25 192.125 C-42.19484856 193.07988637 -43.14015633 194.03431859 -44.0859375 194.98828125 C-46.39518338 197.32109087 -48.69963203 199.65844086 -51 202 C-54.56764285 200.48623919 -56.83706287 198.39486871 -59.546875 195.6484375 C-60.39121094 194.79765625 -61.23554688 193.946875 -62.10546875 193.0703125 C-62.97816406 192.18085938 -63.85085937 191.29140625 -64.75 190.375 C-66.08224609 189.02921875 -66.08224609 189.02921875 -67.44140625 187.65625 C-69.63216969 185.44192996 -71.81812763 183.22307565 -74 181 C-72.4608199 177.33247995 -70.24514548 175.01419427 -67.4296875 172.234375 C-66.53378906 171.34492188 -65.63789063 170.45546875 -64.71484375 169.5390625 C-63.77769531 168.61867188 -62.84054688 167.69828125 -61.875 166.75 C-60.92011363 165.80515144 -59.96568141 164.85984367 -59.01171875 163.9140625 C-56.67890913 161.60481662 -54.34155914 159.30036797 -52 157 C-53.23226268 153.20932219 -54.54730718 149.75951688 -56.4375 146.25 C-59.34727479 140.55958243 -62 134.47218609 -62 128 C-73.22 128 -84.44 128 -96 128 C-96 117.44 -96 106.88 -96 96 C-84.78 96 -73.56 96 -62 96 C-61.34 92.37 -60.68 88.74 -60 85 C-58.6595923 82.0516226 -57.34589981 79.34982156 -55.75 76.5625 C-54.31221627 74.05113935 -53.13591073 71.68134716 -52 69 C-53.20411185 65.27841472 -55.83344277 62.9366008 -58.5703125 60.234375 C-59.46621094 59.34492188 -60.36210937 58.45546875 -61.28515625 57.5390625 C-62.22230469 56.61867187 -63.15945312 55.69828125 -64.125 54.75 C-65.07988637 53.80515144 -66.03431859 52.85984367 -66.98828125 51.9140625 C-69.32109087 49.60481662 -71.65844086 47.30036797 -74 45 C-72.48623919 41.43235715 -70.39486871 39.16293713 -67.6484375 36.453125 C-66.37226563 35.18662109 -66.37226563 35.18662109 -65.0703125 33.89453125 C-64.18085938 33.02183594 -63.29140625 32.14914063 -62.375 31.25 C-61.02921875 29.91775391 -61.02921875 29.91775391 -59.65625 28.55859375 C-57.44192996 26.36783031 -55.22307565 24.18187237 -53 22 C-49.33247995 23.5391801 -47.01419427 25.75485452 -44.234375 28.5703125 C-43.34492188 29.46621094 -42.45546875 30.36210937 -41.5390625 31.28515625 C-40.61867187 32.22230469 -39.69828125 33.15945312 -38.75 34.125 C-37.80515144 35.07988637 -36.85984367 36.03431859 -35.9140625 36.98828125 C-33.60481662 39.32109087 -31.30036797 41.65844086 -29 44 C-23.78409532 42.31864309 -19.276047 40.08633306 -14.48828125 37.4375 C-11 36 -11 36 0 34 C0 22.78 0 11.56 0 0 Z " fill="#FFA65B" transform="translate(240,192)"/>
<path d="M0 0 C7.99457334 0.80061 16.00436912 1.12365764 24.02945799 1.46150881 C38.22810204 2.06118651 52.26497881 3.31896076 66.45328611 4.53768069 C66.45328611 36.21768069 66.45328611 67.89768069 66.45328611 100.53768069 C-81.38671389 100.53768069 -229.22671389 100.53768069 -381.54671389 100.53768069 C-381.54671389 89.97768069 -381.54671389 79.41768069 -381.54671389 68.53768069 C-376.92698832 68.72873636 -376.92698832 68.72873636 -372.21393496 68.92365175 C-343.66011825 70.07390467 -315.11534781 70.8929174 -286.54298618 71.37261417 C-282.76366692 71.43635301 -278.98440149 71.50287686 -275.20516115 71.57112795 C-274.45309872 71.58466289 -273.70103628 71.59819784 -272.92618407 71.61214293 C-262.38420749 71.80763238 -251.8565397 72.15277324 -241.32321221 72.61925561 C-223.18901485 73.4221215 -205.07120797 73.9382178 -186.91780764 73.90877444 C-185.85780791 73.90791579 -185.85780791 73.90791579 -184.77639404 73.90703979 C-154.4604925 73.84570978 -125.4002668 73.62599727 -102.47568423 51.26926333 C-95.04524269 43.73065666 -88.53291407 35.44592929 -81.98418337 27.14702517 C-79.73605588 24.31430559 -77.47392338 21.49380389 -75.19490725 18.68587404 C-74.64816159 18.00961788 -74.10141592 17.33336172 -73.53810221 16.63661295 C-54.91822336 -5.91295458 -26.70732023 -2.72590858 0 0 Z " fill="#FFA65C" transform="translate(413.5467138886452,59.46231931447983)"/>
<path d="M0 0 C10.56 0 21.12 0 32 0 C32 10.56 32 21.12 32 32 C21.44 32 10.88 32 0 32 C0 21.44 0 10.88 0 0 Z " fill="#FFFA50" transform="translate(240,288)"/>
</svg>
