<svg xmlns="http://www.w3.org/2000/svg" xmlns:v="https://svgstorm.com"
viewBox = "0 0 512 512"
width="512"
height="512">
<g fill="None" fill-opacity="0.0" stroke="#000000" stroke-opacity="0.01" stroke-width="0.3"><path d="
M 0.00 512.00 
L 512.00 512.00
L 512.00 0.00
L 0.00 0.00
L 0.00 512.00
M 261.00 67.00 
C 262.48 78.03 259.02 84.51 261.00 96.00 C 262.98 107.49 249.80 108.82 251.00 97.00 C 252.20 85.18 250.10 78.37 251.00 67.00
C 227.44 65.51 221.55 32.11 235.25 19.25 C 248.94 6.38 263.81 6.23 276.75 19.25 C 289.70 32.26 284.92 65.68 261.00 67.00
M 137.00 72.00 
C 146.44 70.85 156.64 73.53 166.00 72.00 C 175.36 70.47 176.83 75.51 176.00 84.00 C 175.17 92.49 176.74 105.60 176.00 113.00 C 175.26 120.40 179.53 137.31 169.99 136.99 C 160.45 136.68 166.25 120.20 165.00 113.00 C 163.75 105.80 165.94 90.90 165.00 83.00
C 155.67 83.00 146.33 83.00 137.00 83.00
C 135.49 98.35 114.48 110.99 97.93 104.07 C 81.38 97.16 77.66 81.59 81.26 68.25 C 84.87 54.91 97.20 48.98 111.00 49.00 C 124.80 49.02 134.06 59.60 137.00 72.00
M 347.00 83.00 
C 345.37 91.46 349.17 100.60 347.00 109.00 C 344.83 117.40 351.54 126.36 346.22 134.22 C 340.90 142.08 333.27 130.74 336.00 123.00 C 338.73 115.26 334.44 105.10 336.00 97.00 C 337.56 88.90 333.73 79.36 338.00 72.00
C 347.82 71.87 363.01 72.09 375.00 72.00
C 374.44 64.22 382.46 58.54 387.75 53.61 C 393.05 48.67 400.79 48.74 409.25 49.76 C 417.71 50.77 421.88 55.10 427.13 60.92 C 432.37 66.74 433.63 78.65 430.07 88.07 C 426.52 97.50 416.86 105.95 406.99 105.99 C 397.12 106.04 383.34 104.83 379.23 92.77 C 375.12 80.71 360.04 81.93 347.00 83.00
M 161.00 186.00 
C 162.62 186.74 173.53 186.91 175.00 186.00
C 176.34 178.63 158.91 171.56 164.31 163.31 C 169.70 155.05 176.69 152.57 183.25 144.25 C 189.80 135.93 198.89 145.66 205.75 151.25 C 212.61 156.84 224.41 144.45 233.00 145.00
C 233.41 133.02 234.31 117.59 248.00 119.00 C 261.69 120.41 279.06 114.59 277.00 132.00 C 274.94 149.41 288.99 145.29 298.70 152.31 C 308.40 159.32 314.20 135.94 323.67 140.33 C 333.15 144.73 336.58 153.99 345.25 160.75 C 353.92 167.52 337.11 180.19 336.00 186.00
C 337.67 186.97 349.21 186.82 351.00 186.00
C 351.53 177.51 365.73 181.77 372.00 181.00 C 378.27 180.23 391.13 181.58 398.00 181.00
C 398.39 167.36 397.48 155.86 398.00 142.00 C 398.52 128.14 420.44 135.99 430.00 134.00
C 435.54 101.52 485.19 105.47 486.00 139.00 C 486.81 172.53 435.33 178.84 430.00 145.00
C 423.00 145.00 416.00 145.00 409.00 145.00
C 409.00 157.00 409.00 169.00 409.00 181.00
C 436.68 177.07 456.19 195.31 455.00 223.00 C 453.81 250.69 454.85 284.08 455.00 312.00 C 455.15 339.92 453.40 374.01 455.00 401.00 C 456.60 427.99 450.06 454.05 420.00 455.00 C 389.94 455.95 360.96 454.29 331.00 455.00
C 331.00 467.00 331.00 479.00 331.00 491.00
C 340.22 493.00 347.59 488.33 357.00 491.00 C 366.41 493.67 359.95 504.28 351.00 502.00 C 342.05 499.72 332.97 503.01 324.00 502.00 C 315.03 500.99 305.98 502.42 297.00 502.00 C 288.02 501.58 278.98 502.11 270.00 502.00 C 261.02 501.89 251.96 501.87 243.00 502.00 C 234.04 502.13 224.90 501.53 216.00 502.00 C 207.10 502.47 197.79 500.89 189.00 502.00 C 180.21 503.11 170.53 499.52 162.00 502.00 C 153.47 504.48 145.09 494.91 154.08 491.08 C 163.07 487.25 172.01 493.78 181.00 491.00
C 181.00 479.00 181.00 467.00 181.00 455.00
C 151.20 454.65 122.96 455.47 93.00 455.00 C 63.04 454.54 55.31 429.22 57.00 402.00 C 58.69 374.78 56.90 341.07 57.00 313.00 C 57.10 284.93 58.43 251.87 57.00 224.00 C 55.57 196.13 74.62 176.82 103.00 181.00
C 103.00 169.00 103.00 157.00 103.00 145.00
C 96.00 145.00 89.00 145.00 82.00 145.00
C 76.81 177.90 26.37 173.54 26.00 140.00 C 25.63 106.46 76.27 100.62 82.00 134.00
C 90.93 136.57 112.79 127.71 114.00 141.00 C 115.21 154.29 113.10 167.70 114.00 181.00
C 122.02 181.51 132.20 180.33 140.00 181.00 C 147.80 181.67 157.57 177.70 161.00 186.00 Z"/>
</g>
<g fill="None" fill-opacity="0.0" stroke="#000000" stroke-opacity="1.00" stroke-width="0.3"><path d="
M 261.00 67.00 
C 284.92 65.68 289.70 32.26 276.75 19.25 C 263.81 6.23 248.94 6.38 235.25 19.25 C 221.55 32.11 227.44 65.51 251.00 67.00
C 250.10 78.37 252.20 85.18 251.00 97.00 C 249.80 108.82 262.98 107.49 261.00 96.00 C 259.02 84.51 262.48 78.03 261.00 67.00
M 270.00 49.00 
C 257.27 67.36 228.65 46.77 242.00 29.00
C 255.58 10.92 282.92 30.36 270.00 49.00 Z"/>
</g>
<g fill="None" fill-opacity="0.0" stroke="#ABCD86" stroke-opacity="1.00" stroke-width="0.3"><path d="
M 242.00 29.00 
C 240.08 39.52 260.67 55.40 270.00 49.00
C 282.92 30.36 255.58 10.92 242.00 29.00 Z"/>
</g>
<g fill="None" fill-opacity="0.0" stroke="#87B654" stroke-opacity="1.00" stroke-width="0.3"><path d="
M 270.00 49.00 
C 260.67 55.40 240.08 39.52 242.00 29.00
C 228.65 46.77 257.27 67.36 270.00 49.00 Z"/>
</g>
<g fill="None" fill-opacity="0.0" stroke="#000000" stroke-opacity="0.99" stroke-width="0.3"><path d="
M 137.00 72.00 
C 134.06 59.60 124.80 49.02 111.00 49.00 C 97.20 48.98 84.87 54.91 81.26 68.25 C 77.66 81.59 81.38 97.16 97.93 104.07 C 114.48 110.99 135.49 98.35 137.00 83.00
C 146.33 83.00 155.67 83.00 165.00 83.00
C 165.94 90.90 163.75 105.80 165.00 113.00 C 166.25 120.20 160.45 136.68 169.99 136.99 C 179.53 137.31 175.26 120.40 176.00 113.00 C 176.74 105.60 175.17 92.49 176.00 84.00 C 176.83 75.51 175.36 70.47 166.00 72.00 C 156.64 73.53 146.44 70.85 137.00 72.00
M 122.00 88.00 
C 108.13 104.88 82.70 86.44 94.00 68.00
C 106.17 48.14 136.91 69.84 122.00 88.00 Z"/>
</g>
<g fill="None" fill-opacity="0.0" stroke="#000000" stroke-opacity="0.99" stroke-width="0.3"><path d="
M 347.00 83.00 
C 360.04 81.93 375.12 80.71 379.23 92.77 C 383.34 104.83 397.12 106.04 406.99 105.99 C 416.86 105.95 426.52 97.50 430.07 88.07 C 433.63 78.65 432.37 66.74 427.13 60.92 C 421.88 55.10 417.71 50.77 409.25 49.76 C 400.79 48.74 393.05 48.67 387.75 53.61 C 382.46 58.54 374.44 64.22 375.00 72.00
C 363.01 72.09 347.82 71.87 338.00 72.00
C 333.73 79.36 337.56 88.90 336.00 97.00 C 334.44 105.10 338.73 115.26 336.00 123.00 C 333.27 130.74 340.90 142.08 346.22 134.22 C 351.54 126.36 344.83 117.40 347.00 109.00 C 349.17 100.60 345.37 91.46 347.00 83.00
M 417.00 88.00 
C 403.23 106.34 375.73 84.37 390.00 67.00
C 404.33 49.55 430.36 70.21 417.00 88.00 Z"/>
</g>
<g fill="None" fill-opacity="0.0" stroke="#E8757A" stroke-opacity="1.00" stroke-width="0.3"><path d="
M 94.00 68.00 
C 96.17 78.53 109.07 93.01 122.00 88.00
C 136.91 69.84 106.17 48.14 94.00 68.00 Z"/>
</g>
<g fill="None" fill-opacity="0.0" stroke="#E8757A" stroke-opacity="1.00" stroke-width="0.3"><path d="
M 390.00 67.00 
C 386.85 78.93 406.28 92.63 417.00 88.00
C 430.36 70.21 404.33 49.55 390.00 67.00 Z"/>
</g>
<g fill="None" fill-opacity="0.0" stroke="#E8484F" stroke-opacity="1.00" stroke-width="0.3"><path d="
M 417.00 88.00 
C 406.28 92.63 386.85 78.93 390.00 67.00
C 375.73 84.37 403.23 106.34 417.00 88.00 Z"/>
</g>
<g fill="None" fill-opacity="0.0" stroke="#E9494F" stroke-opacity="1.00" stroke-width="0.3"><path d="
M 122.00 88.00 
C 109.07 93.01 96.17 78.53 94.00 68.00
C 82.70 86.44 108.13 104.88 122.00 88.00 Z"/>
</g>
<g fill="None" fill-opacity="0.0" stroke="#000000" stroke-opacity="1.00" stroke-width="0.3"><path d="
M 351.00 186.00 
C 350.46 194.70 364.62 192.00 370.00 192.00
C 373.78 192.00 379.41 191.16 383.00 192.00 C 386.59 192.84 394.11 189.98 397.00 192.00
C 399.66 193.86 398.13 205.55 398.00 209.00 C 397.87 212.45 399.81 225.03 397.00 227.00
C 393.61 229.38 386.75 224.39 383.75 228.75 C 380.76 233.12 382.43 236.31 387.00 238.00
C 391.22 238.94 400.84 239.14 405.00 238.00
C 407.29 237.00 407.95 236.53 409.00 234.00
C 410.72 227.35 409.00 217.90 409.00 211.00
C 409.00 204.67 409.00 198.33 409.00 192.00
C 440.53 185.11 448.89 218.44 444.00 243.00
C 444.00 273.67 444.00 304.33 444.00 335.00
C 444.00 355.67 444.00 376.33 444.00 397.00
C 318.67 397.00 193.33 397.00 68.00 397.00
C 67.12 370.83 69.18 343.01 68.00 317.00 C 66.82 290.99 70.26 262.41 68.00 237.00 C 65.74 211.59 72.82 187.07 103.00 192.00
C 103.53 199.69 102.29 209.52 103.00 217.00 C 103.71 224.48 99.99 234.35 107.00 238.00
C 111.16 239.14 120.78 238.94 125.00 238.00
C 129.39 236.38 131.07 234.14 128.69 229.31 C 126.32 224.47 118.22 229.26 115.00 227.00
C 112.34 225.14 113.87 213.45 114.00 210.00 C 114.13 206.55 112.19 193.97 115.00 192.00
C 119.78 188.65 125.95 194.23 132.00 192.00 C 138.05 189.77 161.71 197.41 161.00 186.00
C 157.57 177.70 147.80 181.67 140.00 181.00 C 132.20 180.33 122.02 181.51 114.00 181.00
C 113.10 167.70 115.21 154.29 114.00 141.00 C 112.79 127.71 90.93 136.57 82.00 134.00
C 76.27 100.62 25.63 106.46 26.00 140.00 C 26.37 173.54 76.81 177.90 82.00 145.00
C 89.00 145.00 96.00 145.00 103.00 145.00
C 103.00 157.00 103.00 169.00 103.00 181.00
C 74.62 176.82 55.57 196.13 57.00 224.00 C 58.43 251.87 57.10 284.93 57.00 313.00 C 56.90 341.07 58.69 374.78 57.00 402.00 C 55.31 429.22 63.04 454.54 93.00 455.00 C 122.96 455.47 151.20 454.65 181.00 455.00
C 181.00 467.00 181.00 479.00 181.00 491.00
C 172.01 493.78 163.07 487.25 154.08 491.08 C 145.09 494.91 153.47 504.48 162.00 502.00 C 170.53 499.52 180.21 503.11 189.00 502.00 C 197.79 500.89 207.10 502.47 216.00 502.00 C 224.90 501.53 234.04 502.13 243.00 502.00 C 251.96 501.87 261.02 501.89 270.00 502.00 C 278.98 502.11 288.02 501.58 297.00 502.00 C 305.98 502.42 315.03 500.99 324.00 502.00 C 332.97 503.01 342.05 499.72 351.00 502.00 C 359.95 504.28 366.41 493.67 357.00 491.00 C 347.59 488.33 340.22 493.00 331.00 491.00
C 331.00 479.00 331.00 467.00 331.00 455.00
C 360.96 454.29 389.94 455.95 420.00 455.00 C 450.06 454.05 456.60 427.99 455.00 401.00 C 453.40 374.01 455.15 339.92 455.00 312.00 C 454.85 284.08 453.81 250.69 455.00 223.00 C 456.19 195.31 436.68 177.07 409.00 181.00
C 409.00 169.00 409.00 157.00 409.00 145.00
C 416.00 145.00 423.00 145.00 430.00 145.00
C 435.33 178.84 486.81 172.53 486.00 139.00 C 485.19 105.47 435.54 101.52 430.00 134.00
C 420.44 135.99 398.52 128.14 398.00 142.00 C 397.48 155.86 398.39 167.36 398.00 181.00
C 391.13 181.58 378.27 180.23 372.00 181.00 C 365.73 181.77 351.53 177.51 351.00 186.00
M 68.00 150.00 
C 54.75 167.65 27.61 147.70 40.00 130.00
C 53.44 110.81 81.83 131.58 68.00 150.00
M 471.00 150.00 
C 456.68 167.43 431.98 147.89 444.00 130.00
C 456.71 111.09 485.70 132.10 471.00 150.00
M 444.00 409.00 
C 448.58 435.57 428.78 446.06 405.00 444.00 C 381.22 441.94 355.29 444.75 331.00 444.00 C 306.71 443.25 280.41 443.99 256.00 444.00 C 231.59 444.01 206.25 443.20 182.00 444.00 C 157.75 444.80 131.80 441.86 108.00 444.00 C 84.20 446.14 63.14 436.19 68.00 409.00
C 193.33 409.00 318.67 409.00 444.00 409.00
M 320.00 479.00 
C 320.00 482.67 320.00 486.33 320.00 490.00
C 277.33 490.00 234.67 490.00 192.00 490.00
C 192.00 478.67 192.00 467.33 192.00 456.00
C 208.67 456.00 225.33 456.00 242.00 456.00
C 268.00 456.00 294.00 456.00 320.00 456.00
C 320.00 463.67 320.00 471.33 320.00 479.00 Z"/>
</g>
<g fill="None" fill-opacity="0.0" stroke="#000000" stroke-opacity="1.00" stroke-width="0.3"><path d="
M 175.00 186.00 
C 173.57 193.87 165.74 200.42 166.00 209.00
C 158.78 213.29 145.53 207.77 142.00 217.00
C 140.95 221.75 141.95 228.12 142.00 233.00 C 142.05 237.88 140.82 244.30 142.00 249.00
C 145.07 256.55 156.11 253.78 163.00 255.00
C 162.79 264.07 171.54 272.95 172.92 281.08 C 174.30 289.22 157.02 296.87 166.25 304.75 C 175.48 312.63 176.35 314.93 184.75 323.25 C 193.16 331.57 199.51 313.49 207.70 317.31 C 215.88 321.12 224.63 326.88 234.00 328.00
C 235.14 334.73 232.39 346.83 242.00 347.00 C 251.62 347.17 259.24 346.49 269.00 347.00 C 278.76 347.51 277.06 335.14 278.00 328.00
C 287.64 329.45 297.72 316.54 306.23 316.23 C 314.74 315.92 322.81 335.25 331.00 320.00
C 336.79 314.21 340.72 309.75 346.75 303.75 C 352.78 297.75 342.21 288.36 338.00 284.00
C 339.81 274.19 346.84 272.03 346.98 260.98 C 347.11 249.92 366.40 259.37 369.30 250.30 C 372.20 241.24 369.30 228.45 370.00 218.00 C 370.70 207.55 350.19 214.60 346.26 208.74 C 342.33 202.89 341.79 191.43 336.00 186.00
C 337.11 180.19 353.92 167.52 345.25 160.75 C 336.58 153.99 333.15 144.73 323.67 140.33 C 314.20 135.94 308.40 159.32 298.70 152.31 C 288.99 145.29 274.94 149.41 277.00 132.00 C 279.06 114.59 261.69 120.41 248.00 119.00 C 234.31 117.59 233.41 133.02 233.00 145.00
C 224.41 144.45 212.61 156.84 205.75 151.25 C 198.89 145.66 189.80 135.93 183.25 144.25 C 176.69 152.57 169.70 155.05 164.31 163.31 C 158.91 171.56 176.34 178.63 175.00 186.00
M 334.00 265.00 
C 330.56 273.55 321.36 287.24 331.30 293.70 C 341.25 300.15 323.45 317.77 316.75 308.25 C 310.05 298.73 296.71 308.48 287.77 312.77 C 278.83 317.06 260.14 318.06 266.00 335.00
C 259.33 335.00 252.67 335.00 246.00 335.00
C 251.14 316.05 232.72 317.34 221.77 311.23 C 210.82 305.12 199.96 298.65 191.00 312.00
C 185.85 308.31 182.10 302.64 177.00 299.00
C 178.61 293.07 190.14 286.68 186.07 279.93 C 182.01 273.17 178.79 266.77 176.68 259.32 C 174.56 251.87 174.61 240.97 162.78 243.22 C 150.95 245.47 152.13 232.38 153.00 223.00
C 163.28 223.11 176.24 221.73 177.32 210.32 C 178.41 198.91 187.59 194.61 189.00 184.00
C 188.98 183.50 189.01 182.50 189.00 182.00
C 184.96 176.95 179.32 172.16 177.00 166.00
C 181.47 162.97 184.57 157.98 189.00 155.00
C 196.57 152.16 201.86 168.93 211.00 166.00 C 220.14 163.07 225.10 156.76 235.67 155.67 C 246.24 154.59 245.77 138.86 246.00 130.00
C 252.67 130.00 259.33 130.00 266.00 130.00
C 265.52 140.34 267.30 156.08 279.01 155.99 C 290.72 155.90 295.92 169.94 306.74 164.74 C 317.57 159.55 318.13 150.13 328.75 160.25 C 339.37 170.36 328.26 171.73 324.08 182.08 C 319.90 192.43 334.14 197.38 334.31 208.69 C 334.47 220.01 348.56 224.42 359.00 223.00
C 357.48 228.06 361.94 240.08 356.92 242.92 C 351.89 245.75 342.23 241.30 339.08 247.08 C 335.94 252.87 336.60 259.06 334.00 265.00 Z"/>
</g>
<g fill="None" fill-opacity="0.0" stroke="#FBC14C" stroke-opacity="1.00" stroke-width="0.3"><path d="
M 40.00 130.00 
C 38.40 141.08 57.56 154.51 68.00 150.00
C 81.83 131.58 53.44 110.81 40.00 130.00 Z"/>
</g>
<g fill="None" fill-opacity="0.0" stroke="#FCC14C" stroke-opacity="1.00" stroke-width="0.3"><path d="
M 444.00 130.00 
C 442.45 141.62 460.16 154.20 471.00 150.00
C 485.70 132.10 456.71 111.09 444.00 130.00 Z"/>
</g>
<g fill="None" fill-opacity="0.0" stroke="#F9A804" stroke-opacity="1.00" stroke-width="0.3"><path d="
M 68.00 150.00 
C 57.56 154.51 38.40 141.08 40.00 130.00
C 27.61 147.70 54.75 167.65 68.00 150.00 Z"/>
</g>
<g fill="None" fill-opacity="0.0" stroke="#798994" stroke-opacity="1.00" stroke-width="0.3"><path d="
M 189.00 155.00 
C 185.92 158.12 188.99 163.87 188.00 168.00 C 187.01 172.13 188.89 177.89 189.00 182.00
C 189.01 182.50 188.98 183.50 189.00 184.00
C 192.72 196.96 196.42 213.30 206.00 223.00
C 213.17 190.08 253.39 174.10 282.08 190.92 C 310.77 207.75 316.73 249.27 293.00 273.00
C 299.23 271.34 308.92 273.46 314.67 270.67 C 320.42 267.89 329.47 269.90 334.00 265.00
C 336.60 259.06 335.94 252.87 339.08 247.08 C 342.23 241.30 351.89 245.75 356.92 242.92 C 361.94 240.08 357.48 228.06 359.00 223.00
C 348.56 224.42 334.47 220.01 334.31 208.69 C 334.14 197.38 319.90 192.43 324.08 182.08 C 328.26 171.73 339.37 170.36 328.75 160.25 C 318.13 150.13 317.57 159.55 306.74 164.74 C 295.92 169.94 290.72 155.90 279.01 155.99 C 267.30 156.08 265.52 140.34 266.00 130.00
C 259.33 130.00 252.67 130.00 246.00 130.00
C 245.77 138.86 246.24 154.59 235.67 155.67 C 225.10 156.76 220.14 163.07 211.00 166.00 C 201.86 168.93 196.57 152.16 189.00 155.00 Z"/>
</g>
<g fill="None" fill-opacity="0.0" stroke="#F8A704" stroke-opacity="1.00" stroke-width="0.3"><path d="
M 471.00 150.00 
C 460.16 154.20 442.45 141.62 444.00 130.00
C 431.98 147.89 456.68 167.43 471.00 150.00 Z"/>
</g>
<g fill="None" fill-opacity="0.0" stroke="#4C6272" stroke-opacity="1.00" stroke-width="0.3"><path d="
M 189.00 182.00 
C 188.89 177.89 187.01 172.13 188.00 168.00 C 188.99 163.87 185.92 158.12 189.00 155.00
C 184.57 157.98 181.47 162.97 177.00 166.00
C 179.32 172.16 184.96 176.95 189.00 182.00 Z"/>
</g>
<g fill="None" fill-opacity="0.0" stroke="#4D6474" stroke-opacity="1.00" stroke-width="0.3"><path d="
M 334.00 265.00 
C 329.47 269.90 320.42 267.89 314.67 270.67 C 308.92 273.46 299.23 271.34 293.00 273.00
C 276.48 289.52 250.37 292.54 229.92 281.08 C 209.48 269.61 201.18 245.12 206.00 223.00
C 196.42 213.30 192.72 196.96 189.00 184.00
C 187.59 194.61 178.41 198.91 177.32 210.32 C 176.24 221.73 163.28 223.11 153.00 223.00
C 152.13 232.38 150.95 245.47 162.78 243.22 C 174.61 240.97 174.56 251.87 176.68 259.32 C 178.79 266.77 182.01 273.17 186.07 279.93 C 190.14 286.68 178.61 293.07 177.00 299.00
C 182.10 302.64 185.85 308.31 191.00 312.00
C 199.96 298.65 210.82 305.12 221.77 311.23 C 232.72 317.34 251.14 316.05 246.00 335.00
C 252.67 335.00 259.33 335.00 266.00 335.00
C 260.14 318.06 278.83 317.06 287.77 312.77 C 296.71 308.48 310.05 298.73 316.75 308.25 C 323.45 317.77 341.25 300.15 331.30 293.70 C 321.36 287.24 330.56 273.55 334.00 265.00 Z"/>
</g>
<g fill="None" fill-opacity="0.0" stroke="#000000" stroke-opacity="1.00" stroke-width="0.3"><path d="
M 206.00 223.00 
C 201.18 245.12 209.48 269.61 229.92 281.08 C 250.37 292.54 276.48 289.52 293.00 273.00
C 316.73 249.27 310.77 207.75 282.08 190.92 C 253.39 174.10 213.17 190.08 206.00 223.00
M 260.00 195.00 
C 289.85 198.61 307.13 234.40 289.23 259.23 C 271.33 284.06 234.88 281.45 220.08 254.92 C 205.28 228.39 228.19 191.15 260.00 195.00 Z"/>
</g>
<g fill="None" fill-opacity="0.0" stroke="#7BB4E7" stroke-opacity="1.00" stroke-width="0.3"><path d="
M 115.00 192.00 
C 115.00 203.67 115.00 215.33 115.00 227.00
C 118.22 229.26 126.32 224.47 128.69 229.31 C 131.07 234.14 129.39 236.38 125.00 238.00
C 120.47 239.67 111.44 239.94 107.00 238.00
C 99.99 234.35 103.71 224.48 103.00 217.00 C 102.29 209.52 103.53 199.69 103.00 192.00
C 72.82 187.07 65.74 211.59 68.00 237.00 C 70.26 262.41 66.82 290.99 68.00 317.00 C 69.18 343.01 67.12 370.83 68.00 397.00
C 193.33 397.00 318.67 397.00 444.00 397.00
C 444.00 376.33 444.00 355.67 444.00 335.00
C 435.71 335.23 427.28 334.69 419.00 335.00 C 410.72 335.31 401.12 334.42 393.00 335.00 C 384.88 335.58 376.42 334.03 369.00 334.00 C 361.58 333.97 354.81 329.46 348.32 328.68 C 341.83 327.90 336.69 319.57 331.00 320.00
C 322.81 335.25 314.74 315.92 306.23 316.23 C 297.72 316.54 287.64 329.45 278.00 328.00
C 277.06 335.14 278.76 347.51 269.00 347.00 C 259.24 346.49 251.62 347.17 242.00 347.00 C 232.39 346.83 235.14 334.73 234.00 328.00
C 224.63 326.88 215.88 321.12 207.70 317.31 C 199.51 313.49 193.16 331.57 184.75 323.25 C 176.35 314.93 175.48 312.63 166.25 304.75 C 157.02 296.87 174.30 289.22 172.92 281.08 C 171.54 272.95 162.79 264.07 163.00 255.00
C 156.11 253.78 145.07 256.55 142.00 249.00
C 139.21 242.13 139.47 223.85 142.00 217.00
C 145.53 207.77 158.78 213.29 166.00 209.00
C 165.74 200.42 173.57 193.87 175.00 186.00
C 173.53 186.91 162.62 186.74 161.00 186.00
C 161.71 197.41 138.05 189.77 132.00 192.00 C 125.95 194.23 119.78 188.65 115.00 192.00 Z"/>
</g>
<g fill="None" fill-opacity="0.0" stroke="#A2CAEE" stroke-opacity="1.00" stroke-width="0.3"><path d="
M 331.00 320.00 
C 336.69 319.57 341.83 327.90 348.32 328.68 C 354.81 329.46 361.58 333.97 369.00 334.00 C 376.42 334.03 384.88 335.58 393.00 335.00 C 401.12 334.42 410.72 335.31 419.00 335.00 C 427.28 334.69 435.71 335.23 444.00 335.00
C 444.00 304.33 444.00 273.67 444.00 243.00
C 429.57 240.21 426.55 223.75 428.00 211.00
C 422.00 211.00 416.00 211.00 410.00 211.00
C 410.59 217.57 411.33 228.41 409.00 234.00
C 407.95 236.53 407.29 237.00 405.00 238.00
C 400.50 239.96 391.46 239.65 387.00 238.00
C 382.43 236.31 380.76 233.12 383.75 228.75 C 386.75 224.39 393.61 229.38 397.00 227.00
C 397.00 221.67 397.00 216.33 397.00 211.00
C 385.06 211.96 372.92 203.67 370.00 192.00
C 364.62 192.00 350.46 194.70 351.00 186.00
C 349.21 186.82 337.67 186.97 336.00 186.00
C 341.79 191.43 342.33 202.89 346.26 208.74 C 350.19 214.60 370.70 207.55 370.00 218.00 C 369.30 228.45 372.20 241.24 369.30 250.30 C 366.40 259.37 347.11 249.92 346.98 260.98 C 346.84 272.03 339.81 274.19 338.00 284.00
C 342.21 288.36 352.78 297.75 346.75 303.75 C 340.72 309.75 336.79 314.21 331.00 320.00 Z"/>
</g>
<g fill="None" fill-opacity="0.0" stroke="#466784" stroke-opacity="1.00" stroke-width="0.3"><path d="
M 115.00 227.00 
C 115.00 215.33 115.00 203.67 115.00 192.00
C 112.19 193.97 114.13 206.55 114.00 210.00 C 113.87 213.45 112.34 225.14 115.00 227.00 Z"/>
</g>
<g fill="None" fill-opacity="0.0" stroke="#D0E4F6" stroke-opacity="1.00" stroke-width="0.3"><path d="
M 397.00 211.00 
C 397.00 204.67 397.00 198.33 397.00 192.00
C 394.11 189.98 386.59 192.84 383.00 192.00 C 379.41 191.16 373.78 192.00 370.00 192.00
C 372.92 203.67 385.06 211.96 397.00 211.00 Z"/>
</g>
<g fill="None" fill-opacity="0.0" stroke="#6B7B8A" stroke-opacity="1.00" stroke-width="0.3"><path d="
M 397.00 211.00 
C 397.00 216.33 397.00 221.67 397.00 227.00
C 399.81 225.03 397.87 212.45 398.00 209.00 C 398.13 205.55 399.66 193.86 397.00 192.00
C 397.00 198.33 397.00 204.67 397.00 211.00 Z"/>
</g>
<g fill="None" fill-opacity="0.0" stroke="#CDE2F4" stroke-opacity="1.00" stroke-width="0.3"><path d="
M 409.00 211.00 
C 409.00 210.96 410.00 211.00 410.00 211.00
C 416.00 211.00 422.00 211.00 428.00 211.00
C 426.55 223.75 429.57 240.21 444.00 243.00
C 448.89 218.44 440.53 185.11 409.00 192.00
C 409.00 198.33 409.00 204.67 409.00 211.00 Z"/>
</g>
<g fill="None" fill-opacity="0.0" stroke="#000000" stroke-opacity="0.02" stroke-width="0.3"><path d="
M 260.00 195.00 
C 228.19 191.15 205.28 228.39 220.08 254.92 C 234.88 281.45 271.33 284.06 289.23 259.23 C 307.13 234.40 289.85 198.61 260.00 195.00 Z"/>
</g>
<g fill="None" fill-opacity="0.0" stroke="#80A0BC" stroke-opacity="1.00" stroke-width="0.3"><path d="
M 409.00 234.00 
C 411.33 228.41 410.59 217.57 410.00 211.00
C 410.00 211.00 409.00 210.96 409.00 211.00
C 409.00 217.90 410.72 227.35 409.00 234.00 Z"/>
</g>
<g fill="None" fill-opacity="0.0" stroke="#3E5A74" stroke-opacity="1.00" stroke-width="0.3"><path d="
M 142.00 249.00 
C 140.82 244.30 142.05 237.88 142.00 233.00 C 141.95 228.12 140.95 221.75 142.00 217.00
C 139.47 223.85 139.21 242.13 142.00 249.00 Z"/>
</g>
<g fill="None" fill-opacity="0.0" stroke="#3B556E" stroke-opacity="1.00" stroke-width="0.3"><path d="
M 125.00 238.00 
C 120.78 238.94 111.16 239.14 107.00 238.00
C 111.44 239.94 120.47 239.67 125.00 238.00 Z"/>
</g>
<g fill="None" fill-opacity="0.0" stroke="#4D6072" stroke-opacity="1.00" stroke-width="0.3"><path d="
M 405.00 238.00 
C 400.84 239.14 391.22 238.94 387.00 238.00
C 391.46 239.65 400.50 239.96 405.00 238.00 Z"/>
</g>
<g fill="None" fill-opacity="0.0" stroke="#E2E2E2" stroke-opacity="1.00" stroke-width="0.3"><path d="
M 444.00 409.00 
C 318.67 409.00 193.33 409.00 68.00 409.00
C 63.14 436.19 84.20 446.14 108.00 444.00 C 131.80 441.86 157.75 444.80 182.00 444.00 C 206.25 443.20 231.59 444.01 256.00 444.00 C 280.41 443.99 306.71 443.25 331.00 444.00 C 355.29 444.75 381.22 441.94 405.00 444.00 C 428.78 446.06 448.58 435.57 444.00 409.00 Z"/>
</g>
<g fill="None" fill-opacity="0.0" stroke="#4E6575" stroke-opacity="1.00" stroke-width="0.3"><path d="
M 320.00 479.00 
C 293.33 476.68 251.96 489.22 242.00 456.00
C 225.33 456.00 208.67 456.00 192.00 456.00
C 192.00 467.33 192.00 478.67 192.00 490.00
C 234.67 490.00 277.33 490.00 320.00 490.00
C 320.00 486.33 320.00 482.67 320.00 479.00 Z"/>
</g>
<g fill="None" fill-opacity="0.0" stroke="#798994" stroke-opacity="1.00" stroke-width="0.3"><path d="
M 320.00 479.00 
C 320.00 471.33 320.00 463.67 320.00 456.00
C 294.00 456.00 268.00 456.00 242.00 456.00
C 251.96 489.22 293.33 476.68 320.00 479.00 Z"/>
</g>
<g fill="#000000" fill-opacity="0.01" stroke="None">
<path d="
M 0.00 512.00 
L 512.00 512.00
L 512.00 0.00
L 0.00 0.00
L 0.00 512.00
M 261.00 67.00 
C 262.48 78.03 259.02 84.51 261.00 96.00 C 262.98 107.49 249.80 108.82 251.00 97.00 C 252.20 85.18 250.10 78.37 251.00 67.00
C 227.44 65.51 221.55 32.11 235.25 19.25 C 248.94 6.38 263.81 6.23 276.75 19.25 C 289.70 32.26 284.92 65.68 261.00 67.00
M 137.00 72.00 
C 146.44 70.85 156.64 73.53 166.00 72.00 C 175.36 70.47 176.83 75.51 176.00 84.00 C 175.17 92.49 176.74 105.60 176.00 113.00 C 175.26 120.40 179.53 137.31 169.99 136.99 C 160.45 136.68 166.25 120.20 165.00 113.00 C 163.75 105.80 165.94 90.90 165.00 83.00
C 155.67 83.00 146.33 83.00 137.00 83.00
C 135.49 98.35 114.48 110.99 97.93 104.07 C 81.38 97.16 77.66 81.59 81.26 68.25 C 84.87 54.91 97.20 48.98 111.00 49.00 C 124.80 49.02 134.06 59.60 137.00 72.00
M 347.00 83.00 
C 345.37 91.46 349.17 100.60 347.00 109.00 C 344.83 117.40 351.54 126.36 346.22 134.22 C 340.90 142.08 333.27 130.74 336.00 123.00 C 338.73 115.26 334.44 105.10 336.00 97.00 C 337.56 88.90 333.73 79.36 338.00 72.00
C 347.82 71.87 363.01 72.09 375.00 72.00
C 374.44 64.22 382.46 58.54 387.75 53.61 C 393.05 48.67 400.79 48.74 409.25 49.76 C 417.71 50.77 421.88 55.10 427.13 60.92 C 432.37 66.74 433.63 78.65 430.07 88.07 C 426.52 97.50 416.86 105.95 406.99 105.99 C 397.12 106.04 383.34 104.83 379.23 92.77 C 375.12 80.71 360.04 81.93 347.00 83.00
M 161.00 186.00 
C 162.62 186.74 173.53 186.91 175.00 186.00
C 176.34 178.63 158.91 171.56 164.31 163.31 C 169.70 155.05 176.69 152.57 183.25 144.25 C 189.80 135.93 198.89 145.66 205.75 151.25 C 212.61 156.84 224.41 144.45 233.00 145.00
C 233.41 133.02 234.31 117.59 248.00 119.00 C 261.69 120.41 279.06 114.59 277.00 132.00 C 274.94 149.41 288.99 145.29 298.70 152.31 C 308.40 159.32 314.20 135.94 323.67 140.33 C 333.15 144.73 336.58 153.99 345.25 160.75 C 353.92 167.52 337.11 180.19 336.00 186.00
C 337.67 186.97 349.21 186.82 351.00 186.00
C 351.53 177.51 365.73 181.77 372.00 181.00 C 378.27 180.23 391.13 181.58 398.00 181.00
C 398.39 167.36 397.48 155.86 398.00 142.00 C 398.52 128.14 420.44 135.99 430.00 134.00
C 435.54 101.52 485.19 105.47 486.00 139.00 C 486.81 172.53 435.33 178.84 430.00 145.00
C 423.00 145.00 416.00 145.00 409.00 145.00
C 409.00 157.00 409.00 169.00 409.00 181.00
C 436.68 177.07 456.19 195.31 455.00 223.00 C 453.81 250.69 454.85 284.08 455.00 312.00 C 455.15 339.92 453.40 374.01 455.00 401.00 C 456.60 427.99 450.06 454.05 420.00 455.00 C 389.94 455.95 360.96 454.29 331.00 455.00
C 331.00 467.00 331.00 479.00 331.00 491.00
C 340.22 493.00 347.59 488.33 357.00 491.00 C 366.41 493.67 359.95 504.28 351.00 502.00 C 342.05 499.72 332.97 503.01 324.00 502.00 C 315.03 500.99 305.98 502.42 297.00 502.00 C 288.02 501.58 278.98 502.11 270.00 502.00 C 261.02 501.89 251.96 501.87 243.00 502.00 C 234.04 502.13 224.90 501.53 216.00 502.00 C 207.10 502.47 197.79 500.89 189.00 502.00 C 180.21 503.11 170.53 499.52 162.00 502.00 C 153.47 504.48 145.09 494.91 154.08 491.08 C 163.07 487.25 172.01 493.78 181.00 491.00
C 181.00 479.00 181.00 467.00 181.00 455.00
C 151.20 454.65 122.96 455.47 93.00 455.00 C 63.04 454.54 55.31 429.22 57.00 402.00 C 58.69 374.78 56.90 341.07 57.00 313.00 C 57.10 284.93 58.43 251.87 57.00 224.00 C 55.57 196.13 74.62 176.82 103.00 181.00
C 103.00 169.00 103.00 157.00 103.00 145.00
C 96.00 145.00 89.00 145.00 82.00 145.00
C 76.81 177.90 26.37 173.54 26.00 140.00 C 25.63 106.46 76.27 100.62 82.00 134.00
C 90.93 136.57 112.79 127.71 114.00 141.00 C 115.21 154.29 113.10 167.70 114.00 181.00
C 122.02 181.51 132.20 180.33 140.00 181.00 C 147.80 181.67 157.57 177.70 161.00 186.00 Z"/>
</g>
<g fill="#000000" fill-opacity="1.00" stroke="None">
<path d="
M 261.00 67.00 
C 284.92 65.68 289.70 32.26 276.75 19.25 C 263.81 6.23 248.94 6.38 235.25 19.25 C 221.55 32.11 227.44 65.51 251.00 67.00
C 250.10 78.37 252.20 85.18 251.00 97.00 C 249.80 108.82 262.98 107.49 261.00 96.00 C 259.02 84.51 262.48 78.03 261.00 67.00
M 270.00 49.00 
C 257.27 67.36 228.65 46.77 242.00 29.00
C 255.58 10.92 282.92 30.36 270.00 49.00 Z"/>
</g>
<g fill="#ABCD86" fill-opacity="1.00" stroke="None">
<path d="
M 242.00 29.00 
C 240.08 39.52 260.67 55.40 270.00 49.00
C 282.92 30.36 255.58 10.92 242.00 29.00 Z"/>
</g>
<g fill="#87B654" fill-opacity="1.00" stroke="None">
<path d="
M 270.00 49.00 
C 260.67 55.40 240.08 39.52 242.00 29.00
C 228.65 46.77 257.27 67.36 270.00 49.00 Z"/>
</g>
<g fill="#000000" fill-opacity="0.99" stroke="None">
<path d="
M 137.00 72.00 
C 134.06 59.60 124.80 49.02 111.00 49.00 C 97.20 48.98 84.87 54.91 81.26 68.25 C 77.66 81.59 81.38 97.16 97.93 104.07 C 114.48 110.99 135.49 98.35 137.00 83.00
C 146.33 83.00 155.67 83.00 165.00 83.00
C 165.94 90.90 163.75 105.80 165.00 113.00 C 166.25 120.20 160.45 136.68 169.99 136.99 C 179.53 137.31 175.26 120.40 176.00 113.00 C 176.74 105.60 175.17 92.49 176.00 84.00 C 176.83 75.51 175.36 70.47 166.00 72.00 C 156.64 73.53 146.44 70.85 137.00 72.00
M 122.00 88.00 
C 108.13 104.88 82.70 86.44 94.00 68.00
C 106.17 48.14 136.91 69.84 122.00 88.00 Z"/>
</g>
<g fill="#000000" fill-opacity="0.99" stroke="None">
<path d="
M 347.00 83.00 
C 360.04 81.93 375.12 80.71 379.23 92.77 C 383.34 104.83 397.12 106.04 406.99 105.99 C 416.86 105.95 426.52 97.50 430.07 88.07 C 433.63 78.65 432.37 66.74 427.13 60.92 C 421.88 55.10 417.71 50.77 409.25 49.76 C 400.79 48.74 393.05 48.67 387.75 53.61 C 382.46 58.54 374.44 64.22 375.00 72.00
C 363.01 72.09 347.82 71.87 338.00 72.00
C 333.73 79.36 337.56 88.90 336.00 97.00 C 334.44 105.10 338.73 115.26 336.00 123.00 C 333.27 130.74 340.90 142.08 346.22 134.22 C 351.54 126.36 344.83 117.40 347.00 109.00 C 349.17 100.60 345.37 91.46 347.00 83.00
M 417.00 88.00 
C 403.23 106.34 375.73 84.37 390.00 67.00
C 404.33 49.55 430.36 70.21 417.00 88.00 Z"/>
</g>
<g fill="#E8757A" fill-opacity="1.00" stroke="None">
<path d="
M 94.00 68.00 
C 96.17 78.53 109.07 93.01 122.00 88.00
C 136.91 69.84 106.17 48.14 94.00 68.00 Z"/>
</g>
<g fill="#E8757A" fill-opacity="1.00" stroke="None">
<path d="
M 390.00 67.00 
C 386.85 78.93 406.28 92.63 417.00 88.00
C 430.36 70.21 404.33 49.55 390.00 67.00 Z"/>
</g>
<g fill="#E8484F" fill-opacity="1.00" stroke="None">
<path d="
M 417.00 88.00 
C 406.28 92.63 386.85 78.93 390.00 67.00
C 375.73 84.37 403.23 106.34 417.00 88.00 Z"/>
</g>
<g fill="#E9494F" fill-opacity="1.00" stroke="None">
<path d="
M 122.00 88.00 
C 109.07 93.01 96.17 78.53 94.00 68.00
C 82.70 86.44 108.13 104.88 122.00 88.00 Z"/>
</g>
<g fill="#000000" fill-opacity="1.00" stroke="None">
<path d="
M 351.00 186.00 
C 350.46 194.70 364.62 192.00 370.00 192.00
C 373.78 192.00 379.41 191.16 383.00 192.00 C 386.59 192.84 394.11 189.98 397.00 192.00
C 399.66 193.86 398.13 205.55 398.00 209.00 C 397.87 212.45 399.81 225.03 397.00 227.00
C 393.61 229.38 386.75 224.39 383.75 228.75 C 380.76 233.12 382.43 236.31 387.00 238.00
C 391.22 238.94 400.84 239.14 405.00 238.00
C 407.29 237.00 407.95 236.53 409.00 234.00
C 410.72 227.35 409.00 217.90 409.00 211.00
C 409.00 204.67 409.00 198.33 409.00 192.00
C 440.53 185.11 448.89 218.44 444.00 243.00
C 444.00 273.67 444.00 304.33 444.00 335.00
C 444.00 355.67 444.00 376.33 444.00 397.00
C 318.67 397.00 193.33 397.00 68.00 397.00
C 67.12 370.83 69.18 343.01 68.00 317.00 C 66.82 290.99 70.26 262.41 68.00 237.00 C 65.74 211.59 72.82 187.07 103.00 192.00
C 103.53 199.69 102.29 209.52 103.00 217.00 C 103.71 224.48 99.99 234.35 107.00 238.00
C 111.16 239.14 120.78 238.94 125.00 238.00
C 129.39 236.38 131.07 234.14 128.69 229.31 C 126.32 224.47 118.22 229.26 115.00 227.00
C 112.34 225.14 113.87 213.45 114.00 210.00 C 114.13 206.55 112.19 193.97 115.00 192.00
C 119.78 188.65 125.95 194.23 132.00 192.00 C 138.05 189.77 161.71 197.41 161.00 186.00
C 157.57 177.70 147.80 181.67 140.00 181.00 C 132.20 180.33 122.02 181.51 114.00 181.00
C 113.10 167.70 115.21 154.29 114.00 141.00 C 112.79 127.71 90.93 136.57 82.00 134.00
C 76.27 100.62 25.63 106.46 26.00 140.00 C 26.37 173.54 76.81 177.90 82.00 145.00
C 89.00 145.00 96.00 145.00 103.00 145.00
C 103.00 157.00 103.00 169.00 103.00 181.00
C 74.62 176.82 55.57 196.13 57.00 224.00 C 58.43 251.87 57.10 284.93 57.00 313.00 C 56.90 341.07 58.69 374.78 57.00 402.00 C 55.31 429.22 63.04 454.54 93.00 455.00 C 122.96 455.47 151.20 454.65 181.00 455.00
C 181.00 467.00 181.00 479.00 181.00 491.00
C 172.01 493.78 163.07 487.25 154.08 491.08 C 145.09 494.91 153.47 504.48 162.00 502.00 C 170.53 499.52 180.21 503.11 189.00 502.00 C 197.79 500.89 207.10 502.47 216.00 502.00 C 224.90 501.53 234.04 502.13 243.00 502.00 C 251.96 501.87 261.02 501.89 270.00 502.00 C 278.98 502.11 288.02 501.58 297.00 502.00 C 305.98 502.42 315.03 500.99 324.00 502.00 C 332.97 503.01 342.05 499.72 351.00 502.00 C 359.95 504.28 366.41 493.67 357.00 491.00 C 347.59 488.33 340.22 493.00 331.00 491.00
C 331.00 479.00 331.00 467.00 331.00 455.00
C 360.96 454.29 389.94 455.95 420.00 455.00 C 450.06 454.05 456.60 427.99 455.00 401.00 C 453.40 374.01 455.15 339.92 455.00 312.00 C 454.85 284.08 453.81 250.69 455.00 223.00 C 456.19 195.31 436.68 177.07 409.00 181.00
C 409.00 169.00 409.00 157.00 409.00 145.00
C 416.00 145.00 423.00 145.00 430.00 145.00
C 435.33 178.84 486.81 172.53 486.00 139.00 C 485.19 105.47 435.54 101.52 430.00 134.00
C 420.44 135.99 398.52 128.14 398.00 142.00 C 397.48 155.86 398.39 167.36 398.00 181.00
C 391.13 181.58 378.27 180.23 372.00 181.00 C 365.73 181.77 351.53 177.51 351.00 186.00
M 68.00 150.00 
C 54.75 167.65 27.61 147.70 40.00 130.00
C 53.44 110.81 81.83 131.58 68.00 150.00
M 471.00 150.00 
C 456.68 167.43 431.98 147.89 444.00 130.00
C 456.71 111.09 485.70 132.10 471.00 150.00
M 444.00 409.00 
C 448.58 435.57 428.78 446.06 405.00 444.00 C 381.22 441.94 355.29 444.75 331.00 444.00 C 306.71 443.25 280.41 443.99 256.00 444.00 C 231.59 444.01 206.25 443.20 182.00 444.00 C 157.75 444.80 131.80 441.86 108.00 444.00 C 84.20 446.14 63.14 436.19 68.00 409.00
C 193.33 409.00 318.67 409.00 444.00 409.00
M 320.00 479.00 
C 320.00 482.67 320.00 486.33 320.00 490.00
C 277.33 490.00 234.67 490.00 192.00 490.00
C 192.00 478.67 192.00 467.33 192.00 456.00
C 208.67 456.00 225.33 456.00 242.00 456.00
C 268.00 456.00 294.00 456.00 320.00 456.00
C 320.00 463.67 320.00 471.33 320.00 479.00 Z"/>
</g>
<g fill="#000000" fill-opacity="1.00" stroke="None">
<path d="
M 175.00 186.00 
C 173.57 193.87 165.74 200.42 166.00 209.00
C 158.78 213.29 145.53 207.77 142.00 217.00
C 140.95 221.75 141.95 228.12 142.00 233.00 C 142.05 237.88 140.82 244.30 142.00 249.00
C 145.07 256.55 156.11 253.78 163.00 255.00
C 162.79 264.07 171.54 272.95 172.92 281.08 C 174.30 289.22 157.02 296.87 166.25 304.75 C 175.48 312.63 176.35 314.93 184.75 323.25 C 193.16 331.57 199.51 313.49 207.70 317.31 C 215.88 321.12 224.63 326.88 234.00 328.00
C 235.14 334.73 232.39 346.83 242.00 347.00 C 251.62 347.17 259.24 346.49 269.00 347.00 C 278.76 347.51 277.06 335.14 278.00 328.00
C 287.64 329.45 297.72 316.54 306.23 316.23 C 314.74 315.92 322.81 335.25 331.00 320.00
C 336.79 314.21 340.72 309.75 346.75 303.75 C 352.78 297.75 342.21 288.36 338.00 284.00
C 339.81 274.19 346.84 272.03 346.98 260.98 C 347.11 249.92 366.40 259.37 369.30 250.30 C 372.20 241.24 369.30 228.45 370.00 218.00 C 370.70 207.55 350.19 214.60 346.26 208.74 C 342.33 202.89 341.79 191.43 336.00 186.00
C 337.11 180.19 353.92 167.52 345.25 160.75 C 336.58 153.99 333.15 144.73 323.67 140.33 C 314.20 135.94 308.40 159.32 298.70 152.31 C 288.99 145.29 274.94 149.41 277.00 132.00 C 279.06 114.59 261.69 120.41 248.00 119.00 C 234.31 117.59 233.41 133.02 233.00 145.00
C 224.41 144.45 212.61 156.84 205.75 151.25 C 198.89 145.66 189.80 135.93 183.25 144.25 C 176.69 152.57 169.70 155.05 164.31 163.31 C 158.91 171.56 176.34 178.63 175.00 186.00
M 334.00 265.00 
C 330.56 273.55 321.36 287.24 331.30 293.70 C 341.25 300.15 323.45 317.77 316.75 308.25 C 310.05 298.73 296.71 308.48 287.77 312.77 C 278.83 317.06 260.14 318.06 266.00 335.00
C 259.33 335.00 252.67 335.00 246.00 335.00
C 251.14 316.05 232.72 317.34 221.77 311.23 C 210.82 305.12 199.96 298.65 191.00 312.00
C 185.85 308.31 182.10 302.64 177.00 299.00
C 178.61 293.07 190.14 286.68 186.07 279.93 C 182.01 273.17 178.79 266.77 176.68 259.32 C 174.56 251.87 174.61 240.97 162.78 243.22 C 150.95 245.47 152.13 232.38 153.00 223.00
C 163.28 223.11 176.24 221.73 177.32 210.32 C 178.41 198.91 187.59 194.61 189.00 184.00
C 188.98 183.50 189.01 182.50 189.00 182.00
C 184.96 176.95 179.32 172.16 177.00 166.00
C 181.47 162.97 184.57 157.98 189.00 155.00
C 196.57 152.16 201.86 168.93 211.00 166.00 C 220.14 163.07 225.10 156.76 235.67 155.67 C 246.24 154.59 245.77 138.86 246.00 130.00
C 252.67 130.00 259.33 130.00 266.00 130.00
C 265.52 140.34 267.30 156.08 279.01 155.99 C 290.72 155.90 295.92 169.94 306.74 164.74 C 317.57 159.55 318.13 150.13 328.75 160.25 C 339.37 170.36 328.26 171.73 324.08 182.08 C 319.90 192.43 334.14 197.38 334.31 208.69 C 334.47 220.01 348.56 224.42 359.00 223.00
C 357.48 228.06 361.94 240.08 356.92 242.92 C 351.89 245.75 342.23 241.30 339.08 247.08 C 335.94 252.87 336.60 259.06 334.00 265.00 Z"/>
</g>
<g fill="#FBC14C" fill-opacity="1.00" stroke="None">
<path d="
M 40.00 130.00 
C 38.40 141.08 57.56 154.51 68.00 150.00
C 81.83 131.58 53.44 110.81 40.00 130.00 Z"/>
</g>
<g fill="#FCC14C" fill-opacity="1.00" stroke="None">
<path d="
M 444.00 130.00 
C 442.45 141.62 460.16 154.20 471.00 150.00
C 485.70 132.10 456.71 111.09 444.00 130.00 Z"/>
</g>
<g fill="#F9A804" fill-opacity="1.00" stroke="None">
<path d="
M 68.00 150.00 
C 57.56 154.51 38.40 141.08 40.00 130.00
C 27.61 147.70 54.75 167.65 68.00 150.00 Z"/>
</g>
<g fill="#798994" fill-opacity="1.00" stroke="None">
<path d="
M 189.00 155.00 
C 185.92 158.12 188.99 163.87 188.00 168.00 C 187.01 172.13 188.89 177.89 189.00 182.00
C 189.01 182.50 188.98 183.50 189.00 184.00
C 192.72 196.96 196.42 213.30 206.00 223.00
C 213.17 190.08 253.39 174.10 282.08 190.92 C 310.77 207.75 316.73 249.27 293.00 273.00
C 299.23 271.34 308.92 273.46 314.67 270.67 C 320.42 267.89 329.47 269.90 334.00 265.00
C 336.60 259.06 335.94 252.87 339.08 247.08 C 342.23 241.30 351.89 245.75 356.92 242.92 C 361.94 240.08 357.48 228.06 359.00 223.00
C 348.56 224.42 334.47 220.01 334.31 208.69 C 334.14 197.38 319.90 192.43 324.08 182.08 C 328.26 171.73 339.37 170.36 328.75 160.25 C 318.13 150.13 317.57 159.55 306.74 164.74 C 295.92 169.94 290.72 155.90 279.01 155.99 C 267.30 156.08 265.52 140.34 266.00 130.00
C 259.33 130.00 252.67 130.00 246.00 130.00
C 245.77 138.86 246.24 154.59 235.67 155.67 C 225.10 156.76 220.14 163.07 211.00 166.00 C 201.86 168.93 196.57 152.16 189.00 155.00 Z"/>
</g>
<g fill="#F8A704" fill-opacity="1.00" stroke="None">
<path d="
M 471.00 150.00 
C 460.16 154.20 442.45 141.62 444.00 130.00
C 431.98 147.89 456.68 167.43 471.00 150.00 Z"/>
</g>
<g fill="#4C6272" fill-opacity="1.00" stroke="None">
<path d="
M 189.00 182.00 
C 188.89 177.89 187.01 172.13 188.00 168.00 C 188.99 163.87 185.92 158.12 189.00 155.00
C 184.57 157.98 181.47 162.97 177.00 166.00
C 179.32 172.16 184.96 176.95 189.00 182.00 Z"/>
</g>
<g fill="#4D6474" fill-opacity="1.00" stroke="None">
<path d="
M 334.00 265.00 
C 329.47 269.90 320.42 267.89 314.67 270.67 C 308.92 273.46 299.23 271.34 293.00 273.00
C 276.48 289.52 250.37 292.54 229.92 281.08 C 209.48 269.61 201.18 245.12 206.00 223.00
C 196.42 213.30 192.72 196.96 189.00 184.00
C 187.59 194.61 178.41 198.91 177.32 210.32 C 176.24 221.73 163.28 223.11 153.00 223.00
C 152.13 232.38 150.95 245.47 162.78 243.22 C 174.61 240.97 174.56 251.87 176.68 259.32 C 178.79 266.77 182.01 273.17 186.07 279.93 C 190.14 286.68 178.61 293.07 177.00 299.00
C 182.10 302.64 185.85 308.31 191.00 312.00
C 199.96 298.65 210.82 305.12 221.77 311.23 C 232.72 317.34 251.14 316.05 246.00 335.00
C 252.67 335.00 259.33 335.00 266.00 335.00
C 260.14 318.06 278.83 317.06 287.77 312.77 C 296.71 308.48 310.05 298.73 316.75 308.25 C 323.45 317.77 341.25 300.15 331.30 293.70 C 321.36 287.24 330.56 273.55 334.00 265.00 Z"/>
</g>
<g fill="#000000" fill-opacity="1.00" stroke="None">
<path d="
M 206.00 223.00 
C 201.18 245.12 209.48 269.61 229.92 281.08 C 250.37 292.54 276.48 289.52 293.00 273.00
C 316.73 249.27 310.77 207.75 282.08 190.92 C 253.39 174.10 213.17 190.08 206.00 223.00
M 260.00 195.00 
C 289.85 198.61 307.13 234.40 289.23 259.23 C 271.33 284.06 234.88 281.45 220.08 254.92 C 205.28 228.39 228.19 191.15 260.00 195.00 Z"/>
</g>
<g fill="#7BB4E7" fill-opacity="1.00" stroke="None">
<path d="
M 115.00 192.00 
C 115.00 203.67 115.00 215.33 115.00 227.00
C 118.22 229.26 126.32 224.47 128.69 229.31 C 131.07 234.14 129.39 236.38 125.00 238.00
C 120.47 239.67 111.44 239.94 107.00 238.00
C 99.99 234.35 103.71 224.48 103.00 217.00 C 102.29 209.52 103.53 199.69 103.00 192.00
C 72.82 187.07 65.74 211.59 68.00 237.00 C 70.26 262.41 66.82 290.99 68.00 317.00 C 69.18 343.01 67.12 370.83 68.00 397.00
C 193.33 397.00 318.67 397.00 444.00 397.00
C 444.00 376.33 444.00 355.67 444.00 335.00
C 435.71 335.23 427.28 334.69 419.00 335.00 C 410.72 335.31 401.12 334.42 393.00 335.00 C 384.88 335.58 376.42 334.03 369.00 334.00 C 361.58 333.97 354.81 329.46 348.32 328.68 C 341.83 327.90 336.69 319.57 331.00 320.00
C 322.81 335.25 314.74 315.92 306.23 316.23 C 297.72 316.54 287.64 329.45 278.00 328.00
C 277.06 335.14 278.76 347.51 269.00 347.00 C 259.24 346.49 251.62 347.17 242.00 347.00 C 232.39 346.83 235.14 334.73 234.00 328.00
C 224.63 326.88 215.88 321.12 207.70 317.31 C 199.51 313.49 193.16 331.57 184.75 323.25 C 176.35 314.93 175.48 312.63 166.25 304.75 C 157.02 296.87 174.30 289.22 172.92 281.08 C 171.54 272.95 162.79 264.07 163.00 255.00
C 156.11 253.78 145.07 256.55 142.00 249.00
C 139.21 242.13 139.47 223.85 142.00 217.00
C 145.53 207.77 158.78 213.29 166.00 209.00
C 165.74 200.42 173.57 193.87 175.00 186.00
C 173.53 186.91 162.62 186.74 161.00 186.00
C 161.71 197.41 138.05 189.77 132.00 192.00 C 125.95 194.23 119.78 188.65 115.00 192.00 Z"/>
</g>
<g fill="#A2CAEE" fill-opacity="1.00" stroke="None">
<path d="
M 331.00 320.00 
C 336.69 319.57 341.83 327.90 348.32 328.68 C 354.81 329.46 361.58 333.97 369.00 334.00 C 376.42 334.03 384.88 335.58 393.00 335.00 C 401.12 334.42 410.72 335.31 419.00 335.00 C 427.28 334.69 435.71 335.23 444.00 335.00
C 444.00 304.33 444.00 273.67 444.00 243.00
C 429.57 240.21 426.55 223.75 428.00 211.00
C 422.00 211.00 416.00 211.00 410.00 211.00
C 410.59 217.57 411.33 228.41 409.00 234.00
C 407.95 236.53 407.29 237.00 405.00 238.00
C 400.50 239.96 391.46 239.65 387.00 238.00
C 382.43 236.31 380.76 233.12 383.75 228.75 C 386.75 224.39 393.61 229.38 397.00 227.00
C 397.00 221.67 397.00 216.33 397.00 211.00
C 385.06 211.96 372.92 203.67 370.00 192.00
C 364.62 192.00 350.46 194.70 351.00 186.00
C 349.21 186.82 337.67 186.97 336.00 186.00
C 341.79 191.43 342.33 202.89 346.26 208.74 C 350.19 214.60 370.70 207.55 370.00 218.00 C 369.30 228.45 372.20 241.24 369.30 250.30 C 366.40 259.37 347.11 249.92 346.98 260.98 C 346.84 272.03 339.81 274.19 338.00 284.00
C 342.21 288.36 352.78 297.75 346.75 303.75 C 340.72 309.75 336.79 314.21 331.00 320.00 Z"/>
</g>
<g fill="#466784" fill-opacity="1.00" stroke="None">
<path d="
M 115.00 227.00 
C 115.00 215.33 115.00 203.67 115.00 192.00
C 112.19 193.97 114.13 206.55 114.00 210.00 C 113.87 213.45 112.34 225.14 115.00 227.00 Z"/>
</g>
<g fill="#D0E4F6" fill-opacity="1.00" stroke="None">
<path d="
M 397.00 211.00 
C 397.00 204.67 397.00 198.33 397.00 192.00
C 394.11 189.98 386.59 192.84 383.00 192.00 C 379.41 191.16 373.78 192.00 370.00 192.00
C 372.92 203.67 385.06 211.96 397.00 211.00 Z"/>
</g>
<g fill="#6B7B8A" fill-opacity="1.00" stroke="None">
<path d="
M 397.00 211.00 
C 397.00 216.33 397.00 221.67 397.00 227.00
C 399.81 225.03 397.87 212.45 398.00 209.00 C 398.13 205.55 399.66 193.86 397.00 192.00
C 397.00 198.33 397.00 204.67 397.00 211.00 Z"/>
</g>
<g fill="#CDE2F4" fill-opacity="1.00" stroke="None">
<path d="
M 409.00 211.00 
C 409.00 210.96 410.00 211.00 410.00 211.00
C 416.00 211.00 422.00 211.00 428.00 211.00
C 426.55 223.75 429.57 240.21 444.00 243.00
C 448.89 218.44 440.53 185.11 409.00 192.00
C 409.00 198.33 409.00 204.67 409.00 211.00 Z"/>
</g>
<g fill="#000000" fill-opacity="0.02" stroke="None">
<path d="
M 260.00 195.00 
C 228.19 191.15 205.28 228.39 220.08 254.92 C 234.88 281.45 271.33 284.06 289.23 259.23 C 307.13 234.40 289.85 198.61 260.00 195.00 Z"/>
</g>
<g fill="#80A0BC" fill-opacity="1.00" stroke="None">
<path d="
M 409.00 234.00 
C 411.33 228.41 410.59 217.57 410.00 211.00
C 410.00 211.00 409.00 210.96 409.00 211.00
C 409.00 217.90 410.72 227.35 409.00 234.00 Z"/>
</g>
<g fill="#3E5A74" fill-opacity="1.00" stroke="None">
<path d="
M 142.00 249.00 
C 140.82 244.30 142.05 237.88 142.00 233.00 C 141.95 228.12 140.95 221.75 142.00 217.00
C 139.47 223.85 139.21 242.13 142.00 249.00 Z"/>
</g>
<g fill="#3B556E" fill-opacity="1.00" stroke="None">
<path d="
M 125.00 238.00 
C 120.78 238.94 111.16 239.14 107.00 238.00
C 111.44 239.94 120.47 239.67 125.00 238.00 Z"/>
</g>
<g fill="#4D6072" fill-opacity="1.00" stroke="None">
<path d="
M 405.00 238.00 
C 400.84 239.14 391.22 238.94 387.00 238.00
C 391.46 239.65 400.50 239.96 405.00 238.00 Z"/>
</g>
<g fill="#E2E2E2" fill-opacity="1.00" stroke="None">
<path d="
M 444.00 409.00 
C 318.67 409.00 193.33 409.00 68.00 409.00
C 63.14 436.19 84.20 446.14 108.00 444.00 C 131.80 441.86 157.75 444.80 182.00 444.00 C 206.25 443.20 231.59 444.01 256.00 444.00 C 280.41 443.99 306.71 443.25 331.00 444.00 C 355.29 444.75 381.22 441.94 405.00 444.00 C 428.78 446.06 448.58 435.57 444.00 409.00 Z"/>
</g>
<g fill="#4E6575" fill-opacity="1.00" stroke="None">
<path d="
M 320.00 479.00 
C 293.33 476.68 251.96 489.22 242.00 456.00
C 225.33 456.00 208.67 456.00 192.00 456.00
C 192.00 467.33 192.00 478.67 192.00 490.00
C 234.67 490.00 277.33 490.00 320.00 490.00
C 320.00 486.33 320.00 482.67 320.00 479.00 Z"/>
</g>
<g fill="#798994" fill-opacity="1.00" stroke="None">
<path d="
M 320.00 479.00 
C 320.00 471.33 320.00 463.67 320.00 456.00
C 294.00 456.00 268.00 456.00 242.00 456.00
C 251.96 489.22 293.33 476.68 320.00 479.00 Z"/>
</g>
</svg>