<?xml version="1.0" encoding="UTF-8"?>
<svg version="1.1" xmlns="http://www.w3.org/2000/svg" width="512" height="512">
<path d="M0 0 C0.81176193 -0.00979385 1.62352386 -0.01958771 2.45988464 -0.02967834 C20.41740686 -0.20165841 37.76226763 -0.04106353 55.3125 4.23828125 C56.64087891 4.55176514 56.64087891 4.55176514 57.99609375 4.87158203 C84.39894446 11.26632182 109.05776865 23.35969936 130.3125 40.23828125 C130.87275879 40.68284668 131.43301758 41.12741211 132.01025391 41.58544922 C145.40895929 52.33662384 157.20990024 64.3353066 167.3125 78.23828125 C167.94019287 79.09945557 167.94019287 79.09945557 168.58056641 79.97802734 C197.86189771 120.70683972 210.31313631 172.65930809 202.3125 222.23828125 C196.52771023 255.02838832 184.33676809 285.11849858 163.71484375 311.43945312 C160.65220282 315.36799393 157.64451592 319.3390708 154.625 323.30078125 C153.93317627 324.20675049 153.24135254 325.11271973 152.52856445 326.04614258 C147.48001158 332.66910774 142.52354481 339.3543316 137.6027832 346.07250977 C132.58088452 352.91242518 127.43755879 359.65562187 122.2800293 366.39355469 C117.83288819 372.21405388 113.45479229 378.08005755 109.125 383.98828125 C103.20596276 392.06150896 97.15995659 400.02851382 91.05908203 407.96484375 C82.12966905 419.58780904 73.26307485 431.24931322 64.60180664 443.07373047 C59.58036814 449.91333721 54.43724109 456.65603692 49.2800293 463.39355469 C44.83288987 469.21405168 40.45468348 475.07997892 36.125 480.98828125 C28.38420904 491.54992503 20.53685736 502.04637428 12.3125 512.23828125 C9.08832501 510.86631951 7.4451783 509.46908391 5.421875 506.625 C4.88570557 505.88258057 4.34953613 505.14016113 3.79711914 504.37524414 C3.22469482 503.56692139 2.65227051 502.75859863 2.0625 501.92578125 C0.80762941 500.18761703 -0.44894421 498.45068132 -1.70703125 496.71484375 C-2.36010254 495.8115332 -3.01317383 494.90822266 -3.68603516 493.97753906 C-6.93247474 489.53437583 -10.27755299 485.16806417 -13.625 480.80078125 C-19.47479631 473.15337662 -25.27455458 465.471008 -31.04052734 457.76025391 C-35.57443883 451.70433699 -40.1546121 445.68513466 -44.75 439.67578125 C-50.3808271 432.3090537 -55.91970181 424.88224771 -61.39868164 417.40209961 C-66.42064352 410.56197589 -71.56368656 403.81827996 -76.72216797 397.08081055 C-81.15173345 391.28447196 -85.50565557 385.43874199 -89.8125 379.55078125 C-94.3386537 373.36572054 -98.95800653 367.26924078 -103.6875 361.23828125 C-109.0206792 354.43751323 -114.19251549 347.53608747 -119.29248047 340.55908203 C-123.05383193 335.42425628 -126.87933686 330.34483952 -130.75488281 325.2956543 C-133.46172544 321.766931 -136.15130485 318.22532784 -138.8359375 314.6796875 C-139.99794867 313.14749977 -141.16401009 311.61836646 -142.3359375 310.09375 C-163.41793723 282.53732904 -177.07249219 248.79103035 -180.6875 214.23828125 C-180.79835937 213.19929687 -180.90921875 212.1603125 -181.0234375 211.08984375 C-185.67444249 160.18019449 -170.47168625 109.39091363 -138.02929688 69.82519531 C-133.7707986 64.78876176 -129.24092196 60.00667163 -124.6875 55.23828125 C-124.08550781 54.5834375 -123.48351562 53.92859375 -122.86328125 53.25390625 C-104.74301557 34.08385188 -79.94221323 20.7391579 -55.6875 11.23828125 C-55.02572754 10.9767627 -54.36395508 10.71524414 -53.68212891 10.44580078 C-36.9320364 3.96610057 -17.95798621 0.17965746 0 0 Z " fill="#F61E45" transform="translate(186.6875,-0.23828125)"/>
<path d="M0 0 C1.35489219 0.34601553 2.71039705 0.68963817 4.06640625 1.03125 C35.91669311 9.37887308 63.90664309 30.45426038 80.59643555 58.90332031 C90.49384654 76.3562787 98.07674299 95.51950221 98.203125 115.8125 C98.20882507 116.54388184 98.21452515 117.27526367 98.22039795 118.02880859 C98.2297932 119.57176291 98.23635998 121.11473679 98.24023438 122.65771484 C98.24985907 124.96619849 98.28090012 127.27375885 98.3125 129.58203125 C98.40814859 142.75707299 96.60351968 155.06520851 91.8125 167.4375 C91.50916748 168.23260986 91.20583496 169.02771973 90.89331055 169.84692383 C85.17548745 184.50295314 77.91918797 196.78096491 68 209 C67.28714844 209.886875 66.57429687 210.77375 65.83984375 211.6875 C60.86193427 217.5751301 55.09353286 222.30621953 49 227 C48.13503906 227.680625 47.27007812 228.36125 46.37890625 229.0625 C21.17621779 248.23601633 -12.39801707 257.29952102 -43.83984375 253.46484375 C-78.939728 248.57564133 -110.92884219 232.19596697 -132.7109375 203.56640625 C-134.91506206 200.43323943 -136.98474668 197.25730741 -139 194 C-139.61101562 193.0615625 -140.22203125 192.123125 -140.8515625 191.15625 C-153.12673146 171.47271915 -158.42476349 148.32651564 -158.3125 125.3125 C-158.30686035 124.08934082 -158.3012207 122.86618164 -158.29541016 121.60595703 C-157.82813502 86.51405699 -143.33484203 56.89994721 -119 32 C-88.6994249 2.50609578 -41.19173545 -11.92012881 0 0 Z " fill="#E7E5E5" transform="translate(228,67)"/>
<path d="M0 0 C0 20.79 0 41.58 0 63 C2.31 63 4.62 63 7 63 C7 63.33 7 63.66 7 64 C5.6903125 64.01417969 4.380625 64.02835937 3.03125 64.04296875 C-33.32972465 64.82514271 -65.37067664 77.06385346 -91.75 102.375 C-117.31126231 129.11965408 -127.79815985 162.55822433 -127.2421875 199.0703125 C-126.38969658 230.10604613 -113.40766539 258.64250645 -92 281 C-91.26523438 281.80953125 -90.53046875 282.6190625 -89.7734375 283.453125 C-65.6313917 309.12928073 -33.86805956 316.76649256 0 321 C0 384.03 0 447.06 0 512 C-3.18589529 508.81410471 -5.83796782 506.09486437 -8.49609375 502.5859375 C-9.1298291 501.75231689 -9.76356445 500.91869629 -10.41650391 500.05981445 C-11.41689697 498.7308313 -11.41689697 498.7308313 -12.4375 497.375 C-13.14052246 496.4471167 -13.84354492 495.5192334 -14.56787109 494.56323242 C-19.72454187 487.74006951 -24.79813342 480.85791448 -29.84936523 473.95654297 C-33.80932724 468.56461286 -37.87191575 463.26405401 -42 458 C-47.3344624 451.19759567 -52.50593814 444.29340214 -57.609375 437.31640625 C-62.00231167 431.32248822 -66.48240806 425.40040656 -71 419.5 C-76.06663248 412.88061152 -81.07410796 406.22479128 -86 399.5 C-93.52896915 389.22776853 -101.25830348 379.11235957 -109 369 C-117.32668351 358.12351867 -125.61527577 347.22841422 -133.70263672 336.17236328 C-137.45876547 331.05075745 -141.29031999 325.99384637 -145.16503906 320.96142578 C-180.44227665 275.08449362 -198.48726361 223.82353602 -191.35058594 165.62890625 C-185.64261201 122.8270516 -165.52096339 85.91465694 -136 55 C-135.39800781 54.34515625 -134.79601562 53.6903125 -134.17578125 53.015625 C-116.05551557 33.84557063 -91.25471323 20.50087665 -67 11 C-66.33822754 10.73848145 -65.67645508 10.47696289 -64.99462891 10.20751953 C-44.1407145 2.14027372 -22.17055083 0 0 0 Z " fill="#FA4350" transform="translate(198,0)"/>
<path d="M0 0 C0 84.48 0 168.96 0 256 C-36.05604909 256 -66.60252734 243.40239345 -92.25 218.1875 C-98.77298867 211.62218924 -104.14395958 204.90494729 -109 197 C-109.60972656 196.06285156 -110.21945313 195.12570312 -110.84765625 194.16015625 C-123.12980143 174.48173024 -128.42475216 151.32419292 -128.3125 128.3125 C-128.30686035 127.08934082 -128.3012207 125.86618164 -128.29541016 124.60595703 C-127.82813502 89.51405699 -113.33484203 59.89994721 -89 35 C-71.89835128 18.35363644 -50.20016712 7.20094168 -27 2.125 C-26.03964844 1.9094043 -25.07929688 1.69380859 -24.08984375 1.47167969 C-15.68447962 -0.23371552 -8.98313524 0 0 0 Z " fill="#FEFEFE" transform="translate(198,64)"/>
<path d="M0 0 C64.24183417 0 64.24183417 0 80.77734375 15.64453125 C90.172456 25.6010386 94.86078408 37.87744272 95.25 51.5 C94.76283892 65.9866322 89.42153414 78.43917657 79.3203125 88.8828125 C64.73846755 102.1881323 50.52868536 103 31 103 C31 121.48 31 139.96 31 159 C20.77 159 10.54 159 0 159 C0 106.53 0 54.06 0 0 Z M31 31 C31 44.53 31 58.06 31 72 C45.43599606 72.60425807 45.43599606 72.60425807 57.61328125 66.6796875 C61.43422394 62.55442194 63.79943341 57.36833894 64.1328125 51.76953125 C63.71614844 44.64947777 60.59797184 39.53135718 55.5625 34.625 C47.34442293 29.41353649 41.36102579 31 31 31 Z " fill="#282726" transform="translate(412,353)"/>
<path d="M0 0 C18.65547537 0 33.90024068 5.64567988 47.20703125 18.92578125 C60.02087984 32.55013109 65.60453038 49.92762104 65.2734375 68.4453125 C64.45332915 87.68131916 54.30887629 102.31939461 40.8203125 115.05859375 C29.05845879 125.02288114 15.1651168 129 0 129 C0 86.43 0 43.86 0 0 Z " fill="#D0CDCD" transform="translate(198,128)"/>
<path d="M0 0 C0 42.57 0 85.14 0 129 C-11.66882935 129 -11.66882935 129 -17.9375 126.875 C-18.96762207 126.5339624 -18.96762207 126.5339624 -20.01855469 126.18603516 C-37.03059691 120.33889196 -50.52799369 108.64063733 -58.75 92.58203125 C-66.34942585 75.83041225 -67.32324124 58.3752039 -61 41 C-53.88626777 23.78719648 -41.76543731 11.64040797 -24.75 4.0625 C-24.08863037 3.76770752 -23.42726074 3.47291504 -22.74584961 3.16918945 C-15.05696362 -0.07183539 -8.48961855 0 0 0 Z " fill="#E7E6E6" transform="translate(198,128)"/>
<path d="M0 0 C10.23 0 20.46 0 31 0 C31 52.8 31 105.6 31 160 C20.77 160 10.54 160 0 160 C0 107.2 0 54.4 0 0 Z " fill="#464343" transform="translate(364,352)"/>
</svg>
