<svg xmlns="http://www.w3.org/2000/svg" xmlns:v="https://svgstorm.com"
viewBox = "0 0 190 191"
width="190"
height="191">
<g fill="None" fill-opacity="0.0" stroke="#000000" stroke-opacity="0.00" stroke-width="0.3"><path d="
M 0.00 191.00 
L 190.00 191.00
L 190.00 0.00
L 0.00 0.00
L 0.00 191.00
M 122.00 9.00 
C 85.50 46.33 48.29 83.55 11.00 120.00
C 34.53 95.18 6.73 51.28 28.75 26.75 C 50.77 2.23 97.22 29.75 122.00 9.00
M 138.00 21.00 
C 130.51 31.85 120.56 39.11 111.25 49.25 C 101.94 59.39 93.52 65.95 83.75 76.75 C 73.99 87.56 85.07 110.42 101.00 108.00
C 98.30 112.14 93.65 114.91 91.00 119.00
C 74.55 116.25 63.01 95.29 67.99 79.99 C 72.97 64.69 85.58 56.30 96.75 44.75 C 107.92 33.20 119.65 15.84 138.00 21.00
M 166.00 49.00 
C 170.54 62.96 160.52 73.16 151.25 81.25 C 141.97 89.34 136.31 97.50 127.00 105.00
C 127.55 99.02 128.87 92.90 127.00 87.00
C 140.50 75.00 152.55 60.96 166.00 49.00
M 102.00 64.00 
C 118.15 68.65 128.63 90.11 122.22 105.22 C 115.82 120.33 103.75 128.58 92.25 140.25 C 80.75 151.91 69.47 169.60 51.00 165.00
C 58.72 154.07 68.69 146.45 78.25 136.25 C 87.80 126.05 96.74 118.44 106.75 107.75 C 116.76 97.07 107.77 72.01 90.00 76.00
C 93.52 71.68 97.70 67.44 102.00 64.00
M 179.00 64.00 
C 168.25 83.61 167.52 105.44 170.00 129.00 C 172.48 152.56 155.59 168.81 132.00 166.00 C 108.41 163.19 86.49 164.86 67.00 176.00
C 103.83 138.33 141.38 100.79 179.00 64.00
M 65.00 78.00 
C 62.79 86.68 65.22 97.57 57.25 103.25 C 49.28 108.93 46.85 115.12 39.75 120.75 C 32.66 126.38 28.74 134.06 21.00 138.00
C 15.99 122.83 28.44 112.06 38.25 103.25 C 48.06 94.43 54.55 84.98 65.00 78.00 Z"/>
</g>
<g fill="None" fill-opacity="0.0" stroke="#FE8114" stroke-opacity="1.00" stroke-width="0.3"><path d="
M 122.00 9.00 
C 97.22 29.75 50.77 2.23 28.75 26.75 C 6.73 51.28 34.53 95.18 11.00 120.00
C 48.29 83.55 85.50 46.33 122.00 9.00 Z"/>
</g>
<g fill="None" fill-opacity="0.0" stroke="#FE8113" stroke-opacity="1.00" stroke-width="0.3"><path d="
M 138.00 21.00 
C 119.65 15.84 107.92 33.20 96.75 44.75 C 85.58 56.30 72.97 64.69 67.99 79.99 C 63.01 95.29 74.55 116.25 91.00 119.00
C 93.65 114.91 98.30 112.14 101.00 108.00
C 85.07 110.42 73.99 87.56 83.75 76.75 C 93.52 65.95 101.94 59.39 111.25 49.25 C 120.56 39.11 130.51 31.85 138.00 21.00 Z"/>
</g>
<g fill="None" fill-opacity="0.0" stroke="#FF8114" stroke-opacity="1.00" stroke-width="0.3"><path d="
M 166.00 49.00 
C 152.55 60.96 140.50 75.00 127.00 87.00
C 128.87 92.90 127.55 99.02 127.00 105.00
C 136.31 97.50 141.97 89.34 151.25 81.25 C 160.52 73.16 170.54 62.96 166.00 49.00 Z"/>
</g>
<g fill="None" fill-opacity="0.0" stroke="#4A4A4A" stroke-opacity="1.00" stroke-width="0.3"><path d="
M 102.00 64.00 
C 97.70 67.44 93.52 71.68 90.00 76.00
C 107.77 72.01 116.76 97.07 106.75 107.75 C 96.74 118.44 87.80 126.05 78.25 136.25 C 68.69 146.45 58.72 154.07 51.00 165.00
C 69.47 169.60 80.75 151.91 92.25 140.25 C 103.75 128.58 115.82 120.33 122.22 105.22 C 128.63 90.11 118.15 68.65 102.00 64.00 Z"/>
</g>
<g fill="None" fill-opacity="0.0" stroke="#4A4A4A" stroke-opacity="1.00" stroke-width="0.3"><path d="
M 179.00 64.00 
C 141.38 100.79 103.83 138.33 67.00 176.00
C 86.49 164.86 108.41 163.19 132.00 166.00 C 155.59 168.81 172.48 152.56 170.00 129.00 C 167.52 105.44 168.25 83.61 179.00 64.00 Z"/>
</g>
<g fill="None" fill-opacity="0.0" stroke="#4A4A4A" stroke-opacity="1.00" stroke-width="0.3"><path d="
M 65.00 78.00 
C 54.55 84.98 48.06 94.43 38.25 103.25 C 28.44 112.06 15.99 122.83 21.00 138.00
C 28.74 134.06 32.66 126.38 39.75 120.75 C 46.85 115.12 49.28 108.93 57.25 103.25 C 65.22 97.57 62.79 86.68 65.00 78.00 Z"/>
</g>
<g fill="#000000" fill-opacity="0.00" stroke="None">
<path d="
M 0.00 191.00 
L 190.00 191.00
L 190.00 0.00
L 0.00 0.00
L 0.00 191.00
M 122.00 9.00 
C 85.50 46.33 48.29 83.55 11.00 120.00
C 34.53 95.18 6.73 51.28 28.75 26.75 C 50.77 2.23 97.22 29.75 122.00 9.00
M 138.00 21.00 
C 130.51 31.85 120.56 39.11 111.25 49.25 C 101.94 59.39 93.52 65.95 83.75 76.75 C 73.99 87.56 85.07 110.42 101.00 108.00
C 98.30 112.14 93.65 114.91 91.00 119.00
C 74.55 116.25 63.01 95.29 67.99 79.99 C 72.97 64.69 85.58 56.30 96.75 44.75 C 107.92 33.20 119.65 15.84 138.00 21.00
M 166.00 49.00 
C 170.54 62.96 160.52 73.16 151.25 81.25 C 141.97 89.34 136.31 97.50 127.00 105.00
C 127.55 99.02 128.87 92.90 127.00 87.00
C 140.50 75.00 152.55 60.96 166.00 49.00
M 102.00 64.00 
C 118.15 68.65 128.63 90.11 122.22 105.22 C 115.82 120.33 103.75 128.58 92.25 140.25 C 80.75 151.91 69.47 169.60 51.00 165.00
C 58.72 154.07 68.69 146.45 78.25 136.25 C 87.80 126.05 96.74 118.44 106.75 107.75 C 116.76 97.07 107.77 72.01 90.00 76.00
C 93.52 71.68 97.70 67.44 102.00 64.00
M 179.00 64.00 
C 168.25 83.61 167.52 105.44 170.00 129.00 C 172.48 152.56 155.59 168.81 132.00 166.00 C 108.41 163.19 86.49 164.86 67.00 176.00
C 103.83 138.33 141.38 100.79 179.00 64.00
M 65.00 78.00 
C 62.79 86.68 65.22 97.57 57.25 103.25 C 49.28 108.93 46.85 115.12 39.75 120.75 C 32.66 126.38 28.74 134.06 21.00 138.00
C 15.99 122.83 28.44 112.06 38.25 103.25 C 48.06 94.43 54.55 84.98 65.00 78.00 Z"/>
</g>
<g fill="#FE8114" fill-opacity="1.00" stroke="None">
<path d="
M 122.00 9.00 
C 97.22 29.75 50.77 2.23 28.75 26.75 C 6.73 51.28 34.53 95.18 11.00 120.00
C 48.29 83.55 85.50 46.33 122.00 9.00 Z"/>
</g>
<g fill="#FE8113" fill-opacity="1.00" stroke="None">
<path d="
M 138.00 21.00 
C 119.65 15.84 107.92 33.20 96.75 44.75 C 85.58 56.30 72.97 64.69 67.99 79.99 C 63.01 95.29 74.55 116.25 91.00 119.00
C 93.65 114.91 98.30 112.14 101.00 108.00
C 85.07 110.42 73.99 87.56 83.75 76.75 C 93.52 65.95 101.94 59.39 111.25 49.25 C 120.56 39.11 130.51 31.85 138.00 21.00 Z"/>
</g>
<g fill="#FF8114" fill-opacity="1.00" stroke="None">
<path d="
M 166.00 49.00 
C 152.55 60.96 140.50 75.00 127.00 87.00
C 128.87 92.90 127.55 99.02 127.00 105.00
C 136.31 97.50 141.97 89.34 151.25 81.25 C 160.52 73.16 170.54 62.96 166.00 49.00 Z"/>
</g>
<g fill="#4A4A4A" fill-opacity="1.00" stroke="None">
<path d="
M 102.00 64.00 
C 97.70 67.44 93.52 71.68 90.00 76.00
C 107.77 72.01 116.76 97.07 106.75 107.75 C 96.74 118.44 87.80 126.05 78.25 136.25 C 68.69 146.45 58.72 154.07 51.00 165.00
C 69.47 169.60 80.75 151.91 92.25 140.25 C 103.75 128.58 115.82 120.33 122.22 105.22 C 128.63 90.11 118.15 68.65 102.00 64.00 Z"/>
</g>
<g fill="#4A4A4A" fill-opacity="1.00" stroke="None">
<path d="
M 179.00 64.00 
C 141.38 100.79 103.83 138.33 67.00 176.00
C 86.49 164.86 108.41 163.19 132.00 166.00 C 155.59 168.81 172.48 152.56 170.00 129.00 C 167.52 105.44 168.25 83.61 179.00 64.00 Z"/>
</g>
<g fill="#4A4A4A" fill-opacity="1.00" stroke="None">
<path d="
M 65.00 78.00 
C 54.55 84.98 48.06 94.43 38.25 103.25 C 28.44 112.06 15.99 122.83 21.00 138.00
C 28.74 134.06 32.66 126.38 39.75 120.75 C 46.85 115.12 49.28 108.93 57.25 103.25 C 65.22 97.57 62.79 86.68 65.00 78.00 Z"/>
</g>
</svg>