<svg xmlns="http://www.w3.org/2000/svg" xmlns:v="https://svgstorm.com"
viewBox = "0 0 512 512"
width="512"
height="512">
<g fill="None" fill-opacity="0.0" stroke="#000000" stroke-opacity="0.00" stroke-width="0.3"><path d="
M 0.00 512.00 
L 99.00 512.00
C 92.62 503.25 97.56 490.46 96.00 480.00
C 86.50 480.00 64.26 485.05 64.00 472.00 C 63.74 458.95 64.00 445.12 64.00 432.00 C 64.00 418.88 63.74 405.05 64.00 392.00 C 64.26 378.95 86.50 384.00 96.00 384.00
C 96.00 373.33 96.00 362.67 96.00 352.00
C 86.50 352.00 64.26 357.05 64.00 344.00 C 63.74 330.95 64.00 317.12 64.00 304.00 C 64.00 290.88 63.74 277.05 64.00 264.00 C 64.26 250.95 86.50 256.00 96.00 256.00
C 96.00 245.33 96.00 234.67 96.00 224.00
C 86.50 224.00 64.26 229.05 64.00 216.00 C 63.74 202.95 64.00 189.12 64.00 176.00 C 64.00 162.88 63.74 149.05 64.00 136.00 C 64.26 122.95 86.50 128.00 96.00 128.00
C 96.00 117.33 96.00 106.67 96.00 96.00
C 84.46 96.00 62.51 100.66 64.00 85.00 C 65.49 69.34 62.70 55.81 64.00 41.00 C 65.30 26.19 60.69 12.68 67.00 0.00
L 0.00 0.00
L 0.00 512.00 Z"/>
</g>
<g fill="None" fill-opacity="0.0" stroke="#586C75" stroke-opacity="1.00" stroke-width="0.3"><path d="
M 96.00 96.00 
C 192.33 96.00 288.67 96.00 385.00 96.00
C 395.33 96.00 405.67 96.00 416.00 96.00
C 416.00 81.67 416.00 67.33 416.00 53.00
C 411.67 70.48 383.99 65.54 384.00 48.00 C 384.01 30.46 411.68 25.56 416.00 43.00
C 416.00 28.67 416.00 14.33 416.00 0.00
L 67.00 0.00
C 60.69 12.68 65.30 26.19 64.00 41.00 C 62.70 55.81 65.49 69.34 64.00 85.00 C 62.51 100.66 84.46 96.00 96.00 96.00
M 114.00 24.00 
C 123.89 26.16 118.78 43.30 120.00 50.00 C 121.22 56.70 120.96 74.16 110.33 71.67 C 99.69 69.17 105.28 53.00 104.00 46.00 C 102.72 39.00 102.90 21.57 114.00 24.00
M 146.00 24.00 
C 155.89 26.16 150.78 43.30 152.00 50.00 C 153.22 56.70 152.96 74.16 142.33 71.67 C 131.69 69.17 137.28 53.00 136.00 46.00 C 134.72 39.00 134.90 21.57 146.00 24.00
M 178.00 24.00 
C 187.89 26.16 182.78 43.30 184.00 50.00 C 185.22 56.70 184.96 74.16 174.33 71.67 C 163.69 69.17 169.28 53.00 168.00 46.00 C 166.72 39.00 166.90 21.57 178.00 24.00
M 210.00 24.00 
C 219.89 26.16 214.78 43.30 216.00 50.00 C 217.22 56.70 216.96 74.16 206.33 71.67 C 195.69 69.17 201.28 53.00 200.00 46.00 C 198.72 39.00 198.90 21.57 210.00 24.00
M 242.00 24.00 
C 251.89 26.16 246.78 43.30 248.00 50.00 C 249.22 56.70 248.96 74.16 238.33 71.67 C 227.69 69.17 233.28 53.00 232.00 46.00 C 230.72 39.00 230.90 21.57 242.00 24.00
M 274.00 24.00 
C 283.89 26.16 278.78 43.30 280.00 50.00 C 281.22 56.70 280.96 74.16 270.33 71.67 C 259.69 69.17 265.28 53.00 264.00 46.00 C 262.72 39.00 262.90 21.57 274.00 24.00
M 348.00 32.00 
C 354.05 34.23 351.50 44.43 352.00 49.00 C 352.50 53.57 352.88 64.05 345.97 63.97 C 339.07 63.90 331.02 65.09 324.33 63.67 C 317.64 62.25 320.67 51.15 320.00 47.00 C 319.33 42.85 319.41 31.30 326.03 32.03 C 332.65 32.75 341.83 29.72 348.00 32.00 Z"/>
</g>
<g fill="None" fill-opacity="0.0" stroke="#475A61" stroke-opacity="1.00" stroke-width="0.3"><path d="
M 416.00 43.00 
C 416.00 46.33 416.00 49.67 416.00 53.00
C 416.00 67.33 416.00 81.67 416.00 96.00
C 427.54 95.47 449.49 100.90 448.00 85.00 C 446.51 69.10 449.30 55.93 448.00 41.00 C 446.70 26.07 451.31 12.77 445.00 0.00
L 416.00 0.00
C 416.00 14.33 416.00 28.67 416.00 43.00 Z"/>
</g>
<g fill="None" fill-opacity="0.0" stroke="#000000" stroke-opacity="0.00" stroke-width="0.3"><path d="
M 416.00 96.00 
C 416.00 106.67 416.00 117.33 416.00 128.00
C 425.50 130.14 447.74 121.89 448.00 136.00 C 448.26 150.12 448.00 162.08 448.00 176.00 C 448.00 189.92 448.26 201.89 448.00 216.00 C 447.74 230.11 425.50 221.86 416.00 224.00
C 416.00 234.67 416.00 245.33 416.00 256.00
C 425.50 258.14 447.74 249.89 448.00 264.00 C 448.26 278.12 448.00 290.08 448.00 304.00 C 448.00 317.92 448.26 329.89 448.00 344.00 C 447.74 358.11 425.50 349.86 416.00 352.00
C 416.00 362.67 416.00 373.33 416.00 384.00
C 425.50 386.14 447.74 377.89 448.00 392.00 C 448.26 406.12 448.00 418.08 448.00 432.00 C 448.00 445.92 448.26 457.89 448.00 472.00 C 447.74 486.11 425.50 477.86 416.00 480.00
C 414.18 490.32 420.13 504.58 412.00 512.00
L 512.00 512.00
L 512.00 0.00
L 445.00 0.00
C 451.31 12.77 446.70 26.07 448.00 41.00 C 449.30 55.93 446.51 69.10 448.00 85.00 C 449.49 100.90 427.54 95.47 416.00 96.00 Z"/>
</g>
<g fill="None" fill-opacity="0.0" stroke="#475A61" stroke-opacity="1.00" stroke-width="0.3"><path d="
M 114.00 24.00 
C 102.90 21.57 102.72 39.00 104.00 46.00 C 105.28 53.00 99.69 69.17 110.33 71.67 C 120.96 74.16 121.22 56.70 120.00 50.00 C 118.78 43.30 123.89 26.16 114.00 24.00 Z"/>
</g>
<g fill="None" fill-opacity="0.0" stroke="#475A61" stroke-opacity="1.00" stroke-width="0.3"><path d="
M 146.00 24.00 
C 134.90 21.57 134.72 39.00 136.00 46.00 C 137.28 53.00 131.69 69.17 142.33 71.67 C 152.96 74.16 153.22 56.70 152.00 50.00 C 150.78 43.30 155.89 26.16 146.00 24.00 Z"/>
</g>
<g fill="None" fill-opacity="0.0" stroke="#475A61" stroke-opacity="1.00" stroke-width="0.3"><path d="
M 178.00 24.00 
C 166.90 21.57 166.72 39.00 168.00 46.00 C 169.28 53.00 163.69 69.17 174.33 71.67 C 184.96 74.16 185.22 56.70 184.00 50.00 C 182.78 43.30 187.89 26.16 178.00 24.00 Z"/>
</g>
<g fill="None" fill-opacity="0.0" stroke="#475A61" stroke-opacity="1.00" stroke-width="0.3"><path d="
M 210.00 24.00 
C 198.90 21.57 198.72 39.00 200.00 46.00 C 201.28 53.00 195.69 69.17 206.33 71.67 C 216.96 74.16 217.22 56.70 216.00 50.00 C 214.78 43.30 219.89 26.16 210.00 24.00 Z"/>
</g>
<g fill="None" fill-opacity="0.0" stroke="#475A61" stroke-opacity="1.00" stroke-width="0.3"><path d="
M 242.00 24.00 
C 230.90 21.57 230.72 39.00 232.00 46.00 C 233.28 53.00 227.69 69.17 238.33 71.67 C 248.96 74.16 249.22 56.70 248.00 50.00 C 246.78 43.30 251.89 26.16 242.00 24.00 Z"/>
</g>
<g fill="None" fill-opacity="0.0" stroke="#475A61" stroke-opacity="1.00" stroke-width="0.3"><path d="
M 274.00 24.00 
C 262.90 21.57 262.72 39.00 264.00 46.00 C 265.28 53.00 259.69 69.17 270.33 71.67 C 280.96 74.16 281.22 56.70 280.00 50.00 C 278.78 43.30 283.89 26.16 274.00 24.00 Z"/>
</g>
<g fill="None" fill-opacity="0.0" stroke="#72F7A8" stroke-opacity="1.00" stroke-width="0.3"><path d="
M 348.00 32.00 
C 341.83 29.72 332.65 32.75 326.03 32.03 C 319.41 31.30 319.33 42.85 320.00 47.00 C 320.67 51.15 317.64 62.25 324.33 63.67 C 331.02 65.09 339.07 63.90 345.97 63.97 C 352.88 64.05 352.50 53.57 352.00 49.00 C 351.50 44.43 354.05 34.23 348.00 32.00 Z"/>
</g>
<g fill="None" fill-opacity="0.0" stroke="#FADA42" stroke-opacity="1.00" stroke-width="0.3"><path d="
M 416.00 53.00 
C 416.00 49.67 416.00 46.33 416.00 43.00
C 411.68 25.56 384.01 30.46 384.00 48.00 C 383.99 65.54 411.67 70.48 416.00 53.00 Z"/>
</g>
<g fill="None" fill-opacity="0.0" stroke="#304547" stroke-opacity="1.00" stroke-width="0.3"><path d="
M 96.00 128.00 
C 192.33 128.00 288.67 128.00 385.00 128.00
C 385.00 117.33 385.00 106.67 385.00 96.00
C 288.67 96.00 192.33 96.00 96.00 96.00
C 96.00 106.67 96.00 117.33 96.00 128.00 Z"/>
</g>
<g fill="None" fill-opacity="0.0" stroke="#203435" stroke-opacity="1.00" stroke-width="0.3"><path d="
M 385.00 128.00 
C 395.33 128.00 405.67 128.00 416.00 128.00
C 416.00 117.33 416.00 106.67 416.00 96.00
C 405.67 96.00 395.33 96.00 385.00 96.00
C 385.00 106.67 385.00 117.33 385.00 128.00 Z"/>
</g>
<g fill="None" fill-opacity="0.0" stroke="#586C75" stroke-opacity="1.00" stroke-width="0.3"><path d="
M 96.00 224.00 
C 192.33 224.00 288.67 224.00 385.00 224.00
C 395.33 224.00 405.67 224.00 416.00 224.00
C 416.00 209.67 416.00 195.33 416.00 181.00
C 411.67 198.48 383.99 193.54 384.00 176.00 C 384.01 158.46 411.68 153.56 416.00 171.00
C 416.00 156.67 416.00 142.33 416.00 128.00
C 405.67 128.00 395.33 128.00 385.00 128.00
C 288.67 128.00 192.33 128.00 96.00 128.00
C 86.50 128.00 64.26 122.95 64.00 136.00 C 63.74 149.05 64.00 162.88 64.00 176.00 C 64.00 189.12 63.74 202.95 64.00 216.00 C 64.26 229.05 86.50 224.00 96.00 224.00
M 114.00 152.00 
C 123.89 154.16 118.78 171.30 120.00 178.00 C 121.22 184.70 120.96 202.16 110.33 199.67 C 99.69 197.17 105.28 181.00 104.00 174.00 C 102.72 167.00 102.90 149.57 114.00 152.00
M 146.00 152.00 
C 155.89 154.16 150.78 171.30 152.00 178.00 C 153.22 184.70 152.96 202.16 142.33 199.67 C 131.69 197.17 137.28 181.00 136.00 174.00 C 134.72 167.00 134.90 149.57 146.00 152.00
M 178.00 152.00 
C 187.89 154.16 182.78 171.30 184.00 178.00 C 185.22 184.70 184.96 202.16 174.33 199.67 C 163.69 197.17 169.28 181.00 168.00 174.00 C 166.72 167.00 166.90 149.57 178.00 152.00
M 210.00 152.00 
C 219.89 154.16 214.78 171.30 216.00 178.00 C 217.22 184.70 216.96 202.16 206.33 199.67 C 195.69 197.17 201.28 181.00 200.00 174.00 C 198.72 167.00 198.90 149.57 210.00 152.00
M 242.00 152.00 
C 251.89 154.16 246.78 171.30 248.00 178.00 C 249.22 184.70 248.96 202.16 238.33 199.67 C 227.69 197.17 233.28 181.00 232.00 174.00 C 230.72 167.00 230.90 149.57 242.00 152.00
M 274.00 152.00 
C 283.89 154.16 278.78 171.30 280.00 178.00 C 281.22 184.70 280.96 202.16 270.33 199.67 C 259.69 197.17 265.28 181.00 264.00 174.00 C 262.72 167.00 262.90 149.57 274.00 152.00
M 348.00 160.00 
C 354.05 162.23 351.50 172.43 352.00 177.00 C 352.50 181.57 352.88 192.05 345.97 191.97 C 339.06 191.90 331.02 193.09 324.33 191.67 C 317.64 190.25 320.67 179.15 320.00 175.00 C 319.33 170.85 319.41 159.30 326.03 160.03 C 332.65 160.75 341.83 157.72 348.00 160.00 Z"/>
</g>
<g fill="None" fill-opacity="0.0" stroke="#475A61" stroke-opacity="1.00" stroke-width="0.3"><path d="
M 416.00 171.00 
C 416.00 174.33 416.00 177.67 416.00 181.00
C 416.00 195.33 416.00 209.67 416.00 224.00
C 425.50 221.86 447.74 230.11 448.00 216.00 C 448.26 201.89 448.00 189.92 448.00 176.00 C 448.00 162.08 448.26 150.12 448.00 136.00 C 447.74 121.89 425.50 130.14 416.00 128.00
C 416.00 142.33 416.00 156.67 416.00 171.00 Z"/>
</g>
<g fill="None" fill-opacity="0.0" stroke="#475A61" stroke-opacity="1.00" stroke-width="0.3"><path d="
M 114.00 152.00 
C 102.90 149.57 102.72 167.00 104.00 174.00 C 105.28 181.00 99.69 197.17 110.33 199.67 C 120.96 202.16 121.22 184.70 120.00 178.00 C 118.78 171.30 123.89 154.16 114.00 152.00 Z"/>
</g>
<g fill="None" fill-opacity="0.0" stroke="#475A61" stroke-opacity="1.00" stroke-width="0.3"><path d="
M 146.00 152.00 
C 134.90 149.57 134.72 167.00 136.00 174.00 C 137.28 181.00 131.69 197.17 142.33 199.67 C 152.96 202.16 153.22 184.70 152.00 178.00 C 150.78 171.30 155.89 154.16 146.00 152.00 Z"/>
</g>
<g fill="None" fill-opacity="0.0" stroke="#475A61" stroke-opacity="1.00" stroke-width="0.3"><path d="
M 178.00 152.00 
C 166.90 149.57 166.72 167.00 168.00 174.00 C 169.28 181.00 163.69 197.17 174.33 199.67 C 184.96 202.16 185.22 184.70 184.00 178.00 C 182.78 171.30 187.89 154.16 178.00 152.00 Z"/>
</g>
<g fill="None" fill-opacity="0.0" stroke="#475A61" stroke-opacity="1.00" stroke-width="0.3"><path d="
M 210.00 152.00 
C 198.90 149.57 198.72 167.00 200.00 174.00 C 201.28 181.00 195.69 197.17 206.33 199.67 C 216.96 202.16 217.22 184.70 216.00 178.00 C 214.78 171.30 219.89 154.16 210.00 152.00 Z"/>
</g>
<g fill="None" fill-opacity="0.0" stroke="#475A61" stroke-opacity="1.00" stroke-width="0.3"><path d="
M 242.00 152.00 
C 230.90 149.57 230.72 167.00 232.00 174.00 C 233.28 181.00 227.69 197.17 238.33 199.67 C 248.96 202.16 249.22 184.70 248.00 178.00 C 246.78 171.30 251.89 154.16 242.00 152.00 Z"/>
</g>
<g fill="None" fill-opacity="0.0" stroke="#475A61" stroke-opacity="1.00" stroke-width="0.3"><path d="
M 274.00 152.00 
C 262.90 149.57 262.72 167.00 264.00 174.00 C 265.28 181.00 259.69 197.17 270.33 199.67 C 280.96 202.16 281.22 184.70 280.00 178.00 C 278.78 171.30 283.89 154.16 274.00 152.00 Z"/>
</g>
<g fill="None" fill-opacity="0.0" stroke="#72F7A8" stroke-opacity="1.00" stroke-width="0.3"><path d="
M 348.00 160.00 
C 341.83 157.72 332.65 160.75 326.03 160.03 C 319.41 159.30 319.33 170.85 320.00 175.00 C 320.67 179.15 317.64 190.25 324.33 191.67 C 331.02 193.09 339.06 191.90 345.97 191.97 C 352.88 192.05 352.50 181.57 352.00 177.00 C 351.50 172.43 354.05 162.23 348.00 160.00 Z"/>
</g>
<g fill="None" fill-opacity="0.0" stroke="#FADA42" stroke-opacity="1.00" stroke-width="0.3"><path d="
M 416.00 181.00 
C 416.00 177.67 416.00 174.33 416.00 171.00
C 411.68 153.56 384.01 158.46 384.00 176.00 C 383.99 193.54 411.67 198.48 416.00 181.00 Z"/>
</g>
<g fill="None" fill-opacity="0.0" stroke="#304547" stroke-opacity="1.00" stroke-width="0.3"><path d="
M 96.00 256.00 
C 192.33 256.00 288.67 256.00 385.00 256.00
C 385.00 245.33 385.00 234.67 385.00 224.00
C 288.67 224.00 192.33 224.00 96.00 224.00
C 96.00 234.67 96.00 245.33 96.00 256.00 Z"/>
</g>
<g fill="None" fill-opacity="0.0" stroke="#203435" stroke-opacity="1.00" stroke-width="0.3"><path d="
M 385.00 256.00 
C 395.33 256.00 405.67 256.00 416.00 256.00
C 416.00 245.33 416.00 234.67 416.00 224.00
C 405.67 224.00 395.33 224.00 385.00 224.00
C 385.00 234.67 385.00 245.33 385.00 256.00 Z"/>
</g>
<g fill="None" fill-opacity="0.0" stroke="#586C75" stroke-opacity="1.00" stroke-width="0.3"><path d="
M 96.00 352.00 
C 192.33 352.00 288.67 352.00 385.00 352.00
C 395.33 352.00 405.67 352.00 416.00 352.00
C 416.00 337.67 416.00 323.33 416.00 309.00
C 411.67 326.48 383.99 321.54 384.00 304.00 C 384.01 286.46 411.68 281.56 416.00 299.00
C 416.00 284.67 416.00 270.33 416.00 256.00
C 405.67 256.00 395.33 256.00 385.00 256.00
C 288.67 256.00 192.33 256.00 96.00 256.00
C 86.50 256.00 64.26 250.95 64.00 264.00 C 63.74 277.05 64.00 290.88 64.00 304.00 C 64.00 317.12 63.74 330.95 64.00 344.00 C 64.26 357.05 86.50 352.00 96.00 352.00
M 114.00 280.00 
C 123.89 282.16 118.78 299.30 120.00 306.00 C 121.22 312.70 120.96 330.16 110.33 327.67 C 99.69 325.17 105.28 309.00 104.00 302.00 C 102.72 295.00 102.90 277.57 114.00 280.00
M 146.00 280.00 
C 155.89 282.16 150.78 299.30 152.00 306.00 C 153.22 312.70 152.96 330.16 142.33 327.67 C 131.69 325.17 137.28 309.00 136.00 302.00 C 134.72 295.00 134.90 277.57 146.00 280.00
M 178.00 280.00 
C 187.89 282.16 182.78 299.30 184.00 306.00 C 185.22 312.70 184.96 330.16 174.33 327.67 C 163.69 325.17 169.28 309.00 168.00 302.00 C 166.72 295.00 166.90 277.57 178.00 280.00
M 210.00 280.00 
C 219.89 282.16 214.78 299.30 216.00 306.00 C 217.22 312.70 216.96 330.16 206.33 327.67 C 195.69 325.17 201.28 309.00 200.00 302.00 C 198.72 295.00 198.90 277.57 210.00 280.00
M 242.00 280.00 
C 251.89 282.16 246.78 299.30 248.00 306.00 C 249.22 312.70 248.96 330.16 238.33 327.67 C 227.69 325.17 233.28 309.00 232.00 302.00 C 230.72 295.00 230.90 277.57 242.00 280.00
M 274.00 280.00 
C 283.89 282.16 278.78 299.30 280.00 306.00 C 281.22 312.70 280.96 330.16 270.33 327.67 C 259.69 325.17 265.28 309.00 264.00 302.00 C 262.72 295.00 262.90 277.57 274.00 280.00
M 348.00 288.00 
C 354.05 290.23 351.50 300.43 352.00 305.00 C 352.50 309.57 352.88 320.05 345.97 319.97 C 339.07 319.90 331.02 321.09 324.33 319.67 C 317.64 318.25 320.67 307.15 320.00 303.00 C 319.33 298.85 319.41 287.30 326.03 288.03 C 332.65 288.75 341.83 285.72 348.00 288.00 Z"/>
</g>
<g fill="None" fill-opacity="0.0" stroke="#475A61" stroke-opacity="1.00" stroke-width="0.3"><path d="
M 416.00 299.00 
C 416.00 302.33 416.00 305.67 416.00 309.00
C 416.00 323.33 416.00 337.67 416.00 352.00
C 425.50 349.86 447.74 358.11 448.00 344.00 C 448.26 329.89 448.00 317.92 448.00 304.00 C 448.00 290.08 448.26 278.12 448.00 264.00 C 447.74 249.89 425.50 258.14 416.00 256.00
C 416.00 270.33 416.00 284.67 416.00 299.00 Z"/>
</g>
<g fill="None" fill-opacity="0.0" stroke="#475A61" stroke-opacity="1.00" stroke-width="0.3"><path d="
M 114.00 280.00 
C 102.90 277.57 102.72 295.00 104.00 302.00 C 105.28 309.00 99.69 325.17 110.33 327.67 C 120.96 330.16 121.22 312.70 120.00 306.00 C 118.78 299.30 123.89 282.16 114.00 280.00 Z"/>
</g>
<g fill="None" fill-opacity="0.0" stroke="#475A61" stroke-opacity="1.00" stroke-width="0.3"><path d="
M 146.00 280.00 
C 134.90 277.57 134.72 295.00 136.00 302.00 C 137.28 309.00 131.69 325.17 142.33 327.67 C 152.96 330.16 153.22 312.70 152.00 306.00 C 150.78 299.30 155.89 282.16 146.00 280.00 Z"/>
</g>
<g fill="None" fill-opacity="0.0" stroke="#475A61" stroke-opacity="1.00" stroke-width="0.3"><path d="
M 178.00 280.00 
C 166.90 277.57 166.72 295.00 168.00 302.00 C 169.28 309.00 163.69 325.17 174.33 327.67 C 184.96 330.16 185.22 312.70 184.00 306.00 C 182.78 299.30 187.89 282.16 178.00 280.00 Z"/>
</g>
<g fill="None" fill-opacity="0.0" stroke="#475A61" stroke-opacity="1.00" stroke-width="0.3"><path d="
M 210.00 280.00 
C 198.90 277.57 198.72 295.00 200.00 302.00 C 201.28 309.00 195.69 325.17 206.33 327.67 C 216.96 330.16 217.22 312.70 216.00 306.00 C 214.78 299.30 219.89 282.16 210.00 280.00 Z"/>
</g>
<g fill="None" fill-opacity="0.0" stroke="#475A61" stroke-opacity="1.00" stroke-width="0.3"><path d="
M 242.00 280.00 
C 230.90 277.57 230.72 295.00 232.00 302.00 C 233.28 309.00 227.69 325.17 238.33 327.67 C 248.96 330.16 249.22 312.70 248.00 306.00 C 246.78 299.30 251.89 282.16 242.00 280.00 Z"/>
</g>
<g fill="None" fill-opacity="0.0" stroke="#475A61" stroke-opacity="1.00" stroke-width="0.3"><path d="
M 274.00 280.00 
C 262.90 277.57 262.72 295.00 264.00 302.00 C 265.28 309.00 259.69 325.17 270.33 327.67 C 280.96 330.16 281.22 312.70 280.00 306.00 C 278.78 299.30 283.89 282.16 274.00 280.00 Z"/>
</g>
<g fill="None" fill-opacity="0.0" stroke="#72F7A8" stroke-opacity="1.00" stroke-width="0.3"><path d="
M 348.00 288.00 
C 341.83 285.72 332.65 288.75 326.03 288.03 C 319.41 287.30 319.33 298.85 320.00 303.00 C 320.67 307.15 317.64 318.25 324.33 319.67 C 331.02 321.09 339.07 319.90 345.97 319.97 C 352.88 320.05 352.50 309.57 352.00 305.00 C 351.50 300.43 354.05 290.23 348.00 288.00 Z"/>
</g>
<g fill="None" fill-opacity="0.0" stroke="#FADA42" stroke-opacity="1.00" stroke-width="0.3"><path d="
M 416.00 309.00 
C 416.00 305.67 416.00 302.33 416.00 299.00
C 411.68 281.56 384.01 286.46 384.00 304.00 C 383.99 321.54 411.67 326.48 416.00 309.00 Z"/>
</g>
<g fill="None" fill-opacity="0.0" stroke="#304547" stroke-opacity="1.00" stroke-width="0.3"><path d="
M 96.00 384.00 
C 192.33 384.00 288.67 384.00 385.00 384.00
C 385.00 373.33 385.00 362.67 385.00 352.00
C 288.67 352.00 192.33 352.00 96.00 352.00
C 96.00 362.67 96.00 373.33 96.00 384.00 Z"/>
</g>
<g fill="None" fill-opacity="0.0" stroke="#203435" stroke-opacity="1.00" stroke-width="0.3"><path d="
M 385.00 384.00 
C 395.33 384.00 405.67 384.00 416.00 384.00
C 416.00 373.33 416.00 362.67 416.00 352.00
C 405.67 352.00 395.33 352.00 385.00 352.00
C 385.00 362.67 385.00 373.33 385.00 384.00 Z"/>
</g>
<g fill="None" fill-opacity="0.0" stroke="#586C75" stroke-opacity="1.00" stroke-width="0.3"><path d="
M 96.00 480.00 
C 192.33 480.00 288.67 480.00 385.00 480.00
C 395.33 480.00 405.67 480.00 416.00 480.00
C 416.00 465.67 416.00 451.33 416.00 437.00
C 411.67 454.48 383.99 449.54 384.00 432.00 C 384.01 414.46 411.68 409.56 416.00 427.00
C 416.00 412.67 416.00 398.33 416.00 384.00
C 405.67 384.00 395.33 384.00 385.00 384.00
C 288.67 384.00 192.33 384.00 96.00 384.00
C 86.50 384.00 64.26 378.95 64.00 392.00 C 63.74 405.05 64.00 418.88 64.00 432.00 C 64.00 445.12 63.74 458.95 64.00 472.00 C 64.26 485.05 86.50 480.00 96.00 480.00
M 114.00 408.00 
C 123.89 410.16 118.78 427.30 120.00 434.00 C 121.22 440.70 120.96 458.16 110.33 455.67 C 99.69 453.17 105.28 437.00 104.00 430.00 C 102.72 423.00 102.90 405.57 114.00 408.00
M 146.00 408.00 
C 155.89 410.16 150.78 427.30 152.00 434.00 C 153.22 440.70 152.96 458.16 142.33 455.67 C 131.69 453.17 137.28 437.00 136.00 430.00 C 134.72 423.00 134.90 405.57 146.00 408.00
M 178.00 408.00 
C 187.89 410.16 182.78 427.30 184.00 434.00 C 185.22 440.70 184.96 458.16 174.33 455.67 C 163.69 453.17 169.28 437.00 168.00 430.00 C 166.72 423.00 166.90 405.57 178.00 408.00
M 210.00 408.00 
C 219.89 410.16 214.78 427.30 216.00 434.00 C 217.22 440.70 216.96 458.16 206.33 455.67 C 195.69 453.17 201.28 437.00 200.00 430.00 C 198.72 423.00 198.90 405.57 210.00 408.00
M 242.00 408.00 
C 251.89 410.16 246.78 427.30 248.00 434.00 C 249.22 440.70 248.96 458.16 238.33 455.67 C 227.69 453.17 233.28 437.00 232.00 430.00 C 230.72 423.00 230.90 405.57 242.00 408.00
M 274.00 408.00 
C 283.89 410.16 278.78 427.30 280.00 434.00 C 281.22 440.70 280.96 458.16 270.33 455.67 C 259.69 453.17 265.28 437.00 264.00 430.00 C 262.72 423.00 262.90 405.57 274.00 408.00
M 348.00 416.00 
C 354.05 418.23 351.50 428.43 352.00 433.00 C 352.50 437.57 352.88 448.05 345.97 447.97 C 339.06 447.90 331.02 449.09 324.33 447.67 C 317.64 446.25 320.67 435.15 320.00 431.00 C 319.33 426.85 319.41 415.30 326.03 416.03 C 332.65 416.75 341.83 413.72 348.00 416.00 Z"/>
</g>
<g fill="None" fill-opacity="0.0" stroke="#475A61" stroke-opacity="1.00" stroke-width="0.3"><path d="
M 416.00 427.00 
C 416.00 430.33 416.00 433.67 416.00 437.00
C 416.00 451.33 416.00 465.67 416.00 480.00
C 425.50 477.86 447.74 486.11 448.00 472.00 C 448.26 457.89 448.00 445.92 448.00 432.00 C 448.00 418.08 448.26 406.12 448.00 392.00 C 447.74 377.89 425.50 386.14 416.00 384.00
C 416.00 398.33 416.00 412.67 416.00 427.00 Z"/>
</g>
<g fill="None" fill-opacity="0.0" stroke="#475A61" stroke-opacity="1.00" stroke-width="0.3"><path d="
M 114.00 408.00 
C 102.90 405.57 102.72 423.00 104.00 430.00 C 105.28 437.00 99.69 453.17 110.33 455.67 C 120.96 458.16 121.22 440.70 120.00 434.00 C 118.78 427.30 123.89 410.16 114.00 408.00 Z"/>
</g>
<g fill="None" fill-opacity="0.0" stroke="#475A61" stroke-opacity="1.00" stroke-width="0.3"><path d="
M 146.00 408.00 
C 134.90 405.57 134.72 423.00 136.00 430.00 C 137.28 437.00 131.69 453.17 142.33 455.67 C 152.96 458.16 153.22 440.70 152.00 434.00 C 150.78 427.30 155.89 410.16 146.00 408.00 Z"/>
</g>
<g fill="None" fill-opacity="0.0" stroke="#475A61" stroke-opacity="1.00" stroke-width="0.3"><path d="
M 178.00 408.00 
C 166.90 405.57 166.72 423.00 168.00 430.00 C 169.28 437.00 163.69 453.17 174.33 455.67 C 184.96 458.16 185.22 440.70 184.00 434.00 C 182.78 427.30 187.89 410.16 178.00 408.00 Z"/>
</g>
<g fill="None" fill-opacity="0.0" stroke="#475A61" stroke-opacity="1.00" stroke-width="0.3"><path d="
M 210.00 408.00 
C 198.90 405.57 198.72 423.00 200.00 430.00 C 201.28 437.00 195.69 453.17 206.33 455.67 C 216.96 458.16 217.22 440.70 216.00 434.00 C 214.78 427.30 219.89 410.16 210.00 408.00 Z"/>
</g>
<g fill="None" fill-opacity="0.0" stroke="#475A61" stroke-opacity="1.00" stroke-width="0.3"><path d="
M 242.00 408.00 
C 230.90 405.57 230.72 423.00 232.00 430.00 C 233.28 437.00 227.69 453.17 238.33 455.67 C 248.96 458.16 249.22 440.70 248.00 434.00 C 246.78 427.30 251.89 410.16 242.00 408.00 Z"/>
</g>
<g fill="None" fill-opacity="0.0" stroke="#475A61" stroke-opacity="1.00" stroke-width="0.3"><path d="
M 274.00 408.00 
C 262.90 405.57 262.72 423.00 264.00 430.00 C 265.28 437.00 259.69 453.17 270.33 455.67 C 280.96 458.16 281.22 440.70 280.00 434.00 C 278.78 427.30 283.89 410.16 274.00 408.00 Z"/>
</g>
<g fill="None" fill-opacity="0.0" stroke="#72F7A8" stroke-opacity="1.00" stroke-width="0.3"><path d="
M 348.00 416.00 
C 341.83 413.72 332.65 416.75 326.03 416.03 C 319.41 415.30 319.33 426.85 320.00 431.00 C 320.67 435.15 317.64 446.25 324.33 447.67 C 331.02 449.09 339.06 447.90 345.97 447.97 C 352.88 448.05 352.50 437.57 352.00 433.00 C 351.50 428.43 354.05 418.23 348.00 416.00 Z"/>
</g>
<g fill="None" fill-opacity="0.0" stroke="#FADA42" stroke-opacity="1.00" stroke-width="0.3"><path d="
M 416.00 437.00 
C 416.00 433.67 416.00 430.33 416.00 427.00
C 411.68 409.56 384.01 414.46 384.00 432.00 C 383.99 449.54 411.67 454.48 416.00 437.00 Z"/>
</g>
<g fill="None" fill-opacity="0.0" stroke="#304547" stroke-opacity="1.00" stroke-width="0.3"><path d="
M 99.00 512.00 
L 385.00 512.00
C 385.00 501.33 385.00 490.67 385.00 480.00
C 288.67 480.00 192.33 480.00 96.00 480.00
C 97.56 490.46 92.62 503.25 99.00 512.00 Z"/>
</g>
<g fill="None" fill-opacity="0.0" stroke="#203435" stroke-opacity="1.00" stroke-width="0.3"><path d="
M 385.00 512.00 
L 412.00 512.00
C 420.13 504.58 414.18 490.32 416.00 480.00
C 405.67 480.00 395.33 480.00 385.00 480.00
C 385.00 490.67 385.00 501.33 385.00 512.00 Z"/>
</g>
<g fill="#000000" fill-opacity="0.00" stroke="None">
<path d="
M 0.00 512.00 
L 99.00 512.00
C 92.62 503.25 97.56 490.46 96.00 480.00
C 86.50 480.00 64.26 485.05 64.00 472.00 C 63.74 458.95 64.00 445.12 64.00 432.00 C 64.00 418.88 63.74 405.05 64.00 392.00 C 64.26 378.95 86.50 384.00 96.00 384.00
C 96.00 373.33 96.00 362.67 96.00 352.00
C 86.50 352.00 64.26 357.05 64.00 344.00 C 63.74 330.95 64.00 317.12 64.00 304.00 C 64.00 290.88 63.74 277.05 64.00 264.00 C 64.26 250.95 86.50 256.00 96.00 256.00
C 96.00 245.33 96.00 234.67 96.00 224.00
C 86.50 224.00 64.26 229.05 64.00 216.00 C 63.74 202.95 64.00 189.12 64.00 176.00 C 64.00 162.88 63.74 149.05 64.00 136.00 C 64.26 122.95 86.50 128.00 96.00 128.00
C 96.00 117.33 96.00 106.67 96.00 96.00
C 84.46 96.00 62.51 100.66 64.00 85.00 C 65.49 69.34 62.70 55.81 64.00 41.00 C 65.30 26.19 60.69 12.68 67.00 0.00
L 0.00 0.00
L 0.00 512.00 Z"/>
</g>
<g fill="#586C75" fill-opacity="1.00" stroke="None">
<path d="
M 96.00 96.00 
C 192.33 96.00 288.67 96.00 385.00 96.00
C 395.33 96.00 405.67 96.00 416.00 96.00
C 416.00 81.67 416.00 67.33 416.00 53.00
C 411.67 70.48 383.99 65.54 384.00 48.00 C 384.01 30.46 411.68 25.56 416.00 43.00
C 416.00 28.67 416.00 14.33 416.00 0.00
L 67.00 0.00
C 60.69 12.68 65.30 26.19 64.00 41.00 C 62.70 55.81 65.49 69.34 64.00 85.00 C 62.51 100.66 84.46 96.00 96.00 96.00
M 114.00 24.00 
C 123.89 26.16 118.78 43.30 120.00 50.00 C 121.22 56.70 120.96 74.16 110.33 71.67 C 99.69 69.17 105.28 53.00 104.00 46.00 C 102.72 39.00 102.90 21.57 114.00 24.00
M 146.00 24.00 
C 155.89 26.16 150.78 43.30 152.00 50.00 C 153.22 56.70 152.96 74.16 142.33 71.67 C 131.69 69.17 137.28 53.00 136.00 46.00 C 134.72 39.00 134.90 21.57 146.00 24.00
M 178.00 24.00 
C 187.89 26.16 182.78 43.30 184.00 50.00 C 185.22 56.70 184.96 74.16 174.33 71.67 C 163.69 69.17 169.28 53.00 168.00 46.00 C 166.72 39.00 166.90 21.57 178.00 24.00
M 210.00 24.00 
C 219.89 26.16 214.78 43.30 216.00 50.00 C 217.22 56.70 216.96 74.16 206.33 71.67 C 195.69 69.17 201.28 53.00 200.00 46.00 C 198.72 39.00 198.90 21.57 210.00 24.00
M 242.00 24.00 
C 251.89 26.16 246.78 43.30 248.00 50.00 C 249.22 56.70 248.96 74.16 238.33 71.67 C 227.69 69.17 233.28 53.00 232.00 46.00 C 230.72 39.00 230.90 21.57 242.00 24.00
M 274.00 24.00 
C 283.89 26.16 278.78 43.30 280.00 50.00 C 281.22 56.70 280.96 74.16 270.33 71.67 C 259.69 69.17 265.28 53.00 264.00 46.00 C 262.72 39.00 262.90 21.57 274.00 24.00
M 348.00 32.00 
C 354.05 34.23 351.50 44.43 352.00 49.00 C 352.50 53.57 352.88 64.05 345.97 63.97 C 339.07 63.90 331.02 65.09 324.33 63.67 C 317.64 62.25 320.67 51.15 320.00 47.00 C 319.33 42.85 319.41 31.30 326.03 32.03 C 332.65 32.75 341.83 29.72 348.00 32.00 Z"/>
</g>
<g fill="#475A61" fill-opacity="1.00" stroke="None">
<path d="
M 416.00 43.00 
C 416.00 46.33 416.00 49.67 416.00 53.00
C 416.00 67.33 416.00 81.67 416.00 96.00
C 427.54 95.47 449.49 100.90 448.00 85.00 C 446.51 69.10 449.30 55.93 448.00 41.00 C 446.70 26.07 451.31 12.77 445.00 0.00
L 416.00 0.00
C 416.00 14.33 416.00 28.67 416.00 43.00 Z"/>
</g>
<g fill="#000000" fill-opacity="0.00" stroke="None">
<path d="
M 416.00 96.00 
C 416.00 106.67 416.00 117.33 416.00 128.00
C 425.50 130.14 447.74 121.89 448.00 136.00 C 448.26 150.12 448.00 162.08 448.00 176.00 C 448.00 189.92 448.26 201.89 448.00 216.00 C 447.74 230.11 425.50 221.86 416.00 224.00
C 416.00 234.67 416.00 245.33 416.00 256.00
C 425.50 258.14 447.74 249.89 448.00 264.00 C 448.26 278.12 448.00 290.08 448.00 304.00 C 448.00 317.92 448.26 329.89 448.00 344.00 C 447.74 358.11 425.50 349.86 416.00 352.00
C 416.00 362.67 416.00 373.33 416.00 384.00
C 425.50 386.14 447.74 377.89 448.00 392.00 C 448.26 406.12 448.00 418.08 448.00 432.00 C 448.00 445.92 448.26 457.89 448.00 472.00 C 447.74 486.11 425.50 477.86 416.00 480.00
C 414.18 490.32 420.13 504.58 412.00 512.00
L 512.00 512.00
L 512.00 0.00
L 445.00 0.00
C 451.31 12.77 446.70 26.07 448.00 41.00 C 449.30 55.93 446.51 69.10 448.00 85.00 C 449.49 100.90 427.54 95.47 416.00 96.00 Z"/>
</g>
<g fill="#475A61" fill-opacity="1.00" stroke="None">
<path d="
M 114.00 24.00 
C 102.90 21.57 102.72 39.00 104.00 46.00 C 105.28 53.00 99.69 69.17 110.33 71.67 C 120.96 74.16 121.22 56.70 120.00 50.00 C 118.78 43.30 123.89 26.16 114.00 24.00 Z"/>
</g>
<g fill="#475A61" fill-opacity="1.00" stroke="None">
<path d="
M 146.00 24.00 
C 134.90 21.57 134.72 39.00 136.00 46.00 C 137.28 53.00 131.69 69.17 142.33 71.67 C 152.96 74.16 153.22 56.70 152.00 50.00 C 150.78 43.30 155.89 26.16 146.00 24.00 Z"/>
</g>
<g fill="#475A61" fill-opacity="1.00" stroke="None">
<path d="
M 178.00 24.00 
C 166.90 21.57 166.72 39.00 168.00 46.00 C 169.28 53.00 163.69 69.17 174.33 71.67 C 184.96 74.16 185.22 56.70 184.00 50.00 C 182.78 43.30 187.89 26.16 178.00 24.00 Z"/>
</g>
<g fill="#475A61" fill-opacity="1.00" stroke="None">
<path d="
M 210.00 24.00 
C 198.90 21.57 198.72 39.00 200.00 46.00 C 201.28 53.00 195.69 69.17 206.33 71.67 C 216.96 74.16 217.22 56.70 216.00 50.00 C 214.78 43.30 219.89 26.16 210.00 24.00 Z"/>
</g>
<g fill="#475A61" fill-opacity="1.00" stroke="None">
<path d="
M 242.00 24.00 
C 230.90 21.57 230.72 39.00 232.00 46.00 C 233.28 53.00 227.69 69.17 238.33 71.67 C 248.96 74.16 249.22 56.70 248.00 50.00 C 246.78 43.30 251.89 26.16 242.00 24.00 Z"/>
</g>
<g fill="#475A61" fill-opacity="1.00" stroke="None">
<path d="
M 274.00 24.00 
C 262.90 21.57 262.72 39.00 264.00 46.00 C 265.28 53.00 259.69 69.17 270.33 71.67 C 280.96 74.16 281.22 56.70 280.00 50.00 C 278.78 43.30 283.89 26.16 274.00 24.00 Z"/>
</g>
<g fill="#72F7A8" fill-opacity="1.00" stroke="None">
<path d="
M 348.00 32.00 
C 341.83 29.72 332.65 32.75 326.03 32.03 C 319.41 31.30 319.33 42.85 320.00 47.00 C 320.67 51.15 317.64 62.25 324.33 63.67 C 331.02 65.09 339.07 63.90 345.97 63.97 C 352.88 64.05 352.50 53.57 352.00 49.00 C 351.50 44.43 354.05 34.23 348.00 32.00 Z"/>
</g>
<g fill="#FADA42" fill-opacity="1.00" stroke="None">
<path d="
M 416.00 53.00 
C 416.00 49.67 416.00 46.33 416.00 43.00
C 411.68 25.56 384.01 30.46 384.00 48.00 C 383.99 65.54 411.67 70.48 416.00 53.00 Z"/>
</g>
<g fill="#304547" fill-opacity="1.00" stroke="None">
<path d="
M 96.00 128.00 
C 192.33 128.00 288.67 128.00 385.00 128.00
C 385.00 117.33 385.00 106.67 385.00 96.00
C 288.67 96.00 192.33 96.00 96.00 96.00
C 96.00 106.67 96.00 117.33 96.00 128.00 Z"/>
</g>
<g fill="#203435" fill-opacity="1.00" stroke="None">
<path d="
M 385.00 128.00 
C 395.33 128.00 405.67 128.00 416.00 128.00
C 416.00 117.33 416.00 106.67 416.00 96.00
C 405.67 96.00 395.33 96.00 385.00 96.00
C 385.00 106.67 385.00 117.33 385.00 128.00 Z"/>
</g>
<g fill="#586C75" fill-opacity="1.00" stroke="None">
<path d="
M 96.00 224.00 
C 192.33 224.00 288.67 224.00 385.00 224.00
C 395.33 224.00 405.67 224.00 416.00 224.00
C 416.00 209.67 416.00 195.33 416.00 181.00
C 411.67 198.48 383.99 193.54 384.00 176.00 C 384.01 158.46 411.68 153.56 416.00 171.00
C 416.00 156.67 416.00 142.33 416.00 128.00
C 405.67 128.00 395.33 128.00 385.00 128.00
C 288.67 128.00 192.33 128.00 96.00 128.00
C 86.50 128.00 64.26 122.95 64.00 136.00 C 63.74 149.05 64.00 162.88 64.00 176.00 C 64.00 189.12 63.74 202.95 64.00 216.00 C 64.26 229.05 86.50 224.00 96.00 224.00
M 114.00 152.00 
C 123.89 154.16 118.78 171.30 120.00 178.00 C 121.22 184.70 120.96 202.16 110.33 199.67 C 99.69 197.17 105.28 181.00 104.00 174.00 C 102.72 167.00 102.90 149.57 114.00 152.00
M 146.00 152.00 
C 155.89 154.16 150.78 171.30 152.00 178.00 C 153.22 184.70 152.96 202.16 142.33 199.67 C 131.69 197.17 137.28 181.00 136.00 174.00 C 134.72 167.00 134.90 149.57 146.00 152.00
M 178.00 152.00 
C 187.89 154.16 182.78 171.30 184.00 178.00 C 185.22 184.70 184.96 202.16 174.33 199.67 C 163.69 197.17 169.28 181.00 168.00 174.00 C 166.72 167.00 166.90 149.57 178.00 152.00
M 210.00 152.00 
C 219.89 154.16 214.78 171.30 216.00 178.00 C 217.22 184.70 216.96 202.16 206.33 199.67 C 195.69 197.17 201.28 181.00 200.00 174.00 C 198.72 167.00 198.90 149.57 210.00 152.00
M 242.00 152.00 
C 251.89 154.16 246.78 171.30 248.00 178.00 C 249.22 184.70 248.96 202.16 238.33 199.67 C 227.69 197.17 233.28 181.00 232.00 174.00 C 230.72 167.00 230.90 149.57 242.00 152.00
M 274.00 152.00 
C 283.89 154.16 278.78 171.30 280.00 178.00 C 281.22 184.70 280.96 202.16 270.33 199.67 C 259.69 197.17 265.28 181.00 264.00 174.00 C 262.72 167.00 262.90 149.57 274.00 152.00
M 348.00 160.00 
C 354.05 162.23 351.50 172.43 352.00 177.00 C 352.50 181.57 352.88 192.05 345.97 191.97 C 339.06 191.90 331.02 193.09 324.33 191.67 C 317.64 190.25 320.67 179.15 320.00 175.00 C 319.33 170.85 319.41 159.30 326.03 160.03 C 332.65 160.75 341.83 157.72 348.00 160.00 Z"/>
</g>
<g fill="#475A61" fill-opacity="1.00" stroke="None">
<path d="
M 416.00 171.00 
C 416.00 174.33 416.00 177.67 416.00 181.00
C 416.00 195.33 416.00 209.67 416.00 224.00
C 425.50 221.86 447.74 230.11 448.00 216.00 C 448.26 201.89 448.00 189.92 448.00 176.00 C 448.00 162.08 448.26 150.12 448.00 136.00 C 447.74 121.89 425.50 130.14 416.00 128.00
C 416.00 142.33 416.00 156.67 416.00 171.00 Z"/>
</g>
<g fill="#475A61" fill-opacity="1.00" stroke="None">
<path d="
M 114.00 152.00 
C 102.90 149.57 102.72 167.00 104.00 174.00 C 105.28 181.00 99.69 197.17 110.33 199.67 C 120.96 202.16 121.22 184.70 120.00 178.00 C 118.78 171.30 123.89 154.16 114.00 152.00 Z"/>
</g>
<g fill="#475A61" fill-opacity="1.00" stroke="None">
<path d="
M 146.00 152.00 
C 134.90 149.57 134.72 167.00 136.00 174.00 C 137.28 181.00 131.69 197.17 142.33 199.67 C 152.96 202.16 153.22 184.70 152.00 178.00 C 150.78 171.30 155.89 154.16 146.00 152.00 Z"/>
</g>
<g fill="#475A61" fill-opacity="1.00" stroke="None">
<path d="
M 178.00 152.00 
C 166.90 149.57 166.72 167.00 168.00 174.00 C 169.28 181.00 163.69 197.17 174.33 199.67 C 184.96 202.16 185.22 184.70 184.00 178.00 C 182.78 171.30 187.89 154.16 178.00 152.00 Z"/>
</g>
<g fill="#475A61" fill-opacity="1.00" stroke="None">
<path d="
M 210.00 152.00 
C 198.90 149.57 198.72 167.00 200.00 174.00 C 201.28 181.00 195.69 197.17 206.33 199.67 C 216.96 202.16 217.22 184.70 216.00 178.00 C 214.78 171.30 219.89 154.16 210.00 152.00 Z"/>
</g>
<g fill="#475A61" fill-opacity="1.00" stroke="None">
<path d="
M 242.00 152.00 
C 230.90 149.57 230.72 167.00 232.00 174.00 C 233.28 181.00 227.69 197.17 238.33 199.67 C 248.96 202.16 249.22 184.70 248.00 178.00 C 246.78 171.30 251.89 154.16 242.00 152.00 Z"/>
</g>
<g fill="#475A61" fill-opacity="1.00" stroke="None">
<path d="
M 274.00 152.00 
C 262.90 149.57 262.72 167.00 264.00 174.00 C 265.28 181.00 259.69 197.17 270.33 199.67 C 280.96 202.16 281.22 184.70 280.00 178.00 C 278.78 171.30 283.89 154.16 274.00 152.00 Z"/>
</g>
<g fill="#72F7A8" fill-opacity="1.00" stroke="None">
<path d="
M 348.00 160.00 
C 341.83 157.72 332.65 160.75 326.03 160.03 C 319.41 159.30 319.33 170.85 320.00 175.00 C 320.67 179.15 317.64 190.25 324.33 191.67 C 331.02 193.09 339.06 191.90 345.97 191.97 C 352.88 192.05 352.50 181.57 352.00 177.00 C 351.50 172.43 354.05 162.23 348.00 160.00 Z"/>
</g>
<g fill="#FADA42" fill-opacity="1.00" stroke="None">
<path d="
M 416.00 181.00 
C 416.00 177.67 416.00 174.33 416.00 171.00
C 411.68 153.56 384.01 158.46 384.00 176.00 C 383.99 193.54 411.67 198.48 416.00 181.00 Z"/>
</g>
<g fill="#304547" fill-opacity="1.00" stroke="None">
<path d="
M 96.00 256.00 
C 192.33 256.00 288.67 256.00 385.00 256.00
C 385.00 245.33 385.00 234.67 385.00 224.00
C 288.67 224.00 192.33 224.00 96.00 224.00
C 96.00 234.67 96.00 245.33 96.00 256.00 Z"/>
</g>
<g fill="#203435" fill-opacity="1.00" stroke="None">
<path d="
M 385.00 256.00 
C 395.33 256.00 405.67 256.00 416.00 256.00
C 416.00 245.33 416.00 234.67 416.00 224.00
C 405.67 224.00 395.33 224.00 385.00 224.00
C 385.00 234.67 385.00 245.33 385.00 256.00 Z"/>
</g>
<g fill="#586C75" fill-opacity="1.00" stroke="None">
<path d="
M 96.00 352.00 
C 192.33 352.00 288.67 352.00 385.00 352.00
C 395.33 352.00 405.67 352.00 416.00 352.00
C 416.00 337.67 416.00 323.33 416.00 309.00
C 411.67 326.48 383.99 321.54 384.00 304.00 C 384.01 286.46 411.68 281.56 416.00 299.00
C 416.00 284.67 416.00 270.33 416.00 256.00
C 405.67 256.00 395.33 256.00 385.00 256.00
C 288.67 256.00 192.33 256.00 96.00 256.00
C 86.50 256.00 64.26 250.95 64.00 264.00 C 63.74 277.05 64.00 290.88 64.00 304.00 C 64.00 317.12 63.74 330.95 64.00 344.00 C 64.26 357.05 86.50 352.00 96.00 352.00
M 114.00 280.00 
C 123.89 282.16 118.78 299.30 120.00 306.00 C 121.22 312.70 120.96 330.16 110.33 327.67 C 99.69 325.17 105.28 309.00 104.00 302.00 C 102.72 295.00 102.90 277.57 114.00 280.00
M 146.00 280.00 
C 155.89 282.16 150.78 299.30 152.00 306.00 C 153.22 312.70 152.96 330.16 142.33 327.67 C 131.69 325.17 137.28 309.00 136.00 302.00 C 134.72 295.00 134.90 277.57 146.00 280.00
M 178.00 280.00 
C 187.89 282.16 182.78 299.30 184.00 306.00 C 185.22 312.70 184.96 330.16 174.33 327.67 C 163.69 325.17 169.28 309.00 168.00 302.00 C 166.72 295.00 166.90 277.57 178.00 280.00
M 210.00 280.00 
C 219.89 282.16 214.78 299.30 216.00 306.00 C 217.22 312.70 216.96 330.16 206.33 327.67 C 195.69 325.17 201.28 309.00 200.00 302.00 C 198.72 295.00 198.90 277.57 210.00 280.00
M 242.00 280.00 
C 251.89 282.16 246.78 299.30 248.00 306.00 C 249.22 312.70 248.96 330.16 238.33 327.67 C 227.69 325.17 233.28 309.00 232.00 302.00 C 230.72 295.00 230.90 277.57 242.00 280.00
M 274.00 280.00 
C 283.89 282.16 278.78 299.30 280.00 306.00 C 281.22 312.70 280.96 330.16 270.33 327.67 C 259.69 325.17 265.28 309.00 264.00 302.00 C 262.72 295.00 262.90 277.57 274.00 280.00
M 348.00 288.00 
C 354.05 290.23 351.50 300.43 352.00 305.00 C 352.50 309.57 352.88 320.05 345.97 319.97 C 339.07 319.90 331.02 321.09 324.33 319.67 C 317.64 318.25 320.67 307.15 320.00 303.00 C 319.33 298.85 319.41 287.30 326.03 288.03 C 332.65 288.75 341.83 285.72 348.00 288.00 Z"/>
</g>
<g fill="#475A61" fill-opacity="1.00" stroke="None">
<path d="
M 416.00 299.00 
C 416.00 302.33 416.00 305.67 416.00 309.00
C 416.00 323.33 416.00 337.67 416.00 352.00
C 425.50 349.86 447.74 358.11 448.00 344.00 C 448.26 329.89 448.00 317.92 448.00 304.00 C 448.00 290.08 448.26 278.12 448.00 264.00 C 447.74 249.89 425.50 258.14 416.00 256.00
C 416.00 270.33 416.00 284.67 416.00 299.00 Z"/>
</g>
<g fill="#475A61" fill-opacity="1.00" stroke="None">
<path d="
M 114.00 280.00 
C 102.90 277.57 102.72 295.00 104.00 302.00 C 105.28 309.00 99.69 325.17 110.33 327.67 C 120.96 330.16 121.22 312.70 120.00 306.00 C 118.78 299.30 123.89 282.16 114.00 280.00 Z"/>
</g>
<g fill="#475A61" fill-opacity="1.00" stroke="None">
<path d="
M 146.00 280.00 
C 134.90 277.57 134.72 295.00 136.00 302.00 C 137.28 309.00 131.69 325.17 142.33 327.67 C 152.96 330.16 153.22 312.70 152.00 306.00 C 150.78 299.30 155.89 282.16 146.00 280.00 Z"/>
</g>
<g fill="#475A61" fill-opacity="1.00" stroke="None">
<path d="
M 178.00 280.00 
C 166.90 277.57 166.72 295.00 168.00 302.00 C 169.28 309.00 163.69 325.17 174.33 327.67 C 184.96 330.16 185.22 312.70 184.00 306.00 C 182.78 299.30 187.89 282.16 178.00 280.00 Z"/>
</g>
<g fill="#475A61" fill-opacity="1.00" stroke="None">
<path d="
M 210.00 280.00 
C 198.90 277.57 198.72 295.00 200.00 302.00 C 201.28 309.00 195.69 325.17 206.33 327.67 C 216.96 330.16 217.22 312.70 216.00 306.00 C 214.78 299.30 219.89 282.16 210.00 280.00 Z"/>
</g>
<g fill="#475A61" fill-opacity="1.00" stroke="None">
<path d="
M 242.00 280.00 
C 230.90 277.57 230.72 295.00 232.00 302.00 C 233.28 309.00 227.69 325.17 238.33 327.67 C 248.96 330.16 249.22 312.70 248.00 306.00 C 246.78 299.30 251.89 282.16 242.00 280.00 Z"/>
</g>
<g fill="#475A61" fill-opacity="1.00" stroke="None">
<path d="
M 274.00 280.00 
C 262.90 277.57 262.72 295.00 264.00 302.00 C 265.28 309.00 259.69 325.17 270.33 327.67 C 280.96 330.16 281.22 312.70 280.00 306.00 C 278.78 299.30 283.89 282.16 274.00 280.00 Z"/>
</g>
<g fill="#72F7A8" fill-opacity="1.00" stroke="None">
<path d="
M 348.00 288.00 
C 341.83 285.72 332.65 288.75 326.03 288.03 C 319.41 287.30 319.33 298.85 320.00 303.00 C 320.67 307.15 317.64 318.25 324.33 319.67 C 331.02 321.09 339.07 319.90 345.97 319.97 C 352.88 320.05 352.50 309.57 352.00 305.00 C 351.50 300.43 354.05 290.23 348.00 288.00 Z"/>
</g>
<g fill="#FADA42" fill-opacity="1.00" stroke="None">
<path d="
M 416.00 309.00 
C 416.00 305.67 416.00 302.33 416.00 299.00
C 411.68 281.56 384.01 286.46 384.00 304.00 C 383.99 321.54 411.67 326.48 416.00 309.00 Z"/>
</g>
<g fill="#304547" fill-opacity="1.00" stroke="None">
<path d="
M 96.00 384.00 
C 192.33 384.00 288.67 384.00 385.00 384.00
C 385.00 373.33 385.00 362.67 385.00 352.00
C 288.67 352.00 192.33 352.00 96.00 352.00
C 96.00 362.67 96.00 373.33 96.00 384.00 Z"/>
</g>
<g fill="#203435" fill-opacity="1.00" stroke="None">
<path d="
M 385.00 384.00 
C 395.33 384.00 405.67 384.00 416.00 384.00
C 416.00 373.33 416.00 362.67 416.00 352.00
C 405.67 352.00 395.33 352.00 385.00 352.00
C 385.00 362.67 385.00 373.33 385.00 384.00 Z"/>
</g>
<g fill="#586C75" fill-opacity="1.00" stroke="None">
<path d="
M 96.00 480.00 
C 192.33 480.00 288.67 480.00 385.00 480.00
C 395.33 480.00 405.67 480.00 416.00 480.00
C 416.00 465.67 416.00 451.33 416.00 437.00
C 411.67 454.48 383.99 449.54 384.00 432.00 C 384.01 414.46 411.68 409.56 416.00 427.00
C 416.00 412.67 416.00 398.33 416.00 384.00
C 405.67 384.00 395.33 384.00 385.00 384.00
C 288.67 384.00 192.33 384.00 96.00 384.00
C 86.50 384.00 64.26 378.95 64.00 392.00 C 63.74 405.05 64.00 418.88 64.00 432.00 C 64.00 445.12 63.74 458.95 64.00 472.00 C 64.26 485.05 86.50 480.00 96.00 480.00
M 114.00 408.00 
C 123.89 410.16 118.78 427.30 120.00 434.00 C 121.22 440.70 120.96 458.16 110.33 455.67 C 99.69 453.17 105.28 437.00 104.00 430.00 C 102.72 423.00 102.90 405.57 114.00 408.00
M 146.00 408.00 
C 155.89 410.16 150.78 427.30 152.00 434.00 C 153.22 440.70 152.96 458.16 142.33 455.67 C 131.69 453.17 137.28 437.00 136.00 430.00 C 134.72 423.00 134.90 405.57 146.00 408.00
M 178.00 408.00 
C 187.89 410.16 182.78 427.30 184.00 434.00 C 185.22 440.70 184.96 458.16 174.33 455.67 C 163.69 453.17 169.28 437.00 168.00 430.00 C 166.72 423.00 166.90 405.57 178.00 408.00
M 210.00 408.00 
C 219.89 410.16 214.78 427.30 216.00 434.00 C 217.22 440.70 216.96 458.16 206.33 455.67 C 195.69 453.17 201.28 437.00 200.00 430.00 C 198.72 423.00 198.90 405.57 210.00 408.00
M 242.00 408.00 
C 251.89 410.16 246.78 427.30 248.00 434.00 C 249.22 440.70 248.96 458.16 238.33 455.67 C 227.69 453.17 233.28 437.00 232.00 430.00 C 230.72 423.00 230.90 405.57 242.00 408.00
M 274.00 408.00 
C 283.89 410.16 278.78 427.30 280.00 434.00 C 281.22 440.70 280.96 458.16 270.33 455.67 C 259.69 453.17 265.28 437.00 264.00 430.00 C 262.72 423.00 262.90 405.57 274.00 408.00
M 348.00 416.00 
C 354.05 418.23 351.50 428.43 352.00 433.00 C 352.50 437.57 352.88 448.05 345.97 447.97 C 339.06 447.90 331.02 449.09 324.33 447.67 C 317.64 446.25 320.67 435.15 320.00 431.00 C 319.33 426.85 319.41 415.30 326.03 416.03 C 332.65 416.75 341.83 413.72 348.00 416.00 Z"/>
</g>
<g fill="#475A61" fill-opacity="1.00" stroke="None">
<path d="
M 416.00 427.00 
C 416.00 430.33 416.00 433.67 416.00 437.00
C 416.00 451.33 416.00 465.67 416.00 480.00
C 425.50 477.86 447.74 486.11 448.00 472.00 C 448.26 457.89 448.00 445.92 448.00 432.00 C 448.00 418.08 448.26 406.12 448.00 392.00 C 447.74 377.89 425.50 386.14 416.00 384.00
C 416.00 398.33 416.00 412.67 416.00 427.00 Z"/>
</g>
<g fill="#475A61" fill-opacity="1.00" stroke="None">
<path d="
M 114.00 408.00 
C 102.90 405.57 102.72 423.00 104.00 430.00 C 105.28 437.00 99.69 453.17 110.33 455.67 C 120.96 458.16 121.22 440.70 120.00 434.00 C 118.78 427.30 123.89 410.16 114.00 408.00 Z"/>
</g>
<g fill="#475A61" fill-opacity="1.00" stroke="None">
<path d="
M 146.00 408.00 
C 134.90 405.57 134.72 423.00 136.00 430.00 C 137.28 437.00 131.69 453.17 142.33 455.67 C 152.96 458.16 153.22 440.70 152.00 434.00 C 150.78 427.30 155.89 410.16 146.00 408.00 Z"/>
</g>
<g fill="#475A61" fill-opacity="1.00" stroke="None">
<path d="
M 178.00 408.00 
C 166.90 405.57 166.72 423.00 168.00 430.00 C 169.28 437.00 163.69 453.17 174.33 455.67 C 184.96 458.16 185.22 440.70 184.00 434.00 C 182.78 427.30 187.89 410.16 178.00 408.00 Z"/>
</g>
<g fill="#475A61" fill-opacity="1.00" stroke="None">
<path d="
M 210.00 408.00 
C 198.90 405.57 198.72 423.00 200.00 430.00 C 201.28 437.00 195.69 453.17 206.33 455.67 C 216.96 458.16 217.22 440.70 216.00 434.00 C 214.78 427.30 219.89 410.16 210.00 408.00 Z"/>
</g>
<g fill="#475A61" fill-opacity="1.00" stroke="None">
<path d="
M 242.00 408.00 
C 230.90 405.57 230.72 423.00 232.00 430.00 C 233.28 437.00 227.69 453.17 238.33 455.67 C 248.96 458.16 249.22 440.70 248.00 434.00 C 246.78 427.30 251.89 410.16 242.00 408.00 Z"/>
</g>
<g fill="#475A61" fill-opacity="1.00" stroke="None">
<path d="
M 274.00 408.00 
C 262.90 405.57 262.72 423.00 264.00 430.00 C 265.28 437.00 259.69 453.17 270.33 455.67 C 280.96 458.16 281.22 440.70 280.00 434.00 C 278.78 427.30 283.89 410.16 274.00 408.00 Z"/>
</g>
<g fill="#72F7A8" fill-opacity="1.00" stroke="None">
<path d="
M 348.00 416.00 
C 341.83 413.72 332.65 416.75 326.03 416.03 C 319.41 415.30 319.33 426.85 320.00 431.00 C 320.67 435.15 317.64 446.25 324.33 447.67 C 331.02 449.09 339.06 447.90 345.97 447.97 C 352.88 448.05 352.50 437.57 352.00 433.00 C 351.50 428.43 354.05 418.23 348.00 416.00 Z"/>
</g>
<g fill="#FADA42" fill-opacity="1.00" stroke="None">
<path d="
M 416.00 437.00 
C 416.00 433.67 416.00 430.33 416.00 427.00
C 411.68 409.56 384.01 414.46 384.00 432.00 C 383.99 449.54 411.67 454.48 416.00 437.00 Z"/>
</g>
<g fill="#304547" fill-opacity="1.00" stroke="None">
<path d="
M 99.00 512.00 
L 385.00 512.00
C 385.00 501.33 385.00 490.67 385.00 480.00
C 288.67 480.00 192.33 480.00 96.00 480.00
C 97.56 490.46 92.62 503.25 99.00 512.00 Z"/>
</g>
<g fill="#203435" fill-opacity="1.00" stroke="None">
<path d="
M 385.00 512.00 
L 412.00 512.00
C 420.13 504.58 414.18 490.32 416.00 480.00
C 405.67 480.00 395.33 480.00 385.00 480.00
C 385.00 490.67 385.00 501.33 385.00 512.00 Z"/>
</g>
</svg>