<?xml version="1.0" encoding="UTF-8"?>
<svg version="1.1" xmlns="http://www.w3.org/2000/svg" width="512" height="512">
<path d="M0 0 C1.01790619 0.00215515 2.03581238 0.0043103 3.08456421 0.00653076 C17.69363523 0.05620146 32.02575853 0.30709809 46.375 3.3125 C47.34985352 3.51117676 48.32470703 3.70985352 49.32910156 3.91455078 C97.7109774 14.03517194 141.69928269 35.9516877 177.375 70.3125 C178.3640332 71.26068604 178.3640332 71.26068604 179.37304688 72.22802734 C188.86130305 81.37247479 197.6012044 90.66984009 205.375 101.3125 C206.23306152 102.46355017 207.09113451 103.61459177 207.94921875 104.765625 C213.98736829 112.95680614 219.34595521 121.47054105 224.375 130.3125 C224.73948242 130.94430176 225.10396484 131.57610352 225.47949219 132.22705078 C247.08534998 169.97532572 256.85198095 212.74189997 256.6875 255.9375 C256.68534485 256.95540619 256.6831897 257.97331238 256.68096924 259.02206421 C256.63129854 273.63113523 256.38040191 287.96325853 253.375 302.3125 C253.07698486 303.77478027 253.07698486 303.77478027 252.77294922 305.26660156 C242.52138226 354.27446698 220.18217348 398.27864199 185.375 434.3125 C184.77606934 434.93334473 184.17713867 435.55418945 183.56005859 436.19384766 C175.89623497 444.09500259 168.15501606 451.64016955 159.375 458.3125 C158.83472168 458.72918945 158.29444336 459.14587891 157.73779297 459.57519531 C123.10615677 486.19699135 82.6106052 503.76676591 39.375 510.3125 C38.25689941 510.48982666 37.13879883 510.66715332 35.98681641 510.84985352 C25.22545702 512.39416151 14.5855899 512.65229671 3.72314453 512.62817383 C0.77468385 512.62502635 -2.17275697 512.64852578 -5.12109375 512.67382812 C-18.51105903 512.71844438 -31.42266733 511.51675057 -44.625 509.3125 C-45.76195312 509.12437744 -46.89890625 508.93625488 -48.0703125 508.74243164 C-109.3334805 497.73890506 -167.76225972 461.60462894 -204.625 411.3125 C-205.26211914 410.45857666 -205.26211914 410.45857666 -205.91210938 409.58740234 C-212.42768015 400.84658179 -218.26088547 391.80163672 -223.625 382.3125 C-224.0271875 381.60528809 -224.429375 380.89807617 -224.84375 380.16943359 C-237.8691741 357.03404164 -246.61801461 331.86287591 -251.9375 305.875 C-252.08485596 305.15610596 -252.23221191 304.43721191 -252.3840332 303.6965332 C-255.35789088 288.05024391 -255.99800362 272.57681954 -255.9375 256.6875 C-255.93534485 255.66959381 -255.9331897 254.65168762 -255.93096924 253.60293579 C-255.88129854 238.99386477 -255.63040191 224.66174147 -252.625 210.3125 C-252.42632324 209.33764648 -252.22764648 208.36279297 -252.02294922 207.35839844 C-241.90232806 158.9765226 -219.9858123 114.98821731 -185.625 79.3125 C-184.99287598 78.65314453 -184.36075195 77.99378906 -183.70947266 77.31445312 C-174.56502521 67.82619695 -165.26765991 59.0862956 -154.625 51.3125 C-153.47394983 50.45443848 -152.32290823 49.59636549 -151.171875 48.73828125 C-142.98224019 42.70072604 -134.47961724 37.31792698 -125.625 32.3125 C-124.91778809 31.9103125 -124.21057617 31.508125 -123.48193359 31.09375 C-100.34654164 18.0683259 -75.17537591 9.31948539 -49.1875 4 C-48.46860596 3.85264404 -47.74971191 3.70528809 -47.0090332 3.5534668 C-31.36274391 0.57960912 -15.88931954 -0.06050362 0 0 Z " fill="#4C4C4C" transform="translate(255.625,-0.3125)"/>
<path d="M0 0 C2.65508358 0.61655203 3.82766865 1.60523765 5.82714844 3.44580078 C6.86681763 4.39942505 6.86681763 4.39942505 7.92749023 5.37231445 C11.90998441 9.17674204 15.83262786 13.03423866 19.71777344 16.93798828 C20.52923828 17.74558594 21.34070313 18.55318359 22.17675781 19.38525391 C22.97533203 20.18511719 23.77390625 20.98498047 24.59667969 21.80908203 C25.3051001 22.51863037 26.01352051 23.22817871 26.7434082 23.95922852 C28.64260356 25.96031409 30.4398091 27.98618926 32.23248291 30.0796814 C36.39882597 34.85022022 40.84071382 39.31157943 45.33178711 43.7746582 C46.70081457 45.14144428 48.0698419 46.50823049 49.43886435 47.87502158 C50.89534001 49.32814908 52.35305705 50.78002043 53.81114769 52.23152733 C56.86104619 55.2677947 59.90702935 58.30797021 62.95246887 61.34870911 C69.41292931 67.79811983 75.87763308 74.24326942 82.34277344 80.68798828 C89.33483485 87.65798955 96.32613988 94.62874003 103.31257993 101.60437661 C106.33742705 104.62425678 109.36469143 107.64168584 112.39386213 110.65722883 C114.72020242 112.97433595 117.04330267 115.2946881 119.36694336 117.61450195 C120.20183289 118.44422516 121.03672241 119.27394836 121.89691162 120.1288147 C123.38937378 121.62114012 124.87107142 123.12435858 126.33859158 124.64121819 C127.73340034 126.06872527 129.1903449 127.43572749 130.67120361 128.77375793 C133.26276817 133.53532482 132.71768478 138.69207794 132.6887207 144.01416016 C132.69733627 145.28457657 132.70595184 146.55499298 132.71482849 147.86390686 C132.73730076 151.34124522 132.73438835 154.81812799 132.72550702 158.29551125 C132.72039184 161.2006709 132.72769386 164.10574533 132.73497909 167.01089621 C132.75197076 173.86476201 132.74841928 180.71840512 132.73168945 187.57226562 C132.71476187 194.63944993 132.73061243 201.70601686 132.76291233 208.77313375 C132.7896127 214.84549573 132.79688331 220.91766558 132.78839725 226.99008036 C132.78347005 230.61485914 132.78567201 234.23926633 132.80618477 237.86399841 C132.82796123 241.90532968 132.80913871 245.9454907 132.78637695 249.98681641 C132.79806915 251.18593155 132.80976135 252.38504669 132.82180786 253.62049866 C132.73054913 261.56727137 132.73054913 261.56727137 130.15696716 265.74215698 C126.24446883 268.03401914 122.91005544 268.20284956 118.49707031 268.14746094 C117.20592064 268.16060333 117.20592064 268.16060333 115.88868713 268.17401123 C113.04994962 268.1959764 110.21277614 268.18146303 107.37402344 268.16455078 C105.39774273 268.16791975 103.42146405 268.17277304 101.44519043 268.17904663 C97.30587004 268.18641405 93.1670896 268.17571654 89.02783203 268.15234375 C83.72456637 268.12385618 78.42256587 268.14026084 73.11934662 268.17020607 C69.0391895 268.18828249 64.95933184 268.1825194 60.87916565 268.16956711 C58.92395376 268.16623406 56.96871458 268.17031663 55.01353455 268.18196487 C52.27945043 268.19467925 49.5474087 268.17528917 46.81347656 268.14746094 C45.60390038 268.16264267 45.60390038 268.16264267 44.36988831 268.1781311 C40.49754739 268.10519045 38.36004542 267.64225374 35.15138245 265.42086792 C32.62867484 261.7300555 32.5409087 259.57990395 32.55932617 255.12744141 C32.55526764 254.40322495 32.55120911 253.67900848 32.54702759 252.93284607 C32.54152427 251.36688723 32.54747987 249.80085472 32.56368828 248.23497009 C32.58914874 245.7543061 32.58429877 243.27530038 32.5717926 240.79455566 C32.55106481 235.52968339 32.57071925 230.26532656 32.59277344 225.00048828 C32.61389045 218.89808773 32.61843112 212.79622166 32.5922718 206.6938324 C32.58891418 204.25339202 32.61011991 201.81397621 32.63267517 199.37365723 C32.63016343 197.87361428 32.62660293 196.3735726 32.62182617 194.87353516 C32.63112404 192.91426086 32.63112404 192.91426086 32.64060974 190.91540527 C32.07586107 186.94172803 30.95996183 185.31299737 28.15527344 182.50048828 C25.61458539 181.23014426 23.80315735 181.3527288 20.95874023 181.32348633 C19.8738884 181.31065109 18.78903656 181.29781586 17.67131042 181.28459167 C16.49426041 181.27720474 15.31721039 181.26981781 14.10449219 181.26220703 C12.89839798 181.25413528 11.69230377 181.24606354 10.44966125 181.23774719 C7.8932947 181.22389728 5.33690958 181.21317921 2.78051758 181.20532227 C-1.1307271 181.18810493 -5.04112779 181.14422452 -8.95214844 181.10009766 C-11.433262 181.08997148 -13.91438276 181.08145514 -16.39550781 181.07470703 C-17.56648514 181.05719894 -18.73746246 181.03969086 -19.94392395 181.02165222 C-21.03823227 181.02457779 -22.13254059 181.02750336 -23.26000977 181.03051758 C-24.21994339 181.02465134 -25.17987701 181.0187851 -26.16889954 181.01274109 C-29.79252701 181.67325244 -31.37792263 182.76859143 -33.84472656 185.50048828 C-34.58005985 188.87916393 -34.58005985 188.87916393 -34.44067383 192.74414062 C-34.44473236 193.46660477 -34.44879089 194.18906891 -34.45297241 194.9334259 C-34.45848401 196.49885447 -34.45249671 198.06435655 -34.43631172 199.62971115 C-34.41088535 202.11057086 -34.4156908 204.58976941 -34.4282074 207.07070923 C-34.44895803 212.33915144 -34.42927964 217.60707995 -34.40722656 222.87548828 C-34.38610433 228.97495054 -34.38160119 235.07387729 -34.4077282 241.1733284 C-34.41108211 243.61206007 -34.3898893 246.04976284 -34.36732483 248.4883728 C-34.36983727 249.99159974 -34.37339849 251.49482542 -34.37817383 252.99804688 C-34.37197525 254.30502533 -34.36577667 255.61200378 -34.35939026 256.95858765 C-34.92767536 261.1058343 -36.23333843 263.26890188 -38.84472656 266.50048828 C-42.07455317 268.11540158 -45.61243687 267.67485348 -49.16235352 267.69335938 C-50.02268188 267.70153687 -50.88301025 267.70971436 -51.76940918 267.71813965 C-54.62393493 267.74300538 -57.47841093 267.75951227 -60.33300781 267.77392578 C-61.30683096 267.77924946 -62.28065411 267.78457314 -63.28398705 267.79005814 C-68.43793323 267.81679428 -73.59185515 267.83616808 -78.74584961 267.85058594 C-84.07258933 267.86723898 -89.39871096 267.912021 -94.72521687 267.96295738 C-98.81815817 267.99659247 -102.91095207 268.00815925 -107.00401878 268.01381302 C-108.96765049 268.02053537 -110.93127216 268.03578289 -112.89476967 268.05970383 C-115.64333279 268.09127958 -118.39021957 268.09140378 -121.13891602 268.08398438 C-121.95001328 268.10038971 -122.76111053 268.11679504 -123.5967865 268.13369751 C-127.42987215 268.09134411 -129.47837426 267.71631553 -132.83947754 265.73620605 C-135.94738612 260.72121045 -135.61484492 255.94040358 -135.63452148 250.14550781 C-135.66934883 248.26397758 -135.66934883 248.26397758 -135.70487976 246.34443665 C-135.76111774 242.90748034 -135.7943068 239.47203997 -135.81273818 236.03478098 C-135.82520728 233.88123362 -135.84377114 231.7278221 -135.86425209 229.57433701 C-135.93447533 222.04219403 -135.97441992 214.51046939 -135.9909668 206.97802734 C-136.00725446 199.98932182 -136.09492708 193.00394528 -136.21535414 186.01633179 C-136.31546423 179.99472357 -136.36063158 173.97421267 -136.36531717 167.95178115 C-136.36922669 164.36445638 -136.39490364 160.78072249 -136.47777367 157.19427872 C-137.01206014 132.59820389 -137.01206014 132.59820389 -130.32915306 124.71340084 C-127.91216698 122.29677412 -125.38262629 120.10903093 -122.6971035 117.99658966 C-119.85126836 115.69810613 -117.39349619 113.06526619 -114.8684082 110.42651367 C-113.90452323 109.45966277 -112.93747428 108.4959559 -111.96730042 107.53541565 C-109.91536052 105.50097679 -107.86576674 103.46426846 -105.81944275 101.42417908 C-102.51826776 98.13419775 -99.21306485 94.8482829 -95.90722656 91.56298828 C-92.04244653 87.72203032 -88.17945667 83.87930278 -84.32064629 80.03234673 C-82.79902139 78.51709815 -81.27437422 77.00493984 -79.74952698 75.49293518 C-75.85122925 71.61508447 -71.98329965 67.74474996 -68.40771484 63.56347656 C-64.07338305 58.50736322 -59.3203803 53.86479099 -54.59668922 49.17728615 C-52.89133309 47.48486347 -51.18926963 45.7891878 -49.48796082 44.09269714 C-45.88054247 40.49661641 -42.2691788 36.90451433 -38.65722656 33.31298828 C-34.45734771 29.13678484 -30.25914254 24.95892634 -26.06513023 20.77683067 C-24.3943309 19.1124766 -22.72053281 17.45117989 -21.04658508 15.78999329 C-20.01796882 14.76501101 -18.98949352 13.73988726 -17.96118164 12.71459961 C-17.06740311 11.82605789 -16.17362457 10.93751617 -15.25276184 10.02204895 C-12.80871326 7.54182278 -12.80871326 7.54182278 -10.71244812 4.79960632 C-7.60208993 0.97083399 -4.93194558 -0.1417739 0 0 Z " fill="#FEFEFE" transform="translate(255.8447265625,145.49951171875)"/>
<path d="M0 0 C0.79921875 -0.02835937 1.5984375 -0.05671875 2.421875 -0.0859375 C11.81424641 1.44486336 17.47591196 8.08488129 23.8125 14.625 C25.1727832 15.99978516 25.1727832 15.99978516 26.56054688 17.40234375 C30.33814155 21.24294399 34.03578353 25.10928963 37.5546875 29.18847656 C41.31471765 33.51020452 45.30702403 37.55932475 49.37109375 41.59375 C50.11585464 42.33709595 50.86061554 43.08044189 51.62794495 43.84631348 C53.97876745 46.19159301 56.33306431 48.53334836 58.6875 50.875 C60.29385199 52.47632961 61.89997397 54.07788998 63.50585938 55.6796875 C67.41791985 59.58079473 71.33282952 63.4790242 75.25 67.375 C75.25410889 66.65957031 75.25821777 65.94414062 75.26245117 65.20703125 C75.29558256 61.92887875 75.3662492 58.65253672 75.4375 55.375 C75.44620117 53.68697266 75.44620117 53.68697266 75.45507812 51.96484375 C75.66836417 43.85997399 77.05594748 38.46961534 82.9284668 32.73632812 C86.7075584 29.46272011 90.10961536 28.7043629 95.046875 29.0234375 C100.05921924 29.82327967 103.74556528 31.49270637 107.0625 35.3125 C110.3761609 39.95162526 111.55729805 42.23075868 110.93408203 47.97753906 C106.72291735 83.21773986 106.72291735 83.21773986 118.44387817 115.22927856 C127.0843395 125.28588367 137.22321996 133.84208992 147.79931641 141.79467773 C151.56717615 144.68878276 154.59421182 147.82431045 157.63302612 151.46446228 C160.0836643 154.36001721 162.78987247 156.96417005 165.515625 159.59765625 C166.66449721 160.72416621 167.8129219 161.85113272 168.9609375 162.97851562 C170.73603701 164.7164493 172.51400193 166.45104039 174.29980469 168.17797852 C176.04769454 169.87115721 177.78241449 171.57697082 179.515625 173.28515625 C180.04690002 173.79264908 180.57817505 174.30014191 181.12554932 174.82301331 C185.22181269 178.89022605 187.62604048 182.96289702 188.68359375 188.74609375 C188.69422847 194.37186271 187.63689109 198.79700043 184.25 203.375 C179.60664992 207.07072761 175.87905743 208.53149149 170 208.6875 C169.08734375 208.72488281 168.1746875 208.76226562 167.234375 208.80078125 C160.42694768 207.82956453 155.82429159 203.39498321 151.25 198.625 C150.76789063 198.13773438 150.28578125 197.65046875 149.7890625 197.1484375 C147.18351202 194.48774309 144.70769863 191.75087408 142.296875 188.91308594 C137.7961424 183.75831397 132.94817714 178.96048427 128.09365845 174.14349365 C126.40007138 172.4628576 124.70979223 170.77895371 123.02026367 169.09423828 C119.43300187 165.51831463 115.8418088 161.94635568 112.25 158.375 C108.08247027 154.23120177 103.91664025 150.08572339 99.7550354 145.93597412 C98.10267468 144.29001894 96.44729535 142.64714355 94.79174805 141.00439453 C90.05701125 136.29246051 85.45324404 131.53758461 81.10888672 126.45874023 C77.34816012 122.24311093 73.2880855 118.30628587 69.27885437 114.32868958 C67.61886941 112.68166117 65.96219765 111.03136048 64.30627441 109.38024902 C60.79034349 105.87565361 57.27048047 102.37502445 53.75 98.875 C49.66507415 94.81380992 45.58185107 90.75093706 41.50285339 86.68379211 C39.88373229 85.07107417 38.26159216 83.46143782 36.63928223 81.85192871 C31.29259607 76.53165625 26.12743685 71.13014424 21.25 65.375 C14.91040315 58.29330987 9.32979729 53.22830488 -0.3125 51.875 C-8.7542182 53.10288628 -14.08859932 58.15126854 -19.8125 64.125 C-20.48087891 64.80304688 -21.14925781 65.48109375 -21.83789062 66.1796875 C-24.94372859 69.35494652 -27.93377392 72.58773026 -30.82397461 75.95996094 C-34.99802983 80.74636669 -39.47188003 85.21082889 -43.98036194 89.68052673 C-45.50593977 91.19312332 -47.02818086 92.70901202 -48.54968262 94.22570801 C-52.32616982 97.98895801 -56.10813511 101.74668668 -59.88995361 105.50457764 C-63.09759868 108.69235668 -66.30309295 111.88227042 -69.50587463 115.07493591 C-70.99203689 116.55470556 -72.48121996 118.03138565 -73.97058105 119.50793457 C-77.82492355 123.34840583 -81.64385807 127.17037699 -85.18164062 131.30664062 C-89.49085358 136.33114675 -94.21110942 140.94757093 -98.90634155 145.60650635 C-100.59992862 147.2871424 -102.29020777 148.97104629 -103.97973633 150.65576172 C-108.17361018 154.83638011 -112.37295399 159.0114898 -116.57214355 163.18676758 C-120.13207831 166.72685717 -123.68987821 170.26906722 -127.2449646 173.81402588 C-128.89732532 175.45998106 -130.55270465 177.10285645 -132.20825195 178.74560547 C-137.60409516 184.11538097 -142.81374275 189.57499809 -147.75 195.375 C-159.80880736 208.45175863 -159.80880736 208.45175863 -169.3125 208.875 C-175.01976717 208.64077563 -178.2457798 207.04980741 -182.18359375 202.84375 C-185.64232354 198.84612464 -186.93588857 196.47238485 -187.125 191.25 C-187.17398438 190.33992187 -187.22296875 189.42984375 -187.2734375 188.4921875 C-185.79280507 179.67468989 -178.1980758 173.43811077 -172.1015625 167.46875 C-170.67906137 166.05636111 -169.25656269 164.64396974 -167.83420372 163.23143768 C-165.85456294 161.26923467 -163.86804544 159.31406555 -161.88153076 157.35882568 C-158.41068854 153.94029287 -154.94959336 150.51190501 -151.49032593 147.08166504 C-149.65375402 145.26189002 -147.81409729 143.44522117 -145.97085571 141.63220215 C-142.31267684 138.01630906 -138.71273175 134.4083256 -135.36865234 130.49804688 C-131.04082479 125.4562933 -126.30677471 120.82017495 -121.59365845 116.14349365 C-119.90007138 114.4628576 -118.20979223 112.77895371 -116.52026367 111.09423828 C-112.32638982 106.91361989 -108.12704601 102.7385102 -103.92785645 98.56323242 C-100.36792169 95.02314283 -96.81012179 91.48093278 -93.2550354 87.93597412 C-91.60267468 86.29001894 -89.94729535 84.64714355 -88.29174805 83.00439453 C-83.54384317 78.2793535 -78.92496041 73.51166133 -74.56860352 68.41845703 C-70.99874961 64.40722369 -67.14612274 60.66389143 -63.33444214 56.88427734 C-61.77526273 55.3380726 -60.21941379 53.78858104 -58.66430664 52.23828125 C-54.80434197 48.39155775 -50.93890098 44.55035284 -47.0736084 40.70898438 C-43.79550558 37.45074304 -40.51955008 34.1903701 -37.24630737 30.92724609 C-35.72690534 29.41423948 -34.20448297 27.9043203 -32.68188477 26.39453125 C-27.99396962 21.73101972 -23.42348232 17.02174832 -19.14201355 11.97860718 C-17.26092517 9.81158314 -15.21544087 7.89396953 -13.0625 6 C-11.97388672 5.02933594 -11.97388672 5.02933594 -10.86328125 4.0390625 C-7.27601858 1.2143418 -4.58334579 0.07298321 0 0 Z " fill="#FDFDFD" transform="translate(253.75,66.625)"/>
</svg>
