<svg xmlns="http://www.w3.org/2000/svg" xmlns:v="https://svgstorm.com"
viewBox = "0 0 512 512"
width="512"
height="512">
<g fill="None" fill-opacity="0.0" stroke="#000000" stroke-opacity="0.00" stroke-width="0.3"><path d="
M 0.00 512.00 
L 512.00 512.00
L 512.00 0.00
L 0.00 0.00
L 0.00 512.00
M 478.00 49.00 
C 482.21 50.33 484.04 52.24 486.00 56.00
C 492.82 69.05 486.24 87.73 488.00 103.00 C 489.76 118.27 487.21 136.22 488.00 152.00 C 488.79 167.78 487.64 185.08 488.00 201.00 C 488.36 216.92 487.84 234.21 488.00 250.00 C 488.16 265.79 487.93 283.71 488.00 299.00 C 488.07 314.29 487.97 333.90 488.00 348.00 C 488.03 362.10 491.80 382.05 474.99 383.99 C 458.18 385.93 442.56 383.16 426.00 384.00 C 409.44 384.84 393.45 383.68 377.00 384.00 C 360.55 384.32 344.42 384.00 328.00 384.00
C 332.73 386.07 334.27 395.95 338.25 399.75 C 342.24 403.54 344.52 411.24 348.25 415.75 C 351.99 420.25 355.17 426.95 358.00 432.00
C 366.35 432.00 377.01 430.35 384.00 434.00
C 387.21 435.68 388.33 436.80 390.00 440.00
C 400.73 460.53 377.18 466.40 360.00 464.00 C 342.82 461.60 320.26 465.45 302.00 464.00 C 283.74 462.55 261.47 465.48 243.00 464.00 C 224.53 462.52 202.99 466.53 185.00 464.00 C 167.01 461.47 143.50 470.10 128.00 462.00
C 124.79 460.32 123.67 459.20 122.00 456.00
C 118.80 449.87 118.70 437.15 127.08 434.08 C 135.46 431.01 147.08 430.97 156.00 431.00
C 160.39 428.08 163.54 419.55 167.25 415.25 C 170.95 410.95 175.70 404.62 179.00 400.00
C 181.78 396.11 184.72 387.73 189.00 385.00
C 172.80 384.95 153.86 384.13 137.00 384.00 C 120.14 383.87 100.41 385.73 84.00 384.00 C 67.59 382.27 45.99 389.31 32.00 382.00
C 28.22 380.03 26.33 378.22 25.00 374.00
C 19.83 357.66 25.58 337.75 24.00 320.00 C 22.42 302.25 24.59 282.03 24.00 264.00 C 23.41 245.97 24.00 225.88 24.00 208.00 C 24.00 190.12 23.40 169.21 24.00 152.00 C 24.60 134.79 22.40 111.57 24.00 96.00 C 25.60 80.43 16.60 55.33 33.08 49.08 C 49.55 42.82 70.25 50.13 88.00 48.00 C 105.75 45.87 124.80 48.92 143.00 48.00 C 161.20 47.08 180.56 48.36 199.00 48.00 C 217.44 47.64 236.49 48.04 255.00 48.00 C 273.51 47.96 292.51 47.74 311.00 48.00 C 329.49 48.26 348.65 47.27 367.00 48.00 C 385.35 48.73 405.00 46.31 423.00 48.00 C 441.00 49.69 461.45 43.77 478.00 49.00 Z"/>
</g>
<g fill="None" fill-opacity="0.0" stroke="#D0D7DF" stroke-opacity="1.00" stroke-width="0.3"><path d="
M 25.00 374.00 
C 30.14 379.08 33.48 365.57 32.00 360.00 C 30.52 354.43 32.67 342.86 32.00 336.00 C 31.33 329.14 32.32 319.39 32.00 312.00 C 31.68 304.61 32.14 296.68 32.00 289.00 C 31.86 281.32 32.06 272.82 32.00 265.00 C 31.94 257.18 32.03 248.84 32.00 241.00 C 31.97 233.16 32.01 225.86 32.00 218.00 C 31.99 210.14 32.00 201.89 32.00 194.00 C 32.00 186.11 31.99 177.84 32.00 170.00 C 32.01 162.16 31.97 154.79 32.00 147.00 C 32.03 139.21 31.92 130.72 32.00 123.00 C 32.08 115.28 31.83 106.45 32.00 99.00 C 32.17 91.55 31.63 81.81 32.00 75.00 C 32.37 68.19 29.51 59.28 36.70 56.70 C 43.89 54.11 52.30 56.71 60.00 56.00 C 67.70 55.29 76.21 56.33 84.00 56.00 C 91.79 55.67 99.15 56.14 107.00 56.00 C 114.85 55.86 123.10 56.07 131.00 56.00 C 138.90 55.93 147.12 56.03 155.00 56.00 C 162.88 55.97 170.11 56.01 178.00 56.00 C 185.89 55.99 194.06 56.01 202.00 56.00 C 209.94 55.99 218.06 56.00 226.00 56.00 C 233.94 56.00 242.10 56.00 250.00 56.00 C 257.90 56.00 265.11 56.00 273.00 56.00 C 280.89 56.00 289.09 55.99 297.00 56.00 C 304.91 56.01 313.13 55.99 321.00 56.00 C 328.87 56.01 336.16 55.97 344.00 56.00 C 351.84 56.03 360.19 55.94 368.00 56.00 C 375.81 56.06 384.34 55.86 392.00 56.00 C 399.66 56.14 407.64 55.67 415.00 56.00 C 422.36 56.33 432.20 55.29 439.00 56.00 C 445.80 56.71 457.57 54.45 463.00 56.00 C 468.43 57.55 483.30 54.36 478.00 49.00
C 461.45 43.77 441.00 49.69 423.00 48.00 C 405.00 46.31 385.35 48.73 367.00 48.00 C 348.65 47.27 329.49 48.26 311.00 48.00 C 292.51 47.74 273.51 47.96 255.00 48.00 C 236.49 48.04 217.44 47.64 199.00 48.00 C 180.56 48.36 161.20 47.08 143.00 48.00 C 124.80 48.92 105.75 45.87 88.00 48.00 C 70.25 50.13 49.55 42.82 33.08 49.08 C 16.60 55.33 25.60 80.43 24.00 96.00 C 22.40 111.57 24.60 134.79 24.00 152.00 C 23.40 169.21 24.00 190.12 24.00 208.00 C 24.00 225.88 23.41 245.97 24.00 264.00 C 24.59 282.03 22.42 302.25 24.00 320.00 C 25.58 337.75 19.83 357.66 25.00 374.00 Z"/>
</g>
<g fill="None" fill-opacity="0.0" stroke="#A4B0C1" stroke-opacity="1.00" stroke-width="0.3"><path d="
M 25.00 374.00 
C 26.33 378.22 28.22 380.03 32.00 382.00
C 30.21 376.41 42.45 375.25 47.00 376.00 C 51.55 376.75 62.11 375.66 68.00 376.00 C 73.89 376.34 82.50 375.85 89.00 376.00 C 95.50 376.15 103.23 375.93 110.00 376.00 C 116.77 376.07 124.10 375.97 131.00 376.00 C 137.90 376.03 145.05 375.99 152.00 376.00 C 158.95 376.01 166.02 375.99 173.00 376.00 C 179.98 376.01 187.01 376.00 194.00 376.00 C 200.99 376.00 207.99 376.00 215.00 376.00 C 222.01 376.00 228.98 376.00 236.00 376.00 C 243.02 376.00 249.96 376.00 257.00 376.00 C 264.04 376.00 270.90 376.00 278.00 376.00 C 285.10 376.00 292.90 376.00 300.00 376.00 C 307.10 376.00 313.96 376.00 321.00 376.00 C 328.04 376.00 334.98 375.99 342.00 376.00 C 349.02 376.01 356.00 375.99 363.00 376.00 C 370.00 376.01 377.01 375.97 384.00 376.00 C 390.99 376.03 398.03 375.94 405.00 376.00 C 411.97 376.06 419.06 375.88 426.00 376.00 C 432.94 376.12 440.13 375.72 447.00 376.00 C 453.87 376.28 461.30 375.39 468.00 376.00 C 474.70 376.61 480.28 374.22 480.00 367.00 C 479.72 359.77 480.13 353.14 480.00 346.00 C 479.87 338.86 480.06 332.14 480.00 325.00 C 479.94 317.86 480.03 310.12 480.00 303.00 C 479.97 295.88 480.01 289.05 480.00 282.00 C 479.99 274.95 480.01 268.02 480.00 261.00 C 479.99 253.98 480.00 247.01 480.00 240.00 C 480.00 232.99 480.00 226.00 480.00 219.00 C 480.00 212.00 480.01 204.98 480.00 198.00 C 479.99 191.02 480.01 183.95 480.00 177.00 C 479.99 170.05 480.03 162.89 480.00 156.00 C 479.97 149.11 480.07 141.77 480.00 135.00 C 479.93 128.23 480.15 120.48 480.00 114.00 C 479.85 107.52 480.33 98.85 480.00 93.00 C 479.67 87.15 480.74 76.45 480.00 72.00 C 479.26 67.55 480.10 54.12 486.00 56.00
C 484.04 52.24 482.21 50.33 478.00 49.00
C 483.30 54.36 468.43 57.55 463.00 56.00 C 457.57 54.45 445.80 56.71 439.00 56.00 C 432.20 55.29 422.36 56.33 415.00 56.00 C 407.64 55.67 399.66 56.14 392.00 56.00 C 384.34 55.86 375.81 56.06 368.00 56.00 C 360.19 55.94 351.84 56.03 344.00 56.00 C 336.16 55.97 328.87 56.01 321.00 56.00 C 313.13 55.99 304.91 56.01 297.00 56.00 C 289.09 55.99 280.89 56.00 273.00 56.00 C 265.11 56.00 257.90 56.00 250.00 56.00 C 242.10 56.00 233.94 56.00 226.00 56.00 C 218.06 56.00 209.94 55.99 202.00 56.00 C 194.06 56.01 185.89 55.99 178.00 56.00 C 170.11 56.01 162.88 55.97 155.00 56.00 C 147.12 56.03 138.90 55.93 131.00 56.00 C 123.10 56.07 114.85 55.86 107.00 56.00 C 99.15 56.14 91.79 55.67 84.00 56.00 C 76.21 56.33 67.70 55.29 60.00 56.00 C 52.30 56.71 43.89 54.11 36.70 56.70 C 29.51 59.28 32.37 68.19 32.00 75.00 C 31.63 81.81 32.17 91.55 32.00 99.00 C 31.83 106.45 32.08 115.28 32.00 123.00 C 31.92 130.72 32.03 139.21 32.00 147.00 C 31.97 154.79 32.01 162.16 32.00 170.00 C 31.99 177.84 32.00 186.11 32.00 194.00 C 32.00 201.89 31.99 210.14 32.00 218.00 C 32.01 225.86 31.97 233.16 32.00 241.00 C 32.03 248.84 31.94 257.18 32.00 265.00 C 32.06 272.82 31.86 281.32 32.00 289.00 C 32.14 296.68 31.68 304.61 32.00 312.00 C 32.32 319.39 31.33 329.14 32.00 336.00 C 32.67 342.86 30.52 354.43 32.00 360.00 C 33.48 365.57 30.14 379.08 25.00 374.00
M 460.00 64.00 
C 478.54 67.84 470.87 93.47 472.00 109.00 C 473.13 124.53 471.37 148.75 472.00 166.00 C 472.63 183.25 471.44 206.35 472.00 224.00 C 472.56 241.65 471.12 263.98 472.00 281.00 C 472.88 298.02 474.52 319.93 454.00 320.00 C 433.48 320.07 415.76 319.99 396.00 320.00 C 376.24 320.01 358.38 320.05 339.00 320.00 C 319.62 319.95 301.24 320.14 282.00 320.00 C 262.76 319.86 243.15 320.32 224.00 320.00 C 204.85 319.68 186.04 320.73 167.00 320.00 C 147.96 319.27 128.96 321.63 110.00 320.00 C 91.04 318.37 70.99 323.69 52.33 319.67 C 33.67 315.65 40.97 290.86 40.00 275.00 C 39.03 259.14 40.56 235.40 40.00 218.00 C 39.44 200.60 40.53 177.72 40.00 160.00 C 39.47 142.28 40.87 120.05 40.00 103.00 C 39.13 85.95 37.48 64.09 58.00 64.00 C 78.53 63.92 96.23 64.01 116.00 64.00 C 135.77 63.99 153.63 63.95 173.00 64.00 C 192.37 64.05 210.78 63.85 230.00 64.00 C 249.22 64.15 268.88 63.65 288.00 64.00 C 307.12 64.35 326.03 63.21 345.00 64.00 C 363.97 64.79 383.19 62.24 402.00 64.00 C 420.81 65.76 441.57 60.18 460.00 64.00
M 262.00 344.00 
C 264.50 345.29 267.60 358.73 260.92 359.92 C 254.23 361.10 248.09 359.75 248.00 352.00 C 247.91 344.25 254.94 340.35 262.00 344.00 Z"/>
</g>
<g fill="None" fill-opacity="0.0" stroke="#6F7782" stroke-opacity="1.00" stroke-width="0.3"><path d="
M 32.00 382.00 
C 45.99 389.31 67.59 382.27 84.00 384.00 C 100.41 385.73 120.14 383.87 137.00 384.00 C 153.86 384.13 172.80 384.95 189.00 385.00
C 234.82 385.14 281.76 384.00 328.00 384.00
C 344.42 384.00 360.55 384.32 377.00 384.00 C 393.45 383.68 409.44 384.84 426.00 384.00 C 442.56 383.16 458.18 385.93 474.99 383.99 C 491.80 382.05 488.03 362.10 488.00 348.00 C 487.97 333.90 488.07 314.29 488.00 299.00 C 487.93 283.71 488.16 265.79 488.00 250.00 C 487.84 234.21 488.36 216.92 488.00 201.00 C 487.64 185.08 488.79 167.78 488.00 152.00 C 487.21 136.22 489.76 118.27 488.00 103.00 C 486.24 87.73 492.82 69.05 486.00 56.00
C 480.10 54.12 479.26 67.55 480.00 72.00 C 480.74 76.45 479.67 87.15 480.00 93.00 C 480.33 98.85 479.85 107.52 480.00 114.00 C 480.15 120.48 479.93 128.23 480.00 135.00 C 480.07 141.77 479.97 149.11 480.00 156.00 C 480.03 162.89 479.99 170.05 480.00 177.00 C 480.01 183.95 479.99 191.02 480.00 198.00 C 480.01 204.98 480.00 212.00 480.00 219.00 C 480.00 226.00 480.00 232.99 480.00 240.00 C 480.00 247.01 479.99 253.98 480.00 261.00 C 480.01 268.02 479.99 274.95 480.00 282.00 C 480.01 289.05 479.97 295.88 480.00 303.00 C 480.03 310.12 479.94 317.86 480.00 325.00 C 480.06 332.14 479.87 338.86 480.00 346.00 C 480.13 353.14 479.72 359.77 480.00 367.00 C 480.28 374.22 474.70 376.61 468.00 376.00 C 461.30 375.39 453.87 376.28 447.00 376.00 C 440.13 375.72 432.94 376.12 426.00 376.00 C 419.06 375.88 411.97 376.06 405.00 376.00 C 398.03 375.94 390.99 376.03 384.00 376.00 C 377.01 375.97 370.00 376.01 363.00 376.00 C 356.00 375.99 349.02 376.01 342.00 376.00 C 334.98 375.99 328.04 376.00 321.00 376.00 C 313.96 376.00 307.10 376.00 300.00 376.00 C 292.90 376.00 285.10 376.00 278.00 376.00 C 270.90 376.00 264.04 376.00 257.00 376.00 C 249.96 376.00 243.02 376.00 236.00 376.00 C 228.98 376.00 222.01 376.00 215.00 376.00 C 207.99 376.00 200.99 376.00 194.00 376.00 C 187.01 376.00 179.98 376.01 173.00 376.00 C 166.02 375.99 158.95 376.01 152.00 376.00 C 145.05 375.99 137.90 376.03 131.00 376.00 C 124.10 375.97 116.77 376.07 110.00 376.00 C 103.23 375.93 95.50 376.15 89.00 376.00 C 82.50 375.85 73.89 376.34 68.00 376.00 C 62.11 375.66 51.55 376.75 47.00 376.00 C 42.45 375.25 30.21 376.41 32.00 382.00 Z"/>
</g>
<g fill="None" fill-opacity="0.0" stroke="#3766D5" stroke-opacity="1.00" stroke-width="0.3"><path d="
M 460.00 64.00 
C 441.57 60.18 420.81 65.76 402.00 64.00 C 383.19 62.24 363.97 64.79 345.00 64.00 C 326.03 63.21 307.12 64.35 288.00 64.00 C 268.88 63.65 249.22 64.15 230.00 64.00 C 210.78 63.85 192.37 64.05 173.00 64.00 C 153.63 63.95 135.77 63.99 116.00 64.00 C 96.23 64.01 78.53 63.92 58.00 64.00 C 37.48 64.09 39.13 85.95 40.00 103.00 C 40.87 120.05 39.47 142.28 40.00 160.00 C 40.53 177.72 39.44 200.60 40.00 218.00 C 40.56 235.40 39.03 259.14 40.00 275.00 C 40.97 290.86 33.67 315.65 52.33 319.67 C 70.99 323.69 91.04 318.37 110.00 320.00 C 128.96 321.63 147.96 319.27 167.00 320.00 C 186.04 320.73 204.85 319.68 224.00 320.00 C 243.15 320.32 262.76 319.86 282.00 320.00 C 301.24 320.14 319.62 319.95 339.00 320.00 C 358.38 320.05 376.24 320.01 396.00 320.00 C 415.76 319.99 433.48 320.07 454.00 320.00 C 474.52 319.93 472.88 298.02 472.00 281.00 C 471.12 263.98 472.56 241.65 472.00 224.00 C 471.44 206.35 472.63 183.25 472.00 166.00 C 471.37 148.75 473.13 124.53 472.00 109.00 C 470.87 93.47 478.54 67.84 460.00 64.00
M 257.00 89.00 
C 266.78 89.95 278.57 93.21 287.69 97.31 C 296.82 101.40 304.06 105.58 311.75 112.25 C 319.45 118.91 323.91 124.94 329.77 133.23 C 335.63 141.52 338.62 151.07 341.98 161.02 C 345.33 170.98 344.61 185.60 344.07 196.07 C 343.54 206.55 338.92 217.95 335.69 226.69 C 332.47 235.44 320.00 243.81 326.25 250.75 C 332.50 257.69 338.65 264.18 345.75 270.25 C 352.86 276.32 361.41 285.86 350.75 291.75 C 340.09 297.65 336.51 278.81 328.75 276.25 C 320.99 273.68 316.71 255.75 308.30 260.31 C 299.90 264.86 293.70 271.69 283.78 274.78 C 273.85 277.86 262.15 280.90 251.00 281.00 C 239.85 281.10 226.46 279.17 216.77 275.23 C 207.09 271.29 199.05 268.19 191.30 261.70 C 183.56 255.20 177.69 250.37 171.75 242.25 C 165.81 234.13 161.53 225.60 158.07 215.93 C 154.62 206.25 152.79 192.75 153.00 182.00 C 153.21 171.25 156.42 159.57 159.93 149.93 C 163.44 140.29 168.52 132.62 174.75 124.75 C 180.99 116.89 186.81 111.57 195.08 106.08 C 203.36 100.59 211.22 95.86 221.22 93.22 C 231.22 90.59 244.87 87.83 256.00 89.00 Z"/>
</g>
<g fill="None" fill-opacity="0.0" stroke="#6FB6E7" stroke-opacity="1.00" stroke-width="0.3"><path d="
M 256.00 89.00 
C 244.87 87.83 231.22 90.59 221.22 93.22 C 211.22 95.86 203.36 100.59 195.08 106.08 C 186.81 111.57 180.99 116.89 174.75 124.75 C 168.52 132.62 163.44 140.29 159.93 149.93 C 156.42 159.57 153.21 171.25 153.00 182.00 C 152.79 192.75 154.62 206.25 158.07 215.93 C 161.53 225.60 165.81 234.13 171.75 242.25 C 177.69 250.37 183.56 255.20 191.30 261.70 C 199.05 268.19 207.09 271.29 216.77 275.23 C 226.46 279.17 239.85 281.10 251.00 281.00 C 262.15 280.90 273.85 277.86 283.78 274.78 C 293.70 271.69 299.90 264.86 308.30 260.31 C 316.71 255.75 320.99 273.68 328.75 276.25 C 336.51 278.81 340.09 297.65 350.75 291.75 C 361.41 285.86 352.86 276.32 345.75 270.25 C 338.65 264.18 332.50 257.69 326.25 250.75 C 320.00 243.81 332.47 235.44 335.69 226.69 C 338.92 217.95 343.54 206.55 344.07 196.07 C 344.61 185.60 345.33 170.98 341.98 161.02 C 338.62 151.07 335.63 141.52 329.77 133.23 C 323.91 124.94 319.45 118.91 311.75 112.25 C 304.06 105.58 296.82 101.40 287.69 97.31 C 278.57 93.21 266.78 89.95 257.00 89.00
M 256.00 105.00 
C 315.61 110.77 349.23 181.97 314.75 230.75 C 280.27 279.52 207.19 275.26 178.25 222.75 C 149.31 170.25 194.02 99.00 256.00 105.00 Z"/>
</g>
<g fill="None" fill-opacity="0.0" stroke="#A8D1EC" stroke-opacity="1.00" stroke-width="0.3"><path d="
M 256.00 105.00 
C 194.02 99.00 149.31 170.25 178.25 222.75 C 207.19 275.26 280.27 279.52 314.75 230.75 C 349.23 181.97 315.61 110.77 256.00 105.00
M 259.00 145.00 
C 281.25 147.69 321.41 163.86 311.67 193.67 C 301.94 223.49 263.92 223.84 239.78 224.22 C 215.64 224.60 177.18 204.07 186.78 176.78 C 196.38 149.48 234.23 142.01 259.00 145.00 Z"/>
</g>
<g fill="None" fill-opacity="0.0" stroke="#37A0E8" stroke-opacity="1.00" stroke-width="0.3"><path d="
M 259.00 145.00 
C 234.23 142.01 196.38 149.48 186.78 176.78 C 177.18 204.07 215.64 224.60 239.78 224.22 C 263.92 223.84 301.94 223.49 311.67 193.67 C 321.41 163.86 281.25 147.69 259.00 145.00
M 254.00 161.00 
C 284.21 167.26 274.56 215.59 244.00 209.00 C 213.44 202.41 224.19 154.83 254.00 161.00 Z"/>
</g>
<g fill="None" fill-opacity="0.0" stroke="#A7D1EC" stroke-opacity="1.00" stroke-width="0.3"><path d="
M 254.00 161.00 
C 224.19 154.83 213.44 202.41 244.00 209.00 C 274.56 215.59 284.21 167.26 254.00 161.00
M 251.00 177.00 
C 261.08 178.46 257.15 195.93 247.00 193.00 C 236.84 190.07 241.58 175.64 251.00 177.00 Z"/>
</g>
<g fill="None" fill-opacity="0.0" stroke="#3AA1E8" stroke-opacity="1.00" stroke-width="0.3"><path d="
M 251.00 177.00 
C 241.58 175.64 236.84 190.07 247.00 193.00 C 257.15 195.93 261.08 178.46 251.00 177.00 Z"/>
</g>
<g fill="None" fill-opacity="0.0" stroke="#6F7782" stroke-opacity="1.00" stroke-width="0.3"><path d="
M 262.00 344.00 
C 254.94 340.35 247.91 344.25 248.00 352.00 C 248.09 359.75 254.23 361.10 260.92 359.92 C 267.60 358.73 264.50 345.29 262.00 344.00 Z"/>
</g>
<g fill="None" fill-opacity="0.0" stroke="#4B6584" stroke-opacity="0.99" stroke-width="0.3"><path d="
M 189.00 385.00 
C 184.72 387.73 181.78 396.11 179.00 400.00
C 186.79 397.44 196.74 401.10 205.00 400.00 C 213.26 398.90 222.54 400.36 231.00 400.00 C 239.46 399.64 249.60 399.93 258.00 400.00 C 266.40 400.07 275.98 399.41 284.00 400.00 C 292.02 400.59 303.84 398.56 311.00 400.00 C 318.16 401.44 316.62 412.18 321.77 415.23 C 326.92 418.28 326.86 429.65 332.00 432.00
C 340.67 432.00 349.33 432.00 358.00 432.00
C 355.17 426.95 351.99 420.25 348.25 415.75 C 344.52 411.24 342.24 403.54 338.25 399.75 C 334.27 395.95 332.73 386.07 328.00 384.00
C 281.76 384.00 234.82 385.14 189.00 385.00 Z"/>
</g>
<g fill="None" fill-opacity="0.0" stroke="#778CA3" stroke-opacity="1.00" stroke-width="0.3"><path d="
M 156.00 431.00 
C 213.78 431.17 273.48 432.00 332.00 432.00
C 326.86 429.65 326.92 418.28 321.77 415.23 C 316.62 412.18 318.16 401.44 311.00 400.00 C 303.84 398.56 292.02 400.59 284.00 400.00 C 275.98 399.41 266.40 400.07 258.00 400.00 C 249.60 399.93 239.46 399.64 231.00 400.00 C 222.54 400.36 213.26 398.90 205.00 400.00 C 196.74 401.10 186.79 397.44 179.00 400.00
C 175.70 404.62 170.95 410.95 167.25 415.25 C 163.54 419.55 160.39 428.08 156.00 431.00 Z"/>
</g>
<g fill="None" fill-opacity="0.0" stroke="#D0D7DF" stroke-opacity="0.99" stroke-width="0.3"><path d="
M 122.00 456.00 
C 128.27 458.01 126.38 446.52 129.31 443.31 C 132.23 440.09 140.30 439.42 146.00 440.00 C 151.70 440.58 159.66 439.75 166.00 440.00 C 172.34 440.25 180.42 439.88 187.00 440.00 C 193.58 440.12 200.34 439.95 207.00 440.00 C 213.66 440.05 220.26 439.97 227.00 440.00 C 233.74 440.03 241.25 439.98 248.00 440.00 C 254.75 440.02 261.32 439.98 268.00 440.00 C 274.68 440.02 281.37 439.97 288.00 440.00 C 294.63 440.03 301.44 439.93 308.00 440.00 C 314.56 440.07 322.69 439.85 329.00 440.00 C 335.31 440.15 343.36 439.65 349.00 440.00 C 354.64 440.35 364.71 439.22 369.00 440.00 C 373.29 440.78 385.79 439.61 384.00 434.00
C 377.01 430.35 366.35 432.00 358.00 432.00
C 349.33 432.00 340.67 432.00 332.00 432.00
C 273.48 432.00 213.78 431.17 156.00 431.00
C 147.08 430.97 135.46 431.01 127.08 434.08 C 118.70 437.15 118.80 449.87 122.00 456.00 Z"/>
</g>
<g fill="None" fill-opacity="0.0" stroke="#A5B0C1" stroke-opacity="1.00" stroke-width="0.3"><path d="
M 122.00 456.00 
C 123.67 459.20 124.79 460.32 128.00 462.00
C 126.29 456.60 138.04 455.24 143.00 456.00 C 147.96 456.76 158.74 455.66 165.00 456.00 C 171.26 456.34 180.16 455.85 187.00 456.00 C 193.84 456.15 201.91 455.93 209.00 456.00 C 216.09 456.07 223.81 455.97 231.00 456.00 C 238.19 456.03 245.81 455.98 253.00 456.00 C 260.19 456.02 266.81 455.98 274.00 456.00 C 281.19 456.02 288.80 455.97 296.00 456.00 C 303.20 456.03 310.88 455.94 318.00 456.00 C 325.12 456.06 333.09 455.88 340.00 456.00 C 346.91 456.12 355.59 455.72 362.00 456.00 C 368.41 456.28 377.36 456.33 381.75 453.75 C 386.13 451.16 383.20 437.85 390.00 440.00
C 388.33 436.80 387.21 435.68 384.00 434.00
C 385.79 439.61 373.29 440.78 369.00 440.00 C 364.71 439.22 354.64 440.35 349.00 440.00 C 343.36 439.65 335.31 440.15 329.00 440.00 C 322.69 439.85 314.56 440.07 308.00 440.00 C 301.44 439.93 294.63 440.03 288.00 440.00 C 281.37 439.97 274.68 440.02 268.00 440.00 C 261.32 439.98 254.75 440.02 248.00 440.00 C 241.25 439.98 233.74 440.03 227.00 440.00 C 220.26 439.97 213.66 440.05 207.00 440.00 C 200.34 439.95 193.58 440.12 187.00 440.00 C 180.42 439.88 172.34 440.25 166.00 440.00 C 159.66 439.75 151.70 440.58 146.00 440.00 C 140.30 439.42 132.23 440.09 129.31 443.31 C 126.38 446.52 128.27 458.01 122.00 456.00 Z"/>
</g>
<g fill="None" fill-opacity="0.0" stroke="#6F7782" stroke-opacity="0.99" stroke-width="0.3"><path d="
M 128.00 462.00 
C 143.50 470.10 167.01 461.47 185.00 464.00 C 202.99 466.53 224.53 462.52 243.00 464.00 C 261.47 465.48 283.74 462.55 302.00 464.00 C 320.26 465.45 342.82 461.60 360.00 464.00 C 377.18 466.40 400.73 460.53 390.00 440.00
C 383.20 437.85 386.13 451.16 381.75 453.75 C 377.36 456.33 368.41 456.28 362.00 456.00 C 355.59 455.72 346.91 456.12 340.00 456.00 C 333.09 455.88 325.12 456.06 318.00 456.00 C 310.88 455.94 303.20 456.03 296.00 456.00 C 288.80 455.97 281.19 456.02 274.00 456.00 C 266.81 455.98 260.19 456.02 253.00 456.00 C 245.81 455.98 238.19 456.03 231.00 456.00 C 223.81 455.97 216.09 456.07 209.00 456.00 C 201.91 455.93 193.84 456.15 187.00 456.00 C 180.16 455.85 171.26 456.34 165.00 456.00 C 158.74 455.66 147.96 456.76 143.00 456.00 C 138.04 455.24 126.29 456.60 128.00 462.00 Z"/>
</g>
<g fill="#000000" fill-opacity="0.00" stroke="None">
<path d="
M 0.00 512.00 
L 512.00 512.00
L 512.00 0.00
L 0.00 0.00
L 0.00 512.00
M 478.00 49.00 
C 482.21 50.33 484.04 52.24 486.00 56.00
C 492.82 69.05 486.24 87.73 488.00 103.00 C 489.76 118.27 487.21 136.22 488.00 152.00 C 488.79 167.78 487.64 185.08 488.00 201.00 C 488.36 216.92 487.84 234.21 488.00 250.00 C 488.16 265.79 487.93 283.71 488.00 299.00 C 488.07 314.29 487.97 333.90 488.00 348.00 C 488.03 362.10 491.80 382.05 474.99 383.99 C 458.18 385.93 442.56 383.16 426.00 384.00 C 409.44 384.84 393.45 383.68 377.00 384.00 C 360.55 384.32 344.42 384.00 328.00 384.00
C 332.73 386.07 334.27 395.95 338.25 399.75 C 342.24 403.54 344.52 411.24 348.25 415.75 C 351.99 420.25 355.17 426.95 358.00 432.00
C 366.35 432.00 377.01 430.35 384.00 434.00
C 387.21 435.68 388.33 436.80 390.00 440.00
C 400.73 460.53 377.18 466.40 360.00 464.00 C 342.82 461.60 320.26 465.45 302.00 464.00 C 283.74 462.55 261.47 465.48 243.00 464.00 C 224.53 462.52 202.99 466.53 185.00 464.00 C 167.01 461.47 143.50 470.10 128.00 462.00
C 124.79 460.32 123.67 459.20 122.00 456.00
C 118.80 449.87 118.70 437.15 127.08 434.08 C 135.46 431.01 147.08 430.97 156.00 431.00
C 160.39 428.08 163.54 419.55 167.25 415.25 C 170.95 410.95 175.70 404.62 179.00 400.00
C 181.78 396.11 184.72 387.73 189.00 385.00
C 172.80 384.95 153.86 384.13 137.00 384.00 C 120.14 383.87 100.41 385.73 84.00 384.00 C 67.59 382.27 45.99 389.31 32.00 382.00
C 28.22 380.03 26.33 378.22 25.00 374.00
C 19.83 357.66 25.58 337.75 24.00 320.00 C 22.42 302.25 24.59 282.03 24.00 264.00 C 23.41 245.97 24.00 225.88 24.00 208.00 C 24.00 190.12 23.40 169.21 24.00 152.00 C 24.60 134.79 22.40 111.57 24.00 96.00 C 25.60 80.43 16.60 55.33 33.08 49.08 C 49.55 42.82 70.25 50.13 88.00 48.00 C 105.75 45.87 124.80 48.92 143.00 48.00 C 161.20 47.08 180.56 48.36 199.00 48.00 C 217.44 47.64 236.49 48.04 255.00 48.00 C 273.51 47.96 292.51 47.74 311.00 48.00 C 329.49 48.26 348.65 47.27 367.00 48.00 C 385.35 48.73 405.00 46.31 423.00 48.00 C 441.00 49.69 461.45 43.77 478.00 49.00 Z"/>
</g>
<g fill="#D0D7DF" fill-opacity="1.00" stroke="None">
<path d="
M 25.00 374.00 
C 30.14 379.08 33.48 365.57 32.00 360.00 C 30.52 354.43 32.67 342.86 32.00 336.00 C 31.33 329.14 32.32 319.39 32.00 312.00 C 31.68 304.61 32.14 296.68 32.00 289.00 C 31.86 281.32 32.06 272.82 32.00 265.00 C 31.94 257.18 32.03 248.84 32.00 241.00 C 31.97 233.16 32.01 225.86 32.00 218.00 C 31.99 210.14 32.00 201.89 32.00 194.00 C 32.00 186.11 31.99 177.84 32.00 170.00 C 32.01 162.16 31.97 154.79 32.00 147.00 C 32.03 139.21 31.92 130.72 32.00 123.00 C 32.08 115.28 31.83 106.45 32.00 99.00 C 32.17 91.55 31.63 81.81 32.00 75.00 C 32.37 68.19 29.51 59.28 36.70 56.70 C 43.89 54.11 52.30 56.71 60.00 56.00 C 67.70 55.29 76.21 56.33 84.00 56.00 C 91.79 55.67 99.15 56.14 107.00 56.00 C 114.85 55.86 123.10 56.07 131.00 56.00 C 138.90 55.93 147.12 56.03 155.00 56.00 C 162.88 55.97 170.11 56.01 178.00 56.00 C 185.89 55.99 194.06 56.01 202.00 56.00 C 209.94 55.99 218.06 56.00 226.00 56.00 C 233.94 56.00 242.10 56.00 250.00 56.00 C 257.90 56.00 265.11 56.00 273.00 56.00 C 280.89 56.00 289.09 55.99 297.00 56.00 C 304.91 56.01 313.13 55.99 321.00 56.00 C 328.87 56.01 336.16 55.97 344.00 56.00 C 351.84 56.03 360.19 55.94 368.00 56.00 C 375.81 56.06 384.34 55.86 392.00 56.00 C 399.66 56.14 407.64 55.67 415.00 56.00 C 422.36 56.33 432.20 55.29 439.00 56.00 C 445.80 56.71 457.57 54.45 463.00 56.00 C 468.43 57.55 483.30 54.36 478.00 49.00
C 461.45 43.77 441.00 49.69 423.00 48.00 C 405.00 46.31 385.35 48.73 367.00 48.00 C 348.65 47.27 329.49 48.26 311.00 48.00 C 292.51 47.74 273.51 47.96 255.00 48.00 C 236.49 48.04 217.44 47.64 199.00 48.00 C 180.56 48.36 161.20 47.08 143.00 48.00 C 124.80 48.92 105.75 45.87 88.00 48.00 C 70.25 50.13 49.55 42.82 33.08 49.08 C 16.60 55.33 25.60 80.43 24.00 96.00 C 22.40 111.57 24.60 134.79 24.00 152.00 C 23.40 169.21 24.00 190.12 24.00 208.00 C 24.00 225.88 23.41 245.97 24.00 264.00 C 24.59 282.03 22.42 302.25 24.00 320.00 C 25.58 337.75 19.83 357.66 25.00 374.00 Z"/>
</g>
<g fill="#A4B0C1" fill-opacity="1.00" stroke="None">
<path d="
M 25.00 374.00 
C 26.33 378.22 28.22 380.03 32.00 382.00
C 30.21 376.41 42.45 375.25 47.00 376.00 C 51.55 376.75 62.11 375.66 68.00 376.00 C 73.89 376.34 82.50 375.85 89.00 376.00 C 95.50 376.15 103.23 375.93 110.00 376.00 C 116.77 376.07 124.10 375.97 131.00 376.00 C 137.90 376.03 145.05 375.99 152.00 376.00 C 158.95 376.01 166.02 375.99 173.00 376.00 C 179.98 376.01 187.01 376.00 194.00 376.00 C 200.99 376.00 207.99 376.00 215.00 376.00 C 222.01 376.00 228.98 376.00 236.00 376.00 C 243.02 376.00 249.96 376.00 257.00 376.00 C 264.04 376.00 270.90 376.00 278.00 376.00 C 285.10 376.00 292.90 376.00 300.00 376.00 C 307.10 376.00 313.96 376.00 321.00 376.00 C 328.04 376.00 334.98 375.99 342.00 376.00 C 349.02 376.01 356.00 375.99 363.00 376.00 C 370.00 376.01 377.01 375.97 384.00 376.00 C 390.99 376.03 398.03 375.94 405.00 376.00 C 411.97 376.06 419.06 375.88 426.00 376.00 C 432.94 376.12 440.13 375.72 447.00 376.00 C 453.87 376.28 461.30 375.39 468.00 376.00 C 474.70 376.61 480.28 374.22 480.00 367.00 C 479.72 359.77 480.13 353.14 480.00 346.00 C 479.87 338.86 480.06 332.14 480.00 325.00 C 479.94 317.86 480.03 310.12 480.00 303.00 C 479.97 295.88 480.01 289.05 480.00 282.00 C 479.99 274.95 480.01 268.02 480.00 261.00 C 479.99 253.98 480.00 247.01 480.00 240.00 C 480.00 232.99 480.00 226.00 480.00 219.00 C 480.00 212.00 480.01 204.98 480.00 198.00 C 479.99 191.02 480.01 183.95 480.00 177.00 C 479.99 170.05 480.03 162.89 480.00 156.00 C 479.97 149.11 480.07 141.77 480.00 135.00 C 479.93 128.23 480.15 120.48 480.00 114.00 C 479.85 107.52 480.33 98.85 480.00 93.00 C 479.67 87.15 480.74 76.45 480.00 72.00 C 479.26 67.55 480.10 54.12 486.00 56.00
C 484.04 52.24 482.21 50.33 478.00 49.00
C 483.30 54.36 468.43 57.55 463.00 56.00 C 457.57 54.45 445.80 56.71 439.00 56.00 C 432.20 55.29 422.36 56.33 415.00 56.00 C 407.64 55.67 399.66 56.14 392.00 56.00 C 384.34 55.86 375.81 56.06 368.00 56.00 C 360.19 55.94 351.84 56.03 344.00 56.00 C 336.16 55.97 328.87 56.01 321.00 56.00 C 313.13 55.99 304.91 56.01 297.00 56.00 C 289.09 55.99 280.89 56.00 273.00 56.00 C 265.11 56.00 257.90 56.00 250.00 56.00 C 242.10 56.00 233.94 56.00 226.00 56.00 C 218.06 56.00 209.94 55.99 202.00 56.00 C 194.06 56.01 185.89 55.99 178.00 56.00 C 170.11 56.01 162.88 55.97 155.00 56.00 C 147.12 56.03 138.90 55.93 131.00 56.00 C 123.10 56.07 114.85 55.86 107.00 56.00 C 99.15 56.14 91.79 55.67 84.00 56.00 C 76.21 56.33 67.70 55.29 60.00 56.00 C 52.30 56.71 43.89 54.11 36.70 56.70 C 29.51 59.28 32.37 68.19 32.00 75.00 C 31.63 81.81 32.17 91.55 32.00 99.00 C 31.83 106.45 32.08 115.28 32.00 123.00 C 31.92 130.72 32.03 139.21 32.00 147.00 C 31.97 154.79 32.01 162.16 32.00 170.00 C 31.99 177.84 32.00 186.11 32.00 194.00 C 32.00 201.89 31.99 210.14 32.00 218.00 C 32.01 225.86 31.97 233.16 32.00 241.00 C 32.03 248.84 31.94 257.18 32.00 265.00 C 32.06 272.82 31.86 281.32 32.00 289.00 C 32.14 296.68 31.68 304.61 32.00 312.00 C 32.32 319.39 31.33 329.14 32.00 336.00 C 32.67 342.86 30.52 354.43 32.00 360.00 C 33.48 365.57 30.14 379.08 25.00 374.00
M 460.00 64.00 
C 478.54 67.84 470.87 93.47 472.00 109.00 C 473.13 124.53 471.37 148.75 472.00 166.00 C 472.63 183.25 471.44 206.35 472.00 224.00 C 472.56 241.65 471.12 263.98 472.00 281.00 C 472.88 298.02 474.52 319.93 454.00 320.00 C 433.48 320.07 415.76 319.99 396.00 320.00 C 376.24 320.01 358.38 320.05 339.00 320.00 C 319.62 319.95 301.24 320.14 282.00 320.00 C 262.76 319.86 243.15 320.32 224.00 320.00 C 204.85 319.68 186.04 320.73 167.00 320.00 C 147.96 319.27 128.96 321.63 110.00 320.00 C 91.04 318.37 70.99 323.69 52.33 319.67 C 33.67 315.65 40.97 290.86 40.00 275.00 C 39.03 259.14 40.56 235.40 40.00 218.00 C 39.44 200.60 40.53 177.72 40.00 160.00 C 39.47 142.28 40.87 120.05 40.00 103.00 C 39.13 85.95 37.48 64.09 58.00 64.00 C 78.53 63.92 96.23 64.01 116.00 64.00 C 135.77 63.99 153.63 63.95 173.00 64.00 C 192.37 64.05 210.78 63.85 230.00 64.00 C 249.22 64.15 268.88 63.65 288.00 64.00 C 307.12 64.35 326.03 63.21 345.00 64.00 C 363.97 64.79 383.19 62.24 402.00 64.00 C 420.81 65.76 441.57 60.18 460.00 64.00
M 262.00 344.00 
C 264.50 345.29 267.60 358.73 260.92 359.92 C 254.23 361.10 248.09 359.75 248.00 352.00 C 247.91 344.25 254.94 340.35 262.00 344.00 Z"/>
</g>
<g fill="#6F7782" fill-opacity="1.00" stroke="None">
<path d="
M 32.00 382.00 
C 45.99 389.31 67.59 382.27 84.00 384.00 C 100.41 385.73 120.14 383.87 137.00 384.00 C 153.86 384.13 172.80 384.95 189.00 385.00
C 234.82 385.14 281.76 384.00 328.00 384.00
C 344.42 384.00 360.55 384.32 377.00 384.00 C 393.45 383.68 409.44 384.84 426.00 384.00 C 442.56 383.16 458.18 385.93 474.99 383.99 C 491.80 382.05 488.03 362.10 488.00 348.00 C 487.97 333.90 488.07 314.29 488.00 299.00 C 487.93 283.71 488.16 265.79 488.00 250.00 C 487.84 234.21 488.36 216.92 488.00 201.00 C 487.64 185.08 488.79 167.78 488.00 152.00 C 487.21 136.22 489.76 118.27 488.00 103.00 C 486.24 87.73 492.82 69.05 486.00 56.00
C 480.10 54.12 479.26 67.55 480.00 72.00 C 480.74 76.45 479.67 87.15 480.00 93.00 C 480.33 98.85 479.85 107.52 480.00 114.00 C 480.15 120.48 479.93 128.23 480.00 135.00 C 480.07 141.77 479.97 149.11 480.00 156.00 C 480.03 162.89 479.99 170.05 480.00 177.00 C 480.01 183.95 479.99 191.02 480.00 198.00 C 480.01 204.98 480.00 212.00 480.00 219.00 C 480.00 226.00 480.00 232.99 480.00 240.00 C 480.00 247.01 479.99 253.98 480.00 261.00 C 480.01 268.02 479.99 274.95 480.00 282.00 C 480.01 289.05 479.97 295.88 480.00 303.00 C 480.03 310.12 479.94 317.86 480.00 325.00 C 480.06 332.14 479.87 338.86 480.00 346.00 C 480.13 353.14 479.72 359.77 480.00 367.00 C 480.28 374.22 474.70 376.61 468.00 376.00 C 461.30 375.39 453.87 376.28 447.00 376.00 C 440.13 375.72 432.94 376.12 426.00 376.00 C 419.06 375.88 411.97 376.06 405.00 376.00 C 398.03 375.94 390.99 376.03 384.00 376.00 C 377.01 375.97 370.00 376.01 363.00 376.00 C 356.00 375.99 349.02 376.01 342.00 376.00 C 334.98 375.99 328.04 376.00 321.00 376.00 C 313.96 376.00 307.10 376.00 300.00 376.00 C 292.90 376.00 285.10 376.00 278.00 376.00 C 270.90 376.00 264.04 376.00 257.00 376.00 C 249.96 376.00 243.02 376.00 236.00 376.00 C 228.98 376.00 222.01 376.00 215.00 376.00 C 207.99 376.00 200.99 376.00 194.00 376.00 C 187.01 376.00 179.98 376.01 173.00 376.00 C 166.02 375.99 158.95 376.01 152.00 376.00 C 145.05 375.99 137.90 376.03 131.00 376.00 C 124.10 375.97 116.77 376.07 110.00 376.00 C 103.23 375.93 95.50 376.15 89.00 376.00 C 82.50 375.85 73.89 376.34 68.00 376.00 C 62.11 375.66 51.55 376.75 47.00 376.00 C 42.45 375.25 30.21 376.41 32.00 382.00 Z"/>
</g>
<g fill="#3766D5" fill-opacity="1.00" stroke="None">
<path d="
M 460.00 64.00 
C 441.57 60.18 420.81 65.76 402.00 64.00 C 383.19 62.24 363.97 64.79 345.00 64.00 C 326.03 63.21 307.12 64.35 288.00 64.00 C 268.88 63.65 249.22 64.15 230.00 64.00 C 210.78 63.85 192.37 64.05 173.00 64.00 C 153.63 63.95 135.77 63.99 116.00 64.00 C 96.23 64.01 78.53 63.92 58.00 64.00 C 37.48 64.09 39.13 85.95 40.00 103.00 C 40.87 120.05 39.47 142.28 40.00 160.00 C 40.53 177.72 39.44 200.60 40.00 218.00 C 40.56 235.40 39.03 259.14 40.00 275.00 C 40.97 290.86 33.67 315.65 52.33 319.67 C 70.99 323.69 91.04 318.37 110.00 320.00 C 128.96 321.63 147.96 319.27 167.00 320.00 C 186.04 320.73 204.85 319.68 224.00 320.00 C 243.15 320.32 262.76 319.86 282.00 320.00 C 301.24 320.14 319.62 319.95 339.00 320.00 C 358.38 320.05 376.24 320.01 396.00 320.00 C 415.76 319.99 433.48 320.07 454.00 320.00 C 474.52 319.93 472.88 298.02 472.00 281.00 C 471.12 263.98 472.56 241.65 472.00 224.00 C 471.44 206.35 472.63 183.25 472.00 166.00 C 471.37 148.75 473.13 124.53 472.00 109.00 C 470.87 93.47 478.54 67.84 460.00 64.00
M 257.00 89.00 
C 266.78 89.95 278.57 93.21 287.69 97.31 C 296.82 101.40 304.06 105.58 311.75 112.25 C 319.45 118.91 323.91 124.94 329.77 133.23 C 335.63 141.52 338.62 151.07 341.98 161.02 C 345.33 170.98 344.61 185.60 344.07 196.07 C 343.54 206.55 338.92 217.95 335.69 226.69 C 332.47 235.44 320.00 243.81 326.25 250.75 C 332.50 257.69 338.65 264.18 345.75 270.25 C 352.86 276.32 361.41 285.86 350.75 291.75 C 340.09 297.65 336.51 278.81 328.75 276.25 C 320.99 273.68 316.71 255.75 308.30 260.31 C 299.90 264.86 293.70 271.69 283.78 274.78 C 273.85 277.86 262.15 280.90 251.00 281.00 C 239.85 281.10 226.46 279.17 216.77 275.23 C 207.09 271.29 199.05 268.19 191.30 261.70 C 183.56 255.20 177.69 250.37 171.75 242.25 C 165.81 234.13 161.53 225.60 158.07 215.93 C 154.62 206.25 152.79 192.75 153.00 182.00 C 153.21 171.25 156.42 159.57 159.93 149.93 C 163.44 140.29 168.52 132.62 174.75 124.75 C 180.99 116.89 186.81 111.57 195.08 106.08 C 203.36 100.59 211.22 95.86 221.22 93.22 C 231.22 90.59 244.87 87.83 256.00 89.00 Z"/>
</g>
<g fill="#6FB6E7" fill-opacity="1.00" stroke="None">
<path d="
M 256.00 89.00 
C 244.87 87.83 231.22 90.59 221.22 93.22 C 211.22 95.86 203.36 100.59 195.08 106.08 C 186.81 111.57 180.99 116.89 174.75 124.75 C 168.52 132.62 163.44 140.29 159.93 149.93 C 156.42 159.57 153.21 171.25 153.00 182.00 C 152.79 192.75 154.62 206.25 158.07 215.93 C 161.53 225.60 165.81 234.13 171.75 242.25 C 177.69 250.37 183.56 255.20 191.30 261.70 C 199.05 268.19 207.09 271.29 216.77 275.23 C 226.46 279.17 239.85 281.10 251.00 281.00 C 262.15 280.90 273.85 277.86 283.78 274.78 C 293.70 271.69 299.90 264.86 308.30 260.31 C 316.71 255.75 320.99 273.68 328.75 276.25 C 336.51 278.81 340.09 297.65 350.75 291.75 C 361.41 285.86 352.86 276.32 345.75 270.25 C 338.65 264.18 332.50 257.69 326.25 250.75 C 320.00 243.81 332.47 235.44 335.69 226.69 C 338.92 217.95 343.54 206.55 344.07 196.07 C 344.61 185.60 345.33 170.98 341.98 161.02 C 338.62 151.07 335.63 141.52 329.77 133.23 C 323.91 124.94 319.45 118.91 311.75 112.25 C 304.06 105.58 296.82 101.40 287.69 97.31 C 278.57 93.21 266.78 89.95 257.00 89.00
M 256.00 105.00 
C 315.61 110.77 349.23 181.97 314.75 230.75 C 280.27 279.52 207.19 275.26 178.25 222.75 C 149.31 170.25 194.02 99.00 256.00 105.00 Z"/>
</g>
<g fill="#A8D1EC" fill-opacity="1.00" stroke="None">
<path d="
M 256.00 105.00 
C 194.02 99.00 149.31 170.25 178.25 222.75 C 207.19 275.26 280.27 279.52 314.75 230.75 C 349.23 181.97 315.61 110.77 256.00 105.00
M 259.00 145.00 
C 281.25 147.69 321.41 163.86 311.67 193.67 C 301.94 223.49 263.92 223.84 239.78 224.22 C 215.64 224.60 177.18 204.07 186.78 176.78 C 196.38 149.48 234.23 142.01 259.00 145.00 Z"/>
</g>
<g fill="#37A0E8" fill-opacity="1.00" stroke="None">
<path d="
M 259.00 145.00 
C 234.23 142.01 196.38 149.48 186.78 176.78 C 177.18 204.07 215.64 224.60 239.78 224.22 C 263.92 223.84 301.94 223.49 311.67 193.67 C 321.41 163.86 281.25 147.69 259.00 145.00
M 254.00 161.00 
C 284.21 167.26 274.56 215.59 244.00 209.00 C 213.44 202.41 224.19 154.83 254.00 161.00 Z"/>
</g>
<g fill="#A7D1EC" fill-opacity="1.00" stroke="None">
<path d="
M 254.00 161.00 
C 224.19 154.83 213.44 202.41 244.00 209.00 C 274.56 215.59 284.21 167.26 254.00 161.00
M 251.00 177.00 
C 261.08 178.46 257.15 195.93 247.00 193.00 C 236.84 190.07 241.58 175.64 251.00 177.00 Z"/>
</g>
<g fill="#3AA1E8" fill-opacity="1.00" stroke="None">
<path d="
M 251.00 177.00 
C 241.58 175.64 236.84 190.07 247.00 193.00 C 257.15 195.93 261.08 178.46 251.00 177.00 Z"/>
</g>
<g fill="#6F7782" fill-opacity="1.00" stroke="None">
<path d="
M 262.00 344.00 
C 254.94 340.35 247.91 344.25 248.00 352.00 C 248.09 359.75 254.23 361.10 260.92 359.92 C 267.60 358.73 264.50 345.29 262.00 344.00 Z"/>
</g>
<g fill="#4B6584" fill-opacity="0.99" stroke="None">
<path d="
M 189.00 385.00 
C 184.72 387.73 181.78 396.11 179.00 400.00
C 186.79 397.44 196.74 401.10 205.00 400.00 C 213.26 398.90 222.54 400.36 231.00 400.00 C 239.46 399.64 249.60 399.93 258.00 400.00 C 266.40 400.07 275.98 399.41 284.00 400.00 C 292.02 400.59 303.84 398.56 311.00 400.00 C 318.16 401.44 316.62 412.18 321.77 415.23 C 326.92 418.28 326.86 429.65 332.00 432.00
C 340.67 432.00 349.33 432.00 358.00 432.00
C 355.17 426.95 351.99 420.25 348.25 415.75 C 344.52 411.24 342.24 403.54 338.25 399.75 C 334.27 395.95 332.73 386.07 328.00 384.00
C 281.76 384.00 234.82 385.14 189.00 385.00 Z"/>
</g>
<g fill="#778CA3" fill-opacity="1.00" stroke="None">
<path d="
M 156.00 431.00 
C 213.78 431.17 273.48 432.00 332.00 432.00
C 326.86 429.65 326.92 418.28 321.77 415.23 C 316.62 412.18 318.16 401.44 311.00 400.00 C 303.84 398.56 292.02 400.59 284.00 400.00 C 275.98 399.41 266.40 400.07 258.00 400.00 C 249.60 399.93 239.46 399.64 231.00 400.00 C 222.54 400.36 213.26 398.90 205.00 400.00 C 196.74 401.10 186.79 397.44 179.00 400.00
C 175.70 404.62 170.95 410.95 167.25 415.25 C 163.54 419.55 160.39 428.08 156.00 431.00 Z"/>
</g>
<g fill="#D0D7DF" fill-opacity="0.99" stroke="None">
<path d="
M 122.00 456.00 
C 128.27 458.01 126.38 446.52 129.31 443.31 C 132.23 440.09 140.30 439.42 146.00 440.00 C 151.70 440.58 159.66 439.75 166.00 440.00 C 172.34 440.25 180.42 439.88 187.00 440.00 C 193.58 440.12 200.34 439.95 207.00 440.00 C 213.66 440.05 220.26 439.97 227.00 440.00 C 233.74 440.03 241.25 439.98 248.00 440.00 C 254.75 440.02 261.32 439.98 268.00 440.00 C 274.68 440.02 281.37 439.97 288.00 440.00 C 294.63 440.03 301.44 439.93 308.00 440.00 C 314.56 440.07 322.69 439.85 329.00 440.00 C 335.31 440.15 343.36 439.65 349.00 440.00 C 354.64 440.35 364.71 439.22 369.00 440.00 C 373.29 440.78 385.79 439.61 384.00 434.00
C 377.01 430.35 366.35 432.00 358.00 432.00
C 349.33 432.00 340.67 432.00 332.00 432.00
C 273.48 432.00 213.78 431.17 156.00 431.00
C 147.08 430.97 135.46 431.01 127.08 434.08 C 118.70 437.15 118.80 449.87 122.00 456.00 Z"/>
</g>
<g fill="#A5B0C1" fill-opacity="1.00" stroke="None">
<path d="
M 122.00 456.00 
C 123.67 459.20 124.79 460.32 128.00 462.00
C 126.29 456.60 138.04 455.24 143.00 456.00 C 147.96 456.76 158.74 455.66 165.00 456.00 C 171.26 456.34 180.16 455.85 187.00 456.00 C 193.84 456.15 201.91 455.93 209.00 456.00 C 216.09 456.07 223.81 455.97 231.00 456.00 C 238.19 456.03 245.81 455.98 253.00 456.00 C 260.19 456.02 266.81 455.98 274.00 456.00 C 281.19 456.02 288.80 455.97 296.00 456.00 C 303.20 456.03 310.88 455.94 318.00 456.00 C 325.12 456.06 333.09 455.88 340.00 456.00 C 346.91 456.12 355.59 455.72 362.00 456.00 C 368.41 456.28 377.36 456.33 381.75 453.75 C 386.13 451.16 383.20 437.85 390.00 440.00
C 388.33 436.80 387.21 435.68 384.00 434.00
C 385.79 439.61 373.29 440.78 369.00 440.00 C 364.71 439.22 354.64 440.35 349.00 440.00 C 343.36 439.65 335.31 440.15 329.00 440.00 C 322.69 439.85 314.56 440.07 308.00 440.00 C 301.44 439.93 294.63 440.03 288.00 440.00 C 281.37 439.97 274.68 440.02 268.00 440.00 C 261.32 439.98 254.75 440.02 248.00 440.00 C 241.25 439.98 233.74 440.03 227.00 440.00 C 220.26 439.97 213.66 440.05 207.00 440.00 C 200.34 439.95 193.58 440.12 187.00 440.00 C 180.42 439.88 172.34 440.25 166.00 440.00 C 159.66 439.75 151.70 440.58 146.00 440.00 C 140.30 439.42 132.23 440.09 129.31 443.31 C 126.38 446.52 128.27 458.01 122.00 456.00 Z"/>
</g>
<g fill="#6F7782" fill-opacity="0.99" stroke="None">
<path d="
M 128.00 462.00 
C 143.50 470.10 167.01 461.47 185.00 464.00 C 202.99 466.53 224.53 462.52 243.00 464.00 C 261.47 465.48 283.74 462.55 302.00 464.00 C 320.26 465.45 342.82 461.60 360.00 464.00 C 377.18 466.40 400.73 460.53 390.00 440.00
C 383.20 437.85 386.13 451.16 381.75 453.75 C 377.36 456.33 368.41 456.28 362.00 456.00 C 355.59 455.72 346.91 456.12 340.00 456.00 C 333.09 455.88 325.12 456.06 318.00 456.00 C 310.88 455.94 303.20 456.03 296.00 456.00 C 288.80 455.97 281.19 456.02 274.00 456.00 C 266.81 455.98 260.19 456.02 253.00 456.00 C 245.81 455.98 238.19 456.03 231.00 456.00 C 223.81 455.97 216.09 456.07 209.00 456.00 C 201.91 455.93 193.84 456.15 187.00 456.00 C 180.16 455.85 171.26 456.34 165.00 456.00 C 158.74 455.66 147.96 456.76 143.00 456.00 C 138.04 455.24 126.29 456.60 128.00 462.00 Z"/>
</g>
</svg>