<svg xmlns="http://www.w3.org/2000/svg" xmlns:v="https://svgstorm.com"
viewBox = "0 0 512 512"
width="512"
height="512">
<g fill="None" fill-opacity="0.0" stroke="#000000" stroke-opacity="0.00" stroke-width="0.3"><path d="
M 0.00 512.00 
L 234.00 512.00
C 201.10 508.09 168.39 499.20 139.00 483.00
C 81.19 451.13 37.29 396.88 20.00 334.00
C 16.89 322.68 14.87 311.74 13.00 300.00
C 7.16 263.26 11.35 223.06 23.00 189.00
C 27.36 176.24 32.82 164.10 39.00 152.00
C 46.13 138.04 55.13 125.01 65.00 113.00
C 70.40 106.43 75.55 99.78 81.75 93.75 C 87.96 87.73 94.00 82.12 100.75 76.75 C 107.50 71.38 113.95 66.14 121.25 61.25 C 128.54 56.36 136.42 52.80 144.23 48.23 C 152.04 43.66 160.88 41.38 169.08 37.08 C 177.27 32.77 188.68 33.09 197.01 29.01 C 205.34 24.92 219.40 27.75 227.00 23.00
C 232.74 14.10 241.12 5.05 250.00 0.00
L 0.00 0.00
L 0.00 512.00 Z"/>
</g>
<g fill="None" fill-opacity="0.0" stroke="#FD3D96" stroke-opacity="1.00" stroke-width="0.3"><path d="
M 227.00 23.00 
C 219.23 35.04 211.93 46.03 206.00 59.00
C 209.83 57.48 217.05 61.35 222.00 60.00 C 226.95 58.65 233.71 60.71 239.00 60.00 C 244.29 59.29 250.62 60.53 256.00 60.00
C 256.00 80.33 256.00 100.67 256.00 121.00
C 262.69 121.66 270.41 120.13 277.00 121.00 C 283.59 121.87 292.86 119.39 299.00 121.00 C 305.14 122.61 316.11 117.58 321.00 121.00
C 318.81 98.37 315.21 79.15 306.00 59.00
C 303.85 62.51 294.32 59.05 290.00 60.00 C 285.68 60.95 277.96 59.50 273.00 60.00 C 268.04 60.50 261.14 59.63 256.00 60.00
C 256.00 40.00 256.00 20.00 256.00 0.00
L 250.00 0.00
C 241.12 5.05 232.74 14.10 227.00 23.00 Z"/>
</g>
<g fill="None" fill-opacity="0.0" stroke="#FC76A5" stroke-opacity="0.99" stroke-width="0.3"><path d="
M 306.00 59.00 
C 300.09 46.07 292.74 35.00 285.00 23.00
C 279.26 14.10 270.88 5.05 262.00 0.00
L 256.00 0.00
C 256.00 20.00 256.00 40.00 256.00 60.00
C 261.14 59.63 268.04 60.50 273.00 60.00 C 277.96 59.50 285.68 60.95 290.00 60.00 C 294.32 59.05 303.85 62.51 306.00 59.00 Z"/>
</g>
<g fill="None" fill-opacity="0.0" stroke="#000000" stroke-opacity="0.00" stroke-width="0.3"><path d="
M 285.00 23.00 
C 292.38 27.62 306.03 25.06 314.22 28.78 C 322.42 32.50 333.19 32.69 341.22 36.78 C 349.26 40.86 358.06 42.73 365.69 47.31 C 373.33 51.88 381.01 54.84 388.08 59.92 C 395.15 65.00 402.59 69.32 409.23 74.77 C 415.87 80.22 421.36 85.52 427.75 91.25 C 434.15 96.98 438.61 103.44 444.30 109.70 C 449.99 115.95 454.60 122.68 459.30 129.70 C 464.01 136.71 469.11 144.39 473.00 152.00
C 490.71 186.66 501.00 223.09 501.00 263.00
C 501.00 288.14 498.42 310.67 492.00 334.00
C 482.97 366.83 467.01 396.73 445.00 423.00
C 413.86 460.18 375.80 485.67 331.00 501.00
C 314.03 506.81 295.41 509.21 278.00 512.00
L 512.00 512.00
L 512.00 0.00
L 262.00 0.00
C 270.88 5.05 279.26 14.10 285.00 23.00 Z"/>
</g>
<g fill="None" fill-opacity="0.0" stroke="#1D2E79" stroke-opacity="1.00" stroke-width="0.3"><path d="
M 65.00 113.00 
C 65.21 112.95 75.04 115.99 79.00 115.00 C 82.96 114.01 87.87 118.31 90.75 121.25 C 93.64 124.19 95.66 130.32 95.00 135.00 C 94.34 139.68 92.56 143.26 88.75 146.75 C 84.95 150.24 81.32 151.35 75.99 151.99 C 70.66 152.63 63.35 150.81 58.00 152.00 C 52.65 153.19 43.85 149.60 39.00 152.00
C 32.82 164.10 27.36 176.24 23.00 189.00
C 30.03 189.01 36.96 188.99 44.00 189.00 C 51.04 189.01 57.93 188.99 65.00 189.00 C 72.07 189.01 79.97 188.97 87.00 189.00 C 94.03 189.03 101.12 188.94 108.00 189.00 C 114.88 189.06 123.45 188.88 130.00 189.00 C 136.55 189.12 144.03 188.09 149.22 190.78 C 154.42 193.47 157.95 197.53 158.98 203.03 C 160.00 208.52 159.00 215.75 154.75 219.75 C 150.49 223.74 146.48 226.19 140.00 226.00 C 133.51 225.81 124.82 226.17 118.00 226.00 C 111.18 225.83 103.94 226.27 97.00 226.00 C 90.06 225.73 81.89 226.53 75.00 226.00 C 68.11 225.47 63.65 226.39 58.75 230.75 C 53.86 235.12 52.21 240.79 53.00 247.00 C 53.79 253.21 56.18 256.48 61.08 259.92 C 65.99 263.36 73.00 263.50 79.00 263.00 C 85.00 262.50 92.24 263.44 96.25 267.75 C 100.26 272.06 103.35 276.29 102.99 282.01 C 102.63 287.73 99.92 292.58 95.25 296.25 C 90.57 299.92 84.34 300.48 78.00 300.00 C 71.66 299.52 62.41 300.76 56.00 300.00 C 49.59 299.24 40.94 301.61 35.00 300.00 C 29.06 298.39 17.76 303.37 13.00 300.00
C 14.87 311.74 16.89 322.68 20.00 334.00
C 31.32 332.10 42.08 338.36 51.23 342.77 C 60.38 347.18 64.62 357.14 70.30 363.70 C 75.99 370.25 72.74 391.24 83.03 390.97 C 93.31 390.71 107.53 389.04 116.68 393.32 C 125.83 397.60 131.70 411.30 141.00 407.00
C 153.94 390.11 172.90 388.05 193.00 390.00 C 213.10 391.95 224.56 367.80 226.00 351.00
C 207.63 352.08 196.17 326.62 214.00 317.00
C 206.59 318.35 197.17 319.45 192.25 326.25 C 187.33 333.05 185.08 338.97 181.08 346.08 C 177.07 353.18 174.52 359.09 170.23 366.23 C 165.94 373.37 157.33 376.45 149.75 371.25 C 142.18 366.04 142.22 356.28 143.33 347.33 C 144.44 338.38 144.55 326.91 145.00 318.00 C 145.45 309.09 146.72 299.29 149.77 291.77 C 152.82 284.25 157.23 279.00 162.75 273.75 C 168.28 268.50 175.15 265.09 179.25 259.25 C 183.35 253.40 193.56 250.99 196.00 245.00
C 192.76 231.92 195.99 217.43 194.00 204.00 C 192.01 190.57 192.80 175.98 191.67 162.33 C 190.54 148.68 189.73 134.10 191.00 121.00
C 193.19 98.35 196.78 79.16 206.00 59.00
C 211.93 46.03 219.23 35.04 227.00 23.00
C 219.40 27.75 205.34 24.92 197.01 29.01 C 188.68 33.09 177.27 32.77 169.08 37.08 C 160.88 41.38 152.04 43.66 144.23 48.23 C 136.42 52.80 128.54 56.36 121.25 61.25 C 113.95 66.14 107.50 71.38 100.75 76.75 C 94.00 82.12 87.96 87.73 81.75 93.75 C 75.55 99.78 70.40 106.43 65.00 113.00 Z"/>
</g>
<g fill="None" fill-opacity="0.0" stroke="#1D2E79" stroke-opacity="1.00" stroke-width="0.3"><path d="
M 306.00 59.00 
C 315.21 79.15 318.81 98.37 321.00 121.00
C 322.90 140.67 321.21 161.95 319.07 182.07 C 316.93 202.19 320.38 225.24 316.00 245.00
C 318.11 250.19 327.53 252.90 331.25 257.75 C 334.96 262.60 341.10 266.55 345.75 271.25 C 350.41 275.95 356.00 279.23 359.30 285.70 C 362.61 292.16 365.58 299.33 366.00 307.00
C 366.90 323.53 366.63 339.52 369.00 356.00 C 371.37 372.48 350.01 379.69 342.08 366.92 C 334.15 354.15 330.72 344.73 324.00 332.00
C 318.39 321.37 308.70 319.18 298.00 317.00
C 315.95 326.68 304.35 352.08 286.00 351.00
C 288.28 372.73 300.55 392.15 325.00 390.00
C 333.56 389.25 342.74 388.53 350.68 392.32 C 358.62 396.11 362.36 398.49 368.75 405.25 C 375.14 412.01 382.10 403.63 387.25 398.25 C 392.40 392.87 402.28 391.53 409.07 389.07 C 415.86 386.62 430.36 395.65 435.00 388.00
C 437.31 358.92 460.82 332.01 492.00 334.00
C 498.42 310.67 501.00 288.14 501.00 263.00
C 482.40 264.37 458.02 261.18 440.00 263.00 C 421.98 264.82 398.83 261.65 404.93 238.93 C 411.02 216.20 434.74 236.65 445.92 218.92 C 457.10 201.18 437.87 187.48 421.00 189.00 C 404.13 190.52 378.69 195.57 374.22 174.78 C 369.76 153.99 395.91 150.59 413.00 153.00 C 430.09 155.41 455.65 152.02 473.00 152.00
C 469.11 144.39 464.01 136.71 459.30 129.70 C 454.60 122.68 449.99 115.95 444.30 109.70 C 438.61 103.44 434.15 96.98 427.75 91.25 C 421.36 85.52 415.87 80.22 409.23 74.77 C 402.59 69.32 395.15 65.00 388.08 59.92 C 381.01 54.84 373.33 51.88 365.69 47.31 C 358.06 42.73 349.26 40.86 341.22 36.78 C 333.19 32.69 322.42 32.50 314.22 28.78 C 306.03 25.06 292.38 27.62 285.00 23.00
C 292.74 35.00 300.09 46.07 306.00 59.00 Z"/>
</g>
<g fill="None" fill-opacity="0.0" stroke="#E41E82" stroke-opacity="1.00" stroke-width="0.3"><path d="
M 191.00 121.00 
C 195.80 117.64 205.84 122.49 212.00 121.00 C 218.17 119.51 227.28 121.78 234.00 121.00 C 240.72 120.22 249.12 121.58 256.00 121.00
C 256.00 100.67 256.00 80.33 256.00 60.00
C 250.62 60.53 244.29 59.29 239.00 60.00 C 233.71 60.71 226.95 58.65 222.00 60.00 C 217.05 61.35 209.83 57.48 206.00 59.00
C 196.78 79.16 193.19 98.35 191.00 121.00 Z"/>
</g>
<g fill="None" fill-opacity="0.0" stroke="#3E569F" stroke-opacity="0.98" stroke-width="0.3"><path d="
M 39.00 152.00 
C 43.85 149.60 52.65 153.19 58.00 152.00 C 63.35 150.81 70.66 152.63 75.99 151.99 C 81.32 151.35 84.95 150.24 88.75 146.75 C 92.56 143.26 94.34 139.68 95.00 135.00 C 95.66 130.32 93.64 124.19 90.75 121.25 C 87.87 118.31 82.96 114.01 79.00 115.00 C 75.04 115.99 65.21 112.95 65.00 113.00
C 55.13 125.01 46.13 138.04 39.00 152.00 Z"/>
</g>
<g fill="None" fill-opacity="0.0" stroke="#DCD0CB" stroke-opacity="1.00" stroke-width="0.3"><path d="
M 196.00 245.00 
C 198.92 256.78 208.03 267.23 211.77 279.23 C 215.52 291.22 223.37 302.87 227.00 315.00
C 246.33 315.00 265.67 315.00 285.00 315.00
C 289.05 304.62 293.53 294.23 298.00 284.00
C 291.74 286.96 282.71 281.08 276.77 279.23 C 270.83 277.38 266.07 272.38 262.25 266.75 C 258.42 261.13 255.59 253.79 256.00 246.00 C 256.41 238.21 255.69 227.10 256.00 219.00
C 236.56 218.69 220.05 202.63 220.00 183.00 C 219.95 163.37 236.44 147.00 256.00 147.00
C 256.00 138.33 256.00 129.67 256.00 121.00
C 249.12 121.58 240.72 120.22 234.00 121.00 C 227.28 121.78 218.17 119.51 212.00 121.00 C 205.84 122.49 195.80 117.64 191.00 121.00
C 189.73 134.10 190.54 148.68 191.67 162.33 C 192.80 175.98 192.01 190.57 194.00 204.00 C 195.99 217.43 192.76 231.92 196.00 245.00 Z"/>
</g>
<g fill="None" fill-opacity="0.0" stroke="#F8F1F1" stroke-opacity="1.00" stroke-width="0.3"><path d="
M 256.00 147.00 
C 275.43 147.00 292.01 163.68 292.00 183.00 C 291.99 202.32 275.39 219.31 256.00 219.00
C 255.69 227.10 256.41 238.21 256.00 246.00 C 255.59 253.79 258.42 261.13 262.25 266.75 C 266.07 272.38 270.83 277.38 276.77 279.23 C 282.71 281.08 291.74 286.96 298.00 284.00
C 300.67 277.89 304.78 271.40 306.78 264.78 C 308.77 258.16 314.59 251.35 316.00 245.00
C 320.38 225.24 316.93 202.19 319.07 182.07 C 321.21 161.95 322.90 140.67 321.00 121.00
C 316.11 117.58 305.14 122.61 299.00 121.00 C 292.86 119.39 283.59 121.87 277.00 121.00 C 270.41 120.13 262.69 121.66 256.00 121.00
C 256.00 129.67 256.00 138.33 256.00 147.00 Z"/>
</g>
<g fill="None" fill-opacity="0.0" stroke="#2BA6FE" stroke-opacity="1.00" stroke-width="0.3"><path d="
M 256.00 219.00 
C 275.39 219.31 291.99 202.32 292.00 183.00 C 292.01 163.68 275.43 147.00 256.00 147.00
C 236.44 147.00 219.95 163.37 220.00 183.00 C 220.05 202.63 236.56 218.69 256.00 219.00 Z"/>
</g>
<g fill="None" fill-opacity="0.0" stroke="#3E569F" stroke-opacity="0.99" stroke-width="0.3"><path d="
M 501.00 263.00 
C 501.00 223.09 490.71 186.66 473.00 152.00
C 455.65 152.02 430.09 155.41 413.00 153.00 C 395.91 150.59 369.76 153.99 374.22 174.78 C 378.69 195.57 404.13 190.52 421.00 189.00 C 437.87 187.48 457.10 201.18 445.92 218.92 C 434.74 236.65 411.02 216.20 404.93 238.93 C 398.83 261.65 421.98 264.82 440.00 263.00 C 458.02 261.18 482.40 264.37 501.00 263.00 Z"/>
</g>
<g fill="None" fill-opacity="0.0" stroke="#3E569F" stroke-opacity="1.00" stroke-width="0.3"><path d="
M 13.00 300.00 
C 17.76 303.37 29.06 298.39 35.00 300.00 C 40.94 301.61 49.59 299.24 56.00 300.00 C 62.41 300.76 71.66 299.52 78.00 300.00 C 84.34 300.48 90.57 299.92 95.25 296.25 C 99.92 292.58 102.63 287.73 102.99 282.01 C 103.35 276.29 100.26 272.06 96.25 267.75 C 92.24 263.44 85.00 262.50 79.00 263.00 C 73.00 263.50 65.99 263.36 61.08 259.92 C 56.18 256.48 53.79 253.21 53.00 247.00 C 52.21 240.79 53.86 235.12 58.75 230.75 C 63.65 226.39 68.11 225.47 75.00 226.00 C 81.89 226.53 90.06 225.73 97.00 226.00 C 103.94 226.27 111.18 225.83 118.00 226.00 C 124.82 226.17 133.51 225.81 140.00 226.00 C 146.48 226.19 150.49 223.74 154.75 219.75 C 159.00 215.75 160.00 208.52 158.98 203.03 C 157.95 197.53 154.42 193.47 149.22 190.78 C 144.03 188.09 136.55 189.12 130.00 189.00 C 123.45 188.88 114.88 189.06 108.00 189.00 C 101.12 188.94 94.03 189.03 87.00 189.00 C 79.97 188.97 72.07 189.01 65.00 189.00 C 57.93 188.99 51.04 189.01 44.00 189.00 C 36.96 188.99 30.03 189.01 23.00 189.00
C 11.35 223.06 7.16 263.26 13.00 300.00 Z"/>
</g>
<g fill="None" fill-opacity="0.0" stroke="#E31F82" stroke-opacity="1.00" stroke-width="0.3"><path d="
M 214.00 317.00 
C 218.52 316.18 222.04 315.00 227.00 315.00
C 223.37 302.87 215.52 291.22 211.77 279.23 C 208.03 267.23 198.92 256.78 196.00 245.00
C 193.56 250.99 183.35 253.40 179.25 259.25 C 175.15 265.09 168.28 268.50 162.75 273.75 C 157.23 279.00 152.82 284.25 149.77 291.77 C 146.72 299.29 145.45 309.09 145.00 318.00 C 144.55 326.91 144.44 338.38 143.33 347.33 C 142.22 356.28 142.18 366.04 149.75 371.25 C 157.33 376.45 165.94 373.37 170.23 366.23 C 174.52 359.09 177.07 353.18 181.08 346.08 C 185.08 338.97 187.33 333.05 192.25 326.25 C 197.17 319.45 206.59 318.35 214.00 317.00 Z"/>
</g>
<g fill="None" fill-opacity="0.0" stroke="#FC3E97" stroke-opacity="1.00" stroke-width="0.3"><path d="
M 298.00 284.00 
C 293.53 294.23 289.05 304.62 285.00 315.00
C 289.99 315.00 293.42 316.07 298.00 317.00
C 308.70 319.18 318.39 321.37 324.00 332.00
C 321.60 311.18 349.71 299.54 366.00 307.00
C 365.58 299.33 362.61 292.16 359.30 285.70 C 356.00 279.23 350.41 275.95 345.75 271.25 C 341.10 266.55 334.96 262.60 331.25 257.75 C 327.53 252.90 318.11 250.19 316.00 245.00
C 314.59 251.35 308.77 258.16 306.78 264.78 C 304.78 271.40 300.67 277.89 298.00 284.00 Z"/>
</g>
<g fill="None" fill-opacity="0.0" stroke="#FB76A5" stroke-opacity="1.00" stroke-width="0.3"><path d="
M 324.00 332.00 
C 330.72 344.73 334.15 354.15 342.08 366.92 C 350.01 379.69 371.37 372.48 369.00 356.00 C 366.63 339.52 366.90 323.53 366.00 307.00
C 349.71 299.54 321.60 311.18 324.00 332.00 Z"/>
</g>
<g fill="None" fill-opacity="0.0" stroke="#03BFFB" stroke-opacity="1.00" stroke-width="0.3"><path d="
M 214.00 317.00 
C 196.17 326.62 207.63 352.08 226.00 351.00
C 245.15 349.87 266.92 349.88 286.00 351.00
C 304.35 352.08 315.95 326.68 298.00 317.00
C 293.42 316.07 289.99 315.00 285.00 315.00
C 265.67 315.00 246.33 315.00 227.00 315.00
C 222.04 315.00 218.52 316.18 214.00 317.00 Z"/>
</g>
<g fill="None" fill-opacity="0.0" stroke="#FC8D3E" stroke-opacity="0.98" stroke-width="0.3"><path d="
M 139.00 483.00 
C 131.14 473.90 129.13 455.77 129.00 444.00 C 128.87 432.23 133.84 416.34 141.00 407.00
C 131.70 411.30 125.83 397.60 116.68 393.32 C 107.53 389.04 93.31 390.71 83.03 390.97 C 72.74 391.24 75.99 370.25 70.30 363.70 C 64.62 357.14 60.38 347.18 51.23 342.77 C 42.08 338.36 31.32 332.10 20.00 334.00
C 37.29 396.88 81.19 451.13 139.00 483.00 Z"/>
</g>
<g fill="None" fill-opacity="0.0" stroke="#FDFAB2" stroke-opacity="0.98" stroke-width="0.3"><path d="
M 435.00 388.00 
C 434.48 394.55 437.61 401.15 437.98 407.02 C 438.34 412.90 444.90 418.16 445.00 423.00
C 467.01 396.73 482.97 366.83 492.00 334.00
C 460.82 332.01 437.31 358.92 435.00 388.00 Z"/>
</g>
<g fill="None" fill-opacity="0.0" stroke="#77C0A5" stroke-opacity="1.00" stroke-width="0.3"><path d="
M 226.00 351.00 
C 246.00 351.00 266.00 351.00 286.00 351.00
C 266.92 349.88 245.15 349.87 226.00 351.00 Z"/>
</g>
<g fill="None" fill-opacity="0.0" stroke="#FEC142" stroke-opacity="1.00" stroke-width="0.3"><path d="
M 141.00 407.00 
C 133.84 416.34 128.87 432.23 129.00 444.00 C 129.13 455.77 131.14 473.90 139.00 483.00
C 168.39 499.20 201.10 508.09 234.00 512.00
L 239.00 512.00
C 241.61 510.44 247.46 510.28 250.00 512.00
L 278.00 512.00
C 295.41 509.21 314.03 506.81 331.00 501.00
C 322.01 491.94 311.41 483.50 306.23 470.77 C 301.05 458.04 297.74 436.45 302.78 423.78 C 307.81 411.11 311.65 396.10 325.00 390.00
C 300.55 392.15 288.28 372.73 286.00 351.00
C 266.00 351.00 246.00 351.00 226.00 351.00
C 224.56 367.80 213.10 391.95 193.00 390.00 C 172.90 388.05 153.94 390.11 141.00 407.00 Z"/>
</g>
<g fill="None" fill-opacity="0.0" stroke="#FDF056" stroke-opacity="0.99" stroke-width="0.3"><path d="
M 325.00 390.00 
C 311.65 396.10 307.81 411.11 302.78 423.78 C 297.74 436.45 301.05 458.04 306.23 470.77 C 311.41 483.50 322.01 491.94 331.00 501.00
C 375.80 485.67 413.86 460.18 445.00 423.00
C 444.90 418.16 438.34 412.90 437.98 407.02 C 437.61 401.15 434.48 394.55 435.00 388.00
C 430.36 395.65 415.86 386.62 409.07 389.07 C 402.28 391.53 392.40 392.87 387.25 398.25 C 382.10 403.63 375.14 412.01 368.75 405.25 C 362.36 398.49 358.62 396.11 350.68 392.32 C 342.74 388.53 333.56 389.25 325.00 390.00 Z"/>
</g>
<g fill="None" fill-opacity="0.0" stroke="#FEC242" stroke-opacity="0.69" stroke-width="0.3"><path d="
M 239.00 512.00 
L 250.00 512.00
C 247.46 510.28 241.61 510.44 239.00 512.00 Z"/>
</g>
<g fill="#000000" fill-opacity="0.00" stroke="None">
<path d="
M 0.00 512.00 
L 234.00 512.00
C 201.10 508.09 168.39 499.20 139.00 483.00
C 81.19 451.13 37.29 396.88 20.00 334.00
C 16.89 322.68 14.87 311.74 13.00 300.00
C 7.16 263.26 11.35 223.06 23.00 189.00
C 27.36 176.24 32.82 164.10 39.00 152.00
C 46.13 138.04 55.13 125.01 65.00 113.00
C 70.40 106.43 75.55 99.78 81.75 93.75 C 87.96 87.73 94.00 82.12 100.75 76.75 C 107.50 71.38 113.95 66.14 121.25 61.25 C 128.54 56.36 136.42 52.80 144.23 48.23 C 152.04 43.66 160.88 41.38 169.08 37.08 C 177.27 32.77 188.68 33.09 197.01 29.01 C 205.34 24.92 219.40 27.75 227.00 23.00
C 232.74 14.10 241.12 5.05 250.00 0.00
L 0.00 0.00
L 0.00 512.00 Z"/>
</g>
<g fill="#FD3D96" fill-opacity="1.00" stroke="None">
<path d="
M 227.00 23.00 
C 219.23 35.04 211.93 46.03 206.00 59.00
C 209.83 57.48 217.05 61.35 222.00 60.00 C 226.95 58.65 233.71 60.71 239.00 60.00 C 244.29 59.29 250.62 60.53 256.00 60.00
C 256.00 80.33 256.00 100.67 256.00 121.00
C 262.69 121.66 270.41 120.13 277.00 121.00 C 283.59 121.87 292.86 119.39 299.00 121.00 C 305.14 122.61 316.11 117.58 321.00 121.00
C 318.81 98.37 315.21 79.15 306.00 59.00
C 303.85 62.51 294.32 59.05 290.00 60.00 C 285.68 60.95 277.96 59.50 273.00 60.00 C 268.04 60.50 261.14 59.63 256.00 60.00
C 256.00 40.00 256.00 20.00 256.00 0.00
L 250.00 0.00
C 241.12 5.05 232.74 14.10 227.00 23.00 Z"/>
</g>
<g fill="#FC76A5" fill-opacity="0.99" stroke="None">
<path d="
M 306.00 59.00 
C 300.09 46.07 292.74 35.00 285.00 23.00
C 279.26 14.10 270.88 5.05 262.00 0.00
L 256.00 0.00
C 256.00 20.00 256.00 40.00 256.00 60.00
C 261.14 59.63 268.04 60.50 273.00 60.00 C 277.96 59.50 285.68 60.95 290.00 60.00 C 294.32 59.05 303.85 62.51 306.00 59.00 Z"/>
</g>
<g fill="#000000" fill-opacity="0.00" stroke="None">
<path d="
M 285.00 23.00 
C 292.38 27.62 306.03 25.06 314.22 28.78 C 322.42 32.50 333.19 32.69 341.22 36.78 C 349.26 40.86 358.06 42.73 365.69 47.31 C 373.33 51.88 381.01 54.84 388.08 59.92 C 395.15 65.00 402.59 69.32 409.23 74.77 C 415.87 80.22 421.36 85.52 427.75 91.25 C 434.15 96.98 438.61 103.44 444.30 109.70 C 449.99 115.95 454.60 122.68 459.30 129.70 C 464.01 136.71 469.11 144.39 473.00 152.00
C 490.71 186.66 501.00 223.09 501.00 263.00
C 501.00 288.14 498.42 310.67 492.00 334.00
C 482.97 366.83 467.01 396.73 445.00 423.00
C 413.86 460.18 375.80 485.67 331.00 501.00
C 314.03 506.81 295.41 509.21 278.00 512.00
L 512.00 512.00
L 512.00 0.00
L 262.00 0.00
C 270.88 5.05 279.26 14.10 285.00 23.00 Z"/>
</g>
<g fill="#1D2E79" fill-opacity="1.00" stroke="None">
<path d="
M 65.00 113.00 
C 65.21 112.95 75.04 115.99 79.00 115.00 C 82.96 114.01 87.87 118.31 90.75 121.25 C 93.64 124.19 95.66 130.32 95.00 135.00 C 94.34 139.68 92.56 143.26 88.75 146.75 C 84.95 150.24 81.32 151.35 75.99 151.99 C 70.66 152.63 63.35 150.81 58.00 152.00 C 52.65 153.19 43.85 149.60 39.00 152.00
C 32.82 164.10 27.36 176.24 23.00 189.00
C 30.03 189.01 36.96 188.99 44.00 189.00 C 51.04 189.01 57.93 188.99 65.00 189.00 C 72.07 189.01 79.97 188.97 87.00 189.00 C 94.03 189.03 101.12 188.94 108.00 189.00 C 114.88 189.06 123.45 188.88 130.00 189.00 C 136.55 189.12 144.03 188.09 149.22 190.78 C 154.42 193.47 157.95 197.53 158.98 203.03 C 160.00 208.52 159.00 215.75 154.75 219.75 C 150.49 223.74 146.48 226.19 140.00 226.00 C 133.51 225.81 124.82 226.17 118.00 226.00 C 111.18 225.83 103.94 226.27 97.00 226.00 C 90.06 225.73 81.89 226.53 75.00 226.00 C 68.11 225.47 63.65 226.39 58.75 230.75 C 53.86 235.12 52.21 240.79 53.00 247.00 C 53.79 253.21 56.18 256.48 61.08 259.92 C 65.99 263.36 73.00 263.50 79.00 263.00 C 85.00 262.50 92.24 263.44 96.25 267.75 C 100.26 272.06 103.35 276.29 102.99 282.01 C 102.63 287.73 99.92 292.58 95.25 296.25 C 90.57 299.92 84.34 300.48 78.00 300.00 C 71.66 299.52 62.41 300.76 56.00 300.00 C 49.59 299.24 40.94 301.61 35.00 300.00 C 29.06 298.39 17.76 303.37 13.00 300.00
C 14.87 311.74 16.89 322.68 20.00 334.00
C 31.32 332.10 42.08 338.36 51.23 342.77 C 60.38 347.18 64.62 357.14 70.30 363.70 C 75.99 370.25 72.74 391.24 83.03 390.97 C 93.31 390.71 107.53 389.04 116.68 393.32 C 125.83 397.60 131.70 411.30 141.00 407.00
C 153.94 390.11 172.90 388.05 193.00 390.00 C 213.10 391.95 224.56 367.80 226.00 351.00
C 207.63 352.08 196.17 326.62 214.00 317.00
C 206.59 318.35 197.17 319.45 192.25 326.25 C 187.33 333.05 185.08 338.97 181.08 346.08 C 177.07 353.18 174.52 359.09 170.23 366.23 C 165.94 373.37 157.33 376.45 149.75 371.25 C 142.18 366.04 142.22 356.28 143.33 347.33 C 144.44 338.38 144.55 326.91 145.00 318.00 C 145.45 309.09 146.72 299.29 149.77 291.77 C 152.82 284.25 157.23 279.00 162.75 273.75 C 168.28 268.50 175.15 265.09 179.25 259.25 C 183.35 253.40 193.56 250.99 196.00 245.00
C 192.76 231.92 195.99 217.43 194.00 204.00 C 192.01 190.57 192.80 175.98 191.67 162.33 C 190.54 148.68 189.73 134.10 191.00 121.00
C 193.19 98.35 196.78 79.16 206.00 59.00
C 211.93 46.03 219.23 35.04 227.00 23.00
C 219.40 27.75 205.34 24.92 197.01 29.01 C 188.68 33.09 177.27 32.77 169.08 37.08 C 160.88 41.38 152.04 43.66 144.23 48.23 C 136.42 52.80 128.54 56.36 121.25 61.25 C 113.95 66.14 107.50 71.38 100.75 76.75 C 94.00 82.12 87.96 87.73 81.75 93.75 C 75.55 99.78 70.40 106.43 65.00 113.00 Z"/>
</g>
<g fill="#1D2E79" fill-opacity="1.00" stroke="None">
<path d="
M 306.00 59.00 
C 315.21 79.15 318.81 98.37 321.00 121.00
C 322.90 140.67 321.21 161.95 319.07 182.07 C 316.93 202.19 320.38 225.24 316.00 245.00
C 318.11 250.19 327.53 252.90 331.25 257.75 C 334.96 262.60 341.10 266.55 345.75 271.25 C 350.41 275.95 356.00 279.23 359.30 285.70 C 362.61 292.16 365.58 299.33 366.00 307.00
C 366.90 323.53 366.63 339.52 369.00 356.00 C 371.37 372.48 350.01 379.69 342.08 366.92 C 334.15 354.15 330.72 344.73 324.00 332.00
C 318.39 321.37 308.70 319.18 298.00 317.00
C 315.95 326.68 304.35 352.08 286.00 351.00
C 288.28 372.73 300.55 392.15 325.00 390.00
C 333.56 389.25 342.74 388.53 350.68 392.32 C 358.62 396.11 362.36 398.49 368.75 405.25 C 375.14 412.01 382.10 403.63 387.25 398.25 C 392.40 392.87 402.28 391.53 409.07 389.07 C 415.86 386.62 430.36 395.65 435.00 388.00
C 437.31 358.92 460.82 332.01 492.00 334.00
C 498.42 310.67 501.00 288.14 501.00 263.00
C 482.40 264.37 458.02 261.18 440.00 263.00 C 421.98 264.82 398.83 261.65 404.93 238.93 C 411.02 216.20 434.74 236.65 445.92 218.92 C 457.10 201.18 437.87 187.48 421.00 189.00 C 404.13 190.52 378.69 195.57 374.22 174.78 C 369.76 153.99 395.91 150.59 413.00 153.00 C 430.09 155.41 455.65 152.02 473.00 152.00
C 469.11 144.39 464.01 136.71 459.30 129.70 C 454.60 122.68 449.99 115.95 444.30 109.70 C 438.61 103.44 434.15 96.98 427.75 91.25 C 421.36 85.52 415.87 80.22 409.23 74.77 C 402.59 69.32 395.15 65.00 388.08 59.92 C 381.01 54.84 373.33 51.88 365.69 47.31 C 358.06 42.73 349.26 40.86 341.22 36.78 C 333.19 32.69 322.42 32.50 314.22 28.78 C 306.03 25.06 292.38 27.62 285.00 23.00
C 292.74 35.00 300.09 46.07 306.00 59.00 Z"/>
</g>
<g fill="#E41E82" fill-opacity="1.00" stroke="None">
<path d="
M 191.00 121.00 
C 195.80 117.64 205.84 122.49 212.00 121.00 C 218.17 119.51 227.28 121.78 234.00 121.00 C 240.72 120.22 249.12 121.58 256.00 121.00
C 256.00 100.67 256.00 80.33 256.00 60.00
C 250.62 60.53 244.29 59.29 239.00 60.00 C 233.71 60.71 226.95 58.65 222.00 60.00 C 217.05 61.35 209.83 57.48 206.00 59.00
C 196.78 79.16 193.19 98.35 191.00 121.00 Z"/>
</g>
<g fill="#3E569F" fill-opacity="0.98" stroke="None">
<path d="
M 39.00 152.00 
C 43.85 149.60 52.65 153.19 58.00 152.00 C 63.35 150.81 70.66 152.63 75.99 151.99 C 81.32 151.35 84.95 150.24 88.75 146.75 C 92.56 143.26 94.34 139.68 95.00 135.00 C 95.66 130.32 93.64 124.19 90.75 121.25 C 87.87 118.31 82.96 114.01 79.00 115.00 C 75.04 115.99 65.21 112.95 65.00 113.00
C 55.13 125.01 46.13 138.04 39.00 152.00 Z"/>
</g>
<g fill="#DCD0CB" fill-opacity="1.00" stroke="None">
<path d="
M 196.00 245.00 
C 198.92 256.78 208.03 267.23 211.77 279.23 C 215.52 291.22 223.37 302.87 227.00 315.00
C 246.33 315.00 265.67 315.00 285.00 315.00
C 289.05 304.62 293.53 294.23 298.00 284.00
C 291.74 286.96 282.71 281.08 276.77 279.23 C 270.83 277.38 266.07 272.38 262.25 266.75 C 258.42 261.13 255.59 253.79 256.00 246.00 C 256.41 238.21 255.69 227.10 256.00 219.00
C 236.56 218.69 220.05 202.63 220.00 183.00 C 219.95 163.37 236.44 147.00 256.00 147.00
C 256.00 138.33 256.00 129.67 256.00 121.00
C 249.12 121.58 240.72 120.22 234.00 121.00 C 227.28 121.78 218.17 119.51 212.00 121.00 C 205.84 122.49 195.80 117.64 191.00 121.00
C 189.73 134.10 190.54 148.68 191.67 162.33 C 192.80 175.98 192.01 190.57 194.00 204.00 C 195.99 217.43 192.76 231.92 196.00 245.00 Z"/>
</g>
<g fill="#F8F1F1" fill-opacity="1.00" stroke="None">
<path d="
M 256.00 147.00 
C 275.43 147.00 292.01 163.68 292.00 183.00 C 291.99 202.32 275.39 219.31 256.00 219.00
C 255.69 227.10 256.41 238.21 256.00 246.00 C 255.59 253.79 258.42 261.13 262.25 266.75 C 266.07 272.38 270.83 277.38 276.77 279.23 C 282.71 281.08 291.74 286.96 298.00 284.00
C 300.67 277.89 304.78 271.40 306.78 264.78 C 308.77 258.16 314.59 251.35 316.00 245.00
C 320.38 225.24 316.93 202.19 319.07 182.07 C 321.21 161.95 322.90 140.67 321.00 121.00
C 316.11 117.58 305.14 122.61 299.00 121.00 C 292.86 119.39 283.59 121.87 277.00 121.00 C 270.41 120.13 262.69 121.66 256.00 121.00
C 256.00 129.67 256.00 138.33 256.00 147.00 Z"/>
</g>
<g fill="#2BA6FE" fill-opacity="1.00" stroke="None">
<path d="
M 256.00 219.00 
C 275.39 219.31 291.99 202.32 292.00 183.00 C 292.01 163.68 275.43 147.00 256.00 147.00
C 236.44 147.00 219.95 163.37 220.00 183.00 C 220.05 202.63 236.56 218.69 256.00 219.00 Z"/>
</g>
<g fill="#3E569F" fill-opacity="0.99" stroke="None">
<path d="
M 501.00 263.00 
C 501.00 223.09 490.71 186.66 473.00 152.00
C 455.65 152.02 430.09 155.41 413.00 153.00 C 395.91 150.59 369.76 153.99 374.22 174.78 C 378.69 195.57 404.13 190.52 421.00 189.00 C 437.87 187.48 457.10 201.18 445.92 218.92 C 434.74 236.65 411.02 216.20 404.93 238.93 C 398.83 261.65 421.98 264.82 440.00 263.00 C 458.02 261.18 482.40 264.37 501.00 263.00 Z"/>
</g>
<g fill="#3E569F" fill-opacity="1.00" stroke="None">
<path d="
M 13.00 300.00 
C 17.76 303.37 29.06 298.39 35.00 300.00 C 40.94 301.61 49.59 299.24 56.00 300.00 C 62.41 300.76 71.66 299.52 78.00 300.00 C 84.34 300.48 90.57 299.92 95.25 296.25 C 99.92 292.58 102.63 287.73 102.99 282.01 C 103.35 276.29 100.26 272.06 96.25 267.75 C 92.24 263.44 85.00 262.50 79.00 263.00 C 73.00 263.50 65.99 263.36 61.08 259.92 C 56.18 256.48 53.79 253.21 53.00 247.00 C 52.21 240.79 53.86 235.12 58.75 230.75 C 63.65 226.39 68.11 225.47 75.00 226.00 C 81.89 226.53 90.06 225.73 97.00 226.00 C 103.94 226.27 111.18 225.83 118.00 226.00 C 124.82 226.17 133.51 225.81 140.00 226.00 C 146.48 226.19 150.49 223.74 154.75 219.75 C 159.00 215.75 160.00 208.52 158.98 203.03 C 157.95 197.53 154.42 193.47 149.22 190.78 C 144.03 188.09 136.55 189.12 130.00 189.00 C 123.45 188.88 114.88 189.06 108.00 189.00 C 101.12 188.94 94.03 189.03 87.00 189.00 C 79.97 188.97 72.07 189.01 65.00 189.00 C 57.93 188.99 51.04 189.01 44.00 189.00 C 36.96 188.99 30.03 189.01 23.00 189.00
C 11.35 223.06 7.16 263.26 13.00 300.00 Z"/>
</g>
<g fill="#E31F82" fill-opacity="1.00" stroke="None">
<path d="
M 214.00 317.00 
C 218.52 316.18 222.04 315.00 227.00 315.00
C 223.37 302.87 215.52 291.22 211.77 279.23 C 208.03 267.23 198.92 256.78 196.00 245.00
C 193.56 250.99 183.35 253.40 179.25 259.25 C 175.15 265.09 168.28 268.50 162.75 273.75 C 157.23 279.00 152.82 284.25 149.77 291.77 C 146.72 299.29 145.45 309.09 145.00 318.00 C 144.55 326.91 144.44 338.38 143.33 347.33 C 142.22 356.28 142.18 366.04 149.75 371.25 C 157.33 376.45 165.94 373.37 170.23 366.23 C 174.52 359.09 177.07 353.18 181.08 346.08 C 185.08 338.97 187.33 333.05 192.25 326.25 C 197.17 319.45 206.59 318.35 214.00 317.00 Z"/>
</g>
<g fill="#FC3E97" fill-opacity="1.00" stroke="None">
<path d="
M 298.00 284.00 
C 293.53 294.23 289.05 304.62 285.00 315.00
C 289.99 315.00 293.42 316.07 298.00 317.00
C 308.70 319.18 318.39 321.37 324.00 332.00
C 321.60 311.18 349.71 299.54 366.00 307.00
C 365.58 299.33 362.61 292.16 359.30 285.70 C 356.00 279.23 350.41 275.95 345.75 271.25 C 341.10 266.55 334.96 262.60 331.25 257.75 C 327.53 252.90 318.11 250.19 316.00 245.00
C 314.59 251.35 308.77 258.16 306.78 264.78 C 304.78 271.40 300.67 277.89 298.00 284.00 Z"/>
</g>
<g fill="#FB76A5" fill-opacity="1.00" stroke="None">
<path d="
M 324.00 332.00 
C 330.72 344.73 334.15 354.15 342.08 366.92 C 350.01 379.69 371.37 372.48 369.00 356.00 C 366.63 339.52 366.90 323.53 366.00 307.00
C 349.71 299.54 321.60 311.18 324.00 332.00 Z"/>
</g>
<g fill="#03BFFB" fill-opacity="1.00" stroke="None">
<path d="
M 214.00 317.00 
C 196.17 326.62 207.63 352.08 226.00 351.00
C 245.15 349.87 266.92 349.88 286.00 351.00
C 304.35 352.08 315.95 326.68 298.00 317.00
C 293.42 316.07 289.99 315.00 285.00 315.00
C 265.67 315.00 246.33 315.00 227.00 315.00
C 222.04 315.00 218.52 316.18 214.00 317.00 Z"/>
</g>
<g fill="#FC8D3E" fill-opacity="0.98" stroke="None">
<path d="
M 139.00 483.00 
C 131.14 473.90 129.13 455.77 129.00 444.00 C 128.87 432.23 133.84 416.34 141.00 407.00
C 131.70 411.30 125.83 397.60 116.68 393.32 C 107.53 389.04 93.31 390.71 83.03 390.97 C 72.74 391.24 75.99 370.25 70.30 363.70 C 64.62 357.14 60.38 347.18 51.23 342.77 C 42.08 338.36 31.32 332.10 20.00 334.00
C 37.29 396.88 81.19 451.13 139.00 483.00 Z"/>
</g>
<g fill="#FDFAB2" fill-opacity="0.98" stroke="None">
<path d="
M 435.00 388.00 
C 434.48 394.55 437.61 401.15 437.98 407.02 C 438.34 412.90 444.90 418.16 445.00 423.00
C 467.01 396.73 482.97 366.83 492.00 334.00
C 460.82 332.01 437.31 358.92 435.00 388.00 Z"/>
</g>
<g fill="#77C0A5" fill-opacity="1.00" stroke="None">
<path d="
M 226.00 351.00 
C 246.00 351.00 266.00 351.00 286.00 351.00
C 266.92 349.88 245.15 349.87 226.00 351.00 Z"/>
</g>
<g fill="#FEC142" fill-opacity="1.00" stroke="None">
<path d="
M 141.00 407.00 
C 133.84 416.34 128.87 432.23 129.00 444.00 C 129.13 455.77 131.14 473.90 139.00 483.00
C 168.39 499.20 201.10 508.09 234.00 512.00
L 239.00 512.00
C 241.61 510.44 247.46 510.28 250.00 512.00
L 278.00 512.00
C 295.41 509.21 314.03 506.81 331.00 501.00
C 322.01 491.94 311.41 483.50 306.23 470.77 C 301.05 458.04 297.74 436.45 302.78 423.78 C 307.81 411.11 311.65 396.10 325.00 390.00
C 300.55 392.15 288.28 372.73 286.00 351.00
C 266.00 351.00 246.00 351.00 226.00 351.00
C 224.56 367.80 213.10 391.95 193.00 390.00 C 172.90 388.05 153.94 390.11 141.00 407.00 Z"/>
</g>
<g fill="#FDF056" fill-opacity="0.99" stroke="None">
<path d="
M 325.00 390.00 
C 311.65 396.10 307.81 411.11 302.78 423.78 C 297.74 436.45 301.05 458.04 306.23 470.77 C 311.41 483.50 322.01 491.94 331.00 501.00
C 375.80 485.67 413.86 460.18 445.00 423.00
C 444.90 418.16 438.34 412.90 437.98 407.02 C 437.61 401.15 434.48 394.55 435.00 388.00
C 430.36 395.65 415.86 386.62 409.07 389.07 C 402.28 391.53 392.40 392.87 387.25 398.25 C 382.10 403.63 375.14 412.01 368.75 405.25 C 362.36 398.49 358.62 396.11 350.68 392.32 C 342.74 388.53 333.56 389.25 325.00 390.00 Z"/>
</g>
<g fill="#FEC242" fill-opacity="0.69" stroke="None">
<path d="
M 239.00 512.00 
L 250.00 512.00
C 247.46 510.28 241.61 510.44 239.00 512.00 Z"/>
</g>
</svg>