<svg xmlns="http://www.w3.org/2000/svg" xmlns:v="https://svgstorm.com"
viewBox = "0 0 512 512"
width="512"
height="512">
<g fill="None" fill-opacity="0.0" stroke="#000000" stroke-opacity="0.00" stroke-width="0.3"><path d="
M 0.00 348.00 
C 116.33 232.50 232.55 116.29 348.00 0.00
L 0.00 0.00
L 0.00 348.00 Z"/>
</g>
<g fill="None" fill-opacity="0.0" stroke="#77CC88" stroke-opacity="0.06" stroke-width="0.3"><path d="
M 0.00 348.00 
L 0.00 349.00
C 116.67 233.17 233.21 116.62 349.00 0.00
L 348.00 0.00
C 232.55 116.29 116.33 232.50 0.00 348.00 Z"/>
</g>
<g fill="None" fill-opacity="0.0" stroke="#71C285" stroke-opacity="0.78" stroke-width="0.3"><path d="
M 0.00 349.00 
L 0.00 350.00
C 0.50 350.00 1.00 350.00 1.00 350.00
C 16.45 327.89 40.93 312.16 58.75 291.75 C 76.58 271.34 97.97 253.49 116.75 233.75 C 135.54 214.02 155.95 194.54 175.25 175.25 C 194.55 155.95 213.50 136.01 233.25 117.25 C 253.00 98.49 270.78 77.10 291.25 59.25 C 311.72 41.40 327.86 16.47 350.00 1.00
C 349.77 0.84 350.00 0.00 350.00 0.00
L 349.00 0.00
C 233.21 116.62 116.67 233.17 0.00 349.00 Z"/>
</g>
<g fill="None" fill-opacity="0.0" stroke="#74C386" stroke-opacity="0.21" stroke-width="0.3"><path d="
M 350.00 1.00 
C 355.13 4.59 360.50 10.76 364.75 15.25 C 369.01 19.73 375.95 25.01 379.25 29.75 C 382.55 34.50 393.13 39.37 393.00 45.00
C 394.67 38.17 377.66 29.76 373.25 22.75 C 368.84 15.74 355.62 7.49 351.00 0.00
L 350.00 0.00
C 350.00 0.00 349.77 0.84 350.00 1.00 Z"/>
</g>
<g fill="None" fill-opacity="0.0" stroke="#000000" stroke-opacity="0.00" stroke-width="0.3"><path d="
M 393.00 45.00 
C 391.10 52.75 385.68 62.03 394.25 68.75 C 402.82 75.47 411.00 73.63 419.00 68.00
C 426.84 76.66 435.38 85.22 444.00 93.00
C 428.41 107.73 450.62 133.70 467.00 119.00
C 472.07 117.76 482.89 132.89 487.00 137.00
C 495.08 145.08 503.78 153.15 512.00 161.00
L 512.00 0.00
L 351.00 0.00
C 355.62 7.49 368.84 15.74 373.25 22.75 C 377.66 29.76 394.67 38.17 393.00 45.00 Z"/>
</g>
<g fill="None" fill-opacity="0.0" stroke="#71C185" stroke-opacity="1.00" stroke-width="0.3"><path d="
M 1.00 350.00 
C 4.58 355.13 10.77 360.50 15.25 364.75 C 19.73 369.01 25.01 375.95 29.75 379.25 C 34.50 382.55 39.37 393.13 45.00 393.00
C 52.75 391.10 62.03 385.68 68.75 394.25 C 75.47 402.82 73.63 411.00 68.00 419.00
C 76.66 426.84 85.22 435.38 93.00 444.00
C 107.73 428.41 133.70 450.62 119.00 467.00
C 118.90 471.06 125.42 474.06 127.75 477.25 C 130.08 480.44 134.69 483.70 137.00 487.00
C 137.16 487.23 138.00 487.00 138.00 487.00
C 144.56 477.61 155.01 469.99 163.00 462.00
C 262.58 362.41 362.46 262.54 462.00 163.00
C 470.04 154.96 477.66 144.52 487.00 138.00
C 486.77 137.84 487.00 137.00 487.00 137.00
C 483.63 134.64 480.46 130.09 477.25 127.75 C 474.04 125.41 471.07 118.90 467.00 119.00
C 450.62 133.70 428.41 107.73 444.00 93.00
C 435.38 85.22 426.84 76.66 419.00 68.00
C 411.00 73.63 402.82 75.47 394.25 68.75 C 385.68 62.03 391.10 52.75 393.00 45.00
C 393.13 39.37 382.55 34.50 379.25 29.75 C 375.95 25.01 369.01 19.73 364.75 15.25 C 360.50 10.76 355.13 4.59 350.00 1.00
C 327.86 16.47 311.72 41.40 291.25 59.25 C 270.78 77.10 253.00 98.49 233.25 117.25 C 213.50 136.01 194.55 155.95 175.25 175.25 C 155.95 194.54 135.54 214.02 116.75 233.75 C 97.97 253.49 76.58 271.34 58.75 291.75 C 40.93 312.16 16.45 327.89 1.00 350.00
M 354.00 42.00 
C 363.36 45.46 355.73 63.92 345.93 58.07 C 336.13 52.22 342.70 37.83 354.00 42.00
M 400.00 162.00 
C 396.02 166.66 391.26 170.74 387.00 175.00
C 383.08 178.92 378.87 183.13 375.00 187.00
C 370.75 191.25 366.21 195.79 362.00 200.00
C 358.08 203.92 353.87 208.13 350.00 212.00
C 345.69 216.31 341.61 221.06 337.00 225.00
C 330.07 230.92 321.95 245.98 311.99 245.99 C 302.03 246.00 295.87 229.92 286.75 224.25 C 277.63 218.58 274.15 207.45 263.25 200.75 C 252.35 194.06 253.50 180.18 264.25 173.25 C 275.00 166.32 278.65 156.98 287.75 149.75 C 296.85 142.52 302.95 133.38 311.25 126.25 C 319.54 119.12 326.96 109.30 334.75 102.75 C 342.55 96.20 351.51 79.67 361.75 87.25 C 371.98 94.84 375.26 102.56 385.25 110.75 C 395.23 118.95 397.57 125.21 408.75 134.25 C 419.94 143.29 407.09 153.71 400.00 162.00
M 227.00 216.00 
C 236.23 217.69 241.00 231.92 249.25 236.75 C 257.50 241.58 262.05 253.25 270.75 258.25 C 279.46 263.25 287.03 277.94 277.75 283.75 C 268.47 289.57 263.83 304.50 253.33 301.67 C 242.83 298.84 239.94 285.91 231.25 280.75 C 222.55 275.59 218.28 264.37 209.75 259.25 C 201.22 254.13 193.03 240.31 202.75 234.75 C 212.47 229.19 215.33 213.87 227.00 216.00
M 170.00 272.00 
C 178.88 273.18 184.32 288.07 192.25 292.75 C 200.18 297.43 205.62 309.22 213.75 314.25 C 221.88 319.27 231.61 333.16 222.25 339.25 C 212.89 345.34 208.69 359.42 198.00 358.00 C 187.30 356.58 183.71 342.82 175.25 337.75 C 166.78 332.69 162.07 321.24 153.75 316.25 C 145.43 311.26 136.70 296.69 146.25 291.25 C 155.80 285.81 158.83 270.51 170.00 272.00
M 116.00 329.00 
C 124.92 331.71 128.89 344.78 137.25 349.75 C 145.61 354.72 149.92 366.03 158.75 371.25 C 167.59 376.47 174.72 390.26 165.25 396.25 C 155.78 402.24 151.19 417.04 140.33 413.67 C 129.47 410.30 127.65 398.68 118.75 393.25 C 109.86 387.82 106.07 377.06 97.25 371.75 C 88.43 366.44 80.69 352.51 90.75 346.75 C 100.81 340.99 103.45 325.19 116.00 329.00
M 53.00 341.00 
C 63.54 343.83 56.82 362.90 46.33 357.67 C 35.84 352.44 43.02 338.32 53.00 341.00 Z"/>
</g>
<g fill="None" fill-opacity="0.0" stroke="#4D8257" stroke-opacity="1.00" stroke-width="0.3"><path d="
M 354.00 42.00 
C 342.70 37.83 336.13 52.22 345.93 58.07 C 355.73 63.92 363.36 45.46 354.00 42.00 Z"/>
</g>
<g fill="None" fill-opacity="0.0" stroke="#EBEFF0" stroke-opacity="1.00" stroke-width="0.3"><path d="
M 337.00 225.00 
C 337.23 224.84 337.00 224.00 337.00 224.00
C 330.36 219.36 316.75 207.82 324.77 199.77 C 332.79 191.72 344.47 205.52 349.00 212.00
C 349.16 211.77 350.00 212.00 350.00 212.00
C 352.99 207.72 357.77 202.95 362.00 200.00
C 362.23 199.84 362.00 199.00 362.00 199.00
C 355.76 194.64 351.42 191.32 348.03 183.97 C 344.63 176.63 354.37 170.08 362.00 175.00
C 366.29 177.77 371.13 182.88 374.00 187.00
C 374.16 186.77 375.00 187.00 375.00 187.00
C 377.99 182.72 382.77 177.95 387.00 175.00
C 387.23 174.84 387.00 174.00 387.00 174.00
C 380.95 169.77 366.59 158.37 374.31 150.31 C 382.02 142.24 394.43 155.46 399.00 162.00
C 399.16 161.77 400.00 162.00 400.00 162.00
C 407.09 153.71 419.94 143.29 408.75 134.25 C 397.57 125.21 395.23 118.95 385.25 110.75 C 375.26 102.56 371.98 94.84 361.75 87.25 C 351.51 79.67 342.55 96.20 334.75 102.75 C 326.96 109.30 319.54 119.12 311.25 126.25 C 302.95 133.38 296.85 142.52 287.75 149.75 C 278.65 156.98 275.00 166.32 264.25 173.25 C 253.50 180.18 252.35 194.06 263.25 200.75 C 274.15 207.45 277.63 218.58 286.75 224.25 C 295.87 229.92 302.03 246.00 311.99 245.99 C 321.95 245.98 330.07 230.92 337.00 225.00
M 360.00 123.00 
C 369.67 126.22 361.79 145.33 351.93 139.07 C 342.06 132.82 349.24 119.41 360.00 123.00
M 335.00 148.00 
C 346.81 152.36 334.64 168.35 327.25 172.25 C 319.86 176.15 313.73 193.94 302.78 189.22 C 291.83 184.51 301.30 169.98 309.25 165.25 C 317.20 160.52 323.49 143.75 335.00 148.00 Z"/>
</g>
<g fill="None" fill-opacity="0.0" stroke="#75C587" stroke-opacity="0.20" stroke-width="0.3"><path d="
M 467.00 119.00 
C 471.07 118.90 474.04 125.41 477.25 127.75 C 480.46 130.09 483.63 134.64 487.00 137.00
C 482.89 132.89 472.07 117.76 467.00 119.00 Z"/>
</g>
<g fill="None" fill-opacity="0.0" stroke="#A6A7A6" stroke-opacity="1.00" stroke-width="0.3"><path d="
M 360.00 123.00 
C 349.24 119.41 342.06 132.82 351.93 139.07 C 361.79 145.33 369.67 126.22 360.00 123.00 Z"/>
</g>
<g fill="None" fill-opacity="0.0" stroke="#95A864" stroke-opacity="0.37" stroke-width="0.3"><path d="
M 487.00 138.00 
C 496.38 144.55 502.81 155.30 512.00 162.00
L 512.00 161.00
C 503.78 153.15 495.08 145.08 487.00 137.00
C 487.00 137.00 486.77 137.84 487.00 138.00 Z"/>
</g>
<g fill="None" fill-opacity="0.0" stroke="#B09046" stroke-opacity="1.00" stroke-width="0.3"><path d="
M 462.00 163.00 
C 466.57 163.00 470.02 173.41 474.25 174.75 C 478.48 176.10 482.44 187.00 487.00 187.00
C 495.09 178.92 503.78 170.85 512.00 163.00
L 512.00 162.00
C 502.81 155.30 496.38 144.55 487.00 138.00
C 477.66 144.52 470.04 154.96 462.00 163.00 Z"/>
</g>
<g fill="None" fill-opacity="0.0" stroke="#A6A6A5" stroke-opacity="1.00" stroke-width="0.3"><path d="
M 335.00 148.00 
C 323.49 143.75 317.20 160.52 309.25 165.25 C 301.30 169.98 291.83 184.51 302.78 189.22 C 313.73 193.94 319.86 176.15 327.25 172.25 C 334.64 168.35 346.81 152.36 335.00 148.00 Z"/>
</g>
<g fill="None" fill-opacity="0.0" stroke="#5F6063" stroke-opacity="1.00" stroke-width="0.3"><path d="
M 387.00 174.00 
C 391.28 171.01 396.05 166.23 399.00 162.00
C 394.43 155.46 382.02 142.24 374.31 150.31 C 366.59 158.37 380.95 169.77 387.00 174.00 Z"/>
</g>
<g fill="None" fill-opacity="0.0" stroke="#87A08F" stroke-opacity="1.00" stroke-width="0.3"><path d="
M 387.00 174.00 
C 387.00 174.00 387.23 174.84 387.00 175.00
C 391.26 170.74 396.02 166.66 400.00 162.00
C 400.00 162.00 399.16 161.77 399.00 162.00
C 396.05 166.23 391.28 171.01 387.00 174.00 Z"/>
</g>
<g fill="None" fill-opacity="0.0" stroke="#E3BF5C" stroke-opacity="1.00" stroke-width="0.3"><path d="
M 163.00 462.00 
C 163.00 466.57 173.41 470.02 174.75 474.25 C 176.10 478.48 187.00 482.44 187.00 487.00
C 286.92 387.08 387.13 286.87 487.00 187.00
C 482.44 187.00 478.48 176.10 474.25 174.75 C 470.02 173.41 466.57 163.00 462.00 163.00
C 362.46 262.54 262.58 362.41 163.00 462.00 Z"/>
</g>
<g fill="None" fill-opacity="0.0" stroke="#9FC477" stroke-opacity="0.09" stroke-width="0.3"><path d="
M 487.00 187.00 
C 387.13 286.87 286.92 387.08 187.00 487.00
C 178.92 495.08 170.85 503.78 163.00 512.00
L 164.00 512.00
C 279.50 395.67 395.71 279.45 512.00 164.00
L 512.00 163.00
C 503.78 170.85 495.09 178.92 487.00 187.00 Z"/>
</g>
<g fill="None" fill-opacity="0.0" stroke="#000000" stroke-opacity="0.00" stroke-width="0.3"><path d="
M 164.00 512.00 
L 512.00 512.00
L 512.00 164.00
C 395.71 279.45 279.50 395.67 164.00 512.00 Z"/>
</g>
<g fill="None" fill-opacity="0.0" stroke="#5F6063" stroke-opacity="1.00" stroke-width="0.3"><path d="
M 362.00 199.00 
C 366.28 196.01 371.05 191.23 374.00 187.00
C 369.07 184.28 366.26 178.23 362.00 175.00
C 354.37 170.08 344.63 176.63 348.03 183.97 C 351.42 191.32 355.76 194.64 362.00 199.00 Z"/>
</g>
<g fill="None" fill-opacity="0.0" stroke="#7E7F82" stroke-opacity="1.00" stroke-width="0.3"><path d="
M 374.00 187.00 
C 371.13 182.88 366.29 177.77 362.00 175.00
C 366.26 178.23 369.07 184.28 374.00 187.00 Z"/>
</g>
<g fill="None" fill-opacity="0.0" stroke="#ACD8B9" stroke-opacity="1.00" stroke-width="0.3"><path d="
M 375.00 187.00 
C 378.87 183.13 383.08 178.92 387.00 175.00
C 382.77 177.95 377.99 182.72 375.00 187.00 Z"/>
</g>
<g fill="None" fill-opacity="0.0" stroke="#879E8F" stroke-opacity="1.00" stroke-width="0.3"><path d="
M 362.00 199.00 
C 362.00 199.00 362.23 199.84 362.00 200.00
C 366.21 195.79 370.75 191.25 375.00 187.00
C 375.00 187.00 374.16 186.77 374.00 187.00
C 371.05 191.23 366.28 196.01 362.00 199.00 Z"/>
</g>
<g fill="None" fill-opacity="0.0" stroke="#606164" stroke-opacity="1.00" stroke-width="0.3"><path d="
M 337.00 224.00 
C 341.28 221.01 346.05 216.23 349.00 212.00
C 344.47 205.52 332.79 191.72 324.77 199.77 C 316.75 207.82 330.36 219.36 337.00 224.00 Z"/>
</g>
<g fill="None" fill-opacity="0.0" stroke="#ABD8B8" stroke-opacity="1.00" stroke-width="0.3"><path d="
M 350.00 212.00 
C 353.87 208.13 358.08 203.92 362.00 200.00
C 357.77 202.95 352.99 207.72 350.00 212.00 Z"/>
</g>
<g fill="None" fill-opacity="0.0" stroke="#869E8F" stroke-opacity="1.00" stroke-width="0.3"><path d="
M 337.00 224.00 
C 337.00 224.00 337.23 224.84 337.00 225.00
C 341.61 221.06 345.69 216.31 350.00 212.00
C 350.00 212.00 349.16 211.77 349.00 212.00
C 346.05 216.23 341.28 221.01 337.00 224.00 Z"/>
</g>
<g fill="None" fill-opacity="0.0" stroke="#5E5F62" stroke-opacity="1.00" stroke-width="0.3"><path d="
M 227.00 216.00 
C 215.33 213.87 212.47 229.19 202.75 234.75 C 193.03 240.31 201.22 254.13 209.75 259.25 C 218.28 264.37 222.55 275.59 231.25 280.75 C 239.94 285.91 242.83 298.84 253.33 301.67 C 263.83 304.50 268.47 289.57 277.75 283.75 C 287.03 277.94 279.46 263.25 270.75 258.25 C 262.05 253.25 257.50 241.58 249.25 236.75 C 241.00 231.92 236.23 217.69 227.00 216.00 Z"/>
</g>
<g fill="None" fill-opacity="0.0" stroke="#5E5F62" stroke-opacity="1.00" stroke-width="0.3"><path d="
M 170.00 272.00 
C 158.83 270.51 155.80 285.81 146.25 291.25 C 136.70 296.69 145.43 311.26 153.75 316.25 C 162.07 321.24 166.78 332.69 175.25 337.75 C 183.71 342.82 187.30 356.58 198.00 358.00 C 208.69 359.42 212.89 345.34 222.25 339.25 C 231.61 333.16 221.88 319.27 213.75 314.25 C 205.62 309.22 200.18 297.43 192.25 292.75 C 184.32 288.07 178.88 273.18 170.00 272.00 Z"/>
</g>
<g fill="None" fill-opacity="0.0" stroke="#5E5F62" stroke-opacity="1.00" stroke-width="0.3"><path d="
M 116.00 329.00 
C 103.45 325.19 100.81 340.99 90.75 346.75 C 80.69 352.51 88.43 366.44 97.25 371.75 C 106.07 377.06 109.86 387.82 118.75 393.25 C 127.65 398.68 129.47 410.30 140.33 413.67 C 151.19 417.04 155.78 402.24 165.25 396.25 C 174.72 390.26 167.59 376.47 158.75 371.25 C 149.92 366.03 145.61 354.72 137.25 349.75 C 128.89 344.78 124.92 331.71 116.00 329.00 Z"/>
</g>
<g fill="None" fill-opacity="0.0" stroke="#4C8157" stroke-opacity="1.00" stroke-width="0.3"><path d="
M 53.00 341.00 
C 43.02 338.32 35.84 352.44 46.33 357.67 C 56.82 362.90 63.54 343.83 53.00 341.00 Z"/>
</g>
<g fill="None" fill-opacity="0.0" stroke="#74C386" stroke-opacity="0.21" stroke-width="0.3"><path d="
M 0.00 351.00 
C 7.48 355.56 15.25 368.43 22.25 372.75 C 29.25 377.07 38.20 394.66 45.00 393.00
C 39.37 393.13 34.50 382.55 29.75 379.25 C 25.01 375.95 19.73 369.01 15.25 364.75 C 10.77 360.50 4.58 355.13 1.00 350.00
C 1.00 350.00 0.50 350.00 0.00 350.00
L 0.00 351.00 Z"/>
</g>
<g fill="None" fill-opacity="0.0" stroke="#000000" stroke-opacity="0.00" stroke-width="0.3"><path d="
M 0.00 512.00 
L 161.00 512.00
C 153.10 503.73 145.04 495.04 137.00 487.00
C 132.78 482.78 117.77 472.04 119.00 467.00
C 133.70 450.62 107.73 428.41 93.00 444.00
C 85.22 435.38 76.66 426.84 68.00 419.00
C 73.63 411.00 75.47 402.82 68.75 394.25 C 62.03 385.68 52.75 391.10 45.00 393.00
C 38.20 394.66 29.25 377.07 22.25 372.75 C 15.25 368.43 7.48 355.56 0.00 351.00
L 0.00 512.00 Z"/>
</g>
<g fill="None" fill-opacity="0.0" stroke="#B09046" stroke-opacity="1.00" stroke-width="0.3"><path d="
M 138.00 487.00 
C 144.55 496.38 155.30 502.81 162.00 512.00
L 163.00 512.00
C 170.85 503.78 178.92 495.08 187.00 487.00
C 187.00 482.44 176.10 478.48 174.75 474.25 C 173.41 470.02 163.00 466.57 163.00 462.00
C 155.01 469.99 144.56 477.61 138.00 487.00 Z"/>
</g>
<g fill="None" fill-opacity="0.0" stroke="#75C587" stroke-opacity="0.20" stroke-width="0.3"><path d="
M 137.00 487.00 
C 134.69 483.70 130.08 480.44 127.75 477.25 C 125.42 474.06 118.90 471.06 119.00 467.00
C 117.77 472.04 132.78 482.78 137.00 487.00 Z"/>
</g>
<g fill="None" fill-opacity="0.0" stroke="#94A662" stroke-opacity="0.38" stroke-width="0.3"><path d="
M 161.00 512.00 
L 162.00 512.00
C 155.30 502.81 144.55 496.38 138.00 487.00
C 138.00 487.00 137.16 487.23 137.00 487.00
C 145.04 495.04 153.10 503.73 161.00 512.00 Z"/>
</g>
<g fill="#000000" fill-opacity="0.00" stroke="None">
<path d="
M 0.00 348.00 
C 116.33 232.50 232.55 116.29 348.00 0.00
L 0.00 0.00
L 0.00 348.00 Z"/>
</g>
<g fill="#77CC88" fill-opacity="0.06" stroke="None">
<path d="
M 0.00 348.00 
L 0.00 349.00
C 116.67 233.17 233.21 116.62 349.00 0.00
L 348.00 0.00
C 232.55 116.29 116.33 232.50 0.00 348.00 Z"/>
</g>
<g fill="#71C285" fill-opacity="0.78" stroke="None">
<path d="
M 0.00 349.00 
L 0.00 350.00
C 0.50 350.00 1.00 350.00 1.00 350.00
C 16.45 327.89 40.93 312.16 58.75 291.75 C 76.58 271.34 97.97 253.49 116.75 233.75 C 135.54 214.02 155.95 194.54 175.25 175.25 C 194.55 155.95 213.50 136.01 233.25 117.25 C 253.00 98.49 270.78 77.10 291.25 59.25 C 311.72 41.40 327.86 16.47 350.00 1.00
C 349.77 0.84 350.00 0.00 350.00 0.00
L 349.00 0.00
C 233.21 116.62 116.67 233.17 0.00 349.00 Z"/>
</g>
<g fill="#74C386" fill-opacity="0.21" stroke="None">
<path d="
M 350.00 1.00 
C 355.13 4.59 360.50 10.76 364.75 15.25 C 369.01 19.73 375.95 25.01 379.25 29.75 C 382.55 34.50 393.13 39.37 393.00 45.00
C 394.67 38.17 377.66 29.76 373.25 22.75 C 368.84 15.74 355.62 7.49 351.00 0.00
L 350.00 0.00
C 350.00 0.00 349.77 0.84 350.00 1.00 Z"/>
</g>
<g fill="#000000" fill-opacity="0.00" stroke="None">
<path d="
M 393.00 45.00 
C 391.10 52.75 385.68 62.03 394.25 68.75 C 402.82 75.47 411.00 73.63 419.00 68.00
C 426.84 76.66 435.38 85.22 444.00 93.00
C 428.41 107.73 450.62 133.70 467.00 119.00
C 472.07 117.76 482.89 132.89 487.00 137.00
C 495.08 145.08 503.78 153.15 512.00 161.00
L 512.00 0.00
L 351.00 0.00
C 355.62 7.49 368.84 15.74 373.25 22.75 C 377.66 29.76 394.67 38.17 393.00 45.00 Z"/>
</g>
<g fill="#71C185" fill-opacity="1.00" stroke="None">
<path d="
M 1.00 350.00 
C 4.58 355.13 10.77 360.50 15.25 364.75 C 19.73 369.01 25.01 375.95 29.75 379.25 C 34.50 382.55 39.37 393.13 45.00 393.00
C 52.75 391.10 62.03 385.68 68.75 394.25 C 75.47 402.82 73.63 411.00 68.00 419.00
C 76.66 426.84 85.22 435.38 93.00 444.00
C 107.73 428.41 133.70 450.62 119.00 467.00
C 118.90 471.06 125.42 474.06 127.75 477.25 C 130.08 480.44 134.69 483.70 137.00 487.00
C 137.16 487.23 138.00 487.00 138.00 487.00
C 144.56 477.61 155.01 469.99 163.00 462.00
C 262.58 362.41 362.46 262.54 462.00 163.00
C 470.04 154.96 477.66 144.52 487.00 138.00
C 486.77 137.84 487.00 137.00 487.00 137.00
C 483.63 134.64 480.46 130.09 477.25 127.75 C 474.04 125.41 471.07 118.90 467.00 119.00
C 450.62 133.70 428.41 107.73 444.00 93.00
C 435.38 85.22 426.84 76.66 419.00 68.00
C 411.00 73.63 402.82 75.47 394.25 68.75 C 385.68 62.03 391.10 52.75 393.00 45.00
C 393.13 39.37 382.55 34.50 379.25 29.75 C 375.95 25.01 369.01 19.73 364.75 15.25 C 360.50 10.76 355.13 4.59 350.00 1.00
C 327.86 16.47 311.72 41.40 291.25 59.25 C 270.78 77.10 253.00 98.49 233.25 117.25 C 213.50 136.01 194.55 155.95 175.25 175.25 C 155.95 194.54 135.54 214.02 116.75 233.75 C 97.97 253.49 76.58 271.34 58.75 291.75 C 40.93 312.16 16.45 327.89 1.00 350.00
M 354.00 42.00 
C 363.36 45.46 355.73 63.92 345.93 58.07 C 336.13 52.22 342.70 37.83 354.00 42.00
M 400.00 162.00 
C 396.02 166.66 391.26 170.74 387.00 175.00
C 383.08 178.92 378.87 183.13 375.00 187.00
C 370.75 191.25 366.21 195.79 362.00 200.00
C 358.08 203.92 353.87 208.13 350.00 212.00
C 345.69 216.31 341.61 221.06 337.00 225.00
C 330.07 230.92 321.95 245.98 311.99 245.99 C 302.03 246.00 295.87 229.92 286.75 224.25 C 277.63 218.58 274.15 207.45 263.25 200.75 C 252.35 194.06 253.50 180.18 264.25 173.25 C 275.00 166.32 278.65 156.98 287.75 149.75 C 296.85 142.52 302.95 133.38 311.25 126.25 C 319.54 119.12 326.96 109.30 334.75 102.75 C 342.55 96.20 351.51 79.67 361.75 87.25 C 371.98 94.84 375.26 102.56 385.25 110.75 C 395.23 118.95 397.57 125.21 408.75 134.25 C 419.94 143.29 407.09 153.71 400.00 162.00
M 227.00 216.00 
C 236.23 217.69 241.00 231.92 249.25 236.75 C 257.50 241.58 262.05 253.25 270.75 258.25 C 279.46 263.25 287.03 277.94 277.75 283.75 C 268.47 289.57 263.83 304.50 253.33 301.67 C 242.83 298.84 239.94 285.91 231.25 280.75 C 222.55 275.59 218.28 264.37 209.75 259.25 C 201.22 254.13 193.03 240.31 202.75 234.75 C 212.47 229.19 215.33 213.87 227.00 216.00
M 170.00 272.00 
C 178.88 273.18 184.32 288.07 192.25 292.75 C 200.18 297.43 205.62 309.22 213.75 314.25 C 221.88 319.27 231.61 333.16 222.25 339.25 C 212.89 345.34 208.69 359.42 198.00 358.00 C 187.30 356.58 183.71 342.82 175.25 337.75 C 166.78 332.69 162.07 321.24 153.75 316.25 C 145.43 311.26 136.70 296.69 146.25 291.25 C 155.80 285.81 158.83 270.51 170.00 272.00
M 116.00 329.00 
C 124.92 331.71 128.89 344.78 137.25 349.75 C 145.61 354.72 149.92 366.03 158.75 371.25 C 167.59 376.47 174.72 390.26 165.25 396.25 C 155.78 402.24 151.19 417.04 140.33 413.67 C 129.47 410.30 127.65 398.68 118.75 393.25 C 109.86 387.82 106.07 377.06 97.25 371.75 C 88.43 366.44 80.69 352.51 90.75 346.75 C 100.81 340.99 103.45 325.19 116.00 329.00
M 53.00 341.00 
C 63.54 343.83 56.82 362.90 46.33 357.67 C 35.84 352.44 43.02 338.32 53.00 341.00 Z"/>
</g>
<g fill="#4D8257" fill-opacity="1.00" stroke="None">
<path d="
M 354.00 42.00 
C 342.70 37.83 336.13 52.22 345.93 58.07 C 355.73 63.92 363.36 45.46 354.00 42.00 Z"/>
</g>
<g fill="#EBEFF0" fill-opacity="1.00" stroke="None">
<path d="
M 337.00 225.00 
C 337.23 224.84 337.00 224.00 337.00 224.00
C 330.36 219.36 316.75 207.82 324.77 199.77 C 332.79 191.72 344.47 205.52 349.00 212.00
C 349.16 211.77 350.00 212.00 350.00 212.00
C 352.99 207.72 357.77 202.95 362.00 200.00
C 362.23 199.84 362.00 199.00 362.00 199.00
C 355.76 194.64 351.42 191.32 348.03 183.97 C 344.63 176.63 354.37 170.08 362.00 175.00
C 366.29 177.77 371.13 182.88 374.00 187.00
C 374.16 186.77 375.00 187.00 375.00 187.00
C 377.99 182.72 382.77 177.95 387.00 175.00
C 387.23 174.84 387.00 174.00 387.00 174.00
C 380.95 169.77 366.59 158.37 374.31 150.31 C 382.02 142.24 394.43 155.46 399.00 162.00
C 399.16 161.77 400.00 162.00 400.00 162.00
C 407.09 153.71 419.94 143.29 408.75 134.25 C 397.57 125.21 395.23 118.95 385.25 110.75 C 375.26 102.56 371.98 94.84 361.75 87.25 C 351.51 79.67 342.55 96.20 334.75 102.75 C 326.96 109.30 319.54 119.12 311.25 126.25 C 302.95 133.38 296.85 142.52 287.75 149.75 C 278.65 156.98 275.00 166.32 264.25 173.25 C 253.50 180.18 252.35 194.06 263.25 200.75 C 274.15 207.45 277.63 218.58 286.75 224.25 C 295.87 229.92 302.03 246.00 311.99 245.99 C 321.95 245.98 330.07 230.92 337.00 225.00
M 360.00 123.00 
C 369.67 126.22 361.79 145.33 351.93 139.07 C 342.06 132.82 349.24 119.41 360.00 123.00
M 335.00 148.00 
C 346.81 152.36 334.64 168.35 327.25 172.25 C 319.86 176.15 313.73 193.94 302.78 189.22 C 291.83 184.51 301.30 169.98 309.25 165.25 C 317.20 160.52 323.49 143.75 335.00 148.00 Z"/>
</g>
<g fill="#75C587" fill-opacity="0.20" stroke="None">
<path d="
M 467.00 119.00 
C 471.07 118.90 474.04 125.41 477.25 127.75 C 480.46 130.09 483.63 134.64 487.00 137.00
C 482.89 132.89 472.07 117.76 467.00 119.00 Z"/>
</g>
<g fill="#A6A7A6" fill-opacity="1.00" stroke="None">
<path d="
M 360.00 123.00 
C 349.24 119.41 342.06 132.82 351.93 139.07 C 361.79 145.33 369.67 126.22 360.00 123.00 Z"/>
</g>
<g fill="#95A864" fill-opacity="0.37" stroke="None">
<path d="
M 487.00 138.00 
C 496.38 144.55 502.81 155.30 512.00 162.00
L 512.00 161.00
C 503.78 153.15 495.08 145.08 487.00 137.00
C 487.00 137.00 486.77 137.84 487.00 138.00 Z"/>
</g>
<g fill="#B09046" fill-opacity="1.00" stroke="None">
<path d="
M 462.00 163.00 
C 466.57 163.00 470.02 173.41 474.25 174.75 C 478.48 176.10 482.44 187.00 487.00 187.00
C 495.09 178.92 503.78 170.85 512.00 163.00
L 512.00 162.00
C 502.81 155.30 496.38 144.55 487.00 138.00
C 477.66 144.52 470.04 154.96 462.00 163.00 Z"/>
</g>
<g fill="#A6A6A5" fill-opacity="1.00" stroke="None">
<path d="
M 335.00 148.00 
C 323.49 143.75 317.20 160.52 309.25 165.25 C 301.30 169.98 291.83 184.51 302.78 189.22 C 313.73 193.94 319.86 176.15 327.25 172.25 C 334.64 168.35 346.81 152.36 335.00 148.00 Z"/>
</g>
<g fill="#5F6063" fill-opacity="1.00" stroke="None">
<path d="
M 387.00 174.00 
C 391.28 171.01 396.05 166.23 399.00 162.00
C 394.43 155.46 382.02 142.24 374.31 150.31 C 366.59 158.37 380.95 169.77 387.00 174.00 Z"/>
</g>
<g fill="#87A08F" fill-opacity="1.00" stroke="None">
<path d="
M 387.00 174.00 
C 387.00 174.00 387.23 174.84 387.00 175.00
C 391.26 170.74 396.02 166.66 400.00 162.00
C 400.00 162.00 399.16 161.77 399.00 162.00
C 396.05 166.23 391.28 171.01 387.00 174.00 Z"/>
</g>
<g fill="#E3BF5C" fill-opacity="1.00" stroke="None">
<path d="
M 163.00 462.00 
C 163.00 466.57 173.41 470.02 174.75 474.25 C 176.10 478.48 187.00 482.44 187.00 487.00
C 286.92 387.08 387.13 286.87 487.00 187.00
C 482.44 187.00 478.48 176.10 474.25 174.75 C 470.02 173.41 466.57 163.00 462.00 163.00
C 362.46 262.54 262.58 362.41 163.00 462.00 Z"/>
</g>
<g fill="#9FC477" fill-opacity="0.09" stroke="None">
<path d="
M 487.00 187.00 
C 387.13 286.87 286.92 387.08 187.00 487.00
C 178.92 495.08 170.85 503.78 163.00 512.00
L 164.00 512.00
C 279.50 395.67 395.71 279.45 512.00 164.00
L 512.00 163.00
C 503.78 170.85 495.09 178.92 487.00 187.00 Z"/>
</g>
<g fill="#000000" fill-opacity="0.00" stroke="None">
<path d="
M 164.00 512.00 
L 512.00 512.00
L 512.00 164.00
C 395.71 279.45 279.50 395.67 164.00 512.00 Z"/>
</g>
<g fill="#5F6063" fill-opacity="1.00" stroke="None">
<path d="
M 362.00 199.00 
C 366.28 196.01 371.05 191.23 374.00 187.00
C 369.07 184.28 366.26 178.23 362.00 175.00
C 354.37 170.08 344.63 176.63 348.03 183.97 C 351.42 191.32 355.76 194.64 362.00 199.00 Z"/>
</g>
<g fill="#7E7F82" fill-opacity="1.00" stroke="None">
<path d="
M 374.00 187.00 
C 371.13 182.88 366.29 177.77 362.00 175.00
C 366.26 178.23 369.07 184.28 374.00 187.00 Z"/>
</g>
<g fill="#ACD8B9" fill-opacity="1.00" stroke="None">
<path d="
M 375.00 187.00 
C 378.87 183.13 383.08 178.92 387.00 175.00
C 382.77 177.95 377.99 182.72 375.00 187.00 Z"/>
</g>
<g fill="#879E8F" fill-opacity="1.00" stroke="None">
<path d="
M 362.00 199.00 
C 362.00 199.00 362.23 199.84 362.00 200.00
C 366.21 195.79 370.75 191.25 375.00 187.00
C 375.00 187.00 374.16 186.77 374.00 187.00
C 371.05 191.23 366.28 196.01 362.00 199.00 Z"/>
</g>
<g fill="#606164" fill-opacity="1.00" stroke="None">
<path d="
M 337.00 224.00 
C 341.28 221.01 346.05 216.23 349.00 212.00
C 344.47 205.52 332.79 191.72 324.77 199.77 C 316.75 207.82 330.36 219.36 337.00 224.00 Z"/>
</g>
<g fill="#ABD8B8" fill-opacity="1.00" stroke="None">
<path d="
M 350.00 212.00 
C 353.87 208.13 358.08 203.92 362.00 200.00
C 357.77 202.95 352.99 207.72 350.00 212.00 Z"/>
</g>
<g fill="#869E8F" fill-opacity="1.00" stroke="None">
<path d="
M 337.00 224.00 
C 337.00 224.00 337.23 224.84 337.00 225.00
C 341.61 221.06 345.69 216.31 350.00 212.00
C 350.00 212.00 349.16 211.77 349.00 212.00
C 346.05 216.23 341.28 221.01 337.00 224.00 Z"/>
</g>
<g fill="#5E5F62" fill-opacity="1.00" stroke="None">
<path d="
M 227.00 216.00 
C 215.33 213.87 212.47 229.19 202.75 234.75 C 193.03 240.31 201.22 254.13 209.75 259.25 C 218.28 264.37 222.55 275.59 231.25 280.75 C 239.94 285.91 242.83 298.84 253.33 301.67 C 263.83 304.50 268.47 289.57 277.75 283.75 C 287.03 277.94 279.46 263.25 270.75 258.25 C 262.05 253.25 257.50 241.58 249.25 236.75 C 241.00 231.92 236.23 217.69 227.00 216.00 Z"/>
</g>
<g fill="#5E5F62" fill-opacity="1.00" stroke="None">
<path d="
M 170.00 272.00 
C 158.83 270.51 155.80 285.81 146.25 291.25 C 136.70 296.69 145.43 311.26 153.75 316.25 C 162.07 321.24 166.78 332.69 175.25 337.75 C 183.71 342.82 187.30 356.58 198.00 358.00 C 208.69 359.42 212.89 345.34 222.25 339.25 C 231.61 333.16 221.88 319.27 213.75 314.25 C 205.62 309.22 200.18 297.43 192.25 292.75 C 184.32 288.07 178.88 273.18 170.00 272.00 Z"/>
</g>
<g fill="#5E5F62" fill-opacity="1.00" stroke="None">
<path d="
M 116.00 329.00 
C 103.45 325.19 100.81 340.99 90.75 346.75 C 80.69 352.51 88.43 366.44 97.25 371.75 C 106.07 377.06 109.86 387.82 118.75 393.25 C 127.65 398.68 129.47 410.30 140.33 413.67 C 151.19 417.04 155.78 402.24 165.25 396.25 C 174.72 390.26 167.59 376.47 158.75 371.25 C 149.92 366.03 145.61 354.72 137.25 349.75 C 128.89 344.78 124.92 331.71 116.00 329.00 Z"/>
</g>
<g fill="#4C8157" fill-opacity="1.00" stroke="None">
<path d="
M 53.00 341.00 
C 43.02 338.32 35.84 352.44 46.33 357.67 C 56.82 362.90 63.54 343.83 53.00 341.00 Z"/>
</g>
<g fill="#74C386" fill-opacity="0.21" stroke="None">
<path d="
M 0.00 351.00 
C 7.48 355.56 15.25 368.43 22.25 372.75 C 29.25 377.07 38.20 394.66 45.00 393.00
C 39.37 393.13 34.50 382.55 29.75 379.25 C 25.01 375.95 19.73 369.01 15.25 364.75 C 10.77 360.50 4.58 355.13 1.00 350.00
C 1.00 350.00 0.50 350.00 0.00 350.00
L 0.00 351.00 Z"/>
</g>
<g fill="#000000" fill-opacity="0.00" stroke="None">
<path d="
M 0.00 512.00 
L 161.00 512.00
C 153.10 503.73 145.04 495.04 137.00 487.00
C 132.78 482.78 117.77 472.04 119.00 467.00
C 133.70 450.62 107.73 428.41 93.00 444.00
C 85.22 435.38 76.66 426.84 68.00 419.00
C 73.63 411.00 75.47 402.82 68.75 394.25 C 62.03 385.68 52.75 391.10 45.00 393.00
C 38.20 394.66 29.25 377.07 22.25 372.75 C 15.25 368.43 7.48 355.56 0.00 351.00
L 0.00 512.00 Z"/>
</g>
<g fill="#B09046" fill-opacity="1.00" stroke="None">
<path d="
M 138.00 487.00 
C 144.55 496.38 155.30 502.81 162.00 512.00
L 163.00 512.00
C 170.85 503.78 178.92 495.08 187.00 487.00
C 187.00 482.44 176.10 478.48 174.75 474.25 C 173.41 470.02 163.00 466.57 163.00 462.00
C 155.01 469.99 144.56 477.61 138.00 487.00 Z"/>
</g>
<g fill="#75C587" fill-opacity="0.20" stroke="None">
<path d="
M 137.00 487.00 
C 134.69 483.70 130.08 480.44 127.75 477.25 C 125.42 474.06 118.90 471.06 119.00 467.00
C 117.77 472.04 132.78 482.78 137.00 487.00 Z"/>
</g>
<g fill="#94A662" fill-opacity="0.38" stroke="None">
<path d="
M 161.00 512.00 
L 162.00 512.00
C 155.30 502.81 144.55 496.38 138.00 487.00
C 138.00 487.00 137.16 487.23 137.00 487.00
C 145.04 495.04 153.10 503.73 161.00 512.00 Z"/>
</g>
</svg>