<svg xmlns="http://www.w3.org/2000/svg" xmlns:v="https://svgstorm.com"
viewBox = "0 0 512 512"
width="512"
height="512">
<g fill="None" fill-opacity="0.0" stroke="#000000" stroke-opacity="0.00" stroke-width="0.3"><path d="
M 0.00 512.00 
L 512.00 512.00
L 512.00 0.00
L 0.00 0.00
L 0.00 512.00
M 507.00 59.00 
C 507.00 67.71 507.00 76.27 507.00 85.00 C 507.00 93.73 507.00 102.22 507.00 111.00 C 507.00 119.78 507.00 129.21 507.00 138.00 C 507.00 146.79 507.00 155.23 507.00 164.00 C 507.00 172.77 507.00 181.19 507.00 190.00 C 507.00 198.81 507.00 208.18 507.00 217.00 C 507.00 225.82 507.00 234.18 507.00 243.00 C 507.00 251.82 507.01 261.20 507.00 270.00 C 506.99 278.80 507.01 287.24 507.00 296.00 C 506.99 304.76 507.03 313.23 507.00 322.00 C 506.97 330.77 507.07 340.26 507.00 349.00 C 506.93 357.74 507.15 366.37 507.00 375.00 C 506.85 383.63 507.33 392.51 507.00 401.00 C 506.67 409.49 507.71 419.86 507.00 428.00 C 506.29 436.14 508.63 446.75 507.00 454.00 C 505.37 461.25 510.95 475.24 506.00 480.00
C 475.77 482.72 445.41 478.83 415.00 480.00 C 384.59 481.17 353.54 479.56 323.00 480.00 C 292.46 480.44 261.57 480.00 231.00 480.00
C 225.03 480.00 218.96 480.04 213.00 480.00 C 207.04 479.96 200.91 480.11 195.00 480.00 C 189.09 479.89 182.82 480.26 177.00 480.00 C 171.18 479.74 164.60 480.57 159.00 480.00 C 153.40 479.43 146.11 481.27 141.00 480.00 C 135.89 478.73 127.03 482.82 123.00 480.00
C 118.99 477.19 123.13 466.27 122.00 461.00 C 120.87 455.73 122.48 447.17 122.00 441.00 C 121.52 434.83 122.20 426.52 122.00 420.00 C 121.80 413.48 122.04 406.71 122.00 400.00 C 121.96 393.29 121.91 385.78 122.00 379.00 C 122.09 372.22 121.70 365.81 122.00 359.00 C 122.30 352.19 121.34 344.81 122.00 338.00
C 118.02 340.79 109.79 336.24 105.00 338.00 C 100.21 339.76 91.83 336.04 87.00 338.00
C 89.37 345.23 87.00 357.33 87.00 365.00
C 87.00 371.32 87.04 377.68 87.00 384.00 C 86.96 390.32 87.10 396.69 87.00 403.00 C 86.90 409.31 87.22 416.82 87.00 423.00 C 86.78 429.18 87.52 436.22 87.00 442.00 C 86.48 447.78 88.17 455.98 87.00 461.00 C 85.83 466.02 89.92 477.26 86.00 480.00
C 83.26 481.92 76.50 479.28 73.00 480.00 C 69.50 480.72 63.71 480.00 60.00 480.00
C 50.67 480.00 41.33 480.00 32.00 480.00
C 28.29 480.00 22.50 480.72 19.00 480.00 C 15.50 479.28 8.74 481.92 6.00 480.00
C 1.93 477.15 5.91 464.51 5.00 459.00 C 4.09 453.49 5.00 442.05 5.00 436.00
C 5.00 396.86 2.88 357.07 5.00 318.00
C 6.24 295.07 18.56 275.28 39.70 263.70 C 60.83 252.12 96.95 256.00 122.00 256.00
C 120.64 240.95 122.00 225.12 122.00 210.00
C 122.00 198.33 122.00 186.67 122.00 175.00
C 122.00 162.00 122.00 149.00 122.00 136.00
C 122.00 132.33 122.00 128.67 122.00 125.00
C 122.00 117.00 122.00 109.00 122.00 101.00
C 122.00 95.45 121.83 89.51 122.00 84.00 C 122.17 78.49 121.58 71.28 122.00 66.00 C 122.42 60.72 120.99 53.58 122.00 49.00 C 123.01 44.42 119.39 34.52 123.00 32.00
C 127.78 28.66 137.85 33.44 144.00 32.00 C 150.15 30.56 159.29 32.67 166.00 32.00 C 172.71 31.33 179.99 32.28 187.00 32.00 C 194.01 31.72 201.84 32.10 209.00 32.00 C 216.16 31.90 223.79 32.00 231.00 32.00
C 323.00 32.00 415.00 32.00 507.00 32.00
C 507.00 41.00 507.00 50.00 507.00 59.00 Z"/>
</g>
<g fill="None" fill-opacity="0.0" stroke="#A4CBE9" stroke-opacity="0.09" stroke-width="0.3"><path d="
M 122.00 101.00 
C 122.00 100.96 123.00 101.00 123.00 101.00
C 124.24 87.26 123.00 72.81 123.00 59.00
C 123.00 50.00 123.00 41.00 123.00 32.00
C 119.39 34.52 123.01 44.42 122.00 49.00 C 120.99 53.58 122.42 60.72 122.00 66.00 C 121.58 71.28 122.17 78.49 122.00 84.00 C 121.83 89.51 122.00 95.45 122.00 101.00 Z"/>
</g>
<g fill="None" fill-opacity="0.0" stroke="#E0E6F9" stroke-opacity="1.00" stroke-width="0.3"><path d="
M 123.00 59.00 
C 159.00 59.00 195.00 59.00 231.00 59.00
C 230.19 50.07 231.60 40.95 231.00 32.00
C 223.79 32.00 216.16 31.90 209.00 32.00 C 201.84 32.10 194.01 31.72 187.00 32.00 C 179.99 32.28 172.71 31.33 166.00 32.00 C 159.29 32.67 150.15 30.56 144.00 32.00 C 137.85 33.44 127.78 28.66 123.00 32.00
C 123.00 41.00 123.00 50.00 123.00 59.00 Z"/>
</g>
<g fill="None" fill-opacity="0.0" stroke="#AEC3F0" stroke-opacity="1.00" stroke-width="0.3"><path d="
M 231.00 59.00 
C 231.00 58.96 232.00 59.00 232.00 59.00
C 241.00 59.00 250.00 59.00 259.00 59.00
C 325.33 59.00 391.67 59.00 458.00 59.00
C 465.00 59.00 472.00 59.00 479.00 59.00
C 488.00 59.00 497.00 59.00 506.00 59.00
C 506.50 59.00 507.00 59.00 507.00 59.00
C 507.00 50.00 507.00 41.00 507.00 32.00
C 415.00 32.00 323.00 32.00 231.00 32.00
C 231.60 40.95 230.19 50.07 231.00 59.00 Z"/>
</g>
<g fill="None" fill-opacity="0.0" stroke="#9BBFE5" stroke-opacity="1.00" stroke-width="0.3"><path d="
M 123.00 101.00 
C 148.00 101.00 173.00 101.00 198.00 101.00
C 198.00 112.67 198.00 124.33 198.00 136.00
C 173.00 136.00 148.00 136.00 123.00 136.00
C 122.50 136.00 122.00 136.00 122.00 136.00
C 122.00 149.00 122.00 162.00 122.00 175.00
C 122.00 174.96 123.00 175.00 123.00 175.00
C 148.00 175.00 173.00 175.00 198.00 175.00
C 198.00 186.67 198.00 198.33 198.00 210.00
C 173.00 210.00 148.00 210.00 123.00 210.00
C 124.36 225.05 123.00 240.88 123.00 256.00
C 123.00 265.00 123.00 274.00 123.00 283.00
C 123.00 292.00 123.00 301.00 123.00 310.00
C 123.00 319.33 122.83 329.44 122.00 338.00
C 121.34 344.81 122.30 352.19 122.00 359.00 C 121.70 365.81 122.09 372.22 122.00 379.00 C 121.91 385.78 121.96 393.29 122.00 400.00 C 122.04 406.71 121.80 413.48 122.00 420.00 C 122.20 426.52 121.52 434.83 122.00 441.00 C 122.48 447.17 120.87 455.73 122.00 461.00 C 123.13 466.27 118.99 477.19 123.00 480.00
C 157.83 480.57 195.50 475.79 231.00 479.00
C 231.00 444.02 230.77 408.97 231.00 374.00 C 231.23 339.03 230.39 303.94 231.00 269.00 C 231.61 234.06 229.59 198.87 231.00 164.00 C 232.41 129.13 227.86 93.71 231.00 59.00
C 195.00 59.00 159.00 59.00 123.00 59.00
C 123.00 72.81 124.24 87.26 123.00 101.00
M 171.00 239.00 
C 180.64 241.93 175.43 254.52 177.00 262.00 C 178.57 269.48 177.27 283.40 168.00 283.00 C 158.72 282.59 148.40 284.95 147.03 274.97 C 145.65 265.00 146.98 254.63 147.78 245.78 C 148.58 236.93 165.02 237.19 171.00 239.00
M 170.00 312.00 
C 183.03 315.03 175.03 334.87 177.00 346.00 C 178.97 357.13 174.98 374.22 177.00 387.00 C 179.02 399.78 173.58 414.16 177.00 428.00 C 180.42 441.84 168.06 453.04 154.00 447.00 C 139.94 440.96 149.21 425.55 147.00 413.00 C 144.79 400.45 148.68 385.64 147.00 372.00 C 145.32 358.36 149.26 345.72 147.00 331.00 C 144.74 316.28 154.41 308.37 170.00 312.00 Z"/>
</g>
<g fill="None" fill-opacity="0.0" stroke="#7D95C4" stroke-opacity="0.80" stroke-width="0.3"><path d="
M 231.00 479.00 
C 231.00 479.50 231.00 480.00 231.00 480.00
C 261.57 480.00 292.46 480.44 323.00 480.00 C 353.54 479.56 384.59 481.17 415.00 480.00 C 445.41 478.83 475.77 482.72 506.00 480.00
C 506.04 480.00 506.00 479.00 506.00 479.00
C 460.70 474.90 414.47 481.14 369.00 479.00 C 323.53 476.86 277.52 480.60 232.00 479.00
C 232.00 339.00 232.00 199.00 232.00 59.00
C 232.00 59.00 231.00 58.96 231.00 59.00
C 227.86 93.71 232.41 129.13 231.00 164.00 C 229.59 198.87 231.61 234.06 231.00 269.00 C 230.39 303.94 231.23 339.03 231.00 374.00 C 230.77 408.97 231.00 444.02 231.00 479.00 Z"/>
</g>
<g fill="None" fill-opacity="0.0" stroke="#788CBD" stroke-opacity="1.00" stroke-width="0.3"><path d="
M 506.00 479.00 
C 506.01 444.02 505.77 408.97 506.00 374.00 C 506.23 339.03 505.38 303.94 506.00 269.00 C 506.62 234.06 504.59 198.87 506.00 164.00 C 507.41 129.13 502.86 93.71 506.00 59.00
C 497.00 59.00 488.00 59.00 479.00 59.00
C 483.37 62.09 478.77 73.38 480.00 79.00 C 481.23 84.62 479.44 94.44 480.00 101.00 C 480.56 107.56 479.75 116.02 480.00 123.00 C 480.25 129.98 479.89 137.82 480.00 145.00 C 480.11 152.18 479.95 159.74 480.00 167.00 C 480.05 174.26 479.98 181.70 480.00 189.00 C 480.02 196.30 479.99 203.68 480.00 211.00 C 480.01 218.32 479.99 225.67 480.00 233.00 C 480.01 240.33 480.00 247.67 480.00 255.00 C 480.00 262.33 480.00 269.67 480.00 277.00 C 480.00 284.33 480.00 291.67 480.00 299.00 C 480.00 306.33 480.00 313.67 480.00 321.00 C 480.00 328.33 480.00 335.67 480.00 343.00 C 480.00 350.33 480.00 357.67 480.00 365.00 C 480.00 372.33 480.00 379.67 480.00 387.00 C 480.00 394.33 480.00 401.67 480.00 409.00 C 480.00 416.33 480.00 423.67 480.00 431.00 C 480.00 438.33 480.00 445.67 480.00 453.00
C 472.67 453.00 465.33 453.00 458.00 453.00
C 391.33 453.00 324.67 453.00 258.00 453.00
C 258.00 445.00 258.00 437.00 258.00 429.00
C 258.00 416.06 257.82 402.16 259.00 390.00
C 259.61 383.74 259.61 376.26 259.00 370.00
C 258.29 362.67 258.00 354.03 258.00 346.00
C 258.00 333.33 258.00 320.67 258.00 308.00
C 258.00 301.00 258.00 294.00 258.00 287.00
C 258.00 279.00 258.00 271.00 258.00 263.00
C 258.00 250.33 258.00 237.67 258.00 225.00
C 258.00 218.33 258.00 211.67 258.00 205.00
C 258.00 197.00 258.00 189.00 258.00 181.00
C 258.00 168.06 257.82 154.15 259.00 142.00
C 259.61 135.74 259.61 128.26 259.00 122.00
C 258.47 116.49 257.10 108.10 258.00 102.00 C 258.90 95.90 256.55 85.43 258.00 80.00 C 259.45 74.57 254.55 62.14 259.00 59.00
C 250.00 59.00 241.00 59.00 232.00 59.00
C 232.00 199.00 232.00 339.00 232.00 479.00
C 277.52 480.60 323.53 476.86 369.00 479.00 C 414.47 481.14 460.70 474.90 506.00 479.00 Z"/>
</g>
<g fill="None" fill-opacity="0.0" stroke="#434068" stroke-opacity="1.00" stroke-width="0.3"><path d="
M 259.00 122.00 
C 259.00 101.33 259.00 80.67 259.00 60.00
C 325.33 60.00 391.67 60.00 458.00 60.00
C 458.00 190.67 458.00 321.33 458.00 452.00
C 451.33 452.00 444.67 452.00 438.00 452.00
C 408.33 452.00 378.67 452.00 349.00 452.00
C 348.39 444.07 350.25 435.49 348.00 428.00
C 336.33 428.00 324.67 428.00 313.00 428.00
C 307.46 428.00 300.39 427.57 295.00 428.00 C 289.61 428.43 280.76 426.93 276.00 428.00 C 271.24 429.07 260.75 425.11 258.00 429.00
C 258.00 437.00 258.00 445.00 258.00 453.00
C 324.67 453.00 391.33 453.00 458.00 453.00
C 464.25 452.39 472.04 451.37 479.00 452.00
C 479.00 321.33 479.00 190.67 479.00 60.00
C 472.17 59.34 464.01 61.32 458.00 59.00
C 391.67 59.00 325.33 59.00 259.00 59.00
C 254.55 62.14 259.45 74.57 258.00 80.00 C 256.55 85.43 258.90 95.90 258.00 102.00 C 257.10 108.10 258.47 116.49 259.00 122.00 Z"/>
</g>
<g fill="None" fill-opacity="0.0" stroke="#5A618B" stroke-opacity="1.00" stroke-width="0.3"><path d="
M 458.00 453.00 
C 465.33 453.00 472.67 453.00 480.00 453.00
C 480.00 445.67 480.00 438.33 480.00 431.00 C 480.00 423.67 480.00 416.33 480.00 409.00 C 480.00 401.67 480.00 394.33 480.00 387.00 C 480.00 379.67 480.00 372.33 480.00 365.00 C 480.00 357.67 480.00 350.33 480.00 343.00 C 480.00 335.67 480.00 328.33 480.00 321.00 C 480.00 313.67 480.00 306.33 480.00 299.00 C 480.00 291.67 480.00 284.33 480.00 277.00 C 480.00 269.67 480.00 262.33 480.00 255.00 C 480.00 247.67 480.01 240.33 480.00 233.00 C 479.99 225.67 480.01 218.32 480.00 211.00 C 479.99 203.68 480.02 196.30 480.00 189.00 C 479.98 181.70 480.05 174.26 480.00 167.00 C 479.95 159.74 480.11 152.18 480.00 145.00 C 479.89 137.82 480.25 129.98 480.00 123.00 C 479.75 116.02 480.56 107.56 480.00 101.00 C 479.44 94.44 481.23 84.62 480.00 79.00 C 478.77 73.38 483.37 62.09 479.00 59.00
C 472.00 59.00 465.00 59.00 458.00 59.00
C 464.01 61.32 472.17 59.34 479.00 60.00
C 479.00 190.67 479.00 321.33 479.00 452.00
C 472.04 451.37 464.25 452.39 458.00 453.00 Z"/>
</g>
<g fill="None" fill-opacity="0.0" stroke="#778FBD" stroke-opacity="0.67" stroke-width="0.3"><path d="
M 506.00 479.00 
C 506.00 479.00 506.04 480.00 506.00 480.00
C 510.95 475.24 505.37 461.25 507.00 454.00 C 508.63 446.75 506.29 436.14 507.00 428.00 C 507.71 419.86 506.67 409.49 507.00 401.00 C 507.33 392.51 506.85 383.63 507.00 375.00 C 507.15 366.37 506.93 357.74 507.00 349.00 C 507.07 340.26 506.97 330.77 507.00 322.00 C 507.03 313.23 506.99 304.76 507.00 296.00 C 507.01 287.24 506.99 278.80 507.00 270.00 C 507.01 261.20 507.00 251.82 507.00 243.00 C 507.00 234.18 507.00 225.82 507.00 217.00 C 507.00 208.18 507.00 198.81 507.00 190.00 C 507.00 181.19 507.00 172.77 507.00 164.00 C 507.00 155.23 507.00 146.79 507.00 138.00 C 507.00 129.21 507.00 119.78 507.00 111.00 C 507.00 102.22 507.00 93.73 507.00 85.00 C 507.00 76.27 507.00 67.71 507.00 59.00
C 507.00 59.00 506.50 59.00 506.00 59.00
C 502.86 93.71 507.41 129.13 506.00 164.00 C 504.59 198.87 506.62 234.06 506.00 269.00 C 505.38 303.94 506.23 339.03 506.00 374.00 C 505.77 408.97 506.01 444.02 506.00 479.00 Z"/>
</g>
<g fill="None" fill-opacity="0.0" stroke="#3B3854" stroke-opacity="1.00" stroke-width="0.3"><path d="
M 259.00 122.00 
C 285.33 122.00 311.67 122.00 338.00 122.00
C 370.87 122.00 405.28 119.04 438.00 122.00
C 441.21 125.08 439.04 135.98 439.00 141.00 C 438.96 146.02 437.48 154.04 438.00 160.00 C 438.52 165.96 438.00 173.86 438.00 180.00
C 438.00 187.88 437.26 196.16 438.00 204.00
C 439.80 223.14 438.00 243.24 438.00 263.00
C 438.00 271.43 438.25 279.96 439.00 288.00
C 440.77 306.83 438.00 326.83 438.00 346.00
C 438.00 353.87 437.24 362.17 438.00 370.00
C 439.78 388.39 438.00 408.65 438.00 428.00
C 438.00 436.00 438.00 444.00 438.00 452.00
C 444.67 452.00 451.33 452.00 458.00 452.00
C 458.00 321.33 458.00 190.67 458.00 60.00
C 391.67 60.00 325.33 60.00 259.00 60.00
C 259.00 80.67 259.00 101.33 259.00 122.00 Z"/>
</g>
<g fill="None" fill-opacity="0.0" stroke="#5A6A8A" stroke-opacity="0.19" stroke-width="0.3"><path d="
M 122.00 125.00 
C 122.00 124.96 123.00 125.00 123.00 125.00
C 123.00 117.11 123.71 108.85 123.00 101.00
C 123.00 101.00 122.00 100.96 122.00 101.00
C 122.00 109.00 122.00 117.00 122.00 125.00 Z"/>
</g>
<g fill="None" fill-opacity="0.0" stroke="#413F61" stroke-opacity="1.00" stroke-width="0.3"><path d="
M 123.00 125.00 
C 123.00 128.62 123.33 132.40 123.00 136.00
C 148.00 136.00 173.00 136.00 198.00 136.00
C 198.00 124.33 198.00 112.67 198.00 101.00
C 173.00 101.00 148.00 101.00 123.00 101.00
C 123.71 108.85 123.00 117.11 123.00 125.00 Z"/>
</g>
<g fill="None" fill-opacity="0.0" stroke="#A8AED0" stroke-opacity="1.00" stroke-width="0.3"><path d="
M 259.00 142.00 
C 262.98 139.21 271.94 143.22 277.00 142.00 C 282.06 140.78 289.49 142.46 295.00 142.00 C 300.51 141.54 307.37 142.00 313.00 142.00
C 321.33 142.00 329.67 142.00 338.00 142.00
C 337.40 135.39 338.45 128.63 338.00 122.00
C 311.67 122.00 285.33 122.00 259.00 122.00
C 259.61 128.26 259.61 135.74 259.00 142.00 Z"/>
</g>
<g fill="None" fill-opacity="0.0" stroke="#E2E3ED" stroke-opacity="1.00" stroke-width="0.3"><path d="
M 338.00 142.00 
C 338.50 142.00 339.00 142.00 339.00 142.00
C 339.57 135.72 338.57 129.29 339.00 123.00
C 372.00 123.00 405.00 123.00 438.00 123.00
C 438.00 122.50 438.00 122.00 438.00 122.00
C 405.28 119.04 370.87 122.00 338.00 122.00
C 338.45 128.63 337.40 135.39 338.00 142.00 Z"/>
</g>
<g fill="None" fill-opacity="0.0" stroke="#777D9F" stroke-opacity="1.00" stroke-width="0.3"><path d="
M 438.00 123.00 
C 438.00 129.33 438.00 135.67 438.00 142.00
C 433.33 142.00 428.67 142.00 424.00 142.00
C 424.00 149.23 413.87 147.00 409.00 147.00 C 404.13 147.00 394.00 149.26 394.00 142.00
C 375.67 142.00 357.33 142.00 339.00 142.00
C 339.00 142.00 338.50 142.00 338.00 142.00
C 329.67 142.00 321.33 142.00 313.00 142.00
C 313.00 154.67 313.00 167.33 313.00 180.00
C 354.67 180.00 396.33 180.00 438.00 180.00
C 438.00 173.86 438.52 165.96 438.00 160.00 C 437.48 154.04 438.96 146.02 439.00 141.00 C 439.04 135.98 441.21 125.08 438.00 122.00
C 438.00 122.00 438.00 122.50 438.00 123.00 Z"/>
</g>
<g fill="None" fill-opacity="0.0" stroke="#FDFDFD" stroke-opacity="1.00" stroke-width="0.3"><path d="
M 339.00 142.00 
C 357.33 142.00 375.67 142.00 394.00 142.00
C 394.00 134.77 404.13 137.00 409.00 137.00 C 413.87 137.00 424.00 134.74 424.00 142.00
C 428.67 142.00 433.33 142.00 438.00 142.00
C 438.00 135.67 438.00 129.33 438.00 123.00
C 405.00 123.00 372.00 123.00 339.00 123.00
C 338.57 129.29 339.57 135.72 339.00 142.00 Z"/>
</g>
<g fill="None" fill-opacity="0.0" stroke="#6584A3" stroke-opacity="0.13" stroke-width="0.3"><path d="
M 122.00 136.00 
C 122.00 136.00 122.50 136.00 123.00 136.00
C 123.33 132.40 123.00 128.62 123.00 125.00
C 123.00 125.00 122.00 124.96 122.00 125.00
C 122.00 128.67 122.00 132.33 122.00 136.00 Z"/>
</g>
<g fill="None" fill-opacity="0.0" stroke="#322F3F" stroke-opacity="1.00" stroke-width="0.3"><path d="
M 394.00 142.00 
C 394.00 149.26 404.13 147.00 409.00 147.00 C 413.87 147.00 424.00 149.23 424.00 142.00
C 424.00 134.74 413.87 137.00 409.00 137.00 C 404.13 137.00 394.00 134.77 394.00 142.00 Z"/>
</g>
<g fill="None" fill-opacity="0.0" stroke="#575683" stroke-opacity="1.00" stroke-width="0.3"><path d="
M 258.00 181.00 
C 288.00 181.00 318.00 181.00 348.00 181.00
C 348.00 189.00 348.00 197.00 348.00 205.00
C 348.50 205.00 349.00 205.00 349.00 205.00
C 353.06 201.99 360.67 204.60 366.00 204.00 C 371.33 203.40 378.45 204.07 384.00 204.00 C 389.55 203.93 396.53 203.57 402.00 204.00 C 407.47 204.43 414.97 202.80 420.00 204.00 C 425.03 205.20 434.06 201.21 438.00 204.00
C 437.26 196.16 438.00 187.88 438.00 180.00
C 396.33 180.00 354.67 180.00 313.00 180.00
C 313.00 167.33 313.00 154.67 313.00 142.00
C 307.37 142.00 300.51 141.54 295.00 142.00 C 289.49 142.46 282.06 140.78 277.00 142.00 C 271.94 143.22 262.98 139.21 259.00 142.00
C 257.82 154.15 258.00 168.06 258.00 181.00 Z"/>
</g>
<g fill="None" fill-opacity="0.0" stroke="#5D7291" stroke-opacity="0.17" stroke-width="0.3"><path d="
M 122.00 210.00 
C 122.00 209.96 123.00 210.00 123.00 210.00
C 124.00 198.96 124.00 186.04 123.00 175.00
C 123.00 175.00 122.00 174.96 122.00 175.00
C 122.00 186.67 122.00 198.33 122.00 210.00 Z"/>
</g>
<g fill="None" fill-opacity="0.0" stroke="#413E60" stroke-opacity="1.00" stroke-width="0.3"><path d="
M 123.00 210.00 
C 148.00 210.00 173.00 210.00 198.00 210.00
C 198.00 198.33 198.00 186.67 198.00 175.00
C 173.00 175.00 148.00 175.00 123.00 175.00
C 124.00 186.04 124.00 198.96 123.00 210.00 Z"/>
</g>
<g fill="None" fill-opacity="0.0" stroke="#3B3868" stroke-opacity="1.00" stroke-width="0.3"><path d="
M 258.00 205.00 
C 258.00 204.96 259.00 205.00 259.00 205.00
C 285.33 205.00 311.67 205.00 338.00 205.00
C 341.33 205.00 344.67 205.00 348.00 205.00
C 348.00 197.00 348.00 189.00 348.00 181.00
C 318.00 181.00 288.00 181.00 258.00 181.00
C 258.00 189.00 258.00 197.00 258.00 205.00 Z"/>
</g>
<g fill="None" fill-opacity="0.0" stroke="#777D9F" stroke-opacity="1.00" stroke-width="0.3"><path d="
M 349.00 205.00 
C 378.67 205.00 408.33 205.00 438.00 205.00
C 438.00 211.67 438.00 218.33 438.00 225.00
C 433.33 225.00 428.67 225.00 424.00 225.00
C 423.65 233.02 394.44 233.05 394.00 225.00
C 375.33 225.00 356.67 225.00 338.00 225.00
C 311.66 225.00 285.56 223.20 259.00 224.00
C 259.00 217.67 259.00 211.33 259.00 205.00
C 259.00 205.00 258.00 204.96 258.00 205.00
C 258.00 211.67 258.00 218.33 258.00 225.00
C 276.33 225.00 294.67 225.00 313.00 225.00
C 313.00 237.67 313.00 250.33 313.00 263.00
C 324.67 263.00 336.33 263.00 348.00 263.00
C 378.00 263.00 408.00 263.00 438.00 263.00
C 438.00 243.24 439.80 223.14 438.00 204.00
C 434.06 201.21 425.03 205.20 420.00 204.00 C 414.97 202.80 407.47 204.43 402.00 204.00 C 396.53 203.57 389.55 203.93 384.00 204.00 C 378.45 204.07 371.33 203.40 366.00 204.00 C 360.67 204.60 353.06 201.99 349.00 205.00 Z"/>
</g>
<g fill="None" fill-opacity="0.0" stroke="#A9AFD1" stroke-opacity="1.00" stroke-width="0.3"><path d="
M 338.00 225.00 
C 338.00 218.33 338.00 211.67 338.00 205.00
C 311.67 205.00 285.33 205.00 259.00 205.00
C 259.00 211.33 259.00 217.67 259.00 224.00
C 285.56 223.20 311.66 225.00 338.00 225.00 Z"/>
</g>
<g fill="None" fill-opacity="0.0" stroke="#FCFCFD" stroke-opacity="1.00" stroke-width="0.3"><path d="
M 338.00 225.00 
C 356.67 225.00 375.33 225.00 394.00 225.00
C 393.49 215.61 424.42 215.58 424.00 225.00
C 428.67 225.00 433.33 225.00 438.00 225.00
C 438.00 218.33 438.00 211.67 438.00 205.00
C 408.33 205.00 378.67 205.00 349.00 205.00
C 349.00 205.00 348.50 205.00 348.00 205.00
C 344.67 205.00 341.33 205.00 338.00 205.00
C 338.00 211.67 338.00 218.33 338.00 225.00 Z"/>
</g>
<g fill="None" fill-opacity="0.0" stroke="#96C3E1" stroke-opacity="0.07" stroke-width="0.3"><path d="
M 122.00 256.00 
C 122.50 256.00 123.00 256.00 123.00 256.00
C 123.00 240.88 124.36 225.05 123.00 210.00
C 123.00 210.00 122.00 209.96 122.00 210.00
C 122.00 225.12 120.64 240.95 122.00 256.00 Z"/>
</g>
<g fill="None" fill-opacity="0.0" stroke="#343141" stroke-opacity="1.00" stroke-width="0.3"><path d="
M 394.00 225.00 
C 394.44 233.05 423.65 233.02 424.00 225.00
C 424.42 215.58 393.49 215.61 394.00 225.00 Z"/>
</g>
<g fill="None" fill-opacity="0.0" stroke="#5A5B87" stroke-opacity="1.00" stroke-width="0.3"><path d="
M 258.00 263.00 
C 276.33 263.00 294.67 263.00 313.00 263.00
C 313.00 250.33 313.00 237.67 313.00 225.00
C 294.67 225.00 276.33 225.00 258.00 225.00
C 258.00 237.67 258.00 250.33 258.00 263.00 Z"/>
</g>
<g fill="None" fill-opacity="0.0" stroke="#FDFDFE" stroke-opacity="1.00" stroke-width="0.3"><path d="
M 171.00 239.00 
C 165.02 237.19 148.58 236.93 147.78 245.78 C 146.98 254.63 145.65 265.00 147.03 274.97 C 148.40 284.95 158.72 282.59 168.00 283.00 C 177.27 283.40 178.57 269.48 177.00 262.00 C 175.43 254.52 180.64 241.93 171.00 239.00 Z"/>
</g>
<g fill="None" fill-opacity="0.0" stroke="#777EA0" stroke-opacity="0.99" stroke-width="0.3"><path d="
M 5.00 318.00 
C 5.80 336.70 6.92 356.47 6.00 376.00 C 5.08 395.53 7.77 416.45 6.00 436.00
C 14.67 436.00 23.33 436.00 32.00 436.00
C 32.00 424.33 32.00 412.67 32.00 401.00
C 32.00 374.16 28.81 343.80 33.00 318.00
C 35.39 273.97 92.35 283.19 123.00 283.00
C 123.00 274.00 123.00 265.00 123.00 256.00
C 123.00 256.00 122.50 256.00 122.00 256.00
C 96.95 256.00 60.83 252.12 39.70 263.70 C 18.56 275.28 6.24 295.07 5.00 318.00 Z"/>
</g>
<g fill="None" fill-opacity="0.0" stroke="#3B3868" stroke-opacity="1.00" stroke-width="0.3"><path d="
M 258.00 287.00 
C 284.67 287.01 311.33 286.99 338.00 287.00
C 338.50 287.00 339.00 287.00 339.00 287.00
C 342.00 287.00 345.00 287.00 348.00 287.00
C 348.00 279.00 348.00 271.00 348.00 263.00
C 336.33 263.00 324.67 263.00 313.00 263.00
C 294.67 263.00 276.33 263.00 258.00 263.00
C 258.00 271.00 258.00 279.00 258.00 287.00 Z"/>
</g>
<g fill="None" fill-opacity="0.0" stroke="#535080" stroke-opacity="1.00" stroke-width="0.3"><path d="
M 348.00 287.00 
C 357.54 287.00 368.61 286.39 378.00 287.00 C 387.39 287.61 399.18 285.38 408.00 287.00 C 416.82 288.62 431.22 282.97 438.00 288.00
C 438.32 288.24 439.00 288.00 439.00 288.00
C 438.25 279.96 438.00 271.43 438.00 263.00
C 408.00 263.00 378.00 263.00 348.00 263.00
C 348.00 271.00 348.00 279.00 348.00 287.00 Z"/>
</g>
<g fill="None" fill-opacity="0.0" stroke="#5A5B87" stroke-opacity="1.00" stroke-width="0.3"><path d="
M 33.00 318.00 
C 31.51 345.50 35.48 373.58 33.00 401.00
C 41.67 401.00 50.33 401.00 59.00 401.00
C 57.83 388.05 58.61 372.89 59.00 360.00 C 59.39 347.11 56.32 331.64 60.00 320.00
C 63.78 308.05 74.84 309.84 86.00 310.00 C 97.16 310.16 111.55 309.88 123.00 310.00
C 123.00 301.00 123.00 292.00 123.00 283.00
C 92.35 283.19 35.39 273.97 33.00 318.00 Z"/>
</g>
<g fill="None" fill-opacity="0.0" stroke="#777D9F" stroke-opacity="1.00" stroke-width="0.3"><path d="
M 258.00 308.00 
C 276.33 308.00 294.67 308.00 313.00 308.00
C 313.00 320.67 313.00 333.33 313.00 346.00
C 324.67 346.00 336.33 346.00 348.00 346.00
C 378.00 346.00 408.00 346.00 438.00 346.00
C 438.00 326.83 440.77 306.83 439.00 288.00
C 439.00 288.00 438.32 288.24 438.00 288.00
C 437.43 294.28 438.43 300.70 438.00 307.00
C 433.33 307.00 428.67 307.00 424.00 307.00
C 424.30 313.76 414.69 312.36 410.00 312.00 C 405.31 311.64 395.25 314.52 394.00 308.00
C 349.16 312.04 304.03 303.45 259.00 307.00
C 259.00 300.67 259.00 294.33 259.00 288.00
C 285.17 287.33 312.66 289.33 338.00 287.00
C 311.33 286.99 284.67 287.01 258.00 287.00
C 258.00 294.00 258.00 301.00 258.00 308.00 Z"/>
</g>
<g fill="None" fill-opacity="0.0" stroke="#A9AFD0" stroke-opacity="1.00" stroke-width="0.3"><path d="
M 394.00 308.00 
C 393.91 307.52 394.00 307.00 394.00 307.00
C 375.49 305.33 356.55 308.25 338.00 307.00
C 338.58 300.40 336.79 293.17 339.00 287.00
C 339.00 287.00 338.50 287.00 338.00 287.00
C 312.66 289.33 285.17 287.33 259.00 288.00
C 259.00 294.33 259.00 300.67 259.00 307.00
C 304.03 303.45 349.16 312.04 394.00 308.00 Z"/>
</g>
<g fill="None" fill-opacity="0.0" stroke="#FAFAFB" stroke-opacity="1.00" stroke-width="0.3"><path d="
M 394.00 307.00 
C 394.58 299.08 423.64 298.85 424.00 307.00
C 428.67 307.00 433.33 307.00 438.00 307.00
C 438.43 300.70 437.43 294.28 438.00 288.00
C 431.22 282.97 416.82 288.62 408.00 287.00 C 399.18 285.38 387.39 287.61 378.00 287.00 C 368.61 286.39 357.54 287.00 348.00 287.00
C 345.00 287.00 342.00 287.00 339.00 287.00
C 336.79 293.17 338.58 300.40 338.00 307.00
C 356.55 308.25 375.49 305.33 394.00 307.00 Z"/>
</g>
<g fill="None" fill-opacity="0.0" stroke="#312E3E" stroke-opacity="1.00" stroke-width="0.3"><path d="
M 394.00 307.00 
C 394.00 307.00 393.91 307.52 394.00 308.00
C 395.25 314.52 405.31 311.64 410.00 312.00 C 414.69 312.36 424.30 313.76 424.00 307.00
C 423.64 298.85 394.58 299.08 394.00 307.00 Z"/>
</g>
<g fill="None" fill-opacity="0.0" stroke="#595B86" stroke-opacity="1.00" stroke-width="0.3"><path d="
M 258.00 346.00 
C 276.33 346.00 294.67 346.00 313.00 346.00
C 313.00 333.33 313.00 320.67 313.00 308.00
C 294.67 308.00 276.33 308.00 258.00 308.00
C 258.00 320.67 258.00 333.33 258.00 346.00 Z"/>
</g>
<g fill="None" fill-opacity="0.0" stroke="#3B3868" stroke-opacity="0.99" stroke-width="0.3"><path d="
M 60.00 320.00 
C 57.50 333.97 60.00 350.77 60.00 365.00
C 68.67 365.00 77.33 365.00 86.00 365.00
C 85.55 360.05 84.75 338.91 87.00 338.00
C 91.83 336.04 100.21 339.76 105.00 338.00 C 109.79 336.24 118.02 340.79 122.00 338.00
C 122.83 329.44 123.00 319.33 123.00 310.00
C 111.55 309.88 97.16 310.16 86.00 310.00 C 74.84 309.84 63.78 308.05 60.00 320.00 Z"/>
</g>
<g fill="None" fill-opacity="0.0" stroke="#D9F0F0" stroke-opacity="1.00" stroke-width="0.3"><path d="
M 170.00 312.00 
C 154.41 308.37 144.74 316.28 147.00 331.00 C 149.26 345.72 145.32 358.36 147.00 372.00 C 148.68 385.64 144.79 400.45 147.00 413.00 C 149.21 425.55 139.94 440.96 154.00 447.00 C 168.06 453.04 180.42 441.84 177.00 428.00 C 173.58 414.16 179.02 399.78 177.00 387.00 C 174.98 374.22 178.97 357.13 177.00 346.00 C 175.03 334.87 183.03 315.03 170.00 312.00 Z"/>
</g>
<g fill="None" fill-opacity="0.0" stroke="#787EA1" stroke-opacity="0.66" stroke-width="0.3"><path d="
M 5.00 436.00 
C 5.00 435.96 6.00 436.00 6.00 436.00
C 7.77 416.45 5.08 395.53 6.00 376.00 C 6.92 356.47 5.80 336.70 5.00 318.00
C 2.88 357.07 5.00 396.86 5.00 436.00 Z"/>
</g>
<g fill="None" fill-opacity="0.0" stroke="#63638C" stroke-opacity="0.76" stroke-width="0.3"><path d="
M 32.00 401.00 
C 32.00 400.96 33.00 401.00 33.00 401.00
C 35.48 373.58 31.51 345.50 33.00 318.00
C 28.81 343.80 32.00 374.16 32.00 401.00 Z"/>
</g>
<g fill="None" fill-opacity="0.0" stroke="#45446D" stroke-opacity="0.80" stroke-width="0.3"><path d="
M 59.00 401.00 
C 59.50 401.00 60.00 401.00 60.00 401.00
C 60.00 389.00 60.00 377.00 60.00 365.00
C 60.00 350.77 57.50 333.97 60.00 320.00
C 56.32 331.64 59.39 347.11 59.00 360.00 C 58.61 372.89 57.83 388.05 59.00 401.00 Z"/>
</g>
<g fill="None" fill-opacity="0.0" stroke="#3B3868" stroke-opacity="0.67" stroke-width="0.3"><path d="
M 86.00 365.00 
C 86.00 364.96 87.00 365.00 87.00 365.00
C 87.00 357.33 89.37 345.23 87.00 338.00
C 84.75 338.91 85.55 360.05 86.00 365.00 Z"/>
</g>
<g fill="None" fill-opacity="0.0" stroke="#3B3868" stroke-opacity="1.00" stroke-width="0.3"><path d="
M 259.00 370.00 
C 263.35 373.04 272.37 368.72 278.00 370.00 C 283.63 371.28 291.82 369.44 298.00 370.00 C 304.18 370.56 311.59 369.79 318.00 370.00 C 324.41 370.21 331.52 370.00 338.00 370.00
C 341.33 370.00 344.67 370.00 348.00 370.00
C 348.00 362.00 348.00 354.00 348.00 346.00
C 336.33 346.00 324.67 346.00 313.00 346.00
C 294.67 346.00 276.33 346.00 258.00 346.00
C 258.00 354.03 258.29 362.67 259.00 370.00 Z"/>
</g>
<g fill="None" fill-opacity="0.0" stroke="#535080" stroke-opacity="1.00" stroke-width="0.3"><path d="
M 348.00 370.00 
C 378.00 370.00 408.00 370.00 438.00 370.00
C 437.24 362.17 438.00 353.87 438.00 346.00
C 408.00 346.00 378.00 346.00 348.00 346.00
C 348.00 354.00 348.00 362.00 348.00 370.00 Z"/>
</g>
<g fill="None" fill-opacity="0.0" stroke="#3B3854" stroke-opacity="1.00" stroke-width="0.3"><path d="
M 60.00 401.00 
C 60.00 427.33 60.00 453.67 60.00 480.00
C 63.71 480.00 69.50 480.72 73.00 480.00 C 76.50 479.28 83.26 481.92 86.00 480.00
C 88.58 441.90 82.56 403.02 86.00 365.00
C 77.33 365.00 68.67 365.00 60.00 365.00
C 60.00 377.00 60.00 389.00 60.00 401.00 Z"/>
</g>
<g fill="None" fill-opacity="0.0" stroke="#3B3859" stroke-opacity="0.89" stroke-width="0.3"><path d="
M 86.00 480.00 
C 89.92 477.26 85.83 466.02 87.00 461.00 C 88.17 455.98 86.48 447.78 87.00 442.00 C 87.52 436.22 86.78 429.18 87.00 423.00 C 87.22 416.82 86.90 409.31 87.00 403.00 C 87.10 396.69 86.96 390.32 87.00 384.00 C 87.04 377.68 87.00 371.32 87.00 365.00
C 87.00 365.00 86.00 364.96 86.00 365.00
C 82.56 403.02 88.58 441.90 86.00 480.00 Z"/>
</g>
<g fill="None" fill-opacity="0.0" stroke="#A8AED0" stroke-opacity="1.00" stroke-width="0.3"><path d="
M 259.00 390.00 
C 262.98 387.21 271.94 391.22 277.00 390.00 C 282.06 388.78 289.49 390.46 295.00 390.00 C 300.51 389.54 307.37 390.00 313.00 390.00
C 321.33 390.00 329.67 390.00 338.00 390.00
C 338.00 383.33 338.00 376.67 338.00 370.00
C 331.52 370.00 324.41 370.21 318.00 370.00 C 311.59 369.79 304.18 370.56 298.00 370.00 C 291.82 369.44 283.63 371.28 278.00 370.00 C 272.37 368.72 263.35 373.04 259.00 370.00
C 259.61 376.26 259.61 383.74 259.00 390.00 Z"/>
</g>
<g fill="None" fill-opacity="0.0" stroke="#FDFDFD" stroke-opacity="1.00" stroke-width="0.3"><path d="
M 338.00 390.00 
C 356.67 390.00 375.33 390.00 394.00 390.00
C 393.87 387.03 395.84 385.94 398.00 385.00
C 402.88 382.87 415.19 382.90 420.00 385.00
C 422.13 385.93 424.13 387.02 424.00 390.00
C 428.67 390.00 433.33 390.00 438.00 390.00
C 438.00 383.33 438.00 376.67 438.00 370.00
C 408.00 370.00 378.00 370.00 348.00 370.00
C 344.67 370.00 341.33 370.00 338.00 370.00
C 338.00 376.67 338.00 383.33 338.00 390.00 Z"/>
</g>
<g fill="None" fill-opacity="0.0" stroke="#777D9F" stroke-opacity="1.00" stroke-width="0.3"><path d="
M 424.00 390.00 
C 423.65 398.02 394.35 398.04 394.00 390.00
C 375.33 390.00 356.67 390.00 338.00 390.00
C 329.67 390.00 321.33 390.00 313.00 390.00
C 313.00 402.67 313.00 415.33 313.00 428.00
C 324.67 428.00 336.33 428.00 348.00 428.00
C 378.00 428.00 408.00 428.00 438.00 428.00
C 438.00 408.65 439.78 388.39 438.00 370.00
C 438.00 376.67 438.00 383.33 438.00 390.00
C 433.33 390.00 428.67 390.00 424.00 390.00 Z"/>
</g>
<g fill="None" fill-opacity="0.0" stroke="#84828C" stroke-opacity="1.00" stroke-width="0.3"><path d="
M 398.00 385.00 
C 402.79 383.68 415.21 383.68 420.00 385.00
C 415.19 382.90 402.88 382.87 398.00 385.00 Z"/>
</g>
<g fill="None" fill-opacity="0.0" stroke="#312E3E" stroke-opacity="1.00" stroke-width="0.3"><path d="
M 394.00 390.00 
C 394.35 398.04 423.65 398.02 424.00 390.00
C 424.13 387.02 422.13 385.93 420.00 385.00
C 415.21 383.68 402.79 383.68 398.00 385.00
C 395.84 385.94 393.87 387.03 394.00 390.00 Z"/>
</g>
<g fill="None" fill-opacity="0.0" stroke="#5A5B87" stroke-opacity="1.00" stroke-width="0.3"><path d="
M 258.00 429.00 
C 260.75 425.11 271.24 429.07 276.00 428.00 C 280.76 426.93 289.61 428.43 295.00 428.00 C 300.39 427.57 307.46 428.00 313.00 428.00
C 313.00 415.33 313.00 402.67 313.00 390.00
C 307.37 390.00 300.51 389.54 295.00 390.00 C 289.49 390.46 282.06 388.78 277.00 390.00 C 271.94 391.22 262.98 387.21 259.00 390.00
C 257.82 402.16 258.00 416.06 258.00 429.00 Z"/>
</g>
<g fill="None" fill-opacity="0.0" stroke="#3B3868" stroke-opacity="1.00" stroke-width="0.3"><path d="
M 32.00 436.00 
C 32.00 450.67 32.00 465.33 32.00 480.00
C 41.33 480.00 50.67 480.00 60.00 480.00
C 60.00 453.67 60.00 427.33 60.00 401.00
C 60.00 401.00 59.50 401.00 59.00 401.00
C 50.33 401.00 41.67 401.00 33.00 401.00
C 33.00 401.00 32.00 400.96 32.00 401.00
C 32.00 412.67 32.00 424.33 32.00 436.00 Z"/>
</g>
<g fill="None" fill-opacity="0.0" stroke="#545180" stroke-opacity="1.00" stroke-width="0.3"><path d="
M 438.00 452.00 
C 438.00 444.00 438.00 436.00 438.00 428.00
C 408.00 428.00 378.00 428.00 348.00 428.00
C 350.25 435.49 348.39 444.07 349.00 452.00
C 378.67 452.00 408.33 452.00 438.00 452.00 Z"/>
</g>
<g fill="None" fill-opacity="0.0" stroke="#61658E" stroke-opacity="0.89" stroke-width="0.3"><path d="
M 6.00 480.00 
C 5.01 465.42 7.31 450.55 6.00 436.00
C 6.00 436.00 5.00 435.96 5.00 436.00
C 5.00 442.05 4.09 453.49 5.00 459.00 C 5.91 464.51 1.93 477.15 6.00 480.00 Z"/>
</g>
<g fill="None" fill-opacity="0.0" stroke="#5A5B87" stroke-opacity="1.00" stroke-width="0.3"><path d="
M 6.00 480.00 
C 8.74 481.92 15.50 479.28 19.00 480.00 C 22.50 480.72 28.29 480.00 32.00 480.00
C 32.00 465.33 32.00 450.67 32.00 436.00
C 23.33 436.00 14.67 436.00 6.00 436.00
C 7.31 450.55 5.01 465.42 6.00 480.00 Z"/>
</g>
<g fill="None" fill-opacity="0.0" stroke="#9BC0E6" stroke-opacity="0.84" stroke-width="0.3"><path d="
M 123.00 480.00 
C 127.03 482.82 135.89 478.73 141.00 480.00 C 146.11 481.27 153.40 479.43 159.00 480.00 C 164.60 480.57 171.18 479.74 177.00 480.00 C 182.82 480.26 189.09 479.89 195.00 480.00 C 200.91 480.11 207.04 479.96 213.00 480.00 C 218.96 480.04 225.03 480.00 231.00 480.00
C 231.00 480.00 231.00 479.50 231.00 479.00
C 195.50 475.79 157.83 480.57 123.00 480.00 Z"/>
</g>
<g fill="#000000" fill-opacity="0.00" stroke="None">
<path d="
M 0.00 512.00 
L 512.00 512.00
L 512.00 0.00
L 0.00 0.00
L 0.00 512.00
M 507.00 59.00 
C 507.00 67.71 507.00 76.27 507.00 85.00 C 507.00 93.73 507.00 102.22 507.00 111.00 C 507.00 119.78 507.00 129.21 507.00 138.00 C 507.00 146.79 507.00 155.23 507.00 164.00 C 507.00 172.77 507.00 181.19 507.00 190.00 C 507.00 198.81 507.00 208.18 507.00 217.00 C 507.00 225.82 507.00 234.18 507.00 243.00 C 507.00 251.82 507.01 261.20 507.00 270.00 C 506.99 278.80 507.01 287.24 507.00 296.00 C 506.99 304.76 507.03 313.23 507.00 322.00 C 506.97 330.77 507.07 340.26 507.00 349.00 C 506.93 357.74 507.15 366.37 507.00 375.00 C 506.85 383.63 507.33 392.51 507.00 401.00 C 506.67 409.49 507.71 419.86 507.00 428.00 C 506.29 436.14 508.63 446.75 507.00 454.00 C 505.37 461.25 510.95 475.24 506.00 480.00
C 475.77 482.72 445.41 478.83 415.00 480.00 C 384.59 481.17 353.54 479.56 323.00 480.00 C 292.46 480.44 261.57 480.00 231.00 480.00
C 225.03 480.00 218.96 480.04 213.00 480.00 C 207.04 479.96 200.91 480.11 195.00 480.00 C 189.09 479.89 182.82 480.26 177.00 480.00 C 171.18 479.74 164.60 480.57 159.00 480.00 C 153.40 479.43 146.11 481.27 141.00 480.00 C 135.89 478.73 127.03 482.82 123.00 480.00
C 118.99 477.19 123.13 466.27 122.00 461.00 C 120.87 455.73 122.48 447.17 122.00 441.00 C 121.52 434.83 122.20 426.52 122.00 420.00 C 121.80 413.48 122.04 406.71 122.00 400.00 C 121.96 393.29 121.91 385.78 122.00 379.00 C 122.09 372.22 121.70 365.81 122.00 359.00 C 122.30 352.19 121.34 344.81 122.00 338.00
C 118.02 340.79 109.79 336.24 105.00 338.00 C 100.21 339.76 91.83 336.04 87.00 338.00
C 89.37 345.23 87.00 357.33 87.00 365.00
C 87.00 371.32 87.04 377.68 87.00 384.00 C 86.96 390.32 87.10 396.69 87.00 403.00 C 86.90 409.31 87.22 416.82 87.00 423.00 C 86.78 429.18 87.52 436.22 87.00 442.00 C 86.48 447.78 88.17 455.98 87.00 461.00 C 85.83 466.02 89.92 477.26 86.00 480.00
C 83.26 481.92 76.50 479.28 73.00 480.00 C 69.50 480.72 63.71 480.00 60.00 480.00
C 50.67 480.00 41.33 480.00 32.00 480.00
C 28.29 480.00 22.50 480.72 19.00 480.00 C 15.50 479.28 8.74 481.92 6.00 480.00
C 1.93 477.15 5.91 464.51 5.00 459.00 C 4.09 453.49 5.00 442.05 5.00 436.00
C 5.00 396.86 2.88 357.07 5.00 318.00
C 6.24 295.07 18.56 275.28 39.70 263.70 C 60.83 252.12 96.95 256.00 122.00 256.00
C 120.64 240.95 122.00 225.12 122.00 210.00
C 122.00 198.33 122.00 186.67 122.00 175.00
C 122.00 162.00 122.00 149.00 122.00 136.00
C 122.00 132.33 122.00 128.67 122.00 125.00
C 122.00 117.00 122.00 109.00 122.00 101.00
C 122.00 95.45 121.83 89.51 122.00 84.00 C 122.17 78.49 121.58 71.28 122.00 66.00 C 122.42 60.72 120.99 53.58 122.00 49.00 C 123.01 44.42 119.39 34.52 123.00 32.00
C 127.78 28.66 137.85 33.44 144.00 32.00 C 150.15 30.56 159.29 32.67 166.00 32.00 C 172.71 31.33 179.99 32.28 187.00 32.00 C 194.01 31.72 201.84 32.10 209.00 32.00 C 216.16 31.90 223.79 32.00 231.00 32.00
C 323.00 32.00 415.00 32.00 507.00 32.00
C 507.00 41.00 507.00 50.00 507.00 59.00 Z"/>
</g>
<g fill="#A4CBE9" fill-opacity="0.09" stroke="None">
<path d="
M 122.00 101.00 
C 122.00 100.96 123.00 101.00 123.00 101.00
C 124.24 87.26 123.00 72.81 123.00 59.00
C 123.00 50.00 123.00 41.00 123.00 32.00
C 119.39 34.52 123.01 44.42 122.00 49.00 C 120.99 53.58 122.42 60.72 122.00 66.00 C 121.58 71.28 122.17 78.49 122.00 84.00 C 121.83 89.51 122.00 95.45 122.00 101.00 Z"/>
</g>
<g fill="#E0E6F9" fill-opacity="1.00" stroke="None">
<path d="
M 123.00 59.00 
C 159.00 59.00 195.00 59.00 231.00 59.00
C 230.19 50.07 231.60 40.95 231.00 32.00
C 223.79 32.00 216.16 31.90 209.00 32.00 C 201.84 32.10 194.01 31.72 187.00 32.00 C 179.99 32.28 172.71 31.33 166.00 32.00 C 159.29 32.67 150.15 30.56 144.00 32.00 C 137.85 33.44 127.78 28.66 123.00 32.00
C 123.00 41.00 123.00 50.00 123.00 59.00 Z"/>
</g>
<g fill="#AEC3F0" fill-opacity="1.00" stroke="None">
<path d="
M 231.00 59.00 
C 231.00 58.96 232.00 59.00 232.00 59.00
C 241.00 59.00 250.00 59.00 259.00 59.00
C 325.33 59.00 391.67 59.00 458.00 59.00
C 465.00 59.00 472.00 59.00 479.00 59.00
C 488.00 59.00 497.00 59.00 506.00 59.00
C 506.50 59.00 507.00 59.00 507.00 59.00
C 507.00 50.00 507.00 41.00 507.00 32.00
C 415.00 32.00 323.00 32.00 231.00 32.00
C 231.60 40.95 230.19 50.07 231.00 59.00 Z"/>
</g>
<g fill="#9BBFE5" fill-opacity="1.00" stroke="None">
<path d="
M 123.00 101.00 
C 148.00 101.00 173.00 101.00 198.00 101.00
C 198.00 112.67 198.00 124.33 198.00 136.00
C 173.00 136.00 148.00 136.00 123.00 136.00
C 122.50 136.00 122.00 136.00 122.00 136.00
C 122.00 149.00 122.00 162.00 122.00 175.00
C 122.00 174.96 123.00 175.00 123.00 175.00
C 148.00 175.00 173.00 175.00 198.00 175.00
C 198.00 186.67 198.00 198.33 198.00 210.00
C 173.00 210.00 148.00 210.00 123.00 210.00
C 124.36 225.05 123.00 240.88 123.00 256.00
C 123.00 265.00 123.00 274.00 123.00 283.00
C 123.00 292.00 123.00 301.00 123.00 310.00
C 123.00 319.33 122.83 329.44 122.00 338.00
C 121.34 344.81 122.30 352.19 122.00 359.00 C 121.70 365.81 122.09 372.22 122.00 379.00 C 121.91 385.78 121.96 393.29 122.00 400.00 C 122.04 406.71 121.80 413.48 122.00 420.00 C 122.20 426.52 121.52 434.83 122.00 441.00 C 122.48 447.17 120.87 455.73 122.00 461.00 C 123.13 466.27 118.99 477.19 123.00 480.00
C 157.83 480.57 195.50 475.79 231.00 479.00
C 231.00 444.02 230.77 408.97 231.00 374.00 C 231.23 339.03 230.39 303.94 231.00 269.00 C 231.61 234.06 229.59 198.87 231.00 164.00 C 232.41 129.13 227.86 93.71 231.00 59.00
C 195.00 59.00 159.00 59.00 123.00 59.00
C 123.00 72.81 124.24 87.26 123.00 101.00
M 171.00 239.00 
C 180.64 241.93 175.43 254.52 177.00 262.00 C 178.57 269.48 177.27 283.40 168.00 283.00 C 158.72 282.59 148.40 284.95 147.03 274.97 C 145.65 265.00 146.98 254.63 147.78 245.78 C 148.58 236.93 165.02 237.19 171.00 239.00
M 170.00 312.00 
C 183.03 315.03 175.03 334.87 177.00 346.00 C 178.97 357.13 174.98 374.22 177.00 387.00 C 179.02 399.78 173.58 414.16 177.00 428.00 C 180.42 441.84 168.06 453.04 154.00 447.00 C 139.94 440.96 149.21 425.55 147.00 413.00 C 144.79 400.45 148.68 385.64 147.00 372.00 C 145.32 358.36 149.26 345.72 147.00 331.00 C 144.74 316.28 154.41 308.37 170.00 312.00 Z"/>
</g>
<g fill="#7D95C4" fill-opacity="0.80" stroke="None">
<path d="
M 231.00 479.00 
C 231.00 479.50 231.00 480.00 231.00 480.00
C 261.57 480.00 292.46 480.44 323.00 480.00 C 353.54 479.56 384.59 481.17 415.00 480.00 C 445.41 478.83 475.77 482.72 506.00 480.00
C 506.04 480.00 506.00 479.00 506.00 479.00
C 460.70 474.90 414.47 481.14 369.00 479.00 C 323.53 476.86 277.52 480.60 232.00 479.00
C 232.00 339.00 232.00 199.00 232.00 59.00
C 232.00 59.00 231.00 58.96 231.00 59.00
C 227.86 93.71 232.41 129.13 231.00 164.00 C 229.59 198.87 231.61 234.06 231.00 269.00 C 230.39 303.94 231.23 339.03 231.00 374.00 C 230.77 408.97 231.00 444.02 231.00 479.00 Z"/>
</g>
<g fill="#788CBD" fill-opacity="1.00" stroke="None">
<path d="
M 506.00 479.00 
C 506.01 444.02 505.77 408.97 506.00 374.00 C 506.23 339.03 505.38 303.94 506.00 269.00 C 506.62 234.06 504.59 198.87 506.00 164.00 C 507.41 129.13 502.86 93.71 506.00 59.00
C 497.00 59.00 488.00 59.00 479.00 59.00
C 483.37 62.09 478.77 73.38 480.00 79.00 C 481.23 84.62 479.44 94.44 480.00 101.00 C 480.56 107.56 479.75 116.02 480.00 123.00 C 480.25 129.98 479.89 137.82 480.00 145.00 C 480.11 152.18 479.95 159.74 480.00 167.00 C 480.05 174.26 479.98 181.70 480.00 189.00 C 480.02 196.30 479.99 203.68 480.00 211.00 C 480.01 218.32 479.99 225.67 480.00 233.00 C 480.01 240.33 480.00 247.67 480.00 255.00 C 480.00 262.33 480.00 269.67 480.00 277.00 C 480.00 284.33 480.00 291.67 480.00 299.00 C 480.00 306.33 480.00 313.67 480.00 321.00 C 480.00 328.33 480.00 335.67 480.00 343.00 C 480.00 350.33 480.00 357.67 480.00 365.00 C 480.00 372.33 480.00 379.67 480.00 387.00 C 480.00 394.33 480.00 401.67 480.00 409.00 C 480.00 416.33 480.00 423.67 480.00 431.00 C 480.00 438.33 480.00 445.67 480.00 453.00
C 472.67 453.00 465.33 453.00 458.00 453.00
C 391.33 453.00 324.67 453.00 258.00 453.00
C 258.00 445.00 258.00 437.00 258.00 429.00
C 258.00 416.06 257.82 402.16 259.00 390.00
C 259.61 383.74 259.61 376.26 259.00 370.00
C 258.29 362.67 258.00 354.03 258.00 346.00
C 258.00 333.33 258.00 320.67 258.00 308.00
C 258.00 301.00 258.00 294.00 258.00 287.00
C 258.00 279.00 258.00 271.00 258.00 263.00
C 258.00 250.33 258.00 237.67 258.00 225.00
C 258.00 218.33 258.00 211.67 258.00 205.00
C 258.00 197.00 258.00 189.00 258.00 181.00
C 258.00 168.06 257.82 154.15 259.00 142.00
C 259.61 135.74 259.61 128.26 259.00 122.00
C 258.47 116.49 257.10 108.10 258.00 102.00 C 258.90 95.90 256.55 85.43 258.00 80.00 C 259.45 74.57 254.55 62.14 259.00 59.00
C 250.00 59.00 241.00 59.00 232.00 59.00
C 232.00 199.00 232.00 339.00 232.00 479.00
C 277.52 480.60 323.53 476.86 369.00 479.00 C 414.47 481.14 460.70 474.90 506.00 479.00 Z"/>
</g>
<g fill="#434068" fill-opacity="1.00" stroke="None">
<path d="
M 259.00 122.00 
C 259.00 101.33 259.00 80.67 259.00 60.00
C 325.33 60.00 391.67 60.00 458.00 60.00
C 458.00 190.67 458.00 321.33 458.00 452.00
C 451.33 452.00 444.67 452.00 438.00 452.00
C 408.33 452.00 378.67 452.00 349.00 452.00
C 348.39 444.07 350.25 435.49 348.00 428.00
C 336.33 428.00 324.67 428.00 313.00 428.00
C 307.46 428.00 300.39 427.57 295.00 428.00 C 289.61 428.43 280.76 426.93 276.00 428.00 C 271.24 429.07 260.75 425.11 258.00 429.00
C 258.00 437.00 258.00 445.00 258.00 453.00
C 324.67 453.00 391.33 453.00 458.00 453.00
C 464.25 452.39 472.04 451.37 479.00 452.00
C 479.00 321.33 479.00 190.67 479.00 60.00
C 472.17 59.34 464.01 61.32 458.00 59.00
C 391.67 59.00 325.33 59.00 259.00 59.00
C 254.55 62.14 259.45 74.57 258.00 80.00 C 256.55 85.43 258.90 95.90 258.00 102.00 C 257.10 108.10 258.47 116.49 259.00 122.00 Z"/>
</g>
<g fill="#5A618B" fill-opacity="1.00" stroke="None">
<path d="
M 458.00 453.00 
C 465.33 453.00 472.67 453.00 480.00 453.00
C 480.00 445.67 480.00 438.33 480.00 431.00 C 480.00 423.67 480.00 416.33 480.00 409.00 C 480.00 401.67 480.00 394.33 480.00 387.00 C 480.00 379.67 480.00 372.33 480.00 365.00 C 480.00 357.67 480.00 350.33 480.00 343.00 C 480.00 335.67 480.00 328.33 480.00 321.00 C 480.00 313.67 480.00 306.33 480.00 299.00 C 480.00 291.67 480.00 284.33 480.00 277.00 C 480.00 269.67 480.00 262.33 480.00 255.00 C 480.00 247.67 480.01 240.33 480.00 233.00 C 479.99 225.67 480.01 218.32 480.00 211.00 C 479.99 203.68 480.02 196.30 480.00 189.00 C 479.98 181.70 480.05 174.26 480.00 167.00 C 479.95 159.74 480.11 152.18 480.00 145.00 C 479.89 137.82 480.25 129.98 480.00 123.00 C 479.75 116.02 480.56 107.56 480.00 101.00 C 479.44 94.44 481.23 84.62 480.00 79.00 C 478.77 73.38 483.37 62.09 479.00 59.00
C 472.00 59.00 465.00 59.00 458.00 59.00
C 464.01 61.32 472.17 59.34 479.00 60.00
C 479.00 190.67 479.00 321.33 479.00 452.00
C 472.04 451.37 464.25 452.39 458.00 453.00 Z"/>
</g>
<g fill="#778FBD" fill-opacity="0.67" stroke="None">
<path d="
M 506.00 479.00 
C 506.00 479.00 506.04 480.00 506.00 480.00
C 510.95 475.24 505.37 461.25 507.00 454.00 C 508.63 446.75 506.29 436.14 507.00 428.00 C 507.71 419.86 506.67 409.49 507.00 401.00 C 507.33 392.51 506.85 383.63 507.00 375.00 C 507.15 366.37 506.93 357.74 507.00 349.00 C 507.07 340.26 506.97 330.77 507.00 322.00 C 507.03 313.23 506.99 304.76 507.00 296.00 C 507.01 287.24 506.99 278.80 507.00 270.00 C 507.01 261.20 507.00 251.82 507.00 243.00 C 507.00 234.18 507.00 225.82 507.00 217.00 C 507.00 208.18 507.00 198.81 507.00 190.00 C 507.00 181.19 507.00 172.77 507.00 164.00 C 507.00 155.23 507.00 146.79 507.00 138.00 C 507.00 129.21 507.00 119.78 507.00 111.00 C 507.00 102.22 507.00 93.73 507.00 85.00 C 507.00 76.27 507.00 67.71 507.00 59.00
C 507.00 59.00 506.50 59.00 506.00 59.00
C 502.86 93.71 507.41 129.13 506.00 164.00 C 504.59 198.87 506.62 234.06 506.00 269.00 C 505.38 303.94 506.23 339.03 506.00 374.00 C 505.77 408.97 506.01 444.02 506.00 479.00 Z"/>
</g>
<g fill="#3B3854" fill-opacity="1.00" stroke="None">
<path d="
M 259.00 122.00 
C 285.33 122.00 311.67 122.00 338.00 122.00
C 370.87 122.00 405.28 119.04 438.00 122.00
C 441.21 125.08 439.04 135.98 439.00 141.00 C 438.96 146.02 437.48 154.04 438.00 160.00 C 438.52 165.96 438.00 173.86 438.00 180.00
C 438.00 187.88 437.26 196.16 438.00 204.00
C 439.80 223.14 438.00 243.24 438.00 263.00
C 438.00 271.43 438.25 279.96 439.00 288.00
C 440.77 306.83 438.00 326.83 438.00 346.00
C 438.00 353.87 437.24 362.17 438.00 370.00
C 439.78 388.39 438.00 408.65 438.00 428.00
C 438.00 436.00 438.00 444.00 438.00 452.00
C 444.67 452.00 451.33 452.00 458.00 452.00
C 458.00 321.33 458.00 190.67 458.00 60.00
C 391.67 60.00 325.33 60.00 259.00 60.00
C 259.00 80.67 259.00 101.33 259.00 122.00 Z"/>
</g>
<g fill="#5A6A8A" fill-opacity="0.19" stroke="None">
<path d="
M 122.00 125.00 
C 122.00 124.96 123.00 125.00 123.00 125.00
C 123.00 117.11 123.71 108.85 123.00 101.00
C 123.00 101.00 122.00 100.96 122.00 101.00
C 122.00 109.00 122.00 117.00 122.00 125.00 Z"/>
</g>
<g fill="#413F61" fill-opacity="1.00" stroke="None">
<path d="
M 123.00 125.00 
C 123.00 128.62 123.33 132.40 123.00 136.00
C 148.00 136.00 173.00 136.00 198.00 136.00
C 198.00 124.33 198.00 112.67 198.00 101.00
C 173.00 101.00 148.00 101.00 123.00 101.00
C 123.71 108.85 123.00 117.11 123.00 125.00 Z"/>
</g>
<g fill="#A8AED0" fill-opacity="1.00" stroke="None">
<path d="
M 259.00 142.00 
C 262.98 139.21 271.94 143.22 277.00 142.00 C 282.06 140.78 289.49 142.46 295.00 142.00 C 300.51 141.54 307.37 142.00 313.00 142.00
C 321.33 142.00 329.67 142.00 338.00 142.00
C 337.40 135.39 338.45 128.63 338.00 122.00
C 311.67 122.00 285.33 122.00 259.00 122.00
C 259.61 128.26 259.61 135.74 259.00 142.00 Z"/>
</g>
<g fill="#E2E3ED" fill-opacity="1.00" stroke="None">
<path d="
M 338.00 142.00 
C 338.50 142.00 339.00 142.00 339.00 142.00
C 339.57 135.72 338.57 129.29 339.00 123.00
C 372.00 123.00 405.00 123.00 438.00 123.00
C 438.00 122.50 438.00 122.00 438.00 122.00
C 405.28 119.04 370.87 122.00 338.00 122.00
C 338.45 128.63 337.40 135.39 338.00 142.00 Z"/>
</g>
<g fill="#777D9F" fill-opacity="1.00" stroke="None">
<path d="
M 438.00 123.00 
C 438.00 129.33 438.00 135.67 438.00 142.00
C 433.33 142.00 428.67 142.00 424.00 142.00
C 424.00 149.23 413.87 147.00 409.00 147.00 C 404.13 147.00 394.00 149.26 394.00 142.00
C 375.67 142.00 357.33 142.00 339.00 142.00
C 339.00 142.00 338.50 142.00 338.00 142.00
C 329.67 142.00 321.33 142.00 313.00 142.00
C 313.00 154.67 313.00 167.33 313.00 180.00
C 354.67 180.00 396.33 180.00 438.00 180.00
C 438.00 173.86 438.52 165.96 438.00 160.00 C 437.48 154.04 438.96 146.02 439.00 141.00 C 439.04 135.98 441.21 125.08 438.00 122.00
C 438.00 122.00 438.00 122.50 438.00 123.00 Z"/>
</g>
<g fill="#FDFDFD" fill-opacity="1.00" stroke="None">
<path d="
M 339.00 142.00 
C 357.33 142.00 375.67 142.00 394.00 142.00
C 394.00 134.77 404.13 137.00 409.00 137.00 C 413.87 137.00 424.00 134.74 424.00 142.00
C 428.67 142.00 433.33 142.00 438.00 142.00
C 438.00 135.67 438.00 129.33 438.00 123.00
C 405.00 123.00 372.00 123.00 339.00 123.00
C 338.57 129.29 339.57 135.72 339.00 142.00 Z"/>
</g>
<g fill="#6584A3" fill-opacity="0.13" stroke="None">
<path d="
M 122.00 136.00 
C 122.00 136.00 122.50 136.00 123.00 136.00
C 123.33 132.40 123.00 128.62 123.00 125.00
C 123.00 125.00 122.00 124.96 122.00 125.00
C 122.00 128.67 122.00 132.33 122.00 136.00 Z"/>
</g>
<g fill="#322F3F" fill-opacity="1.00" stroke="None">
<path d="
M 394.00 142.00 
C 394.00 149.26 404.13 147.00 409.00 147.00 C 413.87 147.00 424.00 149.23 424.00 142.00
C 424.00 134.74 413.87 137.00 409.00 137.00 C 404.13 137.00 394.00 134.77 394.00 142.00 Z"/>
</g>
<g fill="#575683" fill-opacity="1.00" stroke="None">
<path d="
M 258.00 181.00 
C 288.00 181.00 318.00 181.00 348.00 181.00
C 348.00 189.00 348.00 197.00 348.00 205.00
C 348.50 205.00 349.00 205.00 349.00 205.00
C 353.06 201.99 360.67 204.60 366.00 204.00 C 371.33 203.40 378.45 204.07 384.00 204.00 C 389.55 203.93 396.53 203.57 402.00 204.00 C 407.47 204.43 414.97 202.80 420.00 204.00 C 425.03 205.20 434.06 201.21 438.00 204.00
C 437.26 196.16 438.00 187.88 438.00 180.00
C 396.33 180.00 354.67 180.00 313.00 180.00
C 313.00 167.33 313.00 154.67 313.00 142.00
C 307.37 142.00 300.51 141.54 295.00 142.00 C 289.49 142.46 282.06 140.78 277.00 142.00 C 271.94 143.22 262.98 139.21 259.00 142.00
C 257.82 154.15 258.00 168.06 258.00 181.00 Z"/>
</g>
<g fill="#5D7291" fill-opacity="0.17" stroke="None">
<path d="
M 122.00 210.00 
C 122.00 209.96 123.00 210.00 123.00 210.00
C 124.00 198.96 124.00 186.04 123.00 175.00
C 123.00 175.00 122.00 174.96 122.00 175.00
C 122.00 186.67 122.00 198.33 122.00 210.00 Z"/>
</g>
<g fill="#413E60" fill-opacity="1.00" stroke="None">
<path d="
M 123.00 210.00 
C 148.00 210.00 173.00 210.00 198.00 210.00
C 198.00 198.33 198.00 186.67 198.00 175.00
C 173.00 175.00 148.00 175.00 123.00 175.00
C 124.00 186.04 124.00 198.96 123.00 210.00 Z"/>
</g>
<g fill="#3B3868" fill-opacity="1.00" stroke="None">
<path d="
M 258.00 205.00 
C 258.00 204.96 259.00 205.00 259.00 205.00
C 285.33 205.00 311.67 205.00 338.00 205.00
C 341.33 205.00 344.67 205.00 348.00 205.00
C 348.00 197.00 348.00 189.00 348.00 181.00
C 318.00 181.00 288.00 181.00 258.00 181.00
C 258.00 189.00 258.00 197.00 258.00 205.00 Z"/>
</g>
<g fill="#777D9F" fill-opacity="1.00" stroke="None">
<path d="
M 349.00 205.00 
C 378.67 205.00 408.33 205.00 438.00 205.00
C 438.00 211.67 438.00 218.33 438.00 225.00
C 433.33 225.00 428.67 225.00 424.00 225.00
C 423.65 233.02 394.44 233.05 394.00 225.00
C 375.33 225.00 356.67 225.00 338.00 225.00
C 311.66 225.00 285.56 223.20 259.00 224.00
C 259.00 217.67 259.00 211.33 259.00 205.00
C 259.00 205.00 258.00 204.96 258.00 205.00
C 258.00 211.67 258.00 218.33 258.00 225.00
C 276.33 225.00 294.67 225.00 313.00 225.00
C 313.00 237.67 313.00 250.33 313.00 263.00
C 324.67 263.00 336.33 263.00 348.00 263.00
C 378.00 263.00 408.00 263.00 438.00 263.00
C 438.00 243.24 439.80 223.14 438.00 204.00
C 434.06 201.21 425.03 205.20 420.00 204.00 C 414.97 202.80 407.47 204.43 402.00 204.00 C 396.53 203.57 389.55 203.93 384.00 204.00 C 378.45 204.07 371.33 203.40 366.00 204.00 C 360.67 204.60 353.06 201.99 349.00 205.00 Z"/>
</g>
<g fill="#A9AFD1" fill-opacity="1.00" stroke="None">
<path d="
M 338.00 225.00 
C 338.00 218.33 338.00 211.67 338.00 205.00
C 311.67 205.00 285.33 205.00 259.00 205.00
C 259.00 211.33 259.00 217.67 259.00 224.00
C 285.56 223.20 311.66 225.00 338.00 225.00 Z"/>
</g>
<g fill="#FCFCFD" fill-opacity="1.00" stroke="None">
<path d="
M 338.00 225.00 
C 356.67 225.00 375.33 225.00 394.00 225.00
C 393.49 215.61 424.42 215.58 424.00 225.00
C 428.67 225.00 433.33 225.00 438.00 225.00
C 438.00 218.33 438.00 211.67 438.00 205.00
C 408.33 205.00 378.67 205.00 349.00 205.00
C 349.00 205.00 348.50 205.00 348.00 205.00
C 344.67 205.00 341.33 205.00 338.00 205.00
C 338.00 211.67 338.00 218.33 338.00 225.00 Z"/>
</g>
<g fill="#96C3E1" fill-opacity="0.07" stroke="None">
<path d="
M 122.00 256.00 
C 122.50 256.00 123.00 256.00 123.00 256.00
C 123.00 240.88 124.36 225.05 123.00 210.00
C 123.00 210.00 122.00 209.96 122.00 210.00
C 122.00 225.12 120.64 240.95 122.00 256.00 Z"/>
</g>
<g fill="#343141" fill-opacity="1.00" stroke="None">
<path d="
M 394.00 225.00 
C 394.44 233.05 423.65 233.02 424.00 225.00
C 424.42 215.58 393.49 215.61 394.00 225.00 Z"/>
</g>
<g fill="#5A5B87" fill-opacity="1.00" stroke="None">
<path d="
M 258.00 263.00 
C 276.33 263.00 294.67 263.00 313.00 263.00
C 313.00 250.33 313.00 237.67 313.00 225.00
C 294.67 225.00 276.33 225.00 258.00 225.00
C 258.00 237.67 258.00 250.33 258.00 263.00 Z"/>
</g>
<g fill="#FDFDFE" fill-opacity="1.00" stroke="None">
<path d="
M 171.00 239.00 
C 165.02 237.19 148.58 236.93 147.78 245.78 C 146.98 254.63 145.65 265.00 147.03 274.97 C 148.40 284.95 158.72 282.59 168.00 283.00 C 177.27 283.40 178.57 269.48 177.00 262.00 C 175.43 254.52 180.64 241.93 171.00 239.00 Z"/>
</g>
<g fill="#777EA0" fill-opacity="0.99" stroke="None">
<path d="
M 5.00 318.00 
C 5.80 336.70 6.92 356.47 6.00 376.00 C 5.08 395.53 7.77 416.45 6.00 436.00
C 14.67 436.00 23.33 436.00 32.00 436.00
C 32.00 424.33 32.00 412.67 32.00 401.00
C 32.00 374.16 28.81 343.80 33.00 318.00
C 35.39 273.97 92.35 283.19 123.00 283.00
C 123.00 274.00 123.00 265.00 123.00 256.00
C 123.00 256.00 122.50 256.00 122.00 256.00
C 96.95 256.00 60.83 252.12 39.70 263.70 C 18.56 275.28 6.24 295.07 5.00 318.00 Z"/>
</g>
<g fill="#3B3868" fill-opacity="1.00" stroke="None">
<path d="
M 258.00 287.00 
C 284.67 287.01 311.33 286.99 338.00 287.00
C 338.50 287.00 339.00 287.00 339.00 287.00
C 342.00 287.00 345.00 287.00 348.00 287.00
C 348.00 279.00 348.00 271.00 348.00 263.00
C 336.33 263.00 324.67 263.00 313.00 263.00
C 294.67 263.00 276.33 263.00 258.00 263.00
C 258.00 271.00 258.00 279.00 258.00 287.00 Z"/>
</g>
<g fill="#535080" fill-opacity="1.00" stroke="None">
<path d="
M 348.00 287.00 
C 357.54 287.00 368.61 286.39 378.00 287.00 C 387.39 287.61 399.18 285.38 408.00 287.00 C 416.82 288.62 431.22 282.97 438.00 288.00
C 438.32 288.24 439.00 288.00 439.00 288.00
C 438.25 279.96 438.00 271.43 438.00 263.00
C 408.00 263.00 378.00 263.00 348.00 263.00
C 348.00 271.00 348.00 279.00 348.00 287.00 Z"/>
</g>
<g fill="#5A5B87" fill-opacity="1.00" stroke="None">
<path d="
M 33.00 318.00 
C 31.51 345.50 35.48 373.58 33.00 401.00
C 41.67 401.00 50.33 401.00 59.00 401.00
C 57.83 388.05 58.61 372.89 59.00 360.00 C 59.39 347.11 56.32 331.64 60.00 320.00
C 63.78 308.05 74.84 309.84 86.00 310.00 C 97.16 310.16 111.55 309.88 123.00 310.00
C 123.00 301.00 123.00 292.00 123.00 283.00
C 92.35 283.19 35.39 273.97 33.00 318.00 Z"/>
</g>
<g fill="#777D9F" fill-opacity="1.00" stroke="None">
<path d="
M 258.00 308.00 
C 276.33 308.00 294.67 308.00 313.00 308.00
C 313.00 320.67 313.00 333.33 313.00 346.00
C 324.67 346.00 336.33 346.00 348.00 346.00
C 378.00 346.00 408.00 346.00 438.00 346.00
C 438.00 326.83 440.77 306.83 439.00 288.00
C 439.00 288.00 438.32 288.24 438.00 288.00
C 437.43 294.28 438.43 300.70 438.00 307.00
C 433.33 307.00 428.67 307.00 424.00 307.00
C 424.30 313.76 414.69 312.36 410.00 312.00 C 405.31 311.64 395.25 314.52 394.00 308.00
C 349.16 312.04 304.03 303.45 259.00 307.00
C 259.00 300.67 259.00 294.33 259.00 288.00
C 285.17 287.33 312.66 289.33 338.00 287.00
C 311.33 286.99 284.67 287.01 258.00 287.00
C 258.00 294.00 258.00 301.00 258.00 308.00 Z"/>
</g>
<g fill="#A9AFD0" fill-opacity="1.00" stroke="None">
<path d="
M 394.00 308.00 
C 393.91 307.52 394.00 307.00 394.00 307.00
C 375.49 305.33 356.55 308.25 338.00 307.00
C 338.58 300.40 336.79 293.17 339.00 287.00
C 339.00 287.00 338.50 287.00 338.00 287.00
C 312.66 289.33 285.17 287.33 259.00 288.00
C 259.00 294.33 259.00 300.67 259.00 307.00
C 304.03 303.45 349.16 312.04 394.00 308.00 Z"/>
</g>
<g fill="#FAFAFB" fill-opacity="1.00" stroke="None">
<path d="
M 394.00 307.00 
C 394.58 299.08 423.64 298.85 424.00 307.00
C 428.67 307.00 433.33 307.00 438.00 307.00
C 438.43 300.70 437.43 294.28 438.00 288.00
C 431.22 282.97 416.82 288.62 408.00 287.00 C 399.18 285.38 387.39 287.61 378.00 287.00 C 368.61 286.39 357.54 287.00 348.00 287.00
C 345.00 287.00 342.00 287.00 339.00 287.00
C 336.79 293.17 338.58 300.40 338.00 307.00
C 356.55 308.25 375.49 305.33 394.00 307.00 Z"/>
</g>
<g fill="#312E3E" fill-opacity="1.00" stroke="None">
<path d="
M 394.00 307.00 
C 394.00 307.00 393.91 307.52 394.00 308.00
C 395.25 314.52 405.31 311.64 410.00 312.00 C 414.69 312.36 424.30 313.76 424.00 307.00
C 423.64 298.85 394.58 299.08 394.00 307.00 Z"/>
</g>
<g fill="#595B86" fill-opacity="1.00" stroke="None">
<path d="
M 258.00 346.00 
C 276.33 346.00 294.67 346.00 313.00 346.00
C 313.00 333.33 313.00 320.67 313.00 308.00
C 294.67 308.00 276.33 308.00 258.00 308.00
C 258.00 320.67 258.00 333.33 258.00 346.00 Z"/>
</g>
<g fill="#3B3868" fill-opacity="0.99" stroke="None">
<path d="
M 60.00 320.00 
C 57.50 333.97 60.00 350.77 60.00 365.00
C 68.67 365.00 77.33 365.00 86.00 365.00
C 85.55 360.05 84.75 338.91 87.00 338.00
C 91.83 336.04 100.21 339.76 105.00 338.00 C 109.79 336.24 118.02 340.79 122.00 338.00
C 122.83 329.44 123.00 319.33 123.00 310.00
C 111.55 309.88 97.16 310.16 86.00 310.00 C 74.84 309.84 63.78 308.05 60.00 320.00 Z"/>
</g>
<g fill="#D9F0F0" fill-opacity="1.00" stroke="None">
<path d="
M 170.00 312.00 
C 154.41 308.37 144.74 316.28 147.00 331.00 C 149.26 345.72 145.32 358.36 147.00 372.00 C 148.68 385.64 144.79 400.45 147.00 413.00 C 149.21 425.55 139.94 440.96 154.00 447.00 C 168.06 453.04 180.42 441.84 177.00 428.00 C 173.58 414.16 179.02 399.78 177.00 387.00 C 174.98 374.22 178.97 357.13 177.00 346.00 C 175.03 334.87 183.03 315.03 170.00 312.00 Z"/>
</g>
<g fill="#787EA1" fill-opacity="0.66" stroke="None">
<path d="
M 5.00 436.00 
C 5.00 435.96 6.00 436.00 6.00 436.00
C 7.77 416.45 5.08 395.53 6.00 376.00 C 6.92 356.47 5.80 336.70 5.00 318.00
C 2.88 357.07 5.00 396.86 5.00 436.00 Z"/>
</g>
<g fill="#63638C" fill-opacity="0.76" stroke="None">
<path d="
M 32.00 401.00 
C 32.00 400.96 33.00 401.00 33.00 401.00
C 35.48 373.58 31.51 345.50 33.00 318.00
C 28.81 343.80 32.00 374.16 32.00 401.00 Z"/>
</g>
<g fill="#45446D" fill-opacity="0.80" stroke="None">
<path d="
M 59.00 401.00 
C 59.50 401.00 60.00 401.00 60.00 401.00
C 60.00 389.00 60.00 377.00 60.00 365.00
C 60.00 350.77 57.50 333.97 60.00 320.00
C 56.32 331.64 59.39 347.11 59.00 360.00 C 58.61 372.89 57.83 388.05 59.00 401.00 Z"/>
</g>
<g fill="#3B3868" fill-opacity="0.67" stroke="None">
<path d="
M 86.00 365.00 
C 86.00 364.96 87.00 365.00 87.00 365.00
C 87.00 357.33 89.37 345.23 87.00 338.00
C 84.75 338.91 85.55 360.05 86.00 365.00 Z"/>
</g>
<g fill="#3B3868" fill-opacity="1.00" stroke="None">
<path d="
M 259.00 370.00 
C 263.35 373.04 272.37 368.72 278.00 370.00 C 283.63 371.28 291.82 369.44 298.00 370.00 C 304.18 370.56 311.59 369.79 318.00 370.00 C 324.41 370.21 331.52 370.00 338.00 370.00
C 341.33 370.00 344.67 370.00 348.00 370.00
C 348.00 362.00 348.00 354.00 348.00 346.00
C 336.33 346.00 324.67 346.00 313.00 346.00
C 294.67 346.00 276.33 346.00 258.00 346.00
C 258.00 354.03 258.29 362.67 259.00 370.00 Z"/>
</g>
<g fill="#535080" fill-opacity="1.00" stroke="None">
<path d="
M 348.00 370.00 
C 378.00 370.00 408.00 370.00 438.00 370.00
C 437.24 362.17 438.00 353.87 438.00 346.00
C 408.00 346.00 378.00 346.00 348.00 346.00
C 348.00 354.00 348.00 362.00 348.00 370.00 Z"/>
</g>
<g fill="#3B3854" fill-opacity="1.00" stroke="None">
<path d="
M 60.00 401.00 
C 60.00 427.33 60.00 453.67 60.00 480.00
C 63.71 480.00 69.50 480.72 73.00 480.00 C 76.50 479.28 83.26 481.92 86.00 480.00
C 88.58 441.90 82.56 403.02 86.00 365.00
C 77.33 365.00 68.67 365.00 60.00 365.00
C 60.00 377.00 60.00 389.00 60.00 401.00 Z"/>
</g>
<g fill="#3B3859" fill-opacity="0.89" stroke="None">
<path d="
M 86.00 480.00 
C 89.92 477.26 85.83 466.02 87.00 461.00 C 88.17 455.98 86.48 447.78 87.00 442.00 C 87.52 436.22 86.78 429.18 87.00 423.00 C 87.22 416.82 86.90 409.31 87.00 403.00 C 87.10 396.69 86.96 390.32 87.00 384.00 C 87.04 377.68 87.00 371.32 87.00 365.00
C 87.00 365.00 86.00 364.96 86.00 365.00
C 82.56 403.02 88.58 441.90 86.00 480.00 Z"/>
</g>
<g fill="#A8AED0" fill-opacity="1.00" stroke="None">
<path d="
M 259.00 390.00 
C 262.98 387.21 271.94 391.22 277.00 390.00 C 282.06 388.78 289.49 390.46 295.00 390.00 C 300.51 389.54 307.37 390.00 313.00 390.00
C 321.33 390.00 329.67 390.00 338.00 390.00
C 338.00 383.33 338.00 376.67 338.00 370.00
C 331.52 370.00 324.41 370.21 318.00 370.00 C 311.59 369.79 304.18 370.56 298.00 370.00 C 291.82 369.44 283.63 371.28 278.00 370.00 C 272.37 368.72 263.35 373.04 259.00 370.00
C 259.61 376.26 259.61 383.74 259.00 390.00 Z"/>
</g>
<g fill="#FDFDFD" fill-opacity="1.00" stroke="None">
<path d="
M 338.00 390.00 
C 356.67 390.00 375.33 390.00 394.00 390.00
C 393.87 387.03 395.84 385.94 398.00 385.00
C 402.88 382.87 415.19 382.90 420.00 385.00
C 422.13 385.93 424.13 387.02 424.00 390.00
C 428.67 390.00 433.33 390.00 438.00 390.00
C 438.00 383.33 438.00 376.67 438.00 370.00
C 408.00 370.00 378.00 370.00 348.00 370.00
C 344.67 370.00 341.33 370.00 338.00 370.00
C 338.00 376.67 338.00 383.33 338.00 390.00 Z"/>
</g>
<g fill="#777D9F" fill-opacity="1.00" stroke="None">
<path d="
M 424.00 390.00 
C 423.65 398.02 394.35 398.04 394.00 390.00
C 375.33 390.00 356.67 390.00 338.00 390.00
C 329.67 390.00 321.33 390.00 313.00 390.00
C 313.00 402.67 313.00 415.33 313.00 428.00
C 324.67 428.00 336.33 428.00 348.00 428.00
C 378.00 428.00 408.00 428.00 438.00 428.00
C 438.00 408.65 439.78 388.39 438.00 370.00
C 438.00 376.67 438.00 383.33 438.00 390.00
C 433.33 390.00 428.67 390.00 424.00 390.00 Z"/>
</g>
<g fill="#84828C" fill-opacity="1.00" stroke="None">
<path d="
M 398.00 385.00 
C 402.79 383.68 415.21 383.68 420.00 385.00
C 415.19 382.90 402.88 382.87 398.00 385.00 Z"/>
</g>
<g fill="#312E3E" fill-opacity="1.00" stroke="None">
<path d="
M 394.00 390.00 
C 394.35 398.04 423.65 398.02 424.00 390.00
C 424.13 387.02 422.13 385.93 420.00 385.00
C 415.21 383.68 402.79 383.68 398.00 385.00
C 395.84 385.94 393.87 387.03 394.00 390.00 Z"/>
</g>
<g fill="#5A5B87" fill-opacity="1.00" stroke="None">
<path d="
M 258.00 429.00 
C 260.75 425.11 271.24 429.07 276.00 428.00 C 280.76 426.93 289.61 428.43 295.00 428.00 C 300.39 427.57 307.46 428.00 313.00 428.00
C 313.00 415.33 313.00 402.67 313.00 390.00
C 307.37 390.00 300.51 389.54 295.00 390.00 C 289.49 390.46 282.06 388.78 277.00 390.00 C 271.94 391.22 262.98 387.21 259.00 390.00
C 257.82 402.16 258.00 416.06 258.00 429.00 Z"/>
</g>
<g fill="#3B3868" fill-opacity="1.00" stroke="None">
<path d="
M 32.00 436.00 
C 32.00 450.67 32.00 465.33 32.00 480.00
C 41.33 480.00 50.67 480.00 60.00 480.00
C 60.00 453.67 60.00 427.33 60.00 401.00
C 60.00 401.00 59.50 401.00 59.00 401.00
C 50.33 401.00 41.67 401.00 33.00 401.00
C 33.00 401.00 32.00 400.96 32.00 401.00
C 32.00 412.67 32.00 424.33 32.00 436.00 Z"/>
</g>
<g fill="#545180" fill-opacity="1.00" stroke="None">
<path d="
M 438.00 452.00 
C 438.00 444.00 438.00 436.00 438.00 428.00
C 408.00 428.00 378.00 428.00 348.00 428.00
C 350.25 435.49 348.39 444.07 349.00 452.00
C 378.67 452.00 408.33 452.00 438.00 452.00 Z"/>
</g>
<g fill="#61658E" fill-opacity="0.89" stroke="None">
<path d="
M 6.00 480.00 
C 5.01 465.42 7.31 450.55 6.00 436.00
C 6.00 436.00 5.00 435.96 5.00 436.00
C 5.00 442.05 4.09 453.49 5.00 459.00 C 5.91 464.51 1.93 477.15 6.00 480.00 Z"/>
</g>
<g fill="#5A5B87" fill-opacity="1.00" stroke="None">
<path d="
M 6.00 480.00 
C 8.74 481.92 15.50 479.28 19.00 480.00 C 22.50 480.72 28.29 480.00 32.00 480.00
C 32.00 465.33 32.00 450.67 32.00 436.00
C 23.33 436.00 14.67 436.00 6.00 436.00
C 7.31 450.55 5.01 465.42 6.00 480.00 Z"/>
</g>
<g fill="#9BC0E6" fill-opacity="0.84" stroke="None">
<path d="
M 123.00 480.00 
C 127.03 482.82 135.89 478.73 141.00 480.00 C 146.11 481.27 153.40 479.43 159.00 480.00 C 164.60 480.57 171.18 479.74 177.00 480.00 C 182.82 480.26 189.09 479.89 195.00 480.00 C 200.91 480.11 207.04 479.96 213.00 480.00 C 218.96 480.04 225.03 480.00 231.00 480.00
C 231.00 480.00 231.00 479.50 231.00 479.00
C 195.50 475.79 157.83 480.57 123.00 480.00 Z"/>
</g>
</svg>