<svg xmlns="http://www.w3.org/2000/svg" xmlns:v="https://svgstorm.com"
viewBox = "0 0 512 512"
width="512"
height="512">
<g fill="None" fill-opacity="0.0" stroke="#000000" stroke-opacity="0.00" stroke-width="0.3"><path d="
M 0.00 512.00 
L 188.00 512.00
C 187.27 510.04 187.16 508.17 187.00 506.00
C 184.80 494.03 184.85 477.77 186.00 465.00
C 168.56 465.01 150.36 466.08 133.00 465.00 C 115.64 463.92 97.09 467.89 80.00 465.00
C 68.16 463.00 75.45 439.07 74.00 428.00 C 72.55 416.93 74.65 397.86 74.00 385.00 C 73.35 372.14 74.29 355.67 74.00 342.00 C 73.71 328.33 74.13 313.03 74.00 299.00 C 73.87 284.97 74.05 270.19 74.00 256.00 C 73.95 241.81 74.00 227.26 74.00 213.00 C 74.00 198.74 73.95 184.27 74.00 170.00 C 74.05 155.73 73.87 141.25 74.00 127.00 C 74.13 112.75 73.70 98.16 74.00 84.00 C 74.30 69.84 73.33 54.97 74.00 41.00 C 74.67 27.03 71.22 12.26 77.00 0.00
L 0.00 0.00
L 0.00 512.00 Z"/>
</g>
<g fill="None" fill-opacity="0.0" stroke="#6EB183" stroke-opacity="0.99" stroke-width="0.3"><path d="
M 80.00 465.00 
C 97.33 466.27 116.72 462.99 135.00 464.00 C 153.28 465.01 172.62 464.00 191.00 464.00
C 218.67 464.00 246.33 464.00 274.00 464.00
C 283.00 464.00 292.00 464.00 301.00 464.00
C 336.33 464.00 371.67 464.00 407.00 464.00
C 414.87 464.00 425.05 465.51 432.00 465.00
C 443.84 463.00 436.55 439.07 438.00 428.00 C 439.45 416.93 437.35 397.86 438.00 385.00 C 438.65 372.14 437.71 355.67 438.00 342.00 C 438.29 328.33 437.87 313.03 438.00 299.00 C 438.13 284.97 437.95 270.19 438.00 256.00 C 438.05 241.81 438.00 227.26 438.00 213.00 C 438.00 198.74 438.05 184.27 438.00 170.00 C 437.95 155.73 438.13 141.25 438.00 127.00 C 437.87 112.75 438.30 98.16 438.00 84.00 C 437.70 69.84 438.67 54.97 438.00 41.00 C 437.33 27.03 440.78 12.26 435.00 0.00
L 432.00 0.00
C 315.73 1.67 196.19 1.67 80.00 0.00
L 77.00 0.00
C 71.22 12.26 74.67 27.03 74.00 41.00 C 73.33 54.97 74.30 69.84 74.00 84.00 C 73.70 98.16 74.13 112.75 74.00 127.00 C 73.87 141.25 74.05 155.73 74.00 170.00 C 73.95 184.27 74.00 198.74 74.00 213.00 C 74.00 227.26 73.95 241.81 74.00 256.00 C 74.05 270.19 73.87 284.97 74.00 299.00 C 74.13 313.03 73.71 328.33 74.00 342.00 C 74.29 355.67 73.35 372.14 74.00 385.00 C 74.65 397.86 72.55 416.93 74.00 428.00 C 75.45 439.07 68.16 463.00 80.00 465.00
M 403.00 30.00 
C 413.02 33.04 406.70 51.67 408.00 61.00 C 409.30 70.33 407.43 86.09 408.00 97.00 C 408.57 107.91 407.73 122.44 408.00 134.00 C 408.27 145.56 407.88 158.15 408.00 170.00 C 408.12 181.85 407.94 193.97 408.00 206.00 C 408.06 218.03 407.97 230.90 408.00 243.00 C 408.03 255.10 407.97 266.87 408.00 279.00 C 408.03 291.13 407.95 302.75 408.00 315.00 C 408.05 327.25 407.89 339.58 408.00 352.00 C 408.11 364.42 407.76 375.23 408.00 388.00 C 408.24 400.77 407.47 410.38 408.00 424.00 C 408.53 437.62 393.22 435.37 382.00 435.00 C 370.78 434.63 357.74 435.16 346.00 435.00 C 334.26 434.84 320.94 435.06 309.00 435.00 C 297.06 434.94 285.00 434.99 273.00 435.00 C 261.00 435.01 249.07 434.92 237.00 435.00 C 224.93 435.08 212.06 434.80 200.00 435.00 C 187.94 435.20 175.96 434.54 164.00 435.00 C 152.04 435.46 139.84 433.97 128.00 435.00 C 116.16 436.03 102.52 436.02 104.00 422.00 C 105.48 407.98 103.33 398.95 104.00 386.00 C 104.67 373.05 103.71 362.50 104.00 350.00 C 104.29 337.50 103.86 325.30 104.00 313.00 C 104.14 300.70 103.93 289.16 104.00 277.00 C 104.07 264.84 103.96 253.14 104.00 241.00 C 104.04 228.86 103.96 216.10 104.00 204.00 C 104.04 191.90 103.94 180.00 104.00 168.00 C 104.06 156.00 103.88 142.79 104.00 131.00 C 104.12 119.21 103.72 106.29 104.00 95.00 C 104.28 83.71 103.39 69.33 104.00 59.00 C 104.61 48.67 99.61 31.52 112.01 30.01 C 124.41 28.49 135.79 30.66 148.00 30.00 C 160.21 29.34 171.83 30.27 184.00 30.00 C 196.17 29.73 208.86 30.08 221.00 30.00 C 233.14 29.92 244.93 29.92 257.00 30.00 C 269.07 30.08 280.95 29.70 293.00 30.00 C 305.05 30.30 318.04 29.32 330.00 30.00 C 341.96 30.68 354.28 28.43 366.00 30.00 C 377.72 31.57 391.80 26.60 403.00 30.00 Z"/>
</g>
<g fill="None" fill-opacity="0.0" stroke="#6EB183" stroke-opacity="0.87" stroke-width="0.3"><path d="
M 432.00 0.00 
L 80.00 0.00
C 196.19 1.67 315.73 1.67 432.00 0.00 Z"/>
</g>
<g fill="None" fill-opacity="0.0" stroke="#000000" stroke-opacity="0.00" stroke-width="0.3"><path d="
M 432.00 465.00 
C 425.43 466.11 417.68 465.00 411.00 465.00
C 409.79 480.51 413.50 497.41 409.00 512.00
L 512.00 512.00
L 512.00 0.00
L 435.00 0.00
C 440.78 12.26 437.33 27.03 438.00 41.00 C 438.67 54.97 437.70 69.84 438.00 84.00 C 438.30 98.16 437.87 112.75 438.00 127.00 C 438.13 141.25 437.95 155.73 438.00 170.00 C 438.05 184.27 438.00 198.74 438.00 213.00 C 438.00 227.26 438.05 241.81 438.00 256.00 C 437.95 270.19 438.13 284.97 438.00 299.00 C 437.87 313.03 438.29 328.33 438.00 342.00 C 437.71 355.67 438.65 372.14 438.00 385.00 C 437.35 397.86 439.45 416.93 438.00 428.00 C 436.55 439.07 443.84 463.00 432.00 465.00 Z"/>
</g>
<g fill="None" fill-opacity="0.0" stroke="#538362" stroke-opacity="1.00" stroke-width="0.3"><path d="
M 403.00 30.00 
C 391.80 26.60 377.72 31.57 366.00 30.00 C 354.28 28.43 341.96 30.68 330.00 30.00 C 318.04 29.32 305.05 30.30 293.00 30.00 C 280.95 29.70 269.07 30.08 257.00 30.00 C 244.93 29.92 233.14 29.92 221.00 30.00 C 208.86 30.08 196.17 29.73 184.00 30.00 C 171.83 30.27 160.21 29.34 148.00 30.00 C 135.79 30.66 124.41 28.49 112.01 30.01 C 99.61 31.52 104.61 48.67 104.00 59.00 C 103.39 69.33 104.28 83.71 104.00 95.00 C 103.72 106.29 104.12 119.21 104.00 131.00 C 103.88 142.79 104.06 156.00 104.00 168.00 C 103.94 180.00 104.04 191.90 104.00 204.00 C 103.96 216.10 104.04 228.86 104.00 241.00 C 103.96 253.14 104.07 264.84 104.00 277.00 C 103.93 289.16 104.14 300.70 104.00 313.00 C 103.86 325.30 104.29 337.50 104.00 350.00 C 103.71 362.50 104.67 373.05 104.00 386.00 C 103.33 398.95 105.48 407.98 104.00 422.00 C 102.52 436.02 116.16 436.03 128.00 435.00 C 139.84 433.97 152.04 435.46 164.00 435.00 C 175.96 434.54 187.94 435.20 200.00 435.00 C 212.06 434.80 224.93 435.08 237.00 435.00 C 249.07 434.92 261.00 435.01 273.00 435.00 C 285.00 434.99 297.06 434.94 309.00 435.00 C 320.94 435.06 334.26 434.84 346.00 435.00 C 357.74 435.16 370.78 434.63 382.00 435.00 C 393.22 435.37 408.53 437.62 408.00 424.00 C 407.47 410.38 408.24 400.77 408.00 388.00 C 407.76 375.23 408.11 364.42 408.00 352.00 C 407.89 339.58 408.05 327.25 408.00 315.00 C 407.95 302.75 408.03 291.13 408.00 279.00 C 407.97 266.87 408.03 255.10 408.00 243.00 C 407.97 230.90 408.06 218.03 408.00 206.00 C 407.94 193.97 408.12 181.85 408.00 170.00 C 407.88 158.15 408.27 145.56 408.00 134.00 C 407.73 122.44 408.57 107.91 408.00 97.00 C 407.43 86.09 409.30 70.33 408.00 61.00 C 406.70 51.67 413.02 33.04 403.00 30.00
M 368.00 87.00 
C 368.00 184.00 368.00 281.00 368.00 378.00
C 293.33 378.00 218.67 378.00 144.00 378.00
C 144.00 281.00 144.00 184.00 144.00 87.00
C 218.67 87.00 293.33 87.00 368.00 87.00 Z"/>
</g>
<g fill="None" fill-opacity="0.0" stroke="#FDFDFD" stroke-opacity="1.00" stroke-width="0.3"><path d="
M 368.00 87.00 
C 293.33 87.00 218.67 87.00 144.00 87.00
C 144.00 184.00 144.00 281.00 144.00 378.00
C 218.67 378.00 293.33 378.00 368.00 378.00
C 368.00 281.00 368.00 184.00 368.00 87.00
M 343.00 117.00 
C 353.94 121.78 339.35 129.61 331.00 127.00 C 322.65 124.39 310.20 128.09 301.00 127.00 C 291.80 125.91 280.52 127.30 271.00 127.00 C 261.48 126.70 250.52 126.70 241.00 127.00 C 231.48 127.30 220.20 125.91 211.00 127.00 C 201.80 128.09 189.35 124.39 181.00 127.00 C 172.65 129.61 158.05 121.78 169.00 117.00
C 180.94 111.79 198.44 117.41 212.00 116.00 C 225.56 114.59 242.16 116.01 256.00 116.00 C 269.84 115.99 286.44 114.61 300.00 116.00 C 313.56 117.39 331.12 111.81 343.00 117.00
M 183.00 202.00 
C 183.00 210.33 183.00 218.67 183.00 227.00
C 192.76 226.53 201.10 227.63 211.00 227.00 C 220.90 226.37 220.33 240.75 219.00 248.00 C 217.67 255.25 223.53 269.25 214.92 272.92 C 206.30 276.58 195.36 269.27 186.00 273.00 C 176.64 276.73 167.51 264.83 179.01 263.01 C 190.50 261.19 196.96 264.36 208.00 263.00
C 208.00 254.67 208.00 246.33 208.00 238.00
C 198.41 237.83 189.67 238.23 180.00 238.00 C 170.33 237.77 172.16 223.33 173.00 216.00 C 173.84 208.67 168.62 194.00 178.01 192.01 C 187.39 190.02 197.13 194.73 207.00 192.00 C 216.87 189.27 223.33 200.87 212.00 202.00 C 200.67 203.12 193.91 201.16 183.00 202.00
M 243.00 202.00 
C 243.00 210.33 243.00 218.67 243.00 227.00
C 252.76 227.15 262.21 226.80 272.00 227.00 C 281.79 227.20 279.78 241.71 279.00 249.00 C 278.22 256.29 283.31 270.68 273.97 272.97 C 264.64 275.27 255.00 270.12 245.00 273.00 C 235.00 275.88 228.31 263.85 240.00 263.00 C 251.69 262.16 257.82 263.63 269.00 263.00
C 269.00 254.67 269.00 246.33 269.00 238.00
C 259.25 237.83 249.78 238.22 240.00 238.00 C 230.22 237.78 232.19 223.32 233.00 216.00 C 233.81 208.68 228.65 194.18 238.01 192.01 C 247.37 189.84 256.93 194.92 267.00 192.00 C 277.07 189.08 283.72 201.03 272.00 202.00 C 260.28 202.97 254.21 201.28 243.00 202.00
M 320.00 192.00 
C 326.23 193.29 330.70 197.81 334.77 203.23 C 338.84 208.65 339.78 217.44 339.00 225.00 C 338.22 232.56 340.08 244.44 339.00 252.00 C 337.92 259.56 334.25 262.93 328.92 267.92 C 323.59 272.90 314.15 273.26 307.00 273.00 C 299.85 272.74 287.58 275.30 288.00 266.00 C 288.43 256.69 287.60 248.36 288.00 240.00 C 288.40 231.64 287.36 220.21 288.00 213.00 C 288.64 205.79 284.65 192.27 293.01 192.01 C 301.36 191.75 311.87 190.32 320.00 192.00
M 343.00 348.00 
C 331.06 353.21 313.56 347.59 300.00 349.00 C 286.44 350.41 269.84 348.99 256.00 349.00 C 242.16 349.01 225.56 350.39 212.00 349.00 C 198.44 347.61 180.88 353.19 169.00 348.00
C 158.06 343.22 172.65 335.39 181.00 338.00 C 189.35 340.61 201.80 336.91 211.00 338.00 C 220.20 339.09 231.48 337.70 241.00 338.00 C 250.52 338.30 261.48 338.30 271.00 338.00 C 280.52 337.70 291.80 339.09 301.00 338.00 C 310.20 336.91 322.65 340.61 331.00 338.00 C 339.35 335.39 353.95 343.22 343.00 348.00 Z"/>
</g>
<g fill="None" fill-opacity="0.0" stroke="#E3A091" stroke-opacity="1.00" stroke-width="0.3"><path d="
M 169.00 117.00 
C 182.26 113.35 198.13 118.32 212.00 117.00 C 225.87 115.68 241.96 116.99 256.00 117.00 C 270.04 117.01 285.10 115.57 299.00 117.00 C 312.90 118.43 329.63 113.32 343.00 117.00
C 331.12 111.81 313.56 117.39 300.00 116.00 C 286.44 114.61 269.84 115.99 256.00 116.00 C 242.16 116.01 225.56 114.59 212.00 116.00 C 198.44 117.41 180.94 111.79 169.00 117.00 Z"/>
</g>
<g fill="None" fill-opacity="0.0" stroke="#CB4E33" stroke-opacity="1.00" stroke-width="0.3"><path d="
M 343.00 117.00 
C 329.63 113.32 312.90 118.43 299.00 117.00 C 285.10 115.57 270.04 117.01 256.00 117.00 C 241.96 116.99 225.87 115.68 212.00 117.00 C 198.13 118.32 182.26 113.35 169.00 117.00
C 158.05 121.78 172.65 129.61 181.00 127.00 C 189.35 124.39 201.80 128.09 211.00 127.00 C 220.20 125.91 231.48 127.30 241.00 127.00 C 250.52 126.70 261.48 126.70 271.00 127.00 C 280.52 127.30 291.80 125.91 301.00 127.00 C 310.20 128.09 322.65 124.39 331.00 127.00 C 339.35 129.61 353.94 121.78 343.00 117.00 Z"/>
</g>
<g fill="None" fill-opacity="0.0" stroke="#5A565C" stroke-opacity="1.00" stroke-width="0.3"><path d="
M 183.00 202.00 
C 193.91 201.16 200.67 203.12 212.00 202.00 C 223.33 200.87 216.87 189.27 207.00 192.00 C 197.13 194.73 187.39 190.02 178.01 192.01 C 168.62 194.00 173.84 208.67 173.00 216.00 C 172.16 223.33 170.33 237.77 180.00 238.00 C 189.67 238.23 198.41 237.83 208.00 238.00
C 208.00 246.33 208.00 254.67 208.00 263.00
C 196.96 264.36 190.50 261.19 179.01 263.01 C 167.51 264.83 176.64 276.73 186.00 273.00 C 195.36 269.27 206.30 276.58 214.92 272.92 C 223.53 269.25 217.67 255.25 219.00 248.00 C 220.33 240.75 220.90 226.37 211.00 227.00 C 201.10 227.63 192.76 226.53 183.00 227.00
C 183.00 218.67 183.00 210.33 183.00 202.00 Z"/>
</g>
<g fill="None" fill-opacity="0.0" stroke="#59545B" stroke-opacity="1.00" stroke-width="0.3"><path d="
M 243.00 202.00 
C 254.21 201.28 260.28 202.97 272.00 202.00 C 283.72 201.03 277.07 189.08 267.00 192.00 C 256.93 194.92 247.37 189.84 238.01 192.01 C 228.65 194.18 233.81 208.68 233.00 216.00 C 232.19 223.32 230.22 237.78 240.00 238.00 C 249.78 238.22 259.25 237.83 269.00 238.00
C 269.00 246.33 269.00 254.67 269.00 263.00
C 257.82 263.63 251.69 262.16 240.00 263.00 C 228.31 263.85 235.00 275.88 245.00 273.00 C 255.00 270.12 264.64 275.27 273.97 272.97 C 283.31 270.68 278.22 256.29 279.00 249.00 C 279.78 241.71 281.79 227.20 272.00 227.00 C 262.21 226.80 252.76 227.15 243.00 227.00
C 243.00 218.67 243.00 210.33 243.00 202.00 Z"/>
</g>
<g fill="None" fill-opacity="0.0" stroke="#58535A" stroke-opacity="1.00" stroke-width="0.3"><path d="
M 320.00 192.00 
C 311.87 190.32 301.36 191.75 293.01 192.01 C 284.65 192.27 288.64 205.79 288.00 213.00 C 287.36 220.21 288.40 231.64 288.00 240.00 C 287.60 248.36 288.43 256.69 288.00 266.00 C 287.58 275.30 299.85 272.74 307.00 273.00 C 314.15 273.26 323.59 272.90 328.92 267.92 C 334.25 262.93 337.92 259.56 339.00 252.00 C 340.08 244.44 338.22 232.56 339.00 225.00 C 339.78 217.44 338.84 208.65 334.77 203.23 C 330.70 197.81 326.23 193.29 320.00 192.00
M 298.00 263.00 
C 298.00 242.67 298.00 222.33 298.00 202.00
C 307.73 201.54 326.00 200.11 327.97 213.03 C 329.95 225.94 330.17 239.16 328.07 252.07 C 325.98 264.99 307.63 263.37 298.00 263.00 Z"/>
</g>
<g fill="None" fill-opacity="0.0" stroke="#FAFAFA" stroke-opacity="1.00" stroke-width="0.3"><path d="
M 298.00 263.00 
C 307.63 263.37 325.98 264.99 328.07 252.07 C 330.17 239.16 329.95 225.94 327.97 213.03 C 326.00 200.11 307.73 201.54 298.00 202.00
C 298.00 222.33 298.00 242.67 298.00 263.00 Z"/>
</g>
<g fill="None" fill-opacity="0.0" stroke="#CB4D31" stroke-opacity="1.00" stroke-width="0.3"><path d="
M 169.00 348.00 
C 182.26 351.65 198.13 346.68 212.00 348.00 C 225.87 349.32 241.96 348.01 256.00 348.00 C 270.04 347.99 285.10 349.43 299.00 348.00 C 312.90 346.57 329.63 351.68 343.00 348.00
C 353.95 343.22 339.35 335.39 331.00 338.00 C 322.65 340.61 310.20 336.91 301.00 338.00 C 291.80 339.09 280.52 337.70 271.00 338.00 C 261.48 338.30 250.52 338.30 241.00 338.00 C 231.48 337.70 220.20 339.09 211.00 338.00 C 201.80 336.91 189.35 340.61 181.00 338.00 C 172.65 335.39 158.06 343.22 169.00 348.00 Z"/>
</g>
<g fill="None" fill-opacity="0.0" stroke="#E3A091" stroke-opacity="1.00" stroke-width="0.3"><path d="
M 343.00 348.00 
C 329.63 351.68 312.90 346.57 299.00 348.00 C 285.10 349.43 270.04 347.99 256.00 348.00 C 241.96 348.01 225.87 349.32 212.00 348.00 C 198.13 346.68 182.26 351.65 169.00 348.00
C 180.88 353.19 198.44 347.61 212.00 349.00 C 225.56 350.39 242.16 349.01 256.00 349.00 C 269.84 348.99 286.44 350.41 300.00 349.00 C 313.56 347.59 331.06 353.21 343.00 348.00 Z"/>
</g>
<g fill="None" fill-opacity="0.0" stroke="#6EB083" stroke-opacity="0.87" stroke-width="0.3"><path d="
M 80.00 465.00 
C 97.09 467.89 115.64 463.92 133.00 465.00 C 150.36 466.08 168.56 465.01 186.00 465.00
C 186.50 465.00 187.00 465.00 187.00 465.00
C 187.85 465.00 190.29 465.43 191.00 465.00
C 191.22 464.87 191.00 464.00 191.00 464.00
C 172.62 464.00 153.28 465.01 135.00 464.00 C 116.72 462.99 97.33 466.27 80.00 465.00 Z"/>
</g>
<g fill="None" fill-opacity="0.0" stroke="#95A964" stroke-opacity="0.90" stroke-width="0.3"><path d="
M 191.00 465.00 
C 204.54 466.22 218.35 465.04 232.00 465.00 C 245.65 464.96 260.37 466.24 274.00 465.00
C 273.78 464.87 274.00 464.00 274.00 464.00
C 246.33 464.00 218.67 464.00 191.00 464.00
C 191.00 464.00 191.22 464.87 191.00 465.00 Z"/>
</g>
<g fill="None" fill-opacity="0.0" stroke="#74AF7F" stroke-opacity="0.87" stroke-width="0.3"><path d="
M 274.00 465.00 
C 274.71 465.43 277.15 465.00 278.00 465.00
C 284.33 465.00 290.67 465.00 297.00 465.00
C 297.85 465.00 300.29 465.43 301.00 465.00
C 301.22 464.87 301.00 464.00 301.00 464.00
C 292.00 464.00 283.00 464.00 274.00 464.00
C 274.00 464.00 273.78 464.87 274.00 465.00 Z"/>
</g>
<g fill="None" fill-opacity="0.0" stroke="#95A964" stroke-opacity="0.90" stroke-width="0.3"><path d="
M 301.00 465.00 
C 318.34 466.57 336.58 465.00 354.00 465.00 C 371.42 465.00 389.66 466.57 407.00 465.00
C 406.78 464.87 407.00 464.00 407.00 464.00
C 371.67 464.00 336.33 464.00 301.00 464.00
C 301.00 464.00 301.22 464.87 301.00 465.00 Z"/>
</g>
<g fill="None" fill-opacity="0.0" stroke="#71B081" stroke-opacity="0.87" stroke-width="0.3"><path d="
M 407.00 465.00 
C 407.71 465.43 410.15 465.00 411.00 465.00
C 417.68 465.00 425.43 466.11 432.00 465.00
C 425.05 465.51 414.87 464.00 407.00 464.00
C 407.00 464.00 406.78 464.87 407.00 465.00 Z"/>
</g>
<g fill="None" fill-opacity="0.0" stroke="#FEAB00" stroke-opacity="0.04" stroke-width="0.3"><path d="
M 187.00 506.00 
C 186.00 492.42 188.22 478.56 187.00 465.00
C 187.00 465.00 186.50 465.00 186.00 465.00
C 184.85 477.77 184.80 494.03 187.00 506.00 Z"/>
</g>
<g fill="None" fill-opacity="0.0" stroke="#FE880D" stroke-opacity="0.98" stroke-width="0.3"><path d="
M 187.00 506.00 
C 187.16 508.17 187.27 510.04 188.00 512.00
L 196.00 512.00
C 188.36 507.67 191.41 498.94 191.00 491.00 C 190.59 483.06 191.31 473.12 191.00 465.00
C 190.29 465.43 187.85 465.00 187.00 465.00
C 188.22 478.56 186.00 492.42 187.00 506.00 Z"/>
</g>
<g fill="None" fill-opacity="0.0" stroke="#FEA710" stroke-opacity="1.00" stroke-width="0.3"><path d="
M 196.00 512.00 
L 215.00 512.00
C 218.25 504.52 208.14 478.75 221.03 478.03 C 233.92 477.30 225.77 504.37 228.00 512.00
L 236.00 512.00
C 238.45 504.54 229.90 478.00 243.01 478.01 C 256.12 478.02 247.53 504.54 250.00 512.00
L 269.00 512.00
C 279.68 500.43 271.37 480.13 274.00 465.00
C 260.37 466.24 245.65 464.96 232.00 465.00 C 218.35 465.04 204.54 466.22 191.00 465.00
C 191.31 473.12 190.59 483.06 191.00 491.00 C 191.41 498.94 188.36 507.67 196.00 512.00 Z"/>
</g>
<g fill="None" fill-opacity="0.0" stroke="#FE880D" stroke-opacity="0.88" stroke-width="0.3"><path d="
M 269.00 512.00 
L 276.00 512.00
C 280.51 497.39 276.78 480.51 278.00 465.00
C 277.15 465.00 274.71 465.43 274.00 465.00
C 271.37 480.13 279.68 500.43 269.00 512.00 Z"/>
</g>
<g fill="None" fill-opacity="0.0" stroke="#000000" stroke-opacity="0.00" stroke-width="0.3"><path d="
M 276.00 512.00 
L 298.00 512.00
C 295.73 496.82 297.62 480.59 297.00 465.00
C 290.67 465.00 284.33 465.00 278.00 465.00
C 276.78 480.51 280.51 497.39 276.00 512.00 Z"/>
</g>
<g fill="None" fill-opacity="0.0" stroke="#FE890D" stroke-opacity="0.94" stroke-width="0.3"><path d="
M 298.00 512.00 
L 306.00 512.00
C 295.49 500.33 303.51 480.16 301.00 465.00
C 300.29 465.43 297.85 465.00 297.00 465.00
C 297.62 480.59 295.73 496.82 298.00 512.00 Z"/>
</g>
<g fill="None" fill-opacity="0.0" stroke="#FEA710" stroke-opacity="1.00" stroke-width="0.3"><path d="
M 306.00 512.00 
L 326.00 512.00
C 329.25 504.52 319.14 478.75 332.03 478.03 C 344.91 477.30 336.77 504.37 339.00 512.00
L 347.00 512.00
C 349.45 504.54 340.90 478.00 354.01 478.01 C 367.12 478.02 358.53 504.54 361.00 512.00
L 368.00 512.00
C 370.53 504.46 361.79 478.10 375.01 478.01 C 388.23 477.92 379.49 504.47 382.00 512.00
L 402.00 512.00
C 412.68 500.43 404.37 480.13 407.00 465.00
C 389.66 466.57 371.42 465.00 354.00 465.00 C 336.58 465.00 318.34 466.57 301.00 465.00
C 303.51 480.16 295.49 500.33 306.00 512.00 Z"/>
</g>
<g fill="None" fill-opacity="0.0" stroke="#FE880D" stroke-opacity="0.91" stroke-width="0.3"><path d="
M 402.00 512.00 
L 409.00 512.00
C 413.50 497.41 409.79 480.51 411.00 465.00
C 410.15 465.00 407.71 465.43 407.00 465.00
C 404.37 480.13 412.68 500.43 402.00 512.00 Z"/>
</g>
<g fill="None" fill-opacity="0.0" stroke="#CB4D30" stroke-opacity="1.00" stroke-width="0.3"><path d="
M 215.00 512.00 
L 228.00 512.00
C 225.77 504.37 233.92 477.30 221.03 478.03 C 208.14 478.75 218.25 504.52 215.00 512.00 Z"/>
</g>
<g fill="None" fill-opacity="0.0" stroke="#CC5030" stroke-opacity="1.00" stroke-width="0.3"><path d="
M 236.00 512.00 
L 250.00 512.00
C 247.53 504.54 256.12 478.02 243.01 478.01 C 229.90 478.00 238.45 504.54 236.00 512.00 Z"/>
</g>
<g fill="None" fill-opacity="0.0" stroke="#CB4D30" stroke-opacity="1.00" stroke-width="0.3"><path d="
M 326.00 512.00 
L 339.00 512.00
C 336.77 504.37 344.91 477.30 332.03 478.03 C 319.14 478.75 329.25 504.52 326.00 512.00 Z"/>
</g>
<g fill="None" fill-opacity="0.0" stroke="#CC5030" stroke-opacity="1.00" stroke-width="0.3"><path d="
M 347.00 512.00 
L 361.00 512.00
C 358.53 504.54 367.12 478.02 354.01 478.01 C 340.90 478.00 349.45 504.54 347.00 512.00 Z"/>
</g>
<g fill="None" fill-opacity="0.0" stroke="#CC4F30" stroke-opacity="1.00" stroke-width="0.3"><path d="
M 368.00 512.00 
L 382.00 512.00
C 379.49 504.47 388.23 477.92 375.01 478.01 C 361.79 478.10 370.53 504.46 368.00 512.00 Z"/>
</g>
<g fill="#000000" fill-opacity="0.00" stroke="None">
<path d="
M 0.00 512.00 
L 188.00 512.00
C 187.27 510.04 187.16 508.17 187.00 506.00
C 184.80 494.03 184.85 477.77 186.00 465.00
C 168.56 465.01 150.36 466.08 133.00 465.00 C 115.64 463.92 97.09 467.89 80.00 465.00
C 68.16 463.00 75.45 439.07 74.00 428.00 C 72.55 416.93 74.65 397.86 74.00 385.00 C 73.35 372.14 74.29 355.67 74.00 342.00 C 73.71 328.33 74.13 313.03 74.00 299.00 C 73.87 284.97 74.05 270.19 74.00 256.00 C 73.95 241.81 74.00 227.26 74.00 213.00 C 74.00 198.74 73.95 184.27 74.00 170.00 C 74.05 155.73 73.87 141.25 74.00 127.00 C 74.13 112.75 73.70 98.16 74.00 84.00 C 74.30 69.84 73.33 54.97 74.00 41.00 C 74.67 27.03 71.22 12.26 77.00 0.00
L 0.00 0.00
L 0.00 512.00 Z"/>
</g>
<g fill="#6EB183" fill-opacity="0.99" stroke="None">
<path d="
M 80.00 465.00 
C 97.33 466.27 116.72 462.99 135.00 464.00 C 153.28 465.01 172.62 464.00 191.00 464.00
C 218.67 464.00 246.33 464.00 274.00 464.00
C 283.00 464.00 292.00 464.00 301.00 464.00
C 336.33 464.00 371.67 464.00 407.00 464.00
C 414.87 464.00 425.05 465.51 432.00 465.00
C 443.84 463.00 436.55 439.07 438.00 428.00 C 439.45 416.93 437.35 397.86 438.00 385.00 C 438.65 372.14 437.71 355.67 438.00 342.00 C 438.29 328.33 437.87 313.03 438.00 299.00 C 438.13 284.97 437.95 270.19 438.00 256.00 C 438.05 241.81 438.00 227.26 438.00 213.00 C 438.00 198.74 438.05 184.27 438.00 170.00 C 437.95 155.73 438.13 141.25 438.00 127.00 C 437.87 112.75 438.30 98.16 438.00 84.00 C 437.70 69.84 438.67 54.97 438.00 41.00 C 437.33 27.03 440.78 12.26 435.00 0.00
L 432.00 0.00
C 315.73 1.67 196.19 1.67 80.00 0.00
L 77.00 0.00
C 71.22 12.26 74.67 27.03 74.00 41.00 C 73.33 54.97 74.30 69.84 74.00 84.00 C 73.70 98.16 74.13 112.75 74.00 127.00 C 73.87 141.25 74.05 155.73 74.00 170.00 C 73.95 184.27 74.00 198.74 74.00 213.00 C 74.00 227.26 73.95 241.81 74.00 256.00 C 74.05 270.19 73.87 284.97 74.00 299.00 C 74.13 313.03 73.71 328.33 74.00 342.00 C 74.29 355.67 73.35 372.14 74.00 385.00 C 74.65 397.86 72.55 416.93 74.00 428.00 C 75.45 439.07 68.16 463.00 80.00 465.00
M 403.00 30.00 
C 413.02 33.04 406.70 51.67 408.00 61.00 C 409.30 70.33 407.43 86.09 408.00 97.00 C 408.57 107.91 407.73 122.44 408.00 134.00 C 408.27 145.56 407.88 158.15 408.00 170.00 C 408.12 181.85 407.94 193.97 408.00 206.00 C 408.06 218.03 407.97 230.90 408.00 243.00 C 408.03 255.10 407.97 266.87 408.00 279.00 C 408.03 291.13 407.95 302.75 408.00 315.00 C 408.05 327.25 407.89 339.58 408.00 352.00 C 408.11 364.42 407.76 375.23 408.00 388.00 C 408.24 400.77 407.47 410.38 408.00 424.00 C 408.53 437.62 393.22 435.37 382.00 435.00 C 370.78 434.63 357.74 435.16 346.00 435.00 C 334.26 434.84 320.94 435.06 309.00 435.00 C 297.06 434.94 285.00 434.99 273.00 435.00 C 261.00 435.01 249.07 434.92 237.00 435.00 C 224.93 435.08 212.06 434.80 200.00 435.00 C 187.94 435.20 175.96 434.54 164.00 435.00 C 152.04 435.46 139.84 433.97 128.00 435.00 C 116.16 436.03 102.52 436.02 104.00 422.00 C 105.48 407.98 103.33 398.95 104.00 386.00 C 104.67 373.05 103.71 362.50 104.00 350.00 C 104.29 337.50 103.86 325.30 104.00 313.00 C 104.14 300.70 103.93 289.16 104.00 277.00 C 104.07 264.84 103.96 253.14 104.00 241.00 C 104.04 228.86 103.96 216.10 104.00 204.00 C 104.04 191.90 103.94 180.00 104.00 168.00 C 104.06 156.00 103.88 142.79 104.00 131.00 C 104.12 119.21 103.72 106.29 104.00 95.00 C 104.28 83.71 103.39 69.33 104.00 59.00 C 104.61 48.67 99.61 31.52 112.01 30.01 C 124.41 28.49 135.79 30.66 148.00 30.00 C 160.21 29.34 171.83 30.27 184.00 30.00 C 196.17 29.73 208.86 30.08 221.00 30.00 C 233.14 29.92 244.93 29.92 257.00 30.00 C 269.07 30.08 280.95 29.70 293.00 30.00 C 305.05 30.30 318.04 29.32 330.00 30.00 C 341.96 30.68 354.28 28.43 366.00 30.00 C 377.72 31.57 391.80 26.60 403.00 30.00 Z"/>
</g>
<g fill="#6EB183" fill-opacity="0.87" stroke="None">
<path d="
M 432.00 0.00 
L 80.00 0.00
C 196.19 1.67 315.73 1.67 432.00 0.00 Z"/>
</g>
<g fill="#000000" fill-opacity="0.00" stroke="None">
<path d="
M 432.00 465.00 
C 425.43 466.11 417.68 465.00 411.00 465.00
C 409.79 480.51 413.50 497.41 409.00 512.00
L 512.00 512.00
L 512.00 0.00
L 435.00 0.00
C 440.78 12.26 437.33 27.03 438.00 41.00 C 438.67 54.97 437.70 69.84 438.00 84.00 C 438.30 98.16 437.87 112.75 438.00 127.00 C 438.13 141.25 437.95 155.73 438.00 170.00 C 438.05 184.27 438.00 198.74 438.00 213.00 C 438.00 227.26 438.05 241.81 438.00 256.00 C 437.95 270.19 438.13 284.97 438.00 299.00 C 437.87 313.03 438.29 328.33 438.00 342.00 C 437.71 355.67 438.65 372.14 438.00 385.00 C 437.35 397.86 439.45 416.93 438.00 428.00 C 436.55 439.07 443.84 463.00 432.00 465.00 Z"/>
</g>
<g fill="#538362" fill-opacity="1.00" stroke="None">
<path d="
M 403.00 30.00 
C 391.80 26.60 377.72 31.57 366.00 30.00 C 354.28 28.43 341.96 30.68 330.00 30.00 C 318.04 29.32 305.05 30.30 293.00 30.00 C 280.95 29.70 269.07 30.08 257.00 30.00 C 244.93 29.92 233.14 29.92 221.00 30.00 C 208.86 30.08 196.17 29.73 184.00 30.00 C 171.83 30.27 160.21 29.34 148.00 30.00 C 135.79 30.66 124.41 28.49 112.01 30.01 C 99.61 31.52 104.61 48.67 104.00 59.00 C 103.39 69.33 104.28 83.71 104.00 95.00 C 103.72 106.29 104.12 119.21 104.00 131.00 C 103.88 142.79 104.06 156.00 104.00 168.00 C 103.94 180.00 104.04 191.90 104.00 204.00 C 103.96 216.10 104.04 228.86 104.00 241.00 C 103.96 253.14 104.07 264.84 104.00 277.00 C 103.93 289.16 104.14 300.70 104.00 313.00 C 103.86 325.30 104.29 337.50 104.00 350.00 C 103.71 362.50 104.67 373.05 104.00 386.00 C 103.33 398.95 105.48 407.98 104.00 422.00 C 102.52 436.02 116.16 436.03 128.00 435.00 C 139.84 433.97 152.04 435.46 164.00 435.00 C 175.96 434.54 187.94 435.20 200.00 435.00 C 212.06 434.80 224.93 435.08 237.00 435.00 C 249.07 434.92 261.00 435.01 273.00 435.00 C 285.00 434.99 297.06 434.94 309.00 435.00 C 320.94 435.06 334.26 434.84 346.00 435.00 C 357.74 435.16 370.78 434.63 382.00 435.00 C 393.22 435.37 408.53 437.62 408.00 424.00 C 407.47 410.38 408.24 400.77 408.00 388.00 C 407.76 375.23 408.11 364.42 408.00 352.00 C 407.89 339.58 408.05 327.25 408.00 315.00 C 407.95 302.75 408.03 291.13 408.00 279.00 C 407.97 266.87 408.03 255.10 408.00 243.00 C 407.97 230.90 408.06 218.03 408.00 206.00 C 407.94 193.97 408.12 181.85 408.00 170.00 C 407.88 158.15 408.27 145.56 408.00 134.00 C 407.73 122.44 408.57 107.91 408.00 97.00 C 407.43 86.09 409.30 70.33 408.00 61.00 C 406.70 51.67 413.02 33.04 403.00 30.00
M 368.00 87.00 
C 368.00 184.00 368.00 281.00 368.00 378.00
C 293.33 378.00 218.67 378.00 144.00 378.00
C 144.00 281.00 144.00 184.00 144.00 87.00
C 218.67 87.00 293.33 87.00 368.00 87.00 Z"/>
</g>
<g fill="#FDFDFD" fill-opacity="1.00" stroke="None">
<path d="
M 368.00 87.00 
C 293.33 87.00 218.67 87.00 144.00 87.00
C 144.00 184.00 144.00 281.00 144.00 378.00
C 218.67 378.00 293.33 378.00 368.00 378.00
C 368.00 281.00 368.00 184.00 368.00 87.00
M 343.00 117.00 
C 353.94 121.78 339.35 129.61 331.00 127.00 C 322.65 124.39 310.20 128.09 301.00 127.00 C 291.80 125.91 280.52 127.30 271.00 127.00 C 261.48 126.70 250.52 126.70 241.00 127.00 C 231.48 127.30 220.20 125.91 211.00 127.00 C 201.80 128.09 189.35 124.39 181.00 127.00 C 172.65 129.61 158.05 121.78 169.00 117.00
C 180.94 111.79 198.44 117.41 212.00 116.00 C 225.56 114.59 242.16 116.01 256.00 116.00 C 269.84 115.99 286.44 114.61 300.00 116.00 C 313.56 117.39 331.12 111.81 343.00 117.00
M 183.00 202.00 
C 183.00 210.33 183.00 218.67 183.00 227.00
C 192.76 226.53 201.10 227.63 211.00 227.00 C 220.90 226.37 220.33 240.75 219.00 248.00 C 217.67 255.25 223.53 269.25 214.92 272.92 C 206.30 276.58 195.36 269.27 186.00 273.00 C 176.64 276.73 167.51 264.83 179.01 263.01 C 190.50 261.19 196.96 264.36 208.00 263.00
C 208.00 254.67 208.00 246.33 208.00 238.00
C 198.41 237.83 189.67 238.23 180.00 238.00 C 170.33 237.77 172.16 223.33 173.00 216.00 C 173.84 208.67 168.62 194.00 178.01 192.01 C 187.39 190.02 197.13 194.73 207.00 192.00 C 216.87 189.27 223.33 200.87 212.00 202.00 C 200.67 203.12 193.91 201.16 183.00 202.00
M 243.00 202.00 
C 243.00 210.33 243.00 218.67 243.00 227.00
C 252.76 227.15 262.21 226.80 272.00 227.00 C 281.79 227.20 279.78 241.71 279.00 249.00 C 278.22 256.29 283.31 270.68 273.97 272.97 C 264.64 275.27 255.00 270.12 245.00 273.00 C 235.00 275.88 228.31 263.85 240.00 263.00 C 251.69 262.16 257.82 263.63 269.00 263.00
C 269.00 254.67 269.00 246.33 269.00 238.00
C 259.25 237.83 249.78 238.22 240.00 238.00 C 230.22 237.78 232.19 223.32 233.00 216.00 C 233.81 208.68 228.65 194.18 238.01 192.01 C 247.37 189.84 256.93 194.92 267.00 192.00 C 277.07 189.08 283.72 201.03 272.00 202.00 C 260.28 202.97 254.21 201.28 243.00 202.00
M 320.00 192.00 
C 326.23 193.29 330.70 197.81 334.77 203.23 C 338.84 208.65 339.78 217.44 339.00 225.00 C 338.22 232.56 340.08 244.44 339.00 252.00 C 337.92 259.56 334.25 262.93 328.92 267.92 C 323.59 272.90 314.15 273.26 307.00 273.00 C 299.85 272.74 287.58 275.30 288.00 266.00 C 288.43 256.69 287.60 248.36 288.00 240.00 C 288.40 231.64 287.36 220.21 288.00 213.00 C 288.64 205.79 284.65 192.27 293.01 192.01 C 301.36 191.75 311.87 190.32 320.00 192.00
M 343.00 348.00 
C 331.06 353.21 313.56 347.59 300.00 349.00 C 286.44 350.41 269.84 348.99 256.00 349.00 C 242.16 349.01 225.56 350.39 212.00 349.00 C 198.44 347.61 180.88 353.19 169.00 348.00
C 158.06 343.22 172.65 335.39 181.00 338.00 C 189.35 340.61 201.80 336.91 211.00 338.00 C 220.20 339.09 231.48 337.70 241.00 338.00 C 250.52 338.30 261.48 338.30 271.00 338.00 C 280.52 337.70 291.80 339.09 301.00 338.00 C 310.20 336.91 322.65 340.61 331.00 338.00 C 339.35 335.39 353.95 343.22 343.00 348.00 Z"/>
</g>
<g fill="#E3A091" fill-opacity="1.00" stroke="None">
<path d="
M 169.00 117.00 
C 182.26 113.35 198.13 118.32 212.00 117.00 C 225.87 115.68 241.96 116.99 256.00 117.00 C 270.04 117.01 285.10 115.57 299.00 117.00 C 312.90 118.43 329.63 113.32 343.00 117.00
C 331.12 111.81 313.56 117.39 300.00 116.00 C 286.44 114.61 269.84 115.99 256.00 116.00 C 242.16 116.01 225.56 114.59 212.00 116.00 C 198.44 117.41 180.94 111.79 169.00 117.00 Z"/>
</g>
<g fill="#CB4E33" fill-opacity="1.00" stroke="None">
<path d="
M 343.00 117.00 
C 329.63 113.32 312.90 118.43 299.00 117.00 C 285.10 115.57 270.04 117.01 256.00 117.00 C 241.96 116.99 225.87 115.68 212.00 117.00 C 198.13 118.32 182.26 113.35 169.00 117.00
C 158.05 121.78 172.65 129.61 181.00 127.00 C 189.35 124.39 201.80 128.09 211.00 127.00 C 220.20 125.91 231.48 127.30 241.00 127.00 C 250.52 126.70 261.48 126.70 271.00 127.00 C 280.52 127.30 291.80 125.91 301.00 127.00 C 310.20 128.09 322.65 124.39 331.00 127.00 C 339.35 129.61 353.94 121.78 343.00 117.00 Z"/>
</g>
<g fill="#5A565C" fill-opacity="1.00" stroke="None">
<path d="
M 183.00 202.00 
C 193.91 201.16 200.67 203.12 212.00 202.00 C 223.33 200.87 216.87 189.27 207.00 192.00 C 197.13 194.73 187.39 190.02 178.01 192.01 C 168.62 194.00 173.84 208.67 173.00 216.00 C 172.16 223.33 170.33 237.77 180.00 238.00 C 189.67 238.23 198.41 237.83 208.00 238.00
C 208.00 246.33 208.00 254.67 208.00 263.00
C 196.96 264.36 190.50 261.19 179.01 263.01 C 167.51 264.83 176.64 276.73 186.00 273.00 C 195.36 269.27 206.30 276.58 214.92 272.92 C 223.53 269.25 217.67 255.25 219.00 248.00 C 220.33 240.75 220.90 226.37 211.00 227.00 C 201.10 227.63 192.76 226.53 183.00 227.00
C 183.00 218.67 183.00 210.33 183.00 202.00 Z"/>
</g>
<g fill="#59545B" fill-opacity="1.00" stroke="None">
<path d="
M 243.00 202.00 
C 254.21 201.28 260.28 202.97 272.00 202.00 C 283.72 201.03 277.07 189.08 267.00 192.00 C 256.93 194.92 247.37 189.84 238.01 192.01 C 228.65 194.18 233.81 208.68 233.00 216.00 C 232.19 223.32 230.22 237.78 240.00 238.00 C 249.78 238.22 259.25 237.83 269.00 238.00
C 269.00 246.33 269.00 254.67 269.00 263.00
C 257.82 263.63 251.69 262.16 240.00 263.00 C 228.31 263.85 235.00 275.88 245.00 273.00 C 255.00 270.12 264.64 275.27 273.97 272.97 C 283.31 270.68 278.22 256.29 279.00 249.00 C 279.78 241.71 281.79 227.20 272.00 227.00 C 262.21 226.80 252.76 227.15 243.00 227.00
C 243.00 218.67 243.00 210.33 243.00 202.00 Z"/>
</g>
<g fill="#58535A" fill-opacity="1.00" stroke="None">
<path d="
M 320.00 192.00 
C 311.87 190.32 301.36 191.75 293.01 192.01 C 284.65 192.27 288.64 205.79 288.00 213.00 C 287.36 220.21 288.40 231.64 288.00 240.00 C 287.60 248.36 288.43 256.69 288.00 266.00 C 287.58 275.30 299.85 272.74 307.00 273.00 C 314.15 273.26 323.59 272.90 328.92 267.92 C 334.25 262.93 337.92 259.56 339.00 252.00 C 340.08 244.44 338.22 232.56 339.00 225.00 C 339.78 217.44 338.84 208.65 334.77 203.23 C 330.70 197.81 326.23 193.29 320.00 192.00
M 298.00 263.00 
C 298.00 242.67 298.00 222.33 298.00 202.00
C 307.73 201.54 326.00 200.11 327.97 213.03 C 329.95 225.94 330.17 239.16 328.07 252.07 C 325.98 264.99 307.63 263.37 298.00 263.00 Z"/>
</g>
<g fill="#FAFAFA" fill-opacity="1.00" stroke="None">
<path d="
M 298.00 263.00 
C 307.63 263.37 325.98 264.99 328.07 252.07 C 330.17 239.16 329.95 225.94 327.97 213.03 C 326.00 200.11 307.73 201.54 298.00 202.00
C 298.00 222.33 298.00 242.67 298.00 263.00 Z"/>
</g>
<g fill="#CB4D31" fill-opacity="1.00" stroke="None">
<path d="
M 169.00 348.00 
C 182.26 351.65 198.13 346.68 212.00 348.00 C 225.87 349.32 241.96 348.01 256.00 348.00 C 270.04 347.99 285.10 349.43 299.00 348.00 C 312.90 346.57 329.63 351.68 343.00 348.00
C 353.95 343.22 339.35 335.39 331.00 338.00 C 322.65 340.61 310.20 336.91 301.00 338.00 C 291.80 339.09 280.52 337.70 271.00 338.00 C 261.48 338.30 250.52 338.30 241.00 338.00 C 231.48 337.70 220.20 339.09 211.00 338.00 C 201.80 336.91 189.35 340.61 181.00 338.00 C 172.65 335.39 158.06 343.22 169.00 348.00 Z"/>
</g>
<g fill="#E3A091" fill-opacity="1.00" stroke="None">
<path d="
M 343.00 348.00 
C 329.63 351.68 312.90 346.57 299.00 348.00 C 285.10 349.43 270.04 347.99 256.00 348.00 C 241.96 348.01 225.87 349.32 212.00 348.00 C 198.13 346.68 182.26 351.65 169.00 348.00
C 180.88 353.19 198.44 347.61 212.00 349.00 C 225.56 350.39 242.16 349.01 256.00 349.00 C 269.84 348.99 286.44 350.41 300.00 349.00 C 313.56 347.59 331.06 353.21 343.00 348.00 Z"/>
</g>
<g fill="#6EB083" fill-opacity="0.87" stroke="None">
<path d="
M 80.00 465.00 
C 97.09 467.89 115.64 463.92 133.00 465.00 C 150.36 466.08 168.56 465.01 186.00 465.00
C 186.50 465.00 187.00 465.00 187.00 465.00
C 187.85 465.00 190.29 465.43 191.00 465.00
C 191.22 464.87 191.00 464.00 191.00 464.00
C 172.62 464.00 153.28 465.01 135.00 464.00 C 116.72 462.99 97.33 466.27 80.00 465.00 Z"/>
</g>
<g fill="#95A964" fill-opacity="0.90" stroke="None">
<path d="
M 191.00 465.00 
C 204.54 466.22 218.35 465.04 232.00 465.00 C 245.65 464.96 260.37 466.24 274.00 465.00
C 273.78 464.87 274.00 464.00 274.00 464.00
C 246.33 464.00 218.67 464.00 191.00 464.00
C 191.00 464.00 191.22 464.87 191.00 465.00 Z"/>
</g>
<g fill="#74AF7F" fill-opacity="0.87" stroke="None">
<path d="
M 274.00 465.00 
C 274.71 465.43 277.15 465.00 278.00 465.00
C 284.33 465.00 290.67 465.00 297.00 465.00
C 297.85 465.00 300.29 465.43 301.00 465.00
C 301.22 464.87 301.00 464.00 301.00 464.00
C 292.00 464.00 283.00 464.00 274.00 464.00
C 274.00 464.00 273.78 464.87 274.00 465.00 Z"/>
</g>
<g fill="#95A964" fill-opacity="0.90" stroke="None">
<path d="
M 301.00 465.00 
C 318.34 466.57 336.58 465.00 354.00 465.00 C 371.42 465.00 389.66 466.57 407.00 465.00
C 406.78 464.87 407.00 464.00 407.00 464.00
C 371.67 464.00 336.33 464.00 301.00 464.00
C 301.00 464.00 301.22 464.87 301.00 465.00 Z"/>
</g>
<g fill="#71B081" fill-opacity="0.87" stroke="None">
<path d="
M 407.00 465.00 
C 407.71 465.43 410.15 465.00 411.00 465.00
C 417.68 465.00 425.43 466.11 432.00 465.00
C 425.05 465.51 414.87 464.00 407.00 464.00
C 407.00 464.00 406.78 464.87 407.00 465.00 Z"/>
</g>
<g fill="#FEAB00" fill-opacity="0.04" stroke="None">
<path d="
M 187.00 506.00 
C 186.00 492.42 188.22 478.56 187.00 465.00
C 187.00 465.00 186.50 465.00 186.00 465.00
C 184.85 477.77 184.80 494.03 187.00 506.00 Z"/>
</g>
<g fill="#FE880D" fill-opacity="0.98" stroke="None">
<path d="
M 187.00 506.00 
C 187.16 508.17 187.27 510.04 188.00 512.00
L 196.00 512.00
C 188.36 507.67 191.41 498.94 191.00 491.00 C 190.59 483.06 191.31 473.12 191.00 465.00
C 190.29 465.43 187.85 465.00 187.00 465.00
C 188.22 478.56 186.00 492.42 187.00 506.00 Z"/>
</g>
<g fill="#FEA710" fill-opacity="1.00" stroke="None">
<path d="
M 196.00 512.00 
L 215.00 512.00
C 218.25 504.52 208.14 478.75 221.03 478.03 C 233.92 477.30 225.77 504.37 228.00 512.00
L 236.00 512.00
C 238.45 504.54 229.90 478.00 243.01 478.01 C 256.12 478.02 247.53 504.54 250.00 512.00
L 269.00 512.00
C 279.68 500.43 271.37 480.13 274.00 465.00
C 260.37 466.24 245.65 464.96 232.00 465.00 C 218.35 465.04 204.54 466.22 191.00 465.00
C 191.31 473.12 190.59 483.06 191.00 491.00 C 191.41 498.94 188.36 507.67 196.00 512.00 Z"/>
</g>
<g fill="#FE880D" fill-opacity="0.88" stroke="None">
<path d="
M 269.00 512.00 
L 276.00 512.00
C 280.51 497.39 276.78 480.51 278.00 465.00
C 277.15 465.00 274.71 465.43 274.00 465.00
C 271.37 480.13 279.68 500.43 269.00 512.00 Z"/>
</g>
<g fill="#000000" fill-opacity="0.00" stroke="None">
<path d="
M 276.00 512.00 
L 298.00 512.00
C 295.73 496.82 297.62 480.59 297.00 465.00
C 290.67 465.00 284.33 465.00 278.00 465.00
C 276.78 480.51 280.51 497.39 276.00 512.00 Z"/>
</g>
<g fill="#FE890D" fill-opacity="0.94" stroke="None">
<path d="
M 298.00 512.00 
L 306.00 512.00
C 295.49 500.33 303.51 480.16 301.00 465.00
C 300.29 465.43 297.85 465.00 297.00 465.00
C 297.62 480.59 295.73 496.82 298.00 512.00 Z"/>
</g>
<g fill="#FEA710" fill-opacity="1.00" stroke="None">
<path d="
M 306.00 512.00 
L 326.00 512.00
C 329.25 504.52 319.14 478.75 332.03 478.03 C 344.91 477.30 336.77 504.37 339.00 512.00
L 347.00 512.00
C 349.45 504.54 340.90 478.00 354.01 478.01 C 367.12 478.02 358.53 504.54 361.00 512.00
L 368.00 512.00
C 370.53 504.46 361.79 478.10 375.01 478.01 C 388.23 477.92 379.49 504.47 382.00 512.00
L 402.00 512.00
C 412.68 500.43 404.37 480.13 407.00 465.00
C 389.66 466.57 371.42 465.00 354.00 465.00 C 336.58 465.00 318.34 466.57 301.00 465.00
C 303.51 480.16 295.49 500.33 306.00 512.00 Z"/>
</g>
<g fill="#FE880D" fill-opacity="0.91" stroke="None">
<path d="
M 402.00 512.00 
L 409.00 512.00
C 413.50 497.41 409.79 480.51 411.00 465.00
C 410.15 465.00 407.71 465.43 407.00 465.00
C 404.37 480.13 412.68 500.43 402.00 512.00 Z"/>
</g>
<g fill="#CB4D30" fill-opacity="1.00" stroke="None">
<path d="
M 215.00 512.00 
L 228.00 512.00
C 225.77 504.37 233.92 477.30 221.03 478.03 C 208.14 478.75 218.25 504.52 215.00 512.00 Z"/>
</g>
<g fill="#CC5030" fill-opacity="1.00" stroke="None">
<path d="
M 236.00 512.00 
L 250.00 512.00
C 247.53 504.54 256.12 478.02 243.01 478.01 C 229.90 478.00 238.45 504.54 236.00 512.00 Z"/>
</g>
<g fill="#CB4D30" fill-opacity="1.00" stroke="None">
<path d="
M 326.00 512.00 
L 339.00 512.00
C 336.77 504.37 344.91 477.30 332.03 478.03 C 319.14 478.75 329.25 504.52 326.00 512.00 Z"/>
</g>
<g fill="#CC5030" fill-opacity="1.00" stroke="None">
<path d="
M 347.00 512.00 
L 361.00 512.00
C 358.53 504.54 367.12 478.02 354.01 478.01 C 340.90 478.00 349.45 504.54 347.00 512.00 Z"/>
</g>
<g fill="#CC4F30" fill-opacity="1.00" stroke="None">
<path d="
M 368.00 512.00 
L 382.00 512.00
C 379.49 504.47 388.23 477.92 375.01 478.01 C 361.79 478.10 370.53 504.46 368.00 512.00 Z"/>
</g>
</svg>