<svg xmlns="http://www.w3.org/2000/svg" xmlns:v="https://svgstorm.com"
viewBox = "0 0 512 512"
width="512"
height="512">
<g fill="None" fill-opacity="0.0" stroke="#000000" stroke-opacity="0.00" stroke-width="0.3"><path d="
M 0.00 512.00 
L 512.00 512.00
L 512.00 0.00
L 0.00 0.00
L 0.00 512.00
M 350.00 121.00 
C 348.58 124.88 347.62 128.88 347.00 133.00
C 355.97 134.69 347.16 153.13 344.69 159.69 C 342.23 166.26 337.46 179.02 333.08 186.08 C 328.69 193.13 323.49 201.59 316.75 207.75 C 310.02 213.91 298.86 218.74 289.33 217.67 C 279.80 216.60 271.97 210.83 265.25 203.75 C 258.52 196.67 254.32 189.80 249.70 181.31 C 245.07 172.81 242.27 164.57 238.68 155.32 C 235.08 146.07 232.39 135.99 230.01 125.99 C 227.63 116.00 224.93 104.53 224.00 94.00 C 223.07 83.47 222.37 69.68 225.99 59.99 C 229.61 50.30 233.23 43.48 239.75 35.75 C 246.28 28.02 252.37 23.77 261.08 19.08 C 269.78 14.38 280.62 12.54 291.00 12.00 C 301.38 11.46 313.49 14.31 322.23 18.77 C 330.97 23.23 337.80 27.41 344.25 34.75 C 350.69 42.10 354.76 50.51 357.93 59.07 C 361.09 67.64 362.40 85.80 361.00 94.00 C 359.60 102.20 360.00 122.72 350.00 121.00
M 136.00 81.00 
C 155.89 82.93 176.66 94.30 189.75 111.25 C 202.84 128.20 213.65 141.29 223.75 161.25 C 233.85 181.21 244.80 199.57 244.00 225.00 C 243.20 250.43 208.16 253.14 189.32 243.68 C 170.48 234.22 150.91 227.59 133.92 215.08 C 116.93 202.57 101.88 193.58 89.23 175.77 C 76.58 157.96 71.72 131.07 81.77 110.77 C 91.82 90.47 113.36 78.81 136.00 81.00
M 393.00 186.00 
C 413.03 188.86 432.91 207.23 429.67 228.67 C 426.43 250.11 403.73 260.30 386.98 266.98 C 370.22 273.65 338.91 288.42 324.25 270.75 C 309.58 253.08 329.03 229.46 339.30 213.30 C 349.58 197.14 372.40 183.06 393.00 186.00
M 96.00 226.00 
C 117.99 228.13 141.93 235.87 162.68 244.32 C 183.43 252.77 200.57 257.69 215.77 277.23 C 230.97 296.77 208.59 319.01 186.93 323.93 C 165.26 328.84 137.67 336.29 114.00 336.00 C 90.33 335.71 66.89 330.58 50.25 313.75 C 33.61 296.92 25.17 273.59 35.93 251.93 C 46.68 230.27 73.60 223.83 96.00 226.00
M 426.00 269.00 
C 443.95 270.74 463.03 277.85 473.75 294.25 C 484.48 310.64 483.19 332.75 465.30 344.30 C 447.42 355.86 423.99 350.08 404.93 344.07 C 385.87 338.07 372.21 332.79 354.92 321.08 C 337.62 309.37 341.71 284.76 362.68 279.68 C 383.65 274.60 403.46 266.82 426.00 269.00
M 233.00 328.00 
C 268.12 333.70 253.96 380.00 239.08 400.08 C 224.19 420.15 208.36 446.40 180.98 451.98 C 153.60 457.55 118.16 447.52 108.07 417.93 C 97.99 388.33 119.95 363.60 146.23 352.23 C 172.51 340.86 201.88 322.95 233.00 328.00
M 355.00 330.00 
C 371.55 332.36 387.63 343.27 402.08 351.92 C 416.53 360.57 429.17 370.17 439.25 384.75 C 449.34 399.32 450.29 423.92 438.25 438.25 C 426.20 452.57 404.97 456.40 387.98 449.02 C 370.98 441.65 362.65 429.96 352.23 414.77 C 341.81 399.58 335.64 386.45 329.02 367.98 C 322.41 349.50 328.06 326.15 354.00 330.00
M 298.00 351.00 
C 319.23 354.45 326.31 380.64 333.32 398.68 C 340.33 416.71 346.89 447.73 339.07 468.07 C 331.26 488.42 307.48 501.74 286.00 499.00 C 264.52 496.26 246.60 480.73 242.22 459.78 C 237.84 438.83 247.88 409.81 254.78 391.78 C 261.67 373.74 275.34 347.32 298.00 351.00 Z"/>
</g>
<g fill="None" fill-opacity="0.0" stroke="#818080" stroke-opacity="0.95" stroke-width="0.3"><path d="
M 347.00 133.00 
C 336.47 131.01 336.93 148.19 333.22 155.22 C 329.51 162.26 326.50 173.04 321.70 180.69 C 316.89 188.35 312.97 194.76 304.77 200.77 C 296.57 206.78 286.18 205.46 278.00 199.00
C 255.94 181.58 251.99 153.11 243.02 127.98 C 234.06 102.84 230.30 64.18 250.75 42.75 C 271.20 21.32 303.82 17.52 327.00 36.00
C 332.64 40.50 336.99 45.16 340.77 51.23 C 344.55 57.30 347.53 65.04 348.78 72.22 C 350.03 79.41 348.41 93.55 348.00 100.00 C 347.59 106.45 340.37 119.34 350.00 121.00
C 360.00 122.72 359.60 102.20 361.00 94.00 C 362.40 85.80 361.09 67.64 357.93 59.07 C 354.76 50.51 350.69 42.10 344.25 34.75 C 337.80 27.41 330.97 23.23 322.23 18.77 C 313.49 14.31 301.38 11.46 291.00 12.00 C 280.62 12.54 269.78 14.38 261.08 19.08 C 252.37 23.77 246.28 28.02 239.75 35.75 C 233.23 43.48 229.61 50.30 225.99 59.99 C 222.37 69.68 223.07 83.47 224.00 94.00 C 224.93 104.53 227.63 116.00 230.01 125.99 C 232.39 135.99 235.08 146.07 238.68 155.32 C 242.27 164.57 245.07 172.81 249.70 181.31 C 254.32 189.80 258.52 196.67 265.25 203.75 C 271.97 210.83 279.80 216.60 289.33 217.67 C 298.86 218.74 310.02 213.91 316.75 207.75 C 323.49 201.59 328.69 193.13 333.08 186.08 C 337.46 179.02 342.23 166.26 344.69 159.69 C 347.16 153.13 355.97 134.69 347.00 133.00 Z"/>
</g>
<g fill="None" fill-opacity="0.0" stroke="#CA3838" stroke-opacity="1.00" stroke-width="0.3"><path d="
M 278.00 199.00 
C 265.49 186.49 264.38 167.05 258.02 150.98 C 251.67 134.90 248.49 108.90 249.00 91.00 C 249.51 73.10 260.34 58.42 273.70 47.70 C 287.06 36.97 310.91 30.02 327.00 36.00
C 303.82 17.52 271.20 21.32 250.75 42.75 C 230.30 64.18 234.06 102.84 243.02 127.98 C 251.99 153.11 255.94 181.58 278.00 199.00 Z"/>
</g>
<g fill="None" fill-opacity="0.0" stroke="#EE4545" stroke-opacity="1.00" stroke-width="0.3"><path d="
M 278.00 199.00 
C 286.18 205.46 296.57 206.78 304.77 200.77 C 312.97 194.76 316.89 188.35 321.70 180.69 C 326.50 173.04 329.51 162.26 333.22 155.22 C 336.93 148.19 336.47 131.01 347.00 133.00
C 347.62 128.88 348.58 124.88 350.00 121.00
C 340.37 119.34 347.59 106.45 348.00 100.00 C 348.41 93.55 350.03 79.41 348.78 72.22 C 347.53 65.04 344.55 57.30 340.77 51.23 C 336.99 45.16 332.64 40.50 327.00 36.00
C 310.91 30.02 287.06 36.97 273.70 47.70 C 260.34 58.42 249.51 73.10 249.00 91.00 C 248.49 108.90 251.67 134.90 258.02 150.98 C 264.38 167.05 265.49 186.49 278.00 199.00 Z"/>
</g>
<g fill="None" fill-opacity="0.0" stroke="#818180" stroke-opacity="0.95" stroke-width="0.3"><path d="
M 136.00 81.00 
C 113.36 78.81 91.82 90.47 81.77 110.77 C 71.72 131.07 76.58 157.96 89.23 175.77 C 101.88 193.58 116.93 202.57 133.92 215.08 C 150.91 227.59 170.48 234.22 189.32 243.68 C 208.16 253.14 243.20 250.43 244.00 225.00 C 244.80 199.57 233.85 181.21 223.75 161.25 C 213.65 141.29 202.84 128.20 189.75 111.25 C 176.66 94.30 155.89 82.93 136.00 81.00
M 164.00 105.00 
C 176.61 113.39 185.87 125.61 193.92 138.08 C 201.97 150.55 212.26 162.94 217.77 177.23 C 223.28 191.52 236.17 209.62 231.00 227.00 C 225.83 244.38 197.23 233.57 184.77 228.23 C 172.31 222.89 155.96 214.10 143.77 206.23 C 131.58 198.36 118.59 188.59 108.00 178.00
C 90.56 160.56 80.44 133.01 96.30 110.30 C 112.17 87.60 144.00 91.70 164.00 105.00 Z"/>
</g>
<g fill="None" fill-opacity="0.0" stroke="#C59B6D" stroke-opacity="1.00" stroke-width="0.3"><path d="
M 108.00 178.00 
C 98.02 161.71 99.75 136.45 111.25 121.25 C 122.76 106.06 146.00 99.00 164.00 105.00
C 144.00 91.70 112.17 87.60 96.30 110.30 C 80.44 133.01 90.56 160.56 108.00 178.00 Z"/>
</g>
<g fill="None" fill-opacity="0.0" stroke="#E1C38E" stroke-opacity="1.00" stroke-width="0.3"><path d="
M 108.00 178.00 
C 118.59 188.59 131.58 198.36 143.77 206.23 C 155.96 214.10 172.31 222.89 184.77 228.23 C 197.23 233.57 225.83 244.38 231.00 227.00 C 236.17 209.62 223.28 191.52 217.77 177.23 C 212.26 162.94 201.97 150.55 193.92 138.08 C 185.87 125.61 176.61 113.39 164.00 105.00
C 146.00 99.00 122.76 106.06 111.25 121.25 C 99.75 136.45 98.02 161.71 108.00 178.00 Z"/>
</g>
<g fill="None" fill-opacity="0.0" stroke="#808080" stroke-opacity="0.95" stroke-width="0.3"><path d="
M 393.00 186.00 
C 372.40 183.06 349.58 197.14 339.30 213.30 C 329.03 229.46 309.58 253.08 324.25 270.75 C 338.91 288.42 370.22 273.65 386.98 266.98 C 403.73 260.30 426.43 250.11 429.67 228.67 C 432.91 207.23 413.03 188.86 393.00 186.00
M 410.00 208.00 
C 425.01 223.01 413.78 239.84 397.92 247.92 C 382.07 256.01 367.01 262.82 349.00 265.00
C 337.98 266.33 329.87 262.15 332.93 250.93 C 335.98 239.71 339.34 236.15 344.75 227.75 C 350.17 219.36 353.99 215.66 360.75 208.75 C 367.51 201.84 375.50 198.50 385.00 198.00 C 394.50 197.51 403.50 201.50 410.00 208.00 Z"/>
</g>
<g fill="None" fill-opacity="0.0" stroke="#B65681" stroke-opacity="1.00" stroke-width="0.3"><path d="
M 349.00 265.00 
C 348.05 264.77 346.96 265.18 346.00 265.00
C 356.45 238.85 376.94 205.08 410.00 208.00
C 403.50 201.50 394.50 197.51 385.00 198.00 C 375.50 198.50 367.51 201.84 360.75 208.75 C 353.99 215.66 350.17 219.36 344.75 227.75 C 339.34 236.15 335.98 239.71 332.93 250.93 C 329.87 262.15 337.98 266.33 349.00 265.00 Z"/>
</g>
<g fill="None" fill-opacity="0.0" stroke="#D66090" stroke-opacity="1.00" stroke-width="0.3"><path d="
M 349.00 265.00 
C 367.01 262.82 382.07 256.01 397.92 247.92 C 413.78 239.84 425.01 223.01 410.00 208.00
C 376.94 205.08 356.45 238.85 346.00 265.00
C 346.96 265.18 348.05 264.77 349.00 265.00 Z"/>
</g>
<g fill="None" fill-opacity="0.0" stroke="#808080" stroke-opacity="0.95" stroke-width="0.3"><path d="
M 96.00 226.00 
C 73.60 223.83 46.68 230.27 35.93 251.93 C 25.17 273.59 33.61 296.92 50.25 313.75 C 66.89 330.58 90.33 335.71 114.00 336.00 C 137.67 336.29 165.26 328.84 186.93 323.93 C 208.59 319.01 230.97 296.77 215.77 277.23 C 200.57 257.69 183.43 252.77 162.68 244.32 C 141.93 235.87 117.99 228.13 96.00 226.00
M 177.00 265.00 
C 188.46 268.82 199.75 274.60 206.92 286.08 C 214.08 297.56 196.87 307.80 185.32 311.32 C 173.78 314.84 156.52 320.02 143.00 321.00 C 129.48 321.98 109.88 325.88 95.99 323.01 C 82.11 320.14 71.26 315.58 61.00 306.00
C 45.63 291.65 35.79 268.17 52.75 250.75 C 69.71 233.33 95.99 237.71 117.01 242.99 C 138.02 248.28 157.83 255.52 177.00 265.00 Z"/>
</g>
<g fill="None" fill-opacity="0.0" stroke="#9A7958" stroke-opacity="1.00" stroke-width="0.3"><path d="
M 61.00 306.00 
C 44.93 281.60 68.45 250.95 95.00 249.00 C 121.55 247.05 151.85 256.62 177.00 265.00
C 157.83 255.52 138.02 248.28 117.01 242.99 C 95.99 237.71 69.71 233.33 52.75 250.75 C 35.79 268.17 45.63 291.65 61.00 306.00 Z"/>
</g>
<g fill="None" fill-opacity="0.0" stroke="#C59B6D" stroke-opacity="1.00" stroke-width="0.3"><path d="
M 61.00 306.00 
C 71.26 315.58 82.11 320.14 95.99 323.01 C 109.88 325.88 129.48 321.98 143.00 321.00 C 156.52 320.02 173.78 314.84 185.32 311.32 C 196.87 307.80 214.08 297.56 206.92 286.08 C 199.75 274.60 188.46 268.82 177.00 265.00
C 151.85 256.62 121.55 247.05 95.00 249.00 C 68.45 250.95 44.93 281.60 61.00 306.00 Z"/>
</g>
<g fill="None" fill-opacity="0.0" stroke="#808080" stroke-opacity="0.95" stroke-width="0.3"><path d="
M 426.00 269.00 
C 403.46 266.82 383.65 274.60 362.68 279.68 C 341.71 284.76 337.62 309.37 354.92 321.08 C 372.21 332.79 385.87 338.07 404.93 344.07 C 423.99 350.08 447.42 355.86 465.30 344.30 C 483.19 332.75 484.48 310.64 473.75 294.25 C 463.03 277.85 443.95 270.74 426.00 269.00
M 461.00 298.00 
C 479.65 321.62 456.30 343.64 431.98 338.02 C 407.65 332.41 389.85 327.64 369.00 315.00
C 360.54 309.87 349.83 300.15 361.75 293.75 C 373.66 287.34 381.97 286.08 394.01 284.01 C 406.05 281.94 422.20 280.56 433.67 282.33 C 445.14 284.10 454.07 289.23 461.00 298.00 Z"/>
</g>
<g fill="None" fill-opacity="0.0" stroke="#7878C2" stroke-opacity="1.00" stroke-width="0.3"><path d="
M 369.00 315.00 
C 366.88 307.76 379.27 303.28 385.07 301.07 C 390.88 298.86 400.40 295.52 408.07 294.07 C 415.74 292.63 427.04 292.19 436.00 292.00 C 444.96 291.81 454.33 290.79 461.00 298.00
C 454.07 289.23 445.14 284.10 433.67 282.33 C 422.20 280.56 406.05 281.94 394.01 284.01 C 381.97 286.08 373.66 287.34 361.75 293.75 C 349.83 300.15 360.54 309.87 369.00 315.00 Z"/>
</g>
<g fill="None" fill-opacity="0.0" stroke="#9393EB" stroke-opacity="1.00" stroke-width="0.3"><path d="
M 369.00 315.00 
C 389.85 327.64 407.65 332.41 431.98 338.02 C 456.30 343.64 479.65 321.62 461.00 298.00
C 454.33 290.79 444.96 291.81 436.00 292.00 C 427.04 292.19 415.74 292.63 408.07 294.07 C 400.40 295.52 390.88 298.86 385.07 301.07 C 379.27 303.28 366.88 307.76 369.00 315.00 Z"/>
</g>
<g fill="None" fill-opacity="0.0" stroke="#818180" stroke-opacity="0.95" stroke-width="0.3"><path d="
M 233.00 328.00 
C 201.88 322.95 172.51 340.86 146.23 352.23 C 119.95 363.60 97.99 388.33 108.07 417.93 C 118.16 447.52 153.60 457.55 180.98 451.98 C 208.36 446.40 224.19 420.15 239.08 400.08 C 253.96 380.00 268.12 333.70 233.00 328.00
M 243.00 351.00 
C 246.48 368.08 232.32 387.09 223.70 400.70 C 215.07 414.30 204.47 426.88 189.77 435.77 C 175.07 444.66 148.17 442.54 134.00 432.00
C 123.79 424.41 116.76 412.69 118.00 400.00 C 119.24 387.31 128.04 377.85 138.25 371.25 C 148.45 364.64 159.26 358.89 170.22 354.22 C 181.19 349.56 195.93 344.30 207.02 342.02 C 218.12 339.75 239.95 336.04 243.00 351.00 Z"/>
</g>
<g fill="None" fill-opacity="0.0" stroke="#808181" stroke-opacity="0.95" stroke-width="0.3"><path d="
M 354.00 330.00 
C 328.06 326.15 322.41 349.50 329.02 367.98 C 335.64 386.45 341.81 399.58 352.23 414.77 C 362.65 429.96 370.98 441.65 387.98 449.02 C 404.97 456.40 426.20 452.57 438.25 438.25 C 450.29 423.92 449.34 399.32 439.25 384.75 C 429.17 370.17 416.53 360.57 402.08 351.92 C 387.63 343.27 371.55 332.36 355.00 330.00
M 380.00 354.00 
C 397.12 358.44 409.46 373.35 423.25 384.75 C 437.04 396.15 440.15 424.74 423.30 435.30 C 406.45 445.86 382.90 437.68 373.00 421.00
C 366.30 413.00 361.00 405.67 355.25 396.75 C 349.50 387.84 346.71 377.43 342.02 367.98 C 337.34 358.52 335.69 340.01 350.00 342.00 C 364.31 343.99 368.33 348.23 380.00 354.00 Z"/>
</g>
<g fill="None" fill-opacity="0.0" stroke="#B9B05D" stroke-opacity="1.00" stroke-width="0.3"><path d="
M 134.00 432.00 
C 126.44 422.89 132.30 406.03 137.31 397.31 C 142.31 388.58 153.52 382.36 161.25 377.25 C 168.97 372.13 169.47 373.28 175.69 369.70 C 181.92 366.11 185.47 365.66 191.02 363.03 C 196.58 360.39 201.73 358.47 207.02 357.02 C 212.32 355.58 219.26 352.18 224.01 352.01 C 228.75 351.84 239.79 346.46 243.00 351.00
C 239.95 336.04 218.12 339.75 207.02 342.02 C 195.93 344.30 181.19 349.56 170.22 354.22 C 159.26 358.89 148.45 364.64 138.25 371.25 C 128.04 377.85 119.24 387.31 118.00 400.00 C 116.76 412.69 123.79 424.41 134.00 432.00 Z"/>
</g>
<g fill="None" fill-opacity="0.0" stroke="#7EE6E0" stroke-opacity="1.00" stroke-width="0.3"><path d="
M 373.00 421.00 
C 367.59 411.89 363.13 405.03 359.08 394.92 C 355.02 384.81 349.94 374.47 352.00 362.00 C 354.06 349.53 370.96 351.66 380.00 354.00
C 368.33 348.23 364.31 343.99 350.00 342.00 C 335.69 340.01 337.34 358.52 342.02 367.98 C 346.71 377.43 349.50 387.84 355.25 396.75 C 361.00 405.67 366.30 413.00 373.00 421.00 Z"/>
</g>
<g fill="None" fill-opacity="0.0" stroke="#E9E071" stroke-opacity="1.00" stroke-width="0.3"><path d="
M 134.00 432.00 
C 148.17 442.54 175.07 444.66 189.77 435.77 C 204.47 426.88 215.07 414.30 223.70 400.70 C 232.32 387.09 246.48 368.08 243.00 351.00
C 239.79 346.46 228.75 351.84 224.01 352.01 C 219.26 352.18 212.32 355.58 207.02 357.02 C 201.73 358.47 196.58 360.39 191.02 363.03 C 185.47 365.66 181.92 366.11 175.69 369.70 C 169.47 373.28 168.97 372.13 161.25 377.25 C 153.52 382.36 142.31 388.58 137.31 397.31 C 132.30 406.03 126.44 422.89 134.00 432.00 Z"/>
</g>
<g fill="None" fill-opacity="0.0" stroke="#808080" stroke-opacity="0.95" stroke-width="0.3"><path d="
M 298.00 351.00 
C 275.34 347.32 261.67 373.74 254.78 391.78 C 247.88 409.81 237.84 438.83 242.22 459.78 C 246.60 480.73 264.52 496.26 286.00 499.00 C 307.48 501.74 331.26 488.42 339.07 468.07 C 346.89 447.73 340.33 416.71 333.32 398.68 C 326.31 380.64 319.23 354.45 298.00 351.00
M 309.00 375.00 
C 324.71 397.00 330.13 425.49 330.00 453.00 C 329.87 480.51 292.85 495.54 271.00 481.00
C 254.21 469.83 252.45 451.80 255.78 433.78 C 259.11 415.75 264.11 399.89 272.31 383.31 C 280.50 366.72 295.65 356.31 309.00 375.00 Z"/>
</g>
<g fill="None" fill-opacity="0.0" stroke="#AFF6EF" stroke-opacity="1.00" stroke-width="0.3"><path d="
M 373.00 421.00 
C 382.90 437.68 406.45 445.86 423.30 435.30 C 440.15 424.74 437.04 396.15 423.25 384.75 C 409.46 373.35 397.12 358.44 380.00 354.00
C 370.96 351.66 354.06 349.53 352.00 362.00 C 349.94 374.47 355.02 384.81 359.08 394.92 C 363.13 405.03 367.59 411.89 373.00 421.00 Z"/>
</g>
<g fill="None" fill-opacity="0.0" stroke="#579D77" stroke-opacity="1.00" stroke-width="0.3"><path d="
M 271.00 481.00 
C 263.23 473.53 268.04 457.88 268.78 448.78 C 269.52 439.68 274.07 425.90 276.78 417.78 C 279.49 409.65 284.89 397.76 288.77 391.77 C 292.65 385.78 301.81 370.61 309.00 375.00
C 295.65 356.31 280.50 366.72 272.31 383.31 C 264.11 399.89 259.11 415.75 255.78 433.78 C 252.45 451.80 254.21 469.83 271.00 481.00 Z"/>
</g>
<g fill="None" fill-opacity="0.0" stroke="#6DD09C" stroke-opacity="1.00" stroke-width="0.3"><path d="
M 271.00 481.00 
C 292.85 495.54 329.87 480.51 330.00 453.00 C 330.13 425.49 324.71 397.00 309.00 375.00
C 301.81 370.61 292.65 385.78 288.77 391.77 C 284.89 397.76 279.49 409.65 276.78 417.78 C 274.07 425.90 269.52 439.68 268.78 448.78 C 268.04 457.88 263.23 473.53 271.00 481.00 Z"/>
</g>
<g fill="#000000" fill-opacity="0.00" stroke="None">
<path d="
M 0.00 512.00 
L 512.00 512.00
L 512.00 0.00
L 0.00 0.00
L 0.00 512.00
M 350.00 121.00 
C 348.58 124.88 347.62 128.88 347.00 133.00
C 355.97 134.69 347.16 153.13 344.69 159.69 C 342.23 166.26 337.46 179.02 333.08 186.08 C 328.69 193.13 323.49 201.59 316.75 207.75 C 310.02 213.91 298.86 218.74 289.33 217.67 C 279.80 216.60 271.97 210.83 265.25 203.75 C 258.52 196.67 254.32 189.80 249.70 181.31 C 245.07 172.81 242.27 164.57 238.68 155.32 C 235.08 146.07 232.39 135.99 230.01 125.99 C 227.63 116.00 224.93 104.53 224.00 94.00 C 223.07 83.47 222.37 69.68 225.99 59.99 C 229.61 50.30 233.23 43.48 239.75 35.75 C 246.28 28.02 252.37 23.77 261.08 19.08 C 269.78 14.38 280.62 12.54 291.00 12.00 C 301.38 11.46 313.49 14.31 322.23 18.77 C 330.97 23.23 337.80 27.41 344.25 34.75 C 350.69 42.10 354.76 50.51 357.93 59.07 C 361.09 67.64 362.40 85.80 361.00 94.00 C 359.60 102.20 360.00 122.72 350.00 121.00
M 136.00 81.00 
C 155.89 82.93 176.66 94.30 189.75 111.25 C 202.84 128.20 213.65 141.29 223.75 161.25 C 233.85 181.21 244.80 199.57 244.00 225.00 C 243.20 250.43 208.16 253.14 189.32 243.68 C 170.48 234.22 150.91 227.59 133.92 215.08 C 116.93 202.57 101.88 193.58 89.23 175.77 C 76.58 157.96 71.72 131.07 81.77 110.77 C 91.82 90.47 113.36 78.81 136.00 81.00
M 393.00 186.00 
C 413.03 188.86 432.91 207.23 429.67 228.67 C 426.43 250.11 403.73 260.30 386.98 266.98 C 370.22 273.65 338.91 288.42 324.25 270.75 C 309.58 253.08 329.03 229.46 339.30 213.30 C 349.58 197.14 372.40 183.06 393.00 186.00
M 96.00 226.00 
C 117.99 228.13 141.93 235.87 162.68 244.32 C 183.43 252.77 200.57 257.69 215.77 277.23 C 230.97 296.77 208.59 319.01 186.93 323.93 C 165.26 328.84 137.67 336.29 114.00 336.00 C 90.33 335.71 66.89 330.58 50.25 313.75 C 33.61 296.92 25.17 273.59 35.93 251.93 C 46.68 230.27 73.60 223.83 96.00 226.00
M 426.00 269.00 
C 443.95 270.74 463.03 277.85 473.75 294.25 C 484.48 310.64 483.19 332.75 465.30 344.30 C 447.42 355.86 423.99 350.08 404.93 344.07 C 385.87 338.07 372.21 332.79 354.92 321.08 C 337.62 309.37 341.71 284.76 362.68 279.68 C 383.65 274.60 403.46 266.82 426.00 269.00
M 233.00 328.00 
C 268.12 333.70 253.96 380.00 239.08 400.08 C 224.19 420.15 208.36 446.40 180.98 451.98 C 153.60 457.55 118.16 447.52 108.07 417.93 C 97.99 388.33 119.95 363.60 146.23 352.23 C 172.51 340.86 201.88 322.95 233.00 328.00
M 355.00 330.00 
C 371.55 332.36 387.63 343.27 402.08 351.92 C 416.53 360.57 429.17 370.17 439.25 384.75 C 449.34 399.32 450.29 423.92 438.25 438.25 C 426.20 452.57 404.97 456.40 387.98 449.02 C 370.98 441.65 362.65 429.96 352.23 414.77 C 341.81 399.58 335.64 386.45 329.02 367.98 C 322.41 349.50 328.06 326.15 354.00 330.00
M 298.00 351.00 
C 319.23 354.45 326.31 380.64 333.32 398.68 C 340.33 416.71 346.89 447.73 339.07 468.07 C 331.26 488.42 307.48 501.74 286.00 499.00 C 264.52 496.26 246.60 480.73 242.22 459.78 C 237.84 438.83 247.88 409.81 254.78 391.78 C 261.67 373.74 275.34 347.32 298.00 351.00 Z"/>
</g>
<g fill="#818080" fill-opacity="0.95" stroke="None">
<path d="
M 347.00 133.00 
C 336.47 131.01 336.93 148.19 333.22 155.22 C 329.51 162.26 326.50 173.04 321.70 180.69 C 316.89 188.35 312.97 194.76 304.77 200.77 C 296.57 206.78 286.18 205.46 278.00 199.00
C 255.94 181.58 251.99 153.11 243.02 127.98 C 234.06 102.84 230.30 64.18 250.75 42.75 C 271.20 21.32 303.82 17.52 327.00 36.00
C 332.64 40.50 336.99 45.16 340.77 51.23 C 344.55 57.30 347.53 65.04 348.78 72.22 C 350.03 79.41 348.41 93.55 348.00 100.00 C 347.59 106.45 340.37 119.34 350.00 121.00
C 360.00 122.72 359.60 102.20 361.00 94.00 C 362.40 85.80 361.09 67.64 357.93 59.07 C 354.76 50.51 350.69 42.10 344.25 34.75 C 337.80 27.41 330.97 23.23 322.23 18.77 C 313.49 14.31 301.38 11.46 291.00 12.00 C 280.62 12.54 269.78 14.38 261.08 19.08 C 252.37 23.77 246.28 28.02 239.75 35.75 C 233.23 43.48 229.61 50.30 225.99 59.99 C 222.37 69.68 223.07 83.47 224.00 94.00 C 224.93 104.53 227.63 116.00 230.01 125.99 C 232.39 135.99 235.08 146.07 238.68 155.32 C 242.27 164.57 245.07 172.81 249.70 181.31 C 254.32 189.80 258.52 196.67 265.25 203.75 C 271.97 210.83 279.80 216.60 289.33 217.67 C 298.86 218.74 310.02 213.91 316.75 207.75 C 323.49 201.59 328.69 193.13 333.08 186.08 C 337.46 179.02 342.23 166.26 344.69 159.69 C 347.16 153.13 355.97 134.69 347.00 133.00 Z"/>
</g>
<g fill="#CA3838" fill-opacity="1.00" stroke="None">
<path d="
M 278.00 199.00 
C 265.49 186.49 264.38 167.05 258.02 150.98 C 251.67 134.90 248.49 108.90 249.00 91.00 C 249.51 73.10 260.34 58.42 273.70 47.70 C 287.06 36.97 310.91 30.02 327.00 36.00
C 303.82 17.52 271.20 21.32 250.75 42.75 C 230.30 64.18 234.06 102.84 243.02 127.98 C 251.99 153.11 255.94 181.58 278.00 199.00 Z"/>
</g>
<g fill="#EE4545" fill-opacity="1.00" stroke="None">
<path d="
M 278.00 199.00 
C 286.18 205.46 296.57 206.78 304.77 200.77 C 312.97 194.76 316.89 188.35 321.70 180.69 C 326.50 173.04 329.51 162.26 333.22 155.22 C 336.93 148.19 336.47 131.01 347.00 133.00
C 347.62 128.88 348.58 124.88 350.00 121.00
C 340.37 119.34 347.59 106.45 348.00 100.00 C 348.41 93.55 350.03 79.41 348.78 72.22 C 347.53 65.04 344.55 57.30 340.77 51.23 C 336.99 45.16 332.64 40.50 327.00 36.00
C 310.91 30.02 287.06 36.97 273.70 47.70 C 260.34 58.42 249.51 73.10 249.00 91.00 C 248.49 108.90 251.67 134.90 258.02 150.98 C 264.38 167.05 265.49 186.49 278.00 199.00 Z"/>
</g>
<g fill="#818180" fill-opacity="0.95" stroke="None">
<path d="
M 136.00 81.00 
C 113.36 78.81 91.82 90.47 81.77 110.77 C 71.72 131.07 76.58 157.96 89.23 175.77 C 101.88 193.58 116.93 202.57 133.92 215.08 C 150.91 227.59 170.48 234.22 189.32 243.68 C 208.16 253.14 243.20 250.43 244.00 225.00 C 244.80 199.57 233.85 181.21 223.75 161.25 C 213.65 141.29 202.84 128.20 189.75 111.25 C 176.66 94.30 155.89 82.93 136.00 81.00
M 164.00 105.00 
C 176.61 113.39 185.87 125.61 193.92 138.08 C 201.97 150.55 212.26 162.94 217.77 177.23 C 223.28 191.52 236.17 209.62 231.00 227.00 C 225.83 244.38 197.23 233.57 184.77 228.23 C 172.31 222.89 155.96 214.10 143.77 206.23 C 131.58 198.36 118.59 188.59 108.00 178.00
C 90.56 160.56 80.44 133.01 96.30 110.30 C 112.17 87.60 144.00 91.70 164.00 105.00 Z"/>
</g>
<g fill="#C59B6D" fill-opacity="1.00" stroke="None">
<path d="
M 108.00 178.00 
C 98.02 161.71 99.75 136.45 111.25 121.25 C 122.76 106.06 146.00 99.00 164.00 105.00
C 144.00 91.70 112.17 87.60 96.30 110.30 C 80.44 133.01 90.56 160.56 108.00 178.00 Z"/>
</g>
<g fill="#E1C38E" fill-opacity="1.00" stroke="None">
<path d="
M 108.00 178.00 
C 118.59 188.59 131.58 198.36 143.77 206.23 C 155.96 214.10 172.31 222.89 184.77 228.23 C 197.23 233.57 225.83 244.38 231.00 227.00 C 236.17 209.62 223.28 191.52 217.77 177.23 C 212.26 162.94 201.97 150.55 193.92 138.08 C 185.87 125.61 176.61 113.39 164.00 105.00
C 146.00 99.00 122.76 106.06 111.25 121.25 C 99.75 136.45 98.02 161.71 108.00 178.00 Z"/>
</g>
<g fill="#808080" fill-opacity="0.95" stroke="None">
<path d="
M 393.00 186.00 
C 372.40 183.06 349.58 197.14 339.30 213.30 C 329.03 229.46 309.58 253.08 324.25 270.75 C 338.91 288.42 370.22 273.65 386.98 266.98 C 403.73 260.30 426.43 250.11 429.67 228.67 C 432.91 207.23 413.03 188.86 393.00 186.00
M 410.00 208.00 
C 425.01 223.01 413.78 239.84 397.92 247.92 C 382.07 256.01 367.01 262.82 349.00 265.00
C 337.98 266.33 329.87 262.15 332.93 250.93 C 335.98 239.71 339.34 236.15 344.75 227.75 C 350.17 219.36 353.99 215.66 360.75 208.75 C 367.51 201.84 375.50 198.50 385.00 198.00 C 394.50 197.51 403.50 201.50 410.00 208.00 Z"/>
</g>
<g fill="#B65681" fill-opacity="1.00" stroke="None">
<path d="
M 349.00 265.00 
C 348.05 264.77 346.96 265.18 346.00 265.00
C 356.45 238.85 376.94 205.08 410.00 208.00
C 403.50 201.50 394.50 197.51 385.00 198.00 C 375.50 198.50 367.51 201.84 360.75 208.75 C 353.99 215.66 350.17 219.36 344.75 227.75 C 339.34 236.15 335.98 239.71 332.93 250.93 C 329.87 262.15 337.98 266.33 349.00 265.00 Z"/>
</g>
<g fill="#D66090" fill-opacity="1.00" stroke="None">
<path d="
M 349.00 265.00 
C 367.01 262.82 382.07 256.01 397.92 247.92 C 413.78 239.84 425.01 223.01 410.00 208.00
C 376.94 205.08 356.45 238.85 346.00 265.00
C 346.96 265.18 348.05 264.77 349.00 265.00 Z"/>
</g>
<g fill="#808080" fill-opacity="0.95" stroke="None">
<path d="
M 96.00 226.00 
C 73.60 223.83 46.68 230.27 35.93 251.93 C 25.17 273.59 33.61 296.92 50.25 313.75 C 66.89 330.58 90.33 335.71 114.00 336.00 C 137.67 336.29 165.26 328.84 186.93 323.93 C 208.59 319.01 230.97 296.77 215.77 277.23 C 200.57 257.69 183.43 252.77 162.68 244.32 C 141.93 235.87 117.99 228.13 96.00 226.00
M 177.00 265.00 
C 188.46 268.82 199.75 274.60 206.92 286.08 C 214.08 297.56 196.87 307.80 185.32 311.32 C 173.78 314.84 156.52 320.02 143.00 321.00 C 129.48 321.98 109.88 325.88 95.99 323.01 C 82.11 320.14 71.26 315.58 61.00 306.00
C 45.63 291.65 35.79 268.17 52.75 250.75 C 69.71 233.33 95.99 237.71 117.01 242.99 C 138.02 248.28 157.83 255.52 177.00 265.00 Z"/>
</g>
<g fill="#9A7958" fill-opacity="1.00" stroke="None">
<path d="
M 61.00 306.00 
C 44.93 281.60 68.45 250.95 95.00 249.00 C 121.55 247.05 151.85 256.62 177.00 265.00
C 157.83 255.52 138.02 248.28 117.01 242.99 C 95.99 237.71 69.71 233.33 52.75 250.75 C 35.79 268.17 45.63 291.65 61.00 306.00 Z"/>
</g>
<g fill="#C59B6D" fill-opacity="1.00" stroke="None">
<path d="
M 61.00 306.00 
C 71.26 315.58 82.11 320.14 95.99 323.01 C 109.88 325.88 129.48 321.98 143.00 321.00 C 156.52 320.02 173.78 314.84 185.32 311.32 C 196.87 307.80 214.08 297.56 206.92 286.08 C 199.75 274.60 188.46 268.82 177.00 265.00
C 151.85 256.62 121.55 247.05 95.00 249.00 C 68.45 250.95 44.93 281.60 61.00 306.00 Z"/>
</g>
<g fill="#808080" fill-opacity="0.95" stroke="None">
<path d="
M 426.00 269.00 
C 403.46 266.82 383.65 274.60 362.68 279.68 C 341.71 284.76 337.62 309.37 354.92 321.08 C 372.21 332.79 385.87 338.07 404.93 344.07 C 423.99 350.08 447.42 355.86 465.30 344.30 C 483.19 332.75 484.48 310.64 473.75 294.25 C 463.03 277.85 443.95 270.74 426.00 269.00
M 461.00 298.00 
C 479.65 321.62 456.30 343.64 431.98 338.02 C 407.65 332.41 389.85 327.64 369.00 315.00
C 360.54 309.87 349.83 300.15 361.75 293.75 C 373.66 287.34 381.97 286.08 394.01 284.01 C 406.05 281.94 422.20 280.56 433.67 282.33 C 445.14 284.10 454.07 289.23 461.00 298.00 Z"/>
</g>
<g fill="#7878C2" fill-opacity="1.00" stroke="None">
<path d="
M 369.00 315.00 
C 366.88 307.76 379.27 303.28 385.07 301.07 C 390.88 298.86 400.40 295.52 408.07 294.07 C 415.74 292.63 427.04 292.19 436.00 292.00 C 444.96 291.81 454.33 290.79 461.00 298.00
C 454.07 289.23 445.14 284.10 433.67 282.33 C 422.20 280.56 406.05 281.94 394.01 284.01 C 381.97 286.08 373.66 287.34 361.75 293.75 C 349.83 300.15 360.54 309.87 369.00 315.00 Z"/>
</g>
<g fill="#9393EB" fill-opacity="1.00" stroke="None">
<path d="
M 369.00 315.00 
C 389.85 327.64 407.65 332.41 431.98 338.02 C 456.30 343.64 479.65 321.62 461.00 298.00
C 454.33 290.79 444.96 291.81 436.00 292.00 C 427.04 292.19 415.74 292.63 408.07 294.07 C 400.40 295.52 390.88 298.86 385.07 301.07 C 379.27 303.28 366.88 307.76 369.00 315.00 Z"/>
</g>
<g fill="#818180" fill-opacity="0.95" stroke="None">
<path d="
M 233.00 328.00 
C 201.88 322.95 172.51 340.86 146.23 352.23 C 119.95 363.60 97.99 388.33 108.07 417.93 C 118.16 447.52 153.60 457.55 180.98 451.98 C 208.36 446.40 224.19 420.15 239.08 400.08 C 253.96 380.00 268.12 333.70 233.00 328.00
M 243.00 351.00 
C 246.48 368.08 232.32 387.09 223.70 400.70 C 215.07 414.30 204.47 426.88 189.77 435.77 C 175.07 444.66 148.17 442.54 134.00 432.00
C 123.79 424.41 116.76 412.69 118.00 400.00 C 119.24 387.31 128.04 377.85 138.25 371.25 C 148.45 364.64 159.26 358.89 170.22 354.22 C 181.19 349.56 195.93 344.30 207.02 342.02 C 218.12 339.75 239.95 336.04 243.00 351.00 Z"/>
</g>
<g fill="#808181" fill-opacity="0.95" stroke="None">
<path d="
M 354.00 330.00 
C 328.06 326.15 322.41 349.50 329.02 367.98 C 335.64 386.45 341.81 399.58 352.23 414.77 C 362.65 429.96 370.98 441.65 387.98 449.02 C 404.97 456.40 426.20 452.57 438.25 438.25 C 450.29 423.92 449.34 399.32 439.25 384.75 C 429.17 370.17 416.53 360.57 402.08 351.92 C 387.63 343.27 371.55 332.36 355.00 330.00
M 380.00 354.00 
C 397.12 358.44 409.46 373.35 423.25 384.75 C 437.04 396.15 440.15 424.74 423.30 435.30 C 406.45 445.86 382.90 437.68 373.00 421.00
C 366.30 413.00 361.00 405.67 355.25 396.75 C 349.50 387.84 346.71 377.43 342.02 367.98 C 337.34 358.52 335.69 340.01 350.00 342.00 C 364.31 343.99 368.33 348.23 380.00 354.00 Z"/>
</g>
<g fill="#B9B05D" fill-opacity="1.00" stroke="None">
<path d="
M 134.00 432.00 
C 126.44 422.89 132.30 406.03 137.31 397.31 C 142.31 388.58 153.52 382.36 161.25 377.25 C 168.97 372.13 169.47 373.28 175.69 369.70 C 181.92 366.11 185.47 365.66 191.02 363.03 C 196.58 360.39 201.73 358.47 207.02 357.02 C 212.32 355.58 219.26 352.18 224.01 352.01 C 228.75 351.84 239.79 346.46 243.00 351.00
C 239.95 336.04 218.12 339.75 207.02 342.02 C 195.93 344.30 181.19 349.56 170.22 354.22 C 159.26 358.89 148.45 364.64 138.25 371.25 C 128.04 377.85 119.24 387.31 118.00 400.00 C 116.76 412.69 123.79 424.41 134.00 432.00 Z"/>
</g>
<g fill="#7EE6E0" fill-opacity="1.00" stroke="None">
<path d="
M 373.00 421.00 
C 367.59 411.89 363.13 405.03 359.08 394.92 C 355.02 384.81 349.94 374.47 352.00 362.00 C 354.06 349.53 370.96 351.66 380.00 354.00
C 368.33 348.23 364.31 343.99 350.00 342.00 C 335.69 340.01 337.34 358.52 342.02 367.98 C 346.71 377.43 349.50 387.84 355.25 396.75 C 361.00 405.67 366.30 413.00 373.00 421.00 Z"/>
</g>
<g fill="#E9E071" fill-opacity="1.00" stroke="None">
<path d="
M 134.00 432.00 
C 148.17 442.54 175.07 444.66 189.77 435.77 C 204.47 426.88 215.07 414.30 223.70 400.70 C 232.32 387.09 246.48 368.08 243.00 351.00
C 239.79 346.46 228.75 351.84 224.01 352.01 C 219.26 352.18 212.32 355.58 207.02 357.02 C 201.73 358.47 196.58 360.39 191.02 363.03 C 185.47 365.66 181.92 366.11 175.69 369.70 C 169.47 373.28 168.97 372.13 161.25 377.25 C 153.52 382.36 142.31 388.58 137.31 397.31 C 132.30 406.03 126.44 422.89 134.00 432.00 Z"/>
</g>
<g fill="#808080" fill-opacity="0.95" stroke="None">
<path d="
M 298.00 351.00 
C 275.34 347.32 261.67 373.74 254.78 391.78 C 247.88 409.81 237.84 438.83 242.22 459.78 C 246.60 480.73 264.52 496.26 286.00 499.00 C 307.48 501.74 331.26 488.42 339.07 468.07 C 346.89 447.73 340.33 416.71 333.32 398.68 C 326.31 380.64 319.23 354.45 298.00 351.00
M 309.00 375.00 
C 324.71 397.00 330.13 425.49 330.00 453.00 C 329.87 480.51 292.85 495.54 271.00 481.00
C 254.21 469.83 252.45 451.80 255.78 433.78 C 259.11 415.75 264.11 399.89 272.31 383.31 C 280.50 366.72 295.65 356.31 309.00 375.00 Z"/>
</g>
<g fill="#AFF6EF" fill-opacity="1.00" stroke="None">
<path d="
M 373.00 421.00 
C 382.90 437.68 406.45 445.86 423.30 435.30 C 440.15 424.74 437.04 396.15 423.25 384.75 C 409.46 373.35 397.12 358.44 380.00 354.00
C 370.96 351.66 354.06 349.53 352.00 362.00 C 349.94 374.47 355.02 384.81 359.08 394.92 C 363.13 405.03 367.59 411.89 373.00 421.00 Z"/>
</g>
<g fill="#579D77" fill-opacity="1.00" stroke="None">
<path d="
M 271.00 481.00 
C 263.23 473.53 268.04 457.88 268.78 448.78 C 269.52 439.68 274.07 425.90 276.78 417.78 C 279.49 409.65 284.89 397.76 288.77 391.77 C 292.65 385.78 301.81 370.61 309.00 375.00
C 295.65 356.31 280.50 366.72 272.31 383.31 C 264.11 399.89 259.11 415.75 255.78 433.78 C 252.45 451.80 254.21 469.83 271.00 481.00 Z"/>
</g>
<g fill="#6DD09C" fill-opacity="1.00" stroke="None">
<path d="
M 271.00 481.00 
C 292.85 495.54 329.87 480.51 330.00 453.00 C 330.13 425.49 324.71 397.00 309.00 375.00
C 301.81 370.61 292.65 385.78 288.77 391.77 C 284.89 397.76 279.49 409.65 276.78 417.78 C 274.07 425.90 269.52 439.68 268.78 448.78 C 268.04 457.88 263.23 473.53 271.00 481.00 Z"/>
</g>
</svg>