<?xml version="1.0" encoding="UTF-8"?>
<svg version="1.1" xmlns="http://www.w3.org/2000/svg" width="512" height="512">
<path d="M0 0 C1.91470983 -0.00083002 3.82941957 -0.0032944 5.74412537 -0.00730896 C9.74264155 -0.0101565 13.74059434 0.00443321 17.73901367 0.03198242 C22.84544756 0.0660864 27.95087652 0.06002922 33.05735874 0.04131985 C37.00640636 0.03071571 40.95522301 0.03971824 44.90424919 0.05470467 C46.78636933 0.05986034 48.66851384 0.0594367 50.55063057 0.05315971 C62.61083779 0.02802738 72.38204022 0.25574582 81.73828125 8.78515625 C87.41094543 15.44559777 89.42192426 22.89126883 89.46972656 31.42944336 C89.47469147 32.10474594 89.47965637 32.78004852 89.48477173 33.47581482 C89.49933872 35.70263702 89.50618527 37.92938805 89.51171875 40.15625 C89.51747357 41.70797222 89.52323126 43.25969443 89.5289917 44.81141663 C89.53948534 48.06202525 89.54533908 51.31260925 89.54882812 54.56323242 C89.55431731 58.72393062 89.57836103 62.88430231 89.60680008 67.04489803 C89.62544032 70.24911955 89.63063273 73.4532625 89.632164 76.65753365 C89.63518663 78.19130811 89.64320206 79.72508132 89.65634918 81.25880241 C89.67344349 83.40577853 89.671522 85.55195767 89.66503906 87.69897461 C89.67050751 89.52953651 89.67050751 89.52953651 89.67608643 91.39707947 C89.26724697 94.99252067 88.63539101 96.86129788 86.30859375 99.62890625 C84.65859375 99.95890625 83.00859375 100.28890625 81.30859375 100.62890625 C81.30859375 105.24890625 81.30859375 109.86890625 81.30859375 114.62890625 C82.95859375 114.95890625 84.60859375 115.28890625 86.30859375 115.62890625 C89.21473127 118.0910463 89.31572072 119.70193968 89.68891048 123.52619267 C89.70672985 125.1466839 89.70791211 126.7674073 89.6962738 128.38795471 C89.70435211 129.7290117 89.70435211 129.7290117 89.71259362 131.09716076 C89.72692569 134.09949957 89.71975635 137.10140073 89.71264648 140.10375977 C89.71834754 142.25396582 89.72531077 144.40416884 89.73344421 146.55436707 C89.75142629 152.40183317 89.75019696 158.24914962 89.74450183 164.0966351 C89.74141525 168.97947999 89.74749698 173.86229591 89.75354058 178.74513668 C89.76760267 190.27030106 89.76601235 201.79539137 89.75463867 213.32055664 C89.74317376 225.20043723 89.75720202 237.08009164 89.78403515 248.9599424 C89.80621621 259.16309909 89.81282355 269.36618493 89.80695873 279.56936401 C89.80359156 285.66130891 89.80598767 291.75310906 89.82320976 297.84503365 C89.83871347 303.57999718 89.83468503 309.3146272 89.81590462 315.04957771 C89.81222731 317.14934731 89.81530204 319.24914178 89.82579041 321.3488884 C89.94290862 346.74441986 89.94290862 346.74441986 80.17578125 356.97265625 C73.67830188 362.73611075 67.46627559 363.77588705 59.02685547 363.82177734 C58.19377365 363.82995483 57.36069183 363.83813232 56.50236511 363.84655762 C53.74767768 363.87135023 50.99304167 363.88791434 48.23828125 363.90234375 C47.29459812 363.90766743 46.35091499 363.9129911 45.37863541 363.9184761 C40.38101261 363.9451845 35.38341456 363.96456446 30.38574219 363.97900391 C26.26149229 363.99232602 22.13773915 364.02015018 18.01367188 364.06103516 C13.02285856 364.11050599 8.0324947 364.13514283 3.04144669 364.14223099 C1.14614071 364.14891941 -0.74915618 364.16407824 -2.64432144 364.1881218 C-14.2541874 364.32697912 -22.954152 364.13116456 -32.3125 356.48828125 C-32.91191406 355.7921875 -33.51132812 355.09609375 -34.12890625 354.37890625 C-34.74636719 353.693125 -35.36382812 353.00734375 -36 352.30078125 C-40.93026753 344.51255264 -41.12251874 336.57537475 -41.07235718 327.57263184 C-41.07703715 326.27680601 -41.08171712 324.98098018 -41.08653891 323.6458869 C-41.09900753 320.06921738 -41.09289758 316.49278947 -41.08358026 312.91611934 C-41.07677303 309.05102233 -41.08727927 305.18596593 -41.09552002 301.32087708 C-41.10884173 293.7571171 -41.10598659 286.19344657 -41.0972821 278.62968314 C-41.09049981 272.48103517 -41.08959119 266.33241223 -41.09285355 260.1837616 C-41.09331325 259.30779 -41.09377294 258.4318184 -41.09424657 257.52930221 C-41.09520577 255.74963859 -41.09617842 253.96997498 -41.09716435 252.19031137 C-41.10571367 235.51255445 -41.0958913 218.83484704 -41.07976325 202.15709823 C-41.06636048 187.85487013 -41.06868871 173.55271507 -41.08251953 159.25048828 C-41.09858344 142.63135212 -41.10488974 126.01225932 -41.09568274 109.39311647 C-41.09472712 107.62009462 -41.09378401 105.84707277 -41.09285355 104.0740509 C-41.09239072 103.20174925 -41.09192789 102.32944759 -41.09145104 101.43071255 C-41.08886359 95.29129674 -41.09322688 89.15190849 -41.10029221 83.01249695 C-41.10871641 75.52795494 -41.10640774 68.04350729 -41.09044997 60.55897605 C-41.08257962 56.74214351 -41.07945448 52.92546815 -41.08939743 49.10863686 C-41.10002224 44.96734866 -41.0873137 40.82645543 -41.07235718 36.68518066 C-41.07904934 35.4841047 -41.08574151 34.28302875 -41.09263647 33.04555655 C-41.03196988 24.38666011 -40.12524879 16.5387272 -34.12890625 9.87890625 C-33.22978516 8.83476562 -33.22978516 8.83476562 -32.3125 7.76953125 C-22.23982397 -0.4567377 -12.42166474 -0.09772088 0 0 Z " fill="#56CFE5" transform="translate(405.69140625,148.37109375)"/>
<path d="M0 0 C1.88942971 0.00103965 3.7788616 -0.00000519 5.66828918 -0.00302124 C9.60788716 -0.00284282 13.54665786 0.01780829 17.48608398 0.05419922 C22.51626381 0.09966585 27.54524297 0.10063442 32.57557201 0.08716393 C36.46973708 0.08045912 40.36363205 0.09378996 44.25774574 0.11342239 C46.1119476 0.12107626 47.96617961 0.1234438 49.82039452 0.1202507 C68.3545294 0.11491064 68.3545294 0.11491064 75.33203125 4.7265625 C76.56373047 5.53867188 76.56373047 5.53867188 77.8203125 6.3671875 C83.21261408 11.12442144 87.96306822 17.17040007 88.46083242 24.66616118 C88.46262099 25.40743297 88.46440956 26.14870477 88.46625233 26.91243935 C88.47071017 27.76977751 88.47516801 28.62711568 88.47976094 29.51043379 C88.47957658 30.45272947 88.47939222 31.39502515 88.47920227 32.36587524 C88.48287896 33.36664231 88.48655565 34.36740937 88.49034375 35.39850271 C88.50139836 38.76778948 88.50522746 42.13704544 88.5090332 45.50634766 C88.51529654 47.915803 88.52194322 50.32525738 88.52894592 52.73471069 C88.54818655 59.97716794 88.55877659 67.21962266 88.56767371 74.4620977 C88.57205789 77.87390646 88.57742442 81.28571367 88.58266258 84.69752121 C88.59967544 96.04164368 88.61416871 107.38576518 88.62141132 118.72989845 C88.62332118 121.6736107 88.62524152 124.61732294 88.62719727 127.56103516 C88.62768101 128.29266909 88.62816475 129.02430303 88.62866315 129.77810769 C88.63696004 141.62502827 88.66229089 153.47184777 88.69477794 165.31872423 C88.72787032 177.48570821 88.7458621 189.65264087 88.74905556 201.81967008 C88.7512188 208.64934072 88.75993979 215.47886402 88.78551674 222.30849075 C88.8095296 228.73528483 88.8130357 235.16188587 88.80275536 241.58871841 C88.80225956 243.94573345 88.80859275 246.30276147 88.8223114 248.65973663 C88.84001433 251.88192434 88.83293118 255.10315929 88.81977844 258.3253479 C88.83074769 259.25425925 88.84171693 260.1831706 88.85301858 261.14023077 C88.76555583 270.03833055 85.67852765 277.41755844 79.42308044 283.79542542 C70.19312108 292.31952751 59.42769171 291.44819727 47.640625 291.35546875 C45.72591517 291.35629877 43.81120543 291.35876315 41.89649963 291.36277771 C37.89798345 291.36562525 33.90003066 291.35103554 29.90161133 291.32348633 C24.79517744 291.28938235 19.68974848 291.29543953 14.58326626 291.3141489 C10.63421864 291.32475304 6.68540199 291.31575051 2.73637581 291.30076408 C0.85425567 291.29560841 -1.02788884 291.29603205 -2.91000557 291.30230904 C-14.96407508 291.32742858 -24.75348052 291.10654825 -34.09765625 282.56640625 C-40.85499585 274.64922478 -41.81786679 266.03897172 -41.80841064 256.08125305 C-41.81286733 254.6153495 -41.81286733 254.6153495 -41.81741405 253.11983174 C-41.82609226 249.84200482 -41.82760856 246.56421446 -41.82910156 243.28637695 C-41.83373037 240.93736188 -41.83875511 238.58834755 -41.84414673 236.23933411 C-41.85726698 229.85486512 -41.863715 223.47040665 -41.86815739 217.08592629 C-41.8710888 213.09657605 -41.87519375 209.10722867 -41.87966156 205.11787987 C-41.89185207 194.06448297 -41.90215162 183.01108799 -41.90553665 171.95768452 C-41.90575622 171.25064904 -41.90597578 170.54361357 -41.906202 169.81515278 C-41.90642028 169.10646035 -41.90663856 168.39776793 -41.90686345 167.66759998 C-41.90730691 166.23160636 -41.90775347 164.79561275 -41.90820312 163.35961914 C-41.90842455 162.64732221 -41.90864598 161.93502527 -41.90887412 161.20114359 C-41.91282017 149.66543817 -41.93026926 138.129796 -41.95356265 126.594115 C-41.97730491 114.74007582 -41.98973982 102.88606834 -41.99090457 91.03200501 C-41.99181975 84.38065829 -41.99785296 77.72938438 -42.01572418 71.07805824 C-42.03221292 64.8194977 -42.03435633 58.56109337 -42.02558517 52.30251884 C-42.02481523 50.00881659 -42.02915187 47.71510592 -42.03904343 45.42142487 C-42.05178123 42.28302827 -42.04587583 39.14518341 -42.03546143 36.00679016 C-42.04351783 35.10550158 -42.05157423 34.20421301 -42.05987477 33.27561265 C-41.99013527 24.25009183 -39.99851195 15.80144441 -33.91731262 8.92684937 C-24.23658137 -0.54275023 -12.6046295 -0.13799479 0 0 Z " fill="#FB6E70" transform="translate(251.66796875,221.2734375)"/>
<path d="M0 0 C1.19180878 -0.03124969 2.38361755 -0.06249939 3.61154175 -0.09469604 C8.77716743 0.59710577 12.5632517 3.38091703 15.78173828 7.41748047 C19.73270889 12.72306957 19.73736206 17.95427432 18.96923828 24.35498047 C17.46750407 29.15908249 15.4006118 33.67352574 13.28173828 38.22998047 C12.69255862 39.53562117 12.10527189 40.84211755 11.51977539 42.14941406 C10.30200169 44.86029174 9.0728902 47.56558261 7.83447266 50.26708984 C5.99883964 54.27736703 4.20606571 58.30576523 2.42236328 62.33935547 C-5.92367909 81.16710607 -5.92367909 81.16710607 -10.22216797 90.06591797 C-10.68953369 91.03577637 -11.15689941 92.00563477 -11.63842773 93.00488281 C-13.03076172 95.35498047 -13.03076172 95.35498047 -16.03076172 97.35498047 C-18.90576172 97.79248047 -18.90576172 97.79248047 -22.03076172 97.35498047 C-26.16578594 93.68402094 -29.47918662 89.40365126 -32.84326172 85.04248047 C-33.34535156 84.39730469 -33.84744141 83.75212891 -34.36474609 83.08740234 C-35.58981853 81.51230922 -36.81072492 79.93397731 -38.03076172 78.35498047 C-44.67765452 82.56499087 -50.88900554 87.25724105 -57.11352539 92.05761719 C-63.22145462 96.7596645 -69.41111093 101.34009095 -75.63476562 105.88745117 C-80.01856974 109.10137726 -84.3577498 112.36290258 -88.65576172 115.69091797 C-89.59387695 116.41561279 -90.53199219 117.14030762 -91.49853516 117.88696289 C-93.3088908 119.28952782 -95.11450667 120.69823927 -96.91455078 122.11401367 C-104.62432045 128.08105103 -112.10133103 132.28104537 -122.17138672 131.10498047 C-130.19036233 129.39100095 -135.42011163 124.19161507 -141.30419922 118.79638672 C-144.92263222 115.55638582 -148.69149638 112.52367069 -152.48779297 109.49560547 C-155.03076172 107.35498047 -155.03076172 107.35498047 -157.60498047 104.52685547 C-158.40548828 103.81013672 -159.20599609 103.09341797 -160.03076172 102.35498047 C-163.235958 102.69316589 -165.29668637 104.05194286 -167.83935547 105.95263672 C-168.57541016 106.49855469 -169.31146484 107.04447266 -170.06982422 107.60693359 C-170.86130859 108.20441406 -171.65279297 108.80189453 -172.46826172 109.41748047 C-173.30228516 110.03945312 -174.13630859 110.66142578 -174.99560547 111.30224609 C-182.09910397 116.61401395 -189.14661311 122.0001712 -196.19067383 127.39038086 C-202.69375465 132.36001547 -209.26399516 137.22982369 -215.86669922 142.06591797 C-221.80747962 146.42775341 -227.67817089 150.87568318 -233.53076172 155.35498047 C-242.50116593 162.2174138 -251.55937421 168.94983713 -260.67041016 175.62402344 C-263.90392177 177.99530988 -267.13100353 180.37526512 -270.35766602 182.75585938 C-271.95714392 183.93520237 -273.55754915 185.11328885 -275.15893555 186.29003906 C-278.9042174 189.04255318 -282.63852076 191.80715761 -286.34716797 194.60888672 C-287.02360352 195.11589111 -287.70003906 195.62289551 -288.39697266 196.14526367 C-289.64857786 197.08396758 -290.89572982 198.02865463 -292.13720703 198.98071289 C-297.34400513 202.86780525 -301.977857 204.63922036 -308.46826172 204.66748047 C-309.35384766 204.68423828 -310.23943359 204.70099609 -311.15185547 204.71826172 C-317.50585844 203.91646759 -322.49369964 200.59624984 -327.53076172 196.85498047 C-328.11809082 196.42717285 -328.70541992 195.99936523 -329.31054688 195.55859375 C-331.22209946 194.16384036 -333.12635389 192.75946945 -335.03076172 191.35498047 C-336.44437745 190.3205155 -337.85844687 189.28667026 -339.27294922 188.25341797 C-342.86424912 185.62784577 -346.44904667 182.99361088 -350.03076172 180.35498047 C-356.55427645 184.57434501 -362.75926617 189.10689396 -368.90576172 193.85498047 C-375.73041566 199.09284208 -382.58810096 204.2745381 -389.53076172 209.35498047 C-396.28056535 214.29663689 -402.95359308 219.32888694 -409.59326172 224.41748047 C-417.64850061 230.58618746 -425.79417926 236.60573321 -434.05810547 242.49169922 C-436.53116901 244.25699749 -438.95997161 246.05732377 -441.34716797 247.93701172 C-448.05897582 253.15121891 -448.05897582 253.15121891 -452.90576172 254.16748047 C-459.71126502 252.39804961 -463.98092626 244.75959175 -468.09326172 239.41748047 C-468.70492188 238.63179687 -469.31658203 237.84611328 -469.94677734 237.03662109 C-480.05818419 223.97377658 -480.05818419 223.97377658 -479.62963867 218.48022461 C-478.85611137 215.73519601 -477.7085082 214.81578541 -475.52685547 213.00341797 C-474.79934082 212.39796143 -474.07182617 211.79250488 -473.32226562 211.16870117 C-469.72807206 208.32390424 -466.05950482 205.60022621 -462.34326172 202.91748047 C-455.23168224 197.73490722 -448.20080744 192.46005835 -441.21826172 187.10498047 C-435.02225454 182.35894766 -428.79010805 177.70039063 -422.40527344 173.21240234 C-417.11953255 169.47186639 -411.98372192 165.54185018 -406.84326172 161.60498047 C-397.72299249 154.62055371 -388.51667152 147.76597861 -379.24560547 140.98339844 C-377.05084426 139.36974574 -374.8674949 137.74176677 -372.68701172 136.10888672 C-372.00493652 135.60075439 -371.32286133 135.09262207 -370.62011719 134.5690918 C-369.35554894 133.62655938 -368.09390557 132.68008335 -366.8359375 131.72875977 C-361.50829329 127.7746369 -357.48714527 126.05505175 -350.84326172 125.91748047 C-349.27511719 125.85753906 -349.27511719 125.85753906 -347.67529297 125.79638672 C-338.10119433 127.26379948 -330.61836786 133.63022054 -323.21826172 139.47998047 C-321.40101332 140.9015067 -319.58205992 142.32085659 -317.76123047 143.73779297 C-316.57630005 144.67196045 -316.57630005 144.67196045 -315.36743164 145.625 C-313.00342266 147.37522125 -310.57608456 148.88399868 -308.03076172 150.35498047 C-307.48887207 149.93837158 -306.94698242 149.5217627 -306.38867188 149.0925293 C-297.01859922 141.89775778 -287.64284756 134.72465044 -278.03076172 127.85498047 C-270.54633491 122.50311867 -263.2200242 116.9635393 -255.91748047 111.36669922 C-250.16729212 106.96552867 -244.37322518 102.63277122 -238.53076172 98.35498047 C-231.80570131 93.42945541 -225.15028106 88.42142839 -218.53076172 83.35498047 C-211.03375456 77.61787625 -203.48965725 71.95378835 -195.86523438 66.38696289 C-192.07142263 63.61382334 -188.3097355 60.812762 -184.60498047 57.92138672 C-183.89639893 57.37321289 -183.18781738 56.82503906 -182.45776367 56.26025391 C-181.14489749 55.24120109 -179.83925431 54.21272999 -178.54321289 53.17236328 C-172.65431552 48.62341152 -165.7046827 45.59714344 -158.10888672 46.03076172 C-148.59592323 47.51492708 -142.94106609 52.78017855 -136.28857422 59.24169922 C-132.5176332 62.90146598 -128.48593517 66.14997057 -124.37060547 69.41748047 C-122.11556046 71.28476315 -120.06429818 73.25099817 -118.03076172 75.35498047 C-114.4143371 74.05449671 -111.64405638 72.51009146 -108.61669922 70.15185547 C-107.78203125 69.50772705 -106.94736328 68.86359863 -106.08740234 68.19995117 C-104.75999023 67.16294067 -104.75999023 67.16294067 -103.40576172 66.10498047 C-101.52927043 64.65432102 -99.65164053 63.20513337 -97.77294922 61.75732422 C-96.82129883 61.02368652 -95.86964844 60.29004883 -94.88916016 59.53417969 C-89.71243203 55.5875214 -84.44379629 51.76476932 -79.16113281 47.96142578 C-75.1008219 45.00733789 -71.46236983 42.0248947 -68.03076172 38.35498047 C-68.38904053 37.8714209 -68.74731934 37.38786133 -69.11645508 36.88964844 C-70.74521431 34.67796207 -72.35675375 32.45426389 -73.96826172 30.22998047 C-74.53222656 29.46943359 -75.09619141 28.70888672 -75.67724609 27.92529297 C-78.64542419 23.80183598 -80.89736047 20.61255902 -81.03076172 15.35498047 C-80.15576172 12.60498047 -80.15576172 12.60498047 -78.03076172 10.35498047 C-70.58475554 8.34595463 -62.97010583 7.42287558 -55.33544922 6.40966797 C-53.37697556 6.14756027 -53.37697556 6.14756027 -51.37893677 5.88015747 C-48.62426303 5.51253608 -45.86915847 5.14835222 -43.11376953 4.78613281 C-39.62674811 4.32707728 -36.14155867 3.85543286 -32.65666008 3.38056755 C-29.93417962 3.01179962 -27.21055898 2.65204337 -24.48657608 2.29455948 C-22.59016415 2.04356405 -20.69493943 1.78364832 -18.79977417 1.52340698 C-12.53954562 0.71551774 -6.30891476 0.14812656 0 0 Z " fill="#000100" transform="translate(486.03076171875,-0.35498046875)"/>
<path d="M0 0 C1.22014297 -0.0098568 1.22014297 -0.0098568 2.4649353 -0.01991272 C5.16013688 -0.03963955 7.85528261 -0.05130988 10.55053711 -0.0612793 C11.47307219 -0.06535482 12.39560726 -0.06943035 13.34609795 -0.07362938 C18.23349661 -0.09449223 23.12086722 -0.10879034 28.00830078 -0.11816406 C33.03961213 -0.1292003 38.07047777 -0.1635673 43.10163212 -0.20333576 C46.98374715 -0.22957818 50.8657575 -0.23786288 54.74795341 -0.24144554 C56.60137361 -0.24629554 58.45478963 -0.25786392 60.30812263 -0.27648354 C80.43360959 -0.46603005 80.43360959 -0.46603005 89.60131836 6.0012207 C97.94239129 14.68832068 100.12547089 23.12354514 100.15582275 35.08818054 C100.15879388 35.74723021 100.161765 36.40627988 100.16482615 37.08530074 C100.17343679 39.27432829 100.17501487 41.46330067 100.17651367 43.65234375 C100.18114727 45.22994603 100.18617266 46.8075472 100.19155884 48.38514709 C100.20463283 52.6581289 100.21111802 56.93109503 100.2155695 61.20409369 C100.21850839 63.87851974 100.22261471 66.55294158 100.22707367 69.22736549 C100.24073558 77.60909303 100.25040856 85.99081086 100.25427556 94.37254876 C100.25875289 104.02191673 100.27629116 113.67114281 100.30527616 123.32046765 C100.326948 130.79674588 100.33698277 138.27298434 100.33831668 145.74929363 C100.33936079 150.20640425 100.34518425 154.66338127 100.36313629 159.1204586 C100.37971243 163.31728609 100.38172661 167.51388088 100.37299728 171.7107296 C100.37223198 173.24246854 100.37650196 174.77422049 100.38645554 176.30592728 C100.45950347 188.25726099 100.14031562 199.78745078 92.05444336 209.2668457 C85.50540271 215.40186654 78.61594997 217.32240963 69.84716797 217.36987305 C69.01423218 217.37805054 68.18129639 217.38622803 67.32312012 217.39465332 C64.56299553 217.41948859 61.80292248 217.43602253 59.04272461 217.45043945 C57.62582431 217.45842497 57.62582431 217.45842497 56.18029976 217.46657181 C51.17619768 217.49330094 46.17212048 217.51267276 41.16796875 217.52709961 C37.03688292 217.54041469 32.90629387 217.56822273 28.77539062 217.60913086 C23.77924632 217.65860412 18.7835511 217.68323924 13.78717232 217.69032669 C11.88907534 217.69701613 9.99098746 217.71217766 8.09303093 217.7362175 C-4.172956 217.88266068 -13.32596102 217.49639305 -22.85961914 208.92700195 C-29.152756 202.05335922 -30.59528079 194.67017181 -30.51586914 185.5949707 C-30.51969604 184.6183699 -30.52352295 183.6417691 -30.52746582 182.63557434 C-30.53017037 180.58760537 -30.52291212 178.53960099 -30.50610352 176.49169922 C-30.48455678 173.35542515 -30.50601445 170.22141153 -30.53149414 167.08520508 C-30.52885287 165.08845524 -30.52373206 163.09170681 -30.51586914 161.0949707 C-30.52396606 160.15952927 -30.53206299 159.22408783 -30.54040527 158.26029968 C-30.44743925 151.83394939 -30.44743925 151.83394939 -28.13891602 148.55712891 C-25.98461914 147.17700195 -25.98461914 147.17700195 -22.98461914 147.17700195 C-22.98461914 142.55700195 -22.98461914 137.93700195 -22.98461914 133.17700195 C-24.63461914 132.51700195 -26.28461914 131.85700195 -27.98461914 131.17700195 C-30.39311624 128.76850485 -30.23783304 128.2232451 -30.25204468 124.93492126 C-30.26057465 124.04486389 -30.26910461 123.15480652 -30.27789307 122.23777771 C-30.27698669 121.25857864 -30.27608032 120.27937958 -30.27514648 119.27050781 C-30.28186371 118.24104034 -30.28858093 117.21157288 -30.29550171 116.15090942 C-30.31457202 112.73117299 -30.31841121 109.31163208 -30.32055664 105.8918457 C-30.326981 103.51729755 -30.33370908 101.1427502 -30.34072876 98.76820374 C-30.35272603 93.7805091 -30.35640734 88.79288383 -30.35522461 83.80517578 C-30.3550219 77.42518689 -30.38226351 71.04564587 -30.41676903 64.6657629 C-30.43905595 59.75598628 -30.4430615 54.84631685 -30.44200516 49.93649483 C-30.44436074 47.58544949 -30.45318177 45.23440118 -30.46866989 42.88340569 C-30.48835428 39.58504281 -30.48248022 36.28763744 -30.47045898 32.98925781 C-30.481698 32.02422836 -30.49293701 31.05919891 -30.5045166 30.06492615 C-30.41846349 20.73234731 -27.22941182 13.72740266 -20.92211914 6.90356445 C-14.79742915 1.44567539 -7.9897346 0.02796195 0 0 Z " fill="#F9DB5F" transform="translate(85.984619140625,294.822998046875)"/>
<path d="M0 0 C1.91470983 -0.00083002 3.82941957 -0.0032944 5.74412537 -0.00730896 C9.74264155 -0.0101565 13.74059434 0.00443321 17.73901367 0.03198242 C22.84544756 0.0660864 27.95087652 0.06002922 33.05735874 0.04131985 C37.00640636 0.03071571 40.95522301 0.03971824 44.90424919 0.05470467 C46.78636933 0.05986034 48.66851384 0.0594367 50.55063057 0.05315971 C62.61083779 0.02802738 72.38204022 0.25574582 81.73828125 8.78515625 C87.41094543 15.44559777 89.42192426 22.89126883 89.46972656 31.42944336 C89.47469147 32.10474594 89.47965637 32.78004852 89.48477173 33.47581482 C89.49933872 35.70263702 89.50618527 37.92938805 89.51171875 40.15625 C89.51747357 41.70797222 89.52323126 43.25969443 89.5289917 44.81141663 C89.53948534 48.06202525 89.54533908 51.31260925 89.54882812 54.56323242 C89.55431731 58.72393062 89.57836103 62.88430231 89.60680008 67.04489803 C89.62544032 70.24911955 89.63063273 73.4532625 89.632164 76.65753365 C89.63518663 78.19130811 89.64320206 79.72508132 89.65634918 81.25880241 C89.67344349 83.40577853 89.671522 85.55195767 89.66503906 87.69897461 C89.67050751 89.52953651 89.67050751 89.52953651 89.67608643 91.39707947 C89.27394241 94.9336392 88.45918282 96.81797744 86.30859375 99.62890625 C83.335658 100.80243352 81.76989428 100.74972306 78.68359375 99.94140625 C75.9210035 98.41471164 74.90449192 97.34792261 73.30859375 94.62890625 C72.93678284 91.53079224 72.93678284 91.53079224 72.93969727 87.84423828 C72.93404755 86.83369385 72.93404755 86.83369385 72.92828369 85.80273438 C72.92186132 84.34372472 72.92217181 82.8846732 72.9284687 81.42566299 C72.9375933 79.11307157 72.92733986 76.80128853 72.91184998 74.48873901 C72.87179064 67.91551959 72.87054519 61.34236417 72.87280273 54.76904297 C72.87285393 50.74422897 72.85363717 46.71985062 72.82346916 42.6951561 C72.81267103 40.42271206 72.82475829 38.15110933 72.83729553 35.87869263 C72.82838692 34.4765745 72.81831107 33.07446315 72.80688477 31.67236328 C72.80705093 30.45420929 72.8072171 29.2360553 72.80738831 27.98098755 C72.19829145 23.88763455 70.97894068 21.77146795 68.30859375 18.62890625 C64.29693005 16.22809083 60.14287992 16.3325701 55.58422852 16.33837891 C54.82260406 16.33166168 54.06097961 16.32494446 53.27627563 16.31802368 C50.7674501 16.29908069 48.25889253 16.29512162 45.75 16.29296875 C44.00031933 16.28653908 42.25063973 16.27981059 40.5009613 16.27279663 C36.83679715 16.26083374 33.17272722 16.25711487 29.50854492 16.25830078 C24.81987507 16.25850411 20.13181042 16.23118379 15.44328403 16.19675636 C11.83067565 16.17449094 8.21821311 16.1704631 4.60554314 16.17152023 C2.87721607 16.16916444 1.14888497 16.16034208 -0.57937431 16.1448555 C-2.99922692 16.12519877 -5.41777159 16.13103104 -7.83764648 16.14306641 C-8.54692795 16.13182739 -9.25620941 16.12058838 -9.98698425 16.10900879 C-15.01409903 16.17235533 -17.90879264 17.34005485 -21.69140625 20.62890625 C-25.67005697 26.36167779 -25.11313055 32.36275581 -25.0790863 39.06539917 C-25.08447184 40.33078242 -25.08985738 41.59616568 -25.09540612 42.89989388 C-25.10985758 46.40545483 -25.10561702 49.91078061 -25.0982393 53.41635442 C-25.09350913 57.19969085 -25.10601618 60.98297629 -25.11625671 64.76629639 C-25.1334534 72.17571942 -25.13428288 79.58505768 -25.12904381 86.9944955 C-25.12500226 93.01736696 -25.12644549 99.04021338 -25.13179207 105.06308365 C-25.13254049 105.92032291 -25.13328891 106.77756217 -25.13406001 107.66077838 C-25.13559149 109.40227333 -25.13712984 111.14376828 -25.13867498 112.88526322 C-25.15240333 129.21722628 -25.14696013 145.54914144 -25.13548977 161.88110341 C-25.12555844 176.81950774 -25.13849572 191.75778819 -25.16242396 206.69617341 C-25.18681228 222.03746324 -25.1964234 237.37869537 -25.18977123 252.7200042 C-25.18627824 261.33194653 -25.18851631 269.94379361 -25.20602226 278.55572128 C-25.22074096 285.88740593 -25.22138415 293.21892824 -25.20395135 300.55060969 C-25.1954359 304.29038625 -25.19330479 308.02987278 -25.20860291 311.76963425 C-25.22499108 315.82614019 -25.21030994 319.88194574 -25.19261169 323.93844604 C-25.2022167 325.11724457 -25.21182171 326.29604309 -25.22171777 327.51056278 C-25.16028156 334.34685032 -24.37451791 338.81668379 -20.69140625 344.62890625 C-16.80136506 348.01881986 -12.9252485 348.05941999 -7.96704102 348.01708984 C-7.20541656 348.0223468 -6.44379211 348.02760376 -5.65908813 348.03302002 C-3.1501188 348.04618615 -0.64178791 348.03749333 1.8671875 348.02734375 C3.6168683 348.02936567 5.36654828 348.0322781 7.1162262 348.03604126 C10.78044674 348.04046019 14.44444761 348.03404825 18.10864258 348.02001953 C22.7972411 348.00294051 27.48532392 348.01276332 32.17390347 348.03073692 C35.78652301 348.04159723 39.39902108 348.03811791 43.01164436 348.03035355 C44.73995081 348.02835709 46.4682684 348.03079128 48.19656181 348.03779221 C50.61628129 348.04544239 53.03517568 348.03375271 55.45483398 348.01708984 C56.51875618 348.02619888 56.51875618 348.02619888 57.60417175 348.03549194 C62.23343666 347.9766685 65.47586575 347.25935649 69.30859375 344.62890625 C72.54903603 339.59597323 72.73332882 335.44445656 72.68040466 329.66490173 C72.68422923 328.7730886 72.68805379 327.88127546 72.69199425 326.96243769 C72.70126568 323.97992526 72.68929638 320.99787868 72.67749023 318.01538086 C72.67995856 315.87485054 72.68379729 313.73432143 72.68890381 311.59379578 C72.69723909 306.98736991 72.69643657 302.38106767 72.6887188 297.77464104 C72.67714001 290.49305876 72.68929432 283.21163571 72.70533752 275.93006897 C72.74153602 257.84639441 72.74775904 239.7627236 72.74523926 221.67901611 C72.74352948 207.62079228 72.75060336 193.56269832 72.78521782 179.50451094 C72.80203913 172.26352978 72.80019385 165.02286505 72.7843951 157.78188503 C72.77860927 153.2812637 72.78931804 148.78079332 72.80464172 144.28019905 C72.80837632 142.19080809 72.80523587 140.10139202 72.79477119 138.01202393 C72.78145034 135.16294143 72.79256725 132.31496458 72.80979919 129.46592712 C72.79999242 128.63635732 72.79018564 127.80678752 72.78008169 126.95207924 C72.8291005 123.04162763 73.04465685 121.06223047 75.12492466 117.64690495 C78.18471263 114.81925667 80.17526712 114.48387725 84.30859375 114.62890625 C87.00496888 116.59120909 88.95847411 118.17842266 89.76647675 121.52583432 C89.95227683 123.86684456 89.97011051 126.15995345 89.93678284 128.50820923 C89.94387722 129.40310165 89.95097161 130.29799407 89.95828098 131.22000444 C89.97588671 134.21953456 89.95774249 137.21777328 89.93969727 140.21728516 C89.9448353 142.3676411 89.9521157 144.51799284 89.96138 146.66833496 C89.97992337 152.51172435 89.96693392 158.35465849 89.94728971 164.19802904 C89.93091364 170.31613738 89.93971525 176.43421663 89.94480896 182.55233765 C89.94933312 192.8336311 89.93344504 203.11474283 89.90551758 213.39599609 C89.87351546 225.26852957 89.87346065 237.14073434 89.89073235 249.013291 C89.90662408 260.44220498 89.89984349 271.87099891 89.88279533 283.29990768 C89.87593733 288.15850409 89.87694467 293.01700391 89.88434029 297.87559891 C89.89202877 303.60650124 89.87979303 309.33703201 89.85249138 315.06787109 C89.84563142 317.1660184 89.84548378 319.26420056 89.85270691 321.36234665 C89.93002688 346.75790975 89.93002688 346.75790975 80.17578125 356.97265625 C73.67830188 362.73611075 67.46627559 363.77588705 59.02685547 363.82177734 C58.19377365 363.82995483 57.36069183 363.83813232 56.50236511 363.84655762 C53.74767768 363.87135023 50.99304167 363.88791434 48.23828125 363.90234375 C47.29459812 363.90766743 46.35091499 363.9129911 45.37863541 363.9184761 C40.38101261 363.9451845 35.38341456 363.96456446 30.38574219 363.97900391 C26.26149229 363.99232602 22.13773915 364.02015018 18.01367188 364.06103516 C13.02285856 364.11050599 8.0324947 364.13514283 3.04144669 364.14223099 C1.14614071 364.14891941 -0.74915618 364.16407824 -2.64432144 364.1881218 C-14.2541874 364.32697912 -22.954152 364.13116456 -32.3125 356.48828125 C-32.91191406 355.7921875 -33.51132812 355.09609375 -34.12890625 354.37890625 C-34.74636719 353.693125 -35.36382812 353.00734375 -36 352.30078125 C-40.93026753 344.51255264 -41.12251874 336.57537475 -41.07235718 327.57263184 C-41.07703715 326.27680601 -41.08171712 324.98098018 -41.08653891 323.6458869 C-41.09900753 320.06921738 -41.09289758 316.49278947 -41.08358026 312.91611934 C-41.07677303 309.05102233 -41.08727927 305.18596593 -41.09552002 301.32087708 C-41.10884173 293.7571171 -41.10598659 286.19344657 -41.0972821 278.62968314 C-41.09049981 272.48103517 -41.08959119 266.33241223 -41.09285355 260.1837616 C-41.09331325 259.30779 -41.09377294 258.4318184 -41.09424657 257.52930221 C-41.09520577 255.74963859 -41.09617842 253.96997498 -41.09716435 252.19031137 C-41.10571367 235.51255445 -41.0958913 218.83484704 -41.07976325 202.15709823 C-41.06636048 187.85487013 -41.06868871 173.55271507 -41.08251953 159.25048828 C-41.09858344 142.63135212 -41.10488974 126.01225932 -41.09568274 109.39311647 C-41.09472712 107.62009462 -41.09378401 105.84707277 -41.09285355 104.0740509 C-41.09239072 103.20174925 -41.09192789 102.32944759 -41.09145104 101.43071255 C-41.08886359 95.29129674 -41.09322688 89.15190849 -41.10029221 83.01249695 C-41.10871641 75.52795494 -41.10640774 68.04350729 -41.09044997 60.55897605 C-41.08257962 56.74214351 -41.07945448 52.92546815 -41.08939743 49.10863686 C-41.10002224 44.96734866 -41.0873137 40.82645543 -41.07235718 36.68518066 C-41.07904934 35.4841047 -41.08574151 34.28302875 -41.09263647 33.04555655 C-41.03196988 24.38666011 -40.12524879 16.5387272 -34.12890625 9.87890625 C-33.22978516 8.83476562 -33.22978516 8.83476562 -32.3125 7.76953125 C-22.23982397 -0.4567377 -12.42166474 -0.09772088 0 0 Z " fill="#000101" transform="translate(405.69140625,148.37109375)"/>
<path d="M0 0 C1.88942971 0.00103965 3.7788616 -0.00000519 5.66828918 -0.00302124 C9.60788716 -0.00284282 13.54665786 0.01780829 17.48608398 0.05419922 C22.51626381 0.09966585 27.54524297 0.10063442 32.57557201 0.08716393 C36.46973708 0.08045912 40.36363205 0.09378996 44.25774574 0.11342239 C46.1119476 0.12107626 47.96617961 0.1234438 49.82039452 0.1202507 C68.3545294 0.11491064 68.3545294 0.11491064 75.33203125 4.7265625 C76.56373047 5.53867188 76.56373047 5.53867188 77.8203125 6.3671875 C83.21261408 11.12442144 87.96306822 17.17040007 88.46083242 24.66616118 C88.46262099 25.40743297 88.46440956 26.14870477 88.46625233 26.91243935 C88.47071017 27.76977751 88.47516801 28.62711568 88.47976094 29.51043379 C88.47957658 30.45272947 88.47939222 31.39502515 88.47920227 32.36587524 C88.48287896 33.36664231 88.48655565 34.36740937 88.49034375 35.39850271 C88.50139836 38.76778948 88.50522746 42.13704544 88.5090332 45.50634766 C88.51529654 47.915803 88.52194322 50.32525738 88.52894592 52.73471069 C88.54818655 59.97716794 88.55877659 67.21962266 88.56767371 74.4620977 C88.57205789 77.87390646 88.57742442 81.28571367 88.58266258 84.69752121 C88.59967544 96.04164368 88.61416871 107.38576518 88.62141132 118.72989845 C88.62332118 121.6736107 88.62524152 124.61732294 88.62719727 127.56103516 C88.62768101 128.29266909 88.62816475 129.02430303 88.62866315 129.77810769 C88.63696004 141.62502827 88.66229089 153.47184777 88.69477794 165.31872423 C88.72787032 177.48570821 88.7458621 189.65264087 88.74905556 201.81967008 C88.7512188 208.64934072 88.75993979 215.47886402 88.78551674 222.30849075 C88.8095296 228.73528483 88.8130357 235.16188587 88.80275536 241.58871841 C88.80225956 243.94573345 88.80859275 246.30276147 88.8223114 248.65973663 C88.84001433 251.88192434 88.83293118 255.10315929 88.81977844 258.3253479 C88.83074769 259.25425925 88.84171693 260.1831706 88.85301858 261.14023077 C88.76555583 270.03833055 85.67852765 277.41755844 79.42308044 283.79542542 C70.19312108 292.31952751 59.42769171 291.44819727 47.640625 291.35546875 C45.72591517 291.35629877 43.81120543 291.35876315 41.89649963 291.36277771 C37.89798345 291.36562525 33.90003066 291.35103554 29.90161133 291.32348633 C24.79517744 291.28938235 19.68974848 291.29543953 14.58326626 291.3141489 C10.63421864 291.32475304 6.68540199 291.31575051 2.73637581 291.30076408 C0.85425567 291.29560841 -1.02788884 291.29603205 -2.91000557 291.30230904 C-14.96407508 291.32742858 -24.75348052 291.10654825 -34.09765625 282.56640625 C-40.85499585 274.64922478 -41.81786679 266.03897172 -41.80841064 256.08125305 C-41.81286733 254.6153495 -41.81286733 254.6153495 -41.81741405 253.11983174 C-41.82609226 249.84200482 -41.82760856 246.56421446 -41.82910156 243.28637695 C-41.83373037 240.93736188 -41.83875511 238.58834755 -41.84414673 236.23933411 C-41.85726698 229.85486512 -41.863715 223.47040665 -41.86815739 217.08592629 C-41.8710888 213.09657605 -41.87519375 209.10722867 -41.87966156 205.11787987 C-41.89185207 194.06448297 -41.90215162 183.01108799 -41.90553665 171.95768452 C-41.90575622 171.25064904 -41.90597578 170.54361357 -41.906202 169.81515278 C-41.90642028 169.10646035 -41.90663856 168.39776793 -41.90686345 167.66759998 C-41.90730691 166.23160636 -41.90775347 164.79561275 -41.90820312 163.35961914 C-41.90842455 162.64732221 -41.90864598 161.93502527 -41.90887412 161.20114359 C-41.91282017 149.66543817 -41.93026926 138.129796 -41.95356265 126.594115 C-41.97730491 114.74007582 -41.98973982 102.88606834 -41.99090457 91.03200501 C-41.99181975 84.38065829 -41.99785296 77.72938438 -42.01572418 71.07805824 C-42.03221292 64.8194977 -42.03435633 58.56109337 -42.02558517 52.30251884 C-42.02481523 50.00881659 -42.02915187 47.71510592 -42.03904343 45.42142487 C-42.05178123 42.28302827 -42.04587583 39.14518341 -42.03546143 36.00679016 C-42.04351783 35.10550158 -42.05157423 34.20421301 -42.05987477 33.27561265 C-41.99013527 24.25009183 -39.99851195 15.80144441 -33.91731262 8.92684937 C-24.23658137 -0.54275023 -12.6046295 -0.13799479 0 0 Z M-23.80890369 21.76279163 C-26.46027989 25.98968595 -26.22348119 29.53311737 -26.17590332 34.43002319 C-26.18214328 35.41349248 -26.18838325 36.39696176 -26.1948123 37.41023314 C-26.21078021 40.709116 -26.19812271 44.00726386 -26.18554688 47.30615234 C-26.19096635 49.66989066 -26.19808803 52.0336256 -26.20678711 54.39735413 C-26.2250459 60.82096091 -26.21794167 67.24431114 -26.20527077 73.6679225 C-26.19816273 77.68003919 -26.19949959 81.69212301 -26.20323181 85.70424271 C-26.20384474 86.37040626 -26.20445768 87.0365698 -26.20508918 87.72292013 C-26.2063681 89.07626936 -26.20766495 90.42961857 -26.20897955 91.78296776 C-26.22038593 104.47384653 -26.20727169 117.16460973 -26.18577808 129.85546954 C-26.16791523 140.73931627 -26.17100431 151.6229923 -26.18945312 162.50683594 C-26.21087304 175.14937005 -26.21927863 187.79180279 -26.20700407 200.43435252 C-26.2057299 201.78331858 -26.20447241 203.13228467 -26.20323181 204.48125076 C-26.20261471 205.14494141 -26.20199761 205.80863206 -26.20136181 206.49243455 C-26.19791164 211.16400708 -26.20392602 215.83549582 -26.21315002 220.507061 C-26.22470568 226.7993356 -26.2166874 233.09128797 -26.193573 239.38352776 C-26.18828402 241.69299344 -26.18980287 244.00248625 -26.19862366 246.31194115 C-26.209555 249.46470497 -26.19584345 252.61643646 -26.17590332 255.76913452 C-26.18482621 256.68305257 -26.19374909 257.59697062 -26.20294237 258.53858316 C-26.13061366 264.43494421 -25.07845185 267.8811737 -21.66796875 272.7265625 C-17.70453297 276.07792264 -13.84662649 276.16181584 -8.85180664 276.13061523 C-8.08042862 276.13747849 -7.3090506 276.14434174 -6.51429749 276.15141296 C-3.9728843 276.16966425 -1.43208945 276.16584593 1.109375 276.16015625 C2.88147685 276.16471894 4.65357693 276.17002477 6.42567444 276.17604065 C10.13696488 276.18496851 13.84804009 276.18255244 17.55932617 276.17260742 C22.30856109 276.16111939 27.05705231 276.18132809 31.80618954 276.21052456 C35.46514075 276.22889643 39.12391408 276.22859212 42.78289986 276.22288704 C44.53354498 276.22273394 46.28420224 276.22876903 48.03480339 276.24117851 C50.485831 276.2561054 52.93548901 276.24540008 55.38647461 276.22827148 C56.10510681 276.23793945 56.82373901 276.24760742 57.56414795 276.25756836 C62.63065461 276.18366138 65.49058399 274.99632819 69.33203125 271.7265625 C73.73634063 266.51127779 73.90372352 262.45253999 73.83996582 255.93408203 C73.84932576 254.46266345 73.84932576 254.46266345 73.8588748 252.96151924 C73.87481911 249.67722607 73.8621945 246.39367357 73.84960938 243.109375 C73.85502983 240.75371874 73.86215205 238.39806587 73.87084961 236.04241943 C73.88909477 229.64579721 73.8820103 223.24943286 73.86933327 216.85280609 C73.85863 210.83933899 73.86717778 204.8258763 73.87304205 198.81240773 C73.88444405 186.17639732 73.87134015 173.54050305 73.84984058 160.90451169 C73.8319699 150.06584026 73.83507412 139.22734021 73.85351562 128.38867188 C73.8749291 115.79741279 73.88334545 103.20625545 73.87106657 90.6149807 C73.86474471 83.95147342 73.8640066 77.28806881 73.87721252 70.62457275 C73.88876008 64.36019378 73.88076481 58.09613869 73.8576355 51.83179474 C73.85234262 49.53158354 73.85387201 47.23134512 73.86268616 44.93114471 C73.87360189 41.79340842 73.85992507 38.65671279 73.83996582 35.51904297 C73.85335015 34.15065623 73.85335015 34.15065623 73.86700487 32.75462532 C73.79898249 27.24904512 72.99788676 24.09877258 69.33203125 19.7265625 C64.83095979 15.77107546 60.70308887 15.57146389 54.92651367 15.54956055 C54.17493484 15.54298935 53.42335602 15.53641815 52.64900208 15.52964783 C50.16183368 15.50993782 47.67472559 15.49825763 45.1875 15.48828125 C44.33720026 15.48420572 43.48690052 15.4801302 42.61083412 15.47593117 C38.11059437 15.45508062 33.61038502 15.44077429 29.11010742 15.43139648 C24.46625361 15.42033171 19.82287891 15.38592835 15.17919445 15.34622478 C11.6043459 15.3200595 8.02961156 15.31170476 4.45467567 15.30811501 C2.74308345 15.30324912 1.03149632 15.29163502 -0.68000221 15.27307701 C-3.07847537 15.24868573 -5.47570794 15.24965 -7.87426758 15.2565918 C-8.57734039 15.24378174 -9.28041321 15.23097168 -10.00479126 15.21777344 C-16.16591089 15.28257292 -19.4653056 17.63162407 -23.80890369 21.76279163 Z " fill="#010000" transform="translate(251.66796875,221.2734375)"/>
<path d="M0 0 C1.47159396 4.65038856 0.42051881 7.12402565 -1.61328125 11.4609375 C-1.89873306 12.08045792 -2.18418488 12.69997833 -2.47828674 13.33827209 C-3.41097915 15.35635928 -4.36174142 17.36537032 -5.3125 19.375 C-6.28172097 21.46197886 -7.2461763 23.5511202 -8.21063232 25.64030457 C-8.86042667 27.04666034 -9.51184113 28.45226866 -10.16485596 29.85713196 C-13.17498522 36.33865048 -16.04554602 42.87493617 -18.875 49.4375 C-19.5078894 50.90098877 -19.5078894 50.90098877 -20.15356445 52.39404297 C-21.10446804 54.59513772 -22.05345038 56.79703031 -23 59 C-26.18921627 55.9305154 -28.86998467 52.89143692 -31.375 49.25 C-33.67129703 46.31803276 -34.83034139 45.08156664 -38.25 43.4375 C-43.74436152 44.26165423 -46.9528149 47.1802168 -51.22558594 50.60595703 C-53.92744399 52.72863307 -56.71039818 54.73659183 -59.48730469 56.75952148 C-67.2345426 62.40676679 -74.88598433 68.17482358 -82.5 74 C-89.4378377 79.30695935 -96.40760891 84.56545532 -103.4375 89.75 C-104.59958984 90.60851562 -104.59958984 90.60851562 -105.78515625 91.484375 C-107.21471311 92.53507403 -108.64915298 93.57917548 -110.08935547 94.61523438 C-111.7821425 95.84210481 -113.44259111 97.11332378 -115.09765625 98.390625 C-118.78870775 100.43734535 -120.83680197 100.6744846 -125 100 C-127.30238006 98.35714042 -129.00410296 96.92992468 -130.9375 94.9375 C-131.99031169 93.91347232 -133.04369646 92.89003349 -134.09765625 91.8671875 C-134.5992627 91.36928711 -135.10086914 90.87138672 -135.61767578 90.35839844 C-137.31396212 88.69147205 -139.0760767 87.11769821 -140.875 85.5625 C-141.48214844 85.03527344 -142.08929688 84.50804688 -142.71484375 83.96484375 C-146.58535821 80.63686294 -150.46049225 77.31425399 -154.34130859 73.99829102 C-158.89600949 70.10399051 -158.89600949 70.10399051 -160 69 C-164.86971514 68.43585814 -167.79763183 68.4574782 -171.83203125 71.3515625 C-173.17370403 72.42439633 -174.49983262 73.51686525 -175.8125 74.625 C-177.31223009 75.83138394 -178.81359165 77.03574192 -180.31640625 78.23828125 C-181.08742676 78.86299316 -181.85844727 79.48770508 -182.65283203 80.13134766 C-186.43367343 83.14139135 -190.34192946 85.97093324 -194.25 88.8125 C-201.05980482 93.79848695 -207.79807381 98.87003167 -214.5 104 C-221.88057347 109.6491023 -229.3198012 115.20649722 -236.81835938 120.69775391 C-242.9331388 125.18677848 -248.97473782 129.76669341 -255 134.375 C-260.98049496 138.94806726 -266.96778118 143.49691907 -273.08203125 147.890625 C-276.34323942 150.24812488 -279.57976334 152.63747464 -282.81494141 155.03051758 C-285.29015561 156.85849835 -287.77178974 158.67750114 -290.25390625 160.49609375 C-293.22989671 162.68032341 -296.17381361 164.89661396 -299.08984375 167.16015625 C-299.71270264 167.63275879 -300.33556152 168.10536133 -300.97729492 168.59228516 C-302.12112684 169.46028045 -303.25387319 170.34317668 -304.37231445 171.24365234 C-307.14221266 173.31485715 -308.89332823 173.99529753 -312.3671875 174.1484375 C-317.26559979 172.59990716 -320.46733014 169.94883036 -324.375 166.6875 C-325.95733707 165.41510525 -327.54203301 164.14563919 -329.12890625 162.87890625 C-329.93215332 162.23453613 -330.73540039 161.59016602 -331.56298828 160.92626953 C-335.40602161 157.88864852 -339.3359205 154.98466569 -343.3125 152.125 C-344.01101074 151.60768311 -344.70952148 151.09036621 -345.42919922 150.55737305 C-346.08807129 150.08726807 -346.74694336 149.61716309 -347.42578125 149.1328125 C-347.99723877 148.71918457 -348.56869629 148.30555664 -349.1574707 147.87939453 C-351.64437393 146.69245596 -353.27000567 146.656368 -356 147 C-358.27503746 148.21856716 -358.27503746 148.21856716 -360.4140625 150.0078125 C-361.24744141 150.6575 -362.08082031 151.3071875 -362.93945312 151.9765625 C-363.82568359 152.68554688 -364.71191406 153.39453125 -365.625 154.125 C-367.52234782 155.60816587 -369.4208073 157.08991062 -371.3203125 158.5703125 C-372.27454102 159.31829102 -373.22876953 160.06626953 -374.21191406 160.83691406 C-378.25086334 163.97045965 -382.36915854 166.98926808 -386.5 170 C-393.2508194 174.94022772 -399.92298532 179.97378105 -406.5625 185.0625 C-413.76907318 190.58370756 -421.04433964 195.98457621 -428.44213867 201.24682617 C-432.28476925 203.99217847 -436.05334772 206.80060136 -439.7578125 209.73046875 C-440.5322168 210.33995361 -441.30662109 210.94943848 -442.10449219 211.57739258 C-443.58530581 212.74978298 -445.05779824 213.93278432 -446.52050781 215.12768555 C-447.18147461 215.65015869 -447.84244141 216.17263184 -448.5234375 216.7109375 C-449.10013184 217.17806152 -449.67682617 217.64518555 -450.27099609 218.12646484 C-452 219 -452 219 -454.0949707 218.76342773 C-456.81992468 217.67142067 -458.02396339 215.98812289 -459.8125 213.6875 C-460.75029297 212.51767578 -460.75029297 212.51767578 -461.70703125 211.32421875 C-463 209 -463 209 -463.03515625 206.98046875 C-461.48456348 204.01386296 -459.31222529 202.60826703 -456.625 200.625 C-456.05265625 200.19783691 -455.4803125 199.77067383 -454.890625 199.33056641 C-452.93513526 197.87580993 -450.96828158 196.43739411 -449 195 C-447.54907023 193.93284745 -446.09856348 192.86511955 -444.6484375 191.796875 C-442.29186034 190.06148133 -439.93461974 188.32704745 -437.57470703 186.59619141 C-431.49752024 182.13129507 -425.48791448 177.58373749 -419.5 173 C-412.11817974 167.3499017 -404.67868219 161.79011605 -397.17724609 156.30004883 C-392.02421179 152.51882856 -386.92761768 148.67066202 -381.85595703 144.78100586 C-378.35948996 142.10067284 -374.85180186 139.43538385 -371.33984375 136.77539062 C-369.86497366 135.6563114 -368.39317213 134.53316538 -366.92578125 133.40429688 C-365.17294169 132.06165791 -363.40369242 130.74558116 -361.625 129.4375 C-360.68914062 128.73496094 -359.75328125 128.03242188 -358.7890625 127.30859375 C-355.0514412 125.5549479 -352.95097508 125.95178212 -349 127 C-346.578125 128.35546875 -346.578125 128.35546875 -344.25 130.1875 C-343.32574219 130.89648438 -342.40148437 131.60546875 -341.44921875 132.3359375 C-340.92118652 132.74682617 -340.3931543 133.15771484 -339.84912109 133.58105469 C-335.97000843 136.55773845 -332.00530577 139.42108422 -328.0625 142.3125 C-326.42787453 143.51623362 -324.79373367 144.7206257 -323.16015625 145.92578125 C-322.45511963 146.44567627 -321.75008301 146.96557129 -321.02368164 147.5012207 C-319.64146871 148.52491538 -318.28158686 149.57928294 -316.94262695 150.65893555 C-313.81695117 152.81670067 -311.71297966 152.52491189 -308 152 C-305.03629683 150.49164621 -302.49590694 148.53567584 -299.875 146.5 C-299.10148193 145.92048584 -298.32796387 145.34097168 -297.53100586 144.74389648 C-295.0073464 142.84618307 -292.50315328 140.92465945 -290 139 C-288.27544515 137.68787422 -286.55017871 136.3766832 -284.82421875 135.06640625 C-282.17638662 133.05352101 -279.53064972 131.03810454 -276.89013672 129.015625 C-271.13992924 124.61165867 -265.34383396 120.27879421 -259.5 116 C-252.77494119 111.07447611 -246.11946776 106.06651345 -239.5 101 C-232.11731654 95.34932439 -224.67640427 89.78976064 -217.17504883 84.29785156 C-211.12220442 79.85518864 -205.14753129 75.31620047 -199.1875 70.75 C-192.69884824 65.78059897 -186.18396487 60.87094743 -179.48681641 56.18505859 C-176.40384424 54.02744733 -173.46933889 51.76236578 -170.5625 49.375 C-168.06002699 47.53385707 -166.74144595 46.93296747 -163.625 46.125 C-155.13225283 48.17497346 -148.80187847 56.02679812 -142.55224609 61.84301758 C-138.27901544 65.80530485 -133.83150265 69.48702285 -129.27734375 73.125 C-127 75 -127 75 -125.62890625 76.75 C-123.91399042 78.26432914 -123.91399042 78.26432914 -120.8515625 78.5625 C-115.51048801 77.78246478 -112.54159449 75.29400696 -108.375 72 C-107.55813721 71.37641602 -106.74127441 70.75283203 -105.8996582 70.11035156 C-104.15593055 68.77672802 -102.41786954 67.4356681 -100.68505859 66.08789062 C-97.10062405 63.30064892 -93.48882352 60.55004613 -89.87670898 57.79882812 C-88.08678519 56.43513857 -86.29852839 55.06925817 -84.51196289 53.70117188 C-78.96465925 49.46024399 -73.3506266 45.34166648 -67.640625 41.32348633 C-59.46844388 35.59487101 -59.46844388 35.59487101 -52 29 C-51.53029997 24.67128725 -51.68092313 22.52483081 -53.96875 18.76171875 C-55.22171875 17.23998047 -55.22171875 17.23998047 -56.5 15.6875 C-61 10.19425676 -61 10.19425676 -61 8 C-53.08640179 5.68281569 -44.9767252 4.92818548 -36.8125 4 C-33.94363848 3.66980845 -31.07519161 3.3362261 -28.20703125 3 C-27.51104324 2.91885956 -26.81505524 2.83771912 -26.09797668 2.75411987 C-20.59996558 2.10089963 -15.13672753 1.28257755 -9.67382812 0.37939453 C-6.39077606 -0.08644394 -3.30716066 -0.15382143 0 0 Z " fill="#56B489" transform="translate(489,15)"/>
<path d="M0 0 C1.22014297 -0.0098568 1.22014297 -0.0098568 2.4649353 -0.01991272 C5.16013688 -0.03963955 7.85528261 -0.05130988 10.55053711 -0.0612793 C11.47307219 -0.06535482 12.39560726 -0.06943035 13.34609795 -0.07362938 C18.23349661 -0.09449223 23.12086722 -0.10879034 28.00830078 -0.11816406 C33.03961213 -0.1292003 38.07047777 -0.1635673 43.10163212 -0.20333576 C46.98374715 -0.22957818 50.8657575 -0.23786288 54.74795341 -0.24144554 C56.60137361 -0.24629554 58.45478963 -0.25786392 60.30812263 -0.27648354 C80.43360959 -0.46603005 80.43360959 -0.46603005 89.60131836 6.0012207 C97.94239129 14.68832068 100.12547089 23.12354514 100.15582275 35.08818054 C100.15879388 35.74723021 100.161765 36.40627988 100.16482615 37.08530074 C100.17343679 39.27432829 100.17501487 41.46330067 100.17651367 43.65234375 C100.18114727 45.22994603 100.18617266 46.8075472 100.19155884 48.38514709 C100.20463283 52.6581289 100.21111802 56.93109503 100.2155695 61.20409369 C100.21850839 63.87851974 100.22261471 66.55294158 100.22707367 69.22736549 C100.24073558 77.60909303 100.25040856 85.99081086 100.25427556 94.37254876 C100.25875289 104.02191673 100.27629116 113.67114281 100.30527616 123.32046765 C100.326948 130.79674588 100.33698277 138.27298434 100.33831668 145.74929363 C100.33936079 150.20640425 100.34518425 154.66338127 100.36313629 159.1204586 C100.37971243 163.31728609 100.38172661 167.51388088 100.37299728 171.7107296 C100.37223198 173.24246854 100.37650196 174.77422049 100.38645554 176.30592728 C100.45950347 188.25726099 100.14031562 199.78745078 92.05444336 209.2668457 C85.50540271 215.40186654 78.61594997 217.32240963 69.84716797 217.36987305 C69.01423218 217.37805054 68.18129639 217.38622803 67.32312012 217.39465332 C64.56299553 217.41948859 61.80292248 217.43602253 59.04272461 217.45043945 C57.62582431 217.45842497 57.62582431 217.45842497 56.18029976 217.46657181 C51.17619768 217.49330094 46.17212048 217.51267276 41.16796875 217.52709961 C37.03688292 217.54041469 32.90629387 217.56822273 28.77539062 217.60913086 C23.77924632 217.65860412 18.7835511 217.68323924 13.78717232 217.69032669 C11.88907534 217.69701613 9.99098746 217.71217766 8.09303093 217.7362175 C-4.172956 217.88266068 -13.32596102 217.49639305 -22.85961914 208.92700195 C-29.152756 202.05335922 -30.59528079 194.67017181 -30.51586914 185.5949707 C-30.51969604 184.6183699 -30.52352295 183.6417691 -30.52746582 182.63557434 C-30.53017037 180.58760537 -30.52291212 178.53960099 -30.50610352 176.49169922 C-30.48455678 173.35542515 -30.50601445 170.22141153 -30.53149414 167.08520508 C-30.52885287 165.08845524 -30.52373206 163.09170681 -30.51586914 161.0949707 C-30.52396606 160.15952927 -30.53206299 159.22408783 -30.54040527 158.26029968 C-30.44728888 151.82355483 -30.44728888 151.82355483 -28.13500977 148.59228516 C-25.13559397 146.61821461 -23.50784247 146.5298793 -19.98461914 147.17700195 C-17.29747366 149.17105706 -15.30706838 150.76367113 -14.53829956 154.13327026 C-14.37620934 156.50352985 -14.37106556 158.82901634 -14.41821289 161.2043457 C-14.41257828 162.07088272 -14.40694366 162.93741974 -14.40113831 163.83021545 C-14.38471264 166.5921977 -14.40020483 169.35257587 -14.42211914 172.11450195 C-14.438745 174.87270841 -14.44776167 177.62985338 -14.43238831 180.38807678 C-14.4231515 182.1010015 -14.4321286 183.81415143 -14.46202087 185.52684021 C-14.43759737 190.87682498 -13.63625637 193.99874255 -9.98461914 198.17700195 C-5.85930189 201.30941285 -2.27694742 201.60322612 2.73974609 201.54931641 C3.50137054 201.55296707 4.262995 201.55661774 5.04769897 201.56037903 C7.55668682 201.56846189 10.06502414 201.5548923 12.57397461 201.5402832 C14.32365417 201.53976427 16.07333432 201.54028326 17.82301331 201.54179382 C21.48724083 201.5417042 25.15124791 201.53129553 28.81542969 201.51318359 C33.50394423 201.49051363 38.19213633 201.48995038 42.88069057 201.49670124 C46.49329983 201.50004889 50.10583608 201.49339585 53.71843147 201.48357201 C55.4467334 201.47973219 57.17504346 201.47856672 58.90334892 201.48015785 C61.32292924 201.48053025 63.7421022 201.46785923 66.16162109 201.45166016 C66.87090256 201.45413757 67.58018402 201.45661499 68.31095886 201.45916748 C72.57025812 201.41384002 76.09012737 200.85521164 80.01538086 199.17700195 C81.39166025 197.25936021 81.39166025 197.25936021 82.01538086 195.17700195 C82.34538086 194.51700195 82.67538086 193.85700195 83.01538086 193.17700195 C83.11844704 190.98618828 83.15492717 188.79216143 83.16255188 186.59893799 C83.16622857 185.91542574 83.16990526 185.23191349 83.17369336 184.52768874 C83.18474909 182.22621533 83.18857723 179.92478704 83.19238281 177.62329102 C83.19864607 175.97757829 83.20529274 174.33186698 83.21229553 172.68615723 C83.22971869 168.20668174 83.24026099 163.72721694 83.24850106 159.24771595 C83.25364871 156.44990922 83.25972457 153.65210583 83.26601219 150.85430145 C83.28506843 142.10308805 83.29929832 133.3518831 83.30762416 124.60065293 C83.31739748 114.49438357 83.34371762 104.38833317 83.38412505 94.28214097 C83.41427418 86.47400165 83.42909191 78.66592513 83.43240517 70.85772872 C83.43475715 66.19277602 83.44373653 61.52805714 83.46886635 56.86316681 C83.49213093 52.47349834 83.49638688 48.0842179 83.48610497 43.69450378 C83.48560909 42.08445191 83.49194482 40.47438104 83.50566101 38.86438751 C83.52336047 36.66346043 83.51628497 34.46392878 83.50312805 32.26300049 C83.50551641 31.03223911 83.50790476 29.80147774 83.51036549 28.53342056 C82.78393144 23.60757719 80.57319327 20.44796342 76.74815369 17.32725525 C73.23298532 15.84768331 70.04107276 15.74921619 66.29101562 15.77294922 C65.52939117 15.76608597 64.76776672 15.75922272 63.98306274 15.75215149 C61.47411269 15.73390217 58.96578908 15.73771823 56.45678711 15.7434082 C54.70710548 15.73884542 52.95742565 15.73353955 51.20774841 15.7275238 C47.54353548 15.71859633 43.87954055 15.72101156 40.21533203 15.73095703 C35.52662764 15.74244497 30.83867658 15.72223637 26.15007114 15.69303989 C22.53744246 15.6746669 18.92499393 15.67497255 15.31233025 15.68067741 C13.58401368 15.6808305 11.85568481 15.67479651 10.1274128 15.66238594 C7.7075123 15.64745688 5.28899862 15.65816584 2.86914062 15.67529297 C2.15985916 15.665625 1.4505777 15.65595703 0.71980286 15.64599609 C-4.30254835 15.72018491 -7.16813748 16.94856171 -10.98461914 20.17700195 C-14.88148782 24.6537983 -14.39986285 29.49919223 -14.35351562 35.13623047 C-14.3572821 36.1351532 -14.36104858 37.13407593 -14.3649292 38.16326904 C-14.3713567 40.32836024 -14.37103631 42.49347965 -14.36474419 44.65857124 C-14.35563884 48.08376582 -14.36585103 51.50841247 -14.38136292 54.93357849 C-14.4214844 64.67022858 -14.42266083 74.4068357 -14.42041016 84.14355469 C-14.42035914 90.10164196 -14.43948288 96.05943279 -14.46974373 102.01743889 C-14.48059594 105.39451371 -14.46842356 108.77102946 -14.45591736 112.14808655 C-14.46481868 114.21445271 -14.47489198 116.28081428 -14.48632812 118.34716797 C-14.47658463 119.28805771 -14.46684113 120.22894745 -14.45680237 121.198349 C-14.52707894 127.54504016 -14.52707894 127.54504016 -16.83216858 130.72886658 C-19.68009531 132.64490754 -21.54397075 133.17700195 -24.98461914 133.17700195 C-27.63658142 131.81034851 -27.63658142 131.81034851 -29.98461914 129.17700195 C-30.74080711 125.80747401 -30.65711529 122.48455396 -30.61572266 119.04345703 C-30.62287796 118.01369751 -30.63003326 116.98393799 -30.6374054 115.92297363 C-30.65433292 112.51371069 -30.63485812 109.10575573 -30.61352539 105.6965332 C-30.61435403 103.32484325 -30.6168132 100.95315336 -30.62083435 98.58146667 C-30.62369556 93.60556796 -30.60896451 88.63011853 -30.58154297 83.65429688 C-30.54755318 77.2899873 -30.55344485 70.92648616 -30.57220554 64.56213856 C-30.58280199 59.66089708 -30.57381199 54.75984197 -30.55882072 49.85861778 C-30.55365164 47.51317588 -30.55410519 45.1677144 -30.56036568 42.82227516 C-30.56584585 39.53360198 -30.54534816 36.24606332 -30.51806641 32.95751953 C-30.52459229 31.99563217 -30.53111816 31.03374481 -30.5378418 30.04270935 C-30.40718549 20.73048775 -27.21777709 13.71481508 -20.92211914 6.90356445 C-14.79742915 1.44567539 -7.9897346 0.02796195 0 0 Z " fill="#000000" transform="translate(85.984619140625,294.822998046875)"/>
<path d="M0 0 C1.15623619 -0.00021904 1.15623619 -0.00021904 2.33583069 -0.0004425 C4.88976838 0.0002555 7.4436336 0.00804264 9.99755859 0.01586914 C11.76589925 0.01773372 13.53424043 0.01915743 15.30258179 0.02015686 C19.96164369 0.02397889 24.62067452 0.03380651 29.27972412 0.04486084 C34.03201884 0.0550817 38.78431856 0.05965593 43.53662109 0.06469727 C52.86475976 0.07542905 62.19287535 0.09250172 71.52099609 0.11352539 C71.52099609 0.44352539 71.52099609 0.77352539 71.52099609 1.11352539 C51.06099609 1.44352539 30.60099609 1.77352539 9.52099609 2.11352539 C6.54376209 7.92611715 6.54376209 7.92611715 6.14347267 13.78575897 C6.13564943 14.89824147 6.12782619 16.01072396 6.11976588 17.15691805 C6.12645804 18.36877889 6.13315021 19.58063973 6.14004517 20.82922363 C6.13536519 22.12460289 6.13068522 23.41998214 6.12586343 24.75461531 C6.11334791 28.34385396 6.11952623 31.9328531 6.12882209 35.52209258 C6.13561001 39.39536516 6.12513263 43.26859656 6.11688232 47.14186096 C6.10354004 54.72708347 6.10642493 62.31221694 6.11512025 69.89744294 C6.12189444 76.06192069 6.12281466 82.22637348 6.1195488 88.39085388 C6.1190891 89.26809812 6.1186294 90.14534235 6.11815577 91.04916975 C6.1171966 92.83125517 6.11622396 94.61334057 6.115238 96.39542598 C6.10668265 113.10741498 6.1165205 129.81935462 6.1326391 146.53133553 C6.14604241 160.87207068 6.14371436 175.21273297 6.12988281 189.5534668 C6.11382955 206.20551328 6.10750664 222.8575165 6.1167196 239.50956964 C6.11767525 241.28511206 6.11861837 243.06065447 6.1195488 244.8361969 C6.12001162 245.70980566 6.12047445 246.58341441 6.1209513 247.48349616 C6.12354195 253.64081769 6.11916858 259.79811179 6.11211014 265.95542908 C6.10369776 273.45879441 6.10596974 280.96206559 6.12195237 288.46542013 C6.12983864 292.29401162 6.13292068 296.12244611 6.12300491 299.95103645 C6.11242163 304.10010349 6.12505538 308.2487738 6.14004517 312.39782715 C6.133353 313.60968799 6.12666084 314.82154883 6.11976588 316.07013273 C6.16070023 321.89108913 6.31468244 326.05213764 9.52099609 331.11352539 C9.52099609 331.77352539 9.52099609 332.43352539 9.52099609 333.11352539 C6.81157217 333.22214372 4.10655709 333.30111116 1.39599609 333.36352539 C0.63544922 333.39704102 -0.12509766 333.43055664 -0.90869141 333.46508789 C-6.24515759 333.55709593 -9.39975757 332.87352636 -13.47900391 329.11352539 C-17.85956819 322.22205426 -18.0457255 316.46369943 -17.98020935 308.42306519 C-17.98574375 307.15456195 -17.99127814 305.88605871 -17.99698025 304.57911599 C-18.01168939 301.07413125 -18.0015812 297.56959785 -17.98724353 294.06462789 C-17.9761118 290.27863852 -17.9880835 286.49271133 -17.99708557 282.70672607 C-18.01100429 275.2968752 -18.00347239 267.88719497 -17.98840999 260.47735225 C-17.97153549 251.84711219 -17.97476189 243.21691448 -17.97850407 234.58666302 C-17.98437996 219.1888444 -17.97022076 203.79110761 -17.94555664 188.39331055 C-17.92162831 173.45317519 -17.91455597 158.51314912 -17.92504883 143.57299805 C-17.93645758 127.29961825 -17.93838927 111.02628897 -17.92395073 94.75290978 C-17.9224249 93.01784079 -17.92090455 91.28277179 -17.91938972 89.54770279 C-17.91863191 88.69403278 -17.9178741 87.84036277 -17.91709332 86.96082398 C-17.91235082 80.94524825 -17.91420163 74.9296951 -17.91845512 68.91411972 C-17.92338118 61.58463508 -17.9173999 54.25525377 -17.89756083 46.9257928 C-17.88768828 43.1863022 -17.8825833 39.44696894 -17.89045334 35.70746994 C-17.89880794 31.65483681 -17.88393206 27.60262325 -17.86668396 23.55001831 C-17.87269401 22.36675835 -17.87870405 21.18349838 -17.88489622 19.96438205 C-17.80696923 9.92922378 -17.80696923 9.92922378 -14.47900391 5.11352539 C-9.52740326 0.64500773 -6.49625916 -0.03192792 0 0 Z " fill="#4BB4C8" transform="translate(397.47900390625,163.886474609375)"/>
<path d="M0 0 C0.76136261 -0.00029205 1.52272522 -0.00058411 2.30715942 -0.00088501 C4.81784555 0.00050572 7.32823305 0.01605474 9.83886719 0.03173828 C11.58192788 0.03546933 13.32499066 0.03831587 15.0680542 0.04031372 C19.65150767 0.04794298 24.234834 0.06758542 28.8182373 0.08972168 C33.49697144 0.11019532 38.17572615 0.11931869 42.85449219 0.12939453 C52.03163132 0.15083196 61.20867617 0.1849594 70.38574219 0.22705078 C70.38574219 0.55705078 70.38574219 0.88705078 70.38574219 1.22705078 C49.92574219 1.55705078 29.46574219 1.88705078 8.38574219 2.22705078 C5.6191982 8.14488024 5.6191982 8.14488024 5.00542545 13.84264946 C4.99698551 14.69401824 4.98854557 15.54538702 4.97984987 16.42255485 C4.98585992 17.33763537 4.99186997 18.25271589 4.99806213 19.19552612 C4.9926766 20.18337668 4.98729106 21.17122723 4.98174232 22.18901265 C4.96746399 25.49071942 4.97456634 28.79202521 4.98168945 32.09375 C4.97598581 34.46438926 4.96902158 36.83502578 4.96089172 39.20565796 C4.94294402 45.63956643 4.94413187 52.07333863 4.94983411 58.50726461 C4.95289727 62.52778045 4.94993613 66.54827684 4.94535637 70.56879044 C4.94423374 71.57092616 4.94423374 71.57092616 4.94308842 72.59330706 C4.94155689 73.95067874 4.94001855 75.30805042 4.93847346 76.6654221 C4.92475468 89.38639071 4.93018153 102.10729777 4.94165867 114.82826497 C4.95158858 126.4550822 4.93865352 138.08174024 4.91472448 149.70853291 C4.890316 161.65869567 4.88073 173.60878434 4.8873772 185.55897152 C4.89086579 192.26337467 4.88832522 198.96763745 4.87112617 205.67202377 C4.85565675 211.97744979 4.85961302 218.28257198 4.87843132 224.58798599 C4.88211724 226.89984326 4.87900871 229.21172304 4.86854553 231.52355957 C4.85533459 234.6842586 4.86688503 237.843952 4.88453674 241.00460815 C4.87493174 241.91522723 4.86532673 242.82584631 4.85543066 243.7640599 C4.92734929 250.04106642 6.43946318 254.6966585 9.38574219 260.22705078 C6.50971764 260.33558001 3.63783387 260.41460228 0.76074219 260.47705078 C-0.0475 260.51056641 -0.85574219 260.54408203 -1.68847656 260.57861328 C-7.15163817 260.66744518 -10.4007882 260.04827548 -14.61425781 256.22705078 C-18.0122849 250.96983552 -18.04609508 246.45263597 -18.01539612 240.40333557 C-18.02219279 239.41901186 -18.02898946 238.43468816 -18.03599209 237.42053646 C-18.05497041 234.1248952 -18.05252681 230.82962538 -18.05004883 227.53393555 C-18.05902583 225.17004925 -18.06923393 222.80616736 -18.08058167 220.44229126 C-18.10708891 214.02293628 -18.11411537 207.60370126 -18.11602902 201.18429685 C-18.11751199 197.17435448 -18.12437199 193.16442709 -18.13252068 189.15449333 C-18.15892833 175.88904211 -18.17278037 162.6236636 -18.17052925 149.35818589 C-18.17040939 148.64355144 -18.17028952 147.92891699 -18.17016602 147.19262695 C-18.17004337 146.47711798 -18.16992073 145.761609 -18.16979437 145.02441793 C-18.16857467 133.42522112 -18.19729408 121.82631631 -18.23958112 110.22720397 C-18.28268085 98.31097863 -18.30339131 86.3948957 -18.30079979 74.47859043 C-18.29980428 67.79091699 -18.3086112 61.10359578 -18.34033394 54.41598701 C-18.36934847 48.12771379 -18.36963511 41.84008801 -18.34778404 35.55179214 C-18.34464308 33.24392312 -18.35175575 30.93601399 -18.36986542 28.62821388 C-18.39299009 25.47729522 -18.3791216 22.32861929 -18.35597229 19.17774963 C-18.37140298 18.2645137 -18.38683367 17.35127777 -18.40273196 16.41036803 C-18.31112029 10.76789914 -17.16954145 7.73543942 -13.29130691 3.60378402 C-9.06873376 0.13736385 -5.30592116 -0.05336189 0 0 Z " fill="#E24B4C" transform="translate(243.6142578125,236.77294921875)"/>
<path d="M0 0 C1.15711235 -0.00087616 1.15711235 -0.00087616 2.33760071 -0.00177002 C4.87022974 0.00100172 7.40166035 0.0320489 9.93408203 0.06347656 C11.6966996 0.07094223 13.45932549 0.07663362 15.22195435 0.08062744 C19.8482986 0.09585819 24.47413598 0.13511767 29.10028076 0.17944336 C33.82606145 0.22045149 38.55192449 0.23865027 43.27783203 0.25878906 C52.54107487 0.30161462 61.80394245 0.36983471 71.06689453 0.45410156 C71.06689453 0.78410156 71.06689453 1.11410156 71.06689453 1.45410156 C70.29681564 1.45552658 69.52673676 1.4569516 68.73332214 1.4584198 C61.47885364 1.47624339 54.22509682 1.51783607 46.9709425 1.58619213 C43.24136997 1.62049587 39.51220848 1.64557719 35.7824707 1.6496582 C32.18351166 1.65393419 28.58548036 1.68233593 24.98681068 1.72753334 C23.61333938 1.74053124 22.23975718 1.74480784 20.86623192 1.74025536 C18.94370089 1.73536688 17.02117343 1.76425225 15.09887695 1.79467773 C14.00411545 1.80133957 12.90935394 1.8080014 11.78141785 1.81486511 C8.92126641 2.19028903 8.92126641 2.19028903 7.42104626 4.55172729 C5.76730152 8.09622388 5.68947056 10.62297401 5.6859436 14.53132629 C5.68126363 15.2323249 5.67658366 15.9333235 5.67176187 16.65556449 C5.65982038 18.99851621 5.66926556 21.34088209 5.67871094 23.68383789 C5.67464474 25.36615845 5.66930258 27.04847635 5.66278076 28.73078918 C5.64910394 33.29706693 5.65440816 37.86314132 5.66391802 42.42942262 C5.67151645 47.21163621 5.66446814 51.99383247 5.65975952 56.77604675 C5.65430093 64.81012087 5.66149466 72.84411227 5.67578125 80.87817383 C5.6920913 90.15707475 5.68683164 99.43577773 5.67030203 108.71467382 C5.65667024 116.6868254 5.65477629 124.65891752 5.66261804 132.63107699 C5.66728739 137.38988053 5.66794006 142.14859118 5.65800858 146.90738869 C5.64931715 151.38490579 5.65540049 155.86216895 5.67269135 160.33965874 C5.6766453 161.97949426 5.67554089 163.6193513 5.66890335 165.25917816 C5.56035176 176.69850424 5.56035176 176.69850424 9.06689453 187.45410156 C6.3574706 187.56271989 3.65245553 187.64168733 0.94189453 187.70410156 C0.18134766 187.73761719 -0.57919922 187.77113281 -1.36279297 187.80566406 C-6.7193278 187.89801811 -9.75667339 187.10999283 -13.93310547 183.45410156 C-18.1720746 178.35592116 -18.48812848 174.59563415 -18.40185547 168.25878906 C-18.40890503 167.38892365 -18.41595459 166.51905823 -18.42321777 165.62283325 C-18.44518466 162.8579534 -18.44225931 160.09404284 -18.43310547 157.32910156 C-18.42107106 153.68014127 -18.43471941 150.03262249 -18.46435547 146.38378906 C-18.45303589 145.54830536 -18.44171631 144.71282166 -18.43005371 143.85202026 C-18.46215007 139.0662935 -18.46215007 139.0662935 -20.77490234 134.95849609 C-22.94951114 133.29136912 -22.94951114 133.29136912 -25.93310547 132.45410156 C-25.93310547 127.50410156 -25.93310547 122.55410156 -25.93310547 117.45410156 C-22.96310547 116.95910156 -22.96310547 116.95910156 -19.93310547 116.45410156 C-19.01344521 113.69512079 -18.80657566 112.06630712 -18.80180359 109.22343445 C-18.79779541 108.36132355 -18.79378723 107.49921265 -18.78965759 106.61097717 C-18.79018631 105.6680632 -18.79071503 104.72514923 -18.79125977 103.75366211 C-18.78604813 102.26053497 -18.78604813 102.26053497 -18.7807312 100.73724365 C-18.7733739 98.5732091 -18.76802838 96.409167 -18.76444054 94.24512291 C-18.75728 90.81966897 -18.74161653 87.39435869 -18.72309875 83.96894836 C-18.67060884 74.22874924 -18.62264524 64.48862855 -18.60717773 54.74829102 C-18.59709916 48.79245825 -18.5677774 42.83698638 -18.52585793 36.88129616 C-18.51354138 34.61154726 -18.50842785 32.3417474 -18.51065636 30.07196617 C-18.51300792 26.89516023 -18.49085275 23.71939056 -18.46313477 20.54272461 C-18.46973618 19.60588333 -18.47633759 18.66904205 -18.48313904 17.70381165 C-18.40347117 12.14089652 -17.78744323 8.7653033 -13.93310547 4.45410156 C-9.42017966 0.60899617 -5.76269171 -0.11556216 0 0 Z " fill="#EFC22C" transform="translate(88.93310546875,309.5458984375)"/>
</svg>
